M48
; DRILL file {KiCad 6.0.4-6f826c9f35~116~ubuntu20.04.1} date Fri Jul 22 12:02:15 2022
; FORMAT={-:-/ absolute / metric / decimal}
; #@! TF.CreationDate,2022-07-22T12:02:15+00:00
; #@! TF.GenerationSoftware,Kicad,Pcbnew,6.0.4-6f826c9f35~116~ubuntu20.04.1
; #@! TF.FileFunction,Plated,1,2,PTH
FMAT,2
METRIC
; #@! TA.AperFunction,Plated,PTH,ViaDrill
T1C0.500
; #@! TA.AperFunction,Plated,PTH,ComponentDrill
T2C0.889
; #@! TA.AperFunction,Plated,PTH,ComponentDrill
T3C1.200
%
G90
G05
T1
X15.23Y17.516
X26.67Y9.56
X28.194Y17.526
X38.1Y9.652
T2
X2.19Y4.5
X4.73Y4.5
X7.27Y4.5
X9.81Y4.5
X26.67Y4.5
X29.21Y4.5
X31.75Y4.5
X34.29Y4.5
X51.15Y4.5
X53.69Y4.5
X56.23Y4.5
X58.77Y4.5
T3
X15.23Y36.5
X15.23Y13.5
X22.73Y36.5
X22.73Y13.5
X38.23Y36.5
X38.23Y13.5
X45.73Y36.5
X45.73Y13.5
T0
M30
