%TF.GenerationSoftware,KiCad,Pcbnew,6.0.4-6f826c9f35~116~ubuntu20.04.1*%
%TF.CreationDate,2022-08-10T08:32:15+00:00*%
%TF.ProjectId,4XLTO1865V01A,34584c54-4f31-4383-9635-563031412e6b,rev?*%
%TF.SameCoordinates,Original*%
%TF.FileFunction,Legend,Bot*%
%TF.FilePolarity,Positive*%
%FSLAX46Y46*%
G04 Gerber Fmt 4.6, Leading zero omitted, Abs format (unit mm)*
G04 Created by KiCad (PCBNEW 6.0.4-6f826c9f35~116~ubuntu20.04.1) date 2022-08-10 08:32:15*
%MOMM*%
%LPD*%
G01*
G04 APERTURE LIST*
%ADD10C,0.300000*%
G04 APERTURE END LIST*
D10*
X27014285Y46994929D02*
X27014285Y45994929D01*
X27371428Y47566358D02*
X27728571Y46494929D01*
X26800000Y46494929D01*
X26371428Y47494929D02*
X25371428Y45994929D01*
X25371428Y47494929D02*
X26371428Y45994929D01*
X24085714Y45994929D02*
X24800000Y45994929D01*
X24800000Y47494929D01*
X23800000Y47494929D02*
X22942857Y47494929D01*
X23371428Y45994929D02*
X23371428Y47494929D01*
X22157142Y47494929D02*
X21871428Y47494929D01*
X21728571Y47423500D01*
X21585714Y47280643D01*
X21514285Y46994929D01*
X21514285Y46494929D01*
X21585714Y46209215D01*
X21728571Y46066358D01*
X21871428Y45994929D01*
X22157142Y45994929D01*
X22300000Y46066358D01*
X22442857Y46209215D01*
X22514285Y46494929D01*
X22514285Y46994929D01*
X22442857Y47280643D01*
X22300000Y47423500D01*
X22157142Y47494929D01*
X20085714Y45994929D02*
X20942857Y45994929D01*
X20514285Y45994929D02*
X20514285Y47494929D01*
X20657142Y47280643D01*
X20800000Y47137786D01*
X20942857Y47066358D01*
X19228571Y46852072D02*
X19371428Y46923500D01*
X19442857Y46994929D01*
X19514285Y47137786D01*
X19514285Y47209215D01*
X19442857Y47352072D01*
X19371428Y47423500D01*
X19228571Y47494929D01*
X18942857Y47494929D01*
X18800000Y47423500D01*
X18728571Y47352072D01*
X18657142Y47209215D01*
X18657142Y47137786D01*
X18728571Y46994929D01*
X18800000Y46923500D01*
X18942857Y46852072D01*
X19228571Y46852072D01*
X19371428Y46780643D01*
X19442857Y46709215D01*
X19514285Y46566358D01*
X19514285Y46280643D01*
X19442857Y46137786D01*
X19371428Y46066358D01*
X19228571Y45994929D01*
X18942857Y45994929D01*
X18800000Y46066358D01*
X18728571Y46137786D01*
X18657142Y46280643D01*
X18657142Y46566358D01*
X18728571Y46709215D01*
X18800000Y46780643D01*
X18942857Y46852072D01*
X17371428Y47494929D02*
X17657142Y47494929D01*
X17800000Y47423500D01*
X17871428Y47352072D01*
X18014285Y47137786D01*
X18085714Y46852072D01*
X18085714Y46280643D01*
X18014285Y46137786D01*
X17942857Y46066358D01*
X17800000Y45994929D01*
X17514285Y45994929D01*
X17371428Y46066358D01*
X17300000Y46137786D01*
X17228571Y46280643D01*
X17228571Y46637786D01*
X17300000Y46780643D01*
X17371428Y46852072D01*
X17514285Y46923500D01*
X17800000Y46923500D01*
X17942857Y46852072D01*
X18014285Y46780643D01*
X18085714Y46637786D01*
X15871428Y47494929D02*
X16585714Y47494929D01*
X16657142Y46780643D01*
X16585714Y46852072D01*
X16442857Y46923500D01*
X16085714Y46923500D01*
X15942857Y46852072D01*
X15871428Y46780643D01*
X15800000Y46637786D01*
X15800000Y46280643D01*
X15871428Y46137786D01*
X15942857Y46066358D01*
X16085714Y45994929D01*
X16442857Y45994929D01*
X16585714Y46066358D01*
X16657142Y46137786D01*
X15371428Y47494929D02*
X14871428Y45994929D01*
X14371428Y47494929D01*
X13585714Y47494929D02*
X13442857Y47494929D01*
X13300000Y47423500D01*
X13228571Y47352072D01*
X13157142Y47209215D01*
X13085714Y46923500D01*
X13085714Y46566358D01*
X13157142Y46280643D01*
X13228571Y46137786D01*
X13300000Y46066358D01*
X13442857Y45994929D01*
X13585714Y45994929D01*
X13728571Y46066358D01*
X13800000Y46137786D01*
X13871428Y46280643D01*
X13942857Y46566358D01*
X13942857Y46923500D01*
X13871428Y47209215D01*
X13800000Y47352072D01*
X13728571Y47423500D01*
X13585714Y47494929D01*
X11657142Y45994929D02*
X12514285Y45994929D01*
X12085714Y45994929D02*
X12085714Y47494929D01*
X12228571Y47280643D01*
X12371428Y47137786D01*
X12514285Y47066358D01*
X11085714Y46423500D02*
X10371428Y46423500D01*
X11228571Y45994929D02*
X10728571Y47494929D01*
X10228571Y45994929D01*
X21800000Y45079929D02*
X21800000Y44008500D01*
X21871428Y43794215D01*
X22014285Y43651358D01*
X22228571Y43579929D01*
X22371428Y43579929D01*
X21157142Y44008500D02*
X20442857Y44008500D01*
X21300000Y43579929D02*
X20800000Y45079929D01*
X20300000Y43579929D01*
X18942857Y43722786D02*
X19014285Y43651358D01*
X19228571Y43579929D01*
X19371428Y43579929D01*
X19585714Y43651358D01*
X19728571Y43794215D01*
X19800000Y43937072D01*
X19871428Y44222786D01*
X19871428Y44437072D01*
X19800000Y44722786D01*
X19728571Y44865643D01*
X19585714Y45008500D01*
X19371428Y45079929D01*
X19228571Y45079929D01*
X19014285Y45008500D01*
X18942857Y44937072D01*
X18300000Y43579929D02*
X18300000Y45079929D01*
X18300000Y44365643D02*
X17442857Y44365643D01*
X17442857Y43579929D02*
X17442857Y45079929D01*
X16442857Y45079929D02*
X16157142Y45079929D01*
X16014285Y45008500D01*
X15871428Y44865643D01*
X15800000Y44579929D01*
X15800000Y44079929D01*
X15871428Y43794215D01*
X16014285Y43651358D01*
X16157142Y43579929D01*
X16442857Y43579929D01*
X16585714Y43651358D01*
X16728571Y43794215D01*
X16800000Y44079929D01*
X16800000Y44579929D01*
X16728571Y44865643D01*
X16585714Y45008500D01*
X16442857Y45079929D01*
X59312428Y9037929D02*
X59312428Y10537929D01*
X58812428Y9466500D01*
X58312428Y10537929D01*
X58312428Y9037929D01*
X56883857Y9037929D02*
X57598142Y9037929D01*
X57598142Y10537929D01*
X56455285Y9466500D02*
X55741000Y9466500D01*
X56598142Y9037929D02*
X56098142Y10537929D01*
X55598142Y9037929D01*
X54598142Y9823643D02*
X54383857Y9752215D01*
X54312428Y9680786D01*
X54241000Y9537929D01*
X54241000Y9323643D01*
X54312428Y9180786D01*
X54383857Y9109358D01*
X54526714Y9037929D01*
X55098142Y9037929D01*
X55098142Y10537929D01*
X54598142Y10537929D01*
X54455285Y10466500D01*
X54383857Y10395072D01*
X54312428Y10252215D01*
X54312428Y10109358D01*
X54383857Y9966500D01*
X54455285Y9895072D01*
X54598142Y9823643D01*
X55098142Y9823643D01*
X53598142Y9180786D02*
X53526714Y9109358D01*
X53598142Y9037929D01*
X53669571Y9109358D01*
X53598142Y9180786D01*
X53598142Y9037929D01*
X52026714Y9180786D02*
X52098142Y9109358D01*
X52312428Y9037929D01*
X52455285Y9037929D01*
X52669571Y9109358D01*
X52812428Y9252215D01*
X52883857Y9395072D01*
X52955285Y9680786D01*
X52955285Y9895072D01*
X52883857Y10180786D01*
X52812428Y10323643D01*
X52669571Y10466500D01*
X52455285Y10537929D01*
X52312428Y10537929D01*
X52098142Y10466500D01*
X52026714Y10395072D01*
X51526714Y10537929D02*
X50526714Y10537929D01*
X51526714Y9037929D01*
X50526714Y9037929D01*
X57562428Y7980072D02*
X57491000Y8051500D01*
X57348142Y8122929D01*
X56991000Y8122929D01*
X56848142Y8051500D01*
X56776714Y7980072D01*
X56705285Y7837215D01*
X56705285Y7694358D01*
X56776714Y7480072D01*
X57633857Y6622929D01*
X56705285Y6622929D01*
X55776714Y8122929D02*
X55633857Y8122929D01*
X55491000Y8051500D01*
X55419571Y7980072D01*
X55348142Y7837215D01*
X55276714Y7551500D01*
X55276714Y7194358D01*
X55348142Y6908643D01*
X55419571Y6765786D01*
X55491000Y6694358D01*
X55633857Y6622929D01*
X55776714Y6622929D01*
X55919571Y6694358D01*
X55991000Y6765786D01*
X56062428Y6908643D01*
X56133857Y7194358D01*
X56133857Y7551500D01*
X56062428Y7837215D01*
X55991000Y7980072D01*
X55919571Y8051500D01*
X55776714Y8122929D01*
X54705285Y7980072D02*
X54633857Y8051500D01*
X54491000Y8122929D01*
X54133857Y8122929D01*
X53991000Y8051500D01*
X53919571Y7980072D01*
X53848142Y7837215D01*
X53848142Y7694358D01*
X53919571Y7480072D01*
X54776714Y6622929D01*
X53848142Y6622929D01*
X53276714Y7980072D02*
X53205285Y8051500D01*
X53062428Y8122929D01*
X52705285Y8122929D01*
X52562428Y8051500D01*
X52491000Y7980072D01*
X52419571Y7837215D01*
X52419571Y7694358D01*
X52491000Y7480072D01*
X53348142Y6622929D01*
X52419571Y6622929D01*
M02*
