%TF.GenerationSoftware,KiCad,Pcbnew,6.0.4-6f826c9f35~116~ubuntu20.04.1*%
%TF.CreationDate,2022-08-10T08:32:15+00:00*%
%TF.ProjectId,4XLTO1865V01A,34584c54-4f31-4383-9635-563031412e6b,rev?*%
%TF.SameCoordinates,Original*%
%TF.FileFunction,Copper,L2,Bot*%
%TF.FilePolarity,Positive*%
%FSLAX46Y46*%
G04 Gerber Fmt 4.6, Leading zero omitted, Abs format (unit mm)*
G04 Created by KiCad (PCBNEW 6.0.4-6f826c9f35~116~ubuntu20.04.1) date 2022-08-10 08:32:15*
%MOMM*%
%LPD*%
G01*
G04 APERTURE LIST*
%TA.AperFunction,ComponentPad*%
%ADD10R,1.524000X1.524000*%
%TD*%
%TA.AperFunction,ComponentPad*%
%ADD11C,6.000000*%
%TD*%
%TA.AperFunction,ComponentPad*%
%ADD12R,2.400000X2.400000*%
%TD*%
%TA.AperFunction,ComponentPad*%
%ADD13C,2.400000*%
%TD*%
%TA.AperFunction,ViaPad*%
%ADD14C,0.890000*%
%TD*%
%TA.AperFunction,ViaPad*%
%ADD15C,0.900000*%
%TD*%
%TA.AperFunction,Conductor*%
%ADD16C,0.500000*%
%TD*%
G04 APERTURE END LIST*
D10*
%TO.P,J1,1*%
%TO.N,/Battery-*%
X34290000Y4500000D03*
%TO.P,J1,2*%
%TO.N,/Battery+*%
X31750000Y4500000D03*
%TO.P,J1,3*%
X29210000Y4500000D03*
%TO.P,J1,4*%
%TO.N,/Battery-*%
X26670000Y4500000D03*
%TD*%
%TO.P,J2,1*%
%TO.N,GND*%
X9810000Y4500000D03*
%TO.P,J2,2*%
%TO.N,Net-(J2-Pad2)*%
X7270000Y4500000D03*
%TO.P,J2,3*%
%TO.N,Net-(J2-Pad3)*%
X4730000Y4500000D03*
%TO.P,J2,4*%
%TO.N,GND*%
X2190000Y4500000D03*
%TD*%
D11*
%TO.P,M1,1*%
%TO.N,GND*%
X5080000Y25127000D03*
%TD*%
D12*
%TO.P,BT1,1,+*%
%TO.N,/Battery+*%
X15230000Y36500000D03*
D13*
%TO.P,BT1,2,-*%
%TO.N,/Battery-*%
X22730000Y36500000D03*
%TD*%
D11*
%TO.P,M2,1*%
%TO.N,GND*%
X55880000Y25127000D03*
%TD*%
D12*
%TO.P,BT4,1,+*%
%TO.N,/Battery+*%
X15230000Y13500000D03*
D13*
%TO.P,BT4,2,-*%
%TO.N,/Battery-*%
X22730000Y13500000D03*
%TD*%
D12*
%TO.P,BT3,1,+*%
%TO.N,/Battery+*%
X38230000Y36500000D03*
D13*
%TO.P,BT3,2,-*%
%TO.N,/Battery-*%
X45730000Y36500000D03*
%TD*%
D12*
%TO.P,BT2,1,+*%
%TO.N,/Battery+*%
X38230000Y13500000D03*
D13*
%TO.P,BT2,2,-*%
%TO.N,/Battery-*%
X45730000Y13500000D03*
%TD*%
D10*
%TO.P,J3,1*%
%TO.N,GND*%
X58770000Y4500000D03*
%TO.P,J3,2*%
X56230000Y4500000D03*
%TO.P,J3,3*%
X53690000Y4500000D03*
%TO.P,J3,4*%
X51150000Y4500000D03*
%TD*%
D14*
%TO.N,/Battery+*%
X15230000Y17516000D03*
X28194000Y17526000D03*
%TO.N,/Battery-*%
X38100000Y9652000D03*
X26670000Y9560000D03*
D15*
%TO.N,GND*%
X6604000Y2032000D03*
X2794000Y2032000D03*
X1524000Y2032000D03*
X56896000Y2032000D03*
X10414000Y2032000D03*
X59436000Y2032000D03*
X58166000Y2032000D03*
X4064000Y2032000D03*
X5334000Y2032000D03*
X51816000Y2032000D03*
X54356000Y2032000D03*
X50546000Y2032000D03*
X55626000Y2032000D03*
X9144000Y2032000D03*
X53086000Y2032000D03*
X7874000Y2032000D03*
D14*
%TO.N,Net-(J2-Pad2)*%
X27432000Y24130000D03*
%TO.N,Net-(J2-Pad3)*%
X27432000Y25908000D03*
%TD*%
D16*
%TO.N,/Battery+*%
X28194000Y17526000D02*
X15240000Y17526000D01*
%TO.N,/Battery-*%
X38008000Y9560000D02*
X38100000Y9652000D01*
X26670000Y9560000D02*
X38008000Y9560000D01*
%TO.N,Net-(J2-Pad2)*%
X16637000Y24130000D02*
X27432000Y24130000D01*
X7270000Y14763000D02*
X16637000Y24130000D01*
X7270000Y4500000D02*
X7270000Y14763000D01*
%TO.N,Net-(J2-Pad3)*%
X16383000Y25908000D02*
X4699000Y14224000D01*
X27432000Y25908000D02*
X16383000Y25908000D01*
X4730000Y14193000D02*
X4730000Y4500000D01*
X4699000Y14224000D02*
X4730000Y14193000D01*
%TD*%
%TA.AperFunction,Conductor*%
%TO.N,GND*%
G36*
X50686182Y49798047D02*
G01*
X50691813Y49798037D01*
X50705642Y49794857D01*
X50719481Y49797989D01*
X50731855Y49797967D01*
X50741736Y49798920D01*
X51114098Y49787668D01*
X51293919Y49782235D01*
X51301501Y49781775D01*
X51592485Y49755333D01*
X51883461Y49728892D01*
X51891017Y49727975D01*
X52468738Y49640047D01*
X52476224Y49638675D01*
X53047580Y49516027D01*
X53054970Y49514205D01*
X53232869Y49464612D01*
X53617871Y49357285D01*
X53625106Y49355031D01*
X54177546Y49164395D01*
X54184636Y49161706D01*
X54478275Y49040077D01*
X54724530Y48938075D01*
X54731471Y48934951D01*
X55256865Y48679135D01*
X55263604Y48675598D01*
X55772596Y48388526D01*
X55779109Y48384589D01*
X55972448Y48259586D01*
X56269840Y48067308D01*
X56276093Y48062992D01*
X56746782Y47716652D01*
X56752773Y47711958D01*
X57201676Y47337844D01*
X57207373Y47332797D01*
X57409402Y47142620D01*
X57632885Y46932247D01*
X57638247Y46926885D01*
X57788810Y46766939D01*
X58038797Y46501373D01*
X58043844Y46495676D01*
X58417958Y46046773D01*
X58422649Y46040786D01*
X58768992Y45570093D01*
X58773308Y45563840D01*
X58957306Y45279255D01*
X59090589Y45073109D01*
X59094526Y45066596D01*
X59381598Y44557604D01*
X59385135Y44550865D01*
X59640951Y44025471D01*
X59644075Y44018530D01*
X59809723Y43618621D01*
X59867701Y43478649D01*
X59870395Y43471546D01*
X60061031Y42919106D01*
X60063285Y42911871D01*
X60170612Y42526869D01*
X60220205Y42348970D01*
X60222027Y42341580D01*
X60344675Y41770224D01*
X60346047Y41762738D01*
X60433975Y41185017D01*
X60434892Y41177461D01*
X60487775Y40595508D01*
X60488235Y40587911D01*
X60504903Y40036305D01*
X60504061Y40027737D01*
X60504037Y40014188D01*
X60500857Y40000358D01*
X60503989Y39986518D01*
X60503980Y39981628D01*
X60506000Y39963552D01*
X60506000Y580000D01*
X60485998Y511879D01*
X60432342Y465386D01*
X60380000Y454000D01*
X580000Y454000D01*
X511879Y474002D01*
X465386Y527658D01*
X454000Y580000D01*
X454000Y3718252D01*
X3767500Y3718252D01*
X3779133Y3659769D01*
X3823448Y3593448D01*
X3889769Y3549133D01*
X3901938Y3546712D01*
X3901939Y3546712D01*
X3942184Y3538707D01*
X3948252Y3537500D01*
X5511748Y3537500D01*
X5517816Y3538707D01*
X5558061Y3546712D01*
X5558062Y3546712D01*
X5570231Y3549133D01*
X5636552Y3593448D01*
X5680867Y3659769D01*
X5692500Y3718252D01*
X6307500Y3718252D01*
X6319133Y3659769D01*
X6363448Y3593448D01*
X6429769Y3549133D01*
X6441938Y3546712D01*
X6441939Y3546712D01*
X6482184Y3538707D01*
X6488252Y3537500D01*
X8051748Y3537500D01*
X8057816Y3538707D01*
X8098061Y3546712D01*
X8098062Y3546712D01*
X8110231Y3549133D01*
X8176552Y3593448D01*
X8220867Y3659769D01*
X8232500Y3718252D01*
X25707500Y3718252D01*
X25719133Y3659769D01*
X25763448Y3593448D01*
X25829769Y3549133D01*
X25841938Y3546712D01*
X25841939Y3546712D01*
X25882184Y3538707D01*
X25888252Y3537500D01*
X27451748Y3537500D01*
X27457816Y3538707D01*
X27498061Y3546712D01*
X27498062Y3546712D01*
X27510231Y3549133D01*
X27576552Y3593448D01*
X27620867Y3659769D01*
X27632500Y3718252D01*
X28247500Y3718252D01*
X28259133Y3659769D01*
X28303448Y3593448D01*
X28369769Y3549133D01*
X28381938Y3546712D01*
X28381939Y3546712D01*
X28422184Y3538707D01*
X28428252Y3537500D01*
X29991748Y3537500D01*
X29997816Y3538707D01*
X30038061Y3546712D01*
X30038062Y3546712D01*
X30050231Y3549133D01*
X30116552Y3593448D01*
X30160867Y3659769D01*
X30172500Y3718252D01*
X30787500Y3718252D01*
X30799133Y3659769D01*
X30843448Y3593448D01*
X30909769Y3549133D01*
X30921938Y3546712D01*
X30921939Y3546712D01*
X30962184Y3538707D01*
X30968252Y3537500D01*
X32531748Y3537500D01*
X32537816Y3538707D01*
X32578061Y3546712D01*
X32578062Y3546712D01*
X32590231Y3549133D01*
X32656552Y3593448D01*
X32700867Y3659769D01*
X32712500Y3718252D01*
X33327500Y3718252D01*
X33339133Y3659769D01*
X33383448Y3593448D01*
X33449769Y3549133D01*
X33461938Y3546712D01*
X33461939Y3546712D01*
X33502184Y3538707D01*
X33508252Y3537500D01*
X35071748Y3537500D01*
X35077816Y3538707D01*
X35118061Y3546712D01*
X35118062Y3546712D01*
X35130231Y3549133D01*
X35196552Y3593448D01*
X35240867Y3659769D01*
X35252500Y3718252D01*
X35252500Y5281748D01*
X35240867Y5340231D01*
X35196552Y5406552D01*
X35130231Y5450867D01*
X35118062Y5453288D01*
X35118061Y5453288D01*
X35077816Y5461293D01*
X35071748Y5462500D01*
X33508252Y5462500D01*
X33502184Y5461293D01*
X33461939Y5453288D01*
X33461938Y5453288D01*
X33449769Y5450867D01*
X33383448Y5406552D01*
X33339133Y5340231D01*
X33327500Y5281748D01*
X33327500Y3718252D01*
X32712500Y3718252D01*
X32712500Y5281748D01*
X32700867Y5340231D01*
X32656552Y5406552D01*
X32590231Y5450867D01*
X32578062Y5453288D01*
X32578061Y5453288D01*
X32537816Y5461293D01*
X32531748Y5462500D01*
X30968252Y5462500D01*
X30962184Y5461293D01*
X30921939Y5453288D01*
X30921938Y5453288D01*
X30909769Y5450867D01*
X30843448Y5406552D01*
X30799133Y5340231D01*
X30787500Y5281748D01*
X30787500Y3718252D01*
X30172500Y3718252D01*
X30172500Y5281748D01*
X30160867Y5340231D01*
X30116552Y5406552D01*
X30050231Y5450867D01*
X30038062Y5453288D01*
X30038061Y5453288D01*
X29997816Y5461293D01*
X29991748Y5462500D01*
X28428252Y5462500D01*
X28422184Y5461293D01*
X28381939Y5453288D01*
X28381938Y5453288D01*
X28369769Y5450867D01*
X28303448Y5406552D01*
X28259133Y5340231D01*
X28247500Y5281748D01*
X28247500Y3718252D01*
X27632500Y3718252D01*
X27632500Y5281748D01*
X27620867Y5340231D01*
X27576552Y5406552D01*
X27510231Y5450867D01*
X27498062Y5453288D01*
X27498061Y5453288D01*
X27457816Y5461293D01*
X27451748Y5462500D01*
X25888252Y5462500D01*
X25882184Y5461293D01*
X25841939Y5453288D01*
X25841938Y5453288D01*
X25829769Y5450867D01*
X25763448Y5406552D01*
X25719133Y5340231D01*
X25707500Y5281748D01*
X25707500Y3718252D01*
X8232500Y3718252D01*
X8232500Y5281748D01*
X8220867Y5340231D01*
X8176552Y5406552D01*
X8110231Y5450867D01*
X8098062Y5453288D01*
X8098061Y5453288D01*
X8057816Y5461293D01*
X8051748Y5462500D01*
X7846500Y5462500D01*
X7778379Y5482502D01*
X7731886Y5536158D01*
X7720500Y5588500D01*
X7720500Y9566809D01*
X26019795Y9566809D01*
X26036939Y9411517D01*
X26039549Y9404385D01*
X26065827Y9332578D01*
X26090631Y9264797D01*
X26177771Y9135119D01*
X26183383Y9130012D01*
X26183386Y9130009D01*
X26287707Y9035084D01*
X26287711Y9035081D01*
X26293328Y9029970D01*
X26300005Y9026345D01*
X26300006Y9026344D01*
X26423953Y8959046D01*
X26423955Y8959045D01*
X26430630Y8955421D01*
X26437979Y8953493D01*
X26574402Y8917703D01*
X26574404Y8917703D01*
X26581752Y8915775D01*
X26664424Y8914476D01*
X26730372Y8913440D01*
X26730375Y8913440D01*
X26737969Y8913321D01*
X26791560Y8925595D01*
X26882858Y8946505D01*
X26882862Y8946506D01*
X26890261Y8948201D01*
X27029838Y9018400D01*
X27101156Y9079311D01*
X27165946Y9108342D01*
X27182986Y9109500D01*
X37714295Y9109500D01*
X37774417Y9094231D01*
X37853953Y9051046D01*
X37853955Y9051045D01*
X37860630Y9047421D01*
X37867979Y9045493D01*
X38004402Y9009703D01*
X38004404Y9009703D01*
X38011752Y9007775D01*
X38094424Y9006476D01*
X38160372Y9005440D01*
X38160375Y9005440D01*
X38167969Y9005321D01*
X38225074Y9018400D01*
X38312858Y9038505D01*
X38312862Y9038506D01*
X38320261Y9040201D01*
X38459838Y9110400D01*
X38496157Y9141419D01*
X38572867Y9206935D01*
X38572869Y9206938D01*
X38578641Y9211867D01*
X38669811Y9338744D01*
X38728085Y9483705D01*
X38750098Y9638382D01*
X38750241Y9652000D01*
X38731471Y9807104D01*
X38676246Y9953254D01*
X38671947Y9959509D01*
X38671945Y9959513D01*
X38592055Y10075753D01*
X38592054Y10075755D01*
X38587753Y10082012D01*
X38582047Y10087096D01*
X38476773Y10180892D01*
X38476770Y10180894D01*
X38471101Y10185945D01*
X38464387Y10189500D01*
X38339741Y10255497D01*
X38339738Y10255498D01*
X38333026Y10259052D01*
X38181497Y10297114D01*
X38173899Y10297154D01*
X38173897Y10297154D01*
X38108319Y10297497D01*
X38025263Y10297932D01*
X38017883Y10296160D01*
X38017881Y10296160D01*
X37944165Y10278462D01*
X37873344Y10261459D01*
X37734510Y10189802D01*
X37616777Y10087096D01*
X37612409Y10080881D01*
X37612408Y10080880D01*
X37600578Y10064048D01*
X37545043Y10019817D01*
X37497492Y10010500D01*
X27182747Y10010500D01*
X27114626Y10030502D01*
X27098928Y10042424D01*
X27046777Y10088889D01*
X27046771Y10088893D01*
X27041101Y10093945D01*
X27034385Y10097501D01*
X26909741Y10163497D01*
X26909738Y10163498D01*
X26903026Y10167052D01*
X26751497Y10205114D01*
X26743899Y10205154D01*
X26743897Y10205154D01*
X26678319Y10205497D01*
X26595263Y10205932D01*
X26587883Y10204160D01*
X26587881Y10204160D01*
X26514165Y10186462D01*
X26443344Y10169459D01*
X26304510Y10097802D01*
X26186777Y9995096D01*
X26096940Y9867272D01*
X26040188Y9721708D01*
X26039197Y9714179D01*
X26030467Y9647867D01*
X26019795Y9566809D01*
X7720500Y9566809D01*
X7720500Y12280252D01*
X13829500Y12280252D01*
X13841133Y12221769D01*
X13885448Y12155448D01*
X13951769Y12111133D01*
X13963938Y12108712D01*
X13963939Y12108712D01*
X13985633Y12104397D01*
X14010252Y12099500D01*
X16449748Y12099500D01*
X16474367Y12104397D01*
X16496061Y12108712D01*
X16496062Y12108712D01*
X16508231Y12111133D01*
X16574552Y12155448D01*
X16618867Y12221769D01*
X16630500Y12280252D01*
X16630500Y13534335D01*
X21325119Y13534335D01*
X21325416Y13529183D01*
X21325416Y13529179D01*
X21330864Y13434704D01*
X21338376Y13304420D01*
X21339513Y13299374D01*
X21339514Y13299368D01*
X21361226Y13203025D01*
X21389006Y13079758D01*
X21390948Y13074976D01*
X21390949Y13074972D01*
X21428427Y12982675D01*
X21475649Y12866382D01*
X21595979Y12670022D01*
X21746763Y12495952D01*
X21923953Y12348846D01*
X22122790Y12232655D01*
X22337934Y12150499D01*
X22343000Y12149468D01*
X22343001Y12149468D01*
X22347479Y12148557D01*
X22563607Y12104586D01*
X22693352Y12099828D01*
X22788585Y12096336D01*
X22788589Y12096336D01*
X22793749Y12096147D01*
X22798869Y12096803D01*
X22798871Y12096803D01*
X22868272Y12105693D01*
X23022178Y12125409D01*
X23027126Y12126894D01*
X23027133Y12126895D01*
X23237811Y12190102D01*
X23237810Y12190102D01*
X23242761Y12191587D01*
X23423748Y12280252D01*
X36829500Y12280252D01*
X36841133Y12221769D01*
X36885448Y12155448D01*
X36951769Y12111133D01*
X36963938Y12108712D01*
X36963939Y12108712D01*
X36985633Y12104397D01*
X37010252Y12099500D01*
X39449748Y12099500D01*
X39474367Y12104397D01*
X39496061Y12108712D01*
X39496062Y12108712D01*
X39508231Y12111133D01*
X39574552Y12155448D01*
X39618867Y12221769D01*
X39630500Y12280252D01*
X39630500Y13534335D01*
X44325119Y13534335D01*
X44325416Y13529183D01*
X44325416Y13529179D01*
X44330864Y13434704D01*
X44338376Y13304420D01*
X44339513Y13299374D01*
X44339514Y13299368D01*
X44361226Y13203025D01*
X44389006Y13079758D01*
X44390948Y13074976D01*
X44390949Y13074972D01*
X44428427Y12982675D01*
X44475649Y12866382D01*
X44595979Y12670022D01*
X44746763Y12495952D01*
X44923953Y12348846D01*
X45122790Y12232655D01*
X45337934Y12150499D01*
X45343000Y12149468D01*
X45343001Y12149468D01*
X45347479Y12148557D01*
X45563607Y12104586D01*
X45693352Y12099828D01*
X45788585Y12096336D01*
X45788589Y12096336D01*
X45793749Y12096147D01*
X45798869Y12096803D01*
X45798871Y12096803D01*
X45868272Y12105693D01*
X46022178Y12125409D01*
X46027126Y12126894D01*
X46027133Y12126895D01*
X46237811Y12190102D01*
X46237810Y12190102D01*
X46242761Y12191587D01*
X46449574Y12292904D01*
X46637062Y12426637D01*
X46800190Y12589197D01*
X46858269Y12670022D01*
X46931559Y12772017D01*
X46934577Y12776217D01*
X47036615Y12982675D01*
X47067643Y13084800D01*
X47102059Y13198073D01*
X47102060Y13198079D01*
X47103563Y13203025D01*
X47133622Y13431351D01*
X47135300Y13500000D01*
X47116430Y13729522D01*
X47060326Y13952880D01*
X47002576Y14085696D01*
X46970556Y14159339D01*
X46970554Y14159342D01*
X46968496Y14164076D01*
X46863319Y14326655D01*
X46846215Y14353094D01*
X46846213Y14353097D01*
X46843405Y14357437D01*
X46822774Y14380111D01*
X46691890Y14523949D01*
X46691889Y14523950D01*
X46688412Y14527771D01*
X46684361Y14530970D01*
X46684357Y14530974D01*
X46511735Y14667303D01*
X46511730Y14667307D01*
X46507681Y14670504D01*
X46503165Y14672997D01*
X46503162Y14672999D01*
X46310589Y14779305D01*
X46310585Y14779307D01*
X46306065Y14781802D01*
X46301196Y14783526D01*
X46301192Y14783528D01*
X46093853Y14856951D01*
X46093849Y14856952D01*
X46088978Y14858677D01*
X46083885Y14859584D01*
X46083882Y14859585D01*
X45958188Y14881974D01*
X45862250Y14899063D01*
X45775802Y14900119D01*
X45637141Y14901814D01*
X45637139Y14901814D01*
X45631971Y14901877D01*
X45404325Y14867042D01*
X45185424Y14795494D01*
X45180832Y14793104D01*
X45180833Y14793104D01*
X45039918Y14719748D01*
X44981149Y14689155D01*
X44796984Y14550881D01*
X44637877Y14384384D01*
X44634963Y14380112D01*
X44634962Y14380111D01*
X44610477Y14344217D01*
X44508099Y14194137D01*
X44505923Y14189448D01*
X44505919Y14189442D01*
X44413315Y13989943D01*
X44411136Y13985248D01*
X44349592Y13763327D01*
X44325119Y13534335D01*
X39630500Y13534335D01*
X39630500Y14719748D01*
X39618867Y14778231D01*
X39574552Y14844552D01*
X39508231Y14888867D01*
X39496062Y14891288D01*
X39496061Y14891288D01*
X39455816Y14899293D01*
X39449748Y14900500D01*
X37010252Y14900500D01*
X37004184Y14899293D01*
X36963939Y14891288D01*
X36963938Y14891288D01*
X36951769Y14888867D01*
X36885448Y14844552D01*
X36841133Y14778231D01*
X36829500Y14719748D01*
X36829500Y12280252D01*
X23423748Y12280252D01*
X23449574Y12292904D01*
X23637062Y12426637D01*
X23800190Y12589197D01*
X23858269Y12670022D01*
X23931559Y12772017D01*
X23934577Y12776217D01*
X24036615Y12982675D01*
X24067643Y13084800D01*
X24102059Y13198073D01*
X24102060Y13198079D01*
X24103563Y13203025D01*
X24133622Y13431351D01*
X24135300Y13500000D01*
X24116430Y13729522D01*
X24060326Y13952880D01*
X24002576Y14085696D01*
X23970556Y14159339D01*
X23970554Y14159342D01*
X23968496Y14164076D01*
X23863319Y14326655D01*
X23846215Y14353094D01*
X23846213Y14353097D01*
X23843405Y14357437D01*
X23822774Y14380111D01*
X23691890Y14523949D01*
X23691889Y14523950D01*
X23688412Y14527771D01*
X23684361Y14530970D01*
X23684357Y14530974D01*
X23511735Y14667303D01*
X23511730Y14667307D01*
X23507681Y14670504D01*
X23503165Y14672997D01*
X23503162Y14672999D01*
X23310589Y14779305D01*
X23310585Y14779307D01*
X23306065Y14781802D01*
X23301196Y14783526D01*
X23301192Y14783528D01*
X23093853Y14856951D01*
X23093849Y14856952D01*
X23088978Y14858677D01*
X23083885Y14859584D01*
X23083882Y14859585D01*
X22958188Y14881974D01*
X22862250Y14899063D01*
X22775802Y14900119D01*
X22637141Y14901814D01*
X22637139Y14901814D01*
X22631971Y14901877D01*
X22404325Y14867042D01*
X22185424Y14795494D01*
X22180832Y14793104D01*
X22180833Y14793104D01*
X22039918Y14719748D01*
X21981149Y14689155D01*
X21796984Y14550881D01*
X21637877Y14384384D01*
X21634963Y14380112D01*
X21634962Y14380111D01*
X21610477Y14344217D01*
X21508099Y14194137D01*
X21505923Y14189448D01*
X21505919Y14189442D01*
X21413315Y13989943D01*
X21411136Y13985248D01*
X21349592Y13763327D01*
X21325119Y13534335D01*
X16630500Y13534335D01*
X16630500Y14719748D01*
X16618867Y14778231D01*
X16574552Y14844552D01*
X16508231Y14888867D01*
X16496062Y14891288D01*
X16496061Y14891288D01*
X16455816Y14899293D01*
X16449748Y14900500D01*
X14010252Y14900500D01*
X14004184Y14899293D01*
X13963939Y14891288D01*
X13963938Y14891288D01*
X13951769Y14888867D01*
X13885448Y14844552D01*
X13841133Y14778231D01*
X13829500Y14719748D01*
X13829500Y12280252D01*
X7720500Y12280252D01*
X7720500Y14524207D01*
X7740502Y14592328D01*
X7757405Y14613302D01*
X10666912Y17522809D01*
X14579795Y17522809D01*
X14596939Y17367517D01*
X14650631Y17220797D01*
X14737771Y17091119D01*
X14743383Y17086012D01*
X14743386Y17086009D01*
X14847707Y16991084D01*
X14847711Y16991081D01*
X14853328Y16985970D01*
X14860005Y16982345D01*
X14860006Y16982344D01*
X14983953Y16915046D01*
X14983955Y16915045D01*
X14990630Y16911421D01*
X14997979Y16909493D01*
X15134402Y16873703D01*
X15134404Y16873703D01*
X15141752Y16871775D01*
X15224424Y16870476D01*
X15290372Y16869440D01*
X15290375Y16869440D01*
X15297969Y16869321D01*
X15360763Y16883703D01*
X15442858Y16902505D01*
X15442862Y16902506D01*
X15450261Y16904201D01*
X15589838Y16974400D01*
X15672866Y17045312D01*
X15737653Y17074342D01*
X15754694Y17075500D01*
X27681180Y17075500D01*
X27749301Y17055498D01*
X27765979Y17042694D01*
X27817328Y16995970D01*
X27824005Y16992345D01*
X27824006Y16992344D01*
X27947953Y16925046D01*
X27947955Y16925045D01*
X27954630Y16921421D01*
X27961979Y16919493D01*
X28098402Y16883703D01*
X28098404Y16883703D01*
X28105752Y16881775D01*
X28188424Y16880476D01*
X28254372Y16879440D01*
X28254375Y16879440D01*
X28261969Y16879321D01*
X28315560Y16891595D01*
X28406858Y16912505D01*
X28406862Y16912506D01*
X28414261Y16914201D01*
X28553838Y16984400D01*
X28625156Y17045311D01*
X28666867Y17080935D01*
X28666869Y17080938D01*
X28672641Y17085867D01*
X28763811Y17212744D01*
X28767049Y17220797D01*
X28819251Y17350655D01*
X28819251Y17350656D01*
X28822085Y17357705D01*
X28844098Y17512382D01*
X28844241Y17526000D01*
X28825471Y17681104D01*
X28770246Y17827254D01*
X28765947Y17833509D01*
X28765945Y17833513D01*
X28686055Y17949753D01*
X28686054Y17949755D01*
X28681753Y17956012D01*
X28658758Y17976500D01*
X28570773Y18054892D01*
X28570770Y18054894D01*
X28565101Y18059945D01*
X28558387Y18063500D01*
X28433741Y18129497D01*
X28433738Y18129498D01*
X28427026Y18133052D01*
X28275497Y18171114D01*
X28267899Y18171154D01*
X28267897Y18171154D01*
X28202319Y18171497D01*
X28119263Y18171932D01*
X28111883Y18170160D01*
X28111881Y18170160D01*
X28038165Y18152462D01*
X27967344Y18135459D01*
X27828510Y18063802D01*
X27765842Y18009133D01*
X27764029Y18007551D01*
X27699547Y17977843D01*
X27681199Y17976500D01*
X15731522Y17976500D01*
X15663401Y17996502D01*
X15647703Y18008424D01*
X15606773Y18044892D01*
X15606770Y18044894D01*
X15601101Y18049945D01*
X15594387Y18053500D01*
X15469741Y18119497D01*
X15469738Y18119498D01*
X15463026Y18123052D01*
X15311497Y18161114D01*
X15303899Y18161154D01*
X15303897Y18161154D01*
X15238319Y18161497D01*
X15155263Y18161932D01*
X15147883Y18160160D01*
X15147881Y18160160D01*
X15074165Y18142462D01*
X15003344Y18125459D01*
X14864510Y18053802D01*
X14746777Y17951096D01*
X14742410Y17944882D01*
X14664138Y17833513D01*
X14656940Y17823272D01*
X14600188Y17677708D01*
X14579795Y17522809D01*
X10666912Y17522809D01*
X16786698Y23642595D01*
X16849010Y23676621D01*
X16875793Y23679500D01*
X26919180Y23679500D01*
X26987301Y23659498D01*
X27003979Y23646694D01*
X27055328Y23599970D01*
X27062005Y23596345D01*
X27062006Y23596344D01*
X27185953Y23529046D01*
X27185955Y23529045D01*
X27192630Y23525421D01*
X27199979Y23523493D01*
X27336402Y23487703D01*
X27336404Y23487703D01*
X27343752Y23485775D01*
X27426424Y23484476D01*
X27492372Y23483440D01*
X27492375Y23483440D01*
X27499969Y23483321D01*
X27553560Y23495595D01*
X27644858Y23516505D01*
X27644862Y23516506D01*
X27652261Y23518201D01*
X27791838Y23588400D01*
X27819060Y23611650D01*
X27904867Y23684935D01*
X27904869Y23684938D01*
X27910641Y23689867D01*
X28001811Y23816744D01*
X28060085Y23961705D01*
X28082098Y24116382D01*
X28082241Y24130000D01*
X28063471Y24285104D01*
X28019173Y24402337D01*
X28010931Y24424149D01*
X28010930Y24424151D01*
X28008246Y24431254D01*
X28003947Y24437509D01*
X28003945Y24437513D01*
X27924055Y24553753D01*
X27924054Y24553755D01*
X27919753Y24560012D01*
X27913651Y24565449D01*
X27808773Y24658892D01*
X27808770Y24658894D01*
X27803101Y24663945D01*
X27796387Y24667500D01*
X27671741Y24733497D01*
X27671738Y24733498D01*
X27665026Y24737052D01*
X27513497Y24775114D01*
X27505899Y24775154D01*
X27505897Y24775154D01*
X27440319Y24775497D01*
X27357263Y24775932D01*
X27349883Y24774160D01*
X27349881Y24774160D01*
X27276165Y24756462D01*
X27205344Y24739459D01*
X27066510Y24667802D01*
X27003842Y24613133D01*
X27002029Y24611551D01*
X26937547Y24581843D01*
X26919199Y24580500D01*
X16671219Y24580500D01*
X16656410Y24581373D01*
X16652439Y24581843D01*
X16622689Y24585364D01*
X16613426Y24583672D01*
X16613419Y24583672D01*
X16564982Y24574825D01*
X16561083Y24574175D01*
X16538353Y24570758D01*
X16512356Y24566850D01*
X16512355Y24566850D01*
X16503038Y24565449D01*
X16496525Y24562321D01*
X16489427Y24561025D01*
X16437347Y24533972D01*
X16433845Y24532223D01*
X16389413Y24510887D01*
X16380921Y24506809D01*
X16375636Y24501923D01*
X16375589Y24501892D01*
X16369211Y24498579D01*
X16364172Y24494275D01*
X16326945Y24457048D01*
X16323380Y24453619D01*
X16281444Y24414854D01*
X16277751Y24408495D01*
X16272234Y24402337D01*
X6975650Y15105753D01*
X6964561Y15095899D01*
X6945291Y15080707D01*
X6945289Y15080705D01*
X6937890Y15074872D01*
X6932535Y15067125D01*
X6932534Y15067123D01*
X6904545Y15026625D01*
X6902250Y15023413D01*
X6867366Y14976184D01*
X6864973Y14969368D01*
X6860869Y14963431D01*
X6858029Y14954451D01*
X6858028Y14954449D01*
X6843182Y14907505D01*
X6841929Y14903750D01*
X6826420Y14859585D01*
X6822481Y14848369D01*
X6822199Y14841181D01*
X6822188Y14841122D01*
X6820020Y14834270D01*
X6819500Y14827663D01*
X6819500Y14774984D01*
X6819403Y14770038D01*
X6817162Y14713006D01*
X6819046Y14705900D01*
X6819500Y14697653D01*
X6819500Y5588500D01*
X6799498Y5520379D01*
X6745842Y5473886D01*
X6693500Y5462500D01*
X6488252Y5462500D01*
X6482184Y5461293D01*
X6441939Y5453288D01*
X6441938Y5453288D01*
X6429769Y5450867D01*
X6363448Y5406552D01*
X6319133Y5340231D01*
X6307500Y5281748D01*
X6307500Y3718252D01*
X5692500Y3718252D01*
X5692500Y5281748D01*
X5680867Y5340231D01*
X5636552Y5406552D01*
X5570231Y5450867D01*
X5558062Y5453288D01*
X5558061Y5453288D01*
X5517816Y5461293D01*
X5511748Y5462500D01*
X5306500Y5462500D01*
X5238379Y5482502D01*
X5191886Y5536158D01*
X5180500Y5588500D01*
X5180500Y14016207D01*
X5200502Y14084328D01*
X5217405Y14105302D01*
X16532698Y25420595D01*
X16595010Y25454621D01*
X16621793Y25457500D01*
X26919180Y25457500D01*
X26987301Y25437498D01*
X27003979Y25424694D01*
X27055328Y25377970D01*
X27062005Y25374345D01*
X27062006Y25374344D01*
X27185953Y25307046D01*
X27185955Y25307045D01*
X27192630Y25303421D01*
X27199979Y25301493D01*
X27336402Y25265703D01*
X27336404Y25265703D01*
X27343752Y25263775D01*
X27426424Y25262476D01*
X27492372Y25261440D01*
X27492375Y25261440D01*
X27499969Y25261321D01*
X27553560Y25273595D01*
X27644858Y25294505D01*
X27644862Y25294506D01*
X27652261Y25296201D01*
X27791838Y25366400D01*
X27819060Y25389650D01*
X27904867Y25462935D01*
X27904869Y25462938D01*
X27910641Y25467867D01*
X28001811Y25594744D01*
X28060085Y25739705D01*
X28082098Y25894382D01*
X28082241Y25908000D01*
X28063471Y26063104D01*
X28019173Y26180337D01*
X28010931Y26202149D01*
X28010930Y26202151D01*
X28008246Y26209254D01*
X28003947Y26215509D01*
X28003945Y26215513D01*
X27924055Y26331753D01*
X27924054Y26331755D01*
X27919753Y26338012D01*
X27913651Y26343449D01*
X27808773Y26436892D01*
X27808770Y26436894D01*
X27803101Y26441945D01*
X27796387Y26445500D01*
X27671741Y26511497D01*
X27671738Y26511498D01*
X27665026Y26515052D01*
X27513497Y26553114D01*
X27505899Y26553154D01*
X27505897Y26553154D01*
X27440319Y26553497D01*
X27357263Y26553932D01*
X27349883Y26552160D01*
X27349881Y26552160D01*
X27276165Y26534462D01*
X27205344Y26517459D01*
X27066510Y26445802D01*
X27003842Y26391133D01*
X27002029Y26389551D01*
X26937547Y26359843D01*
X26919199Y26358500D01*
X16417219Y26358500D01*
X16402410Y26359373D01*
X16398439Y26359843D01*
X16368689Y26363364D01*
X16359426Y26361672D01*
X16359419Y26361672D01*
X16310982Y26352825D01*
X16307083Y26352175D01*
X16284353Y26348758D01*
X16258356Y26344850D01*
X16258355Y26344850D01*
X16249038Y26343449D01*
X16242525Y26340321D01*
X16235427Y26339025D01*
X16183347Y26311972D01*
X16179845Y26310223D01*
X16135413Y26288887D01*
X16126921Y26284809D01*
X16121636Y26279923D01*
X16121589Y26279892D01*
X16115211Y26276579D01*
X16110172Y26272275D01*
X16072945Y26235048D01*
X16069380Y26231619D01*
X16027444Y26192854D01*
X16023751Y26186495D01*
X16018234Y26180337D01*
X4427158Y14589261D01*
X4417933Y14581929D01*
X4418271Y14581533D01*
X4411111Y14575418D01*
X4403118Y14570433D01*
X4386152Y14550881D01*
X4371832Y14534379D01*
X4365761Y14527864D01*
X4356513Y14518616D01*
X4353720Y14514835D01*
X4353716Y14514830D01*
X4350064Y14509885D01*
X4343889Y14502177D01*
X4314333Y14468117D01*
X4310524Y14459502D01*
X4305956Y14452304D01*
X4301962Y14444761D01*
X4296366Y14437184D01*
X4293246Y14428300D01*
X4293244Y14428296D01*
X4281430Y14394652D01*
X4277787Y14385451D01*
X4259558Y14344217D01*
X4258451Y14334867D01*
X4256205Y14326655D01*
X4254603Y14318260D01*
X4251481Y14309369D01*
X4251111Y14299957D01*
X4251111Y14299956D01*
X4249712Y14264329D01*
X4248935Y14254462D01*
X4244743Y14219050D01*
X4244743Y14219044D01*
X4243636Y14209690D01*
X4245329Y14200420D01*
X4245598Y14191877D01*
X4246532Y14183415D01*
X4246162Y14174006D01*
X4248575Y14164906D01*
X4248575Y14164904D01*
X4257722Y14130406D01*
X4259879Y14120754D01*
X4267975Y14076427D01*
X4272317Y14068067D01*
X4272708Y14066926D01*
X4279500Y14026115D01*
X4279500Y5588500D01*
X4259498Y5520379D01*
X4205842Y5473886D01*
X4153500Y5462500D01*
X3948252Y5462500D01*
X3942184Y5461293D01*
X3901939Y5453288D01*
X3901938Y5453288D01*
X3889769Y5450867D01*
X3823448Y5406552D01*
X3779133Y5340231D01*
X3767500Y5281748D01*
X3767500Y3718252D01*
X454000Y3718252D01*
X454000Y35280252D01*
X13829500Y35280252D01*
X13841133Y35221769D01*
X13885448Y35155448D01*
X13951769Y35111133D01*
X13963938Y35108712D01*
X13963939Y35108712D01*
X13985633Y35104397D01*
X14010252Y35099500D01*
X16449748Y35099500D01*
X16474367Y35104397D01*
X16496061Y35108712D01*
X16496062Y35108712D01*
X16508231Y35111133D01*
X16574552Y35155448D01*
X16618867Y35221769D01*
X16630500Y35280252D01*
X16630500Y36534335D01*
X21325119Y36534335D01*
X21325416Y36529183D01*
X21325416Y36529179D01*
X21330864Y36434704D01*
X21338376Y36304420D01*
X21339513Y36299374D01*
X21339514Y36299368D01*
X21361226Y36203025D01*
X21389006Y36079758D01*
X21390948Y36074976D01*
X21390949Y36074972D01*
X21428427Y35982675D01*
X21475649Y35866382D01*
X21595979Y35670022D01*
X21746763Y35495952D01*
X21923953Y35348846D01*
X22122790Y35232655D01*
X22337934Y35150499D01*
X22343000Y35149468D01*
X22343001Y35149468D01*
X22347479Y35148557D01*
X22563607Y35104586D01*
X22693352Y35099828D01*
X22788585Y35096336D01*
X22788589Y35096336D01*
X22793749Y35096147D01*
X22798869Y35096803D01*
X22798871Y35096803D01*
X22868272Y35105693D01*
X23022178Y35125409D01*
X23027126Y35126894D01*
X23027133Y35126895D01*
X23237811Y35190102D01*
X23237810Y35190102D01*
X23242761Y35191587D01*
X23423748Y35280252D01*
X36829500Y35280252D01*
X36841133Y35221769D01*
X36885448Y35155448D01*
X36951769Y35111133D01*
X36963938Y35108712D01*
X36963939Y35108712D01*
X36985633Y35104397D01*
X37010252Y35099500D01*
X39449748Y35099500D01*
X39474367Y35104397D01*
X39496061Y35108712D01*
X39496062Y35108712D01*
X39508231Y35111133D01*
X39574552Y35155448D01*
X39618867Y35221769D01*
X39630500Y35280252D01*
X39630500Y36534335D01*
X44325119Y36534335D01*
X44325416Y36529183D01*
X44325416Y36529179D01*
X44330864Y36434704D01*
X44338376Y36304420D01*
X44339513Y36299374D01*
X44339514Y36299368D01*
X44361226Y36203025D01*
X44389006Y36079758D01*
X44390948Y36074976D01*
X44390949Y36074972D01*
X44428427Y35982675D01*
X44475649Y35866382D01*
X44595979Y35670022D01*
X44746763Y35495952D01*
X44923953Y35348846D01*
X45122790Y35232655D01*
X45337934Y35150499D01*
X45343000Y35149468D01*
X45343001Y35149468D01*
X45347479Y35148557D01*
X45563607Y35104586D01*
X45693352Y35099828D01*
X45788585Y35096336D01*
X45788589Y35096336D01*
X45793749Y35096147D01*
X45798869Y35096803D01*
X45798871Y35096803D01*
X45868272Y35105693D01*
X46022178Y35125409D01*
X46027126Y35126894D01*
X46027133Y35126895D01*
X46237811Y35190102D01*
X46237810Y35190102D01*
X46242761Y35191587D01*
X46449574Y35292904D01*
X46637062Y35426637D01*
X46800190Y35589197D01*
X46858269Y35670022D01*
X46931559Y35772017D01*
X46934577Y35776217D01*
X47036615Y35982675D01*
X47067643Y36084800D01*
X47102059Y36198073D01*
X47102060Y36198079D01*
X47103563Y36203025D01*
X47133622Y36431351D01*
X47135300Y36500000D01*
X47116430Y36729522D01*
X47060326Y36952880D01*
X46968496Y37164076D01*
X46843405Y37357437D01*
X46822774Y37380111D01*
X46691890Y37523949D01*
X46691889Y37523950D01*
X46688412Y37527771D01*
X46684361Y37530970D01*
X46684357Y37530974D01*
X46511735Y37667303D01*
X46511730Y37667307D01*
X46507681Y37670504D01*
X46503165Y37672997D01*
X46503162Y37672999D01*
X46310589Y37779305D01*
X46310585Y37779307D01*
X46306065Y37781802D01*
X46301196Y37783526D01*
X46301192Y37783528D01*
X46093853Y37856951D01*
X46093849Y37856952D01*
X46088978Y37858677D01*
X46083885Y37859584D01*
X46083882Y37859585D01*
X45958188Y37881974D01*
X45862250Y37899063D01*
X45775802Y37900119D01*
X45637141Y37901814D01*
X45637139Y37901814D01*
X45631971Y37901877D01*
X45404325Y37867042D01*
X45185424Y37795494D01*
X45180832Y37793104D01*
X45180833Y37793104D01*
X45039918Y37719748D01*
X44981149Y37689155D01*
X44796984Y37550881D01*
X44637877Y37384384D01*
X44508099Y37194137D01*
X44505923Y37189448D01*
X44505919Y37189442D01*
X44494145Y37164076D01*
X44411136Y36985248D01*
X44349592Y36763327D01*
X44325119Y36534335D01*
X39630500Y36534335D01*
X39630500Y37719748D01*
X39618867Y37778231D01*
X39574552Y37844552D01*
X39508231Y37888867D01*
X39496062Y37891288D01*
X39496061Y37891288D01*
X39455816Y37899293D01*
X39449748Y37900500D01*
X37010252Y37900500D01*
X37004184Y37899293D01*
X36963939Y37891288D01*
X36963938Y37891288D01*
X36951769Y37888867D01*
X36885448Y37844552D01*
X36841133Y37778231D01*
X36829500Y37719748D01*
X36829500Y35280252D01*
X23423748Y35280252D01*
X23449574Y35292904D01*
X23637062Y35426637D01*
X23800190Y35589197D01*
X23858269Y35670022D01*
X23931559Y35772017D01*
X23934577Y35776217D01*
X24036615Y35982675D01*
X24067643Y36084800D01*
X24102059Y36198073D01*
X24102060Y36198079D01*
X24103563Y36203025D01*
X24133622Y36431351D01*
X24135300Y36500000D01*
X24116430Y36729522D01*
X24060326Y36952880D01*
X23968496Y37164076D01*
X23843405Y37357437D01*
X23822774Y37380111D01*
X23691890Y37523949D01*
X23691889Y37523950D01*
X23688412Y37527771D01*
X23684361Y37530970D01*
X23684357Y37530974D01*
X23511735Y37667303D01*
X23511730Y37667307D01*
X23507681Y37670504D01*
X23503165Y37672997D01*
X23503162Y37672999D01*
X23310589Y37779305D01*
X23310585Y37779307D01*
X23306065Y37781802D01*
X23301196Y37783526D01*
X23301192Y37783528D01*
X23093853Y37856951D01*
X23093849Y37856952D01*
X23088978Y37858677D01*
X23083885Y37859584D01*
X23083882Y37859585D01*
X22958188Y37881974D01*
X22862250Y37899063D01*
X22775802Y37900119D01*
X22637141Y37901814D01*
X22637139Y37901814D01*
X22631971Y37901877D01*
X22404325Y37867042D01*
X22185424Y37795494D01*
X22180832Y37793104D01*
X22180833Y37793104D01*
X22039918Y37719748D01*
X21981149Y37689155D01*
X21796984Y37550881D01*
X21637877Y37384384D01*
X21508099Y37194137D01*
X21505923Y37189448D01*
X21505919Y37189442D01*
X21494145Y37164076D01*
X21411136Y36985248D01*
X21349592Y36763327D01*
X21325119Y36534335D01*
X16630500Y36534335D01*
X16630500Y37719748D01*
X16618867Y37778231D01*
X16574552Y37844552D01*
X16508231Y37888867D01*
X16496062Y37891288D01*
X16496061Y37891288D01*
X16455816Y37899293D01*
X16449748Y37900500D01*
X14010252Y37900500D01*
X14004184Y37899293D01*
X13963939Y37891288D01*
X13963938Y37891288D01*
X13951769Y37888867D01*
X13885448Y37844552D01*
X13841133Y37778231D01*
X13829500Y37719748D01*
X13829500Y35280252D01*
X454000Y35280252D01*
X454000Y39962976D01*
X455953Y39980182D01*
X455963Y39985813D01*
X459143Y39999642D01*
X456011Y40013481D01*
X456033Y40025855D01*
X455080Y40035736D01*
X471765Y40587911D01*
X472225Y40595508D01*
X525108Y41177461D01*
X526025Y41185017D01*
X613953Y41762738D01*
X615325Y41770224D01*
X737973Y42341580D01*
X739795Y42348970D01*
X789388Y42526869D01*
X896715Y42911871D01*
X898969Y42919106D01*
X1089605Y43471546D01*
X1092299Y43478649D01*
X1150278Y43618621D01*
X1315925Y44018530D01*
X1319049Y44025471D01*
X1574865Y44550865D01*
X1578402Y44557604D01*
X1865474Y45066596D01*
X1869411Y45073109D01*
X2002694Y45279255D01*
X2186692Y45563840D01*
X2191008Y45570093D01*
X2537351Y46040786D01*
X2542042Y46046773D01*
X2916156Y46495676D01*
X2921203Y46501373D01*
X3171190Y46766939D01*
X3321753Y46926885D01*
X3327115Y46932247D01*
X3550598Y47142620D01*
X3752627Y47332797D01*
X3758324Y47337844D01*
X4207227Y47711958D01*
X4213218Y47716652D01*
X4683907Y48062992D01*
X4690160Y48067308D01*
X4987552Y48259586D01*
X5180891Y48384589D01*
X5187404Y48388526D01*
X5696396Y48675598D01*
X5703135Y48679135D01*
X6228529Y48934951D01*
X6235470Y48938075D01*
X6481725Y49040077D01*
X6775364Y49161706D01*
X6782454Y49164395D01*
X7334894Y49355031D01*
X7342129Y49357285D01*
X7727131Y49464612D01*
X7905030Y49514205D01*
X7912420Y49516027D01*
X8483776Y49638675D01*
X8491262Y49640047D01*
X9068983Y49727975D01*
X9076539Y49728892D01*
X9367515Y49755333D01*
X9658499Y49781775D01*
X9666081Y49782235D01*
X10217696Y49798903D01*
X10226263Y49798061D01*
X10239812Y49798037D01*
X10253642Y49794857D01*
X10267482Y49797989D01*
X10272372Y49797980D01*
X10290448Y49800000D01*
X50668976Y49800000D01*
X50686182Y49798047D01*
G37*
%TD.AperFunction*%
%TD*%
%TA.AperFunction,Conductor*%
%TO.N,GND*%
G36*
X3767500Y3718252D02*
G01*
X3779133Y3659769D01*
X3823448Y3593448D01*
X3889769Y3549133D01*
X3901938Y3546712D01*
X3901939Y3546712D01*
X3942184Y3538707D01*
X3948252Y3537500D01*
X5511748Y3537500D01*
X5517816Y3538707D01*
X5558061Y3546712D01*
X5558062Y3546712D01*
X5570231Y3549133D01*
X5636552Y3593448D01*
X5680867Y3659769D01*
X5692500Y3718252D01*
X5692500Y4318000D01*
X6307500Y4318000D01*
X6307500Y3718252D01*
X6319133Y3659769D01*
X6363448Y3593448D01*
X6429769Y3549133D01*
X6441938Y3546712D01*
X6441939Y3546712D01*
X6482184Y3538707D01*
X6488252Y3537500D01*
X8051748Y3537500D01*
X8057816Y3538707D01*
X8098061Y3546712D01*
X8098062Y3546712D01*
X8110231Y3549133D01*
X8176552Y3593448D01*
X8220867Y3659769D01*
X8232500Y3718252D01*
X8232500Y4318000D01*
X25707500Y4318000D01*
X25707500Y3718252D01*
X25719133Y3659769D01*
X25763448Y3593448D01*
X25829769Y3549133D01*
X25841938Y3546712D01*
X25841939Y3546712D01*
X25882184Y3538707D01*
X25888252Y3537500D01*
X27451748Y3537500D01*
X27457816Y3538707D01*
X27498061Y3546712D01*
X27498062Y3546712D01*
X27510231Y3549133D01*
X27576552Y3593448D01*
X27620867Y3659769D01*
X27632500Y3718252D01*
X27632500Y4318000D01*
X28247500Y4318000D01*
X28247500Y3718252D01*
X28259133Y3659769D01*
X28303448Y3593448D01*
X28369769Y3549133D01*
X28381938Y3546712D01*
X28381939Y3546712D01*
X28422184Y3538707D01*
X28428252Y3537500D01*
X29991748Y3537500D01*
X29997816Y3538707D01*
X30038061Y3546712D01*
X30038062Y3546712D01*
X30050231Y3549133D01*
X30116552Y3593448D01*
X30160867Y3659769D01*
X30172500Y3718252D01*
X30172500Y4318000D01*
X30787500Y4318000D01*
X30787500Y3718252D01*
X30799133Y3659769D01*
X30843448Y3593448D01*
X30909769Y3549133D01*
X30921938Y3546712D01*
X30921939Y3546712D01*
X30962184Y3538707D01*
X30968252Y3537500D01*
X32531748Y3537500D01*
X32537816Y3538707D01*
X32578061Y3546712D01*
X32578062Y3546712D01*
X32590231Y3549133D01*
X32656552Y3593448D01*
X32700867Y3659769D01*
X32712500Y3718252D01*
X32712500Y4318000D01*
X33327500Y4318000D01*
X33327500Y3718252D01*
X33339133Y3659769D01*
X33383448Y3593448D01*
X33449769Y3549133D01*
X33461938Y3546712D01*
X33461939Y3546712D01*
X33502184Y3538707D01*
X33508252Y3537500D01*
X35071748Y3537500D01*
X35077816Y3538707D01*
X35118061Y3546712D01*
X35118062Y3546712D01*
X35130231Y3549133D01*
X35196552Y3593448D01*
X35240867Y3659769D01*
X35252500Y3718252D01*
X35252500Y4318000D01*
X60696000Y4318000D01*
X60696000Y390000D01*
X60675998Y321879D01*
X60622342Y275386D01*
X60570000Y264000D01*
X390000Y264000D01*
X321879Y284002D01*
X275386Y337658D01*
X264000Y390000D01*
X264000Y4318000D01*
X3767500Y4318000D01*
X3767500Y3718252D01*
G37*
%TD.AperFunction*%
%TD*%
M02*
