%TF.GenerationSoftware,KiCad,Pcbnew,6.0.4-6f826c9f35~116~ubuntu20.04.1*%
%TF.CreationDate,2022-07-25T08:23:18+00:00*%
%TF.ProjectId,4XLTO1865V01A,34584c54-4f31-4383-9635-563031412e6b,rev?*%
%TF.SameCoordinates,Original*%
%TF.FileFunction,Legend,Top*%
%TF.FilePolarity,Positive*%
%FSLAX46Y46*%
G04 Gerber Fmt 4.6, Leading zero omitted, Abs format (unit mm)*
G04 Created by KiCad (PCBNEW 6.0.4-6f826c9f35~116~ubuntu20.04.1) date 2022-07-25 08:23:18*
%MOMM*%
%LPD*%
G01*
G04 APERTURE LIST*
%ADD10C,0.300000*%
%ADD11C,0.150000*%
%ADD12C,0.120000*%
%ADD13R,1.524000X1.524000*%
G04 APERTURE END LIST*
D10*
X5313071Y21078572D02*
X3813071Y21078572D01*
X4884500Y21578572D01*
X3813071Y22078572D01*
X5313071Y22078572D01*
X5313071Y23507143D02*
X5313071Y22792858D01*
X3813071Y22792858D01*
X4884500Y23935715D02*
X4884500Y24650000D01*
X5313071Y23792858D02*
X3813071Y24292858D01*
X5313071Y24792858D01*
X4527357Y25792858D02*
X4598785Y26007143D01*
X4670214Y26078572D01*
X4813071Y26150000D01*
X5027357Y26150000D01*
X5170214Y26078572D01*
X5241642Y26007143D01*
X5313071Y25864286D01*
X5313071Y25292858D01*
X3813071Y25292858D01*
X3813071Y25792858D01*
X3884500Y25935715D01*
X3955928Y26007143D01*
X4098785Y26078572D01*
X4241642Y26078572D01*
X4384500Y26007143D01*
X4455928Y25935715D01*
X4527357Y25792858D01*
X4527357Y25292858D01*
X5170214Y26792858D02*
X5241642Y26864286D01*
X5313071Y26792858D01*
X5241642Y26721429D01*
X5170214Y26792858D01*
X5313071Y26792858D01*
X5170214Y28364286D02*
X5241642Y28292858D01*
X5313071Y28078572D01*
X5313071Y27935715D01*
X5241642Y27721429D01*
X5098785Y27578572D01*
X4955928Y27507143D01*
X4670214Y27435715D01*
X4455928Y27435715D01*
X4170214Y27507143D01*
X4027357Y27578572D01*
X3884500Y27721429D01*
X3813071Y27935715D01*
X3813071Y28078572D01*
X3884500Y28292858D01*
X3955928Y28364286D01*
X3813071Y28864286D02*
X3813071Y29864286D01*
X5313071Y28864286D01*
X5313071Y29864286D01*
X6370928Y22828572D02*
X6299500Y22900000D01*
X6228071Y23042858D01*
X6228071Y23400000D01*
X6299500Y23542858D01*
X6370928Y23614286D01*
X6513785Y23685715D01*
X6656642Y23685715D01*
X6870928Y23614286D01*
X7728071Y22757143D01*
X7728071Y23685715D01*
X6228071Y24614286D02*
X6228071Y24757143D01*
X6299500Y24900000D01*
X6370928Y24971429D01*
X6513785Y25042858D01*
X6799500Y25114286D01*
X7156642Y25114286D01*
X7442357Y25042858D01*
X7585214Y24971429D01*
X7656642Y24900000D01*
X7728071Y24757143D01*
X7728071Y24614286D01*
X7656642Y24471429D01*
X7585214Y24400000D01*
X7442357Y24328572D01*
X7156642Y24257143D01*
X6799500Y24257143D01*
X6513785Y24328572D01*
X6370928Y24400000D01*
X6299500Y24471429D01*
X6228071Y24614286D01*
X6370928Y25685715D02*
X6299500Y25757143D01*
X6228071Y25900000D01*
X6228071Y26257143D01*
X6299500Y26400000D01*
X6370928Y26471429D01*
X6513785Y26542858D01*
X6656642Y26542858D01*
X6870928Y26471429D01*
X7728071Y25614286D01*
X7728071Y26542858D01*
X6370928Y27114286D02*
X6299500Y27185715D01*
X6228071Y27328572D01*
X6228071Y27685715D01*
X6299500Y27828572D01*
X6370928Y27900000D01*
X6513785Y27971429D01*
X6656642Y27971429D01*
X6870928Y27900000D01*
X7728071Y27042858D01*
X7728071Y27971429D01*
X54097071Y17689715D02*
X55097071Y17689715D01*
X53525642Y17332572D02*
X54597071Y16975429D01*
X54597071Y17904000D01*
X53597071Y18332572D02*
X55097071Y19332572D01*
X53597071Y19332572D02*
X55097071Y18332572D01*
X55097071Y20618286D02*
X55097071Y19904000D01*
X53597071Y19904000D01*
X53597071Y20904000D02*
X53597071Y21761143D01*
X55097071Y21332572D02*
X53597071Y21332572D01*
X53597071Y22546858D02*
X53597071Y22832572D01*
X53668500Y22975429D01*
X53811357Y23118286D01*
X54097071Y23189715D01*
X54597071Y23189715D01*
X54882785Y23118286D01*
X55025642Y22975429D01*
X55097071Y22832572D01*
X55097071Y22546858D01*
X55025642Y22404000D01*
X54882785Y22261143D01*
X54597071Y22189715D01*
X54097071Y22189715D01*
X53811357Y22261143D01*
X53668500Y22404000D01*
X53597071Y22546858D01*
X55097071Y24618286D02*
X55097071Y23761143D01*
X55097071Y24189715D02*
X53597071Y24189715D01*
X53811357Y24046858D01*
X53954214Y23904000D01*
X54025642Y23761143D01*
X54239928Y25475429D02*
X54168500Y25332572D01*
X54097071Y25261143D01*
X53954214Y25189715D01*
X53882785Y25189715D01*
X53739928Y25261143D01*
X53668500Y25332572D01*
X53597071Y25475429D01*
X53597071Y25761143D01*
X53668500Y25904000D01*
X53739928Y25975429D01*
X53882785Y26046858D01*
X53954214Y26046858D01*
X54097071Y25975429D01*
X54168500Y25904000D01*
X54239928Y25761143D01*
X54239928Y25475429D01*
X54311357Y25332572D01*
X54382785Y25261143D01*
X54525642Y25189715D01*
X54811357Y25189715D01*
X54954214Y25261143D01*
X55025642Y25332572D01*
X55097071Y25475429D01*
X55097071Y25761143D01*
X55025642Y25904000D01*
X54954214Y25975429D01*
X54811357Y26046858D01*
X54525642Y26046858D01*
X54382785Y25975429D01*
X54311357Y25904000D01*
X54239928Y25761143D01*
X53597071Y27332572D02*
X53597071Y27046858D01*
X53668500Y26904000D01*
X53739928Y26832572D01*
X53954214Y26689715D01*
X54239928Y26618286D01*
X54811357Y26618286D01*
X54954214Y26689715D01*
X55025642Y26761143D01*
X55097071Y26904000D01*
X55097071Y27189715D01*
X55025642Y27332572D01*
X54954214Y27404000D01*
X54811357Y27475429D01*
X54454214Y27475429D01*
X54311357Y27404000D01*
X54239928Y27332572D01*
X54168500Y27189715D01*
X54168500Y26904000D01*
X54239928Y26761143D01*
X54311357Y26689715D01*
X54454214Y26618286D01*
X53597071Y28832572D02*
X53597071Y28118286D01*
X54311357Y28046858D01*
X54239928Y28118286D01*
X54168500Y28261143D01*
X54168500Y28618286D01*
X54239928Y28761143D01*
X54311357Y28832572D01*
X54454214Y28904000D01*
X54811357Y28904000D01*
X54954214Y28832572D01*
X55025642Y28761143D01*
X55097071Y28618286D01*
X55097071Y28261143D01*
X55025642Y28118286D01*
X54954214Y28046858D01*
X53597071Y29332572D02*
X55097071Y29832572D01*
X53597071Y30332572D01*
X53597071Y31118286D02*
X53597071Y31261143D01*
X53668500Y31404000D01*
X53739928Y31475429D01*
X53882785Y31546858D01*
X54168500Y31618286D01*
X54525642Y31618286D01*
X54811357Y31546858D01*
X54954214Y31475429D01*
X55025642Y31404000D01*
X55097071Y31261143D01*
X55097071Y31118286D01*
X55025642Y30975429D01*
X54954214Y30904000D01*
X54811357Y30832572D01*
X54525642Y30761143D01*
X54168500Y30761143D01*
X53882785Y30832572D01*
X53739928Y30904000D01*
X53668500Y30975429D01*
X53597071Y31118286D01*
X55097071Y33046858D02*
X55097071Y32189715D01*
X55097071Y32618286D02*
X53597071Y32618286D01*
X53811357Y32475429D01*
X53954214Y32332572D01*
X54025642Y32189715D01*
X54668500Y33618286D02*
X54668500Y34332572D01*
X55097071Y33475429D02*
X53597071Y33975429D01*
X55097071Y34475429D01*
X56012071Y22904000D02*
X57083500Y22904000D01*
X57297785Y22832572D01*
X57440642Y22689715D01*
X57512071Y22475429D01*
X57512071Y22332572D01*
X57083500Y23546858D02*
X57083500Y24261143D01*
X57512071Y23404000D02*
X56012071Y23904000D01*
X57512071Y24404000D01*
X57369214Y25761143D02*
X57440642Y25689715D01*
X57512071Y25475429D01*
X57512071Y25332572D01*
X57440642Y25118286D01*
X57297785Y24975429D01*
X57154928Y24904000D01*
X56869214Y24832572D01*
X56654928Y24832572D01*
X56369214Y24904000D01*
X56226357Y24975429D01*
X56083500Y25118286D01*
X56012071Y25332572D01*
X56012071Y25475429D01*
X56083500Y25689715D01*
X56154928Y25761143D01*
X57512071Y26404000D02*
X56012071Y26404000D01*
X56726357Y26404000D02*
X56726357Y27261143D01*
X57512071Y27261143D02*
X56012071Y27261143D01*
X56012071Y28261143D02*
X56012071Y28546858D01*
X56083500Y28689715D01*
X56226357Y28832572D01*
X56512071Y28904000D01*
X57012071Y28904000D01*
X57297785Y28832572D01*
X57440642Y28689715D01*
X57512071Y28546858D01*
X57512071Y28261143D01*
X57440642Y28118286D01*
X57297785Y27975429D01*
X57012071Y27904000D01*
X56512071Y27904000D01*
X56226357Y27975429D01*
X56083500Y28118286D01*
X56012071Y28261143D01*
D11*
%TO.C,BT1*%
X18194285Y46821429D02*
X18337142Y46773810D01*
X18384761Y46726191D01*
X18432380Y46630953D01*
X18432380Y46488096D01*
X18384761Y46392858D01*
X18337142Y46345239D01*
X18241904Y46297620D01*
X17860952Y46297620D01*
X17860952Y47297620D01*
X18194285Y47297620D01*
X18289523Y47250000D01*
X18337142Y47202381D01*
X18384761Y47107143D01*
X18384761Y47011905D01*
X18337142Y46916667D01*
X18289523Y46869048D01*
X18194285Y46821429D01*
X17860952Y46821429D01*
X18718095Y47297620D02*
X19289523Y47297620D01*
X19003809Y46297620D02*
X19003809Y47297620D01*
X20146666Y46297620D02*
X19575238Y46297620D01*
X19860952Y46297620D02*
X19860952Y47297620D01*
X19765714Y47154762D01*
X19670476Y47059524D01*
X19575238Y47011905D01*
%TO.C,BT4*%
X18194285Y23821429D02*
X18337142Y23773810D01*
X18384761Y23726191D01*
X18432380Y23630953D01*
X18432380Y23488096D01*
X18384761Y23392858D01*
X18337142Y23345239D01*
X18241904Y23297620D01*
X17860952Y23297620D01*
X17860952Y24297620D01*
X18194285Y24297620D01*
X18289523Y24250000D01*
X18337142Y24202381D01*
X18384761Y24107143D01*
X18384761Y24011905D01*
X18337142Y23916667D01*
X18289523Y23869048D01*
X18194285Y23821429D01*
X17860952Y23821429D01*
X18718095Y24297620D02*
X19289523Y24297620D01*
X19003809Y23297620D02*
X19003809Y24297620D01*
X20051428Y23964286D02*
X20051428Y23297620D01*
X19813333Y24345239D02*
X19575238Y23630953D01*
X20194285Y23630953D01*
%TO.C,BT3*%
X41194285Y46821429D02*
X41337142Y46773810D01*
X41384761Y46726191D01*
X41432380Y46630953D01*
X41432380Y46488096D01*
X41384761Y46392858D01*
X41337142Y46345239D01*
X41241904Y46297620D01*
X40860952Y46297620D01*
X40860952Y47297620D01*
X41194285Y47297620D01*
X41289523Y47250000D01*
X41337142Y47202381D01*
X41384761Y47107143D01*
X41384761Y47011905D01*
X41337142Y46916667D01*
X41289523Y46869048D01*
X41194285Y46821429D01*
X40860952Y46821429D01*
X41718095Y47297620D02*
X42289523Y47297620D01*
X42003809Y46297620D02*
X42003809Y47297620D01*
X42527619Y47297620D02*
X43146666Y47297620D01*
X42813333Y46916667D01*
X42956190Y46916667D01*
X43051428Y46869048D01*
X43099047Y46821429D01*
X43146666Y46726191D01*
X43146666Y46488096D01*
X43099047Y46392858D01*
X43051428Y46345239D01*
X42956190Y46297620D01*
X42670476Y46297620D01*
X42575238Y46345239D01*
X42527619Y46392858D01*
%TO.C,BT2*%
X41194285Y23821429D02*
X41337142Y23773810D01*
X41384761Y23726191D01*
X41432380Y23630953D01*
X41432380Y23488096D01*
X41384761Y23392858D01*
X41337142Y23345239D01*
X41241904Y23297620D01*
X40860952Y23297620D01*
X40860952Y24297620D01*
X41194285Y24297620D01*
X41289523Y24250000D01*
X41337142Y24202381D01*
X41384761Y24107143D01*
X41384761Y24011905D01*
X41337142Y23916667D01*
X41289523Y23869048D01*
X41194285Y23821429D01*
X40860952Y23821429D01*
X41718095Y24297620D02*
X42289523Y24297620D01*
X42003809Y23297620D02*
X42003809Y24297620D01*
X42575238Y24202381D02*
X42622857Y24250000D01*
X42718095Y24297620D01*
X42956190Y24297620D01*
X43051428Y24250000D01*
X43099047Y24202381D01*
X43146666Y24107143D01*
X43146666Y24011905D01*
X43099047Y23869048D01*
X42527619Y23297620D01*
X43146666Y23297620D01*
%TO.C,J1*%
X31496000Y2976000D02*
X31496000Y3484000D01*
X33020000Y2976000D02*
X33020000Y436000D01*
X34417000Y-5533000D02*
X34163000Y-5533000D01*
X34036000Y-5660000D02*
X34036000Y436000D01*
X26416000Y2976000D02*
X26416000Y3484000D01*
X27940000Y436000D02*
X30480000Y436000D01*
X33020000Y436000D02*
X35560000Y436000D01*
X28956000Y2976000D02*
X28956000Y3484000D01*
X35560000Y2976000D02*
X33020000Y2976000D01*
X33020000Y2976000D02*
X33020000Y436000D01*
X34417000Y309000D02*
X34417000Y-5533000D01*
X33020000Y2976000D02*
X30480000Y2976000D01*
X32004000Y-5660000D02*
X31496000Y-5660000D01*
X26924000Y2976000D02*
X26924000Y3484000D01*
X32004000Y2976000D02*
X32004000Y3484000D01*
X31496000Y-5660000D02*
X31496000Y436000D01*
X27940000Y2976000D02*
X25400000Y2976000D01*
X34290000Y309000D02*
X34290000Y-5533000D01*
X34036000Y2976000D02*
X34036000Y3484000D01*
X30480000Y436000D02*
X33020000Y436000D01*
X34544000Y-5660000D02*
X34036000Y-5660000D01*
X34544000Y436000D02*
X34544000Y-5660000D01*
X25400000Y436000D02*
X27940000Y436000D01*
X30480000Y2976000D02*
X30480000Y436000D01*
X28956000Y-5660000D02*
X28956000Y436000D01*
X29464000Y436000D02*
X29464000Y-5660000D01*
X35560000Y436000D02*
X33020000Y2976000D01*
X26924000Y436000D02*
X26924000Y-5660000D01*
X35560000Y2976000D02*
X35560000Y436000D01*
X27940000Y2976000D02*
X27940000Y436000D01*
X30480000Y2976000D02*
X27940000Y2976000D01*
X25400000Y2976000D02*
X25400000Y436000D01*
X32004000Y436000D02*
X32004000Y-5660000D01*
X27940000Y2976000D02*
X27940000Y436000D01*
X26416000Y-5660000D02*
X26416000Y436000D01*
X29464000Y2976000D02*
X29464000Y3484000D01*
X29464000Y-5660000D02*
X28956000Y-5660000D01*
X34163000Y-5533000D02*
X34163000Y309000D01*
X34544000Y2976000D02*
X34544000Y3484000D01*
X26924000Y-5660000D02*
X26416000Y-5660000D01*
X30480000Y2976000D02*
X30480000Y436000D01*
X33020000Y436000D02*
X35560000Y2976000D01*
%TO.C,J2*%
X8540000Y436000D02*
X11080000Y436000D01*
X6000000Y436000D02*
X8540000Y436000D01*
X920000Y436000D02*
X3460000Y436000D01*
X11080000Y2976000D02*
X11080000Y436000D01*
X4476000Y-5660000D02*
X4476000Y436000D01*
X6000000Y2976000D02*
X6000000Y436000D01*
X920000Y2976000D02*
X920000Y436000D01*
X7524000Y2976000D02*
X7524000Y3484000D01*
X8540000Y436000D02*
X11080000Y2976000D01*
X9556000Y2976000D02*
X9556000Y3484000D01*
X4476000Y2976000D02*
X4476000Y3484000D01*
X7016000Y-5660000D02*
X7016000Y436000D01*
X9556000Y-5660000D02*
X9556000Y436000D01*
X8540000Y2976000D02*
X8540000Y436000D01*
X7016000Y2976000D02*
X7016000Y3484000D01*
X2444000Y-5660000D02*
X1936000Y-5660000D01*
X3460000Y2976000D02*
X3460000Y436000D01*
X1936000Y-5660000D02*
X1936000Y436000D01*
X9937000Y-5533000D02*
X9683000Y-5533000D01*
X8540000Y2976000D02*
X8540000Y436000D01*
X4984000Y2976000D02*
X4984000Y3484000D01*
X3460000Y2976000D02*
X920000Y2976000D01*
X1936000Y2976000D02*
X1936000Y3484000D01*
X9810000Y309000D02*
X9810000Y-5533000D01*
X3460000Y436000D02*
X6000000Y436000D01*
X10064000Y2976000D02*
X10064000Y3484000D01*
X2444000Y2976000D02*
X2444000Y3484000D01*
X9683000Y-5533000D02*
X9683000Y309000D01*
X10064000Y436000D02*
X10064000Y-5660000D01*
X4984000Y436000D02*
X4984000Y-5660000D01*
X8540000Y2976000D02*
X6000000Y2976000D01*
X4984000Y-5660000D02*
X4476000Y-5660000D01*
X6000000Y2976000D02*
X6000000Y436000D01*
X11080000Y436000D02*
X8540000Y2976000D01*
X2444000Y436000D02*
X2444000Y-5660000D01*
X10064000Y-5660000D02*
X9556000Y-5660000D01*
X3460000Y2976000D02*
X3460000Y436000D01*
X11080000Y2976000D02*
X8540000Y2976000D01*
X9937000Y309000D02*
X9937000Y-5533000D01*
X7524000Y436000D02*
X7524000Y-5660000D01*
X6000000Y2976000D02*
X3460000Y2976000D01*
X7524000Y-5660000D02*
X7016000Y-5660000D01*
D12*
%TO.C,BT1*%
X20341000Y45479000D02*
X20341000Y27521000D01*
X24261000Y43897000D02*
X24261000Y29103000D01*
X24461000Y43750000D02*
X24461000Y29250000D01*
X22901000Y35060000D02*
X22901000Y28305000D01*
X20701000Y45417000D02*
X20701000Y27583000D01*
X26541000Y41562000D02*
X26541000Y31438000D01*
X22821000Y35060000D02*
X22821000Y28267000D01*
X21821000Y45127000D02*
X21821000Y37940000D01*
X22061000Y45045000D02*
X22061000Y37940000D01*
X25101000Y43222000D02*
X25101000Y29778000D01*
X24221000Y43925000D02*
X24221000Y29075000D01*
X21461000Y45237000D02*
X21461000Y37940000D01*
X24501000Y43720000D02*
X24501000Y29280000D01*
X21101000Y45331000D02*
X21101000Y27669000D01*
X21301000Y35060000D02*
X21301000Y27720000D01*
X22421000Y35060000D02*
X22421000Y28093000D01*
X25981000Y42306000D02*
X25981000Y30694000D01*
X20261000Y45490000D02*
X20261000Y27510000D01*
X21781000Y45140000D02*
X21781000Y37940000D01*
X22261000Y35060000D02*
X22261000Y28030000D01*
X20821000Y45393000D02*
X20821000Y27607000D01*
X27540000Y39607000D02*
X27540000Y33393000D01*
X23981000Y44088000D02*
X23981000Y37940000D01*
X23301000Y44492000D02*
X23301000Y37940000D01*
X21221000Y45301000D02*
X21221000Y27699000D01*
X23781000Y35060000D02*
X23781000Y28785000D01*
X22141000Y45016000D02*
X22141000Y37940000D01*
X25821000Y42493000D02*
X25821000Y30507000D01*
X25061000Y43258000D02*
X25061000Y29742000D01*
X23941000Y35060000D02*
X23941000Y28886000D01*
X23821000Y44190000D02*
X23821000Y37940000D01*
X22621000Y35060000D02*
X22621000Y28177000D01*
X23661000Y35060000D02*
X23661000Y28712000D01*
X24821000Y43465000D02*
X24821000Y29535000D01*
X24661000Y43596000D02*
X24661000Y29404000D01*
X26901000Y40982000D02*
X26901000Y32018000D01*
X26141000Y42109000D02*
X26141000Y30891000D01*
X21701000Y45165000D02*
X21701000Y37940000D01*
X22341000Y44939000D02*
X22341000Y37940000D01*
X21021000Y45349000D02*
X21021000Y27651000D01*
X27101000Y40613000D02*
X27101000Y32387000D01*
X24741000Y43531000D02*
X24741000Y29469000D01*
X27980000Y37935000D02*
X27980000Y35065000D01*
X27420000Y39916000D02*
X27420000Y33084000D01*
X27300000Y40196000D02*
X27300000Y32804000D01*
X21181000Y45311000D02*
X21181000Y27689000D01*
X20621000Y45432000D02*
X20621000Y27568000D01*
X25501000Y42837000D02*
X25501000Y30163000D01*
X23261000Y44514000D02*
X23261000Y37940000D01*
X22301000Y35060000D02*
X22301000Y28045000D01*
X21941000Y35060000D02*
X21941000Y27913000D01*
X26821000Y41120000D02*
X26821000Y31880000D01*
X23061000Y35060000D02*
X23061000Y28383000D01*
X22821000Y44733000D02*
X22821000Y37940000D01*
X22701000Y44787000D02*
X22701000Y37940000D01*
X23461000Y35060000D02*
X23461000Y28596000D01*
X20301000Y45484000D02*
X20301000Y27516000D01*
X25301000Y43036000D02*
X25301000Y29964000D01*
X28020000Y37666000D02*
X28020000Y35334000D01*
X22981000Y35060000D02*
X22981000Y28344000D01*
X26501000Y41620000D02*
X26501000Y31380000D01*
X21741000Y35060000D02*
X21741000Y27847000D01*
X27021000Y40765000D02*
X27021000Y32235000D01*
X24781000Y43499000D02*
X24781000Y29501000D01*
X25621000Y42712000D02*
X25621000Y30288000D01*
X23461000Y44404000D02*
X23461000Y37940000D01*
X19140000Y45579000D02*
X19140000Y27421000D01*
X20661000Y45424000D02*
X20661000Y27576000D01*
X21581000Y45202000D02*
X21581000Y37940000D01*
X24901000Y43398000D02*
X24901000Y29602000D01*
X22261000Y44970000D02*
X22261000Y37940000D01*
X26381000Y41791000D02*
X26381000Y31209000D01*
X20461000Y45460000D02*
X20461000Y27540000D01*
X26461000Y41678000D02*
X26461000Y31322000D01*
X26621000Y41441000D02*
X26621000Y31559000D01*
X10120560Y42515000D02*
X10120560Y40715000D01*
X24861000Y43432000D02*
X24861000Y29568000D01*
X23341000Y35060000D02*
X23341000Y28529000D01*
X21501000Y45225000D02*
X21501000Y37940000D01*
X23901000Y35060000D02*
X23901000Y28860000D01*
X23381000Y44449000D02*
X23381000Y37940000D01*
X22621000Y44823000D02*
X22621000Y37940000D01*
X27580000Y39496000D02*
X27580000Y33504000D01*
X20421000Y45466000D02*
X20421000Y27534000D01*
X22301000Y44955000D02*
X22301000Y37940000D01*
X20141000Y45506000D02*
X20141000Y27494000D01*
X21741000Y45153000D02*
X21741000Y37940000D01*
X21981000Y35060000D02*
X21981000Y27927000D01*
X22381000Y44923000D02*
X22381000Y37940000D01*
X20061000Y45516000D02*
X20061000Y27484000D01*
X20981000Y45358000D02*
X20981000Y27642000D01*
X21421000Y35060000D02*
X21421000Y27752000D01*
X24301000Y43868000D02*
X24301000Y29132000D01*
X25021000Y43294000D02*
X25021000Y29706000D01*
X21341000Y45270000D02*
X21341000Y37940000D01*
X19620000Y45558000D02*
X19620000Y27442000D01*
X27860000Y38539000D02*
X27860000Y34461000D01*
X23621000Y35060000D02*
X23621000Y28688000D01*
X22421000Y44907000D02*
X22421000Y37940000D01*
X20021000Y45521000D02*
X20021000Y27479000D01*
X20181000Y45501000D02*
X20181000Y27499000D01*
X21861000Y35060000D02*
X21861000Y27886000D01*
X20501000Y45453000D02*
X20501000Y27547000D01*
X21381000Y35060000D02*
X21381000Y27741000D01*
X21541000Y45214000D02*
X21541000Y37940000D01*
X19781000Y45545000D02*
X19781000Y27455000D01*
X23421000Y44427000D02*
X23421000Y37940000D01*
X24341000Y43839000D02*
X24341000Y29161000D01*
X22061000Y35060000D02*
X22061000Y27955000D01*
X24061000Y35060000D02*
X24061000Y28965000D01*
X20221000Y45496000D02*
X20221000Y27504000D01*
X25581000Y42754000D02*
X25581000Y30246000D01*
X19540000Y45563000D02*
X19540000Y27437000D01*
X22221000Y35060000D02*
X22221000Y28014000D01*
X27820000Y38703000D02*
X27820000Y34297000D01*
X22221000Y44986000D02*
X22221000Y37940000D01*
X22021000Y45059000D02*
X22021000Y37940000D01*
X23141000Y35060000D02*
X23141000Y28424000D01*
X21501000Y35060000D02*
X21501000Y27775000D01*
X21901000Y35060000D02*
X21901000Y27900000D01*
X25221000Y43112000D02*
X25221000Y29888000D01*
X24061000Y44035000D02*
X24061000Y37940000D01*
X26941000Y40912000D02*
X26941000Y32088000D01*
X23421000Y35060000D02*
X23421000Y28573000D01*
X26341000Y41846000D02*
X26341000Y31154000D01*
X22541000Y35060000D02*
X22541000Y28143000D01*
X23101000Y44597000D02*
X23101000Y37940000D01*
X22381000Y35060000D02*
X22381000Y28077000D01*
X22981000Y44656000D02*
X22981000Y37940000D01*
X22861000Y35060000D02*
X22861000Y28286000D01*
X22021000Y35060000D02*
X22021000Y27941000D01*
X26021000Y42258000D02*
X26021000Y30742000D01*
X27460000Y39817000D02*
X27460000Y33183000D01*
X23021000Y35060000D02*
X23021000Y28363000D01*
X27220000Y40369000D02*
X27220000Y32631000D01*
X22741000Y35060000D02*
X22741000Y28231000D01*
X23901000Y44140000D02*
X23901000Y37940000D01*
X21261000Y45291000D02*
X21261000Y27709000D01*
X28060000Y37314000D02*
X28060000Y35686000D01*
X20381000Y45472000D02*
X20381000Y27528000D01*
X23261000Y35060000D02*
X23261000Y28486000D01*
X26861000Y41052000D02*
X26861000Y31948000D01*
X26981000Y40839000D02*
X26981000Y32161000D01*
X25421000Y42918000D02*
X25421000Y30082000D01*
X27141000Y40533000D02*
X27141000Y32467000D01*
X26781000Y41186000D02*
X26781000Y31814000D01*
X22661000Y35060000D02*
X22661000Y28195000D01*
X24981000Y43329000D02*
X24981000Y29671000D01*
X22941000Y35060000D02*
X22941000Y28324000D01*
X27620000Y39380000D02*
X27620000Y33620000D01*
X19861000Y45538000D02*
X19861000Y27462000D01*
X20541000Y45446000D02*
X20541000Y27554000D01*
X25781000Y42538000D02*
X25781000Y30462000D01*
X23341000Y44471000D02*
X23341000Y37940000D01*
X23181000Y35060000D02*
X23181000Y28444000D01*
X23861000Y44165000D02*
X23861000Y37940000D01*
X24941000Y43364000D02*
X24941000Y29636000D01*
X24381000Y43810000D02*
X24381000Y29190000D01*
X21701000Y35060000D02*
X21701000Y27835000D01*
X22901000Y44695000D02*
X22901000Y37940000D01*
X23101000Y35060000D02*
X23101000Y28403000D01*
X27660000Y39259000D02*
X27660000Y33741000D01*
X25541000Y42796000D02*
X25541000Y30204000D01*
X21141000Y45321000D02*
X21141000Y27679000D01*
X25461000Y42878000D02*
X25461000Y30122000D01*
X24101000Y35060000D02*
X24101000Y28992000D01*
X23821000Y35060000D02*
X23821000Y28810000D01*
X21821000Y35060000D02*
X21821000Y27873000D01*
X22461000Y35060000D02*
X22461000Y28110000D01*
X23381000Y35060000D02*
X23381000Y28551000D01*
X23581000Y35060000D02*
X23581000Y28665000D01*
X26701000Y41316000D02*
X26701000Y31684000D01*
X24021000Y44061000D02*
X24021000Y37940000D01*
X18980000Y45581000D02*
X18980000Y27419000D01*
X23541000Y44359000D02*
X23541000Y37940000D01*
X27260000Y40284000D02*
X27260000Y32716000D01*
X19460000Y45568000D02*
X19460000Y27432000D01*
X24621000Y43627000D02*
X24621000Y29373000D01*
X26421000Y41735000D02*
X26421000Y31265000D01*
X21621000Y35060000D02*
X21621000Y27810000D01*
X20781000Y45401000D02*
X20781000Y27599000D01*
X19500000Y45566000D02*
X19500000Y27434000D01*
X26101000Y42160000D02*
X26101000Y30840000D01*
X21981000Y45073000D02*
X21981000Y37940000D01*
X27780000Y38855000D02*
X27780000Y34145000D01*
X24421000Y43780000D02*
X24421000Y29220000D01*
X20861000Y45385000D02*
X20861000Y27615000D01*
X25901000Y42401000D02*
X25901000Y30599000D01*
X21621000Y45190000D02*
X21621000Y37940000D01*
X24701000Y43564000D02*
X24701000Y29436000D01*
X24021000Y35060000D02*
X24021000Y28939000D01*
X26221000Y42006000D02*
X26221000Y30994000D01*
X25181000Y43149000D02*
X25181000Y29851000D01*
X23661000Y44288000D02*
X23661000Y37940000D01*
X19941000Y45530000D02*
X19941000Y27470000D01*
X23301000Y35060000D02*
X23301000Y28508000D01*
X27700000Y39132000D02*
X27700000Y33868000D01*
X22741000Y44769000D02*
X22741000Y37940000D01*
X21461000Y35060000D02*
X21461000Y27763000D01*
X22501000Y35060000D02*
X22501000Y28126000D01*
X22781000Y44751000D02*
X22781000Y37940000D01*
X22101000Y45030000D02*
X22101000Y37940000D01*
X23701000Y44264000D02*
X23701000Y37940000D01*
X22141000Y35060000D02*
X22141000Y27984000D01*
X19580000Y45561000D02*
X19580000Y27439000D01*
X28100000Y36540000D02*
X28100000Y36460000D01*
X21381000Y45259000D02*
X21381000Y37940000D01*
X23021000Y44637000D02*
X23021000Y37940000D01*
X22781000Y35060000D02*
X22781000Y28249000D01*
X23221000Y44535000D02*
X23221000Y37940000D01*
X25661000Y42670000D02*
X25661000Y30330000D01*
X19660000Y45555000D02*
X19660000Y27445000D01*
X22101000Y35060000D02*
X22101000Y27970000D01*
X27340000Y40105000D02*
X27340000Y32895000D01*
X21581000Y35060000D02*
X21581000Y27798000D01*
X20741000Y45409000D02*
X20741000Y27591000D01*
X23581000Y44335000D02*
X23581000Y37940000D01*
X21341000Y35060000D02*
X21341000Y27730000D01*
X22181000Y35060000D02*
X22181000Y27999000D01*
X26061000Y42209000D02*
X26061000Y30791000D01*
X19701000Y45552000D02*
X19701000Y27448000D01*
X19180000Y45578000D02*
X19180000Y27422000D01*
X26301000Y41900000D02*
X26301000Y31100000D01*
X27900000Y38360000D02*
X27900000Y34640000D01*
X23501000Y44382000D02*
X23501000Y37940000D01*
X21901000Y45100000D02*
X21901000Y37940000D01*
X22661000Y44805000D02*
X22661000Y37940000D01*
X23141000Y44576000D02*
X23141000Y37940000D01*
X19340000Y45573000D02*
X19340000Y27427000D01*
X21941000Y45087000D02*
X21941000Y37940000D01*
X23741000Y35060000D02*
X23741000Y28760000D01*
X27180000Y40452000D02*
X27180000Y32548000D01*
X27380000Y40012000D02*
X27380000Y32988000D01*
X23181000Y44556000D02*
X23181000Y37940000D01*
X23741000Y44240000D02*
X23741000Y37940000D01*
X19300000Y45575000D02*
X19300000Y27425000D01*
X24141000Y43980000D02*
X24141000Y37940000D01*
X21421000Y45248000D02*
X21421000Y37940000D01*
X25341000Y42997000D02*
X25341000Y30003000D01*
X27940000Y38161000D02*
X27940000Y34839000D01*
X19380000Y45572000D02*
X19380000Y27428000D01*
X23941000Y44114000D02*
X23941000Y37940000D01*
X19741000Y45549000D02*
X19741000Y27451000D01*
X25701000Y42626000D02*
X25701000Y30374000D01*
X20101000Y45511000D02*
X20101000Y27489000D01*
X23781000Y44215000D02*
X23781000Y37940000D01*
X23221000Y35060000D02*
X23221000Y28465000D01*
X25381000Y42958000D02*
X25381000Y30042000D01*
X25261000Y43074000D02*
X25261000Y29926000D01*
X23621000Y44312000D02*
X23621000Y37940000D01*
X22581000Y44840000D02*
X22581000Y37940000D01*
X21661000Y45178000D02*
X21661000Y37940000D01*
X24581000Y43659000D02*
X24581000Y29341000D01*
X21061000Y45340000D02*
X21061000Y27660000D01*
X20901000Y45376000D02*
X20901000Y27624000D01*
X27740000Y38998000D02*
X27740000Y34002000D01*
X19100000Y45580000D02*
X19100000Y27420000D01*
X23861000Y35060000D02*
X23861000Y28835000D01*
X24141000Y35060000D02*
X24141000Y29020000D01*
X19901000Y45534000D02*
X19901000Y27466000D01*
X25141000Y43186000D02*
X25141000Y29814000D01*
X23981000Y35060000D02*
X23981000Y28912000D01*
X19260000Y45576000D02*
X19260000Y27424000D01*
X26581000Y41502000D02*
X26581000Y31498000D01*
X25861000Y42447000D02*
X25861000Y30553000D01*
X9220560Y41615000D02*
X11020560Y41615000D01*
X22461000Y44890000D02*
X22461000Y37940000D01*
X21301000Y45280000D02*
X21301000Y37940000D01*
X20941000Y45367000D02*
X20941000Y27633000D01*
X23501000Y35060000D02*
X23501000Y28618000D01*
X26261000Y41954000D02*
X26261000Y31046000D01*
X19420000Y45570000D02*
X19420000Y27430000D01*
X19821000Y45542000D02*
X19821000Y27458000D01*
X21861000Y45114000D02*
X21861000Y37940000D01*
X25741000Y42582000D02*
X25741000Y30418000D01*
X23061000Y44617000D02*
X23061000Y37940000D01*
X22701000Y35060000D02*
X22701000Y28213000D01*
X22181000Y45001000D02*
X22181000Y37940000D01*
X25941000Y42354000D02*
X25941000Y30646000D01*
X19220000Y45577000D02*
X19220000Y27423000D01*
X24541000Y43690000D02*
X24541000Y29310000D01*
X19060000Y45580000D02*
X19060000Y27420000D01*
X26741000Y41252000D02*
X26741000Y31748000D01*
X23701000Y35060000D02*
X23701000Y28736000D01*
X22501000Y44874000D02*
X22501000Y37940000D01*
X19981000Y45526000D02*
X19981000Y27474000D01*
X26661000Y41379000D02*
X26661000Y31621000D01*
X21661000Y35060000D02*
X21661000Y27822000D01*
X22941000Y44676000D02*
X22941000Y37940000D01*
X19020000Y45580000D02*
X19020000Y27420000D01*
X26181000Y42058000D02*
X26181000Y30942000D01*
X22861000Y44714000D02*
X22861000Y37940000D01*
X22541000Y44857000D02*
X22541000Y37940000D01*
X27500000Y39714000D02*
X27500000Y33286000D01*
X27061000Y40690000D02*
X27061000Y32310000D01*
X24101000Y44008000D02*
X24101000Y37940000D01*
X22581000Y35060000D02*
X22581000Y28160000D01*
X24181000Y43953000D02*
X24181000Y29047000D01*
X21541000Y35060000D02*
X21541000Y27786000D01*
X21781000Y35060000D02*
X21781000Y27860000D01*
X22341000Y35060000D02*
X22341000Y28061000D01*
X20581000Y45439000D02*
X20581000Y27561000D01*
X23541000Y35060000D02*
X23541000Y28641000D01*
X28480000Y36500000D02*
G75*
G03*
X28480000Y36500000I-9500000J0D01*
G01*
%TO.C,BT4*%
X23461000Y21404000D02*
X23461000Y14940000D01*
X21981000Y22073000D02*
X21981000Y14940000D01*
X20061000Y22516000D02*
X20061000Y4484000D01*
X24421000Y20780000D02*
X24421000Y6220000D01*
X22181000Y12060000D02*
X22181000Y4999000D01*
X19180000Y22578000D02*
X19180000Y4422000D01*
X20181000Y22501000D02*
X20181000Y4499000D01*
X23581000Y12060000D02*
X23581000Y5665000D01*
X21581000Y12060000D02*
X21581000Y4798000D01*
X27420000Y16916000D02*
X27420000Y10084000D01*
X23981000Y21088000D02*
X23981000Y14940000D01*
X21621000Y12060000D02*
X21621000Y4810000D01*
X23661000Y21288000D02*
X23661000Y14940000D01*
X27780000Y15855000D02*
X27780000Y11145000D01*
X19981000Y22526000D02*
X19981000Y4474000D01*
X27380000Y17012000D02*
X27380000Y9988000D01*
X21541000Y22214000D02*
X21541000Y14940000D01*
X22101000Y22030000D02*
X22101000Y14940000D01*
X23541000Y12060000D02*
X23541000Y5641000D01*
X21421000Y12060000D02*
X21421000Y4752000D01*
X26381000Y18791000D02*
X26381000Y8209000D01*
X21301000Y22280000D02*
X21301000Y14940000D01*
X24181000Y20953000D02*
X24181000Y6047000D01*
X23701000Y21264000D02*
X23701000Y14940000D01*
X22781000Y12060000D02*
X22781000Y5249000D01*
X26781000Y18186000D02*
X26781000Y8814000D01*
X20101000Y22511000D02*
X20101000Y4489000D01*
X25181000Y20149000D02*
X25181000Y6851000D01*
X21941000Y12060000D02*
X21941000Y4913000D01*
X24021000Y21061000D02*
X24021000Y14940000D01*
X22661000Y12060000D02*
X22661000Y5195000D01*
X23021000Y21637000D02*
X23021000Y14940000D01*
X22261000Y12060000D02*
X22261000Y5030000D01*
X21101000Y22331000D02*
X21101000Y4669000D01*
X19060000Y22580000D02*
X19060000Y4420000D01*
X26221000Y19006000D02*
X26221000Y7994000D01*
X22781000Y21751000D02*
X22781000Y14940000D01*
X25341000Y19997000D02*
X25341000Y7003000D01*
X26301000Y18900000D02*
X26301000Y8100000D01*
X22301000Y21955000D02*
X22301000Y14940000D01*
X26181000Y19058000D02*
X26181000Y7942000D01*
X25941000Y19354000D02*
X25941000Y7646000D01*
X23181000Y12060000D02*
X23181000Y5444000D01*
X24101000Y12060000D02*
X24101000Y5992000D01*
X25861000Y19447000D02*
X25861000Y7553000D01*
X22061000Y12060000D02*
X22061000Y4955000D01*
X21181000Y22311000D02*
X21181000Y4689000D01*
X19260000Y22576000D02*
X19260000Y4424000D01*
X20621000Y22432000D02*
X20621000Y4568000D01*
X23181000Y21556000D02*
X23181000Y14940000D01*
X24061000Y12060000D02*
X24061000Y5965000D01*
X20421000Y22466000D02*
X20421000Y4534000D01*
X22621000Y21823000D02*
X22621000Y14940000D01*
X19701000Y22552000D02*
X19701000Y4448000D01*
X24061000Y21035000D02*
X24061000Y14940000D01*
X10120560Y19515000D02*
X10120560Y17715000D01*
X20741000Y22409000D02*
X20741000Y4591000D01*
X26621000Y18441000D02*
X26621000Y8559000D01*
X23421000Y12060000D02*
X23421000Y5573000D01*
X21541000Y12060000D02*
X21541000Y4786000D01*
X19781000Y22545000D02*
X19781000Y4455000D01*
X25661000Y19670000D02*
X25661000Y7330000D01*
X24501000Y20720000D02*
X24501000Y6280000D01*
X22821000Y21733000D02*
X22821000Y14940000D01*
X25741000Y19582000D02*
X25741000Y7418000D01*
X21781000Y12060000D02*
X21781000Y4860000D01*
X23621000Y21312000D02*
X23621000Y14940000D01*
X26861000Y18052000D02*
X26861000Y8948000D01*
X20941000Y22367000D02*
X20941000Y4633000D01*
X23341000Y21471000D02*
X23341000Y14940000D01*
X23421000Y21427000D02*
X23421000Y14940000D01*
X19500000Y22566000D02*
X19500000Y4434000D01*
X23101000Y21597000D02*
X23101000Y14940000D01*
X27580000Y16496000D02*
X27580000Y10504000D01*
X20381000Y22472000D02*
X20381000Y4528000D01*
X19901000Y22534000D02*
X19901000Y4466000D01*
X19660000Y22555000D02*
X19660000Y4445000D01*
X23941000Y12060000D02*
X23941000Y5886000D01*
X23301000Y21492000D02*
X23301000Y14940000D01*
X24461000Y20750000D02*
X24461000Y6250000D01*
X26821000Y18120000D02*
X26821000Y8880000D01*
X27740000Y15998000D02*
X27740000Y11002000D01*
X21501000Y22225000D02*
X21501000Y14940000D01*
X20341000Y22479000D02*
X20341000Y4521000D01*
X19460000Y22568000D02*
X19460000Y4432000D01*
X23221000Y21535000D02*
X23221000Y14940000D01*
X27101000Y17613000D02*
X27101000Y9387000D01*
X21741000Y22153000D02*
X21741000Y14940000D01*
X25261000Y20074000D02*
X25261000Y6926000D01*
X21461000Y22237000D02*
X21461000Y14940000D01*
X21141000Y22321000D02*
X21141000Y4679000D01*
X24141000Y20980000D02*
X24141000Y14940000D01*
X22821000Y12060000D02*
X22821000Y5267000D01*
X25421000Y19918000D02*
X25421000Y7082000D01*
X26661000Y18379000D02*
X26661000Y8621000D01*
X26021000Y19258000D02*
X26021000Y7742000D01*
X28100000Y13540000D02*
X28100000Y13460000D01*
X27500000Y16714000D02*
X27500000Y10286000D01*
X21941000Y22087000D02*
X21941000Y14940000D01*
X27820000Y15703000D02*
X27820000Y11297000D01*
X23501000Y12060000D02*
X23501000Y5618000D01*
X26341000Y18846000D02*
X26341000Y8154000D01*
X23341000Y12060000D02*
X23341000Y5529000D01*
X24141000Y12060000D02*
X24141000Y6020000D01*
X25701000Y19626000D02*
X25701000Y7374000D01*
X23861000Y21165000D02*
X23861000Y14940000D01*
X19620000Y22558000D02*
X19620000Y4442000D01*
X21341000Y12060000D02*
X21341000Y4730000D01*
X25301000Y20036000D02*
X25301000Y6964000D01*
X23821000Y21190000D02*
X23821000Y14940000D01*
X21821000Y22127000D02*
X21821000Y14940000D01*
X25101000Y20222000D02*
X25101000Y6778000D01*
X24781000Y20499000D02*
X24781000Y6501000D01*
X25021000Y20294000D02*
X25021000Y6706000D01*
X22181000Y22001000D02*
X22181000Y14940000D01*
X23301000Y12060000D02*
X23301000Y5508000D01*
X19540000Y22563000D02*
X19540000Y4437000D01*
X20541000Y22446000D02*
X20541000Y4554000D01*
X22981000Y21656000D02*
X22981000Y14940000D01*
X24981000Y20329000D02*
X24981000Y6671000D01*
X22741000Y21769000D02*
X22741000Y14940000D01*
X20821000Y22393000D02*
X20821000Y4607000D01*
X20461000Y22460000D02*
X20461000Y4540000D01*
X23381000Y21449000D02*
X23381000Y14940000D01*
X21621000Y22190000D02*
X21621000Y14940000D01*
X24381000Y20810000D02*
X24381000Y6190000D01*
X22941000Y12060000D02*
X22941000Y5324000D01*
X20901000Y22376000D02*
X20901000Y4624000D01*
X24821000Y20465000D02*
X24821000Y6535000D01*
X23461000Y12060000D02*
X23461000Y5596000D01*
X19861000Y22538000D02*
X19861000Y4462000D01*
X24941000Y20364000D02*
X24941000Y6636000D01*
X26701000Y18316000D02*
X26701000Y8684000D01*
X22261000Y21970000D02*
X22261000Y14940000D01*
X19140000Y22579000D02*
X19140000Y4421000D01*
X21381000Y12060000D02*
X21381000Y4741000D01*
X26421000Y18735000D02*
X26421000Y8265000D01*
X27180000Y17452000D02*
X27180000Y9548000D01*
X22901000Y21695000D02*
X22901000Y14940000D01*
X24861000Y20432000D02*
X24861000Y6568000D01*
X22861000Y12060000D02*
X22861000Y5286000D01*
X21261000Y22291000D02*
X21261000Y4709000D01*
X24301000Y20868000D02*
X24301000Y6132000D01*
X21901000Y12060000D02*
X21901000Y4900000D01*
X25221000Y20112000D02*
X25221000Y6888000D01*
X19580000Y22561000D02*
X19580000Y4439000D01*
X27340000Y17105000D02*
X27340000Y9895000D01*
X9220560Y18615000D02*
X11020560Y18615000D01*
X19300000Y22575000D02*
X19300000Y4425000D01*
X22541000Y21857000D02*
X22541000Y14940000D01*
X23621000Y12060000D02*
X23621000Y5688000D01*
X23901000Y21140000D02*
X23901000Y14940000D01*
X21421000Y22248000D02*
X21421000Y14940000D01*
X23381000Y12060000D02*
X23381000Y5551000D01*
X20861000Y22385000D02*
X20861000Y4615000D01*
X22581000Y21840000D02*
X22581000Y14940000D01*
X20141000Y22506000D02*
X20141000Y4494000D01*
X21701000Y22165000D02*
X21701000Y14940000D01*
X22501000Y12060000D02*
X22501000Y5126000D01*
X24261000Y20897000D02*
X24261000Y6103000D01*
X20581000Y22439000D02*
X20581000Y4561000D01*
X20501000Y22453000D02*
X20501000Y4547000D01*
X26501000Y18620000D02*
X26501000Y8380000D01*
X22141000Y12060000D02*
X22141000Y4984000D01*
X24581000Y20659000D02*
X24581000Y6341000D01*
X23861000Y12060000D02*
X23861000Y5835000D01*
X26061000Y19209000D02*
X26061000Y7791000D01*
X27700000Y16132000D02*
X27700000Y10868000D01*
X22701000Y21787000D02*
X22701000Y14940000D01*
X25461000Y19878000D02*
X25461000Y7122000D01*
X21661000Y22178000D02*
X21661000Y14940000D01*
X22381000Y21923000D02*
X22381000Y14940000D01*
X20701000Y22417000D02*
X20701000Y4583000D01*
X22221000Y12060000D02*
X22221000Y5014000D01*
X23021000Y12060000D02*
X23021000Y5363000D01*
X23741000Y12060000D02*
X23741000Y5760000D01*
X23821000Y12060000D02*
X23821000Y5810000D01*
X21661000Y12060000D02*
X21661000Y4822000D01*
X22461000Y12060000D02*
X22461000Y5110000D01*
X25501000Y19837000D02*
X25501000Y7163000D01*
X25141000Y20186000D02*
X25141000Y6814000D01*
X22301000Y12060000D02*
X22301000Y5045000D01*
X23701000Y12060000D02*
X23701000Y5736000D01*
X28020000Y14666000D02*
X28020000Y12334000D01*
X26261000Y18954000D02*
X26261000Y8046000D01*
X26581000Y18502000D02*
X26581000Y8498000D01*
X22701000Y12060000D02*
X22701000Y5213000D01*
X25821000Y19493000D02*
X25821000Y7507000D01*
X22421000Y21907000D02*
X22421000Y14940000D01*
X24701000Y20564000D02*
X24701000Y6436000D01*
X21461000Y12060000D02*
X21461000Y4763000D01*
X27860000Y15539000D02*
X27860000Y11461000D01*
X28060000Y14314000D02*
X28060000Y12686000D01*
X22901000Y12060000D02*
X22901000Y5305000D01*
X23941000Y21114000D02*
X23941000Y14940000D01*
X18980000Y22581000D02*
X18980000Y4419000D01*
X19821000Y22542000D02*
X19821000Y4458000D01*
X22421000Y12060000D02*
X22421000Y5093000D01*
X27300000Y17196000D02*
X27300000Y9804000D01*
X19100000Y22580000D02*
X19100000Y4420000D01*
X23741000Y21240000D02*
X23741000Y14940000D01*
X20781000Y22401000D02*
X20781000Y4599000D01*
X24101000Y21008000D02*
X24101000Y14940000D01*
X23141000Y21576000D02*
X23141000Y14940000D01*
X26141000Y19109000D02*
X26141000Y7891000D01*
X20661000Y22424000D02*
X20661000Y4576000D01*
X26541000Y18562000D02*
X26541000Y8438000D01*
X20261000Y22490000D02*
X20261000Y4510000D01*
X22221000Y21986000D02*
X22221000Y14940000D01*
X19941000Y22530000D02*
X19941000Y4470000D01*
X25581000Y19754000D02*
X25581000Y7246000D01*
X23221000Y12060000D02*
X23221000Y5465000D01*
X23901000Y12060000D02*
X23901000Y5860000D01*
X21301000Y12060000D02*
X21301000Y4720000D01*
X23981000Y12060000D02*
X23981000Y5912000D01*
X27940000Y15161000D02*
X27940000Y11839000D01*
X21581000Y22202000D02*
X21581000Y14940000D01*
X23501000Y21382000D02*
X23501000Y14940000D01*
X22381000Y12060000D02*
X22381000Y5077000D01*
X27900000Y15360000D02*
X27900000Y11640000D01*
X24621000Y20627000D02*
X24621000Y6373000D01*
X26981000Y17839000D02*
X26981000Y9161000D01*
X23261000Y12060000D02*
X23261000Y5486000D01*
X26461000Y18678000D02*
X26461000Y8322000D01*
X21981000Y12060000D02*
X21981000Y4927000D01*
X26941000Y17912000D02*
X26941000Y9088000D01*
X24541000Y20690000D02*
X24541000Y6310000D01*
X21821000Y12060000D02*
X21821000Y4873000D01*
X21061000Y22340000D02*
X21061000Y4660000D01*
X23061000Y12060000D02*
X23061000Y5383000D01*
X23261000Y21514000D02*
X23261000Y14940000D01*
X24901000Y20398000D02*
X24901000Y6602000D01*
X25061000Y20258000D02*
X25061000Y6742000D01*
X27021000Y17765000D02*
X27021000Y9235000D01*
X22741000Y12060000D02*
X22741000Y5231000D01*
X22581000Y12060000D02*
X22581000Y5160000D01*
X21021000Y22349000D02*
X21021000Y4651000D01*
X22861000Y21714000D02*
X22861000Y14940000D01*
X22541000Y12060000D02*
X22541000Y5143000D01*
X27141000Y17533000D02*
X27141000Y9467000D01*
X27260000Y17284000D02*
X27260000Y9716000D01*
X22021000Y22059000D02*
X22021000Y14940000D01*
X21221000Y22301000D02*
X21221000Y4699000D01*
X26741000Y18252000D02*
X26741000Y8748000D01*
X19420000Y22570000D02*
X19420000Y4430000D01*
X26901000Y17982000D02*
X26901000Y9018000D01*
X19741000Y22549000D02*
X19741000Y4451000D01*
X22941000Y21676000D02*
X22941000Y14940000D01*
X20301000Y22484000D02*
X20301000Y4516000D01*
X22621000Y12060000D02*
X22621000Y5177000D01*
X22981000Y12060000D02*
X22981000Y5344000D01*
X27460000Y16817000D02*
X27460000Y10183000D01*
X20221000Y22496000D02*
X20221000Y4504000D01*
X24661000Y20596000D02*
X24661000Y6404000D01*
X27540000Y16607000D02*
X27540000Y10393000D01*
X22461000Y21890000D02*
X22461000Y14940000D01*
X22341000Y21939000D02*
X22341000Y14940000D01*
X25541000Y19796000D02*
X25541000Y7204000D01*
X26101000Y19160000D02*
X26101000Y7840000D01*
X21861000Y22114000D02*
X21861000Y14940000D01*
X22341000Y12060000D02*
X22341000Y5061000D01*
X27660000Y16259000D02*
X27660000Y10741000D01*
X22661000Y21805000D02*
X22661000Y14940000D01*
X25621000Y19712000D02*
X25621000Y7288000D01*
X23781000Y21215000D02*
X23781000Y14940000D01*
X21901000Y22100000D02*
X21901000Y14940000D01*
X19380000Y22572000D02*
X19380000Y4428000D01*
X21381000Y22259000D02*
X21381000Y14940000D01*
X20021000Y22521000D02*
X20021000Y4479000D01*
X23781000Y12060000D02*
X23781000Y5785000D01*
X27980000Y14935000D02*
X27980000Y12065000D01*
X21741000Y12060000D02*
X21741000Y4847000D01*
X22101000Y12060000D02*
X22101000Y4970000D01*
X24741000Y20531000D02*
X24741000Y6469000D01*
X25901000Y19401000D02*
X25901000Y7599000D01*
X25381000Y19958000D02*
X25381000Y7042000D01*
X24021000Y12060000D02*
X24021000Y5939000D01*
X23581000Y21335000D02*
X23581000Y14940000D01*
X24341000Y20839000D02*
X24341000Y6161000D01*
X21341000Y22270000D02*
X21341000Y14940000D01*
X19020000Y22580000D02*
X19020000Y4420000D01*
X21781000Y22140000D02*
X21781000Y14940000D01*
X19220000Y22577000D02*
X19220000Y4423000D01*
X25981000Y19306000D02*
X25981000Y7694000D01*
X22501000Y21874000D02*
X22501000Y14940000D01*
X27620000Y16380000D02*
X27620000Y10620000D01*
X22021000Y12060000D02*
X22021000Y4941000D01*
X21701000Y12060000D02*
X21701000Y4835000D01*
X24221000Y20925000D02*
X24221000Y6075000D01*
X27220000Y17369000D02*
X27220000Y9631000D01*
X20981000Y22358000D02*
X20981000Y4642000D01*
X22061000Y22045000D02*
X22061000Y14940000D01*
X23661000Y12060000D02*
X23661000Y5712000D01*
X22141000Y22016000D02*
X22141000Y14940000D01*
X25781000Y19538000D02*
X25781000Y7462000D01*
X23101000Y12060000D02*
X23101000Y5403000D01*
X23141000Y12060000D02*
X23141000Y5424000D01*
X21501000Y12060000D02*
X21501000Y4775000D01*
X23061000Y21617000D02*
X23061000Y14940000D01*
X27061000Y17690000D02*
X27061000Y9310000D01*
X21861000Y12060000D02*
X21861000Y4886000D01*
X19340000Y22573000D02*
X19340000Y4427000D01*
X23541000Y21359000D02*
X23541000Y14940000D01*
X28480000Y13500000D02*
G75*
G03*
X28480000Y13500000I-9500000J0D01*
G01*
%TO.C,BT3*%
X46421000Y35060000D02*
X46421000Y28573000D01*
X46101000Y35060000D02*
X46101000Y28403000D01*
X49541000Y41562000D02*
X49541000Y31438000D01*
X45941000Y44676000D02*
X45941000Y37940000D01*
X45421000Y44907000D02*
X45421000Y37940000D01*
X46341000Y35060000D02*
X46341000Y28529000D01*
X44101000Y45331000D02*
X44101000Y27669000D01*
X44501000Y45225000D02*
X44501000Y37940000D01*
X48981000Y42306000D02*
X48981000Y30694000D01*
X45981000Y35060000D02*
X45981000Y28344000D01*
X48181000Y43149000D02*
X48181000Y29851000D01*
X44821000Y45127000D02*
X44821000Y37940000D01*
X47061000Y44035000D02*
X47061000Y37940000D01*
X42901000Y45534000D02*
X42901000Y27466000D01*
X48061000Y43258000D02*
X48061000Y29742000D01*
X32220560Y41615000D02*
X34020560Y41615000D01*
X49621000Y41441000D02*
X49621000Y31559000D01*
X45101000Y45030000D02*
X45101000Y37940000D01*
X49741000Y41252000D02*
X49741000Y31748000D01*
X46301000Y44492000D02*
X46301000Y37940000D01*
X44741000Y45153000D02*
X44741000Y37940000D01*
X44981000Y45073000D02*
X44981000Y37940000D01*
X44541000Y45214000D02*
X44541000Y37940000D01*
X44861000Y35060000D02*
X44861000Y27886000D01*
X44981000Y35060000D02*
X44981000Y27927000D01*
X47701000Y43564000D02*
X47701000Y29436000D01*
X48501000Y42837000D02*
X48501000Y30163000D01*
X49821000Y41120000D02*
X49821000Y31880000D01*
X48901000Y42401000D02*
X48901000Y30599000D01*
X45221000Y44986000D02*
X45221000Y37940000D01*
X43621000Y45432000D02*
X43621000Y27568000D01*
X43821000Y45393000D02*
X43821000Y27607000D01*
X47541000Y43690000D02*
X47541000Y29310000D01*
X45741000Y44769000D02*
X45741000Y37940000D01*
X50460000Y39817000D02*
X50460000Y33183000D01*
X42340000Y45573000D02*
X42340000Y27427000D01*
X50021000Y40765000D02*
X50021000Y32235000D01*
X48021000Y43294000D02*
X48021000Y29706000D01*
X50180000Y40452000D02*
X50180000Y32548000D01*
X46741000Y35060000D02*
X46741000Y28760000D01*
X42861000Y45538000D02*
X42861000Y27462000D01*
X46461000Y35060000D02*
X46461000Y28596000D01*
X41980000Y45581000D02*
X41980000Y27419000D01*
X47781000Y43499000D02*
X47781000Y29501000D01*
X42220000Y45577000D02*
X42220000Y27423000D01*
X50940000Y38161000D02*
X50940000Y34839000D01*
X44941000Y45087000D02*
X44941000Y37940000D01*
X46061000Y35060000D02*
X46061000Y28383000D01*
X50820000Y38703000D02*
X50820000Y34297000D01*
X45101000Y35060000D02*
X45101000Y27970000D01*
X44301000Y45280000D02*
X44301000Y37940000D01*
X44701000Y45165000D02*
X44701000Y37940000D01*
X50620000Y39380000D02*
X50620000Y33620000D01*
X43181000Y45501000D02*
X43181000Y27499000D01*
X45461000Y44890000D02*
X45461000Y37940000D01*
X50500000Y39714000D02*
X50500000Y33286000D01*
X45661000Y44805000D02*
X45661000Y37940000D01*
X45061000Y45045000D02*
X45061000Y37940000D01*
X47741000Y43531000D02*
X47741000Y29469000D01*
X49181000Y42058000D02*
X49181000Y30942000D01*
X44661000Y45178000D02*
X44661000Y37940000D01*
X44461000Y45237000D02*
X44461000Y37940000D01*
X42020000Y45580000D02*
X42020000Y27420000D01*
X45301000Y44955000D02*
X45301000Y37940000D01*
X47101000Y44008000D02*
X47101000Y37940000D01*
X43581000Y45439000D02*
X43581000Y27561000D01*
X46141000Y44576000D02*
X46141000Y37940000D01*
X42701000Y45552000D02*
X42701000Y27448000D01*
X47941000Y43364000D02*
X47941000Y29636000D01*
X46261000Y44514000D02*
X46261000Y37940000D01*
X51060000Y37314000D02*
X51060000Y35686000D01*
X47061000Y35060000D02*
X47061000Y28965000D01*
X47261000Y43897000D02*
X47261000Y29103000D01*
X42781000Y45545000D02*
X42781000Y27455000D01*
X46541000Y35060000D02*
X46541000Y28641000D01*
X45181000Y45001000D02*
X45181000Y37940000D01*
X46781000Y44215000D02*
X46781000Y37940000D01*
X45261000Y44970000D02*
X45261000Y37940000D01*
X47461000Y43750000D02*
X47461000Y29250000D01*
X46701000Y35060000D02*
X46701000Y28736000D01*
X46661000Y35060000D02*
X46661000Y28712000D01*
X43861000Y45385000D02*
X43861000Y27615000D01*
X46981000Y44088000D02*
X46981000Y37940000D01*
X49941000Y40912000D02*
X49941000Y32088000D01*
X50380000Y40012000D02*
X50380000Y32988000D01*
X48221000Y43112000D02*
X48221000Y29888000D01*
X42620000Y45558000D02*
X42620000Y27442000D01*
X45501000Y35060000D02*
X45501000Y28126000D01*
X45141000Y45016000D02*
X45141000Y37940000D01*
X47101000Y35060000D02*
X47101000Y28992000D01*
X42140000Y45579000D02*
X42140000Y27421000D01*
X46061000Y44617000D02*
X46061000Y37940000D01*
X42420000Y45570000D02*
X42420000Y27430000D01*
X45901000Y44695000D02*
X45901000Y37940000D01*
X43541000Y45446000D02*
X43541000Y27554000D01*
X50260000Y40284000D02*
X50260000Y32716000D01*
X50900000Y38360000D02*
X50900000Y34640000D01*
X42300000Y45575000D02*
X42300000Y27425000D01*
X44141000Y45321000D02*
X44141000Y27679000D01*
X46941000Y35060000D02*
X46941000Y28886000D01*
X51100000Y36540000D02*
X51100000Y36460000D01*
X47341000Y43839000D02*
X47341000Y29161000D01*
X44781000Y45140000D02*
X44781000Y37940000D01*
X49261000Y41954000D02*
X49261000Y31046000D01*
X42981000Y45526000D02*
X42981000Y27474000D01*
X42580000Y45561000D02*
X42580000Y27439000D01*
X45901000Y35060000D02*
X45901000Y28305000D01*
X45541000Y35060000D02*
X45541000Y28143000D01*
X44341000Y35060000D02*
X44341000Y27730000D01*
X43061000Y45516000D02*
X43061000Y27484000D01*
X46101000Y44597000D02*
X46101000Y37940000D01*
X44421000Y35060000D02*
X44421000Y27752000D01*
X44781000Y35060000D02*
X44781000Y27860000D01*
X46661000Y44288000D02*
X46661000Y37940000D01*
X50420000Y39916000D02*
X50420000Y33084000D01*
X50101000Y40613000D02*
X50101000Y32387000D01*
X45381000Y44923000D02*
X45381000Y37940000D01*
X49461000Y41678000D02*
X49461000Y31322000D01*
X45581000Y44840000D02*
X45581000Y37940000D01*
X43461000Y45460000D02*
X43461000Y27540000D01*
X43661000Y45424000D02*
X43661000Y27576000D01*
X47901000Y43398000D02*
X47901000Y29602000D01*
X48941000Y42354000D02*
X48941000Y30646000D01*
X46381000Y35060000D02*
X46381000Y28551000D01*
X46821000Y44190000D02*
X46821000Y37940000D01*
X45301000Y35060000D02*
X45301000Y28045000D01*
X48741000Y42582000D02*
X48741000Y30418000D01*
X44061000Y45340000D02*
X44061000Y27660000D01*
X46821000Y35060000D02*
X46821000Y28810000D01*
X46181000Y44556000D02*
X46181000Y37940000D01*
X49901000Y40982000D02*
X49901000Y32018000D01*
X48301000Y43036000D02*
X48301000Y29964000D01*
X46221000Y44535000D02*
X46221000Y37940000D01*
X45741000Y35060000D02*
X45741000Y28231000D01*
X49701000Y41316000D02*
X49701000Y31684000D01*
X50061000Y40690000D02*
X50061000Y32310000D01*
X45341000Y35060000D02*
X45341000Y28061000D01*
X46941000Y44114000D02*
X46941000Y37940000D01*
X46421000Y44427000D02*
X46421000Y37940000D01*
X45781000Y35060000D02*
X45781000Y28249000D01*
X43261000Y45490000D02*
X43261000Y27510000D01*
X48821000Y42493000D02*
X48821000Y30507000D01*
X46181000Y35060000D02*
X46181000Y28444000D01*
X50580000Y39496000D02*
X50580000Y33504000D01*
X43141000Y45506000D02*
X43141000Y27494000D01*
X45421000Y35060000D02*
X45421000Y28093000D01*
X44221000Y45301000D02*
X44221000Y27699000D01*
X45621000Y35060000D02*
X45621000Y28177000D01*
X46901000Y44140000D02*
X46901000Y37940000D01*
X45821000Y35060000D02*
X45821000Y28267000D01*
X47501000Y43720000D02*
X47501000Y29280000D01*
X44821000Y35060000D02*
X44821000Y27873000D01*
X43901000Y45376000D02*
X43901000Y27624000D01*
X46901000Y35060000D02*
X46901000Y28860000D01*
X47861000Y43432000D02*
X47861000Y29568000D01*
X43101000Y45511000D02*
X43101000Y27489000D01*
X50660000Y39259000D02*
X50660000Y33741000D01*
X43701000Y45417000D02*
X43701000Y27583000D01*
X44301000Y35060000D02*
X44301000Y27720000D01*
X44261000Y45291000D02*
X44261000Y27709000D01*
X44341000Y45270000D02*
X44341000Y37940000D01*
X45221000Y35060000D02*
X45221000Y28014000D01*
X46221000Y35060000D02*
X46221000Y28465000D01*
X50340000Y40105000D02*
X50340000Y32895000D01*
X42100000Y45580000D02*
X42100000Y27420000D01*
X51020000Y37666000D02*
X51020000Y35334000D01*
X50300000Y40196000D02*
X50300000Y32804000D01*
X43341000Y45479000D02*
X43341000Y27521000D01*
X48701000Y42626000D02*
X48701000Y30374000D01*
X47221000Y43925000D02*
X47221000Y29075000D01*
X50860000Y38539000D02*
X50860000Y34461000D01*
X44501000Y35060000D02*
X44501000Y27775000D01*
X47141000Y43980000D02*
X47141000Y37940000D01*
X47181000Y43953000D02*
X47181000Y29047000D01*
X49581000Y41502000D02*
X49581000Y31498000D01*
X46021000Y44637000D02*
X46021000Y37940000D01*
X45341000Y44939000D02*
X45341000Y37940000D01*
X50740000Y38998000D02*
X50740000Y34002000D01*
X46781000Y35060000D02*
X46781000Y28785000D01*
X49301000Y41900000D02*
X49301000Y31100000D01*
X45061000Y35060000D02*
X45061000Y27955000D01*
X47581000Y43659000D02*
X47581000Y29341000D01*
X50700000Y39132000D02*
X50700000Y33868000D01*
X46341000Y44471000D02*
X46341000Y37940000D01*
X46621000Y44312000D02*
X46621000Y37940000D01*
X47821000Y43465000D02*
X47821000Y29535000D01*
X44661000Y35060000D02*
X44661000Y27822000D01*
X46701000Y44264000D02*
X46701000Y37940000D01*
X50540000Y39607000D02*
X50540000Y33393000D01*
X45021000Y45059000D02*
X45021000Y37940000D01*
X42380000Y45572000D02*
X42380000Y27428000D01*
X47981000Y43329000D02*
X47981000Y29671000D01*
X46541000Y44359000D02*
X46541000Y37940000D01*
X45781000Y44751000D02*
X45781000Y37940000D01*
X45661000Y35060000D02*
X45661000Y28195000D01*
X48421000Y42918000D02*
X48421000Y30082000D01*
X43221000Y45496000D02*
X43221000Y27504000D01*
X48541000Y42796000D02*
X48541000Y30204000D01*
X44621000Y45190000D02*
X44621000Y37940000D01*
X48141000Y43186000D02*
X48141000Y29814000D01*
X47621000Y43627000D02*
X47621000Y29373000D01*
X46861000Y44165000D02*
X46861000Y37940000D01*
X49221000Y42006000D02*
X49221000Y30994000D01*
X42180000Y45578000D02*
X42180000Y27422000D01*
X46381000Y44449000D02*
X46381000Y37940000D01*
X42060000Y45580000D02*
X42060000Y27420000D01*
X46581000Y44335000D02*
X46581000Y37940000D01*
X47381000Y43810000D02*
X47381000Y29190000D01*
X46461000Y44404000D02*
X46461000Y37940000D01*
X43381000Y45472000D02*
X43381000Y27528000D01*
X47301000Y43868000D02*
X47301000Y29132000D01*
X49981000Y40839000D02*
X49981000Y32161000D01*
X49421000Y41735000D02*
X49421000Y31265000D01*
X50220000Y40369000D02*
X50220000Y32631000D01*
X45581000Y35060000D02*
X45581000Y28160000D01*
X45261000Y35060000D02*
X45261000Y28030000D01*
X47021000Y35060000D02*
X47021000Y28939000D01*
X47141000Y35060000D02*
X47141000Y29020000D01*
X44701000Y35060000D02*
X44701000Y27835000D01*
X33120560Y42515000D02*
X33120560Y40715000D01*
X44901000Y45100000D02*
X44901000Y37940000D01*
X44381000Y45259000D02*
X44381000Y37940000D01*
X45701000Y44787000D02*
X45701000Y37940000D01*
X46301000Y35060000D02*
X46301000Y28508000D01*
X46741000Y44240000D02*
X46741000Y37940000D01*
X44621000Y35060000D02*
X44621000Y27810000D01*
X47421000Y43780000D02*
X47421000Y29220000D01*
X46021000Y35060000D02*
X46021000Y28363000D01*
X45861000Y44714000D02*
X45861000Y37940000D01*
X42460000Y45568000D02*
X42460000Y27432000D01*
X45501000Y44874000D02*
X45501000Y37940000D01*
X44021000Y45349000D02*
X44021000Y27651000D01*
X46501000Y44382000D02*
X46501000Y37940000D01*
X42260000Y45576000D02*
X42260000Y27424000D01*
X45541000Y44857000D02*
X45541000Y37940000D01*
X48661000Y42670000D02*
X48661000Y30330000D01*
X46261000Y35060000D02*
X46261000Y28486000D01*
X46141000Y35060000D02*
X46141000Y28424000D01*
X45021000Y35060000D02*
X45021000Y27941000D01*
X44741000Y35060000D02*
X44741000Y27847000D01*
X49061000Y42209000D02*
X49061000Y30791000D01*
X44421000Y45248000D02*
X44421000Y37940000D01*
X49141000Y42109000D02*
X49141000Y30891000D01*
X46501000Y35060000D02*
X46501000Y28618000D01*
X45141000Y35060000D02*
X45141000Y27984000D01*
X43501000Y45453000D02*
X43501000Y27547000D01*
X50141000Y40533000D02*
X50141000Y32467000D01*
X44541000Y35060000D02*
X44541000Y27786000D01*
X44581000Y35060000D02*
X44581000Y27798000D01*
X43021000Y45521000D02*
X43021000Y27479000D01*
X49021000Y42258000D02*
X49021000Y30742000D01*
X48861000Y42447000D02*
X48861000Y30553000D01*
X44461000Y35060000D02*
X44461000Y27763000D01*
X45701000Y35060000D02*
X45701000Y28213000D01*
X42540000Y45563000D02*
X42540000Y27437000D01*
X46861000Y35060000D02*
X46861000Y28835000D01*
X47661000Y43596000D02*
X47661000Y29404000D01*
X45381000Y35060000D02*
X45381000Y28077000D01*
X49381000Y41791000D02*
X49381000Y31209000D01*
X48341000Y42997000D02*
X48341000Y30003000D01*
X43941000Y45367000D02*
X43941000Y27633000D01*
X42741000Y45549000D02*
X42741000Y27451000D01*
X49861000Y41052000D02*
X49861000Y31948000D01*
X48781000Y42538000D02*
X48781000Y30462000D01*
X49341000Y41846000D02*
X49341000Y31154000D01*
X42821000Y45542000D02*
X42821000Y27458000D01*
X44941000Y35060000D02*
X44941000Y27913000D01*
X44381000Y35060000D02*
X44381000Y27741000D01*
X49101000Y42160000D02*
X49101000Y30840000D01*
X44901000Y35060000D02*
X44901000Y27900000D01*
X44861000Y45114000D02*
X44861000Y37940000D01*
X44181000Y45311000D02*
X44181000Y27689000D01*
X45981000Y44656000D02*
X45981000Y37940000D01*
X49501000Y41620000D02*
X49501000Y31380000D01*
X48461000Y42878000D02*
X48461000Y30122000D01*
X42500000Y45566000D02*
X42500000Y27434000D01*
X45621000Y44823000D02*
X45621000Y37940000D01*
X46581000Y35060000D02*
X46581000Y28665000D01*
X43421000Y45466000D02*
X43421000Y27534000D01*
X46981000Y35060000D02*
X46981000Y28912000D01*
X43981000Y45358000D02*
X43981000Y27642000D01*
X48101000Y43222000D02*
X48101000Y29778000D01*
X43781000Y45401000D02*
X43781000Y27599000D01*
X47021000Y44061000D02*
X47021000Y37940000D01*
X49781000Y41186000D02*
X49781000Y31814000D01*
X46621000Y35060000D02*
X46621000Y28688000D01*
X45821000Y44733000D02*
X45821000Y37940000D01*
X45461000Y35060000D02*
X45461000Y28110000D01*
X45861000Y35060000D02*
X45861000Y28286000D01*
X45181000Y35060000D02*
X45181000Y27999000D01*
X42660000Y45555000D02*
X42660000Y27445000D01*
X45941000Y35060000D02*
X45941000Y28324000D01*
X43301000Y45484000D02*
X43301000Y27516000D01*
X50980000Y37935000D02*
X50980000Y35065000D01*
X48261000Y43074000D02*
X48261000Y29926000D01*
X48621000Y42712000D02*
X48621000Y30288000D01*
X43741000Y45409000D02*
X43741000Y27591000D01*
X48581000Y42754000D02*
X48581000Y30246000D01*
X49661000Y41379000D02*
X49661000Y31621000D01*
X48381000Y42958000D02*
X48381000Y30042000D01*
X44581000Y45202000D02*
X44581000Y37940000D01*
X42941000Y45530000D02*
X42941000Y27470000D01*
X50780000Y38855000D02*
X50780000Y34145000D01*
X51480000Y36500000D02*
G75*
G03*
X51480000Y36500000I-9500000J0D01*
G01*
%TO.C,BT2*%
X42540000Y22563000D02*
X42540000Y4437000D01*
X50540000Y16607000D02*
X50540000Y10393000D01*
X47901000Y20398000D02*
X47901000Y6602000D01*
X46941000Y21114000D02*
X46941000Y14940000D01*
X46221000Y21535000D02*
X46221000Y14940000D01*
X47261000Y20897000D02*
X47261000Y6103000D01*
X46901000Y21140000D02*
X46901000Y14940000D01*
X46421000Y21427000D02*
X46421000Y14940000D01*
X42420000Y22570000D02*
X42420000Y4430000D01*
X49181000Y19058000D02*
X49181000Y7942000D01*
X45581000Y21840000D02*
X45581000Y14940000D01*
X45781000Y12060000D02*
X45781000Y5249000D01*
X46861000Y12060000D02*
X46861000Y5835000D01*
X43141000Y22506000D02*
X43141000Y4494000D01*
X45861000Y21714000D02*
X45861000Y14940000D01*
X44461000Y12060000D02*
X44461000Y4763000D01*
X33120560Y19515000D02*
X33120560Y17715000D01*
X44261000Y22291000D02*
X44261000Y4709000D01*
X48901000Y19401000D02*
X48901000Y7599000D01*
X42580000Y22561000D02*
X42580000Y4439000D01*
X42380000Y22572000D02*
X42380000Y4428000D01*
X42260000Y22576000D02*
X42260000Y4424000D01*
X45941000Y12060000D02*
X45941000Y5324000D01*
X32220560Y18615000D02*
X34020560Y18615000D01*
X46141000Y12060000D02*
X46141000Y5424000D01*
X46101000Y12060000D02*
X46101000Y5403000D01*
X44981000Y22073000D02*
X44981000Y14940000D01*
X47621000Y20627000D02*
X47621000Y6373000D01*
X48581000Y19754000D02*
X48581000Y7246000D01*
X42060000Y22580000D02*
X42060000Y4420000D01*
X44341000Y22270000D02*
X44341000Y14940000D01*
X43861000Y22385000D02*
X43861000Y4615000D01*
X45541000Y12060000D02*
X45541000Y5143000D01*
X46661000Y21288000D02*
X46661000Y14940000D01*
X43501000Y22453000D02*
X43501000Y4547000D01*
X43981000Y22358000D02*
X43981000Y4642000D01*
X44821000Y22127000D02*
X44821000Y14940000D01*
X44381000Y12060000D02*
X44381000Y4741000D01*
X46381000Y21449000D02*
X46381000Y14940000D01*
X44021000Y22349000D02*
X44021000Y4651000D01*
X45381000Y12060000D02*
X45381000Y5077000D01*
X44701000Y22165000D02*
X44701000Y14940000D01*
X48141000Y20186000D02*
X48141000Y6814000D01*
X44621000Y22190000D02*
X44621000Y14940000D01*
X51020000Y14666000D02*
X51020000Y12334000D01*
X47461000Y20750000D02*
X47461000Y6250000D01*
X45021000Y22059000D02*
X45021000Y14940000D01*
X46821000Y21190000D02*
X46821000Y14940000D01*
X44861000Y22114000D02*
X44861000Y14940000D01*
X49541000Y18562000D02*
X49541000Y8438000D01*
X47341000Y20839000D02*
X47341000Y6161000D01*
X45341000Y12060000D02*
X45341000Y5061000D01*
X45661000Y21805000D02*
X45661000Y14940000D01*
X43941000Y22367000D02*
X43941000Y4633000D01*
X44821000Y12060000D02*
X44821000Y4873000D01*
X51060000Y14314000D02*
X51060000Y12686000D01*
X48941000Y19354000D02*
X48941000Y7646000D01*
X49141000Y19109000D02*
X49141000Y7891000D01*
X44501000Y12060000D02*
X44501000Y4775000D01*
X45661000Y12060000D02*
X45661000Y5195000D01*
X43821000Y22393000D02*
X43821000Y4607000D01*
X46021000Y12060000D02*
X46021000Y5363000D01*
X44461000Y22237000D02*
X44461000Y14940000D01*
X45821000Y21733000D02*
X45821000Y14940000D01*
X44221000Y22301000D02*
X44221000Y4699000D01*
X42660000Y22555000D02*
X42660000Y4445000D01*
X50380000Y17012000D02*
X50380000Y9988000D01*
X46981000Y12060000D02*
X46981000Y5912000D01*
X45981000Y12060000D02*
X45981000Y5344000D01*
X50580000Y16496000D02*
X50580000Y10504000D01*
X44901000Y12060000D02*
X44901000Y4900000D01*
X45741000Y12060000D02*
X45741000Y5231000D01*
X45141000Y12060000D02*
X45141000Y4984000D01*
X49261000Y18954000D02*
X49261000Y8046000D01*
X49381000Y18791000D02*
X49381000Y8209000D01*
X45381000Y21923000D02*
X45381000Y14940000D01*
X50900000Y15360000D02*
X50900000Y11640000D01*
X48381000Y19958000D02*
X48381000Y7042000D01*
X44421000Y22248000D02*
X44421000Y14940000D01*
X50260000Y17284000D02*
X50260000Y9716000D01*
X43381000Y22472000D02*
X43381000Y4528000D01*
X49741000Y18252000D02*
X49741000Y8748000D01*
X47301000Y20868000D02*
X47301000Y6132000D01*
X44941000Y22087000D02*
X44941000Y14940000D01*
X46021000Y21637000D02*
X46021000Y14940000D01*
X46981000Y21088000D02*
X46981000Y14940000D01*
X50860000Y15539000D02*
X50860000Y11461000D01*
X46621000Y21312000D02*
X46621000Y14940000D01*
X50220000Y17369000D02*
X50220000Y9631000D01*
X48101000Y20222000D02*
X48101000Y6778000D01*
X46421000Y12060000D02*
X46421000Y5573000D01*
X50180000Y17452000D02*
X50180000Y9548000D01*
X44661000Y12060000D02*
X44661000Y4822000D01*
X44301000Y22280000D02*
X44301000Y14940000D01*
X42941000Y22530000D02*
X42941000Y4470000D01*
X45101000Y12060000D02*
X45101000Y4970000D01*
X42981000Y22526000D02*
X42981000Y4474000D01*
X43781000Y22401000D02*
X43781000Y4599000D01*
X49421000Y18735000D02*
X49421000Y8265000D01*
X46261000Y21514000D02*
X46261000Y14940000D01*
X50660000Y16259000D02*
X50660000Y10741000D01*
X49101000Y19160000D02*
X49101000Y7840000D01*
X44581000Y12060000D02*
X44581000Y4798000D01*
X46941000Y12060000D02*
X46941000Y5886000D01*
X44901000Y22100000D02*
X44901000Y14940000D01*
X42741000Y22549000D02*
X42741000Y4451000D01*
X50460000Y16817000D02*
X50460000Y10183000D01*
X46661000Y12060000D02*
X46661000Y5712000D01*
X42861000Y22538000D02*
X42861000Y4462000D01*
X48541000Y19796000D02*
X48541000Y7204000D01*
X46181000Y12060000D02*
X46181000Y5444000D01*
X43181000Y22501000D02*
X43181000Y4499000D01*
X45901000Y12060000D02*
X45901000Y5305000D01*
X45421000Y21907000D02*
X45421000Y14940000D01*
X46501000Y21382000D02*
X46501000Y14940000D01*
X43581000Y22439000D02*
X43581000Y4561000D01*
X45181000Y22001000D02*
X45181000Y14940000D01*
X49781000Y18186000D02*
X49781000Y8814000D01*
X48701000Y19626000D02*
X48701000Y7374000D01*
X46221000Y12060000D02*
X46221000Y5465000D01*
X46541000Y12060000D02*
X46541000Y5641000D01*
X41980000Y22581000D02*
X41980000Y4419000D01*
X45981000Y21656000D02*
X45981000Y14940000D01*
X43021000Y22521000D02*
X43021000Y4479000D01*
X50141000Y17533000D02*
X50141000Y9467000D01*
X46381000Y12060000D02*
X46381000Y5551000D01*
X46061000Y12060000D02*
X46061000Y5383000D01*
X45181000Y12060000D02*
X45181000Y4999000D01*
X46861000Y21165000D02*
X46861000Y14940000D01*
X46341000Y21471000D02*
X46341000Y14940000D01*
X50740000Y15998000D02*
X50740000Y11002000D01*
X47101000Y21008000D02*
X47101000Y14940000D01*
X44301000Y12060000D02*
X44301000Y4720000D01*
X50420000Y16916000D02*
X50420000Y10084000D01*
X45781000Y21751000D02*
X45781000Y14940000D01*
X46621000Y12060000D02*
X46621000Y5688000D01*
X46101000Y21597000D02*
X46101000Y14940000D01*
X45941000Y21676000D02*
X45941000Y14940000D01*
X44581000Y22202000D02*
X44581000Y14940000D01*
X49461000Y18678000D02*
X49461000Y8322000D01*
X47141000Y20980000D02*
X47141000Y14940000D01*
X47701000Y20564000D02*
X47701000Y6436000D01*
X45501000Y21874000D02*
X45501000Y14940000D01*
X47141000Y12060000D02*
X47141000Y6020000D01*
X45861000Y12060000D02*
X45861000Y5286000D01*
X46781000Y21215000D02*
X46781000Y14940000D01*
X43261000Y22490000D02*
X43261000Y4510000D01*
X45221000Y12060000D02*
X45221000Y5014000D01*
X47061000Y12060000D02*
X47061000Y5965000D01*
X44181000Y22311000D02*
X44181000Y4689000D01*
X45061000Y12060000D02*
X45061000Y4955000D01*
X47981000Y20329000D02*
X47981000Y6671000D01*
X45301000Y12060000D02*
X45301000Y5045000D01*
X46741000Y12060000D02*
X46741000Y5760000D01*
X48341000Y19997000D02*
X48341000Y7003000D01*
X45461000Y12060000D02*
X45461000Y5110000D01*
X46061000Y21617000D02*
X46061000Y14940000D01*
X45621000Y21823000D02*
X45621000Y14940000D01*
X44701000Y12060000D02*
X44701000Y4835000D01*
X49901000Y17982000D02*
X49901000Y9018000D01*
X50980000Y14935000D02*
X50980000Y12065000D01*
X48021000Y20294000D02*
X48021000Y6706000D01*
X46901000Y12060000D02*
X46901000Y5860000D01*
X44741000Y12060000D02*
X44741000Y4847000D01*
X42020000Y22580000D02*
X42020000Y4420000D01*
X49341000Y18846000D02*
X49341000Y8154000D01*
X50820000Y15703000D02*
X50820000Y11297000D01*
X45581000Y12060000D02*
X45581000Y5160000D01*
X47021000Y12060000D02*
X47021000Y5939000D01*
X49661000Y18379000D02*
X49661000Y8621000D01*
X47581000Y20659000D02*
X47581000Y6341000D01*
X44781000Y22140000D02*
X44781000Y14940000D01*
X46141000Y21576000D02*
X46141000Y14940000D01*
X47661000Y20596000D02*
X47661000Y6404000D01*
X48741000Y19582000D02*
X48741000Y7418000D01*
X42620000Y22558000D02*
X42620000Y4442000D01*
X44341000Y12060000D02*
X44341000Y4730000D01*
X46701000Y12060000D02*
X46701000Y5736000D01*
X48861000Y19447000D02*
X48861000Y7553000D01*
X49821000Y18120000D02*
X49821000Y8880000D01*
X45901000Y21695000D02*
X45901000Y14940000D01*
X46821000Y12060000D02*
X46821000Y5810000D01*
X46541000Y21359000D02*
X46541000Y14940000D01*
X43741000Y22409000D02*
X43741000Y4591000D01*
X47221000Y20925000D02*
X47221000Y6075000D01*
X49701000Y18316000D02*
X49701000Y8684000D01*
X46301000Y12060000D02*
X46301000Y5508000D01*
X47741000Y20531000D02*
X47741000Y6469000D01*
X46461000Y12060000D02*
X46461000Y5596000D01*
X42340000Y22573000D02*
X42340000Y4427000D01*
X43061000Y22516000D02*
X43061000Y4484000D01*
X44421000Y12060000D02*
X44421000Y4752000D01*
X45541000Y21857000D02*
X45541000Y14940000D01*
X44861000Y12060000D02*
X44861000Y4886000D01*
X47781000Y20499000D02*
X47781000Y6501000D01*
X44101000Y22331000D02*
X44101000Y4669000D01*
X45701000Y12060000D02*
X45701000Y5213000D01*
X44661000Y22178000D02*
X44661000Y14940000D01*
X48301000Y20036000D02*
X48301000Y6964000D01*
X48421000Y19918000D02*
X48421000Y7082000D01*
X48781000Y19538000D02*
X48781000Y7462000D01*
X46501000Y12060000D02*
X46501000Y5618000D01*
X48261000Y20074000D02*
X48261000Y6926000D01*
X47541000Y20690000D02*
X47541000Y6310000D01*
X47021000Y21061000D02*
X47021000Y14940000D01*
X45701000Y21787000D02*
X45701000Y14940000D01*
X43341000Y22479000D02*
X43341000Y4521000D01*
X43421000Y22466000D02*
X43421000Y4534000D01*
X42901000Y22534000D02*
X42901000Y4466000D01*
X42781000Y22545000D02*
X42781000Y4455000D01*
X43461000Y22460000D02*
X43461000Y4540000D01*
X46181000Y21556000D02*
X46181000Y14940000D01*
X44781000Y12060000D02*
X44781000Y4860000D01*
X43101000Y22511000D02*
X43101000Y4489000D01*
X50940000Y15161000D02*
X50940000Y11839000D01*
X44501000Y22225000D02*
X44501000Y14940000D01*
X47101000Y12060000D02*
X47101000Y5992000D01*
X50620000Y16380000D02*
X50620000Y10620000D01*
X49501000Y18620000D02*
X49501000Y8380000D01*
X44141000Y22321000D02*
X44141000Y4679000D01*
X48181000Y20149000D02*
X48181000Y6851000D01*
X45461000Y21890000D02*
X45461000Y14940000D01*
X46741000Y21240000D02*
X46741000Y14940000D01*
X46301000Y21492000D02*
X46301000Y14940000D01*
X46341000Y12060000D02*
X46341000Y5529000D01*
X49221000Y19006000D02*
X49221000Y7994000D01*
X48661000Y19670000D02*
X48661000Y7330000D01*
X46701000Y21264000D02*
X46701000Y14940000D01*
X42821000Y22542000D02*
X42821000Y4458000D01*
X48981000Y19306000D02*
X48981000Y7694000D01*
X50700000Y16132000D02*
X50700000Y10868000D01*
X48621000Y19712000D02*
X48621000Y7288000D01*
X46581000Y21335000D02*
X46581000Y14940000D01*
X48461000Y19878000D02*
X48461000Y7122000D01*
X48061000Y20258000D02*
X48061000Y6742000D01*
X42300000Y22575000D02*
X42300000Y4425000D01*
X45261000Y12060000D02*
X45261000Y5030000D01*
X47421000Y20780000D02*
X47421000Y6220000D01*
X48501000Y19837000D02*
X48501000Y7163000D01*
X46461000Y21404000D02*
X46461000Y14940000D01*
X46261000Y12060000D02*
X46261000Y5486000D01*
X49941000Y17912000D02*
X49941000Y9088000D01*
X45221000Y21986000D02*
X45221000Y14940000D01*
X49621000Y18441000D02*
X49621000Y8559000D01*
X49861000Y18052000D02*
X49861000Y8948000D01*
X45261000Y21970000D02*
X45261000Y14940000D01*
X50300000Y17196000D02*
X50300000Y9804000D01*
X42140000Y22579000D02*
X42140000Y4421000D01*
X49581000Y18502000D02*
X49581000Y8498000D01*
X45141000Y22016000D02*
X45141000Y14940000D01*
X50061000Y17690000D02*
X50061000Y9310000D01*
X44741000Y22153000D02*
X44741000Y14940000D01*
X42460000Y22568000D02*
X42460000Y4432000D01*
X47381000Y20810000D02*
X47381000Y6190000D01*
X42701000Y22552000D02*
X42701000Y4448000D01*
X45061000Y22045000D02*
X45061000Y14940000D01*
X49021000Y19258000D02*
X49021000Y7742000D01*
X45421000Y12060000D02*
X45421000Y5093000D01*
X48221000Y20112000D02*
X48221000Y6888000D01*
X43661000Y22424000D02*
X43661000Y4576000D01*
X44941000Y12060000D02*
X44941000Y4913000D01*
X49061000Y19209000D02*
X49061000Y7791000D01*
X43221000Y22496000D02*
X43221000Y4504000D01*
X44981000Y12060000D02*
X44981000Y4927000D01*
X49981000Y17839000D02*
X49981000Y9161000D01*
X50021000Y17765000D02*
X50021000Y9235000D01*
X45341000Y21939000D02*
X45341000Y14940000D01*
X45741000Y21769000D02*
X45741000Y14940000D01*
X43301000Y22484000D02*
X43301000Y4516000D01*
X44541000Y12060000D02*
X44541000Y4786000D01*
X43901000Y22376000D02*
X43901000Y4624000D01*
X45101000Y22030000D02*
X45101000Y14940000D01*
X47861000Y20432000D02*
X47861000Y6568000D01*
X46781000Y12060000D02*
X46781000Y5785000D01*
X47501000Y20720000D02*
X47501000Y6280000D01*
X50101000Y17613000D02*
X50101000Y9387000D01*
X48821000Y19493000D02*
X48821000Y7507000D01*
X44621000Y12060000D02*
X44621000Y4810000D01*
X43541000Y22446000D02*
X43541000Y4554000D01*
X45301000Y21955000D02*
X45301000Y14940000D01*
X45821000Y12060000D02*
X45821000Y5267000D01*
X42180000Y22578000D02*
X42180000Y4422000D01*
X45021000Y12060000D02*
X45021000Y4941000D01*
X43621000Y22432000D02*
X43621000Y4568000D01*
X47941000Y20364000D02*
X47941000Y6636000D01*
X51100000Y13540000D02*
X51100000Y13460000D01*
X45501000Y12060000D02*
X45501000Y5126000D01*
X47821000Y20465000D02*
X47821000Y6535000D01*
X47061000Y21035000D02*
X47061000Y14940000D01*
X45621000Y12060000D02*
X45621000Y5177000D01*
X50780000Y15855000D02*
X50780000Y11145000D01*
X47181000Y20953000D02*
X47181000Y6047000D01*
X43701000Y22417000D02*
X43701000Y4583000D01*
X42100000Y22580000D02*
X42100000Y4420000D01*
X46581000Y12060000D02*
X46581000Y5665000D01*
X50500000Y16714000D02*
X50500000Y10286000D01*
X50340000Y17105000D02*
X50340000Y9895000D01*
X44061000Y22340000D02*
X44061000Y4660000D01*
X42500000Y22566000D02*
X42500000Y4434000D01*
X44381000Y22259000D02*
X44381000Y14940000D01*
X42220000Y22577000D02*
X42220000Y4423000D01*
X44541000Y22214000D02*
X44541000Y14940000D01*
X49301000Y18900000D02*
X49301000Y8100000D01*
X51480000Y13500000D02*
G75*
G03*
X51480000Y13500000I-9500000J0D01*
G01*
D11*
%TO.C,J3*%
X52420000Y2976000D02*
X52420000Y436000D01*
X52420000Y436000D02*
X54960000Y436000D01*
X55976000Y2976000D02*
X55976000Y3484000D01*
X53436000Y2976000D02*
X53436000Y3484000D01*
X58897000Y-5533000D02*
X58643000Y-5533000D01*
X49880000Y2976000D02*
X49880000Y436000D01*
X58516000Y2976000D02*
X58516000Y3484000D01*
X60040000Y2976000D02*
X57500000Y2976000D01*
X60040000Y436000D02*
X57500000Y2976000D01*
X57500000Y436000D02*
X60040000Y2976000D01*
X52420000Y2976000D02*
X52420000Y436000D01*
X56484000Y2976000D02*
X56484000Y3484000D01*
X57500000Y436000D02*
X60040000Y436000D01*
X54960000Y436000D02*
X57500000Y436000D01*
X54960000Y2976000D02*
X54960000Y436000D01*
X58643000Y-5533000D02*
X58643000Y309000D01*
X55976000Y-5660000D02*
X55976000Y436000D01*
X58897000Y309000D02*
X58897000Y-5533000D01*
X52420000Y2976000D02*
X49880000Y2976000D01*
X56484000Y436000D02*
X56484000Y-5660000D01*
X53944000Y-5660000D02*
X53436000Y-5660000D01*
X57500000Y2976000D02*
X57500000Y436000D01*
X53944000Y436000D02*
X53944000Y-5660000D01*
X59024000Y2976000D02*
X59024000Y3484000D01*
X60040000Y2976000D02*
X60040000Y436000D01*
X51404000Y-5660000D02*
X50896000Y-5660000D01*
X49880000Y436000D02*
X52420000Y436000D01*
X57500000Y2976000D02*
X54960000Y2976000D01*
X54960000Y2976000D02*
X54960000Y436000D01*
X57500000Y2976000D02*
X57500000Y436000D01*
X53944000Y2976000D02*
X53944000Y3484000D01*
X53436000Y-5660000D02*
X53436000Y436000D01*
X50896000Y-5660000D02*
X50896000Y436000D01*
X58770000Y309000D02*
X58770000Y-5533000D01*
X51404000Y436000D02*
X51404000Y-5660000D01*
X59024000Y-5660000D02*
X58516000Y-5660000D01*
X56484000Y-5660000D02*
X55976000Y-5660000D01*
X51404000Y2976000D02*
X51404000Y3484000D01*
X58516000Y-5660000D02*
X58516000Y436000D01*
X50896000Y2976000D02*
X50896000Y3484000D01*
X54960000Y2976000D02*
X52420000Y2976000D01*
X59024000Y436000D02*
X59024000Y-5660000D01*
%TD*%
D13*
%TO.C,J1*%
X34290000Y4500000D03*
X31750000Y4500000D03*
X29210000Y4500000D03*
X26670000Y4500000D03*
%TD*%
%TO.C,J2*%
X9810000Y4500000D03*
X7270000Y4500000D03*
X4730000Y4500000D03*
X2190000Y4500000D03*
%TD*%
%TO.C,J3*%
X58770000Y4500000D03*
X56230000Y4500000D03*
X53690000Y4500000D03*
X51150000Y4500000D03*
%TD*%
M02*
