  0
SECTION
  2
HEADER
  9
$ANGBASE
  50
0.0
  9
$ANGDIR
  70
1
  9
$MEASUREMENT
  70
0
  0
ENDSEC
  0
SECTION
  2
TABLES
  0
TABLE
  2
LTYPE
  70
4
  0
LTYPE
  5
40F
  2
CONTINUOUS
  70
0
  3
Solid line
  72
65
  73
0
  40
0.0
  0
LTYPE
  5
410
  2
DASHDOT
 70
0
  3
Dash Dot ____ _ ____ _
 72
65
 73
4
 40
2.0
 49
1.25
 49
-0.25
 49
0.25
 49
-0.25
  0
LTYPE
  5
411
  2
DASHED
 70
0
  3
Dashed __ __ __ __ __
 72
65
 73
2
 40
0.75
 49
0.5
 49
-0.25
  0
LTYPE
  5
43B
  2
DOTTED
 70
0
  3
Dotted .  .  .  .
 72
65
 73
2
 40
0.2
 49
0.0
 49
-0.2
  0
ENDTAB
  0
TABLE
  2
STYLE
  70
4
  0
STYLE
  2
KICAD
  70
0
  40
0
  41
1
  42
1
  50
0
  71
0
  3
isocp.shx
  0
STYLE
  2
KICADB
  70
0
  40
0
  41
1
  42
1
  50
0
  71
0
  3
isocp.shx
  0
STYLE
  2
KICADI
  70
0
  40
0
  41
1
  42
1
  50
15
  71
0
  3
isocp.shx
  0
STYLE
  2
KICADBI
  70
0
  40
0
  41
1
  42
1
  50
15
  71
0
  3
isocp.shx
  0
ENDTAB
  0
TABLE
  2
LAYER
  70
1
  0
LAYER
  2
BLACK
  70
0
  62
7
  6
CONTINUOUS
  0
ENDTAB
  0
ENDSEC
  0
SECTION
  2
ENTITIES
0
LINE
8
BLACK
6
CONTINUOUS
10
0.0179509
20
1.57402
11
0.0179513
21
1.57424
0
LINE
8
BLACK
6
CONTINUOUS
10
0.0179513
20
1.57424
11
0.0180765
21
1.57479
0
LINE
8
BLACK
6
CONTINUOUS
10
0.0180765
20
1.57479
11
0.0179532
21
1.57533
0
LINE
8
BLACK
6
CONTINUOUS
10
0.0179532
20
1.57533
11
0.0179541
21
1.57582
0
LINE
8
BLACK
6
CONTINUOUS
10
0.0179541
20
1.57582
11
0.0179165
21
1.57621
0
LINE
8
BLACK
6
CONTINUOUS
10
0.0179165
20
1.57621
11
0.0185734
21
1.59795
0
LINE
8
BLACK
6
CONTINUOUS
10
0.0185734
20
1.59795
11
0.0185915
21
1.59825
0
LINE
8
BLACK
6
CONTINUOUS
10
0.0185915
20
1.59825
11
0.0206735
21
1.62116
0
LINE
8
BLACK
6
CONTINUOUS
10
0.0206735
20
1.62116
11
0.0207096
21
1.62146
0
LINE
8
BLACK
6
CONTINUOUS
10
0.0207096
20
1.62146
11
0.0241714
21
1.6442
0
LINE
8
BLACK
6
CONTINUOUS
10
0.0241714
20
1.6442
11
0.0242254
21
1.6445
0
LINE
8
BLACK
6
CONTINUOUS
10
0.0242254
20
1.6445
11
0.0290541
21
1.66699
0
LINE
8
BLACK
6
CONTINUOUS
10
0.0290541
20
1.66699
11
0.0291258
21
1.66728
0
LINE
8
BLACK
6
CONTINUOUS
10
0.0291258
20
1.66728
11
0.0310783
21
1.67429
0
LINE
8
BLACK
6
CONTINUOUS
10
0.0310783
20
1.67429
11
0.0353037
21
1.68944
0
LINE
8
BLACK
6
CONTINUOUS
10
0.0353037
20
1.68944
11
0.0353925
21
1.68973
0
LINE
8
BLACK
6
CONTINUOUS
10
0.0353925
20
1.68973
11
0.0428978
21
1.71148
0
LINE
8
BLACK
6
CONTINUOUS
10
0.0428978
20
1.71148
11
0.0430039
21
1.71176
0
LINE
8
BLACK
6
CONTINUOUS
10
0.0430039
20
1.71176
11
0.0452865
21
1.71727
0
LINE
8
BLACK
6
CONTINUOUS
10
0.0452865
20
1.71727
11
0.0518081
21
1.73301
0
LINE
8
BLACK
6
CONTINUOUS
10
0.0518081
20
1.73301
11
0.0519311
21
1.73329
0
LINE
8
BLACK
6
CONTINUOUS
10
0.0519311
20
1.73329
11
0.0620026
21
1.75397
0
LINE
8
BLACK
6
CONTINUOUS
10
0.0620026
20
1.75397
11
0.0621418
21
1.75424
0
LINE
8
BLACK
6
CONTINUOUS
10
0.0621418
20
1.75424
11
0.0734439
21
1.77428
0
LINE
8
BLACK
6
CONTINUOUS
10
0.0734439
20
1.77428
11
0.0735989
21
1.77453
0
LINE
8
BLACK
6
CONTINUOUS
10
0.0735989
20
1.77453
11
0.0788462
21
1.78265
0
LINE
8
BLACK
6
CONTINUOUS
10
0.0788462
20
1.78265
11
0.0860902
21
1.79385
0
LINE
8
BLACK
6
CONTINUOUS
10
0.0860902
20
1.79385
11
0.0862602
21
1.7941
0
LINE
8
BLACK
6
CONTINUOUS
10
0.0862602
20
1.7941
11
0.0998957
21
1.81263
0
LINE
8
BLACK
6
CONTINUOUS
10
0.0998957
20
1.81263
11
0.10008
21
1.81287
0
LINE
8
BLACK
6
CONTINUOUS
10
0.10008
20
1.81287
11
0.114809
21
1.83054
0
LINE
8
BLACK
6
CONTINUOUS
10
0.114809
20
1.83054
11
0.115008
21
1.83076
0
LINE
8
BLACK
6
CONTINUOUS
10
0.115008
20
1.83076
11
0.12485
21
1.84122
0
LINE
8
BLACK
6
CONTINUOUS
10
0.12485
20
1.84122
11
0.130778
21
1.84752
0
LINE
8
BLACK
6
CONTINUOUS
10
0.130778
20
1.84752
11
0.130989
21
1.84773
0
LINE
8
BLACK
6
CONTINUOUS
10
0.130989
20
1.84773
11
0.139787
21
1.85601
0
LINE
8
BLACK
6
CONTINUOUS
10
0.139787
20
1.85601
11
0.147741
21
1.8635
0
LINE
8
BLACK
6
CONTINUOUS
10
0.147741
20
1.8635
11
0.147966
21
1.86369
0
LINE
8
BLACK
6
CONTINUOUS
10
0.147966
20
1.86369
11
0.165639
21
1.87842
0
LINE
8
BLACK
6
CONTINUOUS
10
0.165639
20
1.87842
11
0.165875
21
1.87861
0
LINE
8
BLACK
6
CONTINUOUS
10
0.165875
20
1.87861
11
0.184406
21
1.89224
0
LINE
8
BLACK
6
CONTINUOUS
10
0.184406
20
1.89224
11
0.184652
21
1.89241
0
LINE
8
BLACK
6
CONTINUOUS
10
0.184652
20
1.89241
11
0.19636
21
1.89998
0
LINE
8
BLACK
6
CONTINUOUS
10
0.19636
20
1.89998
11
0.203972
21
1.90491
0
LINE
8
BLACK
6
CONTINUOUS
10
0.203972
20
1.90491
11
0.204229
21
1.90506
0
LINE
8
BLACK
6
CONTINUOUS
10
0.204229
20
1.90506
11
0.224268
21
1.91636
0
LINE
8
BLACK
6
CONTINUOUS
10
0.224268
20
1.91636
11
0.224533
21
1.9165
0
LINE
8
BLACK
6
CONTINUOUS
10
0.224533
20
1.9165
11
0.245218
21
1.92657
0
LINE
8
BLACK
6
CONTINUOUS
10
0.245218
20
1.92657
11
0.245491
21
1.9267
0
LINE
8
BLACK
6
CONTINUOUS
10
0.245491
20
1.9267
11
0.255186
21
1.93071
0
LINE
8
BLACK
6
CONTINUOUS
10
0.255186
20
1.93071
11
0.266747
21
1.9355
0
LINE
8
BLACK
6
CONTINUOUS
10
0.266747
20
1.9355
11
0.267026
21
1.93561
0
LINE
8
BLACK
6
CONTINUOUS
10
0.267026
20
1.93561
11
0.288775
21
1.94311
0
LINE
8
BLACK
6
CONTINUOUS
10
0.288775
20
1.94311
11
0.28906
21
1.9432
0
LINE
8
BLACK
6
CONTINUOUS
10
0.28906
20
1.9432
11
0.304218
21
1.94743
0
LINE
8
BLACK
6
CONTINUOUS
10
0.304218
20
1.94743
11
0.311222
21
1.94938
0
LINE
8
BLACK
6
CONTINUOUS
10
0.311222
20
1.94938
11
0.311513
21
1.94945
0
LINE
8
BLACK
6
CONTINUOUS
10
0.311513
20
1.94945
11
0.334007
21
1.95428
0
LINE
8
BLACK
6
CONTINUOUS
10
0.334007
20
1.95428
11
0.334302
21
1.95433
0
LINE
8
BLACK
6
CONTINUOUS
10
0.334302
20
1.95433
11
0.357047
21
1.95779
0
LINE
8
BLACK
6
CONTINUOUS
10
0.357047
20
1.95779
11
0.357344
21
1.95783
0
LINE
8
BLACK
6
CONTINUOUS
10
0.357344
20
1.95783
11
0.3688
21
1.95887
0
LINE
8
BLACK
6
CONTINUOUS
10
0.3688
20
1.95887
11
0.380256
21
1.95991
0
LINE
8
BLACK
6
CONTINUOUS
10
0.380256
20
1.95991
11
0.380554
21
1.95993
0
LINE
8
BLACK
6
CONTINUOUS
10
0.380554
20
1.95993
11
0.402271
21
1.96059
0
LINE
8
BLACK
6
CONTINUOUS
10
0.402271
20
1.96059
11
0.402609
21
1.96055
0
LINE
8
BLACK
6
CONTINUOUS
10
0.402609
20
1.96055
11
0.403142
21
1.96055
0
LINE
8
BLACK
6
CONTINUOUS
10
0.403142
20
1.96055
11
0.403687
21
1.96043
0
LINE
8
BLACK
6
CONTINUOUS
10
0.403687
20
1.96043
11
0.404232
21
1.96055
0
LINE
8
BLACK
6
CONTINUOUS
10
0.404232
20
1.96055
11
0.404424
21
1.96055
0
LINE
8
BLACK
6
CONTINUOUS
10
0.404424
20
1.96055
11
0.405136
21
1.96063
0
LINE
8
BLACK
6
CONTINUOUS
10
0.405136
20
1.96063
11
1.99484
21
1.96063
0
LINE
8
BLACK
6
CONTINUOUS
10
1.99484
20
1.96063
11
1.99552
21
1.96055
0
LINE
8
BLACK
6
CONTINUOUS
10
1.99552
20
1.96055
11
1.99574
21
1.96055
0
LINE
8
BLACK
6
CONTINUOUS
10
1.99574
20
1.96055
11
1.99629
21
1.96043
0
LINE
8
BLACK
6
CONTINUOUS
10
1.99629
20
1.96043
11
1.99683
21
1.96055
0
LINE
8
BLACK
6
CONTINUOUS
10
1.99683
20
1.96055
11
1.99732
21
1.96055
0
LINE
8
BLACK
6
CONTINUOUS
10
1.99732
20
1.96055
11
1.99771
21
1.96059
0
LINE
8
BLACK
6
CONTINUOUS
10
1.99771
20
1.96059
11
2.01237
21
1.96014
0
LINE
8
BLACK
6
CONTINUOUS
10
2.01237
20
1.96014
11
2.01945
21
1.95993
0
LINE
8
BLACK
6
CONTINUOUS
10
2.01945
20
1.95993
11
2.01974
21
1.95991
0
LINE
8
BLACK
6
CONTINUOUS
10
2.01974
20
1.95991
11
2.0312
21
1.95887
0
LINE
8
BLACK
6
CONTINUOUS
10
2.0312
20
1.95887
11
2.04266
21
1.95783
0
LINE
8
BLACK
6
CONTINUOUS
10
2.04266
20
1.95783
11
2.04295
21
1.95779
0
LINE
8
BLACK
6
CONTINUOUS
10
2.04295
20
1.95779
11
2.0657
21
1.95433
0
LINE
8
BLACK
6
CONTINUOUS
10
2.0657
20
1.95433
11
2.06599
21
1.95428
0
LINE
8
BLACK
6
CONTINUOUS
10
2.06599
20
1.95428
11
2.08849
21
1.94945
0
LINE
8
BLACK
6
CONTINUOUS
10
2.08849
20
1.94945
11
2.08878
21
1.94938
0
LINE
8
BLACK
6
CONTINUOUS
10
2.08878
20
1.94938
11
2.09578
21
1.94743
0
LINE
8
BLACK
6
CONTINUOUS
10
2.09578
20
1.94743
11
2.11094
21
1.9432
0
LINE
8
BLACK
6
CONTINUOUS
10
2.11094
20
1.9432
11
2.11122
21
1.94311
0
LINE
8
BLACK
6
CONTINUOUS
10
2.11122
20
1.94311
11
2.13297
21
1.93561
0
LINE
8
BLACK
6
CONTINUOUS
10
2.13297
20
1.93561
11
2.13325
21
1.9355
0
LINE
8
BLACK
6
CONTINUOUS
10
2.13325
20
1.9355
11
2.14481
21
1.93071
0
LINE
8
BLACK
6
CONTINUOUS
10
2.14481
20
1.93071
11
2.15451
21
1.9267
0
LINE
8
BLACK
6
CONTINUOUS
10
2.15451
20
1.9267
11
2.15478
21
1.92657
0
LINE
8
BLACK
6
CONTINUOUS
10
2.15478
20
1.92657
11
2.17547
21
1.9165
0
LINE
8
BLACK
6
CONTINUOUS
10
2.17547
20
1.9165
11
2.17573
21
1.91636
0
LINE
8
BLACK
6
CONTINUOUS
10
2.17573
20
1.91636
11
2.19577
21
1.90506
0
LINE
8
BLACK
6
CONTINUOUS
10
2.19577
20
1.90506
11
2.19603
21
1.90491
0
LINE
8
BLACK
6
CONTINUOUS
10
2.19603
20
1.90491
11
2.20364
21
1.89998
0
LINE
8
BLACK
6
CONTINUOUS
10
2.20364
20
1.89998
11
2.21535
21
1.89241
0
LINE
8
BLACK
6
CONTINUOUS
10
2.21535
20
1.89241
11
2.21559
21
1.89224
0
LINE
8
BLACK
6
CONTINUOUS
10
2.21559
20
1.89224
11
2.23413
21
1.87861
0
LINE
8
BLACK
6
CONTINUOUS
10
2.23413
20
1.87861
11
2.23436
21
1.87842
0
LINE
8
BLACK
6
CONTINUOUS
10
2.23436
20
1.87842
11
2.25203
21
1.86369
0
LINE
8
BLACK
6
CONTINUOUS
10
2.25203
20
1.86369
11
2.25226
21
1.8635
0
LINE
8
BLACK
6
CONTINUOUS
10
2.25226
20
1.8635
11
2.26021
21
1.85601
0
LINE
8
BLACK
6
CONTINUOUS
10
2.26021
20
1.85601
11
2.26901
21
1.84773
0
LINE
8
BLACK
6
CONTINUOUS
10
2.26901
20
1.84773
11
2.26922
21
1.84752
0
LINE
8
BLACK
6
CONTINUOUS
10
2.26922
20
1.84752
11
2.27515
21
1.84122
0
LINE
8
BLACK
6
CONTINUOUS
10
2.27515
20
1.84122
11
2.28499
21
1.83076
0
LINE
8
BLACK
6
CONTINUOUS
10
2.28499
20
1.83076
11
2.28519
21
1.83054
0
LINE
8
BLACK
6
CONTINUOUS
10
2.28519
20
1.83054
11
2.29992
21
1.81287
0
LINE
8
BLACK
6
CONTINUOUS
10
2.29992
20
1.81287
11
2.3001
21
1.81263
0
LINE
8
BLACK
6
CONTINUOUS
10
2.3001
20
1.81263
11
2.31374
21
1.7941
0
LINE
8
BLACK
6
CONTINUOUS
10
2.31374
20
1.7941
11
2.31391
21
1.79385
0
LINE
8
BLACK
6
CONTINUOUS
10
2.31391
20
1.79385
11
2.32115
21
1.78265
0
LINE
8
BLACK
6
CONTINUOUS
10
2.32115
20
1.78265
11
2.3264
21
1.77453
0
LINE
8
BLACK
6
CONTINUOUS
10
2.3264
20
1.77453
11
2.32656
21
1.77428
0
LINE
8
BLACK
6
CONTINUOUS
10
2.32656
20
1.77428
11
2.33786
21
1.75424
0
LINE
8
BLACK
6
CONTINUOUS
10
2.33786
20
1.75424
11
2.338
21
1.75397
0
LINE
8
BLACK
6
CONTINUOUS
10
2.338
20
1.75397
11
2.34807
21
1.73329
0
LINE
8
BLACK
6
CONTINUOUS
10
2.34807
20
1.73329
11
2.34819
21
1.73301
0
LINE
8
BLACK
6
CONTINUOUS
10
2.34819
20
1.73301
11
2.35471
21
1.71727
0
LINE
8
BLACK
6
CONTINUOUS
10
2.35471
20
1.71727
11
2.357
21
1.71176
0
LINE
8
BLACK
6
CONTINUOUS
10
2.357
20
1.71176
11
2.3571
21
1.71148
0
LINE
8
BLACK
6
CONTINUOUS
10
2.3571
20
1.71148
11
2.36461
21
1.68973
0
LINE
8
BLACK
6
CONTINUOUS
10
2.36461
20
1.68973
11
2.3647
21
1.68944
0
LINE
8
BLACK
6
CONTINUOUS
10
2.3647
20
1.68944
11
2.36892
21
1.67429
0
LINE
8
BLACK
6
CONTINUOUS
10
2.36892
20
1.67429
11
2.37087
21
1.66728
0
LINE
8
BLACK
6
CONTINUOUS
10
2.37087
20
1.66728
11
2.37095
21
1.66699
0
LINE
8
BLACK
6
CONTINUOUS
10
2.37095
20
1.66699
11
2.37577
21
1.6445
0
LINE
8
BLACK
6
CONTINUOUS
10
2.37577
20
1.6445
11
2.37583
21
1.6442
0
LINE
8
BLACK
6
CONTINUOUS
10
2.37583
20
1.6442
11
2.37929
21
1.62146
0
LINE
8
BLACK
6
CONTINUOUS
10
2.37929
20
1.62146
11
2.37933
21
1.62116
0
LINE
8
BLACK
6
CONTINUOUS
10
2.37933
20
1.62116
11
2.38141
21
1.59825
0
LINE
8
BLACK
6
CONTINUOUS
10
2.38141
20
1.59825
11
2.38143
21
1.59795
0
LINE
8
BLACK
6
CONTINUOUS
10
2.38143
20
1.59795
11
2.38208
21
1.57623
0
LINE
8
BLACK
6
CONTINUOUS
10
2.38208
20
1.57623
11
2.38205
21
1.5759
0
LINE
8
BLACK
6
CONTINUOUS
10
2.38205
20
1.5759
11
2.38205
21
1.57536
0
LINE
8
BLACK
6
CONTINUOUS
10
2.38205
20
1.57536
11
2.38192
21
1.57482
0
LINE
8
BLACK
6
CONTINUOUS
10
2.38192
20
1.57482
11
2.38205
21
1.57427
0
LINE
8
BLACK
6
CONTINUOUS
10
2.38205
20
1.57427
11
2.38205
21
1.57408
0
LINE
8
BLACK
6
CONTINUOUS
10
2.38205
20
1.57408
11
2.38213
21
1.57337
0
LINE
8
BLACK
6
CONTINUOUS
10
2.38213
20
1.57337
11
2.38213
21
0.17
0
LINE
8
BLACK
6
CONTINUOUS
10
2.38213
20
0.17
11
2.38961
21
0.17
0
LINE
8
BLACK
6
CONTINUOUS
10
2.38961
20
0.17
11
2.38961
21
0.0153543
0
LINE
8
BLACK
6
CONTINUOUS
10
2.38961
20
0.0153543
11
2.38882
21
0.0126724
0
LINE
8
BLACK
6
CONTINUOUS
10
2.38882
20
0.0126724
11
2.38671
21
0.010842
0
LINE
8
BLACK
6
CONTINUOUS
10
2.38671
20
0.010842
11
2.38465
21
0.0103937
0
LINE
8
BLACK
6
CONTINUOUS
10
2.38465
20
0.0103937
11
0.0153543
21
0.0103937
0
LINE
8
BLACK
6
CONTINUOUS
10
0.0153543
20
0.0103937
11
0.0126724
21
0.0111812
0
LINE
8
BLACK
6
CONTINUOUS
10
0.0126724
20
0.0111812
11
0.010842
21
0.0132936
0
LINE
8
BLACK
6
CONTINUOUS
10
0.010842
20
0.0132936
11
0.0103937
21
0.0153543
0
LINE
8
BLACK
6
CONTINUOUS
10
0.0103937
20
0.0153543
11
0.0103937
21
0.17
0
LINE
8
BLACK
6
CONTINUOUS
10
0.0103937
20
0.17
11
0.017874
21
0.17
0
LINE
8
BLACK
6
CONTINUOUS
10
0.017874
20
0.17
11
0.017874
21
1.57335
0
LINE
8
BLACK
6
CONTINUOUS
10
0.017874
20
1.57335
11
0.0179509
21
1.57402
0
LINE
8
BLACK
6
CONTINUOUS
10
1.7451
20
1.43816
11
1.74531
21
1.43444
0
LINE
8
BLACK
6
CONTINUOUS
10
1.74531
20
1.43444
11
1.74561
21
1.42931
0
LINE
8
BLACK
6
CONTINUOUS
10
1.74561
20
1.42931
11
1.74565
21
1.42911
0
LINE
8
BLACK
6
CONTINUOUS
10
1.74565
20
1.42911
11
1.74565
21
1.42911
0
LINE
8
BLACK
6
CONTINUOUS
10
1.74565
20
1.42911
11
1.7465
21
1.42532
0
LINE
8
BLACK
6
CONTINUOUS
10
1.7465
20
1.42532
11
1.7476
21
1.42046
0
LINE
8
BLACK
6
CONTINUOUS
10
1.7476
20
1.42046
11
1.74768
21
1.42027
0
LINE
8
BLACK
6
CONTINUOUS
10
1.74768
20
1.42027
11
1.74768
21
1.42027
0
LINE
8
BLACK
6
CONTINUOUS
10
1.74768
20
1.42027
11
1.74915
21
1.41664
0
LINE
8
BLACK
6
CONTINUOUS
10
1.74915
20
1.41664
11
1.75101
21
1.41206
0
LINE
8
BLACK
6
CONTINUOUS
10
1.75101
20
1.41206
11
1.75575
21
1.40433
0
LINE
8
BLACK
6
CONTINUOUS
10
1.75575
20
1.40433
11
1.76168
21
1.39748
0
LINE
8
BLACK
6
CONTINUOUS
10
1.76168
20
1.39748
11
1.76866
21
1.39169
0
LINE
8
BLACK
6
CONTINUOUS
10
1.76866
20
1.39169
11
1.77649
21
1.38711
0
LINE
8
BLACK
6
CONTINUOUS
10
1.77649
20
1.38711
11
1.78496
21
1.38388
0
LINE
8
BLACK
6
CONTINUOUS
10
1.78496
20
1.38388
11
1.78516
21
1.38384
0
LINE
8
BLACK
6
CONTINUOUS
10
1.78516
20
1.38384
11
1.78516
21
1.38384
0
LINE
8
BLACK
6
CONTINUOUS
10
1.78516
20
1.38384
11
1.78533
21
1.3838
0
LINE
8
BLACK
6
CONTINUOUS
10
1.78533
20
1.3838
11
1.79384
21
1.38207
0
LINE
8
BLACK
6
CONTINUOUS
10
1.79384
20
1.38207
11
1.79895
21
1.38188
0
LINE
8
BLACK
6
CONTINUOUS
10
1.79895
20
1.38188
11
1.8027
21
1.38175
0
LINE
8
BLACK
6
CONTINUOUS
10
1.8027
20
1.38175
11
1.8027
21
1.38175
0
LINE
8
BLACK
6
CONTINUOUS
10
1.8027
20
1.38175
11
1.8029
21
1.38174
0
LINE
8
BLACK
6
CONTINUOUS
10
1.8029
20
1.38174
11
1.80311
21
1.38176
0
LINE
8
BLACK
6
CONTINUOUS
10
1.80311
20
1.38176
11
1.80311
21
1.38176
0
LINE
8
BLACK
6
CONTINUOUS
10
1.80311
20
1.38176
11
1.80584
21
1.38211
0
LINE
8
BLACK
6
CONTINUOUS
10
1.80584
20
1.38211
11
1.8119
21
1.38289
0
LINE
8
BLACK
6
CONTINUOUS
10
1.8119
20
1.38289
11
1.81209
21
1.38295
0
LINE
8
BLACK
6
CONTINUOUS
10
1.81209
20
1.38295
11
1.81209
21
1.38295
0
LINE
8
BLACK
6
CONTINUOUS
10
1.81209
20
1.38295
11
1.82039
21
1.38544
0
LINE
8
BLACK
6
CONTINUOUS
10
1.82039
20
1.38544
11
1.82039
21
1.38544
0
LINE
8
BLACK
6
CONTINUOUS
10
1.82039
20
1.38544
11
1.82058
21
1.3855
0
LINE
8
BLACK
6
CONTINUOUS
10
1.82058
20
1.3855
11
1.82872
21
1.38948
0
LINE
8
BLACK
6
CONTINUOUS
10
1.82872
20
1.38948
11
1.8361
21
1.39475
0
LINE
8
BLACK
6
CONTINUOUS
10
1.8361
20
1.39475
11
1.84253
21
1.40115
0
LINE
8
BLACK
6
CONTINUOUS
10
1.84253
20
1.40115
11
1.84481
21
1.40433
0
LINE
8
BLACK
6
CONTINUOUS
10
1.84481
20
1.40433
11
1.8477
21
1.40835
0
LINE
8
BLACK
6
CONTINUOUS
10
1.8477
20
1.40835
11
1.84782
21
1.40851
0
LINE
8
BLACK
6
CONTINUOUS
10
1.84782
20
1.40851
11
1.85184
21
1.41664
0
LINE
8
BLACK
6
CONTINUOUS
10
1.85184
20
1.41664
11
1.85306
21
1.42066
0
LINE
8
BLACK
6
CONTINUOUS
10
1.85306
20
1.42066
11
1.85441
21
1.42512
0
LINE
8
BLACK
6
CONTINUOUS
10
1.85441
20
1.42512
11
1.85441
21
1.42512
0
LINE
8
BLACK
6
CONTINUOUS
10
1.85441
20
1.42512
11
1.85447
21
1.42532
0
LINE
8
BLACK
6
CONTINUOUS
10
1.85447
20
1.42532
11
1.85565
21
1.43431
0
LINE
8
BLACK
6
CONTINUOUS
10
1.85565
20
1.43431
11
1.85572
21
1.43701
0
LINE
8
BLACK
6
CONTINUOUS
10
1.85572
20
1.43701
11
1.85498
21
1.44604
0
LINE
8
BLACK
6
CONTINUOUS
10
1.85498
20
1.44604
11
1.85277
21
1.45484
0
LINE
8
BLACK
6
CONTINUOUS
10
1.85277
20
1.45484
11
1.84915
21
1.46315
0
LINE
8
BLACK
6
CONTINUOUS
10
1.84915
20
1.46315
11
1.84423
21
1.47077
0
LINE
8
BLACK
6
CONTINUOUS
10
1.84423
20
1.47077
11
1.84342
21
1.47166
0
LINE
8
BLACK
6
CONTINUOUS
10
1.84342
20
1.47166
11
1.83826
21
1.47732
0
LINE
8
BLACK
6
CONTINUOUS
10
1.83826
20
1.47732
11
1.83826
21
1.47732
0
LINE
8
BLACK
6
CONTINUOUS
10
1.83826
20
1.47732
11
1.83813
21
1.47747
0
LINE
8
BLACK
6
CONTINUOUS
10
1.83813
20
1.47747
11
1.83797
21
1.4776
0
LINE
8
BLACK
6
CONTINUOUS
10
1.83797
20
1.4776
11
1.83797
21
1.4776
0
LINE
8
BLACK
6
CONTINUOUS
10
1.83797
20
1.4776
11
1.83117
21
1.48296
0
LINE
8
BLACK
6
CONTINUOUS
10
1.83117
20
1.48296
11
1.83117
21
1.48296
0
LINE
8
BLACK
6
CONTINUOUS
10
1.83117
20
1.48296
11
1.83101
21
1.48309
0
LINE
8
BLACK
6
CONTINUOUS
10
1.83101
20
1.48309
11
1.83083
21
1.48319
0
LINE
8
BLACK
6
CONTINUOUS
10
1.83083
20
1.48319
11
1.83083
21
1.48319
0
LINE
8
BLACK
6
CONTINUOUS
10
1.83083
20
1.48319
11
1.82325
21
1.48737
0
LINE
8
BLACK
6
CONTINUOUS
10
1.82325
20
1.48737
11
1.82325
21
1.48737
0
LINE
8
BLACK
6
CONTINUOUS
10
1.82325
20
1.48737
11
1.82307
21
1.48747
0
LINE
8
BLACK
6
CONTINUOUS
10
1.82307
20
1.48747
11
1.82288
21
1.48754
0
LINE
8
BLACK
6
CONTINUOUS
10
1.82288
20
1.48754
11
1.82288
21
1.48754
0
LINE
8
BLACK
6
CONTINUOUS
10
1.82288
20
1.48754
11
1.81472
21
1.49043
0
LINE
8
BLACK
6
CONTINUOUS
10
1.81472
20
1.49043
11
1.81472
21
1.49043
0
LINE
8
BLACK
6
CONTINUOUS
10
1.81472
20
1.49043
11
1.81453
21
1.4905
0
LINE
8
BLACK
6
CONTINUOUS
10
1.81453
20
1.4905
11
1.81433
21
1.49053
0
LINE
8
BLACK
6
CONTINUOUS
10
1.81433
20
1.49053
11
1.81433
21
1.49053
0
LINE
8
BLACK
6
CONTINUOUS
10
1.81433
20
1.49053
11
1.80938
21
1.49142
0
LINE
8
BLACK
6
CONTINUOUS
10
1.80938
20
1.49142
11
1.8056
21
1.49209
0
LINE
8
BLACK
6
CONTINUOUS
10
1.8056
20
1.49209
11
1.8022
21
1.49213
0
LINE
8
BLACK
6
CONTINUOUS
10
1.8022
20
1.49213
11
1.79674
21
1.4922
0
LINE
8
BLACK
6
CONTINUOUS
10
1.79674
20
1.4922
11
1.79674
21
1.4922
0
LINE
8
BLACK
6
CONTINUOUS
10
1.79674
20
1.4922
11
1.79653
21
1.4922
0
LINE
8
BLACK
6
CONTINUOUS
10
1.79653
20
1.4922
11
1.78757
21
1.49083
0
LINE
8
BLACK
6
CONTINUOUS
10
1.78757
20
1.49083
11
1.77895
21
1.48801
0
LINE
8
BLACK
6
CONTINUOUS
10
1.77895
20
1.48801
11
1.77877
21
1.48792
0
LINE
8
BLACK
6
CONTINUOUS
10
1.77877
20
1.48792
11
1.77877
21
1.48792
0
LINE
8
BLACK
6
CONTINUOUS
10
1.77877
20
1.48792
11
1.77323
21
1.48503
0
LINE
8
BLACK
6
CONTINUOUS
10
1.77323
20
1.48503
11
1.77091
21
1.48382
0
LINE
8
BLACK
6
CONTINUOUS
10
1.77091
20
1.48382
11
1.76366
21
1.47838
0
LINE
8
BLACK
6
CONTINUOUS
10
1.76366
20
1.47838
11
1.7574
21
1.47183
0
LINE
8
BLACK
6
CONTINUOUS
10
1.7574
20
1.47183
11
1.75229
21
1.46434
0
LINE
8
BLACK
6
CONTINUOUS
10
1.75229
20
1.46434
11
1.7522
21
1.46415
0
LINE
8
BLACK
6
CONTINUOUS
10
1.7522
20
1.46415
11
1.7522
21
1.46415
0
LINE
8
BLACK
6
CONTINUOUS
10
1.7522
20
1.46415
11
1.75174
21
1.46315
0
LINE
8
BLACK
6
CONTINUOUS
10
1.75174
20
1.46315
11
1.74847
21
1.45611
0
LINE
8
BLACK
6
CONTINUOUS
10
1.74847
20
1.45611
11
1.74605
21
1.44738
0
LINE
8
BLACK
6
CONTINUOUS
10
1.74605
20
1.44738
11
1.74508
21
1.43836
0
LINE
8
BLACK
6
CONTINUOUS
10
1.74508
20
1.43836
11
1.7451
21
1.43816
0
LINE
8
BLACK
6
CONTINUOUS
10
1.7451
20
1.43816
11
1.7451
21
1.43816
0
LINE
8
BLACK
6
CONTINUOUS
10
0.223656
20
0.210245
11
0.221911
21
0.212856
0
LINE
8
BLACK
6
CONTINUOUS
10
0.221911
20
0.212856
11
0.2193
21
0.214601
0
LINE
8
BLACK
6
CONTINUOUS
10
0.2193
20
0.214601
11
0.218821
21
0.214696
0
LINE
8
BLACK
6
CONTINUOUS
10
0.218821
20
0.214696
11
0.218821
21
0.214696
0
LINE
8
BLACK
6
CONTINUOUS
10
0.218821
20
0.214696
11
0.217237
21
0.215012
0
LINE
8
BLACK
6
CONTINUOUS
10
0.217237
20
0.215012
11
0.216998
21
0.215059
0
LINE
8
BLACK
6
CONTINUOUS
10
0.216998
20
0.215059
11
0.208917
21
0.215059
0
LINE
8
BLACK
6
CONTINUOUS
10
0.208917
20
0.215059
11
0.206235
21
0.215847
0
LINE
8
BLACK
6
CONTINUOUS
10
0.206235
20
0.215847
11
0.204405
21
0.217959
0
LINE
8
BLACK
6
CONTINUOUS
10
0.204405
20
0.217959
11
0.203957
21
0.22002
0
LINE
8
BLACK
6
CONTINUOUS
10
0.203957
20
0.22002
11
0.203957
21
0.551819
0
LINE
8
BLACK
6
CONTINUOUS
10
0.203957
20
0.551819
11
0.204744
21
0.554501
0
LINE
8
BLACK
6
CONTINUOUS
10
0.204744
20
0.554501
11
0.20541
21
0.555327
0
LINE
8
BLACK
6
CONTINUOUS
10
0.20541
20
0.555327
11
0.650894
21
1.00081
0
LINE
8
BLACK
6
CONTINUOUS
10
0.650894
20
1.00081
11
0.653347
21
1.00215
0
LINE
8
BLACK
6
CONTINUOUS
10
0.653347
20
1.00215
11
0.654401
21
1.00226
0
LINE
8
BLACK
6
CONTINUOUS
10
0.654401
20
1.00226
11
1.05981
21
1.00226
0
LINE
8
BLACK
6
CONTINUOUS
10
1.05981
20
1.00226
11
1.06249
21
1.00148
0
LINE
8
BLACK
6
CONTINUOUS
10
1.06249
20
1.00148
11
1.06315
21
1.00097
0
LINE
8
BLACK
6
CONTINUOUS
10
1.06315
20
1.00097
11
1.06517
21
0.999133
0
LINE
8
BLACK
6
CONTINUOUS
10
1.06517
20
0.999133
11
1.06543
21
0.99899
0
LINE
8
BLACK
6
CONTINUOUS
10
1.06543
20
0.99899
11
1.06543
21
0.99899
0
LINE
8
BLACK
6
CONTINUOUS
10
1.06543
20
0.99899
11
1.07031
21
0.99634
0
LINE
8
BLACK
6
CONTINUOUS
10
1.07031
20
0.99634
11
1.07031
21
0.99634
0
LINE
8
BLACK
6
CONTINUOUS
10
1.07031
20
0.99634
11
1.07058
21
0.996198
0
LINE
8
BLACK
6
CONTINUOUS
10
1.07058
20
0.996198
11
1.07087
21
0.996122
0
LINE
8
BLACK
6
CONTINUOUS
10
1.07087
20
0.996122
11
1.07624
21
0.994713
0
LINE
8
BLACK
6
CONTINUOUS
10
1.07624
20
0.994713
11
1.07624
21
0.994713
0
LINE
8
BLACK
6
CONTINUOUS
10
1.07624
20
0.994713
11
1.07653
21
0.994637
0
LINE
8
BLACK
6
CONTINUOUS
10
1.07653
20
0.994637
11
1.07978
21
0.994586
0
LINE
8
BLACK
6
CONTINUOUS
10
1.07978
20
0.994586
11
1.08238
21
0.994545
0
LINE
8
BLACK
6
CONTINUOUS
10
1.08238
20
0.994545
11
1.08238
21
0.994545
0
LINE
8
BLACK
6
CONTINUOUS
10
1.08238
20
0.994545
11
1.08268
21
0.99454
0
LINE
8
BLACK
6
CONTINUOUS
10
1.08268
20
0.99454
11
1.08479
21
0.995023
0
LINE
8
BLACK
6
CONTINUOUS
10
1.08479
20
0.995023
11
1.08838
21
0.995847
0
LINE
8
BLACK
6
CONTINUOUS
10
1.08838
20
0.995847
11
1.08838
21
0.995847
0
LINE
8
BLACK
6
CONTINUOUS
10
1.08838
20
0.995847
11
1.08867
21
0.995913
0
LINE
8
BLACK
6
CONTINUOUS
10
1.08867
20
0.995913
11
1.09417
21
0.998677
0
LINE
8
BLACK
6
CONTINUOUS
10
1.09417
20
0.998677
11
1.09524
21
0.999593
0
LINE
8
BLACK
6
CONTINUOUS
10
1.09524
20
0.999593
11
1.09862
21
1.00248
0
LINE
8
BLACK
6
CONTINUOUS
10
1.09862
20
1.00248
11
1.09862
21
1.00248
0
LINE
8
BLACK
6
CONTINUOUS
10
1.09862
20
1.00248
11
1.09884
21
1.00267
0
LINE
8
BLACK
6
CONTINUOUS
10
1.09884
20
1.00267
11
1.10243
21
1.00767
0
LINE
8
BLACK
6
CONTINUOUS
10
1.10243
20
1.00767
11
1.10473
21
1.01337
0
LINE
8
BLACK
6
CONTINUOUS
10
1.10473
20
1.01337
11
1.10559
21
1.01946
0
LINE
8
BLACK
6
CONTINUOUS
10
1.10559
20
1.01946
11
1.1056
21
1.02
0
LINE
8
BLACK
6
CONTINUOUS
10
1.1056
20
1.02
11
1.10486
21
1.02611
0
LINE
8
BLACK
6
CONTINUOUS
10
1.10486
20
1.02611
11
1.10312
21
1.03072
0
LINE
8
BLACK
6
CONTINUOUS
10
1.10312
20
1.03072
11
1.10279
21
1.03158
0
LINE
8
BLACK
6
CONTINUOUS
10
1.10279
20
1.03158
11
1.10279
21
1.03158
0
LINE
8
BLACK
6
CONTINUOUS
10
1.10279
20
1.03158
11
1.10269
21
1.03186
0
LINE
8
BLACK
6
CONTINUOUS
10
1.10269
20
1.03186
11
1.10252
21
1.03211
0
LINE
8
BLACK
6
CONTINUOUS
10
1.10252
20
1.03211
11
1.10252
21
1.03211
0
LINE
8
BLACK
6
CONTINUOUS
10
1.10252
20
1.03211
11
1.09937
21
1.03668
0
LINE
8
BLACK
6
CONTINUOUS
10
1.09937
20
1.03668
11
1.09937
21
1.03668
0
LINE
8
BLACK
6
CONTINUOUS
10
1.09937
20
1.03668
11
1.0992
21
1.03693
0
LINE
8
BLACK
6
CONTINUOUS
10
1.0992
20
1.03693
11
1.09896
21
1.03714
0
LINE
8
BLACK
6
CONTINUOUS
10
1.09896
20
1.03714
11
1.09483
21
1.04082
0
LINE
8
BLACK
6
CONTINUOUS
10
1.09483
20
1.04082
11
1.09483
21
1.04082
0
LINE
8
BLACK
6
CONTINUOUS
10
1.09483
20
1.04082
11
1.09461
21
1.04102
0
LINE
8
BLACK
6
CONTINUOUS
10
1.09461
20
1.04102
11
1.09435
21
1.04116
0
LINE
8
BLACK
6
CONTINUOUS
10
1.09435
20
1.04116
11
1.08944
21
1.04376
0
LINE
8
BLACK
6
CONTINUOUS
10
1.08944
20
1.04376
11
1.08944
21
1.04376
0
LINE
8
BLACK
6
CONTINUOUS
10
1.08944
20
1.04376
11
1.08917
21
1.0439
0
LINE
8
BLACK
6
CONTINUOUS
10
1.08917
20
1.0439
11
1.08321
21
1.0454
0
LINE
8
BLACK
6
CONTINUOUS
10
1.08321
20
1.0454
11
1.08291
21
1.0454
0
LINE
8
BLACK
6
CONTINUOUS
10
1.08291
20
1.0454
11
1.08291
21
1.0454
0
LINE
8
BLACK
6
CONTINUOUS
10
1.08291
20
1.0454
11
1.08033
21
1.04541
0
LINE
8
BLACK
6
CONTINUOUS
10
1.08033
20
1.04541
11
1.07706
21
1.04543
0
LINE
8
BLACK
6
CONTINUOUS
10
1.07706
20
1.04543
11
1.07677
21
1.04536
0
LINE
8
BLACK
6
CONTINUOUS
10
1.07677
20
1.04536
11
1.07677
21
1.04536
0
LINE
8
BLACK
6
CONTINUOUS
10
1.07677
20
1.04536
11
1.07386
21
1.04466
0
LINE
8
BLACK
6
CONTINUOUS
10
1.07386
20
1.04466
11
1.07108
21
1.04399
0
LINE
8
BLACK
6
CONTINUOUS
10
1.07108
20
1.04399
11
1.06561
21
1.04117
0
LINE
8
BLACK
6
CONTINUOUS
10
1.06561
20
1.04117
11
1.06314
21
1.03902
0
LINE
8
BLACK
6
CONTINUOUS
10
1.06314
20
1.03902
11
1.06307
21
1.03896
0
LINE
8
BLACK
6
CONTINUOUS
10
1.06307
20
1.03896
11
1.06053
21
1.03779
0
LINE
8
BLACK
6
CONTINUOUS
10
1.06053
20
1.03779
11
1.05981
21
1.03774
0
LINE
8
BLACK
6
CONTINUOUS
10
1.05981
20
1.03774
11
0.646347
21
1.03774
0
LINE
8
BLACK
6
CONTINUOUS
10
0.646347
20
1.03774
11
0.645764
21
1.03777
0
LINE
8
BLACK
6
CONTINUOUS
10
0.645764
20
1.03777
11
0.645608
21
1.03779
0
LINE
8
BLACK
6
CONTINUOUS
10
0.645608
20
1.03779
11
0.644437
21
1.03793
0
LINE
8
BLACK
6
CONTINUOUS
10
0.644437
20
1.03793
11
0.644072
21
1.03786
0
LINE
8
BLACK
6
CONTINUOUS
10
0.644072
20
1.03786
11
0.644072
21
1.03786
0
LINE
8
BLACK
6
CONTINUOUS
10
0.644072
20
1.03786
11
0.642165
21
1.03751
0
LINE
8
BLACK
6
CONTINUOUS
10
0.642165
20
1.03751
11
0.642011
21
1.03749
0
LINE
8
BLACK
6
CONTINUOUS
10
0.642011
20
1.03749
11
0.641116
21
1.03735
0
LINE
8
BLACK
6
CONTINUOUS
10
0.641116
20
1.03735
11
0.640093
21
1.0372
0
LINE
8
BLACK
6
CONTINUOUS
10
0.640093
20
1.0372
11
0.640093
21
1.0372
0
LINE
8
BLACK
6
CONTINUOUS
10
0.640093
20
1.0372
11
0.639726
21
1.03714
0
LINE
8
BLACK
6
CONTINUOUS
10
0.639726
20
1.03714
11
0.639469
21
1.03702
0
LINE
8
BLACK
6
CONTINUOUS
10
0.639469
20
1.03702
11
0.63919
21
1.03697
0
LINE
8
BLACK
6
CONTINUOUS
10
0.63919
20
1.03697
11
0.63714
21
1.0359
0
LINE
8
BLACK
6
CONTINUOUS
10
0.63714
20
1.0359
11
0.637002
21
1.03584
0
LINE
8
BLACK
6
CONTINUOUS
10
0.637002
20
1.03584
11
0.635252
21
1.035
0
LINE
8
BLACK
6
CONTINUOUS
10
0.635252
20
1.035
11
0.634918
21
1.03483
0
LINE
8
BLACK
6
CONTINUOUS
10
0.634918
20
1.03483
11
0.63471
21
1.03464
0
LINE
8
BLACK
6
CONTINUOUS
10
0.63471
20
1.03464
11
0.634708
21
1.03464
0
LINE
8
BLACK
6
CONTINUOUS
10
0.634708
20
1.03464
11
0.634457
21
1.03451
0
LINE
8
BLACK
6
CONTINUOUS
10
0.634457
20
1.03451
11
0.634259
21
1.03434
0
LINE
8
BLACK
6
CONTINUOUS
10
0.634259
20
1.03434
11
0.632793
21
1.03288
0
LINE
8
BLACK
6
CONTINUOUS
10
0.632793
20
1.03288
11
0.632653
21
1.03274
0
LINE
8
BLACK
6
CONTINUOUS
10
0.632653
20
1.03274
11
0.631002
21
1.03121
0
LINE
8
BLACK
6
CONTINUOUS
10
0.631002
20
1.03121
11
0.630856
21
1.03096
0
LINE
8
BLACK
6
CONTINUOUS
10
0.630856
20
1.03096
11
0.630639
21
1.03072
0
LINE
8
BLACK
6
CONTINUOUS
10
0.630639
20
1.03072
11
0.174298
21
0.57438
0
LINE
8
BLACK
6
CONTINUOUS
10
0.174298
20
0.57438
11
0.173934
21
0.574092
0
LINE
8
BLACK
6
CONTINUOUS
10
0.173934
20
0.574092
11
0.173948
21
0.574076
0
LINE
8
BLACK
6
CONTINUOUS
10
0.173948
20
0.574076
11
0.173666
21
0.573835
0
LINE
8
BLACK
6
CONTINUOUS
10
0.173666
20
0.573835
11
0.173351
21
0.573639
0
LINE
8
BLACK
6
CONTINUOUS
10
0.173351
20
0.573639
11
0.172683
21
0.572869
0
LINE
8
BLACK
6
CONTINUOUS
10
0.172683
20
0.572869
11
0.172119
21
0.57222
0
LINE
8
BLACK
6
CONTINUOUS
10
0.172119
20
0.57222
11
0.17188
21
0.571963
0
LINE
8
BLACK
6
CONTINUOUS
10
0.17188
20
0.571963
11
0.171516
21
0.571599
0
LINE
8
BLACK
6
CONTINUOUS
10
0.171516
20
0.571599
11
0.171406
21
0.57145
0
LINE
8
BLACK
6
CONTINUOUS
10
0.171406
20
0.57145
11
0.171406
21
0.57145
0
LINE
8
BLACK
6
CONTINUOUS
10
0.171406
20
0.57145
11
0.171262
21
0.571255
0
LINE
8
BLACK
6
CONTINUOUS
10
0.171262
20
0.571255
11
0.171019
21
0.570952
0
LINE
8
BLACK
6
CONTINUOUS
10
0.171019
20
0.570952
11
0.169856
21
0.569611
0
LINE
8
BLACK
6
CONTINUOUS
10
0.169856
20
0.569611
11
0.169706
21
0.569272
0
LINE
8
BLACK
6
CONTINUOUS
10
0.169706
20
0.569272
11
0.169526
21
0.568988
0
LINE
8
BLACK
6
CONTINUOUS
10
0.169526
20
0.568988
11
0.169369
21
0.568691
0
LINE
8
BLACK
6
CONTINUOUS
10
0.169369
20
0.568691
11
0.169148
21
0.568393
0
LINE
8
BLACK
6
CONTINUOUS
10
0.169148
20
0.568393
11
0.169025
21
0.568043
0
LINE
8
BLACK
6
CONTINUOUS
10
0.169025
20
0.568043
11
0.169025
21
0.568043
0
LINE
8
BLACK
6
CONTINUOUS
10
0.169025
20
0.568043
11
0.16856
21
0.566719
0
LINE
8
BLACK
6
CONTINUOUS
10
0.16856
20
0.566719
11
0.168417
21
0.566356
0
LINE
8
BLACK
6
CONTINUOUS
10
0.168417
20
0.566356
11
0.167699
21
0.564733
0
LINE
8
BLACK
6
CONTINUOUS
10
0.167699
20
0.564733
11
0.167656
21
0.564365
0
LINE
8
BLACK
6
CONTINUOUS
10
0.167656
20
0.564365
11
0.167567
21
0.564042
0
LINE
8
BLACK
6
CONTINUOUS
10
0.167567
20
0.564042
11
0.167504
21
0.563711
0
LINE
8
BLACK
6
CONTINUOUS
10
0.167504
20
0.563711
11
0.167381
21
0.563361
0
LINE
8
BLACK
6
CONTINUOUS
10
0.167381
20
0.563361
11
0.167367
21
0.56299
0
LINE
8
BLACK
6
CONTINUOUS
10
0.167367
20
0.56299
11
0.167367
21
0.56299
0
LINE
8
BLACK
6
CONTINUOUS
10
0.167367
20
0.56299
11
0.167311
21
0.561588
0
LINE
8
BLACK
6
CONTINUOUS
10
0.167311
20
0.561588
11
0.167281
21
0.561199
0
LINE
8
BLACK
6
CONTINUOUS
10
0.167281
20
0.561199
11
0.167116
21
0.559805
0
LINE
8
BLACK
6
CONTINUOUS
10
0.167116
20
0.559805
11
0.167116
21
0.559805
0
LINE
8
BLACK
6
CONTINUOUS
10
0.167116
20
0.559805
11
0.167072
21
0.559437
0
LINE
8
BLACK
6
CONTINUOUS
10
0.167072
20
0.559437
11
0.167139
21
0.559072
0
LINE
8
BLACK
6
CONTINUOUS
10
0.167139
20
0.559072
11
0.16715
21
0.558735
0
LINE
8
BLACK
6
CONTINUOUS
10
0.16715
20
0.558735
11
0.167186
21
0.558402
0
LINE
8
BLACK
6
CONTINUOUS
10
0.167186
20
0.558402
11
0.167172
21
0.558032
0
LINE
8
BLACK
6
CONTINUOUS
10
0.167172
20
0.558032
11
0.167267
21
0.557673
0
LINE
8
BLACK
6
CONTINUOUS
10
0.167267
20
0.557673
11
0.167267
21
0.557673
0
LINE
8
BLACK
6
CONTINUOUS
10
0.167267
20
0.557673
11
0.167627
21
0.556315
0
LINE
8
BLACK
6
CONTINUOUS
10
0.167627
20
0.556315
11
0.167712
21
0.555935
0
LINE
8
BLACK
6
CONTINUOUS
10
0.167712
20
0.555935
11
0.168031
21
0.55419
0
LINE
8
BLACK
6
CONTINUOUS
10
0.168031
20
0.55419
11
0.168201
21
0.553861
0
LINE
8
BLACK
6
CONTINUOUS
10
0.168201
20
0.553861
11
0.168217
21
0.553816
0
LINE
8
BLACK
6
CONTINUOUS
10
0.168217
20
0.553816
11
0.168484
21
0.552209
0
LINE
8
BLACK
6
CONTINUOUS
10
0.168484
20
0.552209
11
0.168484
21
0.22002
0
LINE
8
BLACK
6
CONTINUOUS
10
0.168484
20
0.22002
11
0.167697
21
0.217338
0
LINE
8
BLACK
6
CONTINUOUS
10
0.167697
20
0.217338
11
0.165584
21
0.215507
0
LINE
8
BLACK
6
CONTINUOUS
10
0.165584
20
0.215507
11
0.163524
21
0.215059
0
LINE
8
BLACK
6
CONTINUOUS
10
0.163524
20
0.215059
11
0.155443
21
0.215059
0
LINE
8
BLACK
6
CONTINUOUS
10
0.155443
20
0.215059
11
0.155204
21
0.215012
0
LINE
8
BLACK
6
CONTINUOUS
10
0.155204
20
0.215012
11
0.15362
21
0.214696
0
LINE
8
BLACK
6
CONTINUOUS
10
0.15362
20
0.214696
11
0.15362
21
0.214696
0
LINE
8
BLACK
6
CONTINUOUS
10
0.15362
20
0.214696
11
0.153141
21
0.214601
0
LINE
8
BLACK
6
CONTINUOUS
10
0.153141
20
0.214601
11
0.150529
21
0.212856
0
LINE
8
BLACK
6
CONTINUOUS
10
0.150529
20
0.212856
11
0.148785
21
0.210245
0
LINE
8
BLACK
6
CONTINUOUS
10
0.148785
20
0.210245
11
0.148327
21
0.207943
0
LINE
8
BLACK
6
CONTINUOUS
10
0.148327
20
0.207943
11
0.148327
21
0.146388
0
LINE
8
BLACK
6
CONTINUOUS
10
0.148327
20
0.146388
11
0.148785
21
0.144085
0
LINE
8
BLACK
6
CONTINUOUS
10
0.148785
20
0.144085
11
0.150529
21
0.141474
0
LINE
8
BLACK
6
CONTINUOUS
10
0.150529
20
0.141474
11
0.153141
21
0.13973
0
LINE
8
BLACK
6
CONTINUOUS
10
0.153141
20
0.13973
11
0.15362
21
0.139634
0
LINE
8
BLACK
6
CONTINUOUS
10
0.15362
20
0.139634
11
0.15362
21
0.139634
0
LINE
8
BLACK
6
CONTINUOUS
10
0.15362
20
0.139634
11
0.155204
21
0.139319
0
LINE
8
BLACK
6
CONTINUOUS
10
0.155204
20
0.139319
11
0.155443
21
0.139272
0
LINE
8
BLACK
6
CONTINUOUS
10
0.155443
20
0.139272
11
0.216998
21
0.139272
0
LINE
8
BLACK
6
CONTINUOUS
10
0.216998
20
0.139272
11
0.217237
21
0.139319
0
LINE
8
BLACK
6
CONTINUOUS
10
0.217237
20
0.139319
11
0.218821
21
0.139634
0
LINE
8
BLACK
6
CONTINUOUS
10
0.218821
20
0.139634
11
0.218821
21
0.139634
0
LINE
8
BLACK
6
CONTINUOUS
10
0.218821
20
0.139634
11
0.2193
21
0.13973
0
LINE
8
BLACK
6
CONTINUOUS
10
0.2193
20
0.13973
11
0.221911
21
0.141474
0
LINE
8
BLACK
6
CONTINUOUS
10
0.221911
20
0.141474
11
0.223656
21
0.144085
0
LINE
8
BLACK
6
CONTINUOUS
10
0.223656
20
0.144085
11
0.224114
21
0.146388
0
LINE
8
BLACK
6
CONTINUOUS
10
0.224114
20
0.146388
11
0.224114
21
0.207943
0
LINE
8
BLACK
6
CONTINUOUS
10
0.224114
20
0.207943
11
0.223656
21
0.210245
0
LINE
8
BLACK
6
CONTINUOUS
10
1.28744
20
0.210245
11
1.28569
21
0.212856
0
LINE
8
BLACK
6
CONTINUOUS
10
1.28569
20
0.212856
11
1.28308
21
0.214601
0
LINE
8
BLACK
6
CONTINUOUS
10
1.28308
20
0.214601
11
1.2826
21
0.214696
0
LINE
8
BLACK
6
CONTINUOUS
10
1.2826
20
0.214696
11
1.2826
21
0.214696
0
LINE
8
BLACK
6
CONTINUOUS
10
1.2826
20
0.214696
11
1.28102
21
0.215012
0
LINE
8
BLACK
6
CONTINUOUS
10
1.28102
20
0.215012
11
1.28078
21
0.215059
0
LINE
8
BLACK
6
CONTINUOUS
10
1.28078
20
0.215059
11
1.21922
21
0.215059
0
LINE
8
BLACK
6
CONTINUOUS
10
1.21922
20
0.215059
11
1.21898
21
0.215012
0
LINE
8
BLACK
6
CONTINUOUS
10
1.21898
20
0.215012
11
1.2174
21
0.214696
0
LINE
8
BLACK
6
CONTINUOUS
10
1.2174
20
0.214696
11
1.2174
21
0.214696
0
LINE
8
BLACK
6
CONTINUOUS
10
1.2174
20
0.214696
11
1.21692
21
0.214601
0
LINE
8
BLACK
6
CONTINUOUS
10
1.21692
20
0.214601
11
1.21431
21
0.212856
0
LINE
8
BLACK
6
CONTINUOUS
10
1.21431
20
0.212856
11
1.21256
21
0.210245
0
LINE
8
BLACK
6
CONTINUOUS
10
1.21256
20
0.210245
11
1.21211
21
0.207943
0
LINE
8
BLACK
6
CONTINUOUS
10
1.21211
20
0.207943
11
1.21211
21
0.146388
0
LINE
8
BLACK
6
CONTINUOUS
10
1.21211
20
0.146388
11
1.21256
21
0.144085
0
LINE
8
BLACK
6
CONTINUOUS
10
1.21256
20
0.144085
11
1.21431
21
0.141474
0
LINE
8
BLACK
6
CONTINUOUS
10
1.21431
20
0.141474
11
1.21692
21
0.13973
0
LINE
8
BLACK
6
CONTINUOUS
10
1.21692
20
0.13973
11
1.2174
21
0.139634
0
LINE
8
BLACK
6
CONTINUOUS
10
1.2174
20
0.139634
11
1.2174
21
0.139634
0
LINE
8
BLACK
6
CONTINUOUS
10
1.2174
20
0.139634
11
1.21898
21
0.139319
0
LINE
8
BLACK
6
CONTINUOUS
10
1.21898
20
0.139319
11
1.21922
21
0.139272
0
LINE
8
BLACK
6
CONTINUOUS
10
1.21922
20
0.139272
11
1.28078
21
0.139272
0
LINE
8
BLACK
6
CONTINUOUS
10
1.28078
20
0.139272
11
1.28102
21
0.139319
0
LINE
8
BLACK
6
CONTINUOUS
10
1.28102
20
0.139319
11
1.2826
21
0.139634
0
LINE
8
BLACK
6
CONTINUOUS
10
1.2826
20
0.139634
11
1.2826
21
0.139634
0
LINE
8
BLACK
6
CONTINUOUS
10
1.2826
20
0.139634
11
1.28308
21
0.13973
0
LINE
8
BLACK
6
CONTINUOUS
10
1.28308
20
0.13973
11
1.28569
21
0.141474
0
LINE
8
BLACK
6
CONTINUOUS
10
1.28569
20
0.141474
11
1.28744
21
0.144085
0
LINE
8
BLACK
6
CONTINUOUS
10
1.28744
20
0.144085
11
1.28789
21
0.146388
0
LINE
8
BLACK
6
CONTINUOUS
10
1.28789
20
0.146388
11
1.28789
21
0.207943
0
LINE
8
BLACK
6
CONTINUOUS
10
1.28789
20
0.207943
11
1.28744
21
0.210245
0
LINE
8
BLACK
6
CONTINUOUS
10
1.18744
20
0.210245
11
1.18569
21
0.212856
0
LINE
8
BLACK
6
CONTINUOUS
10
1.18569
20
0.212856
11
1.18308
21
0.214601
0
LINE
8
BLACK
6
CONTINUOUS
10
1.18308
20
0.214601
11
1.1826
21
0.214696
0
LINE
8
BLACK
6
CONTINUOUS
10
1.1826
20
0.214696
11
1.1826
21
0.214696
0
LINE
8
BLACK
6
CONTINUOUS
10
1.1826
20
0.214696
11
1.18102
21
0.215012
0
LINE
8
BLACK
6
CONTINUOUS
10
1.18102
20
0.215012
11
1.18078
21
0.215059
0
LINE
8
BLACK
6
CONTINUOUS
10
1.18078
20
0.215059
11
1.11922
21
0.215059
0
LINE
8
BLACK
6
CONTINUOUS
10
1.11922
20
0.215059
11
1.11898
21
0.215012
0
LINE
8
BLACK
6
CONTINUOUS
10
1.11898
20
0.215012
11
1.1174
21
0.214696
0
LINE
8
BLACK
6
CONTINUOUS
10
1.1174
20
0.214696
11
1.1174
21
0.214696
0
LINE
8
BLACK
6
CONTINUOUS
10
1.1174
20
0.214696
11
1.11692
21
0.214601
0
LINE
8
BLACK
6
CONTINUOUS
10
1.11692
20
0.214601
11
1.11431
21
0.212856
0
LINE
8
BLACK
6
CONTINUOUS
10
1.11431
20
0.212856
11
1.11256
21
0.210245
0
LINE
8
BLACK
6
CONTINUOUS
10
1.11256
20
0.210245
11
1.11211
21
0.207943
0
LINE
8
BLACK
6
CONTINUOUS
10
1.11211
20
0.207943
11
1.11211
21
0.146388
0
LINE
8
BLACK
6
CONTINUOUS
10
1.11211
20
0.146388
11
1.11256
21
0.144085
0
LINE
8
BLACK
6
CONTINUOUS
10
1.11256
20
0.144085
11
1.11431
21
0.141474
0
LINE
8
BLACK
6
CONTINUOUS
10
1.11431
20
0.141474
11
1.11692
21
0.13973
0
LINE
8
BLACK
6
CONTINUOUS
10
1.11692
20
0.13973
11
1.1174
21
0.139634
0
LINE
8
BLACK
6
CONTINUOUS
10
1.1174
20
0.139634
11
1.1174
21
0.139634
0
LINE
8
BLACK
6
CONTINUOUS
10
1.1174
20
0.139634
11
1.11898
21
0.139319
0
LINE
8
BLACK
6
CONTINUOUS
10
1.11898
20
0.139319
11
1.11922
21
0.139272
0
LINE
8
BLACK
6
CONTINUOUS
10
1.11922
20
0.139272
11
1.18078
21
0.139272
0
LINE
8
BLACK
6
CONTINUOUS
10
1.18078
20
0.139272
11
1.18102
21
0.139319
0
LINE
8
BLACK
6
CONTINUOUS
10
1.18102
20
0.139319
11
1.1826
21
0.139634
0
LINE
8
BLACK
6
CONTINUOUS
10
1.1826
20
0.139634
11
1.1826
21
0.139634
0
LINE
8
BLACK
6
CONTINUOUS
10
1.1826
20
0.139634
11
1.18308
21
0.13973
0
LINE
8
BLACK
6
CONTINUOUS
10
1.18308
20
0.13973
11
1.18569
21
0.141474
0
LINE
8
BLACK
6
CONTINUOUS
10
1.18569
20
0.141474
11
1.18744
21
0.144085
0
LINE
8
BLACK
6
CONTINUOUS
10
1.18744
20
0.144085
11
1.18789
21
0.146388
0
LINE
8
BLACK
6
CONTINUOUS
10
1.18789
20
0.146388
11
1.18789
21
0.207943
0
LINE
8
BLACK
6
CONTINUOUS
10
1.18789
20
0.207943
11
1.18744
21
0.210245
0
LINE
8
BLACK
6
CONTINUOUS
10
1.31922
20
0.215059
11
1.31898
21
0.215012
0
LINE
8
BLACK
6
CONTINUOUS
10
1.31898
20
0.215012
11
1.3174
21
0.214696
0
LINE
8
BLACK
6
CONTINUOUS
10
1.3174
20
0.214696
11
1.3174
21
0.214696
0
LINE
8
BLACK
6
CONTINUOUS
10
1.3174
20
0.214696
11
1.31692
21
0.214601
0
LINE
8
BLACK
6
CONTINUOUS
10
1.31692
20
0.214601
11
1.31431
21
0.212856
0
LINE
8
BLACK
6
CONTINUOUS
10
1.31431
20
0.212856
11
1.31256
21
0.210245
0
LINE
8
BLACK
6
CONTINUOUS
10
1.31256
20
0.210245
11
1.31211
21
0.207943
0
LINE
8
BLACK
6
CONTINUOUS
10
1.31211
20
0.207943
11
1.31211
21
0.146388
0
LINE
8
BLACK
6
CONTINUOUS
10
1.31211
20
0.146388
11
1.31256
21
0.144085
0
LINE
8
BLACK
6
CONTINUOUS
10
1.31256
20
0.144085
11
1.31431
21
0.141474
0
LINE
8
BLACK
6
CONTINUOUS
10
1.31431
20
0.141474
11
1.31692
21
0.13973
0
LINE
8
BLACK
6
CONTINUOUS
10
1.31692
20
0.13973
11
1.3174
21
0.139634
0
LINE
8
BLACK
6
CONTINUOUS
10
1.3174
20
0.139634
11
1.3174
21
0.139634
0
LINE
8
BLACK
6
CONTINUOUS
10
1.3174
20
0.139634
11
1.31898
21
0.139319
0
LINE
8
BLACK
6
CONTINUOUS
10
1.31898
20
0.139319
11
1.31922
21
0.139272
0
LINE
8
BLACK
6
CONTINUOUS
10
1.31922
20
0.139272
11
1.38078
21
0.139272
0
LINE
8
BLACK
6
CONTINUOUS
10
1.38078
20
0.139272
11
1.38102
21
0.139319
0
LINE
8
BLACK
6
CONTINUOUS
10
1.38102
20
0.139319
11
1.3826
21
0.139634
0
LINE
8
BLACK
6
CONTINUOUS
10
1.3826
20
0.139634
11
1.3826
21
0.139634
0
LINE
8
BLACK
6
CONTINUOUS
10
1.3826
20
0.139634
11
1.38308
21
0.13973
0
LINE
8
BLACK
6
CONTINUOUS
10
1.38308
20
0.13973
11
1.38569
21
0.141474
0
LINE
8
BLACK
6
CONTINUOUS
10
1.38569
20
0.141474
11
1.38744
21
0.144085
0
LINE
8
BLACK
6
CONTINUOUS
10
1.38744
20
0.144085
11
1.38789
21
0.146388
0
LINE
8
BLACK
6
CONTINUOUS
10
1.38789
20
0.146388
11
1.38789
21
0.207943
0
LINE
8
BLACK
6
CONTINUOUS
10
1.38789
20
0.207943
11
1.38744
21
0.210245
0
LINE
8
BLACK
6
CONTINUOUS
10
1.38744
20
0.210245
11
1.38569
21
0.212856
0
LINE
8
BLACK
6
CONTINUOUS
10
1.38569
20
0.212856
11
1.38308
21
0.214601
0
LINE
8
BLACK
6
CONTINUOUS
10
1.38308
20
0.214601
11
1.3826
21
0.214696
0
LINE
8
BLACK
6
CONTINUOUS
10
1.3826
20
0.214696
11
1.3826
21
0.214696
0
LINE
8
BLACK
6
CONTINUOUS
10
1.3826
20
0.214696
11
1.38102
21
0.215012
0
LINE
8
BLACK
6
CONTINUOUS
10
1.38102
20
0.215012
11
1.38078
21
0.215059
0
LINE
8
BLACK
6
CONTINUOUS
10
1.38078
20
0.215059
11
1.31922
21
0.215059
0
LINE
8
BLACK
6
CONTINUOUS
10
1.08744
20
0.210245
11
1.08569
21
0.212856
0
LINE
8
BLACK
6
CONTINUOUS
10
1.08569
20
0.212856
11
1.08308
21
0.214601
0
LINE
8
BLACK
6
CONTINUOUS
10
1.08308
20
0.214601
11
1.0826
21
0.214696
0
LINE
8
BLACK
6
CONTINUOUS
10
1.0826
20
0.214696
11
1.0826
21
0.214696
0
LINE
8
BLACK
6
CONTINUOUS
10
1.0826
20
0.214696
11
1.08102
21
0.215012
0
LINE
8
BLACK
6
CONTINUOUS
10
1.08102
20
0.215012
11
1.08078
21
0.215059
0
LINE
8
BLACK
6
CONTINUOUS
10
1.08078
20
0.215059
11
1.01922
21
0.215059
0
LINE
8
BLACK
6
CONTINUOUS
10
1.01922
20
0.215059
11
1.01898
21
0.215012
0
LINE
8
BLACK
6
CONTINUOUS
10
1.01898
20
0.215012
11
1.0174
21
0.214696
0
LINE
8
BLACK
6
CONTINUOUS
10
1.0174
20
0.214696
11
1.0174
21
0.214696
0
LINE
8
BLACK
6
CONTINUOUS
10
1.0174
20
0.214696
11
1.01692
21
0.214601
0
LINE
8
BLACK
6
CONTINUOUS
10
1.01692
20
0.214601
11
1.01431
21
0.212856
0
LINE
8
BLACK
6
CONTINUOUS
10
1.01431
20
0.212856
11
1.01256
21
0.210245
0
LINE
8
BLACK
6
CONTINUOUS
10
1.01256
20
0.210245
11
1.01211
21
0.207943
0
LINE
8
BLACK
6
CONTINUOUS
10
1.01211
20
0.207943
11
1.01211
21
0.146388
0
LINE
8
BLACK
6
CONTINUOUS
10
1.01211
20
0.146388
11
1.01256
21
0.144085
0
LINE
8
BLACK
6
CONTINUOUS
10
1.01256
20
0.144085
11
1.01431
21
0.141474
0
LINE
8
BLACK
6
CONTINUOUS
10
1.01431
20
0.141474
11
1.01692
21
0.13973
0
LINE
8
BLACK
6
CONTINUOUS
10
1.01692
20
0.13973
11
1.0174
21
0.139634
0
LINE
8
BLACK
6
CONTINUOUS
10
1.0174
20
0.139634
11
1.0174
21
0.139634
0
LINE
8
BLACK
6
CONTINUOUS
10
1.0174
20
0.139634
11
1.01898
21
0.139319
0
LINE
8
BLACK
6
CONTINUOUS
10
1.01898
20
0.139319
11
1.01922
21
0.139272
0
LINE
8
BLACK
6
CONTINUOUS
10
1.01922
20
0.139272
11
1.08078
21
0.139272
0
LINE
8
BLACK
6
CONTINUOUS
10
1.08078
20
0.139272
11
1.08102
21
0.139319
0
LINE
8
BLACK
6
CONTINUOUS
10
1.08102
20
0.139319
11
1.0826
21
0.139634
0
LINE
8
BLACK
6
CONTINUOUS
10
1.0826
20
0.139634
11
1.0826
21
0.139634
0
LINE
8
BLACK
6
CONTINUOUS
10
1.0826
20
0.139634
11
1.08308
21
0.13973
0
LINE
8
BLACK
6
CONTINUOUS
10
1.08308
20
0.13973
11
1.08569
21
0.141474
0
LINE
8
BLACK
6
CONTINUOUS
10
1.08569
20
0.141474
11
1.08744
21
0.144085
0
LINE
8
BLACK
6
CONTINUOUS
10
1.08744
20
0.144085
11
1.08789
21
0.146388
0
LINE
8
BLACK
6
CONTINUOUS
10
1.08789
20
0.146388
11
1.08789
21
0.207943
0
LINE
8
BLACK
6
CONTINUOUS
10
1.08789
20
0.207943
11
1.08744
21
0.210245
0
LINE
8
BLACK
6
CONTINUOUS
10
1.02518
20
0.370251
11
1.02621
21
0.367424
0
LINE
8
BLACK
6
CONTINUOUS
10
1.02621
20
0.367424
11
1.02719
21
0.364756
0
LINE
8
BLACK
6
CONTINUOUS
10
1.02719
20
0.364756
11
1.03062
21
0.35965
0
LINE
8
BLACK
6
CONTINUOUS
10
1.03062
20
0.35965
11
1.03084
21
0.359449
0
LINE
8
BLACK
6
CONTINUOUS
10
1.03084
20
0.359449
11
1.03084
21
0.359449
0
LINE
8
BLACK
6
CONTINUOUS
10
1.03084
20
0.359449
11
1.03495
21
0.355712
0
LINE
8
BLACK
6
CONTINUOUS
10
1.03495
20
0.355712
11
1.03495
21
0.355712
0
LINE
8
BLACK
6
CONTINUOUS
10
1.03495
20
0.355712
11
1.03517
21
0.355511
0
LINE
8
BLACK
6
CONTINUOUS
10
1.03517
20
0.355511
11
1.03543
21
0.355368
0
LINE
8
BLACK
6
CONTINUOUS
10
1.03543
20
0.355368
11
1.03543
21
0.355368
0
LINE
8
BLACK
6
CONTINUOUS
10
1.03543
20
0.355368
11
1.04031
21
0.352718
0
LINE
8
BLACK
6
CONTINUOUS
10
1.04031
20
0.352718
11
1.04031
21
0.352718
0
LINE
8
BLACK
6
CONTINUOUS
10
1.04031
20
0.352718
11
1.04058
21
0.352576
0
LINE
8
BLACK
6
CONTINUOUS
10
1.04058
20
0.352576
11
1.04087
21
0.3525
0
LINE
8
BLACK
6
CONTINUOUS
10
1.04087
20
0.3525
11
1.04624
21
0.351091
0
LINE
8
BLACK
6
CONTINUOUS
10
1.04624
20
0.351091
11
1.04624
21
0.351091
0
LINE
8
BLACK
6
CONTINUOUS
10
1.04624
20
0.351091
11
1.04653
21
0.351015
0
LINE
8
BLACK
6
CONTINUOUS
10
1.04653
20
0.351015
11
1.04978
21
0.350964
0
LINE
8
BLACK
6
CONTINUOUS
10
1.04978
20
0.350964
11
1.05238
21
0.350923
0
LINE
8
BLACK
6
CONTINUOUS
10
1.05238
20
0.350923
11
1.05238
21
0.350923
0
LINE
8
BLACK
6
CONTINUOUS
10
1.05238
20
0.350923
11
1.05268
21
0.350918
0
LINE
8
BLACK
6
CONTINUOUS
10
1.05268
20
0.350918
11
1.05479
21
0.351401
0
LINE
8
BLACK
6
CONTINUOUS
10
1.05479
20
0.351401
11
1.05838
21
0.352225
0
LINE
8
BLACK
6
CONTINUOUS
10
1.05838
20
0.352225
11
1.05838
21
0.352225
0
LINE
8
BLACK
6
CONTINUOUS
10
1.05838
20
0.352225
11
1.05867
21
0.352291
0
LINE
8
BLACK
6
CONTINUOUS
10
1.05867
20
0.352291
11
1.06417
21
0.355055
0
LINE
8
BLACK
6
CONTINUOUS
10
1.06417
20
0.355055
11
1.06697
21
0.357453
0
LINE
8
BLACK
6
CONTINUOUS
10
1.06697
20
0.357453
11
1.06953
21
0.358596
0
LINE
8
BLACK
6
CONTINUOUS
10
1.06953
20
0.358596
11
1.0702
21
0.358642
0
LINE
8
BLACK
6
CONTINUOUS
10
1.0702
20
0.358642
11
1.48481
21
0.358642
0
LINE
8
BLACK
6
CONTINUOUS
10
1.48481
20
0.358642
11
1.48718
21
0.358041
0
LINE
8
BLACK
6
CONTINUOUS
10
1.48718
20
0.358041
11
1.49031
21
0.35634
0
LINE
8
BLACK
6
CONTINUOUS
10
1.49031
20
0.35634
11
1.49031
21
0.35634
0
LINE
8
BLACK
6
CONTINUOUS
10
1.49031
20
0.35634
11
1.49058
21
0.356198
0
LINE
8
BLACK
6
CONTINUOUS
10
1.49058
20
0.356198
11
1.49087
21
0.356122
0
LINE
8
BLACK
6
CONTINUOUS
10
1.49087
20
0.356122
11
1.49624
21
0.354713
0
LINE
8
BLACK
6
CONTINUOUS
10
1.49624
20
0.354713
11
1.49624
21
0.354713
0
LINE
8
BLACK
6
CONTINUOUS
10
1.49624
20
0.354713
11
1.49653
21
0.354637
0
LINE
8
BLACK
6
CONTINUOUS
10
1.49653
20
0.354637
11
1.49978
21
0.354586
0
LINE
8
BLACK
6
CONTINUOUS
10
1.49978
20
0.354586
11
1.50238
21
0.354545
0
LINE
8
BLACK
6
CONTINUOUS
10
1.50238
20
0.354545
11
1.50238
21
0.354545
0
LINE
8
BLACK
6
CONTINUOUS
10
1.50238
20
0.354545
11
1.50268
21
0.35454
0
LINE
8
BLACK
6
CONTINUOUS
10
1.50268
20
0.35454
11
1.50492
21
0.355055
0
LINE
8
BLACK
6
CONTINUOUS
10
1.50492
20
0.355055
11
1.50838
21
0.355847
0
LINE
8
BLACK
6
CONTINUOUS
10
1.50838
20
0.355847
11
1.50838
21
0.355847
0
LINE
8
BLACK
6
CONTINUOUS
10
1.50838
20
0.355847
11
1.50867
21
0.355913
0
LINE
8
BLACK
6
CONTINUOUS
10
1.50867
20
0.355913
11
1.51417
21
0.358677
0
LINE
8
BLACK
6
CONTINUOUS
10
1.51417
20
0.358677
11
1.5156
21
0.359898
0
LINE
8
BLACK
6
CONTINUOUS
10
1.5156
20
0.359898
11
1.51862
21
0.362478
0
LINE
8
BLACK
6
CONTINUOUS
10
1.51862
20
0.362478
11
1.51862
21
0.362478
0
LINE
8
BLACK
6
CONTINUOUS
10
1.51862
20
0.362478
11
1.51884
21
0.362672
0
LINE
8
BLACK
6
CONTINUOUS
10
1.51884
20
0.362672
11
1.52243
21
0.367667
0
LINE
8
BLACK
6
CONTINUOUS
10
1.52243
20
0.367667
11
1.52473
21
0.373374
0
LINE
8
BLACK
6
CONTINUOUS
10
1.52473
20
0.373374
11
1.52559
21
0.379464
0
LINE
8
BLACK
6
CONTINUOUS
10
1.52559
20
0.379464
11
1.5256
21
0.38
0
LINE
8
BLACK
6
CONTINUOUS
10
1.5256
20
0.38
11
1.52486
21
0.386106
0
LINE
8
BLACK
6
CONTINUOUS
10
1.52486
20
0.386106
11
1.52269
21
0.39186
0
LINE
8
BLACK
6
CONTINUOUS
10
1.52269
20
0.39186
11
1.52252
21
0.392107
0
LINE
8
BLACK
6
CONTINUOUS
10
1.52252
20
0.392107
11
1.52252
21
0.392107
0
LINE
8
BLACK
6
CONTINUOUS
10
1.52252
20
0.392107
11
1.51937
21
0.396683
0
LINE
8
BLACK
6
CONTINUOUS
10
1.51937
20
0.396683
11
1.51937
21
0.396683
0
LINE
8
BLACK
6
CONTINUOUS
10
1.51937
20
0.396683
11
1.5192
21
0.39693
0
LINE
8
BLACK
6
CONTINUOUS
10
1.5192
20
0.39693
11
1.51898
21
0.39713
0
LINE
8
BLACK
6
CONTINUOUS
10
1.51898
20
0.39713
11
1.51483
21
0.400823
0
LINE
8
BLACK
6
CONTINUOUS
10
1.51483
20
0.400823
11
1.51483
21
0.400823
0
LINE
8
BLACK
6
CONTINUOUS
10
1.51483
20
0.400823
11
1.51461
21
0.401021
0
LINE
8
BLACK
6
CONTINUOUS
10
1.51461
20
0.401021
11
1.51435
21
0.401161
0
LINE
8
BLACK
6
CONTINUOUS
10
1.51435
20
0.401161
11
1.50944
21
0.40376
0
LINE
8
BLACK
6
CONTINUOUS
10
1.50944
20
0.40376
11
1.50944
21
0.40376
0
LINE
8
BLACK
6
CONTINUOUS
10
1.50944
20
0.40376
11
1.50917
21
0.4039
0
LINE
8
BLACK
6
CONTINUOUS
10
1.50917
20
0.4039
11
1.50321
21
0.405398
0
LINE
8
BLACK
6
CONTINUOUS
10
1.50321
20
0.405398
11
1.50291
21
0.4054
0
LINE
8
BLACK
6
CONTINUOUS
10
1.50291
20
0.4054
11
1.50291
21
0.4054
0
LINE
8
BLACK
6
CONTINUOUS
10
1.50291
20
0.4054
11
1.50033
21
0.405413
0
LINE
8
BLACK
6
CONTINUOUS
10
1.50033
20
0.405413
11
1.49706
21
0.40543
0
LINE
8
BLACK
6
CONTINUOUS
10
1.49706
20
0.40543
11
1.49677
21
0.405361
0
LINE
8
BLACK
6
CONTINUOUS
10
1.49677
20
0.405361
11
1.49677
21
0.405361
0
LINE
8
BLACK
6
CONTINUOUS
10
1.49677
20
0.405361
11
1.49386
21
0.404664
0
LINE
8
BLACK
6
CONTINUOUS
10
1.49386
20
0.404664
11
1.49108
21
0.403994
0
LINE
8
BLACK
6
CONTINUOUS
10
1.49108
20
0.403994
11
1.48561
21
0.401173
0
LINE
8
BLACK
6
CONTINUOUS
10
1.48561
20
0.401173
11
1.48098
21
0.39713
0
LINE
8
BLACK
6
CONTINUOUS
10
1.48098
20
0.39713
11
1.4808
21
0.396885
0
LINE
8
BLACK
6
CONTINUOUS
10
1.4808
20
0.396885
11
1.4808
21
0.396885
0
LINE
8
BLACK
6
CONTINUOUS
10
1.4808
20
0.396885
11
1.48034
21
0.396222
0
LINE
8
BLACK
6
CONTINUOUS
10
1.48034
20
0.396222
11
1.47815
21
0.394481
0
LINE
8
BLACK
6
CONTINUOUS
10
1.47815
20
0.394481
11
1.47628
21
0.394114
0
LINE
8
BLACK
6
CONTINUOUS
10
1.47628
20
0.394114
11
1.07019
21
0.394114
0
LINE
8
BLACK
6
CONTINUOUS
10
1.07019
20
0.394114
11
1.0675
21
0.394902
0
LINE
8
BLACK
6
CONTINUOUS
10
1.0675
20
0.394902
11
1.06689
21
0.395371
0
LINE
8
BLACK
6
CONTINUOUS
10
1.06689
20
0.395371
11
1.06483
21
0.3972
0
LINE
8
BLACK
6
CONTINUOUS
10
1.06483
20
0.3972
11
1.06483
21
0.397201
0
LINE
8
BLACK
6
CONTINUOUS
10
1.06483
20
0.397201
11
1.06461
21
0.397399
0
LINE
8
BLACK
6
CONTINUOUS
10
1.06461
20
0.397399
11
1.06435
21
0.397539
0
LINE
8
BLACK
6
CONTINUOUS
10
1.06435
20
0.397539
11
1.05944
21
0.400138
0
LINE
8
BLACK
6
CONTINUOUS
10
1.05944
20
0.400138
11
1.05944
21
0.400138
0
LINE
8
BLACK
6
CONTINUOUS
10
1.05944
20
0.400138
11
1.05917
21
0.400278
0
LINE
8
BLACK
6
CONTINUOUS
10
1.05917
20
0.400278
11
1.05321
21
0.401776
0
LINE
8
BLACK
6
CONTINUOUS
10
1.05321
20
0.401776
11
1.05291
21
0.401778
0
LINE
8
BLACK
6
CONTINUOUS
10
1.05291
20
0.401778
11
1.05291
21
0.401778
0
LINE
8
BLACK
6
CONTINUOUS
10
1.05291
20
0.401778
11
1.05033
21
0.401791
0
LINE
8
BLACK
6
CONTINUOUS
10
1.05033
20
0.401791
11
1.04706
21
0.401808
0
LINE
8
BLACK
6
CONTINUOUS
10
1.04706
20
0.401808
11
1.04677
21
0.401739
0
LINE
8
BLACK
6
CONTINUOUS
10
1.04677
20
0.401739
11
1.04677
21
0.401739
0
LINE
8
BLACK
6
CONTINUOUS
10
1.04677
20
0.401739
11
1.04386
21
0.401042
0
LINE
8
BLACK
6
CONTINUOUS
10
1.04386
20
0.401042
11
1.04108
21
0.400372
0
LINE
8
BLACK
6
CONTINUOUS
10
1.04108
20
0.400372
11
1.03561
21
0.397551
0
LINE
8
BLACK
6
CONTINUOUS
10
1.03561
20
0.397551
11
1.03098
21
0.393508
0
LINE
8
BLACK
6
CONTINUOUS
10
1.03098
20
0.393508
11
1.02744
21
0.388475
0
LINE
8
BLACK
6
CONTINUOUS
10
1.02744
20
0.388475
11
1.0252
21
0.382744
0
LINE
8
BLACK
6
CONTINUOUS
10
1.0252
20
0.382744
11
1.02517
21
0.382448
0
LINE
8
BLACK
6
CONTINUOUS
10
1.02517
20
0.382448
11
1.02482
21
0.379837
0
LINE
8
BLACK
6
CONTINUOUS
10
1.02482
20
0.379837
11
1.0244
21
0.376646
0
LINE
8
BLACK
6
CONTINUOUS
10
1.0244
20
0.376646
11
1.02508
21
0.370532
0
LINE
8
BLACK
6
CONTINUOUS
10
1.02508
20
0.370532
11
1.02518
21
0.370251
0
LINE
8
BLACK
6
CONTINUOUS
10
1.7451
20
0.532645
11
1.74531
21
0.528925
0
LINE
8
BLACK
6
CONTINUOUS
10
1.74531
20
0.528925
11
1.74561
21
0.523796
0
LINE
8
BLACK
6
CONTINUOUS
10
1.74561
20
0.523796
11
1.74565
21
0.523597
0
LINE
8
BLACK
6
CONTINUOUS
10
1.74565
20
0.523597
11
1.74565
21
0.523597
0
LINE
8
BLACK
6
CONTINUOUS
10
1.74565
20
0.523597
11
1.7465
21
0.519804
0
LINE
8
BLACK
6
CONTINUOUS
10
1.7465
20
0.519804
11
1.7476
21
0.514951
0
LINE
8
BLACK
6
CONTINUOUS
10
1.7476
20
0.514951
11
1.74768
21
0.514763
0
LINE
8
BLACK
6
CONTINUOUS
10
1.74768
20
0.514763
11
1.74768
21
0.514763
0
LINE
8
BLACK
6
CONTINUOUS
10
1.74768
20
0.514763
11
1.74915
21
0.511129
0
LINE
8
BLACK
6
CONTINUOUS
10
1.74915
20
0.511129
11
1.75101
21
0.50655
0
LINE
8
BLACK
6
CONTINUOUS
10
1.75101
20
0.50655
11
1.75575
21
0.49882
0
LINE
8
BLACK
6
CONTINUOUS
10
1.75575
20
0.49882
11
1.76168
21
0.491967
0
LINE
8
BLACK
6
CONTINUOUS
10
1.76168
20
0.491967
11
1.76866
21
0.486175
0
LINE
8
BLACK
6
CONTINUOUS
10
1.76866
20
0.486175
11
1.77649
21
0.481601
0
LINE
8
BLACK
6
CONTINUOUS
10
1.77649
20
0.481601
11
1.78496
21
0.478366
0
LINE
8
BLACK
6
CONTINUOUS
10
1.78496
20
0.478366
11
1.78516
21
0.478326
0
LINE
8
BLACK
6
CONTINUOUS
10
1.78516
20
0.478326
11
1.78516
21
0.478326
0
LINE
8
BLACK
6
CONTINUOUS
10
1.78516
20
0.478326
11
1.78533
21
0.47829
0
LINE
8
BLACK
6
CONTINUOUS
10
1.78533
20
0.47829
11
1.79384
21
0.476559
0
LINE
8
BLACK
6
CONTINUOUS
10
1.79384
20
0.476559
11
1.79895
21
0.476371
0
LINE
8
BLACK
6
CONTINUOUS
10
1.79895
20
0.476371
11
1.8027
21
0.476234
0
LINE
8
BLACK
6
CONTINUOUS
10
1.8027
20
0.476234
11
1.8027
21
0.476234
0
LINE
8
BLACK
6
CONTINUOUS
10
1.8027
20
0.476234
11
1.8029
21
0.476226
0
LINE
8
BLACK
6
CONTINUOUS
10
1.8029
20
0.476226
11
1.80311
21
0.476252
0
LINE
8
BLACK
6
CONTINUOUS
10
1.80311
20
0.476252
11
1.80311
21
0.476252
0
LINE
8
BLACK
6
CONTINUOUS
10
1.80311
20
0.476252
11
1.80584
21
0.476602
0
LINE
8
BLACK
6
CONTINUOUS
10
1.80584
20
0.476602
11
1.8119
21
0.477378
0
LINE
8
BLACK
6
CONTINUOUS
10
1.8119
20
0.477378
11
1.81209
21
0.477437
0
LINE
8
BLACK
6
CONTINUOUS
10
1.81209
20
0.477437
11
1.81209
21
0.477437
0
LINE
8
BLACK
6
CONTINUOUS
10
1.81209
20
0.477437
11
1.82039
21
0.479925
0
LINE
8
BLACK
6
CONTINUOUS
10
1.82039
20
0.479925
11
1.82039
21
0.479925
0
LINE
8
BLACK
6
CONTINUOUS
10
1.82039
20
0.479925
11
1.82058
21
0.479984
0
LINE
8
BLACK
6
CONTINUOUS
10
1.82058
20
0.479984
11
1.82872
21
0.483973
0
LINE
8
BLACK
6
CONTINUOUS
10
1.82872
20
0.483973
11
1.8361
21
0.489238
0
LINE
8
BLACK
6
CONTINUOUS
10
1.8361
20
0.489238
11
1.84253
21
0.495638
0
LINE
8
BLACK
6
CONTINUOUS
10
1.84253
20
0.495638
11
1.84481
21
0.49882
0
LINE
8
BLACK
6
CONTINUOUS
10
1.84481
20
0.49882
11
1.8477
21
0.502835
0
LINE
8
BLACK
6
CONTINUOUS
10
1.8477
20
0.502835
11
1.84782
21
0.503001
0
LINE
8
BLACK
6
CONTINUOUS
10
1.84782
20
0.503001
11
1.85184
21
0.511129
0
LINE
8
BLACK
6
CONTINUOUS
10
1.85184
20
0.511129
11
1.85306
21
0.51515
0
LINE
8
BLACK
6
CONTINUOUS
10
1.85306
20
0.51515
11
1.85441
21
0.519609
0
LINE
8
BLACK
6
CONTINUOUS
10
1.85441
20
0.519609
11
1.85441
21
0.519609
0
LINE
8
BLACK
6
CONTINUOUS
10
1.85441
20
0.519609
11
1.85447
21
0.519804
0
LINE
8
BLACK
6
CONTINUOUS
10
1.85447
20
0.519804
11
1.85565
21
0.528793
0
LINE
8
BLACK
6
CONTINUOUS
10
1.85565
20
0.528793
11
1.85572
21
0.531496
0
LINE
8
BLACK
6
CONTINUOUS
10
1.85572
20
0.531496
11
1.85498
21
0.540532
0
LINE
8
BLACK
6
CONTINUOUS
10
1.85498
20
0.540532
11
1.85277
21
0.549326
0
LINE
8
BLACK
6
CONTINUOUS
10
1.85277
20
0.549326
11
1.8505
21
0.554555
0
LINE
8
BLACK
6
CONTINUOUS
10
1.8505
20
0.554555
11
1.84923
21
0.557454
0
LINE
8
BLACK
6
CONTINUOUS
10
1.84923
20
0.557454
11
1.84923
21
0.557454
0
LINE
8
BLACK
6
CONTINUOUS
10
1.84923
20
0.557454
11
1.84915
21
0.557641
0
LINE
8
BLACK
6
CONTINUOUS
10
1.84915
20
0.557641
11
1.84501
21
0.564042
0
LINE
8
BLACK
6
CONTINUOUS
10
1.84501
20
0.564042
11
1.84434
21
0.565082
0
LINE
8
BLACK
6
CONTINUOUS
10
1.84434
20
0.565082
11
1.84434
21
0.565083
0
LINE
8
BLACK
6
CONTINUOUS
10
1.84434
20
0.565083
11
1.84423
21
0.565253
0
LINE
8
BLACK
6
CONTINUOUS
10
1.84423
20
0.565253
11
1.84342
21
0.566146
0
LINE
8
BLACK
6
CONTINUOUS
10
1.84342
20
0.566146
11
1.83826
21
0.571809
0
LINE
8
BLACK
6
CONTINUOUS
10
1.83826
20
0.571809
11
1.83826
21
0.571809
0
LINE
8
BLACK
6
CONTINUOUS
10
1.83826
20
0.571809
11
1.83813
21
0.571959
0
LINE
8
BLACK
6
CONTINUOUS
10
1.83813
20
0.571959
11
1.83797
21
0.572085
0
LINE
8
BLACK
6
CONTINUOUS
10
1.83797
20
0.572085
11
1.83797
21
0.572086
0
LINE
8
BLACK
6
CONTINUOUS
10
1.83797
20
0.572086
11
1.83117
21
0.577453
0
LINE
8
BLACK
6
CONTINUOUS
10
1.83117
20
0.577453
11
1.83117
21
0.577453
0
LINE
8
BLACK
6
CONTINUOUS
10
1.83117
20
0.577453
11
1.83101
21
0.577579
0
LINE
8
BLACK
6
CONTINUOUS
10
1.83101
20
0.577579
11
1.83083
21
0.577677
0
LINE
8
BLACK
6
CONTINUOUS
10
1.83083
20
0.577677
11
1.83083
21
0.577677
0
LINE
8
BLACK
6
CONTINUOUS
10
1.83083
20
0.577677
11
1.82325
21
0.581862
0
LINE
8
BLACK
6
CONTINUOUS
10
1.82325
20
0.581862
11
1.82325
21
0.581862
0
LINE
8
BLACK
6
CONTINUOUS
10
1.82325
20
0.581862
11
1.82307
21
0.581961
0
LINE
8
BLACK
6
CONTINUOUS
10
1.82307
20
0.581961
11
1.82288
21
0.582029
0
LINE
8
BLACK
6
CONTINUOUS
10
1.82288
20
0.582029
11
1.82288
21
0.582029
0
LINE
8
BLACK
6
CONTINUOUS
10
1.82288
20
0.582029
11
1.81472
21
0.584919
0
LINE
8
BLACK
6
CONTINUOUS
10
1.81472
20
0.584919
11
1.81472
21
0.584919
0
LINE
8
BLACK
6
CONTINUOUS
10
1.81472
20
0.584919
11
1.81453
21
0.584987
0
LINE
8
BLACK
6
CONTINUOUS
10
1.81453
20
0.584987
11
1.81433
21
0.585023
0
LINE
8
BLACK
6
CONTINUOUS
10
1.81433
20
0.585023
11
1.81433
21
0.585023
0
LINE
8
BLACK
6
CONTINUOUS
10
1.81433
20
0.585023
11
1.80938
21
0.585904
0
LINE
8
BLACK
6
CONTINUOUS
10
1.80938
20
0.585904
11
1.8056
21
0.586577
0
LINE
8
BLACK
6
CONTINUOUS
10
1.8056
20
0.586577
11
1.8022
21
0.586619
0
LINE
8
BLACK
6
CONTINUOUS
10
1.8022
20
0.586619
11
1.79674
21
0.586686
0
LINE
8
BLACK
6
CONTINUOUS
10
1.79674
20
0.586686
11
1.79674
21
0.586686
0
LINE
8
BLACK
6
CONTINUOUS
10
1.79674
20
0.586686
11
1.79653
21
0.586688
0
LINE
8
BLACK
6
CONTINUOUS
10
1.79653
20
0.586688
11
1.78757
21
0.585317
0
LINE
8
BLACK
6
CONTINUOUS
10
1.78757
20
0.585317
11
1.77895
21
0.5825
0
LINE
8
BLACK
6
CONTINUOUS
10
1.77895
20
0.5825
11
1.77877
21
0.582406
0
LINE
8
BLACK
6
CONTINUOUS
10
1.77877
20
0.582406
11
1.77877
21
0.582406
0
LINE
8
BLACK
6
CONTINUOUS
10
1.77877
20
0.582406
11
1.77323
21
0.579518
0
LINE
8
BLACK
6
CONTINUOUS
10
1.77323
20
0.579518
11
1.77091
21
0.578313
0
LINE
8
BLACK
6
CONTINUOUS
10
1.77091
20
0.578313
11
1.76366
21
0.572869
0
LINE
8
BLACK
6
CONTINUOUS
10
1.76366
20
0.572869
11
1.7574
21
0.566314
0
LINE
8
BLACK
6
CONTINUOUS
10
1.7574
20
0.566314
11
1.75728
21
0.566146
0
LINE
8
BLACK
6
CONTINUOUS
10
1.75728
20
0.566146
11
1.75728
21
0.566146
0
LINE
8
BLACK
6
CONTINUOUS
10
1.75728
20
0.566146
11
1.75632
21
0.564733
0
LINE
8
BLACK
6
CONTINUOUS
10
1.75632
20
0.564733
11
1.75229
21
0.558824
0
LINE
8
BLACK
6
CONTINUOUS
10
1.75229
20
0.558824
11
1.7522
21
0.55864
0
LINE
8
BLACK
6
CONTINUOUS
10
1.7522
20
0.55864
11
1.7522
21
0.558639
0
LINE
8
BLACK
6
CONTINUOUS
10
1.7522
20
0.558639
11
1.74856
21
0.550785
0
LINE
8
BLACK
6
CONTINUOUS
10
1.74856
20
0.550785
11
1.74847
21
0.5506
0
LINE
8
BLACK
6
CONTINUOUS
10
1.74847
20
0.5506
11
1.74605
21
0.541863
0
LINE
8
BLACK
6
CONTINUOUS
10
1.74605
20
0.541863
11
1.74508
21
0.532848
0
LINE
8
BLACK
6
CONTINUOUS
10
1.74508
20
0.532848
11
1.7451
21
0.532645
0
LINE
8
BLACK
6
CONTINUOUS
10
1.7451
20
0.532645
11
1.7451
21
0.532645
0
LINE
8
BLACK
6
CONTINUOUS
10
0.930593
20
0.489238
11
0.937015
21
0.495638
0
LINE
8
BLACK
6
CONTINUOUS
10
0.937015
20
0.495638
11
0.939302
21
0.49882
0
LINE
8
BLACK
6
CONTINUOUS
10
0.939302
20
0.49882
11
0.942187
21
0.502835
0
LINE
8
BLACK
6
CONTINUOUS
10
0.942187
20
0.502835
11
0.942306
21
0.503001
0
LINE
8
BLACK
6
CONTINUOUS
10
0.942306
20
0.503001
11
0.946323
21
0.511129
0
LINE
8
BLACK
6
CONTINUOUS
10
0.946323
20
0.511129
11
0.947545
21
0.51515
0
LINE
8
BLACK
6
CONTINUOUS
10
0.947545
20
0.51515
11
0.9489
21
0.519609
0
LINE
8
BLACK
6
CONTINUOUS
10
0.9489
20
0.519609
11
0.9489
21
0.519609
0
LINE
8
BLACK
6
CONTINUOUS
10
0.9489
20
0.519609
11
0.948959
21
0.519804
0
LINE
8
BLACK
6
CONTINUOUS
10
0.948959
20
0.519804
11
0.950143
21
0.528793
0
LINE
8
BLACK
6
CONTINUOUS
10
0.950143
20
0.528793
11
0.950209
21
0.531496
0
LINE
8
BLACK
6
CONTINUOUS
10
0.950209
20
0.531496
11
0.949466
21
0.540532
0
LINE
8
BLACK
6
CONTINUOUS
10
0.949466
20
0.540532
11
0.947257
21
0.549326
0
LINE
8
BLACK
6
CONTINUOUS
10
0.947257
20
0.549326
11
0.944983
21
0.554555
0
LINE
8
BLACK
6
CONTINUOUS
10
0.944983
20
0.554555
11
0.943723
21
0.557454
0
LINE
8
BLACK
6
CONTINUOUS
10
0.943723
20
0.557454
11
0.943723
21
0.557454
0
LINE
8
BLACK
6
CONTINUOUS
10
0.943723
20
0.557454
11
0.943642
21
0.557641
0
LINE
8
BLACK
6
CONTINUOUS
10
0.943642
20
0.557641
11
0.939501
21
0.564042
0
LINE
8
BLACK
6
CONTINUOUS
10
0.939501
20
0.564042
11
0.938827
21
0.565082
0
LINE
8
BLACK
6
CONTINUOUS
10
0.938827
20
0.565082
11
0.938827
21
0.565083
0
LINE
8
BLACK
6
CONTINUOUS
10
0.938827
20
0.565083
11
0.938717
21
0.565253
0
LINE
8
BLACK
6
CONTINUOUS
10
0.938717
20
0.565253
11
0.937904
21
0.566146
0
LINE
8
BLACK
6
CONTINUOUS
10
0.937904
20
0.566146
11
0.932752
21
0.571809
0
LINE
8
BLACK
6
CONTINUOUS
10
0.932752
20
0.571809
11
0.932752
21
0.571809
0
LINE
8
BLACK
6
CONTINUOUS
10
0.932752
20
0.571809
11
0.932615
21
0.571959
0
LINE
8
BLACK
6
CONTINUOUS
10
0.932615
20
0.571959
11
0.932455
21
0.572085
0
LINE
8
BLACK
6
CONTINUOUS
10
0.932455
20
0.572085
11
0.932455
21
0.572086
0
LINE
8
BLACK
6
CONTINUOUS
10
0.932455
20
0.572086
11
0.925659
21
0.577453
0
LINE
8
BLACK
6
CONTINUOUS
10
0.925659
20
0.577453
11
0.925659
21
0.577453
0
LINE
8
BLACK
6
CONTINUOUS
10
0.925659
20
0.577453
11
0.925499
21
0.577579
0
LINE
8
BLACK
6
CONTINUOUS
10
0.925499
20
0.577579
11
0.925321
21
0.577677
0
LINE
8
BLACK
6
CONTINUOUS
10
0.925321
20
0.577677
11
0.925321
21
0.577677
0
LINE
8
BLACK
6
CONTINUOUS
10
0.925321
20
0.577677
11
0.91774
21
0.581862
0
LINE
8
BLACK
6
CONTINUOUS
10
0.91774
20
0.581862
11
0.91774
21
0.581862
0
LINE
8
BLACK
6
CONTINUOUS
10
0.91774
20
0.581862
11
0.917562
21
0.581961
0
LINE
8
BLACK
6
CONTINUOUS
10
0.917562
20
0.581961
11
0.91737
21
0.582029
0
LINE
8
BLACK
6
CONTINUOUS
10
0.91737
20
0.582029
11
0.91737
21
0.582029
0
LINE
8
BLACK
6
CONTINUOUS
10
0.91737
20
0.582029
11
0.909207
21
0.584919
0
LINE
8
BLACK
6
CONTINUOUS
10
0.909207
20
0.584919
11
0.909207
21
0.584919
0
LINE
8
BLACK
6
CONTINUOUS
10
0.909207
20
0.584919
11
0.909015
21
0.584987
0
LINE
8
BLACK
6
CONTINUOUS
10
0.909015
20
0.584987
11
0.908814
21
0.585023
0
LINE
8
BLACK
6
CONTINUOUS
10
0.908814
20
0.585023
11
0.908814
21
0.585023
0
LINE
8
BLACK
6
CONTINUOUS
10
0.908814
20
0.585023
11
0.903866
21
0.585904
0
LINE
8
BLACK
6
CONTINUOUS
10
0.903866
20
0.585904
11
0.900089
21
0.586577
0
LINE
8
BLACK
6
CONTINUOUS
10
0.900089
20
0.586577
11
0.896685
21
0.586619
0
LINE
8
BLACK
6
CONTINUOUS
10
0.896685
20
0.586619
11
0.891226
21
0.586686
0
LINE
8
BLACK
6
CONTINUOUS
10
0.891226
20
0.586686
11
0.891226
21
0.586686
0
LINE
8
BLACK
6
CONTINUOUS
10
0.891226
20
0.586686
11
0.891022
21
0.586688
0
LINE
8
BLACK
6
CONTINUOUS
10
0.891022
20
0.586688
11
0.88206
21
0.585317
0
LINE
8
BLACK
6
CONTINUOUS
10
0.88206
20
0.585317
11
0.873442
21
0.5825
0
LINE
8
BLACK
6
CONTINUOUS
10
0.873442
20
0.5825
11
0.873261
21
0.582406
0
LINE
8
BLACK
6
CONTINUOUS
10
0.873261
20
0.582406
11
0.873261
21
0.582406
0
LINE
8
BLACK
6
CONTINUOUS
10
0.873261
20
0.582406
11
0.867713
21
0.579518
0
LINE
8
BLACK
6
CONTINUOUS
10
0.867713
20
0.579518
11
0.8654
21
0.578313
0
LINE
8
BLACK
6
CONTINUOUS
10
0.8654
20
0.578313
11
0.858149
21
0.572869
0
LINE
8
BLACK
6
CONTINUOUS
10
0.858149
20
0.572869
11
0.851885
21
0.566314
0
LINE
8
BLACK
6
CONTINUOUS
10
0.851885
20
0.566314
11
0.85177
21
0.566146
0
LINE
8
BLACK
6
CONTINUOUS
10
0.85177
20
0.566146
11
0.85177
21
0.566146
0
LINE
8
BLACK
6
CONTINUOUS
10
0.85177
20
0.566146
11
0.850806
21
0.564733
0
LINE
8
BLACK
6
CONTINUOUS
10
0.850806
20
0.564733
11
0.846776
21
0.558824
0
LINE
8
BLACK
6
CONTINUOUS
10
0.846776
20
0.558824
11
0.84669
21
0.55864
0
LINE
8
BLACK
6
CONTINUOUS
10
0.84669
20
0.55864
11
0.84669
21
0.558639
0
LINE
8
BLACK
6
CONTINUOUS
10
0.84669
20
0.558639
11
0.843044
21
0.550785
0
LINE
8
BLACK
6
CONTINUOUS
10
0.843044
20
0.550785
11
0.842958
21
0.5506
0
LINE
8
BLACK
6
CONTINUOUS
10
0.842958
20
0.5506
11
0.840535
21
0.541863
0
LINE
8
BLACK
6
CONTINUOUS
10
0.840535
20
0.541863
11
0.839572
21
0.532848
0
LINE
8
BLACK
6
CONTINUOUS
10
0.839572
20
0.532848
11
0.839583
21
0.532645
0
LINE
8
BLACK
6
CONTINUOUS
10
0.839583
20
0.532645
11
0.839583
21
0.532645
0
LINE
8
BLACK
6
CONTINUOUS
10
0.839583
20
0.532645
11
0.839798
21
0.528925
0
LINE
8
BLACK
6
CONTINUOUS
10
0.839798
20
0.528925
11
0.840094
21
0.523796
0
LINE
8
BLACK
6
CONTINUOUS
10
0.840094
20
0.523796
11
0.840138
21
0.523597
0
LINE
8
BLACK
6
CONTINUOUS
10
0.840138
20
0.523597
11
0.840138
21
0.523597
0
LINE
8
BLACK
6
CONTINUOUS
10
0.840138
20
0.523597
11
0.840993
21
0.519804
0
LINE
8
BLACK
6
CONTINUOUS
10
0.840993
20
0.519804
11
0.842087
21
0.514951
0
LINE
8
BLACK
6
CONTINUOUS
10
0.842087
20
0.514951
11
0.842163
21
0.514763
0
LINE
8
BLACK
6
CONTINUOUS
10
0.842163
20
0.514763
11
0.842163
21
0.514763
0
LINE
8
BLACK
6
CONTINUOUS
10
0.842163
20
0.514763
11
0.843639
21
0.511129
0
LINE
8
BLACK
6
CONTINUOUS
10
0.843639
20
0.511129
11
0.845498
21
0.50655
0
LINE
8
BLACK
6
CONTINUOUS
10
0.845498
20
0.50655
11
0.850235
21
0.49882
0
LINE
8
BLACK
6
CONTINUOUS
10
0.850235
20
0.49882
11
0.856172
21
0.491967
0
LINE
8
BLACK
6
CONTINUOUS
10
0.856172
20
0.491967
11
0.863148
21
0.486175
0
LINE
8
BLACK
6
CONTINUOUS
10
0.863148
20
0.486175
11
0.870976
21
0.481601
0
LINE
8
BLACK
6
CONTINUOUS
10
0.870976
20
0.481601
11
0.879446
21
0.478366
0
LINE
8
BLACK
6
CONTINUOUS
10
0.879446
20
0.478366
11
0.879646
21
0.478326
0
LINE
8
BLACK
6
CONTINUOUS
10
0.879646
20
0.478326
11
0.879646
21
0.478326
0
LINE
8
BLACK
6
CONTINUOUS
10
0.879646
20
0.478326
11
0.879822
21
0.47829
0
LINE
8
BLACK
6
CONTINUOUS
10
0.879822
20
0.47829
11
0.888331
21
0.476559
0
LINE
8
BLACK
6
CONTINUOUS
10
0.888331
20
0.476559
11
0.893439
21
0.476371
0
LINE
8
BLACK
6
CONTINUOUS
10
0.893439
20
0.476371
11
0.897188
21
0.476234
0
LINE
8
BLACK
6
CONTINUOUS
10
0.897188
20
0.476234
11
0.897189
21
0.476234
0
LINE
8
BLACK
6
CONTINUOUS
10
0.897189
20
0.476234
11
0.897392
21
0.476226
0
LINE
8
BLACK
6
CONTINUOUS
10
0.897392
20
0.476226
11
0.897593
21
0.476252
0
LINE
8
BLACK
6
CONTINUOUS
10
0.897593
20
0.476252
11
0.897593
21
0.476252
0
LINE
8
BLACK
6
CONTINUOUS
10
0.897593
20
0.476252
11
0.900326
21
0.476602
0
LINE
8
BLACK
6
CONTINUOUS
10
0.900326
20
0.476602
11
0.906385
21
0.477378
0
LINE
8
BLACK
6
CONTINUOUS
10
0.906385
20
0.477378
11
0.90658
21
0.477437
0
LINE
8
BLACK
6
CONTINUOUS
10
0.90658
20
0.477437
11
0.90658
21
0.477437
0
LINE
8
BLACK
6
CONTINUOUS
10
0.90658
20
0.477437
11
0.914874
21
0.479925
0
LINE
8
BLACK
6
CONTINUOUS
10
0.914874
20
0.479925
11
0.914874
21
0.479925
0
LINE
8
BLACK
6
CONTINUOUS
10
0.914874
20
0.479925
11
0.915069
21
0.479984
0
LINE
8
BLACK
6
CONTINUOUS
10
0.915069
20
0.479984
11
0.922195
21
0.483474
0
LINE
8
BLACK
6
CONTINUOUS
10
0.922195
20
0.483474
11
0.923212
21
0.483973
0
LINE
8
BLACK
6
CONTINUOUS
10
0.923212
20
0.483973
11
0.930593
21
0.489238
0
LINE
8
BLACK
6
CONTINUOUS
10
0.576796
20
0.677984
11
0.580227
21
0.672879
0
LINE
8
BLACK
6
CONTINUOUS
10
0.580227
20
0.672879
11
0.580448
21
0.672678
0
LINE
8
BLACK
6
CONTINUOUS
10
0.580448
20
0.672678
11
0.580448
21
0.672678
0
LINE
8
BLACK
6
CONTINUOUS
10
0.580448
20
0.672678
11
0.584555
21
0.66894
0
LINE
8
BLACK
6
CONTINUOUS
10
0.584555
20
0.66894
11
0.584556
21
0.66894
0
LINE
8
BLACK
6
CONTINUOUS
10
0.584556
20
0.66894
11
0.584777
21
0.668739
0
LINE
8
BLACK
6
CONTINUOUS
10
0.584777
20
0.668739
11
0.58504
21
0.668596
0
LINE
8
BLACK
6
CONTINUOUS
10
0.58504
20
0.668596
11
0.58504
21
0.668596
0
LINE
8
BLACK
6
CONTINUOUS
10
0.58504
20
0.668596
11
0.589919
21
0.665947
0
LINE
8
BLACK
6
CONTINUOUS
10
0.589919
20
0.665947
11
0.589919
21
0.665947
0
LINE
8
BLACK
6
CONTINUOUS
10
0.589919
20
0.665947
11
0.590182
21
0.665804
0
LINE
8
BLACK
6
CONTINUOUS
10
0.590182
20
0.665804
11
0.590472
21
0.665728
0
LINE
8
BLACK
6
CONTINUOUS
10
0.590472
20
0.665728
11
0.595843
21
0.664319
0
LINE
8
BLACK
6
CONTINUOUS
10
0.595843
20
0.664319
11
0.595843
21
0.664319
0
LINE
8
BLACK
6
CONTINUOUS
10
0.595843
20
0.664319
11
0.596132
21
0.664243
0
LINE
8
BLACK
6
CONTINUOUS
10
0.596132
20
0.664243
11
0.599387
21
0.664192
0
LINE
8
BLACK
6
CONTINUOUS
10
0.599387
20
0.664192
11
0.601983
21
0.664151
0
LINE
8
BLACK
6
CONTINUOUS
10
0.601983
20
0.664151
11
0.601983
21
0.664151
0
LINE
8
BLACK
6
CONTINUOUS
10
0.601983
20
0.664151
11
0.602282
21
0.664146
0
LINE
8
BLACK
6
CONTINUOUS
10
0.602282
20
0.664146
11
0.604754
21
0.664713
0
LINE
8
BLACK
6
CONTINUOUS
10
0.604754
20
0.664713
11
0.607987
21
0.665453
0
LINE
8
BLACK
6
CONTINUOUS
10
0.607987
20
0.665453
11
0.607987
21
0.665453
0
LINE
8
BLACK
6
CONTINUOUS
10
0.607987
20
0.665453
11
0.608278
21
0.66552
0
LINE
8
BLACK
6
CONTINUOUS
10
0.608278
20
0.66552
11
0.613773
21
0.668283
0
LINE
8
BLACK
6
CONTINUOUS
10
0.613773
20
0.668283
11
0.617042
21
0.671075
0
LINE
8
BLACK
6
CONTINUOUS
10
0.617042
20
0.671075
11
0.619593
21
0.672218
0
LINE
8
BLACK
6
CONTINUOUS
10
0.619593
20
0.672218
11
0.620264
21
0.672264
0
LINE
8
BLACK
6
CONTINUOUS
10
0.620264
20
0.672264
11
1.08981
21
0.672264
0
LINE
8
BLACK
6
CONTINUOUS
10
1.08981
20
0.672264
11
1.09249
21
0.671476
0
LINE
8
BLACK
6
CONTINUOUS
10
1.09249
20
0.671476
11
1.09315
21
0.670972
0
LINE
8
BLACK
6
CONTINUOUS
10
1.09315
20
0.670972
11
1.09517
21
0.669133
0
LINE
8
BLACK
6
CONTINUOUS
10
1.09517
20
0.669133
11
1.09543
21
0.66899
0
LINE
8
BLACK
6
CONTINUOUS
10
1.09543
20
0.66899
11
1.09543
21
0.66899
0
LINE
8
BLACK
6
CONTINUOUS
10
1.09543
20
0.66899
11
1.10031
21
0.66634
0
LINE
8
BLACK
6
CONTINUOUS
10
1.10031
20
0.66634
11
1.10031
21
0.66634
0
LINE
8
BLACK
6
CONTINUOUS
10
1.10031
20
0.66634
11
1.10058
21
0.666198
0
LINE
8
BLACK
6
CONTINUOUS
10
1.10058
20
0.666198
11
1.10087
21
0.666122
0
LINE
8
BLACK
6
CONTINUOUS
10
1.10087
20
0.666122
11
1.10624
21
0.664713
0
LINE
8
BLACK
6
CONTINUOUS
10
1.10624
20
0.664713
11
1.10624
21
0.664713
0
LINE
8
BLACK
6
CONTINUOUS
10
1.10624
20
0.664713
11
1.10653
21
0.664637
0
LINE
8
BLACK
6
CONTINUOUS
10
1.10653
20
0.664637
11
1.10978
21
0.664586
0
LINE
8
BLACK
6
CONTINUOUS
10
1.10978
20
0.664586
11
1.11238
21
0.664545
0
LINE
8
BLACK
6
CONTINUOUS
10
1.11238
20
0.664545
11
1.11238
21
0.664545
0
LINE
8
BLACK
6
CONTINUOUS
10
1.11238
20
0.664545
11
1.11268
21
0.66454
0
LINE
8
BLACK
6
CONTINUOUS
10
1.11268
20
0.66454
11
1.11479
21
0.665023
0
LINE
8
BLACK
6
CONTINUOUS
10
1.11479
20
0.665023
11
1.11838
21
0.665847
0
LINE
8
BLACK
6
CONTINUOUS
10
1.11838
20
0.665847
11
1.11838
21
0.665847
0
LINE
8
BLACK
6
CONTINUOUS
10
1.11838
20
0.665847
11
1.11867
21
0.665913
0
LINE
8
BLACK
6
CONTINUOUS
10
1.11867
20
0.665913
11
1.12417
21
0.668677
0
LINE
8
BLACK
6
CONTINUOUS
10
1.12417
20
0.668677
11
1.12697
21
0.671075
0
LINE
8
BLACK
6
CONTINUOUS
10
1.12697
20
0.671075
11
1.12862
21
0.672478
0
LINE
8
BLACK
6
CONTINUOUS
10
1.12862
20
0.672478
11
1.12862
21
0.672478
0
LINE
8
BLACK
6
CONTINUOUS
10
1.12862
20
0.672478
11
1.12884
21
0.672672
0
LINE
8
BLACK
6
CONTINUOUS
10
1.12884
20
0.672672
11
1.13243
21
0.677667
0
LINE
8
BLACK
6
CONTINUOUS
10
1.13243
20
0.677667
11
1.13256
21
0.677984
0
LINE
8
BLACK
6
CONTINUOUS
10
1.13256
20
0.677984
11
1.13462
21
0.683097
0
LINE
8
BLACK
6
CONTINUOUS
10
1.13462
20
0.683097
11
1.13462
21
0.683097
0
LINE
8
BLACK
6
CONTINUOUS
10
1.13462
20
0.683097
11
1.13473
21
0.683374
0
LINE
8
BLACK
6
CONTINUOUS
10
1.13473
20
0.683374
11
1.13559
21
0.689464
0
LINE
8
BLACK
6
CONTINUOUS
10
1.13559
20
0.689464
11
1.1356
21
0.69
0
LINE
8
BLACK
6
CONTINUOUS
10
1.1356
20
0.69
11
1.13486
21
0.696106
0
LINE
8
BLACK
6
CONTINUOUS
10
1.13486
20
0.696106
11
1.13269
21
0.70186
0
LINE
8
BLACK
6
CONTINUOUS
10
1.13269
20
0.70186
11
1.13252
21
0.702107
0
LINE
8
BLACK
6
CONTINUOUS
10
1.13252
20
0.702107
11
1.13252
21
0.702107
0
LINE
8
BLACK
6
CONTINUOUS
10
1.13252
20
0.702107
11
1.12937
21
0.706683
0
LINE
8
BLACK
6
CONTINUOUS
10
1.12937
20
0.706683
11
1.12937
21
0.706683
0
LINE
8
BLACK
6
CONTINUOUS
10
1.12937
20
0.706683
11
1.1292
21
0.70693
0
LINE
8
BLACK
6
CONTINUOUS
10
1.1292
20
0.70693
11
1.1283
21
0.707736
0
LINE
8
BLACK
6
CONTINUOUS
10
1.1283
20
0.707736
11
1.12483
21
0.710823
0
LINE
8
BLACK
6
CONTINUOUS
10
1.12483
20
0.710823
11
1.12483
21
0.710823
0
LINE
8
BLACK
6
CONTINUOUS
10
1.12483
20
0.710823
11
1.12461
21
0.711021
0
LINE
8
BLACK
6
CONTINUOUS
10
1.12461
20
0.711021
11
1.12435
21
0.711161
0
LINE
8
BLACK
6
CONTINUOUS
10
1.12435
20
0.711161
11
1.11944
21
0.71376
0
LINE
8
BLACK
6
CONTINUOUS
10
1.11944
20
0.71376
11
1.11944
21
0.71376
0
LINE
8
BLACK
6
CONTINUOUS
10
1.11944
20
0.71376
11
1.11917
21
0.7139
0
LINE
8
BLACK
6
CONTINUOUS
10
1.11917
20
0.7139
11
1.11321
21
0.715398
0
LINE
8
BLACK
6
CONTINUOUS
10
1.11321
20
0.715398
11
1.11291
21
0.7154
0
LINE
8
BLACK
6
CONTINUOUS
10
1.11291
20
0.7154
11
1.11291
21
0.7154
0
LINE
8
BLACK
6
CONTINUOUS
10
1.11291
20
0.7154
11
1.11033
21
0.715413
0
LINE
8
BLACK
6
CONTINUOUS
10
1.11033
20
0.715413
11
1.10706
21
0.71543
0
LINE
8
BLACK
6
CONTINUOUS
10
1.10706
20
0.71543
11
1.10677
21
0.715361
0
LINE
8
BLACK
6
CONTINUOUS
10
1.10677
20
0.715361
11
1.10677
21
0.715361
0
LINE
8
BLACK
6
CONTINUOUS
10
1.10677
20
0.715361
11
1.10386
21
0.714664
0
LINE
8
BLACK
6
CONTINUOUS
10
1.10386
20
0.714664
11
1.10108
21
0.713994
0
LINE
8
BLACK
6
CONTINUOUS
10
1.10108
20
0.713994
11
1.09561
21
0.711173
0
LINE
8
BLACK
6
CONTINUOUS
10
1.09561
20
0.711173
11
1.09314
21
0.709021
0
LINE
8
BLACK
6
CONTINUOUS
10
1.09314
20
0.709021
11
1.09307
21
0.708959
0
LINE
8
BLACK
6
CONTINUOUS
10
1.09307
20
0.708959
11
1.09053
21
0.707789
0
LINE
8
BLACK
6
CONTINUOUS
10
1.09053
20
0.707789
11
1.08981
21
0.707736
0
LINE
8
BLACK
6
CONTINUOUS
10
1.08981
20
0.707736
11
0.619351
21
0.707736
0
LINE
8
BLACK
6
CONTINUOUS
10
0.619351
20
0.707736
11
0.616669
21
0.708524
0
LINE
8
BLACK
6
CONTINUOUS
10
0.616669
20
0.708524
11
0.616051
21
0.708993
0
LINE
8
BLACK
6
CONTINUOUS
10
0.616051
20
0.708993
11
0.61444
21
0.710429
0
LINE
8
BLACK
6
CONTINUOUS
10
0.61444
20
0.710429
11
0.61444
21
0.710429
0
LINE
8
BLACK
6
CONTINUOUS
10
0.61444
20
0.710429
11
0.614217
21
0.710628
0
LINE
8
BLACK
6
CONTINUOUS
10
0.614217
20
0.710628
11
0.613952
21
0.710768
0
LINE
8
BLACK
6
CONTINUOUS
10
0.613952
20
0.710768
11
0.609045
21
0.713366
0
LINE
8
BLACK
6
CONTINUOUS
10
0.609045
20
0.713366
11
0.609045
21
0.713366
0
LINE
8
BLACK
6
CONTINUOUS
10
0.609045
20
0.713366
11
0.608781
21
0.713506
0
LINE
8
BLACK
6
CONTINUOUS
10
0.608781
20
0.713506
11
0.602815
21
0.715004
0
LINE
8
BLACK
6
CONTINUOUS
10
0.602815
20
0.715004
11
0.602516
21
0.715006
0
LINE
8
BLACK
6
CONTINUOUS
10
0.602516
20
0.715006
11
0.602516
21
0.715006
0
LINE
8
BLACK
6
CONTINUOUS
10
0.602516
20
0.715006
11
0.599934
21
0.71502
0
LINE
8
BLACK
6
CONTINUOUS
10
0.599934
20
0.71502
11
0.596664
21
0.715037
0
LINE
8
BLACK
6
CONTINUOUS
10
0.596664
20
0.715037
11
0.596373
21
0.714967
0
LINE
8
BLACK
6
CONTINUOUS
10
0.596373
20
0.714967
11
0.596373
21
0.714967
0
LINE
8
BLACK
6
CONTINUOUS
10
0.596373
20
0.714967
11
0.593471
21
0.71427
0
LINE
8
BLACK
6
CONTINUOUS
10
0.593471
20
0.71427
11
0.590683
21
0.713601
0
LINE
8
BLACK
6
CONTINUOUS
10
0.590683
20
0.713601
11
0.585217
21
0.71078
0
LINE
8
BLACK
6
CONTINUOUS
10
0.585217
20
0.71078
11
0.580582
21
0.706736
0
LINE
8
BLACK
6
CONTINUOUS
10
0.580582
20
0.706736
11
0.58041
21
0.706491
0
LINE
8
BLACK
6
CONTINUOUS
10
0.58041
20
0.706491
11
0.577328
21
0.702107
0
LINE
8
BLACK
6
CONTINUOUS
10
0.577328
20
0.702107
11
0.577045
21
0.701704
0
LINE
8
BLACK
6
CONTINUOUS
10
0.577045
20
0.701704
11
0.574811
21
0.695973
0
LINE
8
BLACK
6
CONTINUOUS
10
0.574811
20
0.695973
11
0.574008
21
0.689874
0
LINE
8
BLACK
6
CONTINUOUS
10
0.574008
20
0.689874
11
0.574683
21
0.683761
0
LINE
8
BLACK
6
CONTINUOUS
10
0.574683
20
0.683761
11
0.576796
21
0.677984
0
LINE
8
BLACK
6
CONTINUOUS
10
0.546671
20
0.478561
11
0.549282
21
0.476816
0
LINE
8
BLACK
6
CONTINUOUS
10
0.549282
20
0.476816
11
0.549761
21
0.476721
0
LINE
8
BLACK
6
CONTINUOUS
10
0.549761
20
0.476721
11
0.549761
21
0.476721
0
LINE
8
BLACK
6
CONTINUOUS
10
0.549761
20
0.476721
11
0.550615
21
0.476551
0
LINE
8
BLACK
6
CONTINUOUS
10
0.550615
20
0.476551
11
0.551585
21
0.476358
0
LINE
8
BLACK
6
CONTINUOUS
10
0.551585
20
0.476358
11
0.647628
21
0.476358
0
LINE
8
BLACK
6
CONTINUOUS
10
0.647628
20
0.476358
11
0.648597
21
0.476551
0
LINE
8
BLACK
6
CONTINUOUS
10
0.648597
20
0.476551
11
0.649451
21
0.476721
0
LINE
8
BLACK
6
CONTINUOUS
10
0.649451
20
0.476721
11
0.649451
21
0.476721
0
LINE
8
BLACK
6
CONTINUOUS
10
0.649451
20
0.476721
11
0.64993
21
0.476816
0
LINE
8
BLACK
6
CONTINUOUS
10
0.64993
20
0.476816
11
0.652541
21
0.478561
0
LINE
8
BLACK
6
CONTINUOUS
10
0.652541
20
0.478561
11
0.654286
21
0.481172
0
LINE
8
BLACK
6
CONTINUOUS
10
0.654286
20
0.481172
11
0.654744
21
0.483474
0
LINE
8
BLACK
6
CONTINUOUS
10
0.654744
20
0.483474
11
0.654744
21
0.579518
0
LINE
8
BLACK
6
CONTINUOUS
10
0.654744
20
0.579518
11
0.654286
21
0.58182
0
LINE
8
BLACK
6
CONTINUOUS
10
0.654286
20
0.58182
11
0.652541
21
0.584431
0
LINE
8
BLACK
6
CONTINUOUS
10
0.652541
20
0.584431
11
0.64993
21
0.586176
0
LINE
8
BLACK
6
CONTINUOUS
10
0.64993
20
0.586176
11
0.649451
21
0.586271
0
LINE
8
BLACK
6
CONTINUOUS
10
0.649451
20
0.586271
11
0.649451
21
0.586271
0
LINE
8
BLACK
6
CONTINUOUS
10
0.649451
20
0.586271
11
0.647867
21
0.586586
0
LINE
8
BLACK
6
CONTINUOUS
10
0.647867
20
0.586586
11
0.647628
21
0.586634
0
LINE
8
BLACK
6
CONTINUOUS
10
0.647628
20
0.586634
11
0.551585
21
0.586634
0
LINE
8
BLACK
6
CONTINUOUS
10
0.551585
20
0.586634
11
0.551346
21
0.586586
0
LINE
8
BLACK
6
CONTINUOUS
10
0.551346
20
0.586586
11
0.549761
21
0.586271
0
LINE
8
BLACK
6
CONTINUOUS
10
0.549761
20
0.586271
11
0.549761
21
0.586271
0
LINE
8
BLACK
6
CONTINUOUS
10
0.549761
20
0.586271
11
0.549282
21
0.586176
0
LINE
8
BLACK
6
CONTINUOUS
10
0.549282
20
0.586176
11
0.546671
21
0.584431
0
LINE
8
BLACK
6
CONTINUOUS
10
0.546671
20
0.584431
11
0.544926
21
0.58182
0
LINE
8
BLACK
6
CONTINUOUS
10
0.544926
20
0.58182
11
0.544469
21
0.579518
0
LINE
8
BLACK
6
CONTINUOUS
10
0.544469
20
0.579518
11
0.544469
21
0.483474
0
LINE
8
BLACK
6
CONTINUOUS
10
0.544469
20
0.483474
11
0.544926
21
0.481172
0
LINE
8
BLACK
6
CONTINUOUS
10
0.544926
20
0.481172
11
0.546671
21
0.478561
0
LINE
8
BLACK
6
CONTINUOUS
10
1.45218
20
0.478561
11
1.45479
21
0.476816
0
LINE
8
BLACK
6
CONTINUOUS
10
1.45479
20
0.476816
11
1.45527
21
0.476721
0
LINE
8
BLACK
6
CONTINUOUS
10
1.45527
20
0.476721
11
1.45527
21
0.476721
0
LINE
8
BLACK
6
CONTINUOUS
10
1.45527
20
0.476721
11
1.45613
21
0.476551
0
LINE
8
BLACK
6
CONTINUOUS
10
1.45613
20
0.476551
11
1.4571
21
0.476358
0
LINE
8
BLACK
6
CONTINUOUS
10
1.4571
20
0.476358
11
1.55314
21
0.476358
0
LINE
8
BLACK
6
CONTINUOUS
10
1.55314
20
0.476358
11
1.55411
21
0.476551
0
LINE
8
BLACK
6
CONTINUOUS
10
1.55411
20
0.476551
11
1.55496
21
0.476721
0
LINE
8
BLACK
6
CONTINUOUS
10
1.55496
20
0.476721
11
1.55496
21
0.476721
0
LINE
8
BLACK
6
CONTINUOUS
10
1.55496
20
0.476721
11
1.55544
21
0.476816
0
LINE
8
BLACK
6
CONTINUOUS
10
1.55544
20
0.476816
11
1.55805
21
0.478561
0
LINE
8
BLACK
6
CONTINUOUS
10
1.55805
20
0.478561
11
1.5598
21
0.481172
0
LINE
8
BLACK
6
CONTINUOUS
10
1.5598
20
0.481172
11
1.56026
21
0.483474
0
LINE
8
BLACK
6
CONTINUOUS
10
1.56026
20
0.483474
11
1.56026
21
0.579518
0
LINE
8
BLACK
6
CONTINUOUS
10
1.56026
20
0.579518
11
1.5598
21
0.58182
0
LINE
8
BLACK
6
CONTINUOUS
10
1.5598
20
0.58182
11
1.55805
21
0.584431
0
LINE
8
BLACK
6
CONTINUOUS
10
1.55805
20
0.584431
11
1.55544
21
0.586176
0
LINE
8
BLACK
6
CONTINUOUS
10
1.55544
20
0.586176
11
1.55496
21
0.586271
0
LINE
8
BLACK
6
CONTINUOUS
10
1.55496
20
0.586271
11
1.55496
21
0.586271
0
LINE
8
BLACK
6
CONTINUOUS
10
1.55496
20
0.586271
11
1.55338
21
0.586586
0
LINE
8
BLACK
6
CONTINUOUS
10
1.55338
20
0.586586
11
1.55314
21
0.586634
0
LINE
8
BLACK
6
CONTINUOUS
10
1.55314
20
0.586634
11
1.4571
21
0.586634
0
LINE
8
BLACK
6
CONTINUOUS
10
1.4571
20
0.586634
11
1.45686
21
0.586586
0
LINE
8
BLACK
6
CONTINUOUS
10
1.45686
20
0.586586
11
1.45527
21
0.586271
0
LINE
8
BLACK
6
CONTINUOUS
10
1.45527
20
0.586271
11
1.45527
21
0.586271
0
LINE
8
BLACK
6
CONTINUOUS
10
1.45527
20
0.586271
11
1.45479
21
0.586176
0
LINE
8
BLACK
6
CONTINUOUS
10
1.45479
20
0.586176
11
1.45218
21
0.584431
0
LINE
8
BLACK
6
CONTINUOUS
10
1.45218
20
0.584431
11
1.45044
21
0.58182
0
LINE
8
BLACK
6
CONTINUOUS
10
1.45044
20
0.58182
11
1.44998
21
0.579518
0
LINE
8
BLACK
6
CONTINUOUS
10
1.44998
20
0.579518
11
1.44998
21
0.483474
0
LINE
8
BLACK
6
CONTINUOUS
10
1.44998
20
0.483474
11
1.45044
21
0.481172
0
LINE
8
BLACK
6
CONTINUOUS
10
1.45044
20
0.481172
11
1.45218
21
0.478561
0
LINE
8
BLACK
6
CONTINUOUS
10
0.323656
20
0.210245
11
0.321911
21
0.212856
0
LINE
8
BLACK
6
CONTINUOUS
10
0.321911
20
0.212856
11
0.3193
21
0.214601
0
LINE
8
BLACK
6
CONTINUOUS
10
0.3193
20
0.214601
11
0.318821
21
0.214696
0
LINE
8
BLACK
6
CONTINUOUS
10
0.318821
20
0.214696
11
0.318821
21
0.214696
0
LINE
8
BLACK
6
CONTINUOUS
10
0.318821
20
0.214696
11
0.317237
21
0.215012
0
LINE
8
BLACK
6
CONTINUOUS
10
0.317237
20
0.215012
11
0.316998
21
0.215059
0
LINE
8
BLACK
6
CONTINUOUS
10
0.316998
20
0.215059
11
0.308917
21
0.215059
0
LINE
8
BLACK
6
CONTINUOUS
10
0.308917
20
0.215059
11
0.306235
21
0.215847
0
LINE
8
BLACK
6
CONTINUOUS
10
0.306235
20
0.215847
11
0.304405
21
0.217959
0
LINE
8
BLACK
6
CONTINUOUS
10
0.304405
20
0.217959
11
0.303957
21
0.22002
0
LINE
8
BLACK
6
CONTINUOUS
10
0.303957
20
0.22002
11
0.303957
21
0.571819
0
LINE
8
BLACK
6
CONTINUOUS
10
0.303957
20
0.571819
11
0.304744
21
0.574501
0
LINE
8
BLACK
6
CONTINUOUS
10
0.304744
20
0.574501
11
0.30541
21
0.575327
0
LINE
8
BLACK
6
CONTINUOUS
10
0.30541
20
0.575327
11
0.660894
21
0.930811
0
LINE
8
BLACK
6
CONTINUOUS
10
0.660894
20
0.930811
11
0.663347
21
0.93215
0
LINE
8
BLACK
6
CONTINUOUS
10
0.663347
20
0.93215
11
0.664401
21
0.932264
0
LINE
8
BLACK
6
CONTINUOUS
10
0.664401
20
0.932264
11
1.05981
21
0.932264
0
LINE
8
BLACK
6
CONTINUOUS
10
1.05981
20
0.932264
11
1.06249
21
0.931476
0
LINE
8
BLACK
6
CONTINUOUS
10
1.06249
20
0.931476
11
1.06315
21
0.930972
0
LINE
8
BLACK
6
CONTINUOUS
10
1.06315
20
0.930972
11
1.06517
21
0.929133
0
LINE
8
BLACK
6
CONTINUOUS
10
1.06517
20
0.929133
11
1.06543
21
0.92899
0
LINE
8
BLACK
6
CONTINUOUS
10
1.06543
20
0.92899
11
1.06543
21
0.92899
0
LINE
8
BLACK
6
CONTINUOUS
10
1.06543
20
0.92899
11
1.07031
21
0.92634
0
LINE
8
BLACK
6
CONTINUOUS
10
1.07031
20
0.92634
11
1.07031
21
0.92634
0
LINE
8
BLACK
6
CONTINUOUS
10
1.07031
20
0.92634
11
1.07058
21
0.926198
0
LINE
8
BLACK
6
CONTINUOUS
10
1.07058
20
0.926198
11
1.07087
21
0.926122
0
LINE
8
BLACK
6
CONTINUOUS
10
1.07087
20
0.926122
11
1.07624
21
0.924713
0
LINE
8
BLACK
6
CONTINUOUS
10
1.07624
20
0.924713
11
1.07624
21
0.924713
0
LINE
8
BLACK
6
CONTINUOUS
10
1.07624
20
0.924713
11
1.07653
21
0.924637
0
LINE
8
BLACK
6
CONTINUOUS
10
1.07653
20
0.924637
11
1.07978
21
0.924586
0
LINE
8
BLACK
6
CONTINUOUS
10
1.07978
20
0.924586
11
1.08238
21
0.924545
0
LINE
8
BLACK
6
CONTINUOUS
10
1.08238
20
0.924545
11
1.08238
21
0.924545
0
LINE
8
BLACK
6
CONTINUOUS
10
1.08238
20
0.924545
11
1.08268
21
0.92454
0
LINE
8
BLACK
6
CONTINUOUS
10
1.08268
20
0.92454
11
1.08479
21
0.925023
0
LINE
8
BLACK
6
CONTINUOUS
10
1.08479
20
0.925023
11
1.08838
21
0.925847
0
LINE
8
BLACK
6
CONTINUOUS
10
1.08838
20
0.925847
11
1.08838
21
0.925847
0
LINE
8
BLACK
6
CONTINUOUS
10
1.08838
20
0.925847
11
1.08867
21
0.925913
0
LINE
8
BLACK
6
CONTINUOUS
10
1.08867
20
0.925913
11
1.09417
21
0.928677
0
LINE
8
BLACK
6
CONTINUOUS
10
1.09417
20
0.928677
11
1.09524
21
0.929593
0
LINE
8
BLACK
6
CONTINUOUS
10
1.09524
20
0.929593
11
1.09862
21
0.932478
0
LINE
8
BLACK
6
CONTINUOUS
10
1.09862
20
0.932478
11
1.09862
21
0.932478
0
LINE
8
BLACK
6
CONTINUOUS
10
1.09862
20
0.932478
11
1.09884
21
0.932672
0
LINE
8
BLACK
6
CONTINUOUS
10
1.09884
20
0.932672
11
1.10243
21
0.937667
0
LINE
8
BLACK
6
CONTINUOUS
10
1.10243
20
0.937667
11
1.10473
21
0.943374
0
LINE
8
BLACK
6
CONTINUOUS
10
1.10473
20
0.943374
11
1.10559
21
0.949464
0
LINE
8
BLACK
6
CONTINUOUS
10
1.10559
20
0.949464
11
1.1056
21
0.95
0
LINE
8
BLACK
6
CONTINUOUS
10
1.1056
20
0.95
11
1.10486
21
0.956106
0
LINE
8
BLACK
6
CONTINUOUS
10
1.10486
20
0.956106
11
1.10312
21
0.960722
0
LINE
8
BLACK
6
CONTINUOUS
10
1.10312
20
0.960722
11
1.10279
21
0.961581
0
LINE
8
BLACK
6
CONTINUOUS
10
1.10279
20
0.961581
11
1.10279
21
0.961581
0
LINE
8
BLACK
6
CONTINUOUS
10
1.10279
20
0.961581
11
1.10269
21
0.96186
0
LINE
8
BLACK
6
CONTINUOUS
10
1.10269
20
0.96186
11
1.10252
21
0.962107
0
LINE
8
BLACK
6
CONTINUOUS
10
1.10252
20
0.962107
11
1.10252
21
0.962107
0
LINE
8
BLACK
6
CONTINUOUS
10
1.10252
20
0.962107
11
1.09937
21
0.966683
0
LINE
8
BLACK
6
CONTINUOUS
10
1.09937
20
0.966683
11
1.09937
21
0.966683
0
LINE
8
BLACK
6
CONTINUOUS
10
1.09937
20
0.966683
11
1.0992
21
0.96693
0
LINE
8
BLACK
6
CONTINUOUS
10
1.0992
20
0.96693
11
1.09896
21
0.967144
0
LINE
8
BLACK
6
CONTINUOUS
10
1.09896
20
0.967144
11
1.09483
21
0.970823
0
LINE
8
BLACK
6
CONTINUOUS
10
1.09483
20
0.970823
11
1.09483
21
0.970823
0
LINE
8
BLACK
6
CONTINUOUS
10
1.09483
20
0.970823
11
1.09461
21
0.971021
0
LINE
8
BLACK
6
CONTINUOUS
10
1.09461
20
0.971021
11
1.09435
21
0.971161
0
LINE
8
BLACK
6
CONTINUOUS
10
1.09435
20
0.971161
11
1.08944
21
0.97376
0
LINE
8
BLACK
6
CONTINUOUS
10
1.08944
20
0.97376
11
1.08944
21
0.97376
0
LINE
8
BLACK
6
CONTINUOUS
10
1.08944
20
0.97376
11
1.08917
21
0.9739
0
LINE
8
BLACK
6
CONTINUOUS
10
1.08917
20
0.9739
11
1.08321
21
0.975398
0
LINE
8
BLACK
6
CONTINUOUS
10
1.08321
20
0.975398
11
1.08291
21
0.9754
0
LINE
8
BLACK
6
CONTINUOUS
10
1.08291
20
0.9754
11
1.08291
21
0.9754
0
LINE
8
BLACK
6
CONTINUOUS
10
1.08291
20
0.9754
11
1.08033
21
0.975413
0
LINE
8
BLACK
6
CONTINUOUS
10
1.08033
20
0.975413
11
1.07706
21
0.97543
0
LINE
8
BLACK
6
CONTINUOUS
10
1.07706
20
0.97543
11
1.07677
21
0.975361
0
LINE
8
BLACK
6
CONTINUOUS
10
1.07677
20
0.975361
11
1.07677
21
0.975361
0
LINE
8
BLACK
6
CONTINUOUS
10
1.07677
20
0.975361
11
1.07386
21
0.974664
0
LINE
8
BLACK
6
CONTINUOUS
10
1.07386
20
0.974664
11
1.07108
21
0.973994
0
LINE
8
BLACK
6
CONTINUOUS
10
1.07108
20
0.973994
11
1.06561
21
0.971173
0
LINE
8
BLACK
6
CONTINUOUS
10
1.06561
20
0.971173
11
1.06314
21
0.969021
0
LINE
8
BLACK
6
CONTINUOUS
10
1.06314
20
0.969021
11
1.06307
21
0.968959
0
LINE
8
BLACK
6
CONTINUOUS
10
1.06307
20
0.968959
11
1.06053
21
0.967789
0
LINE
8
BLACK
6
CONTINUOUS
10
1.06053
20
0.967789
11
1.05981
21
0.967736
0
LINE
8
BLACK
6
CONTINUOUS
10
1.05981
20
0.967736
11
0.656347
21
0.967736
0
LINE
8
BLACK
6
CONTINUOUS
10
0.656347
20
0.967736
11
0.655764
21
0.967771
0
LINE
8
BLACK
6
CONTINUOUS
10
0.655764
20
0.967771
11
0.655608
21
0.967789
0
LINE
8
BLACK
6
CONTINUOUS
10
0.655608
20
0.967789
11
0.654437
21
0.967928
0
LINE
8
BLACK
6
CONTINUOUS
10
0.654437
20
0.967928
11
0.654072
21
0.967861
0
LINE
8
BLACK
6
CONTINUOUS
10
0.654072
20
0.967861
11
0.654072
21
0.967861
0
LINE
8
BLACK
6
CONTINUOUS
10
0.654072
20
0.967861
11
0.652165
21
0.967513
0
LINE
8
BLACK
6
CONTINUOUS
10
0.652165
20
0.967513
11
0.652011
21
0.967487
0
LINE
8
BLACK
6
CONTINUOUS
10
0.652011
20
0.967487
11
0.651116
21
0.967353
0
LINE
8
BLACK
6
CONTINUOUS
10
0.651116
20
0.967353
11
0.650093
21
0.967199
0
LINE
8
BLACK
6
CONTINUOUS
10
0.650093
20
0.967199
11
0.650093
21
0.967199
0
LINE
8
BLACK
6
CONTINUOUS
10
0.650093
20
0.967199
11
0.649726
21
0.967144
0
LINE
8
BLACK
6
CONTINUOUS
10
0.649726
20
0.967144
11
0.649469
21
0.967021
0
LINE
8
BLACK
6
CONTINUOUS
10
0.649469
20
0.967021
11
0.64919
21
0.966969
0
LINE
8
BLACK
6
CONTINUOUS
10
0.64919
20
0.966969
11
0.64714
21
0.965904
0
LINE
8
BLACK
6
CONTINUOUS
10
0.64714
20
0.965904
11
0.647002
21
0.965836
0
LINE
8
BLACK
6
CONTINUOUS
10
0.647002
20
0.965836
11
0.645252
21
0.964996
0
LINE
8
BLACK
6
CONTINUOUS
10
0.645252
20
0.964996
11
0.644918
21
0.964835
0
LINE
8
BLACK
6
CONTINUOUS
10
0.644918
20
0.964835
11
0.64471
21
0.964643
0
LINE
8
BLACK
6
CONTINUOUS
10
0.64471
20
0.964643
11
0.644708
21
0.964641
0
LINE
8
BLACK
6
CONTINUOUS
10
0.644708
20
0.964641
11
0.644457
21
0.964511
0
LINE
8
BLACK
6
CONTINUOUS
10
0.644457
20
0.964511
11
0.644259
21
0.964342
0
LINE
8
BLACK
6
CONTINUOUS
10
0.644259
20
0.964342
11
0.642793
21
0.962876
0
LINE
8
BLACK
6
CONTINUOUS
10
0.642793
20
0.962876
11
0.642653
21
0.962741
0
LINE
8
BLACK
6
CONTINUOUS
10
0.642653
20
0.962741
11
0.641002
21
0.961215
0
LINE
8
BLACK
6
CONTINUOUS
10
0.641002
20
0.961215
11
0.640856
21
0.960964
0
LINE
8
BLACK
6
CONTINUOUS
10
0.640856
20
0.960964
11
0.640639
21
0.960722
0
LINE
8
BLACK
6
CONTINUOUS
10
0.640639
20
0.960722
11
0.274632
21
0.594715
0
LINE
8
BLACK
6
CONTINUOUS
10
0.274632
20
0.594715
11
0.274195
21
0.594327
0
LINE
8
BLACK
6
CONTINUOUS
10
0.274195
20
0.594327
11
0.273437
21
0.593729
0
LINE
8
BLACK
6
CONTINUOUS
10
0.273437
20
0.593729
11
0.273437
21
0.593729
0
LINE
8
BLACK
6
CONTINUOUS
10
0.273437
20
0.593729
11
0.273145
21
0.593499
0
LINE
8
BLACK
6
CONTINUOUS
10
0.273145
20
0.593499
11
0.272934
21
0.593194
0
LINE
8
BLACK
6
CONTINUOUS
10
0.272934
20
0.593194
11
0.272934
21
0.593194
0
LINE
8
BLACK
6
CONTINUOUS
10
0.272934
20
0.593194
11
0.271832
21
0.591599
0
LINE
8
BLACK
6
CONTINUOUS
10
0.271832
20
0.591599
11
0.271742
21
0.591473
0
LINE
8
BLACK
6
CONTINUOUS
10
0.271742
20
0.591473
11
0.270369
21
0.589614
0
LINE
8
BLACK
6
CONTINUOUS
10
0.270369
20
0.589614
11
0.270275
21
0.589345
0
LINE
8
BLACK
6
CONTINUOUS
10
0.270275
20
0.589345
11
0.270113
21
0.589111
0
LINE
8
BLACK
6
CONTINUOUS
10
0.270113
20
0.589111
11
0.270001
21
0.588758
0
LINE
8
BLACK
6
CONTINUOUS
10
0.270001
20
0.588758
11
0.270001
21
0.588758
0
LINE
8
BLACK
6
CONTINUOUS
10
0.270001
20
0.588758
11
0.269417
21
0.58691
0
LINE
8
BLACK
6
CONTINUOUS
10
0.269417
20
0.58691
11
0.269367
21
0.586762
0
LINE
8
BLACK
6
CONTINUOUS
10
0.269367
20
0.586762
11
0.268757
21
0.585023
0
LINE
8
BLACK
6
CONTINUOUS
10
0.268757
20
0.585023
11
0.268602
21
0.584581
0
LINE
8
BLACK
6
CONTINUOUS
10
0.268602
20
0.584581
11
0.268591
21
0.584298
0
LINE
8
BLACK
6
CONTINUOUS
10
0.268591
20
0.584298
11
0.26859
21
0.584296
0
LINE
8
BLACK
6
CONTINUOUS
10
0.26859
20
0.584296
11
0.268505
21
0.584026
0
LINE
8
BLACK
6
CONTINUOUS
10
0.268505
20
0.584026
11
0.268484
21
0.583766
0
LINE
8
BLACK
6
CONTINUOUS
10
0.268484
20
0.583766
11
0.268484
21
0.581692
0
LINE
8
BLACK
6
CONTINUOUS
10
0.268484
20
0.581692
11
0.26848
21
0.581498
0
LINE
8
BLACK
6
CONTINUOUS
10
0.26848
20
0.581498
11
0.268392
21
0.579252
0
LINE
8
BLACK
6
CONTINUOUS
10
0.268392
20
0.579252
11
0.268466
21
0.578972
0
LINE
8
BLACK
6
CONTINUOUS
10
0.268466
20
0.578972
11
0.268484
21
0.578648
0
LINE
8
BLACK
6
CONTINUOUS
10
0.268484
20
0.578648
11
0.268484
21
0.22002
0
LINE
8
BLACK
6
CONTINUOUS
10
0.268484
20
0.22002
11
0.267697
21
0.217338
0
LINE
8
BLACK
6
CONTINUOUS
10
0.267697
20
0.217338
11
0.265584
21
0.215507
0
LINE
8
BLACK
6
CONTINUOUS
10
0.265584
20
0.215507
11
0.263524
21
0.215059
0
LINE
8
BLACK
6
CONTINUOUS
10
0.263524
20
0.215059
11
0.255443
21
0.215059
0
LINE
8
BLACK
6
CONTINUOUS
10
0.255443
20
0.215059
11
0.255204
21
0.215012
0
LINE
8
BLACK
6
CONTINUOUS
10
0.255204
20
0.215012
11
0.25362
21
0.214696
0
LINE
8
BLACK
6
CONTINUOUS
10
0.25362
20
0.214696
11
0.25362
21
0.214696
0
LINE
8
BLACK
6
CONTINUOUS
10
0.25362
20
0.214696
11
0.253141
21
0.214601
0
LINE
8
BLACK
6
CONTINUOUS
10
0.253141
20
0.214601
11
0.250529
21
0.212856
0
LINE
8
BLACK
6
CONTINUOUS
10
0.250529
20
0.212856
11
0.248785
21
0.210245
0
LINE
8
BLACK
6
CONTINUOUS
10
0.248785
20
0.210245
11
0.248327
21
0.207943
0
LINE
8
BLACK
6
CONTINUOUS
10
0.248327
20
0.207943
11
0.248327
21
0.146388
0
LINE
8
BLACK
6
CONTINUOUS
10
0.248327
20
0.146388
11
0.248785
21
0.144085
0
LINE
8
BLACK
6
CONTINUOUS
10
0.248785
20
0.144085
11
0.250529
21
0.141474
0
LINE
8
BLACK
6
CONTINUOUS
10
0.250529
20
0.141474
11
0.253141
21
0.13973
0
LINE
8
BLACK
6
CONTINUOUS
10
0.253141
20
0.13973
11
0.25362
21
0.139634
0
LINE
8
BLACK
6
CONTINUOUS
10
0.25362
20
0.139634
11
0.25362
21
0.139634
0
LINE
8
BLACK
6
CONTINUOUS
10
0.25362
20
0.139634
11
0.255204
21
0.139319
0
LINE
8
BLACK
6
CONTINUOUS
10
0.255204
20
0.139319
11
0.255443
21
0.139272
0
LINE
8
BLACK
6
CONTINUOUS
10
0.255443
20
0.139272
11
0.316998
21
0.139272
0
LINE
8
BLACK
6
CONTINUOUS
10
0.316998
20
0.139272
11
0.317237
21
0.139319
0
LINE
8
BLACK
6
CONTINUOUS
10
0.317237
20
0.139319
11
0.318821
21
0.139634
0
LINE
8
BLACK
6
CONTINUOUS
10
0.318821
20
0.139634
11
0.318821
21
0.139634
0
LINE
8
BLACK
6
CONTINUOUS
10
0.318821
20
0.139634
11
0.3193
21
0.13973
0
LINE
8
BLACK
6
CONTINUOUS
10
0.3193
20
0.13973
11
0.321911
21
0.141474
0
LINE
8
BLACK
6
CONTINUOUS
10
0.321911
20
0.141474
11
0.323656
21
0.144085
0
LINE
8
BLACK
6
CONTINUOUS
10
0.323656
20
0.144085
11
0.324114
21
0.146388
0
LINE
8
BLACK
6
CONTINUOUS
10
0.324114
20
0.146388
11
0.324114
21
0.207943
0
LINE
8
BLACK
6
CONTINUOUS
10
0.324114
20
0.207943
11
0.323656
21
0.210245
0
LINE
8
BLACK
6
CONTINUOUS
10
0.930593
20
1.39475
11
0.937015
21
1.40115
0
LINE
8
BLACK
6
CONTINUOUS
10
0.937015
20
1.40115
11
0.939302
21
1.40433
0
LINE
8
BLACK
6
CONTINUOUS
10
0.939302
20
1.40433
11
0.942187
21
1.40835
0
LINE
8
BLACK
6
CONTINUOUS
10
0.942187
20
1.40835
11
0.942306
21
1.40851
0
LINE
8
BLACK
6
CONTINUOUS
10
0.942306
20
1.40851
11
0.946323
21
1.41664
0
LINE
8
BLACK
6
CONTINUOUS
10
0.946323
20
1.41664
11
0.947545
21
1.42066
0
LINE
8
BLACK
6
CONTINUOUS
10
0.947545
20
1.42066
11
0.9489
21
1.42512
0
LINE
8
BLACK
6
CONTINUOUS
10
0.9489
20
1.42512
11
0.9489
21
1.42512
0
LINE
8
BLACK
6
CONTINUOUS
10
0.9489
20
1.42512
11
0.948959
21
1.42532
0
LINE
8
BLACK
6
CONTINUOUS
10
0.948959
20
1.42532
11
0.950143
21
1.43431
0
LINE
8
BLACK
6
CONTINUOUS
10
0.950143
20
1.43431
11
0.950209
21
1.43701
0
LINE
8
BLACK
6
CONTINUOUS
10
0.950209
20
1.43701
11
0.949466
21
1.44604
0
LINE
8
BLACK
6
CONTINUOUS
10
0.949466
20
1.44604
11
0.947257
21
1.45484
0
LINE
8
BLACK
6
CONTINUOUS
10
0.947257
20
1.45484
11
0.943642
21
1.46315
0
LINE
8
BLACK
6
CONTINUOUS
10
0.943642
20
1.46315
11
0.938717
21
1.47077
0
LINE
8
BLACK
6
CONTINUOUS
10
0.938717
20
1.47077
11
0.937904
21
1.47166
0
LINE
8
BLACK
6
CONTINUOUS
10
0.937904
20
1.47166
11
0.932752
21
1.47732
0
LINE
8
BLACK
6
CONTINUOUS
10
0.932752
20
1.47732
11
0.932752
21
1.47732
0
LINE
8
BLACK
6
CONTINUOUS
10
0.932752
20
1.47732
11
0.932615
21
1.47747
0
LINE
8
BLACK
6
CONTINUOUS
10
0.932615
20
1.47747
11
0.932455
21
1.4776
0
LINE
8
BLACK
6
CONTINUOUS
10
0.932455
20
1.4776
11
0.932455
21
1.4776
0
LINE
8
BLACK
6
CONTINUOUS
10
0.932455
20
1.4776
11
0.925659
21
1.48296
0
LINE
8
BLACK
6
CONTINUOUS
10
0.925659
20
1.48296
11
0.925659
21
1.48296
0
LINE
8
BLACK
6
CONTINUOUS
10
0.925659
20
1.48296
11
0.925499
21
1.48309
0
LINE
8
BLACK
6
CONTINUOUS
10
0.925499
20
1.48309
11
0.925321
21
1.48319
0
LINE
8
BLACK
6
CONTINUOUS
10
0.925321
20
1.48319
11
0.925321
21
1.48319
0
LINE
8
BLACK
6
CONTINUOUS
10
0.925321
20
1.48319
11
0.91774
21
1.48737
0
LINE
8
BLACK
6
CONTINUOUS
10
0.91774
20
1.48737
11
0.91774
21
1.48737
0
LINE
8
BLACK
6
CONTINUOUS
10
0.91774
20
1.48737
11
0.917562
21
1.48747
0
LINE
8
BLACK
6
CONTINUOUS
10
0.917562
20
1.48747
11
0.91737
21
1.48754
0
LINE
8
BLACK
6
CONTINUOUS
10
0.91737
20
1.48754
11
0.91737
21
1.48754
0
LINE
8
BLACK
6
CONTINUOUS
10
0.91737
20
1.48754
11
0.909207
21
1.49043
0
LINE
8
BLACK
6
CONTINUOUS
10
0.909207
20
1.49043
11
0.909207
21
1.49043
0
LINE
8
BLACK
6
CONTINUOUS
10
0.909207
20
1.49043
11
0.909015
21
1.4905
0
LINE
8
BLACK
6
CONTINUOUS
10
0.909015
20
1.4905
11
0.908814
21
1.49053
0
LINE
8
BLACK
6
CONTINUOUS
10
0.908814
20
1.49053
11
0.908814
21
1.49053
0
LINE
8
BLACK
6
CONTINUOUS
10
0.908814
20
1.49053
11
0.903866
21
1.49142
0
LINE
8
BLACK
6
CONTINUOUS
10
0.903866
20
1.49142
11
0.900089
21
1.49209
0
LINE
8
BLACK
6
CONTINUOUS
10
0.900089
20
1.49209
11
0.896685
21
1.49213
0
LINE
8
BLACK
6
CONTINUOUS
10
0.896685
20
1.49213
11
0.891226
21
1.4922
0
LINE
8
BLACK
6
CONTINUOUS
10
0.891226
20
1.4922
11
0.891226
21
1.4922
0
LINE
8
BLACK
6
CONTINUOUS
10
0.891226
20
1.4922
11
0.891022
21
1.4922
0
LINE
8
BLACK
6
CONTINUOUS
10
0.891022
20
1.4922
11
0.88206
21
1.49083
0
LINE
8
BLACK
6
CONTINUOUS
10
0.88206
20
1.49083
11
0.873442
21
1.48801
0
LINE
8
BLACK
6
CONTINUOUS
10
0.873442
20
1.48801
11
0.873261
21
1.48792
0
LINE
8
BLACK
6
CONTINUOUS
10
0.873261
20
1.48792
11
0.873261
21
1.48792
0
LINE
8
BLACK
6
CONTINUOUS
10
0.873261
20
1.48792
11
0.867713
21
1.48503
0
LINE
8
BLACK
6
CONTINUOUS
10
0.867713
20
1.48503
11
0.8654
21
1.48382
0
LINE
8
BLACK
6
CONTINUOUS
10
0.8654
20
1.48382
11
0.858149
21
1.47838
0
LINE
8
BLACK
6
CONTINUOUS
10
0.858149
20
1.47838
11
0.851885
21
1.47183
0
LINE
8
BLACK
6
CONTINUOUS
10
0.851885
20
1.47183
11
0.846776
21
1.46434
0
LINE
8
BLACK
6
CONTINUOUS
10
0.846776
20
1.46434
11
0.84669
21
1.46415
0
LINE
8
BLACK
6
CONTINUOUS
10
0.84669
20
1.46415
11
0.84669
21
1.46415
0
LINE
8
BLACK
6
CONTINUOUS
10
0.84669
20
1.46415
11
0.846226
21
1.46315
0
LINE
8
BLACK
6
CONTINUOUS
10
0.846226
20
1.46315
11
0.842958
21
1.45611
0
LINE
8
BLACK
6
CONTINUOUS
10
0.842958
20
1.45611
11
0.840535
21
1.44738
0
LINE
8
BLACK
6
CONTINUOUS
10
0.840535
20
1.44738
11
0.839572
21
1.43836
0
LINE
8
BLACK
6
CONTINUOUS
10
0.839572
20
1.43836
11
0.839583
21
1.43816
0
LINE
8
BLACK
6
CONTINUOUS
10
0.839583
20
1.43816
11
0.839583
21
1.43816
0
LINE
8
BLACK
6
CONTINUOUS
10
0.839583
20
1.43816
11
0.839798
21
1.43444
0
LINE
8
BLACK
6
CONTINUOUS
10
0.839798
20
1.43444
11
0.840094
21
1.42931
0
LINE
8
BLACK
6
CONTINUOUS
10
0.840094
20
1.42931
11
0.840138
21
1.42911
0
LINE
8
BLACK
6
CONTINUOUS
10
0.840138
20
1.42911
11
0.840138
21
1.42911
0
LINE
8
BLACK
6
CONTINUOUS
10
0.840138
20
1.42911
11
0.840993
21
1.42532
0
LINE
8
BLACK
6
CONTINUOUS
10
0.840993
20
1.42532
11
0.842087
21
1.42046
0
LINE
8
BLACK
6
CONTINUOUS
10
0.842087
20
1.42046
11
0.842163
21
1.42027
0
LINE
8
BLACK
6
CONTINUOUS
10
0.842163
20
1.42027
11
0.842163
21
1.42027
0
LINE
8
BLACK
6
CONTINUOUS
10
0.842163
20
1.42027
11
0.843639
21
1.41664
0
LINE
8
BLACK
6
CONTINUOUS
10
0.843639
20
1.41664
11
0.845498
21
1.41206
0
LINE
8
BLACK
6
CONTINUOUS
10
0.845498
20
1.41206
11
0.850235
21
1.40433
0
LINE
8
BLACK
6
CONTINUOUS
10
0.850235
20
1.40433
11
0.856172
21
1.39748
0
LINE
8
BLACK
6
CONTINUOUS
10
0.856172
20
1.39748
11
0.863148
21
1.39169
0
LINE
8
BLACK
6
CONTINUOUS
10
0.863148
20
1.39169
11
0.870976
21
1.38711
0
LINE
8
BLACK
6
CONTINUOUS
10
0.870976
20
1.38711
11
0.879446
21
1.38388
0
LINE
8
BLACK
6
CONTINUOUS
10
0.879446
20
1.38388
11
0.879646
21
1.38384
0
LINE
8
BLACK
6
CONTINUOUS
10
0.879646
20
1.38384
11
0.879646
21
1.38384
0
LINE
8
BLACK
6
CONTINUOUS
10
0.879646
20
1.38384
11
0.879822
21
1.3838
0
LINE
8
BLACK
6
CONTINUOUS
10
0.879822
20
1.3838
11
0.888331
21
1.38207
0
LINE
8
BLACK
6
CONTINUOUS
10
0.888331
20
1.38207
11
0.893439
21
1.38188
0
LINE
8
BLACK
6
CONTINUOUS
10
0.893439
20
1.38188
11
0.897188
21
1.38175
0
LINE
8
BLACK
6
CONTINUOUS
10
0.897188
20
1.38175
11
0.897189
21
1.38175
0
LINE
8
BLACK
6
CONTINUOUS
10
0.897189
20
1.38175
11
0.897392
21
1.38174
0
LINE
8
BLACK
6
CONTINUOUS
10
0.897392
20
1.38174
11
0.897593
21
1.38176
0
LINE
8
BLACK
6
CONTINUOUS
10
0.897593
20
1.38176
11
0.897593
21
1.38176
0
LINE
8
BLACK
6
CONTINUOUS
10
0.897593
20
1.38176
11
0.900326
21
1.38211
0
LINE
8
BLACK
6
CONTINUOUS
10
0.900326
20
1.38211
11
0.906385
21
1.38289
0
LINE
8
BLACK
6
CONTINUOUS
10
0.906385
20
1.38289
11
0.90658
21
1.38295
0
LINE
8
BLACK
6
CONTINUOUS
10
0.90658
20
1.38295
11
0.90658
21
1.38295
0
LINE
8
BLACK
6
CONTINUOUS
10
0.90658
20
1.38295
11
0.914874
21
1.38544
0
LINE
8
BLACK
6
CONTINUOUS
10
0.914874
20
1.38544
11
0.914874
21
1.38544
0
LINE
8
BLACK
6
CONTINUOUS
10
0.914874
20
1.38544
11
0.915069
21
1.3855
0
LINE
8
BLACK
6
CONTINUOUS
10
0.915069
20
1.3855
11
0.922195
21
1.38899
0
LINE
8
BLACK
6
CONTINUOUS
10
0.922195
20
1.38899
11
0.923212
21
1.38948
0
LINE
8
BLACK
6
CONTINUOUS
10
0.923212
20
1.38948
11
0.930593
21
1.39475
0
LINE
8
BLACK
6
CONTINUOUS
10
1.45218
20
1.38407
11
1.45479
21
1.38233
0
LINE
8
BLACK
6
CONTINUOUS
10
1.45479
20
1.38233
11
1.45527
21
1.38223
0
LINE
8
BLACK
6
CONTINUOUS
10
1.45527
20
1.38223
11
1.45527
21
1.38223
0
LINE
8
BLACK
6
CONTINUOUS
10
1.45527
20
1.38223
11
1.45613
21
1.38206
0
LINE
8
BLACK
6
CONTINUOUS
10
1.45613
20
1.38206
11
1.4571
21
1.38187
0
LINE
8
BLACK
6
CONTINUOUS
10
1.4571
20
1.38187
11
1.55314
21
1.38187
0
LINE
8
BLACK
6
CONTINUOUS
10
1.55314
20
1.38187
11
1.55411
21
1.38206
0
LINE
8
BLACK
6
CONTINUOUS
10
1.55411
20
1.38206
11
1.55496
21
1.38223
0
LINE
8
BLACK
6
CONTINUOUS
10
1.55496
20
1.38223
11
1.55496
21
1.38223
0
LINE
8
BLACK
6
CONTINUOUS
10
1.55496
20
1.38223
11
1.55544
21
1.38233
0
LINE
8
BLACK
6
CONTINUOUS
10
1.55544
20
1.38233
11
1.55805
21
1.38407
0
LINE
8
BLACK
6
CONTINUOUS
10
1.55805
20
1.38407
11
1.5598
21
1.38668
0
LINE
8
BLACK
6
CONTINUOUS
10
1.5598
20
1.38668
11
1.56026
21
1.38899
0
LINE
8
BLACK
6
CONTINUOUS
10
1.56026
20
1.38899
11
1.56026
21
1.48503
0
LINE
8
BLACK
6
CONTINUOUS
10
1.56026
20
1.48503
11
1.5598
21
1.48733
0
LINE
8
BLACK
6
CONTINUOUS
10
1.5598
20
1.48733
11
1.55805
21
1.48994
0
LINE
8
BLACK
6
CONTINUOUS
10
1.55805
20
1.48994
11
1.55544
21
1.49169
0
LINE
8
BLACK
6
CONTINUOUS
10
1.55544
20
1.49169
11
1.55496
21
1.49178
0
LINE
8
BLACK
6
CONTINUOUS
10
1.55496
20
1.49178
11
1.55496
21
1.49178
0
LINE
8
BLACK
6
CONTINUOUS
10
1.55496
20
1.49178
11
1.55338
21
1.4921
0
LINE
8
BLACK
6
CONTINUOUS
10
1.55338
20
1.4921
11
1.55314
21
1.49215
0
LINE
8
BLACK
6
CONTINUOUS
10
1.55314
20
1.49215
11
1.4571
21
1.49215
0
LINE
8
BLACK
6
CONTINUOUS
10
1.4571
20
1.49215
11
1.45686
21
1.4921
0
LINE
8
BLACK
6
CONTINUOUS
10
1.45686
20
1.4921
11
1.45527
21
1.49178
0
LINE
8
BLACK
6
CONTINUOUS
10
1.45527
20
1.49178
11
1.45527
21
1.49178
0
LINE
8
BLACK
6
CONTINUOUS
10
1.45527
20
1.49178
11
1.45479
21
1.49169
0
LINE
8
BLACK
6
CONTINUOUS
10
1.45479
20
1.49169
11
1.45218
21
1.48994
0
LINE
8
BLACK
6
CONTINUOUS
10
1.45218
20
1.48994
11
1.45044
21
1.48733
0
LINE
8
BLACK
6
CONTINUOUS
10
1.45044
20
1.48733
11
1.44998
21
1.48503
0
LINE
8
BLACK
6
CONTINUOUS
10
1.44998
20
1.48503
11
1.44998
21
1.38899
0
LINE
8
BLACK
6
CONTINUOUS
10
1.44998
20
1.38899
11
1.45044
21
1.38668
0
LINE
8
BLACK
6
CONTINUOUS
10
1.45044
20
1.38668
11
1.45218
21
1.38407
0
LINE
8
BLACK
6
CONTINUOUS
10
0.546671
20
1.38407
11
0.549282
21
1.38233
0
LINE
8
BLACK
6
CONTINUOUS
10
0.549282
20
1.38233
11
0.549761
21
1.38223
0
LINE
8
BLACK
6
CONTINUOUS
10
0.549761
20
1.38223
11
0.549761
21
1.38223
0
LINE
8
BLACK
6
CONTINUOUS
10
0.549761
20
1.38223
11
0.550615
21
1.38206
0
LINE
8
BLACK
6
CONTINUOUS
10
0.550615
20
1.38206
11
0.551585
21
1.38187
0
LINE
8
BLACK
6
CONTINUOUS
10
0.551585
20
1.38187
11
0.647628
21
1.38187
0
LINE
8
BLACK
6
CONTINUOUS
10
0.647628
20
1.38187
11
0.648597
21
1.38206
0
LINE
8
BLACK
6
CONTINUOUS
10
0.648597
20
1.38206
11
0.649451
21
1.38223
0
LINE
8
BLACK
6
CONTINUOUS
10
0.649451
20
1.38223
11
0.649451
21
1.38223
0
LINE
8
BLACK
6
CONTINUOUS
10
0.649451
20
1.38223
11
0.64993
21
1.38233
0
LINE
8
BLACK
6
CONTINUOUS
10
0.64993
20
1.38233
11
0.652541
21
1.38407
0
LINE
8
BLACK
6
CONTINUOUS
10
0.652541
20
1.38407
11
0.654286
21
1.38668
0
LINE
8
BLACK
6
CONTINUOUS
10
0.654286
20
1.38668
11
0.654744
21
1.38899
0
LINE
8
BLACK
6
CONTINUOUS
10
0.654744
20
1.38899
11
0.654744
21
1.48503
0
LINE
8
BLACK
6
CONTINUOUS
10
0.654744
20
1.48503
11
0.654286
21
1.48733
0
LINE
8
BLACK
6
CONTINUOUS
10
0.654286
20
1.48733
11
0.652541
21
1.48994
0
LINE
8
BLACK
6
CONTINUOUS
10
0.652541
20
1.48994
11
0.64993
21
1.49169
0
LINE
8
BLACK
6
CONTINUOUS
10
0.64993
20
1.49169
11
0.649451
21
1.49178
0
LINE
8
BLACK
6
CONTINUOUS
10
0.649451
20
1.49178
11
0.649451
21
1.49178
0
LINE
8
BLACK
6
CONTINUOUS
10
0.649451
20
1.49178
11
0.647867
21
1.4921
0
LINE
8
BLACK
6
CONTINUOUS
10
0.647867
20
1.4921
11
0.647628
21
1.49215
0
LINE
8
BLACK
6
CONTINUOUS
10
0.647628
20
1.49215
11
0.551585
21
1.49215
0
LINE
8
BLACK
6
CONTINUOUS
10
0.551585
20
1.49215
11
0.551346
21
1.4921
0
LINE
8
BLACK
6
CONTINUOUS
10
0.551346
20
1.4921
11
0.549761
21
1.49178
0
LINE
8
BLACK
6
CONTINUOUS
10
0.549761
20
1.49178
11
0.549761
21
1.49178
0
LINE
8
BLACK
6
CONTINUOUS
10
0.549761
20
1.49178
11
0.549282
21
1.49169
0
LINE
8
BLACK
6
CONTINUOUS
10
0.549282
20
1.49169
11
0.546671
21
1.48994
0
LINE
8
BLACK
6
CONTINUOUS
10
0.546671
20
1.48994
11
0.544926
21
1.48733
0
LINE
8
BLACK
6
CONTINUOUS
10
0.544926
20
1.48733
11
0.544469
21
1.48503
0
LINE
8
BLACK
6
CONTINUOUS
10
0.544469
20
1.48503
11
0.544469
21
1.38899
0
LINE
8
BLACK
6
CONTINUOUS
10
0.544469
20
1.38899
11
0.544926
21
1.38668
0
LINE
8
BLACK
6
CONTINUOUS
10
0.544926
20
1.38668
11
0.546671
21
1.38407
0
LINE
8
BLACK
6
CONTINUOUS
10
1.80533
20
1.48399
11
1.81381
21
1.48231
0
LINE
8
BLACK
6
CONTINUOUS
10
1.81381
20
1.48231
11
1.82184
21
1.4791
0
LINE
8
BLACK
6
CONTINUOUS
10
1.82184
20
1.4791
11
1.82915
21
1.47449
0
LINE
8
BLACK
6
CONTINUOUS
10
1.82915
20
1.47449
11
1.8355
21
1.46862
0
LINE
8
BLACK
6
CONTINUOUS
10
1.8355
20
1.46862
11
1.84068
21
1.46169
0
LINE
8
BLACK
6
CONTINUOUS
10
1.84068
20
1.46169
11
1.8445
21
1.45394
0
LINE
8
BLACK
6
CONTINUOUS
10
1.8445
20
1.45394
11
1.84685
21
1.44562
0
LINE
8
BLACK
6
CONTINUOUS
10
1.84685
20
1.44562
11
1.84764
21
1.43701
0
LINE
8
BLACK
6
CONTINUOUS
10
1.84764
20
1.43701
11
1.84757
21
1.43454
0
LINE
8
BLACK
6
CONTINUOUS
10
1.84757
20
1.43454
11
1.84633
21
1.42598
0
LINE
8
BLACK
6
CONTINUOUS
10
1.84633
20
1.42598
11
1.84355
21
1.41779
0
LINE
8
BLACK
6
CONTINUOUS
10
1.84355
20
1.41779
11
1.83933
21
1.41025
0
LINE
8
BLACK
6
CONTINUOUS
10
1.83933
20
1.41025
11
1.8338
21
1.4036
0
LINE
8
BLACK
6
CONTINUOUS
10
1.8338
20
1.4036
11
1.82715
21
1.39807
0
LINE
8
BLACK
6
CONTINUOUS
10
1.82715
20
1.39807
11
1.81961
21
1.39385
0
LINE
8
BLACK
6
CONTINUOUS
10
1.81961
20
1.39385
11
1.81142
21
1.39107
0
LINE
8
BLACK
6
CONTINUOUS
10
1.81142
20
1.39107
11
1.80287
21
1.38983
0
LINE
8
BLACK
6
CONTINUOUS
10
1.80287
20
1.38983
11
1.79423
21
1.39017
0
LINE
8
BLACK
6
CONTINUOUS
10
1.79423
20
1.39017
11
1.78579
21
1.39208
0
LINE
8
BLACK
6
CONTINUOUS
10
1.78579
20
1.39208
11
1.77785
21
1.39549
0
LINE
8
BLACK
6
CONTINUOUS
10
1.77785
20
1.39549
11
1.77066
21
1.40029
0
LINE
8
BLACK
6
CONTINUOUS
10
1.77066
20
1.40029
11
1.76447
21
1.40633
0
LINE
8
BLACK
6
CONTINUOUS
10
1.76447
20
1.40633
11
1.75948
21
1.41339
0
LINE
8
BLACK
6
CONTINUOUS
10
1.75948
20
1.41339
11
1.75586
21
1.42124
0
LINE
8
BLACK
6
CONTINUOUS
10
1.75586
20
1.42124
11
1.75373
21
1.42962
0
LINE
8
BLACK
6
CONTINUOUS
10
1.75373
20
1.42962
11
1.75317
21
1.43824
0
LINE
8
BLACK
6
CONTINUOUS
10
1.75317
20
1.43824
11
1.75418
21
1.44683
0
LINE
8
BLACK
6
CONTINUOUS
10
1.75418
20
1.44683
11
1.75675
21
1.45509
0
LINE
8
BLACK
6
CONTINUOUS
10
1.75675
20
1.45509
11
1.76077
21
1.46274
0
LINE
8
BLACK
6
CONTINUOUS
10
1.76077
20
1.46274
11
1.76612
21
1.46953
0
LINE
8
BLACK
6
CONTINUOUS
10
1.76612
20
1.46953
11
1.77262
21
1.47523
0
LINE
8
BLACK
6
CONTINUOUS
10
1.77262
20
1.47523
11
1.78005
21
1.47965
0
LINE
8
BLACK
6
CONTINUOUS
10
1.78005
20
1.47965
11
1.78817
21
1.48264
0
LINE
8
BLACK
6
CONTINUOUS
10
1.78817
20
1.48264
11
1.79669
21
1.48411
0
LINE
8
BLACK
6
CONTINUOUS
10
1.79669
20
1.48411
11
1.80533
21
1.48399
0
LINE
8
BLACK
6
CONTINUOUS
10
0.89982
20
1.48399
11
0.9083
21
1.48231
0
LINE
8
BLACK
6
CONTINUOUS
10
0.9083
20
1.48231
11
0.91633
21
1.4791
0
LINE
8
BLACK
6
CONTINUOUS
10
0.91633
20
1.4791
11
0.923642
21
1.47449
0
LINE
8
BLACK
6
CONTINUOUS
10
0.923642
20
1.47449
11
0.929991
21
1.46862
0
LINE
8
BLACK
6
CONTINUOUS
10
0.929991
20
1.46862
11
0.935164
21
1.46169
0
LINE
8
BLACK
6
CONTINUOUS
10
0.935164
20
1.46169
11
0.938988
21
1.45394
0
LINE
8
BLACK
6
CONTINUOUS
10
0.938988
20
1.45394
11
0.941335
21
1.44562
0
LINE
8
BLACK
6
CONTINUOUS
10
0.941335
20
1.44562
11
0.942126
21
1.43701
0
LINE
8
BLACK
6
CONTINUOUS
10
0.942126
20
1.43701
11
0.942061
21
1.43454
0
LINE
8
BLACK
6
CONTINUOUS
10
0.942061
20
1.43454
11
0.940821
21
1.42598
0
LINE
8
BLACK
6
CONTINUOUS
10
0.940821
20
1.42598
11
0.938042
21
1.41779
0
LINE
8
BLACK
6
CONTINUOUS
10
0.938042
20
1.41779
11
0.933817
21
1.41025
0
LINE
8
BLACK
6
CONTINUOUS
10
0.933817
20
1.41025
11
0.928289
21
1.4036
0
LINE
8
BLACK
6
CONTINUOUS
10
0.928289
20
1.4036
11
0.921641
21
1.39807
0
LINE
8
BLACK
6
CONTINUOUS
10
0.921641
20
1.39807
11
0.914098
21
1.39385
0
LINE
8
BLACK
6
CONTINUOUS
10
0.914098
20
1.39385
11
0.905911
21
1.39107
0
LINE
8
BLACK
6
CONTINUOUS
10
0.905911
20
1.39107
11
0.897354
21
1.38983
0
LINE
8
BLACK
6
CONTINUOUS
10
0.897354
20
1.38983
11
0.888715
21
1.39017
0
LINE
8
BLACK
6
CONTINUOUS
10
0.888715
20
1.39017
11
0.880283
21
1.39208
0
LINE
8
BLACK
6
CONTINUOUS
10
0.880283
20
1.39208
11
0.872339
21
1.39549
0
LINE
8
BLACK
6
CONTINUOUS
10
0.872339
20
1.39549
11
0.86515
21
1.40029
0
LINE
8
BLACK
6
CONTINUOUS
10
0.86515
20
1.40029
11
0.858957
21
1.40633
0
LINE
8
BLACK
6
CONTINUOUS
10
0.858957
20
1.40633
11
0.853967
21
1.41339
0
LINE
8
BLACK
6
CONTINUOUS
10
0.853967
20
1.41339
11
0.850348
21
1.42124
0
LINE
8
BLACK
6
CONTINUOUS
10
0.850348
20
1.42124
11
0.848219
21
1.42962
0
LINE
8
BLACK
6
CONTINUOUS
10
0.848219
20
1.42962
11
0.847654
21
1.43824
0
LINE
8
BLACK
6
CONTINUOUS
10
0.847654
20
1.43824
11
0.84867
21
1.44683
0
LINE
8
BLACK
6
CONTINUOUS
10
0.84867
20
1.44683
11
0.851234
21
1.45509
0
LINE
8
BLACK
6
CONTINUOUS
10
0.851234
20
1.45509
11
0.85526
21
1.46274
0
LINE
8
BLACK
6
CONTINUOUS
10
0.85526
20
1.46274
11
0.860612
21
1.46953
0
LINE
8
BLACK
6
CONTINUOUS
10
0.860612
20
1.46953
11
0.867113
21
1.47523
0
LINE
8
BLACK
6
CONTINUOUS
10
0.867113
20
1.47523
11
0.874543
21
1.47965
0
LINE
8
BLACK
6
CONTINUOUS
10
0.874543
20
1.47965
11
0.882654
21
1.48264
0
LINE
8
BLACK
6
CONTINUOUS
10
0.882654
20
1.48264
11
0.891175
21
1.48411
0
LINE
8
BLACK
6
CONTINUOUS
10
0.891175
20
1.48411
11
0.89982
21
1.48399
0
LINE
8
BLACK
6
CONTINUOUS
10
1.08259
20
1.03733
11
1.08735
21
1.0359
0
LINE
8
BLACK
6
CONTINUOUS
10
1.08735
20
1.0359
11
1.09152
21
1.0332
0
LINE
8
BLACK
6
CONTINUOUS
10
1.09152
20
1.0332
11
1.09476
21
1.02944
0
LINE
8
BLACK
6
CONTINUOUS
10
1.09476
20
1.02944
11
1.09682
21
1.02492
0
LINE
8
BLACK
6
CONTINUOUS
10
1.09682
20
1.02492
11
1.09752
21
1.02
0
LINE
8
BLACK
6
CONTINUOUS
10
1.09752
20
1.02
11
1.09751
21
1.01957
0
LINE
8
BLACK
6
CONTINUOUS
10
1.09751
20
1.01957
11
1.09669
21
1.01467
0
LINE
8
BLACK
6
CONTINUOUS
10
1.09669
20
1.01467
11
1.09452
21
1.0102
0
LINE
8
BLACK
6
CONTINUOUS
10
1.09452
20
1.0102
11
1.09119
21
1.00652
0
LINE
8
BLACK
6
CONTINUOUS
10
1.09119
20
1.00652
11
1.08696
21
1.00392
0
LINE
8
BLACK
6
CONTINUOUS
10
1.08696
20
1.00392
11
1.08217
21
1.00261
0
LINE
8
BLACK
6
CONTINUOUS
10
1.08217
20
1.00261
11
1.0772
21
1.00271
0
LINE
8
BLACK
6
CONTINUOUS
10
1.0772
20
1.00271
11
1.07246
21
1.00419
0
LINE
8
BLACK
6
CONTINUOUS
10
1.07246
20
1.00419
11
1.06832
21
1.00694
0
LINE
8
BLACK
6
CONTINUOUS
10
1.06832
20
1.00694
11
1.06562
21
1.01016
0
LINE
8
BLACK
6
CONTINUOUS
10
1.06562
20
1.01016
11
0.649077
21
1.01016
0
LINE
8
BLACK
6
CONTINUOUS
10
0.649077
20
1.01016
11
0.196063
21
0.557144
0
LINE
8
BLACK
6
CONTINUOUS
10
0.196063
20
0.557144
11
0.196063
21
0.207165
0
LINE
8
BLACK
6
CONTINUOUS
10
0.196063
20
0.207165
11
0.21622
21
0.207165
0
LINE
8
BLACK
6
CONTINUOUS
10
0.21622
20
0.207165
11
0.21622
21
0.147165
0
LINE
8
BLACK
6
CONTINUOUS
10
0.21622
20
0.147165
11
0.15622
21
0.147165
0
LINE
8
BLACK
6
CONTINUOUS
10
0.15622
20
0.147165
11
0.15622
21
0.207165
0
LINE
8
BLACK
6
CONTINUOUS
10
0.15622
20
0.207165
11
0.176378
21
0.207165
0
LINE
8
BLACK
6
CONTINUOUS
10
0.176378
20
0.207165
11
0.176378
21
0.555528
0
LINE
8
BLACK
6
CONTINUOUS
10
0.176378
20
0.555528
11
0.175907
21
0.556233
0
LINE
8
BLACK
6
CONTINUOUS
10
0.175907
20
0.556233
11
0.175157
21
0.56
0
LINE
8
BLACK
6
CONTINUOUS
10
0.175157
20
0.56
11
0.175907
21
0.563767
0
LINE
8
BLACK
6
CONTINUOUS
10
0.175907
20
0.563767
11
0.17804
21
0.56696
0
LINE
8
BLACK
6
CONTINUOUS
10
0.17804
20
0.56696
11
0.63804
21
1.02696
0
LINE
8
BLACK
6
CONTINUOUS
10
0.63804
20
1.02696
11
0.641233
21
1.02909
0
LINE
8
BLACK
6
CONTINUOUS
10
0.641233
20
1.02909
11
0.645
21
1.02984
0
LINE
8
BLACK
6
CONTINUOUS
10
0.645
20
1.02984
11
1.06555
21
1.02984
0
LINE
8
BLACK
6
CONTINUOUS
10
1.06555
20
1.02984
11
1.06865
21
1.03334
0
LINE
8
BLACK
6
CONTINUOUS
10
1.06865
20
1.03334
11
1.07285
21
1.03599
0
LINE
8
BLACK
6
CONTINUOUS
10
1.07285
20
1.03599
11
1.07762
21
1.03736
0
LINE
8
BLACK
6
CONTINUOUS
10
1.07762
20
1.03736
11
1.08259
21
1.03733
0
LINE
8
BLACK
6
CONTINUOUS
10
1.28
20
0.147165
11
1.22
21
0.147165
0
LINE
8
BLACK
6
CONTINUOUS
10
1.22
20
0.147165
11
1.22
21
0.207165
0
LINE
8
BLACK
6
CONTINUOUS
10
1.22
20
0.207165
11
1.28
21
0.207165
0
LINE
8
BLACK
6
CONTINUOUS
10
1.28
20
0.207165
11
1.28
21
0.147165
0
LINE
8
BLACK
6
CONTINUOUS
10
1.18
20
0.147165
11
1.12
21
0.147165
0
LINE
8
BLACK
6
CONTINUOUS
10
1.12
20
0.147165
11
1.12
21
0.207165
0
LINE
8
BLACK
6
CONTINUOUS
10
1.12
20
0.207165
11
1.18
21
0.207165
0
LINE
8
BLACK
6
CONTINUOUS
10
1.18
20
0.207165
11
1.18
21
0.147165
0
LINE
8
BLACK
6
CONTINUOUS
10
1.38
20
0.147165
11
1.32
21
0.147165
0
LINE
8
BLACK
6
CONTINUOUS
10
1.32
20
0.147165
11
1.32
21
0.207165
0
LINE
8
BLACK
6
CONTINUOUS
10
1.32
20
0.207165
11
1.38
21
0.207165
0
LINE
8
BLACK
6
CONTINUOUS
10
1.38
20
0.207165
11
1.38
21
0.147165
0
LINE
8
BLACK
6
CONTINUOUS
10
1.08
20
0.147165
11
1.02
21
0.147165
0
LINE
8
BLACK
6
CONTINUOUS
10
1.02
20
0.147165
11
1.02
21
0.207165
0
LINE
8
BLACK
6
CONTINUOUS
10
1.02
20
0.207165
11
1.08
21
0.207165
0
LINE
8
BLACK
6
CONTINUOUS
10
1.08
20
0.207165
11
1.08
21
0.147165
0
LINE
8
BLACK
6
CONTINUOUS
10
1.50259
20
0.397327
11
1.50735
21
0.395904
0
LINE
8
BLACK
6
CONTINUOUS
10
1.50735
20
0.395904
11
1.51152
21
0.393202
0
LINE
8
BLACK
6
CONTINUOUS
10
1.51152
20
0.393202
11
1.51476
21
0.389439
0
LINE
8
BLACK
6
CONTINUOUS
10
1.51476
20
0.389439
11
1.51682
21
0.384917
0
LINE
8
BLACK
6
CONTINUOUS
10
1.51682
20
0.384917
11
1.51752
21
0.38
0
LINE
8
BLACK
6
CONTINUOUS
10
1.51752
20
0.38
11
1.51751
21
0.379572
0
LINE
8
BLACK
6
CONTINUOUS
10
1.51751
20
0.379572
11
1.51669
21
0.374673
0
LINE
8
BLACK
6
CONTINUOUS
10
1.51669
20
0.374673
11
1.51452
21
0.370203
0
LINE
8
BLACK
6
CONTINUOUS
10
1.51452
20
0.370203
11
1.51119
21
0.36652
0
LINE
8
BLACK
6
CONTINUOUS
10
1.51119
20
0.36652
11
1.50696
21
0.363921
0
LINE
8
BLACK
6
CONTINUOUS
10
1.50696
20
0.363921
11
1.50217
21
0.362615
0
LINE
8
BLACK
6
CONTINUOUS
10
1.50217
20
0.362615
11
1.4972
21
0.362706
0
LINE
8
BLACK
6
CONTINUOUS
10
1.4972
20
0.362706
11
1.49246
21
0.364187
0
LINE
8
BLACK
6
CONTINUOUS
10
1.49246
20
0.364187
11
1.48893
21
0.366535
0
LINE
8
BLACK
6
CONTINUOUS
10
1.48893
20
0.366535
11
1.06448
21
0.366535
0
LINE
8
BLACK
6
CONTINUOUS
10
1.06448
20
0.366535
11
1.06119
21
0.362898
0
LINE
8
BLACK
6
CONTINUOUS
10
1.06119
20
0.362898
11
1.05696
21
0.360299
0
LINE
8
BLACK
6
CONTINUOUS
10
1.05696
20
0.360299
11
1.05217
21
0.358993
0
LINE
8
BLACK
6
CONTINUOUS
10
1.05217
20
0.358993
11
1.0472
21
0.359084
0
LINE
8
BLACK
6
CONTINUOUS
10
1.0472
20
0.359084
11
1.04246
21
0.360565
0
LINE
8
BLACK
6
CONTINUOUS
10
1.04246
20
0.360565
11
1.03832
21
0.363317
0
LINE
8
BLACK
6
CONTINUOUS
10
1.03832
20
0.363317
11
1.03513
21
0.36712
0
LINE
8
BLACK
6
CONTINUOUS
10
1.03513
20
0.36712
11
1.03313
21
0.371667
0
LINE
8
BLACK
6
CONTINUOUS
10
1.03313
20
0.371667
11
1.03248
21
0.376592
0
LINE
8
BLACK
6
CONTINUOUS
10
1.03248
20
0.376592
11
1.03325
21
0.3815
0
LINE
8
BLACK
6
CONTINUOUS
10
1.03325
20
0.3815
11
1.03536
21
0.385997
0
LINE
8
BLACK
6
CONTINUOUS
10
1.03536
20
0.385997
11
1.03865
21
0.38972
0
LINE
8
BLACK
6
CONTINUOUS
10
1.03865
20
0.38972
11
1.04285
21
0.392371
0
LINE
8
BLACK
6
CONTINUOUS
10
1.04285
20
0.392371
11
1.04762
21
0.393736
0
LINE
8
BLACK
6
CONTINUOUS
10
1.04762
20
0.393736
11
1.05259
21
0.393705
0
LINE
8
BLACK
6
CONTINUOUS
10
1.05259
20
0.393705
11
1.05735
21
0.392282
0
LINE
8
BLACK
6
CONTINUOUS
10
1.05735
20
0.392282
11
1.06152
21
0.38958
0
LINE
8
BLACK
6
CONTINUOUS
10
1.06152
20
0.38958
11
1.06441
21
0.38622
0
LINE
8
BLACK
6
CONTINUOUS
10
1.06441
20
0.38622
11
1.48376
21
0.38622
0
LINE
8
BLACK
6
CONTINUOUS
10
1.48376
20
0.38622
11
1.48536
21
0.389619
0
LINE
8
BLACK
6
CONTINUOUS
10
1.48536
20
0.389619
11
1.48865
21
0.393342
0
LINE
8
BLACK
6
CONTINUOUS
10
1.48865
20
0.393342
11
1.49285
21
0.395993
0
LINE
8
BLACK
6
CONTINUOUS
10
1.49285
20
0.395993
11
1.49762
21
0.397358
0
LINE
8
BLACK
6
CONTINUOUS
10
1.49762
20
0.397358
11
1.50259
21
0.397327
0
LINE
8
BLACK
6
CONTINUOUS
10
1.80533
20
0.578481
11
1.81381
21
0.576795
0
LINE
8
BLACK
6
CONTINUOUS
10
1.81381
20
0.576795
11
1.82184
21
0.573591
0
LINE
8
BLACK
6
CONTINUOUS
10
1.82184
20
0.573591
11
1.82915
21
0.568977
0
LINE
8
BLACK
6
CONTINUOUS
10
1.82915
20
0.568977
11
1.8355
21
0.563109
0
LINE
8
BLACK
6
CONTINUOUS
10
1.8355
20
0.563109
11
1.84068
21
0.556181
0
LINE
8
BLACK
6
CONTINUOUS
10
1.84068
20
0.556181
11
1.8445
21
0.548427
0
LINE
8
BLACK
6
CONTINUOUS
10
1.8445
20
0.548427
11
1.84685
21
0.540106
0
LINE
8
BLACK
6
CONTINUOUS
10
1.84685
20
0.540106
11
1.84764
21
0.531496
0
LINE
8
BLACK
6
CONTINUOUS
10
1.84764
20
0.531496
11
1.84757
21
0.529024
0
LINE
8
BLACK
6
CONTINUOUS
10
1.84757
20
0.529024
11
1.84633
21
0.520467
0
LINE
8
BLACK
6
CONTINUOUS
10
1.84633
20
0.520467
11
1.84355
21
0.51228
0
LINE
8
BLACK
6
CONTINUOUS
10
1.84355
20
0.51228
11
1.83933
21
0.504737
0
LINE
8
BLACK
6
CONTINUOUS
10
1.83933
20
0.504737
11
1.8338
21
0.498089
0
LINE
8
BLACK
6
CONTINUOUS
10
1.8338
20
0.498089
11
1.82715
21
0.492561
0
LINE
8
BLACK
6
CONTINUOUS
10
1.82715
20
0.492561
11
1.81961
21
0.488336
0
LINE
8
BLACK
6
CONTINUOUS
10
1.81961
20
0.488336
11
1.81142
21
0.485557
0
LINE
8
BLACK
6
CONTINUOUS
10
1.81142
20
0.485557
11
1.80287
21
0.484317
0
LINE
8
BLACK
6
CONTINUOUS
10
1.80287
20
0.484317
11
1.79423
21
0.484656
0
LINE
8
BLACK
6
CONTINUOUS
10
1.79423
20
0.484656
11
1.78579
21
0.486564
0
LINE
8
BLACK
6
CONTINUOUS
10
1.78579
20
0.486564
11
1.77785
21
0.489977
0
LINE
8
BLACK
6
CONTINUOUS
10
1.77785
20
0.489977
11
1.77066
21
0.494781
0
LINE
8
BLACK
6
CONTINUOUS
10
1.77066
20
0.494781
11
1.76447
21
0.500813
0
LINE
8
BLACK
6
CONTINUOUS
10
1.76447
20
0.500813
11
1.75948
21
0.507874
0
LINE
8
BLACK
6
CONTINUOUS
10
1.75948
20
0.507874
11
1.75586
21
0.515726
0
LINE
8
BLACK
6
CONTINUOUS
10
1.75586
20
0.515726
11
1.75373
21
0.524105
0
LINE
8
BLACK
6
CONTINUOUS
10
1.75373
20
0.524105
11
1.75317
21
0.532733
0
LINE
8
BLACK
6
CONTINUOUS
10
1.75317
20
0.532733
11
1.75418
21
0.541319
0
LINE
8
BLACK
6
CONTINUOUS
10
1.75418
20
0.541319
11
1.75675
21
0.549576
0
LINE
8
BLACK
6
CONTINUOUS
10
1.75675
20
0.549576
11
1.76077
21
0.557227
0
LINE
8
BLACK
6
CONTINUOUS
10
1.76077
20
0.557227
11
1.76612
21
0.564017
0
LINE
8
BLACK
6
CONTINUOUS
10
1.76612
20
0.564017
11
1.77262
21
0.569717
0
LINE
8
BLACK
6
CONTINUOUS
10
1.77262
20
0.569717
11
1.78005
21
0.574138
0
LINE
8
BLACK
6
CONTINUOUS
10
1.78005
20
0.574138
11
1.78817
21
0.57713
0
LINE
8
BLACK
6
CONTINUOUS
10
1.78817
20
0.57713
11
1.79669
21
0.578595
0
LINE
8
BLACK
6
CONTINUOUS
10
1.79669
20
0.578595
11
1.80533
21
0.578481
0
LINE
8
BLACK
6
CONTINUOUS
10
0.89982
20
0.578481
11
0.9083
21
0.576795
0
LINE
8
BLACK
6
CONTINUOUS
10
0.9083
20
0.576795
11
0.91633
21
0.573591
0
LINE
8
BLACK
6
CONTINUOUS
10
0.91633
20
0.573591
11
0.923642
21
0.568977
0
LINE
8
BLACK
6
CONTINUOUS
10
0.923642
20
0.568977
11
0.929991
21
0.563109
0
LINE
8
BLACK
6
CONTINUOUS
10
0.929991
20
0.563109
11
0.935164
21
0.556181
0
LINE
8
BLACK
6
CONTINUOUS
10
0.935164
20
0.556181
11
0.938988
21
0.548427
0
LINE
8
BLACK
6
CONTINUOUS
10
0.938988
20
0.548427
11
0.941335
21
0.540106
0
LINE
8
BLACK
6
CONTINUOUS
10
0.941335
20
0.540106
11
0.942126
21
0.531496
0
LINE
8
BLACK
6
CONTINUOUS
10
0.942126
20
0.531496
11
0.942061
21
0.529024
0
LINE
8
BLACK
6
CONTINUOUS
10
0.942061
20
0.529024
11
0.940821
21
0.520467
0
LINE
8
BLACK
6
CONTINUOUS
10
0.940821
20
0.520467
11
0.938042
21
0.51228
0
LINE
8
BLACK
6
CONTINUOUS
10
0.938042
20
0.51228
11
0.933817
21
0.504737
0
LINE
8
BLACK
6
CONTINUOUS
10
0.933817
20
0.504737
11
0.928289
21
0.498089
0
LINE
8
BLACK
6
CONTINUOUS
10
0.928289
20
0.498089
11
0.921641
21
0.492561
0
LINE
8
BLACK
6
CONTINUOUS
10
0.921641
20
0.492561
11
0.914098
21
0.488336
0
LINE
8
BLACK
6
CONTINUOUS
10
0.914098
20
0.488336
11
0.905911
21
0.485557
0
LINE
8
BLACK
6
CONTINUOUS
10
0.905911
20
0.485557
11
0.897354
21
0.484317
0
LINE
8
BLACK
6
CONTINUOUS
10
0.897354
20
0.484317
11
0.888715
21
0.484656
0
LINE
8
BLACK
6
CONTINUOUS
10
0.888715
20
0.484656
11
0.880283
21
0.486564
0
LINE
8
BLACK
6
CONTINUOUS
10
0.880283
20
0.486564
11
0.872339
21
0.489977
0
LINE
8
BLACK
6
CONTINUOUS
10
0.872339
20
0.489977
11
0.86515
21
0.494781
0
LINE
8
BLACK
6
CONTINUOUS
10
0.86515
20
0.494781
11
0.858957
21
0.500813
0
LINE
8
BLACK
6
CONTINUOUS
10
0.858957
20
0.500813
11
0.853967
21
0.507874
0
LINE
8
BLACK
6
CONTINUOUS
10
0.853967
20
0.507874
11
0.850348
21
0.515726
0
LINE
8
BLACK
6
CONTINUOUS
10
0.850348
20
0.515726
11
0.848219
21
0.524105
0
LINE
8
BLACK
6
CONTINUOUS
10
0.848219
20
0.524105
11
0.847654
21
0.532733
0
LINE
8
BLACK
6
CONTINUOUS
10
0.847654
20
0.532733
11
0.84867
21
0.541319
0
LINE
8
BLACK
6
CONTINUOUS
10
0.84867
20
0.541319
11
0.851234
21
0.549576
0
LINE
8
BLACK
6
CONTINUOUS
10
0.851234
20
0.549576
11
0.85526
21
0.557227
0
LINE
8
BLACK
6
CONTINUOUS
10
0.85526
20
0.557227
11
0.860612
21
0.564017
0
LINE
8
BLACK
6
CONTINUOUS
10
0.860612
20
0.564017
11
0.867113
21
0.569717
0
LINE
8
BLACK
6
CONTINUOUS
10
0.867113
20
0.569717
11
0.874543
21
0.574138
0
LINE
8
BLACK
6
CONTINUOUS
10
0.874543
20
0.574138
11
0.882654
21
0.57713
0
LINE
8
BLACK
6
CONTINUOUS
10
0.882654
20
0.57713
11
0.891175
21
0.578595
0
LINE
8
BLACK
6
CONTINUOUS
10
0.891175
20
0.578595
11
0.89982
21
0.578481
0
LINE
8
BLACK
6
CONTINUOUS
10
1.11259
20
0.707327
11
1.11735
21
0.705904
0
LINE
8
BLACK
6
CONTINUOUS
10
1.11735
20
0.705904
11
1.12152
21
0.703202
0
LINE
8
BLACK
6
CONTINUOUS
10
1.12152
20
0.703202
11
1.12476
21
0.699439
0
LINE
8
BLACK
6
CONTINUOUS
10
1.12476
20
0.699439
11
1.12682
21
0.694917
0
LINE
8
BLACK
6
CONTINUOUS
10
1.12682
20
0.694917
11
1.12752
21
0.69
0
LINE
8
BLACK
6
CONTINUOUS
10
1.12752
20
0.69
11
1.12751
21
0.689572
0
LINE
8
BLACK
6
CONTINUOUS
10
1.12751
20
0.689572
11
1.12669
21
0.684673
0
LINE
8
BLACK
6
CONTINUOUS
10
1.12669
20
0.684673
11
1.12452
21
0.680203
0
LINE
8
BLACK
6
CONTINUOUS
10
1.12452
20
0.680203
11
1.12119
21
0.67652
0
LINE
8
BLACK
6
CONTINUOUS
10
1.12119
20
0.67652
11
1.11696
21
0.673921
0
LINE
8
BLACK
6
CONTINUOUS
10
1.11696
20
0.673921
11
1.11217
21
0.672615
0
LINE
8
BLACK
6
CONTINUOUS
10
1.11217
20
0.672615
11
1.1072
21
0.672706
0
LINE
8
BLACK
6
CONTINUOUS
10
1.1072
20
0.672706
11
1.10246
21
0.674187
0
LINE
8
BLACK
6
CONTINUOUS
10
1.10246
20
0.674187
11
1.09832
21
0.676939
0
LINE
8
BLACK
6
CONTINUOUS
10
1.09832
20
0.676939
11
1.09562
21
0.680157
0
LINE
8
BLACK
6
CONTINUOUS
10
1.09562
20
0.680157
11
0.614299
21
0.680157
0
LINE
8
BLACK
6
CONTINUOUS
10
0.614299
20
0.680157
11
0.614131
21
0.679809
0
LINE
8
BLACK
6
CONTINUOUS
10
0.614131
20
0.679809
11
0.610797
21
0.676127
0
LINE
8
BLACK
6
CONTINUOUS
10
0.610797
20
0.676127
11
0.606564
21
0.673528
0
LINE
8
BLACK
6
CONTINUOUS
10
0.606564
20
0.673528
11
0.601772
21
0.672221
0
LINE
8
BLACK
6
CONTINUOUS
10
0.601772
20
0.672221
11
0.596805
21
0.672312
0
LINE
8
BLACK
6
CONTINUOUS
10
0.596805
20
0.672312
11
0.592064
21
0.673793
0
LINE
8
BLACK
6
CONTINUOUS
10
0.592064
20
0.673793
11
0.587929
21
0.676546
0
LINE
8
BLACK
6
CONTINUOUS
10
0.587929
20
0.676546
11
0.584733
21
0.680348
0
LINE
8
BLACK
6
CONTINUOUS
10
0.584733
20
0.680348
11
0.582732
21
0.684895
0
LINE
8
BLACK
6
CONTINUOUS
10
0.582732
20
0.684895
11
0.582088
21
0.68982
0
LINE
8
BLACK
6
CONTINUOUS
10
0.582088
20
0.68982
11
0.582852
21
0.694729
0
LINE
8
BLACK
6
CONTINUOUS
10
0.582852
20
0.694729
11
0.584963
21
0.699225
0
LINE
8
BLACK
6
CONTINUOUS
10
0.584963
20
0.699225
11
0.588251
21
0.702948
0
LINE
8
BLACK
6
CONTINUOUS
10
0.588251
20
0.702948
11
0.592452
21
0.705599
0
LINE
8
BLACK
6
CONTINUOUS
10
0.592452
20
0.705599
11
0.597229
21
0.706964
0
LINE
8
BLACK
6
CONTINUOUS
10
0.597229
20
0.706964
11
0.602196
21
0.706934
0
LINE
8
BLACK
6
CONTINUOUS
10
0.602196
20
0.706934
11
0.606955
21
0.70551
0
LINE
8
BLACK
6
CONTINUOUS
10
0.606955
20
0.70551
11
0.611123
21
0.702809
0
LINE
8
BLACK
6
CONTINUOUS
10
0.611123
20
0.702809
11
0.613679
21
0.699843
0
LINE
8
BLACK
6
CONTINUOUS
10
0.613679
20
0.699843
11
1.09555
21
0.699843
0
LINE
8
BLACK
6
CONTINUOUS
10
1.09555
20
0.699843
11
1.09865
21
0.703342
0
LINE
8
BLACK
6
CONTINUOUS
10
1.09865
20
0.703342
11
1.10285
21
0.705993
0
LINE
8
BLACK
6
CONTINUOUS
10
1.10285
20
0.705993
11
1.10762
21
0.707358
0
LINE
8
BLACK
6
CONTINUOUS
10
1.10762
20
0.707358
11
1.11259
21
0.707327
0
LINE
8
BLACK
6
CONTINUOUS
10
0.64685
20
0.484252
11
0.552362
21
0.484252
0
LINE
8
BLACK
6
CONTINUOUS
10
0.552362
20
0.484252
11
0.552362
21
0.57874
0
LINE
8
BLACK
6
CONTINUOUS
10
0.552362
20
0.57874
11
0.64685
21
0.57874
0
LINE
8
BLACK
6
CONTINUOUS
10
0.64685
20
0.57874
11
0.64685
21
0.484252
0
LINE
8
BLACK
6
CONTINUOUS
10
1.55236
20
0.484252
11
1.45787
21
0.484252
0
LINE
8
BLACK
6
CONTINUOUS
10
1.45787
20
0.484252
11
1.45787
21
0.57874
0
LINE
8
BLACK
6
CONTINUOUS
10
1.45787
20
0.57874
11
1.55236
21
0.57874
0
LINE
8
BLACK
6
CONTINUOUS
10
1.55236
20
0.57874
11
1.55236
21
0.484252
0
LINE
8
BLACK
6
CONTINUOUS
10
1.08259
20
0.967327
11
1.08735
21
0.965904
0
LINE
8
BLACK
6
CONTINUOUS
10
1.08735
20
0.965904
11
1.09152
21
0.963202
0
LINE
8
BLACK
6
CONTINUOUS
10
1.09152
20
0.963202
11
1.09476
21
0.959439
0
LINE
8
BLACK
6
CONTINUOUS
10
1.09476
20
0.959439
11
1.09682
21
0.954917
0
LINE
8
BLACK
6
CONTINUOUS
10
1.09682
20
0.954917
11
1.09752
21
0.95
0
LINE
8
BLACK
6
CONTINUOUS
10
1.09752
20
0.95
11
1.09751
21
0.949572
0
LINE
8
BLACK
6
CONTINUOUS
10
1.09751
20
0.949572
11
1.09669
21
0.944673
0
LINE
8
BLACK
6
CONTINUOUS
10
1.09669
20
0.944673
11
1.09452
21
0.940203
0
LINE
8
BLACK
6
CONTINUOUS
10
1.09452
20
0.940203
11
1.09119
21
0.93652
0
LINE
8
BLACK
6
CONTINUOUS
10
1.09119
20
0.93652
11
1.08696
21
0.933921
0
LINE
8
BLACK
6
CONTINUOUS
10
1.08696
20
0.933921
11
1.08217
21
0.932615
0
LINE
8
BLACK
6
CONTINUOUS
10
1.08217
20
0.932615
11
1.0772
21
0.932706
0
LINE
8
BLACK
6
CONTINUOUS
10
1.0772
20
0.932706
11
1.07246
21
0.934187
0
LINE
8
BLACK
6
CONTINUOUS
10
1.07246
20
0.934187
11
1.06832
21
0.936939
0
LINE
8
BLACK
6
CONTINUOUS
10
1.06832
20
0.936939
11
1.06562
21
0.940157
0
LINE
8
BLACK
6
CONTINUOUS
10
1.06562
20
0.940157
11
0.659077
21
0.940157
0
LINE
8
BLACK
6
CONTINUOUS
10
0.659077
20
0.940157
11
0.296063
21
0.577144
0
LINE
8
BLACK
6
CONTINUOUS
10
0.296063
20
0.577144
11
0.296063
21
0.207165
0
LINE
8
BLACK
6
CONTINUOUS
10
0.296063
20
0.207165
11
0.31622
21
0.207165
0
LINE
8
BLACK
6
CONTINUOUS
10
0.31622
20
0.207165
11
0.31622
21
0.147165
0
LINE
8
BLACK
6
CONTINUOUS
10
0.31622
20
0.147165
11
0.25622
21
0.147165
0
LINE
8
BLACK
6
CONTINUOUS
10
0.25622
20
0.147165
11
0.25622
21
0.207165
0
LINE
8
BLACK
6
CONTINUOUS
10
0.25622
20
0.207165
11
0.276378
21
0.207165
0
LINE
8
BLACK
6
CONTINUOUS
10
0.276378
20
0.207165
11
0.276378
21
0.58122
0
LINE
8
BLACK
6
CONTINUOUS
10
0.276378
20
0.58122
11
0.277127
21
0.584987
0
LINE
8
BLACK
6
CONTINUOUS
10
0.277127
20
0.584987
11
0.279261
21
0.58818
0
LINE
8
BLACK
6
CONTINUOUS
10
0.279261
20
0.58818
11
0.64804
21
0.95696
0
LINE
8
BLACK
6
CONTINUOUS
10
0.64804
20
0.95696
11
0.64804
21
0.95696
0
LINE
8
BLACK
6
CONTINUOUS
10
0.64804
20
0.95696
11
0.651233
21
0.959093
0
LINE
8
BLACK
6
CONTINUOUS
10
0.651233
20
0.959093
11
0.655
21
0.959843
0
LINE
8
BLACK
6
CONTINUOUS
10
0.655
20
0.959843
11
1.06555
21
0.959843
0
LINE
8
BLACK
6
CONTINUOUS
10
1.06555
20
0.959843
11
1.06865
21
0.963342
0
LINE
8
BLACK
6
CONTINUOUS
10
1.06865
20
0.963342
11
1.07285
21
0.965993
0
LINE
8
BLACK
6
CONTINUOUS
10
1.07285
20
0.965993
11
1.07762
21
0.967358
0
LINE
8
BLACK
6
CONTINUOUS
10
1.07762
20
0.967358
11
1.08259
21
0.967327
0
LINE
8
BLACK
6
CONTINUOUS
10
1.55236
20
1.38976
11
1.45787
21
1.38976
0
LINE
8
BLACK
6
CONTINUOUS
10
1.45787
20
1.38976
11
1.45787
21
1.48425
0
LINE
8
BLACK
6
CONTINUOUS
10
1.45787
20
1.48425
11
1.55236
21
1.48425
0
LINE
8
BLACK
6
CONTINUOUS
10
1.55236
20
1.48425
11
1.55236
21
1.38976
0
LINE
8
BLACK
6
CONTINUOUS
10
0.64685
20
1.38976
11
0.552362
21
1.38976
0
LINE
8
BLACK
6
CONTINUOUS
10
0.552362
20
1.38976
11
0.552362
21
1.48425
0
LINE
8
BLACK
6
CONTINUOUS
10
0.552362
20
1.48425
11
0.64685
21
1.48425
0
LINE
8
BLACK
6
CONTINUOUS
10
0.64685
20
1.48425
11
0.64685
21
1.38976
0
CIRCLE
8
BLACK
10
0.599606
20
0.689606
40
0.00984252
0
CIRCLE
8
BLACK
10
1.11
20
0.69
40
0.00984252
0
CIRCLE
8
BLACK
10
1.5
20
0.38
40
0.00984252
0
CIRCLE
8
BLACK
10
1.05
20
0.376378
40
0.00984252
0
CIRCLE
8
BLACK
10
0.26
20
0.08
40
0.00984252
0
CIRCLE
8
BLACK
10
0.11
20
0.08
40
0.00984252
0
CIRCLE
8
BLACK
10
0.06
20
0.08
40
0.00984252
0
CIRCLE
8
BLACK
10
2.24
20
0.08
40
0.00984252
0
CIRCLE
8
BLACK
10
0.41
20
0.08
40
0.00984252
0
CIRCLE
8
BLACK
10
2.34
20
0.08
40
0.00984252
0
CIRCLE
8
BLACK
10
2.29
20
0.08
40
0.00984252
0
CIRCLE
8
BLACK
10
0.16
20
0.08
40
0.00984252
0
CIRCLE
8
BLACK
10
0.21
20
0.08
40
0.00984252
0
CIRCLE
8
BLACK
10
2.04
20
0.08
40
0.00984252
0
CIRCLE
8
BLACK
10
2.14
20
0.08
40
0.00984252
0
CIRCLE
8
BLACK
10
1.99
20
0.08
40
0.00984252
0
CIRCLE
8
BLACK
10
2.19
20
0.08
40
0.00984252
0
CIRCLE
8
BLACK
10
0.36
20
0.08
40
0.00984252
0
CIRCLE
8
BLACK
10
2.09
20
0.08
40
0.00984252
0
CIRCLE
8
BLACK
10
0.31
20
0.08
40
0.00984252
0
CIRCLE
8
BLACK
10
1.08
20
0.95
40
0.00984252
0
CIRCLE
8
BLACK
10
1.08
20
1.02
40
0.00984252
  0
ENDSEC
  0
EOF
