  0
SECTION
  2
HEADER
  9
$ANGBASE
  50
0.0
  9
$ANGDIR
  70
1
  9
$MEASUREMENT
  70
0
  0
ENDSEC
  0
SECTION
  2
TABLES
  0
TABLE
  2
LTYPE
  70
4
  0
LTYPE
  5
40F
  2
CONTINUOUS
  70
0
  3
Solid line
  72
65
  73
0
  40
0.0
  0
LTYPE
  5
410
  2
DASHDOT
 70
0
  3
Dash Dot ____ _ ____ _
 72
65
 73
4
 40
2.0
 49
1.25
 49
-0.25
 49
0.25
 49
-0.25
  0
LTYPE
  5
411
  2
DASHED
 70
0
  3
Dashed __ __ __ __ __
 72
65
 73
2
 40
0.75
 49
0.5
 49
-0.25
  0
LTYPE
  5
43B
  2
DOTTED
 70
0
  3
Dotted .  .  .  .
 72
65
 73
2
 40
0.2
 49
0.0
 49
-0.2
  0
ENDTAB
  0
TABLE
  2
STYLE
  70
4
  0
STYLE
  2
KICAD
  70
0
  40
0
  41
1
  42
1
  50
0
  71
0
  3
isocp.shx
  0
STYLE
  2
KICADB
  70
0
  40
0
  41
1
  42
1
  50
0
  71
0
  3
isocp.shx
  0
STYLE
  2
KICADI
  70
0
  40
0
  41
1
  42
1
  50
15
  71
0
  3
isocp.shx
  0
STYLE
  2
KICADBI
  70
0
  40
0
  41
1
  42
1
  50
15
  71
0
  3
isocp.shx
  0
ENDTAB
  0
TABLE
  2
LAYER
  70
1
  0
LAYER
  2
BLACK
  70
0
  62
7
  6
CONTINUOUS
  0
ENDTAB
  0
ENDSEC
  0
SECTION
  2
ENTITIES
0
LINE
8
BLACK
6
CONTINUOUS
10
1.22148
20
0.972755
11
1.22468
21
0.970621
0
LINE
8
BLACK
6
CONTINUOUS
10
1.22468
20
0.970621
11
1.22681
21
0.967428
0
LINE
8
BLACK
6
CONTINUOUS
10
1.22681
20
0.967428
11
1.22756
21
0.963661
0
LINE
8
BLACK
6
CONTINUOUS
10
1.22756
20
0.963661
11
1.22756
21
0.936102
0
LINE
8
BLACK
6
CONTINUOUS
10
1.22756
20
0.936102
11
1.22681
21
0.932336
0
LINE
8
BLACK
6
CONTINUOUS
10
1.22681
20
0.932336
11
1.22468
21
0.929143
0
LINE
8
BLACK
6
CONTINUOUS
10
1.22468
20
0.929143
11
1.22148
21
0.927009
0
LINE
8
BLACK
6
CONTINUOUS
10
1.22148
20
0.927009
11
1.21772
21
0.92626
0
LINE
8
BLACK
6
CONTINUOUS
10
1.21772
20
0.92626
11
1.18228
21
0.92626
0
LINE
8
BLACK
6
CONTINUOUS
10
1.18228
20
0.92626
11
1.17852
21
0.927009
0
LINE
8
BLACK
6
CONTINUOUS
10
1.17852
20
0.927009
11
1.17532
21
0.929143
0
LINE
8
BLACK
6
CONTINUOUS
10
1.17532
20
0.929143
11
1.17319
21
0.932336
0
LINE
8
BLACK
6
CONTINUOUS
10
1.17319
20
0.932336
11
1.17244
21
0.936102
0
LINE
8
BLACK
6
CONTINUOUS
10
1.17244
20
0.936102
11
1.17244
21
0.963661
0
LINE
8
BLACK
6
CONTINUOUS
10
1.17244
20
0.963661
11
1.17319
21
0.967428
0
LINE
8
BLACK
6
CONTINUOUS
10
1.17319
20
0.967428
11
1.17532
21
0.970621
0
LINE
8
BLACK
6
CONTINUOUS
10
1.17532
20
0.970621
11
1.17852
21
0.972755
0
LINE
8
BLACK
6
CONTINUOUS
10
1.17852
20
0.972755
11
1.18228
21
0.973504
0
LINE
8
BLACK
6
CONTINUOUS
10
1.18228
20
0.973504
11
1.21772
21
0.973504
0
LINE
8
BLACK
6
CONTINUOUS
10
1.21772
20
0.973504
11
1.22148
21
0.972755
0
LINE
8
BLACK
6
CONTINUOUS
10
1.22148
20
1.05149
11
1.22468
21
1.04936
0
LINE
8
BLACK
6
CONTINUOUS
10
1.22468
20
1.04936
11
1.22681
21
1.04617
0
LINE
8
BLACK
6
CONTINUOUS
10
1.22681
20
1.04617
11
1.22756
21
1.0424
0
LINE
8
BLACK
6
CONTINUOUS
10
1.22756
20
1.0424
11
1.22756
21
1.01484
0
LINE
8
BLACK
6
CONTINUOUS
10
1.22756
20
1.01484
11
1.22681
21
1.01108
0
LINE
8
BLACK
6
CONTINUOUS
10
1.22681
20
1.01108
11
1.22468
21
1.00788
0
LINE
8
BLACK
6
CONTINUOUS
10
1.22468
20
1.00788
11
1.22148
21
1.00575
0
LINE
8
BLACK
6
CONTINUOUS
10
1.22148
20
1.00575
11
1.21772
21
1.005
0
LINE
8
BLACK
6
CONTINUOUS
10
1.21772
20
1.005
11
1.18228
21
1.005
0
LINE
8
BLACK
6
CONTINUOUS
10
1.18228
20
1.005
11
1.17852
21
1.00575
0
LINE
8
BLACK
6
CONTINUOUS
10
1.17852
20
1.00575
11
1.17532
21
1.00788
0
LINE
8
BLACK
6
CONTINUOUS
10
1.17532
20
1.00788
11
1.17319
21
1.01108
0
LINE
8
BLACK
6
CONTINUOUS
10
1.17319
20
1.01108
11
1.17244
21
1.01484
0
LINE
8
BLACK
6
CONTINUOUS
10
1.17244
20
1.01484
11
1.17244
21
1.0424
0
LINE
8
BLACK
6
CONTINUOUS
10
1.17244
20
1.0424
11
1.17319
21
1.04617
0
LINE
8
BLACK
6
CONTINUOUS
10
1.17319
20
1.04617
11
1.17532
21
1.04936
0
LINE
8
BLACK
6
CONTINUOUS
10
1.17532
20
1.04936
11
1.17852
21
1.05149
0
LINE
8
BLACK
6
CONTINUOUS
10
1.17852
20
1.05149
11
1.18228
21
1.05224
0
LINE
8
BLACK
6
CONTINUOUS
10
1.18228
20
1.05224
11
1.21772
21
1.05224
0
LINE
8
BLACK
6
CONTINUOUS
10
1.21772
20
1.05224
11
1.22148
21
1.05149
  0
ENDSEC
  0
EOF
