  0
SECTION
  2
HEADER
  9
$ANGBASE
  50
0.0
  9
$ANGDIR
  70
1
  9
$MEASUREMENT
  70
0
  0
ENDSEC
  0
SECTION
  2
TABLES
  0
TABLE
  2
LTYPE
  70
4
  0
LTYPE
  5
40F
  2
CONTINUOUS
  70
0
  3
Solid line
  72
65
  73
0
  40
0.0
  0
LTYPE
  5
410
  2
DASHDOT
 70
0
  3
Dash Dot ____ _ ____ _
 72
65
 73
4
 40
2.0
 49
1.25
 49
-0.25
 49
0.25
 49
-0.25
  0
LTYPE
  5
411
  2
DASHED
 70
0
  3
Dashed __ __ __ __ __
 72
65
 73
2
 40
0.75
 49
0.5
 49
-0.25
  0
LTYPE
  5
43B
  2
DOTTED
 70
0
  3
Dotted .  .  .  .
 72
65
 73
2
 40
0.2
 49
0.0
 49
-0.2
  0
ENDTAB
  0
TABLE
  2
STYLE
  70
4
  0
STYLE
  2
KICAD
  70
0
  40
0
  41
1
  42
1
  50
0
  71
0
  3
isocp.shx
  0
STYLE
  2
KICADB
  70
0
  40
0
  41
1
  42
1
  50
0
  71
0
  3
isocp.shx
  0
STYLE
  2
KICADI
  70
0
  40
0
  41
1
  42
1
  50
15
  71
0
  3
isocp.shx
  0
STYLE
  2
KICADBI
  70
0
  40
0
  41
1
  42
1
  50
15
  71
0
  3
isocp.shx
  0
ENDTAB
  0
TABLE
  2
LAYER
  70
1
  0
LAYER
  2
BLACK
  70
0
  62
7
  6
CONTINUOUS
  0
ENDTAB
  0
ENDSEC
  0
SECTION
  2
ENTITIES
0
LINE
8
BLACK
6
CONTINUOUS
10
0.0300591
20
1.57362
11
0.0301498
21
1.57421
0
LINE
8
BLACK
6
CONTINUOUS
10
0.0301498
20
1.57421
11
0.0301498
21
1.57421
0
LINE
8
BLACK
6
CONTINUOUS
10
0.0301498
20
1.57421
11
0.0302042
21
1.57456
0
LINE
8
BLACK
6
CONTINUOUS
10
0.0302042
20
1.57456
11
0.0300854
21
1.57546
0
LINE
8
BLACK
6
CONTINUOUS
10
0.0300854
20
1.57546
11
0.0300459
21
1.57626
0
LINE
8
BLACK
6
CONTINUOUS
10
0.0300459
20
1.57626
11
0.0307325
21
1.59811
0
LINE
8
BLACK
6
CONTINUOUS
10
0.0307325
20
1.59811
11
0.0307521
21
1.59842
0
LINE
8
BLACK
6
CONTINUOUS
10
0.0307521
20
1.59842
11
0.032932
21
1.62149
0
LINE
8
BLACK
6
CONTINUOUS
10
0.032932
20
1.62149
11
0.0329711
21
1.62179
0
LINE
8
BLACK
6
CONTINUOUS
10
0.0329711
20
1.62179
11
0.0365948
21
1.64467
0
LINE
8
BLACK
6
CONTINUOUS
10
0.0365948
20
1.64467
11
0.0366533
21
1.64498
0
LINE
8
BLACK
6
CONTINUOUS
10
0.0366533
20
1.64498
11
0.0417066
21
1.66759
0
LINE
8
BLACK
6
CONTINUOUS
10
0.0417066
20
1.66759
11
0.0417841
21
1.66789
0
LINE
8
BLACK
6
CONTINUOUS
10
0.0417841
20
1.66789
11
0.0482467
21
1.69013
0
LINE
8
BLACK
6
CONTINUOUS
10
0.0482467
20
1.69013
11
0.048343
21
1.69043
0
LINE
8
BLACK
6
CONTINUOUS
10
0.048343
20
1.69043
11
0.0510456
21
1.69794
0
LINE
8
BLACK
6
CONTINUOUS
10
0.0510456
20
1.69794
11
0.05619
21
1.71223
0
LINE
8
BLACK
6
CONTINUOUS
10
0.05619
20
1.71223
11
0.0563042
21
1.71251
0
LINE
8
BLACK
6
CONTINUOUS
10
0.0563042
20
1.71251
11
0.0655045
21
1.73377
0
LINE
8
BLACK
6
CONTINUOUS
10
0.0655045
20
1.73377
11
0.0656366
21
1.73406
0
LINE
8
BLACK
6
CONTINUOUS
10
0.0656366
20
1.73406
11
0.0761535
21
1.7547
0
LINE
8
BLACK
6
CONTINUOUS
10
0.0761535
20
1.7547
11
0.0763036
21
1.75497
0
LINE
8
BLACK
6
CONTINUOUS
10
0.0763036
20
1.75497
11
0.0880956
21
1.77491
0
LINE
8
BLACK
6
CONTINUOUS
10
0.0880956
20
1.77491
11
0.0882626
21
1.77517
0
LINE
8
BLACK
6
CONTINUOUS
10
0.0882626
20
1.77517
11
0.101283
21
1.79433
0
LINE
8
BLACK
6
CONTINUOUS
10
0.101283
20
1.79433
11
0.101466
21
1.79458
0
LINE
8
BLACK
6
CONTINUOUS
10
0.101466
20
1.79458
11
0.115664
21
1.81289
0
LINE
8
BLACK
6
CONTINUOUS
10
0.115664
20
1.81289
11
0.115862
21
1.81313
0
LINE
8
BLACK
6
CONTINUOUS
10
0.115862
20
1.81313
11
0.131182
21
1.8305
0
LINE
8
BLACK
6
CONTINUOUS
10
0.131182
20
1.8305
11
0.131395
21
1.83073
0
LINE
8
BLACK
6
CONTINUOUS
10
0.131395
20
1.83073
11
0.147775
21
1.84711
0
LINE
8
BLACK
6
CONTINUOUS
10
0.147775
20
1.84711
11
0.148002
21
1.84732
0
LINE
8
BLACK
6
CONTINUOUS
10
0.148002
20
1.84732
11
0.165378
21
1.86264
0
LINE
8
BLACK
6
CONTINUOUS
10
0.165378
20
1.86264
11
0.165618
21
1.86284
0
LINE
8
BLACK
6
CONTINUOUS
10
0.165618
20
1.86284
11
0.183922
21
1.87704
0
LINE
8
BLACK
6
CONTINUOUS
10
0.183922
20
1.87704
11
0.184174
21
1.87722
0
LINE
8
BLACK
6
CONTINUOUS
10
0.184174
20
1.87722
11
0.203333
21
1.89024
0
LINE
8
BLACK
6
CONTINUOUS
10
0.203333
20
1.89024
11
0.203596
21
1.89041
0
LINE
8
BLACK
6
CONTINUOUS
10
0.203596
20
1.89041
11
0.223535
21
1.9022
0
LINE
8
BLACK
6
CONTINUOUS
10
0.223535
20
1.9022
11
0.223808
21
1.90235
0
LINE
8
BLACK
6
CONTINUOUS
10
0.223808
20
1.90235
11
0.227269
21
1.90411
0
LINE
8
BLACK
6
CONTINUOUS
10
0.227269
20
1.90411
11
0.244449
21
1.91287
0
LINE
8
BLACK
6
CONTINUOUS
10
0.244449
20
1.91287
11
0.244729
21
1.913
0
LINE
8
BLACK
6
CONTINUOUS
10
0.244729
20
1.913
11
0.26599
21
1.9222
0
LINE
8
BLACK
6
CONTINUOUS
10
0.26599
20
1.9222
11
0.266278
21
1.92231
0
LINE
8
BLACK
6
CONTINUOUS
10
0.266278
20
1.92231
11
0.288075
21
1.93016
0
LINE
8
BLACK
6
CONTINUOUS
10
0.288075
20
1.93016
11
0.28837
21
1.93026
0
LINE
8
BLACK
6
CONTINUOUS
10
0.28837
20
1.93026
11
0.299964
21
1.93363
0
LINE
8
BLACK
6
CONTINUOUS
10
0.299964
20
1.93363
11
0.310615
21
1.93672
0
LINE
8
BLACK
6
CONTINUOUS
10
0.310615
20
1.93672
11
0.310917
21
1.9368
0
LINE
8
BLACK
6
CONTINUOUS
10
0.310917
20
1.9368
11
0.333524
21
1.94185
0
LINE
8
BLACK
6
CONTINUOUS
10
0.333524
20
1.94185
11
0.33383
21
1.94191
0
LINE
8
BLACK
6
CONTINUOUS
10
0.33383
20
1.94191
11
0.35671
21
1.94553
0
LINE
8
BLACK
6
CONTINUOUS
10
0.35671
20
1.94553
11
0.357019
21
1.94557
0
LINE
8
BLACK
6
CONTINUOUS
10
0.357019
20
1.94557
11
0.366865
21
1.9465
0
LINE
8
BLACK
6
CONTINUOUS
10
0.366865
20
1.9465
11
0.380081
21
1.94775
0
LINE
8
BLACK
6
CONTINUOUS
10
0.380081
20
1.94775
11
0.380392
21
1.94777
0
LINE
8
BLACK
6
CONTINUOUS
10
0.380392
20
1.94777
11
0.401942
21
1.94845
0
LINE
8
BLACK
6
CONTINUOUS
10
0.401942
20
1.94845
11
0.402861
21
1.94839
0
LINE
8
BLACK
6
CONTINUOUS
10
0.402861
20
1.94839
11
0.403008
21
1.94837
0
LINE
8
BLACK
6
CONTINUOUS
10
0.403008
20
1.94837
11
0.403454
21
1.9483
0
LINE
8
BLACK
6
CONTINUOUS
10
0.403454
20
1.9483
11
0.403804
21
1.94835
0
LINE
8
BLACK
6
CONTINUOUS
10
0.403804
20
1.94835
11
0.403805
21
1.94835
0
LINE
8
BLACK
6
CONTINUOUS
10
0.403805
20
1.94835
11
0.404695
21
1.94846
0
LINE
8
BLACK
6
CONTINUOUS
10
0.404695
20
1.94846
11
0.405338
21
1.9485
0
LINE
8
BLACK
6
CONTINUOUS
10
0.405338
20
1.9485
11
1.99436
21
1.9485
0
LINE
8
BLACK
6
CONTINUOUS
10
1.99436
20
1.9485
11
1.99512
21
1.94844
0
LINE
8
BLACK
6
CONTINUOUS
10
1.99512
20
1.94844
11
1.9957
21
1.94835
0
LINE
8
BLACK
6
CONTINUOUS
10
1.9957
20
1.94835
11
1.9957
21
1.94835
0
LINE
8
BLACK
6
CONTINUOUS
10
1.9957
20
1.94835
11
1.99605
21
1.9483
0
LINE
8
BLACK
6
CONTINUOUS
10
1.99605
20
1.9483
11
1.9964
21
1.94835
0
LINE
8
BLACK
6
CONTINUOUS
10
1.9964
20
1.94835
11
1.9964
21
1.94835
0
LINE
8
BLACK
6
CONTINUOUS
10
1.9964
20
1.94835
11
1.99677
21
1.94839
0
LINE
8
BLACK
6
CONTINUOUS
10
1.99677
20
1.94839
11
1.99696
21
1.94842
0
LINE
8
BLACK
6
CONTINUOUS
10
1.99696
20
1.94842
11
1.99776
21
1.94846
0
LINE
8
BLACK
6
CONTINUOUS
10
1.99776
20
1.94846
11
2.00106
21
1.94835
0
LINE
8
BLACK
6
CONTINUOUS
10
2.00106
20
1.94835
11
2.01961
21
1.94777
0
LINE
8
BLACK
6
CONTINUOUS
10
2.01961
20
1.94777
11
2.01992
21
1.94775
0
LINE
8
BLACK
6
CONTINUOUS
10
2.01992
20
1.94775
11
2.03313
21
1.9465
0
LINE
8
BLACK
6
CONTINUOUS
10
2.03313
20
1.9465
11
2.04298
21
1.94557
0
LINE
8
BLACK
6
CONTINUOUS
10
2.04298
20
1.94557
11
2.04329
21
1.94553
0
LINE
8
BLACK
6
CONTINUOUS
10
2.04329
20
1.94553
11
2.06617
21
1.94191
0
LINE
8
BLACK
6
CONTINUOUS
10
2.06617
20
1.94191
11
2.06648
21
1.94185
0
LINE
8
BLACK
6
CONTINUOUS
10
2.06648
20
1.94185
11
2.08908
21
1.9368
0
LINE
8
BLACK
6
CONTINUOUS
10
2.08908
20
1.9368
11
2.08938
21
1.93672
0
LINE
8
BLACK
6
CONTINUOUS
10
2.08938
20
1.93672
11
2.10004
21
1.93363
0
LINE
8
BLACK
6
CONTINUOUS
10
2.10004
20
1.93363
11
2.11163
21
1.93026
0
LINE
8
BLACK
6
CONTINUOUS
10
2.11163
20
1.93026
11
2.11193
21
1.93016
0
LINE
8
BLACK
6
CONTINUOUS
10
2.11193
20
1.93016
11
2.13372
21
1.92231
0
LINE
8
BLACK
6
CONTINUOUS
10
2.13372
20
1.92231
11
2.13401
21
1.9222
0
LINE
8
BLACK
6
CONTINUOUS
10
2.13401
20
1.9222
11
2.15527
21
1.913
0
LINE
8
BLACK
6
CONTINUOUS
10
2.15527
20
1.913
11
2.15555
21
1.91287
0
LINE
8
BLACK
6
CONTINUOUS
10
2.15555
20
1.91287
11
2.17273
21
1.90411
0
LINE
8
BLACK
6
CONTINUOUS
10
2.17273
20
1.90411
11
2.17619
21
1.90235
0
LINE
8
BLACK
6
CONTINUOUS
10
2.17619
20
1.90235
11
2.17647
21
1.9022
0
LINE
8
BLACK
6
CONTINUOUS
10
2.17647
20
1.9022
11
2.1964
21
1.89041
0
LINE
8
BLACK
6
CONTINUOUS
10
2.1964
20
1.89041
11
2.19667
21
1.89024
0
LINE
8
BLACK
6
CONTINUOUS
10
2.19667
20
1.89024
11
2.21583
21
1.87722
0
LINE
8
BLACK
6
CONTINUOUS
10
2.21583
20
1.87722
11
2.21608
21
1.87704
0
LINE
8
BLACK
6
CONTINUOUS
10
2.21608
20
1.87704
11
2.23438
21
1.86284
0
LINE
8
BLACK
6
CONTINUOUS
10
2.23438
20
1.86284
11
2.23462
21
1.86264
0
LINE
8
BLACK
6
CONTINUOUS
10
2.23462
20
1.86264
11
2.252
21
1.84732
0
LINE
8
BLACK
6
CONTINUOUS
10
2.252
20
1.84732
11
2.25223
21
1.84711
0
LINE
8
BLACK
6
CONTINUOUS
10
2.25223
20
1.84711
11
2.2686
21
1.83073
0
LINE
8
BLACK
6
CONTINUOUS
10
2.2686
20
1.83073
11
2.26882
21
1.8305
0
LINE
8
BLACK
6
CONTINUOUS
10
2.26882
20
1.8305
11
2.28414
21
1.81313
0
LINE
8
BLACK
6
CONTINUOUS
10
2.28414
20
1.81313
11
2.28434
21
1.81289
0
LINE
8
BLACK
6
CONTINUOUS
10
2.28434
20
1.81289
11
2.29853
21
1.79458
0
LINE
8
BLACK
6
CONTINUOUS
10
2.29853
20
1.79458
11
2.29872
21
1.79433
0
LINE
8
BLACK
6
CONTINUOUS
10
2.29872
20
1.79433
11
2.31174
21
1.77517
0
LINE
8
BLACK
6
CONTINUOUS
10
2.31174
20
1.77517
11
2.3119
21
1.77491
0
LINE
8
BLACK
6
CONTINUOUS
10
2.3119
20
1.77491
11
2.3237
21
1.75497
0
LINE
8
BLACK
6
CONTINUOUS
10
2.3237
20
1.75497
11
2.32385
21
1.7547
0
LINE
8
BLACK
6
CONTINUOUS
10
2.32385
20
1.7547
11
2.33436
21
1.73406
0
LINE
8
BLACK
6
CONTINUOUS
10
2.33436
20
1.73406
11
2.3345
21
1.73377
0
LINE
8
BLACK
6
CONTINUOUS
10
2.3345
20
1.73377
11
2.3437
21
1.71251
0
LINE
8
BLACK
6
CONTINUOUS
10
2.3437
20
1.71251
11
2.34381
21
1.71223
0
LINE
8
BLACK
6
CONTINUOUS
10
2.34381
20
1.71223
11
2.34895
21
1.69794
0
LINE
8
BLACK
6
CONTINUOUS
10
2.34895
20
1.69794
11
2.35166
21
1.69043
0
LINE
8
BLACK
6
CONTINUOUS
10
2.35166
20
1.69043
11
2.35175
21
1.69013
0
LINE
8
BLACK
6
CONTINUOUS
10
2.35175
20
1.69013
11
2.35822
21
1.66789
0
LINE
8
BLACK
6
CONTINUOUS
10
2.35822
20
1.66789
11
2.35829
21
1.66759
0
LINE
8
BLACK
6
CONTINUOUS
10
2.35829
20
1.66759
11
2.36335
21
1.64498
0
LINE
8
BLACK
6
CONTINUOUS
10
2.36335
20
1.64498
11
2.36341
21
1.64467
0
LINE
8
BLACK
6
CONTINUOUS
10
2.36341
20
1.64467
11
2.36703
21
1.62179
0
LINE
8
BLACK
6
CONTINUOUS
10
2.36703
20
1.62179
11
2.36707
21
1.62149
0
LINE
8
BLACK
6
CONTINUOUS
10
2.36707
20
1.62149
11
2.36925
21
1.59842
0
LINE
8
BLACK
6
CONTINUOUS
10
2.36925
20
1.59842
11
2.36927
21
1.59811
0
LINE
8
BLACK
6
CONTINUOUS
10
2.36927
20
1.59811
11
2.36994
21
1.57656
0
LINE
8
BLACK
6
CONTINUOUS
10
2.36994
20
1.57656
11
2.36989
21
1.57564
0
LINE
8
BLACK
6
CONTINUOUS
10
2.36989
20
1.57564
11
2.3698
21
1.57505
0
LINE
8
BLACK
6
CONTINUOUS
10
2.3698
20
1.57505
11
2.36984
21
1.5747
0
LINE
8
BLACK
6
CONTINUOUS
10
2.36984
20
1.5747
11
2.36984
21
1.5747
0
LINE
8
BLACK
6
CONTINUOUS
10
2.36984
20
1.5747
11
2.36996
21
1.57381
0
LINE
8
BLACK
6
CONTINUOUS
10
2.36996
20
1.57381
11
2.37
21
1.57317
0
LINE
8
BLACK
6
CONTINUOUS
10
2.37
20
1.57317
11
2.37
21
0.0349606
0
LINE
8
BLACK
6
CONTINUOUS
10
2.37
20
0.0349606
11
2.36921
21
0.0322787
0
LINE
8
BLACK
6
CONTINUOUS
10
2.36921
20
0.0322787
11
2.3671
21
0.0304483
0
LINE
8
BLACK
6
CONTINUOUS
10
2.3671
20
0.0304483
11
2.36504
21
0.03
0
LINE
8
BLACK
6
CONTINUOUS
10
2.36504
20
0.03
11
0.0349606
21
0.03
0
LINE
8
BLACK
6
CONTINUOUS
10
0.0349606
20
0.03
11
0.0322787
21
0.0307875
0
LINE
8
BLACK
6
CONTINUOUS
10
0.0322787
20
0.0307875
11
0.0304483
21
0.0328999
0
LINE
8
BLACK
6
CONTINUOUS
10
0.0304483
20
0.0328999
11
0.03
21
0.0349606
0
LINE
8
BLACK
6
CONTINUOUS
10
0.03
20
0.0349606
11
0.03
21
1.57286
0
LINE
8
BLACK
6
CONTINUOUS
10
0.03
20
1.57286
11
0.0300591
21
1.57362
0
LINE
8
BLACK
6
CONTINUOUS
10
0.829883
20
0.51347
11
0.829945
21
0.513297
0
LINE
8
BLACK
6
CONTINUOUS
10
0.829945
20
0.513297
11
0.829945
21
0.513297
0
LINE
8
BLACK
6
CONTINUOUS
10
0.829945
20
0.513297
11
0.83292
21
0.505011
0
LINE
8
BLACK
6
CONTINUOUS
10
0.83292
20
0.505011
11
0.833261
21
0.504061
0
LINE
8
BLACK
6
CONTINUOUS
10
0.833261
20
0.504061
11
0.837993
21
0.495254
0
LINE
8
BLACK
6
CONTINUOUS
10
0.837993
20
0.495254
11
0.838103
21
0.495107
0
LINE
8
BLACK
6
CONTINUOUS
10
0.838103
20
0.495107
11
0.838103
21
0.495106
0
LINE
8
BLACK
6
CONTINUOUS
10
0.838103
20
0.495106
11
0.843865
21
0.48739
0
LINE
8
BLACK
6
CONTINUOUS
10
0.843865
20
0.48739
11
0.843865
21
0.48739
0
LINE
8
BLACK
6
CONTINUOUS
10
0.843865
20
0.48739
11
0.843975
21
0.487243
0
LINE
8
BLACK
6
CONTINUOUS
10
0.843975
20
0.487243
11
0.844105
21
0.487114
0
LINE
8
BLACK
6
CONTINUOUS
10
0.844105
20
0.487114
11
0.844105
21
0.487114
0
LINE
8
BLACK
6
CONTINUOUS
10
0.844105
20
0.487114
11
0.850944
21
0.480334
0
LINE
8
BLACK
6
CONTINUOUS
10
0.850944
20
0.480334
11
0.851075
21
0.480205
0
LINE
8
BLACK
6
CONTINUOUS
10
0.851075
20
0.480205
11
0.851223
21
0.480096
0
LINE
8
BLACK
6
CONTINUOUS
10
0.851223
20
0.480096
11
0.851223
21
0.480096
0
LINE
8
BLACK
6
CONTINUOUS
10
0.851223
20
0.480096
11
0.855384
21
0.477045
0
LINE
8
BLACK
6
CONTINUOUS
10
0.855384
20
0.477045
11
0.859138
21
0.474293
0
LINE
8
BLACK
6
CONTINUOUS
10
0.859138
20
0.474293
11
0.8593
21
0.474208
0
LINE
8
BLACK
6
CONTINUOUS
10
0.8593
20
0.474208
11
0.859301
21
0.474207
0
LINE
8
BLACK
6
CONTINUOUS
10
0.859301
20
0.474207
11
0.863948
21
0.471762
0
LINE
8
BLACK
6
CONTINUOUS
10
0.863948
20
0.471762
11
0.867985
21
0.469638
0
LINE
8
BLACK
6
CONTINUOUS
10
0.867985
20
0.469638
11
0.873274
21
0.467791
0
LINE
8
BLACK
6
CONTINUOUS
10
0.873274
20
0.467791
11
0.875807
21
0.466907
0
LINE
8
BLACK
6
CONTINUOUS
10
0.875807
20
0.466907
11
0.877424
21
0.466342
0
LINE
8
BLACK
6
CONTINUOUS
10
0.877424
20
0.466342
11
0.887246
21
0.464477
0
LINE
8
BLACK
6
CONTINUOUS
10
0.887246
20
0.464477
11
0.891989
21
0.464291
0
LINE
8
BLACK
6
CONTINUOUS
10
0.891989
20
0.464291
11
0.897052
21
0.464092
0
LINE
8
BLACK
6
CONTINUOUS
10
0.897052
20
0.464092
11
0.897052
21
0.464092
0
LINE
8
BLACK
6
CONTINUOUS
10
0.897052
20
0.464092
11
0.897236
21
0.464085
0
LINE
8
BLACK
6
CONTINUOUS
10
0.897236
20
0.464085
11
0.901133
21
0.464512
0
LINE
8
BLACK
6
CONTINUOUS
10
0.901133
20
0.464512
11
0.906991
21
0.465153
0
LINE
8
BLACK
6
CONTINUOUS
10
0.906991
20
0.465153
11
0.906991
21
0.465153
0
LINE
8
BLACK
6
CONTINUOUS
10
0.906991
20
0.465153
11
0.907174
21
0.465173
0
LINE
8
BLACK
6
CONTINUOUS
10
0.907174
20
0.465173
11
0.912256
21
0.466511
0
LINE
8
BLACK
6
CONTINUOUS
10
0.912256
20
0.466511
11
0.913759
21
0.466907
0
LINE
8
BLACK
6
CONTINUOUS
10
0.913759
20
0.466907
11
0.916553
21
0.466828
0
LINE
8
BLACK
6
CONTINUOUS
10
0.916553
20
0.466828
11
0.918529
21
0.465617
0
LINE
8
BLACK
6
CONTINUOUS
10
0.918529
20
0.465617
11
1.01146
21
0.372685
0
LINE
8
BLACK
6
CONTINUOUS
10
1.01146
20
0.372685
11
1.0128
21
0.370232
0
LINE
8
BLACK
6
CONTINUOUS
10
1.0128
20
0.370232
11
1.01283
21
0.370048
0
LINE
8
BLACK
6
CONTINUOUS
10
1.01283
20
0.370048
11
1.01283
21
0.370049
0
LINE
8
BLACK
6
CONTINUOUS
10
1.01283
20
0.370049
11
1.01288
21
0.36981
0
LINE
8
BLACK
6
CONTINUOUS
10
1.01288
20
0.36981
11
1.0129
21
0.369569
0
LINE
8
BLACK
6
CONTINUOUS
10
1.0129
20
0.369569
11
1.01493
21
0.362492
0
LINE
8
BLACK
6
CONTINUOUS
10
1.01493
20
0.362492
11
1.01829
21
0.355944
0
LINE
8
BLACK
6
CONTINUOUS
10
1.01829
20
0.355944
11
1.01844
21
0.355754
0
LINE
8
BLACK
6
CONTINUOUS
10
1.01844
20
0.355754
11
1.01844
21
0.355754
0
LINE
8
BLACK
6
CONTINUOUS
10
1.01844
20
0.355754
11
1.01906
21
0.35497
0
LINE
8
BLACK
6
CONTINUOUS
10
1.01906
20
0.35497
11
1.02011
21
0.352379
0
LINE
8
BLACK
6
CONTINUOUS
10
1.02011
20
0.352379
11
1.02014
21
0.351889
0
LINE
8
BLACK
6
CONTINUOUS
10
1.02014
20
0.351889
11
1.02014
21
0.231857
0
LINE
8
BLACK
6
CONTINUOUS
10
1.02014
20
0.231857
11
1.01935
21
0.229175
0
LINE
8
BLACK
6
CONTINUOUS
10
1.01935
20
0.229175
11
1.01724
21
0.227344
0
LINE
8
BLACK
6
CONTINUOUS
10
1.01724
20
0.227344
11
1.01626
21
0.227075
0
LINE
8
BLACK
6
CONTINUOUS
10
1.01626
20
0.227075
11
1.01627
21
0.227025
0
LINE
8
BLACK
6
CONTINUOUS
10
1.01627
20
0.227025
11
1.01597
21
0.226953
0
LINE
8
BLACK
6
CONTINUOUS
10
1.01597
20
0.226953
11
1.01566
21
0.226919
0
LINE
8
BLACK
6
CONTINUOUS
10
1.01566
20
0.226919
11
1.01029
21
0.224906
0
LINE
8
BLACK
6
CONTINUOUS
10
1.01029
20
0.224906
11
1.0057
21
0.221467
0
LINE
8
BLACK
6
CONTINUOUS
10
1.0057
20
0.221467
11
1.00226
21
0.216878
0
LINE
8
BLACK
6
CONTINUOUS
10
1.00226
20
0.216878
11
1.00025
21
0.211509
0
LINE
8
BLACK
6
CONTINUOUS
10
1.00025
20
0.211509
11
0.99998
21
0.20906
0
LINE
8
BLACK
6
CONTINUOUS
10
0.99998
20
0.20906
11
0.99998
21
0.14527
0
LINE
8
BLACK
6
CONTINUOUS
10
0.99998
20
0.14527
11
1.00025
21
0.142822
0
LINE
8
BLACK
6
CONTINUOUS
10
1.00025
20
0.142822
11
1.00226
21
0.137453
0
LINE
8
BLACK
6
CONTINUOUS
10
1.00226
20
0.137453
11
1.0057
21
0.132864
0
LINE
8
BLACK
6
CONTINUOUS
10
1.0057
20
0.132864
11
1.01029
21
0.129425
0
LINE
8
BLACK
6
CONTINUOUS
10
1.01029
20
0.129425
11
1.01566
21
0.127412
0
LINE
8
BLACK
6
CONTINUOUS
10
1.01566
20
0.127412
11
1.0181
21
0.127146
0
LINE
8
BLACK
6
CONTINUOUS
10
1.0181
20
0.127146
11
1.0819
21
0.127146
0
LINE
8
BLACK
6
CONTINUOUS
10
1.0819
20
0.127146
11
1.08434
21
0.127412
0
LINE
8
BLACK
6
CONTINUOUS
10
1.08434
20
0.127412
11
1.08971
21
0.129425
0
LINE
8
BLACK
6
CONTINUOUS
10
1.08971
20
0.129425
11
1.0943
21
0.132864
0
LINE
8
BLACK
6
CONTINUOUS
10
1.0943
20
0.132864
11
1.09603
21
0.135171
0
LINE
8
BLACK
6
CONTINUOUS
10
1.09603
20
0.135171
11
1.09827
21
0.136844
0
LINE
8
BLACK
6
CONTINUOUS
10
1.09827
20
0.136844
11
1.10106
21
0.137042
0
LINE
8
BLACK
6
CONTINUOUS
10
1.10106
20
0.137042
11
1.10351
21
0.135701
0
LINE
8
BLACK
6
CONTINUOUS
10
1.10351
20
0.135701
11
1.10397
21
0.135171
0
LINE
8
BLACK
6
CONTINUOUS
10
1.10397
20
0.135171
11
1.1057
21
0.132864
0
LINE
8
BLACK
6
CONTINUOUS
10
1.1057
20
0.132864
11
1.11029
21
0.129425
0
LINE
8
BLACK
6
CONTINUOUS
10
1.11029
20
0.129425
11
1.11566
21
0.127412
0
LINE
8
BLACK
6
CONTINUOUS
10
1.11566
20
0.127412
11
1.1181
21
0.127146
0
LINE
8
BLACK
6
CONTINUOUS
10
1.1181
20
0.127146
11
1.1819
21
0.127146
0
LINE
8
BLACK
6
CONTINUOUS
10
1.1819
20
0.127146
11
1.18434
21
0.127412
0
LINE
8
BLACK
6
CONTINUOUS
10
1.18434
20
0.127412
11
1.18971
21
0.129425
0
LINE
8
BLACK
6
CONTINUOUS
10
1.18971
20
0.129425
11
1.1943
21
0.132864
0
LINE
8
BLACK
6
CONTINUOUS
10
1.1943
20
0.132864
11
1.19603
21
0.135171
0
LINE
8
BLACK
6
CONTINUOUS
10
1.19603
20
0.135171
11
1.19827
21
0.136844
0
LINE
8
BLACK
6
CONTINUOUS
10
1.19827
20
0.136844
11
1.20106
21
0.137042
0
LINE
8
BLACK
6
CONTINUOUS
10
1.20106
20
0.137042
11
1.20351
21
0.135701
0
LINE
8
BLACK
6
CONTINUOUS
10
1.20351
20
0.135701
11
1.20397
21
0.135171
0
LINE
8
BLACK
6
CONTINUOUS
10
1.20397
20
0.135171
11
1.2057
21
0.132864
0
LINE
8
BLACK
6
CONTINUOUS
10
1.2057
20
0.132864
11
1.21029
21
0.129425
0
LINE
8
BLACK
6
CONTINUOUS
10
1.21029
20
0.129425
11
1.21566
21
0.127412
0
LINE
8
BLACK
6
CONTINUOUS
10
1.21566
20
0.127412
11
1.2181
21
0.127146
0
LINE
8
BLACK
6
CONTINUOUS
10
1.2181
20
0.127146
11
1.2819
21
0.127146
0
LINE
8
BLACK
6
CONTINUOUS
10
1.2819
20
0.127146
11
1.28434
21
0.127412
0
LINE
8
BLACK
6
CONTINUOUS
10
1.28434
20
0.127412
11
1.28971
21
0.129425
0
LINE
8
BLACK
6
CONTINUOUS
10
1.28971
20
0.129425
11
1.2943
21
0.132864
0
LINE
8
BLACK
6
CONTINUOUS
10
1.2943
20
0.132864
11
1.29603
21
0.135171
0
LINE
8
BLACK
6
CONTINUOUS
10
1.29603
20
0.135171
11
1.29827
21
0.136844
0
LINE
8
BLACK
6
CONTINUOUS
10
1.29827
20
0.136844
11
1.30106
21
0.137042
0
LINE
8
BLACK
6
CONTINUOUS
10
1.30106
20
0.137042
11
1.30351
21
0.135701
0
LINE
8
BLACK
6
CONTINUOUS
10
1.30351
20
0.135701
11
1.30397
21
0.135171
0
LINE
8
BLACK
6
CONTINUOUS
10
1.30397
20
0.135171
11
1.3057
21
0.132864
0
LINE
8
BLACK
6
CONTINUOUS
10
1.3057
20
0.132864
11
1.31029
21
0.129425
0
LINE
8
BLACK
6
CONTINUOUS
10
1.31029
20
0.129425
11
1.31566
21
0.127412
0
LINE
8
BLACK
6
CONTINUOUS
10
1.31566
20
0.127412
11
1.3181
21
0.127146
0
LINE
8
BLACK
6
CONTINUOUS
10
1.3181
20
0.127146
11
1.3819
21
0.127146
0
LINE
8
BLACK
6
CONTINUOUS
10
1.3819
20
0.127146
11
1.38434
21
0.127412
0
LINE
8
BLACK
6
CONTINUOUS
10
1.38434
20
0.127412
11
1.38971
21
0.129425
0
LINE
8
BLACK
6
CONTINUOUS
10
1.38971
20
0.129425
11
1.3943
21
0.132864
0
LINE
8
BLACK
6
CONTINUOUS
10
1.3943
20
0.132864
11
1.39774
21
0.137453
0
LINE
8
BLACK
6
CONTINUOUS
10
1.39774
20
0.137453
11
1.39975
21
0.142822
0
LINE
8
BLACK
6
CONTINUOUS
10
1.39975
20
0.142822
11
1.40002
21
0.14527
0
LINE
8
BLACK
6
CONTINUOUS
10
1.40002
20
0.14527
11
1.40002
21
0.20906
0
LINE
8
BLACK
6
CONTINUOUS
10
1.40002
20
0.20906
11
1.39975
21
0.211509
0
LINE
8
BLACK
6
CONTINUOUS
10
1.39975
20
0.211509
11
1.39774
21
0.216878
0
LINE
8
BLACK
6
CONTINUOUS
10
1.39774
20
0.216878
11
1.3943
21
0.221467
0
LINE
8
BLACK
6
CONTINUOUS
10
1.3943
20
0.221467
11
1.39282
21
0.222578
0
LINE
8
BLACK
6
CONTINUOUS
10
1.39282
20
0.222578
11
1.39115
21
0.224817
0
LINE
8
BLACK
6
CONTINUOUS
10
1.39115
20
0.224817
11
1.39095
21
0.227605
0
LINE
8
BLACK
6
CONTINUOUS
10
1.39095
20
0.227605
11
1.39229
21
0.230055
0
LINE
8
BLACK
6
CONTINUOUS
10
1.39229
20
0.230055
11
1.50369
21
0.341461
0
LINE
8
BLACK
6
CONTINUOUS
10
1.50369
20
0.341461
11
1.50633
21
0.342835
0
LINE
8
BLACK
6
CONTINUOUS
10
1.50633
20
0.342835
11
1.50655
21
0.342852
0
LINE
8
BLACK
6
CONTINUOUS
10
1.50655
20
0.342852
11
1.50678
21
0.342917
0
LINE
8
BLACK
6
CONTINUOUS
10
1.50678
20
0.342917
11
1.50678
21
0.342917
0
LINE
8
BLACK
6
CONTINUOUS
10
1.50678
20
0.342917
11
1.50917
21
0.343584
0
LINE
8
BLACK
6
CONTINUOUS
10
1.50917
20
0.343584
11
1.51364
21
0.344832
0
LINE
8
BLACK
6
CONTINUOUS
10
1.51364
20
0.344832
11
1.52021
21
0.348151
0
LINE
8
BLACK
6
CONTINUOUS
10
1.52021
20
0.348151
11
1.52601
21
0.352684
0
LINE
8
BLACK
6
CONTINUOUS
10
1.52601
20
0.352684
11
1.52767
21
0.354598
0
LINE
8
BLACK
6
CONTINUOUS
10
1.52767
20
0.354598
11
1.53066
21
0.358073
0
LINE
8
BLACK
6
CONTINUOUS
10
1.53066
20
0.358073
11
1.53066
21
0.358073
0
LINE
8
BLACK
6
CONTINUOUS
10
1.53066
20
0.358073
11
1.53082
21
0.358256
0
LINE
8
BLACK
6
CONTINUOUS
10
1.53082
20
0.358256
11
1.53446
21
0.364657
0
LINE
8
BLACK
6
CONTINUOUS
10
1.53446
20
0.364657
11
1.53558
21
0.368021
0
LINE
8
BLACK
6
CONTINUOUS
10
1.53558
20
0.368021
11
1.53671
21
0.371413
0
LINE
8
BLACK
6
CONTINUOUS
10
1.53671
20
0.371413
11
1.53671
21
0.371413
0
LINE
8
BLACK
6
CONTINUOUS
10
1.53671
20
0.371413
11
1.53678
21
0.371643
0
LINE
8
BLACK
6
CONTINUOUS
10
1.53678
20
0.371643
11
1.53681
21
0.371883
0
LINE
8
BLACK
6
CONTINUOUS
10
1.53681
20
0.371883
11
1.53681
21
0.371884
0
LINE
8
BLACK
6
CONTINUOUS
10
1.53681
20
0.371884
11
1.53699
21
0.373288
0
LINE
8
BLACK
6
CONTINUOUS
10
1.53699
20
0.373288
11
1.53811
21
0.37585
0
LINE
8
BLACK
6
CONTINUOUS
10
1.53811
20
0.37585
11
1.53841
21
0.376174
0
LINE
8
BLACK
6
CONTINUOUS
10
1.53841
20
0.376174
11
1.66241
21
0.500181
0
LINE
8
BLACK
6
CONTINUOUS
10
1.66241
20
0.500181
11
1.66487
21
0.501521
0
LINE
8
BLACK
6
CONTINUOUS
10
1.66487
20
0.501521
11
1.66592
21
0.501634
0
LINE
8
BLACK
6
CONTINUOUS
10
1.66592
20
0.501634
11
1.73711
21
0.501634
0
LINE
8
BLACK
6
CONTINUOUS
10
1.73711
20
0.501634
11
1.73979
21
0.500846
0
LINE
8
BLACK
6
CONTINUOUS
10
1.73979
20
0.500846
11
1.74148
21
0.499021
0
LINE
8
BLACK
6
CONTINUOUS
10
1.74148
20
0.499021
11
1.7435
21
0.495254
0
LINE
8
BLACK
6
CONTINUOUS
10
1.7435
20
0.495254
11
1.74361
21
0.495107
0
LINE
8
BLACK
6
CONTINUOUS
10
1.74361
20
0.495107
11
1.74362
21
0.495106
0
LINE
8
BLACK
6
CONTINUOUS
10
1.74362
20
0.495106
11
1.74938
21
0.48739
0
LINE
8
BLACK
6
CONTINUOUS
10
1.74938
20
0.48739
11
1.74938
21
0.48739
0
LINE
8
BLACK
6
CONTINUOUS
10
1.74938
20
0.48739
11
1.74949
21
0.487243
0
LINE
8
BLACK
6
CONTINUOUS
10
1.74949
20
0.487243
11
1.74962
21
0.487114
0
LINE
8
BLACK
6
CONTINUOUS
10
1.74962
20
0.487114
11
1.74962
21
0.487114
0
LINE
8
BLACK
6
CONTINUOUS
10
1.74962
20
0.487114
11
1.75646
21
0.480334
0
LINE
8
BLACK
6
CONTINUOUS
10
1.75646
20
0.480334
11
1.75659
21
0.480205
0
LINE
8
BLACK
6
CONTINUOUS
10
1.75659
20
0.480205
11
1.75673
21
0.480096
0
LINE
8
BLACK
6
CONTINUOUS
10
1.75673
20
0.480096
11
1.75674
21
0.480096
0
LINE
8
BLACK
6
CONTINUOUS
10
1.75674
20
0.480096
11
1.7609
21
0.477045
0
LINE
8
BLACK
6
CONTINUOUS
10
1.7609
20
0.477045
11
1.76465
21
0.474293
0
LINE
8
BLACK
6
CONTINUOUS
10
1.76465
20
0.474293
11
1.76481
21
0.474208
0
LINE
8
BLACK
6
CONTINUOUS
10
1.76481
20
0.474208
11
1.76481
21
0.474207
0
LINE
8
BLACK
6
CONTINUOUS
10
1.76481
20
0.474207
11
1.76946
21
0.471762
0
LINE
8
BLACK
6
CONTINUOUS
10
1.76946
20
0.471762
11
1.7735
21
0.469638
0
LINE
8
BLACK
6
CONTINUOUS
10
1.7735
20
0.469638
11
1.77879
21
0.467791
0
LINE
8
BLACK
6
CONTINUOUS
10
1.77879
20
0.467791
11
1.78132
21
0.466907
0
LINE
8
BLACK
6
CONTINUOUS
10
1.78132
20
0.466907
11
1.78294
21
0.466342
0
LINE
8
BLACK
6
CONTINUOUS
10
1.78294
20
0.466342
11
1.79276
21
0.464477
0
LINE
8
BLACK
6
CONTINUOUS
10
1.79276
20
0.464477
11
1.7975
21
0.464291
0
LINE
8
BLACK
6
CONTINUOUS
10
1.7975
20
0.464291
11
1.80256
21
0.464092
0
LINE
8
BLACK
6
CONTINUOUS
10
1.80256
20
0.464092
11
1.80256
21
0.464092
0
LINE
8
BLACK
6
CONTINUOUS
10
1.80256
20
0.464092
11
1.80275
21
0.464085
0
LINE
8
BLACK
6
CONTINUOUS
10
1.80275
20
0.464085
11
1.80664
21
0.464512
0
LINE
8
BLACK
6
CONTINUOUS
10
1.80664
20
0.464512
11
1.8125
21
0.465153
0
LINE
8
BLACK
6
CONTINUOUS
10
1.8125
20
0.465153
11
1.8125
21
0.465153
0
LINE
8
BLACK
6
CONTINUOUS
10
1.8125
20
0.465153
11
1.81269
21
0.465173
0
LINE
8
BLACK
6
CONTINUOUS
10
1.81269
20
0.465173
11
1.81437
21
0.465617
0
LINE
8
BLACK
6
CONTINUOUS
10
1.81437
20
0.465617
11
1.82218
21
0.467672
0
LINE
8
BLACK
6
CONTINUOUS
10
1.82218
20
0.467672
11
1.82235
21
0.467719
0
LINE
8
BLACK
6
CONTINUOUS
10
1.82235
20
0.467719
11
1.82821
21
0.470233
0
LINE
8
BLACK
6
CONTINUOUS
10
1.82821
20
0.470233
11
1.83137
21
0.471592
0
LINE
8
BLACK
6
CONTINUOUS
10
1.83137
20
0.471592
11
1.83137
21
0.471592
0
LINE
8
BLACK
6
CONTINUOUS
10
1.83137
20
0.471592
11
1.83154
21
0.471665
0
LINE
8
BLACK
6
CONTINUOUS
10
1.83154
20
0.471665
11
1.8317
21
0.471762
0
LINE
8
BLACK
6
CONTINUOUS
10
1.8317
20
0.471762
11
1.8317
21
0.471762
0
LINE
8
BLACK
6
CONTINUOUS
10
1.8317
20
0.471762
11
1.83988
21
0.476829
0
LINE
8
BLACK
6
CONTINUOUS
10
1.83988
20
0.476829
11
1.83988
21
0.476829
0
LINE
8
BLACK
6
CONTINUOUS
10
1.83988
20
0.476829
11
1.84004
21
0.476926
0
LINE
8
BLACK
6
CONTINUOUS
10
1.84004
20
0.476926
11
1.84393
21
0.480218
0
LINE
8
BLACK
6
CONTINUOUS
10
1.84393
20
0.480218
11
1.84753
21
0.483266
0
LINE
8
BLACK
6
CONTINUOUS
10
1.84753
20
0.483266
11
1.84753
21
0.483267
0
LINE
8
BLACK
6
CONTINUOUS
10
1.84753
20
0.483267
11
1.84767
21
0.483386
0
LINE
8
BLACK
6
CONTINUOUS
10
1.84767
20
0.483386
11
1.85426
21
0.490902
0
LINE
8
BLACK
6
CONTINUOUS
10
1.85426
20
0.490902
11
1.85967
21
0.499311
0
LINE
8
BLACK
6
CONTINUOUS
10
1.85967
20
0.499311
11
1.86378
21
0.508426
0
LINE
8
BLACK
6
CONTINUOUS
10
1.86378
20
0.508426
11
1.86649
21
0.518048
0
LINE
8
BLACK
6
CONTINUOUS
10
1.86649
20
0.518048
11
1.86775
21
0.527966
0
LINE
8
BLACK
6
CONTINUOUS
10
1.86775
20
0.527966
11
1.86785
21
0.531496
0
LINE
8
BLACK
6
CONTINUOUS
10
1.86785
20
0.531496
11
1.86711
21
0.541466
0
LINE
8
BLACK
6
CONTINUOUS
10
1.86711
20
0.541466
11
1.8649
21
0.551217
0
LINE
8
BLACK
6
CONTINUOUS
10
1.8649
20
0.551217
11
1.86368
21
0.554352
0
LINE
8
BLACK
6
CONTINUOUS
10
1.86368
20
0.554352
11
1.86134
21
0.560364
0
LINE
8
BLACK
6
CONTINUOUS
10
1.86134
20
0.560364
11
1.86134
21
0.560364
0
LINE
8
BLACK
6
CONTINUOUS
10
1.86134
20
0.560364
11
1.86128
21
0.560535
0
LINE
8
BLACK
6
CONTINUOUS
10
1.86128
20
0.560535
11
1.86118
21
0.560695
0
LINE
8
BLACK
6
CONTINUOUS
10
1.86118
20
0.560695
11
1.85641
21
0.569055
0
LINE
8
BLACK
6
CONTINUOUS
10
1.85641
20
0.569055
11
1.85641
21
0.569055
0
LINE
8
BLACK
6
CONTINUOUS
10
1.85641
20
0.569055
11
1.85631
21
0.569215
0
LINE
8
BLACK
6
CONTINUOUS
10
1.85631
20
0.569215
11
1.85012
21
0.577066
0
LINE
8
BLACK
6
CONTINUOUS
10
1.85012
20
0.577066
11
1.84284
21
0.583916
0
LINE
8
BLACK
6
CONTINUOUS
10
1.84284
20
0.583916
11
1.84112
21
0.585111
0
LINE
8
BLACK
6
CONTINUOUS
10
1.84112
20
0.585111
11
1.83478
21
0.58951
0
LINE
8
BLACK
6
CONTINUOUS
10
1.83478
20
0.58951
11
1.83478
21
0.58951
0
LINE
8
BLACK
6
CONTINUOUS
10
1.83478
20
0.58951
11
1.83463
21
0.589615
0
LINE
8
BLACK
6
CONTINUOUS
10
1.83463
20
0.589615
11
1.83446
21
0.589696
0
LINE
8
BLACK
6
CONTINUOUS
10
1.83446
20
0.589696
11
1.83446
21
0.589696
0
LINE
8
BLACK
6
CONTINUOUS
10
1.83446
20
0.589696
11
1.83302
21
0.590407
0
LINE
8
BLACK
6
CONTINUOUS
10
1.83302
20
0.590407
11
1.83097
21
0.592299
0
LINE
8
BLACK
6
CONTINUOUS
10
1.83097
20
0.592299
11
1.83026
21
0.594856
0
LINE
8
BLACK
6
CONTINUOUS
10
1.83026
20
0.594856
11
1.83026
21
1.37362
0
LINE
8
BLACK
6
CONTINUOUS
10
1.83026
20
1.37362
11
1.83104
21
1.3763
0
LINE
8
BLACK
6
CONTINUOUS
10
1.83104
20
1.3763
11
1.83261
21
1.37784
0
LINE
8
BLACK
6
CONTINUOUS
10
1.83261
20
1.37784
11
1.83304
21
1.3781
0
LINE
8
BLACK
6
CONTINUOUS
10
1.83304
20
1.3781
11
1.83596
21
1.37991
0
LINE
8
BLACK
6
CONTINUOUS
10
1.83596
20
1.37991
11
1.83988
21
1.38234
0
LINE
8
BLACK
6
CONTINUOUS
10
1.83988
20
1.38234
11
1.83988
21
1.38234
0
LINE
8
BLACK
6
CONTINUOUS
10
1.83988
20
1.38234
11
1.84004
21
1.38244
0
LINE
8
BLACK
6
CONTINUOUS
10
1.84004
20
1.38244
11
1.84393
21
1.38573
0
LINE
8
BLACK
6
CONTINUOUS
10
1.84393
20
1.38573
11
1.84753
21
1.38878
0
LINE
8
BLACK
6
CONTINUOUS
10
1.84753
20
1.38878
11
1.84753
21
1.38878
0
LINE
8
BLACK
6
CONTINUOUS
10
1.84753
20
1.38878
11
1.84767
21
1.3889
0
LINE
8
BLACK
6
CONTINUOUS
10
1.84767
20
1.3889
11
1.85426
21
1.39641
0
LINE
8
BLACK
6
CONTINUOUS
10
1.85426
20
1.39641
11
1.85967
21
1.40482
0
LINE
8
BLACK
6
CONTINUOUS
10
1.85967
20
1.40482
11
1.86378
21
1.41394
0
LINE
8
BLACK
6
CONTINUOUS
10
1.86378
20
1.41394
11
1.86649
21
1.42356
0
LINE
8
BLACK
6
CONTINUOUS
10
1.86649
20
1.42356
11
1.86775
21
1.43348
0
LINE
8
BLACK
6
CONTINUOUS
10
1.86775
20
1.43348
11
1.86785
21
1.43701
0
LINE
8
BLACK
6
CONTINUOUS
10
1.86785
20
1.43701
11
1.86711
21
1.44698
0
LINE
8
BLACK
6
CONTINUOUS
10
1.86711
20
1.44698
11
1.8649
21
1.45673
0
LINE
8
BLACK
6
CONTINUOUS
10
1.8649
20
1.45673
11
1.86128
21
1.46605
0
LINE
8
BLACK
6
CONTINUOUS
10
1.86128
20
1.46605
11
1.86047
21
1.46746
0
LINE
8
BLACK
6
CONTINUOUS
10
1.86047
20
1.46746
11
1.85641
21
1.47457
0
LINE
8
BLACK
6
CONTINUOUS
10
1.85641
20
1.47457
11
1.85641
21
1.47457
0
LINE
8
BLACK
6
CONTINUOUS
10
1.85641
20
1.47457
11
1.85631
21
1.47473
0
LINE
8
BLACK
6
CONTINUOUS
10
1.85631
20
1.47473
11
1.85012
21
1.48258
0
LINE
8
BLACK
6
CONTINUOUS
10
1.85012
20
1.48258
11
1.84284
21
1.48943
0
LINE
8
BLACK
6
CONTINUOUS
10
1.84284
20
1.48943
11
1.84112
21
1.49062
0
LINE
8
BLACK
6
CONTINUOUS
10
1.84112
20
1.49062
11
1.83478
21
1.49502
0
LINE
8
BLACK
6
CONTINUOUS
10
1.83478
20
1.49502
11
1.83478
21
1.49502
0
LINE
8
BLACK
6
CONTINUOUS
10
1.83478
20
1.49502
11
1.83463
21
1.49513
0
LINE
8
BLACK
6
CONTINUOUS
10
1.83463
20
1.49513
11
1.83446
21
1.49521
0
LINE
8
BLACK
6
CONTINUOUS
10
1.83446
20
1.49521
11
1.83446
21
1.49521
0
LINE
8
BLACK
6
CONTINUOUS
10
1.83446
20
1.49521
11
1.82583
21
1.49947
0
LINE
8
BLACK
6
CONTINUOUS
10
1.82583
20
1.49947
11
1.82583
21
1.49947
0
LINE
8
BLACK
6
CONTINUOUS
10
1.82583
20
1.49947
11
1.82566
21
1.49955
0
LINE
8
BLACK
6
CONTINUOUS
10
1.82566
20
1.49955
11
1.81614
21
1.5026
0
LINE
8
BLACK
6
CONTINUOUS
10
1.81614
20
1.5026
11
1.81596
21
1.50263
0
LINE
8
BLACK
6
CONTINUOUS
10
1.81596
20
1.50263
11
1.80645
21
1.50417
0
LINE
8
BLACK
6
CONTINUOUS
10
1.80645
20
1.50417
11
1.80645
21
1.50417
0
LINE
8
BLACK
6
CONTINUOUS
10
1.80645
20
1.50417
11
1.80627
21
1.5042
0
LINE
8
BLACK
6
CONTINUOUS
10
1.80627
20
1.5042
11
1.80127
21
1.50427
0
LINE
8
BLACK
6
CONTINUOUS
10
1.80127
20
1.50427
11
1.79646
21
1.50433
0
LINE
8
BLACK
6
CONTINUOUS
10
1.79646
20
1.50433
11
1.79646
21
1.50433
0
LINE
8
BLACK
6
CONTINUOUS
10
1.79646
20
1.50433
11
1.79628
21
1.50433
0
LINE
8
BLACK
6
CONTINUOUS
10
1.79628
20
1.50433
11
1.78637
21
1.50299
0
LINE
8
BLACK
6
CONTINUOUS
10
1.78637
20
1.50299
11
1.77677
21
1.50019
0
LINE
8
BLACK
6
CONTINUOUS
10
1.77677
20
1.50019
11
1.76769
21
1.496
0
LINE
8
BLACK
6
CONTINUOUS
10
1.76769
20
1.496
11
1.76754
21
1.4959
0
LINE
8
BLACK
6
CONTINUOUS
10
1.76754
20
1.4959
11
1.75949
21
1.49062
0
LINE
8
BLACK
6
CONTINUOUS
10
1.75949
20
1.49062
11
1.75949
21
1.49062
0
LINE
8
BLACK
6
CONTINUOUS
10
1.75949
20
1.49062
11
1.75933
21
1.49052
0
LINE
8
BLACK
6
CONTINUOUS
10
1.75933
20
1.49052
11
1.75187
21
1.48386
0
LINE
8
BLACK
6
CONTINUOUS
10
1.75187
20
1.48386
11
1.74548
21
1.47618
0
LINE
8
BLACK
6
CONTINUOUS
10
1.74548
20
1.47618
11
1.74029
21
1.46763
0
LINE
8
BLACK
6
CONTINUOUS
10
1.74029
20
1.46763
11
1.73643
21
1.45841
0
LINE
8
BLACK
6
CONTINUOUS
10
1.73643
20
1.45841
11
1.73397
21
1.44872
0
LINE
8
BLACK
6
CONTINUOUS
10
1.73397
20
1.44872
11
1.73296
21
1.43877
0
LINE
8
BLACK
6
CONTINUOUS
10
1.73296
20
1.43877
11
1.73344
21
1.42879
0
LINE
8
BLACK
6
CONTINUOUS
10
1.73344
20
1.42879
11
1.73539
21
1.41898
0
LINE
8
BLACK
6
CONTINUOUS
10
1.73539
20
1.41898
11
1.73546
21
1.41881
0
LINE
8
BLACK
6
CONTINUOUS
10
1.73546
20
1.41881
11
1.73546
21
1.41881
0
LINE
8
BLACK
6
CONTINUOUS
10
1.73546
20
1.41881
11
1.73721
21
1.41394
0
LINE
8
BLACK
6
CONTINUOUS
10
1.73721
20
1.41394
11
1.73877
21
1.40957
0
LINE
8
BLACK
6
CONTINUOUS
10
1.73877
20
1.40957
11
1.7435
21
1.40077
0
LINE
8
BLACK
6
CONTINUOUS
10
1.7435
20
1.40077
11
1.74361
21
1.40062
0
LINE
8
BLACK
6
CONTINUOUS
10
1.74361
20
1.40062
11
1.74362
21
1.40062
0
LINE
8
BLACK
6
CONTINUOUS
10
1.74362
20
1.40062
11
1.74938
21
1.3929
0
LINE
8
BLACK
6
CONTINUOUS
10
1.74938
20
1.3929
11
1.74938
21
1.3929
0
LINE
8
BLACK
6
CONTINUOUS
10
1.74938
20
1.3929
11
1.74949
21
1.39276
0
LINE
8
BLACK
6
CONTINUOUS
10
1.74949
20
1.39276
11
1.74962
21
1.39263
0
LINE
8
BLACK
6
CONTINUOUS
10
1.74962
20
1.39263
11
1.74962
21
1.39263
0
LINE
8
BLACK
6
CONTINUOUS
10
1.74962
20
1.39263
11
1.75646
21
1.38585
0
LINE
8
BLACK
6
CONTINUOUS
10
1.75646
20
1.38585
11
1.75659
21
1.38572
0
LINE
8
BLACK
6
CONTINUOUS
10
1.75659
20
1.38572
11
1.75673
21
1.38561
0
LINE
8
BLACK
6
CONTINUOUS
10
1.75673
20
1.38561
11
1.75674
21
1.38561
0
LINE
8
BLACK
6
CONTINUOUS
10
1.75674
20
1.38561
11
1.76106
21
1.38244
0
LINE
8
BLACK
6
CONTINUOUS
10
1.76106
20
1.38244
11
1.76465
21
1.3798
0
LINE
8
BLACK
6
CONTINUOUS
10
1.76465
20
1.3798
11
1.76481
21
1.37972
0
LINE
8
BLACK
6
CONTINUOUS
10
1.76481
20
1.37972
11
1.76481
21
1.37972
0
LINE
8
BLACK
6
CONTINUOUS
10
1.76481
20
1.37972
11
1.76788
21
1.3781
0
LINE
8
BLACK
6
CONTINUOUS
10
1.76788
20
1.3781
11
1.76989
21
1.37616
0
LINE
8
BLACK
6
CONTINUOUS
10
1.76989
20
1.37616
11
1.77053
21
1.37371
0
LINE
8
BLACK
6
CONTINUOUS
10
1.77053
20
1.37371
11
1.77053
21
0.594972
0
LINE
8
BLACK
6
CONTINUOUS
10
1.77053
20
0.594972
11
1.76974
21
0.59229
0
LINE
8
BLACK
6
CONTINUOUS
10
1.76974
20
0.59229
11
1.76798
21
0.590633
0
LINE
8
BLACK
6
CONTINUOUS
10
1.76798
20
0.590633
11
1.76786
21
0.590568
0
LINE
8
BLACK
6
CONTINUOUS
10
1.76786
20
0.590568
11
1.76769
21
0.590491
0
LINE
8
BLACK
6
CONTINUOUS
10
1.76769
20
0.590491
11
1.76754
21
0.59039
0
LINE
8
BLACK
6
CONTINUOUS
10
1.76754
20
0.59039
11
1.76754
21
0.59039
0
LINE
8
BLACK
6
CONTINUOUS
10
1.76754
20
0.59039
11
1.75949
21
0.585111
0
LINE
8
BLACK
6
CONTINUOUS
10
1.75949
20
0.585111
11
1.75949
21
0.585111
0
LINE
8
BLACK
6
CONTINUOUS
10
1.75949
20
0.585111
11
1.75933
21
0.58501
0
LINE
8
BLACK
6
CONTINUOUS
10
1.75933
20
0.58501
11
1.75187
21
0.578352
0
LINE
8
BLACK
6
CONTINUOUS
10
1.75187
20
0.578352
11
1.74548
21
0.570666
0
LINE
8
BLACK
6
CONTINUOUS
10
1.74548
20
0.570666
11
1.74128
21
0.563745
0
LINE
8
BLACK
6
CONTINUOUS
10
1.74128
20
0.563745
11
1.73922
21
0.561861
0
LINE
8
BLACK
6
CONTINUOUS
10
1.73922
20
0.561861
11
1.73704
21
0.561358
0
LINE
8
BLACK
6
CONTINUOUS
10
1.73704
20
0.561358
11
1.65414
21
0.561358
0
LINE
8
BLACK
6
CONTINUOUS
10
1.65414
20
0.561358
11
1.65339
21
0.561415
0
LINE
8
BLACK
6
CONTINUOUS
10
1.65339
20
0.561415
11
1.65283
21
0.5615
0
LINE
8
BLACK
6
CONTINUOUS
10
1.65283
20
0.5615
11
1.65283
21
0.5615
0
LINE
8
BLACK
6
CONTINUOUS
10
1.65283
20
0.5615
11
1.65255
21
0.561543
0
LINE
8
BLACK
6
CONTINUOUS
10
1.65255
20
0.561543
11
1.65226
21
0.56152
0
LINE
8
BLACK
6
CONTINUOUS
10
1.65226
20
0.56152
11
1.65226
21
0.56152
0
LINE
8
BLACK
6
CONTINUOUS
10
1.65226
20
0.56152
11
1.65047
21
0.561375
0
LINE
8
BLACK
6
CONTINUOUS
10
1.65047
20
0.561375
11
1.65007
21
0.561358
0
LINE
8
BLACK
6
CONTINUOUS
10
1.65007
20
0.561358
11
1.64975
21
0.561358
0
LINE
8
BLACK
6
CONTINUOUS
10
1.64975
20
0.561358
11
1.64961
21
0.561342
0
LINE
8
BLACK
6
CONTINUOUS
10
1.64961
20
0.561342
11
1.64961
21
0.561342
0
LINE
8
BLACK
6
CONTINUOUS
10
1.64961
20
0.561342
11
1.6491
21
0.561282
0
LINE
8
BLACK
6
CONTINUOUS
10
1.6491
20
0.561282
11
1.64864
21
0.561229
0
LINE
8
BLACK
6
CONTINUOUS
10
1.64864
20
0.561229
11
1.64847
21
0.561212
0
LINE
8
BLACK
6
CONTINUOUS
10
1.64847
20
0.561212
11
1.6456
21
0.560979
0
LINE
8
BLACK
6
CONTINUOUS
10
1.6456
20
0.560979
11
1.64533
21
0.56089
0
LINE
8
BLACK
6
CONTINUOUS
10
1.64533
20
0.56089
11
1.6451
21
0.560843
0
LINE
8
BLACK
6
CONTINUOUS
10
1.6451
20
0.560843
11
1.64487
21
0.560789
0
LINE
8
BLACK
6
CONTINUOUS
10
1.64487
20
0.560789
11
1.64458
21
0.560755
0
LINE
8
BLACK
6
CONTINUOUS
10
1.64458
20
0.560755
11
1.64188
21
0.559774
0
LINE
8
BLACK
6
CONTINUOUS
10
1.64188
20
0.559774
11
1.64171
21
0.559718
0
LINE
8
BLACK
6
CONTINUOUS
10
1.64171
20
0.559718
11
1.63925
21
0.558922
0
LINE
8
BLACK
6
CONTINUOUS
10
1.63925
20
0.558922
11
1.63925
21
0.558921
0
LINE
8
BLACK
6
CONTINUOUS
10
1.63925
20
0.558921
11
1.63898
21
0.558833
0
LINE
8
BLACK
6
CONTINUOUS
10
1.63898
20
0.558833
11
1.63873
21
0.558683
0
LINE
8
BLACK
6
CONTINUOUS
10
1.63873
20
0.558683
11
1.63852
21
0.558585
0
LINE
8
BLACK
6
CONTINUOUS
10
1.63852
20
0.558585
11
1.6383
21
0.558478
0
LINE
8
BLACK
6
CONTINUOUS
10
1.6383
20
0.558478
11
1.63803
21
0.558379
0
LINE
8
BLACK
6
CONTINUOUS
10
1.63803
20
0.558379
11
1.63779
21
0.558221
0
LINE
8
BLACK
6
CONTINUOUS
10
1.63779
20
0.558221
11
1.63779
21
0.558221
0
LINE
8
BLACK
6
CONTINUOUS
10
1.63779
20
0.558221
11
1.63563
21
0.556804
0
LINE
8
BLACK
6
CONTINUOUS
10
1.63563
20
0.556804
11
1.63549
21
0.556712
0
LINE
8
BLACK
6
CONTINUOUS
10
1.63549
20
0.556712
11
1.63303
21
0.55522
0
LINE
8
BLACK
6
CONTINUOUS
10
1.63303
20
0.55522
11
1.6327
21
0.554929
0
LINE
8
BLACK
6
CONTINUOUS
10
1.6327
20
0.554929
11
1.6327
21
0.55493
0
LINE
8
BLACK
6
CONTINUOUS
10
1.6327
20
0.55493
11
1.63258
21
0.554826
0
LINE
8
BLACK
6
CONTINUOUS
10
1.63258
20
0.554826
11
1.63245
21
0.554719
0
LINE
8
BLACK
6
CONTINUOUS
10
1.63245
20
0.554719
11
1.63221
21
0.554561
0
LINE
8
BLACK
6
CONTINUOUS
10
1.63221
20
0.554561
11
1.63201
21
0.554352
0
LINE
8
BLACK
6
CONTINUOUS
10
1.63201
20
0.554352
11
1.63011
21
0.552347
0
LINE
8
BLACK
6
CONTINUOUS
10
1.63011
20
0.552347
11
1.63002
21
0.552251
0
LINE
8
BLACK
6
CONTINUOUS
10
1.63002
20
0.552251
11
1.58085
21
0.503082
0
LINE
8
BLACK
6
CONTINUOUS
10
1.58085
20
0.503082
11
1.5784
21
0.501742
0
LINE
8
BLACK
6
CONTINUOUS
10
1.5784
20
0.501742
11
1.57561
21
0.501942
0
LINE
8
BLACK
6
CONTINUOUS
10
1.57561
20
0.501942
11
1.57337
21
0.503617
0
LINE
8
BLACK
6
CONTINUOUS
10
1.57337
20
0.503617
11
1.57239
21
0.506236
0
LINE
8
BLACK
6
CONTINUOUS
10
1.57239
20
0.506236
11
1.57238
21
0.506589
0
LINE
8
BLACK
6
CONTINUOUS
10
1.57238
20
0.506589
11
1.57238
21
0.580635
0
LINE
8
BLACK
6
CONTINUOUS
10
1.57238
20
0.580635
11
1.57212
21
0.583083
0
LINE
8
BLACK
6
CONTINUOUS
10
1.57212
20
0.583083
11
1.5701
21
0.588453
0
LINE
8
BLACK
6
CONTINUOUS
10
1.5701
20
0.588453
11
1.56666
21
0.593042
0
LINE
8
BLACK
6
CONTINUOUS
10
1.56666
20
0.593042
11
1.56207
21
0.596481
0
LINE
8
BLACK
6
CONTINUOUS
10
1.56207
20
0.596481
11
1.55671
21
0.598494
0
LINE
8
BLACK
6
CONTINUOUS
10
1.55671
20
0.598494
11
1.55426
21
0.59876
0
LINE
8
BLACK
6
CONTINUOUS
10
1.55426
20
0.59876
11
1.53994
21
0.59876
0
LINE
8
BLACK
6
CONTINUOUS
10
1.53994
20
0.59876
11
1.53726
21
0.599547
0
LINE
8
BLACK
6
CONTINUOUS
10
1.53726
20
0.599547
11
1.53543
21
0.60166
0
LINE
8
BLACK
6
CONTINUOUS
10
1.53543
20
0.60166
11
1.53498
21
0.60372
0
LINE
8
BLACK
6
CONTINUOUS
10
1.53498
20
0.60372
11
1.53498
21
1.36478
0
LINE
8
BLACK
6
CONTINUOUS
10
1.53498
20
1.36478
11
1.53577
21
1.36747
0
LINE
8
BLACK
6
CONTINUOUS
10
1.53577
20
1.36747
11
1.53788
21
1.3693
0
LINE
8
BLACK
6
CONTINUOUS
10
1.53788
20
1.3693
11
1.53994
21
1.36974
0
LINE
8
BLACK
6
CONTINUOUS
10
1.53994
20
1.36974
11
1.55426
21
1.36974
0
LINE
8
BLACK
6
CONTINUOUS
10
1.55426
20
1.36974
11
1.55671
21
1.37001
0
LINE
8
BLACK
6
CONTINUOUS
10
1.55671
20
1.37001
11
1.56207
21
1.37202
0
LINE
8
BLACK
6
CONTINUOUS
10
1.56207
20
1.37202
11
1.56666
21
1.37546
0
LINE
8
BLACK
6
CONTINUOUS
10
1.56666
20
1.37546
11
1.5701
21
1.38005
0
LINE
8
BLACK
6
CONTINUOUS
10
1.5701
20
1.38005
11
1.57212
21
1.38542
0
LINE
8
BLACK
6
CONTINUOUS
10
1.57212
20
1.38542
11
1.57238
21
1.38787
0
LINE
8
BLACK
6
CONTINUOUS
10
1.57238
20
1.38787
11
1.57238
21
1.48615
0
LINE
8
BLACK
6
CONTINUOUS
10
1.57238
20
1.48615
11
1.57212
21
1.4886
0
LINE
8
BLACK
6
CONTINUOUS
10
1.57212
20
1.4886
11
1.5701
21
1.49396
0
LINE
8
BLACK
6
CONTINUOUS
10
1.5701
20
1.49396
11
1.56666
21
1.49855
0
LINE
8
BLACK
6
CONTINUOUS
10
1.56666
20
1.49855
11
1.56207
21
1.50199
0
LINE
8
BLACK
6
CONTINUOUS
10
1.56207
20
1.50199
11
1.55671
21
1.50401
0
LINE
8
BLACK
6
CONTINUOUS
10
1.55671
20
1.50401
11
1.55426
21
1.50427
0
LINE
8
BLACK
6
CONTINUOUS
10
1.55426
20
1.50427
11
1.45598
21
1.50427
0
LINE
8
BLACK
6
CONTINUOUS
10
1.45598
20
1.50427
11
1.45353
21
1.50401
0
LINE
8
BLACK
6
CONTINUOUS
10
1.45353
20
1.50401
11
1.44816
21
1.50199
0
LINE
8
BLACK
6
CONTINUOUS
10
1.44816
20
1.50199
11
1.44357
21
1.49855
0
LINE
8
BLACK
6
CONTINUOUS
10
1.44357
20
1.49855
11
1.44013
21
1.49396
0
LINE
8
BLACK
6
CONTINUOUS
10
1.44013
20
1.49396
11
1.43812
21
1.4886
0
LINE
8
BLACK
6
CONTINUOUS
10
1.43812
20
1.4886
11
1.43785
21
1.48615
0
LINE
8
BLACK
6
CONTINUOUS
10
1.43785
20
1.48615
11
1.43785
21
1.38787
0
LINE
8
BLACK
6
CONTINUOUS
10
1.43785
20
1.38787
11
1.43812
21
1.38542
0
LINE
8
BLACK
6
CONTINUOUS
10
1.43812
20
1.38542
11
1.44013
21
1.38005
0
LINE
8
BLACK
6
CONTINUOUS
10
1.44013
20
1.38005
11
1.44357
21
1.37546
0
LINE
8
BLACK
6
CONTINUOUS
10
1.44357
20
1.37546
11
1.44816
21
1.37202
0
LINE
8
BLACK
6
CONTINUOUS
10
1.44816
20
1.37202
11
1.45353
21
1.37001
0
LINE
8
BLACK
6
CONTINUOUS
10
1.45353
20
1.37001
11
1.45598
21
1.36974
0
LINE
8
BLACK
6
CONTINUOUS
10
1.45598
20
1.36974
11
1.4703
21
1.36974
0
LINE
8
BLACK
6
CONTINUOUS
10
1.4703
20
1.36974
11
1.47298
21
1.36896
0
LINE
8
BLACK
6
CONTINUOUS
10
1.47298
20
1.36896
11
1.47481
21
1.36684
0
LINE
8
BLACK
6
CONTINUOUS
10
1.47481
20
1.36684
11
1.47526
21
1.36478
0
LINE
8
BLACK
6
CONTINUOUS
10
1.47526
20
1.36478
11
1.47526
21
0.60372
0
LINE
8
BLACK
6
CONTINUOUS
10
1.47526
20
0.60372
11
1.47447
21
0.601039
0
LINE
8
BLACK
6
CONTINUOUS
10
1.47447
20
0.601039
11
1.47236
21
0.599208
0
LINE
8
BLACK
6
CONTINUOUS
10
1.47236
20
0.599208
11
1.4703
21
0.59876
0
LINE
8
BLACK
6
CONTINUOUS
10
1.4703
20
0.59876
11
1.45598
21
0.59876
0
LINE
8
BLACK
6
CONTINUOUS
10
1.45598
20
0.59876
11
1.45353
21
0.598494
0
LINE
8
BLACK
6
CONTINUOUS
10
1.45353
20
0.598494
11
1.44816
21
0.596481
0
LINE
8
BLACK
6
CONTINUOUS
10
1.44816
20
0.596481
11
1.44357
21
0.593042
0
LINE
8
BLACK
6
CONTINUOUS
10
1.44357
20
0.593042
11
1.44013
21
0.588453
0
LINE
8
BLACK
6
CONTINUOUS
10
1.44013
20
0.588453
11
1.43812
21
0.583083
0
LINE
8
BLACK
6
CONTINUOUS
10
1.43812
20
0.583083
11
1.43785
21
0.580635
0
LINE
8
BLACK
6
CONTINUOUS
10
1.43785
20
0.580635
11
1.43785
21
0.508519
0
LINE
8
BLACK
6
CONTINUOUS
10
1.43785
20
0.508519
11
1.43707
21
0.505837
0
LINE
8
BLACK
6
CONTINUOUS
10
1.43707
20
0.505837
11
1.4364
21
0.505011
0
LINE
8
BLACK
6
CONTINUOUS
10
1.4364
20
0.505011
11
1.23075
21
0.299361
0
LINE
8
BLACK
6
CONTINUOUS
10
1.23075
20
0.299361
11
1.23018
21
0.298873
0
LINE
8
BLACK
6
CONTINUOUS
10
1.23018
20
0.298873
11
1.22973
21
0.298537
0
LINE
8
BLACK
6
CONTINUOUS
10
1.22973
20
0.298537
11
1.22973
21
0.298537
0
LINE
8
BLACK
6
CONTINUOUS
10
1.22973
20
0.298537
11
1.2295
21
0.298366
0
LINE
8
BLACK
6
CONTINUOUS
10
1.2295
20
0.298366
11
1.22931
21
0.298147
0
LINE
8
BLACK
6
CONTINUOUS
10
1.22931
20
0.298147
11
1.22931
21
0.298147
0
LINE
8
BLACK
6
CONTINUOUS
10
1.22931
20
0.298147
11
1.22815
21
0.296781
0
LINE
8
BLACK
6
CONTINUOUS
10
1.22815
20
0.296781
11
1.22788
21
0.296485
0
LINE
8
BLACK
6
CONTINUOUS
10
1.22788
20
0.296485
11
1.22765
21
0.296261
0
LINE
8
BLACK
6
CONTINUOUS
10
1.22765
20
0.296261
11
1.22756
21
0.296147
0
LINE
8
BLACK
6
CONTINUOUS
10
1.22756
20
0.296147
11
1.22696
21
0.295384
0
LINE
8
BLACK
6
CONTINUOUS
10
1.22696
20
0.295384
11
1.22685
21
0.29525
0
LINE
8
BLACK
6
CONTINUOUS
10
1.22685
20
0.29525
11
1.22517
21
0.293279
0
LINE
8
BLACK
6
CONTINUOUS
10
1.22517
20
0.293279
11
1.22499
21
0.29306
0
LINE
8
BLACK
6
CONTINUOUS
10
1.22499
20
0.29306
11
1.22486
21
0.292803
0
LINE
8
BLACK
6
CONTINUOUS
10
1.22486
20
0.292803
11
1.22472
21
0.292604
0
LINE
8
BLACK
6
CONTINUOUS
10
1.22472
20
0.292604
11
1.2246
21
0.292402
0
LINE
8
BLACK
6
CONTINUOUS
10
1.2246
20
0.292402
11
1.22442
21
0.292177
0
LINE
8
BLACK
6
CONTINUOUS
10
1.22442
20
0.292177
11
1.2232
21
0.289572
0
LINE
8
BLACK
6
CONTINUOUS
10
1.2232
20
0.289572
11
1.22313
21
0.289419
0
LINE
8
BLACK
6
CONTINUOUS
10
1.22313
20
0.289419
11
1.22182
21
0.286858
0
LINE
8
BLACK
6
CONTINUOUS
10
1.22182
20
0.286858
11
1.22175
21
0.286578
0
LINE
8
BLACK
6
CONTINUOUS
10
1.22175
20
0.286578
11
1.22167
21
0.286356
0
LINE
8
BLACK
6
CONTINUOUS
10
1.22167
20
0.286356
11
1.22159
21
0.286129
0
LINE
8
BLACK
6
CONTINUOUS
10
1.22159
20
0.286129
11
1.22147
21
0.285868
0
LINE
8
BLACK
6
CONTINUOUS
10
1.22147
20
0.285868
11
1.22141
21
0.285586
0
LINE
8
BLACK
6
CONTINUOUS
10
1.22141
20
0.285586
11
1.22141
21
0.285586
0
LINE
8
BLACK
6
CONTINUOUS
10
1.22141
20
0.285586
11
1.22089
21
0.283055
0
LINE
8
BLACK
6
CONTINUOUS
10
1.22089
20
0.283055
11
1.22085
21
0.282886
0
LINE
8
BLACK
6
CONTINUOUS
10
1.22085
20
0.282886
11
1.22017
21
0.280094
0
LINE
8
BLACK
6
CONTINUOUS
10
1.22017
20
0.280094
11
1.22014
21
0.279655
0
LINE
8
BLACK
6
CONTINUOUS
10
1.22014
20
0.279655
11
1.22014
21
0.279655
0
LINE
8
BLACK
6
CONTINUOUS
10
1.22014
20
0.279655
11
1.22013
21
0.279498
0
LINE
8
BLACK
6
CONTINUOUS
10
1.22013
20
0.279498
11
1.22011
21
0.279333
0
LINE
8
BLACK
6
CONTINUOUS
10
1.22011
20
0.279333
11
1.22005
21
0.279051
0
LINE
8
BLACK
6
CONTINUOUS
10
1.22005
20
0.279051
11
1.22006
21
0.278763
0
LINE
8
BLACK
6
CONTINUOUS
10
1.22006
20
0.278763
11
1.22014
21
0.276003
0
LINE
8
BLACK
6
CONTINUOUS
10
1.22014
20
0.276003
11
1.22014
21
0.275869
0
LINE
8
BLACK
6
CONTINUOUS
10
1.22014
20
0.275869
11
1.22014
21
0.231857
0
LINE
8
BLACK
6
CONTINUOUS
10
1.22014
20
0.231857
11
1.21935
21
0.229175
0
LINE
8
BLACK
6
CONTINUOUS
10
1.21935
20
0.229175
11
1.21724
21
0.227344
0
LINE
8
BLACK
6
CONTINUOUS
10
1.21724
20
0.227344
11
1.21626
21
0.227075
0
LINE
8
BLACK
6
CONTINUOUS
10
1.21626
20
0.227075
11
1.21627
21
0.227025
0
LINE
8
BLACK
6
CONTINUOUS
10
1.21627
20
0.227025
11
1.21597
21
0.226953
0
LINE
8
BLACK
6
CONTINUOUS
10
1.21597
20
0.226953
11
1.21566
21
0.226919
0
LINE
8
BLACK
6
CONTINUOUS
10
1.21566
20
0.226919
11
1.21029
21
0.224906
0
LINE
8
BLACK
6
CONTINUOUS
10
1.21029
20
0.224906
11
1.2057
21
0.221467
0
LINE
8
BLACK
6
CONTINUOUS
10
1.2057
20
0.221467
11
1.20549
21
0.221184
0
LINE
8
BLACK
6
CONTINUOUS
10
1.20549
20
0.221184
11
1.20397
21
0.21916
0
LINE
8
BLACK
6
CONTINUOUS
10
1.20397
20
0.21916
11
1.20173
21
0.217486
0
LINE
8
BLACK
6
CONTINUOUS
10
1.20173
20
0.217486
11
1.19894
21
0.217288
0
LINE
8
BLACK
6
CONTINUOUS
10
1.19894
20
0.217288
11
1.19649
21
0.218629
0
LINE
8
BLACK
6
CONTINUOUS
10
1.19649
20
0.218629
11
1.19603
21
0.21916
0
LINE
8
BLACK
6
CONTINUOUS
10
1.19603
20
0.21916
11
1.19451
21
0.221184
0
LINE
8
BLACK
6
CONTINUOUS
10
1.19451
20
0.221184
11
1.1943
21
0.221467
0
LINE
8
BLACK
6
CONTINUOUS
10
1.1943
20
0.221467
11
1.18971
21
0.224906
0
LINE
8
BLACK
6
CONTINUOUS
10
1.18971
20
0.224906
11
1.18434
21
0.226919
0
LINE
8
BLACK
6
CONTINUOUS
10
1.18434
20
0.226919
11
1.18403
21
0.226953
0
LINE
8
BLACK
6
CONTINUOUS
10
1.18403
20
0.226953
11
1.18373
21
0.227025
0
LINE
8
BLACK
6
CONTINUOUS
10
1.18373
20
0.227025
11
1.18376
21
0.227144
0
LINE
8
BLACK
6
CONTINUOUS
10
1.18376
20
0.227144
11
1.18171
21
0.227998
0
LINE
8
BLACK
6
CONTINUOUS
10
1.18171
20
0.227998
11
1.18011
21
0.230296
0
LINE
8
BLACK
6
CONTINUOUS
10
1.18011
20
0.230296
11
1.17986
21
0.231857
0
LINE
8
BLACK
6
CONTINUOUS
10
1.17986
20
0.231857
11
1.17986
21
0.647359
0
LINE
8
BLACK
6
CONTINUOUS
10
1.17986
20
0.647359
11
1.17992
21
0.648106
0
LINE
8
BLACK
6
CONTINUOUS
10
1.17992
20
0.648106
11
1.18
21
0.648666
0
LINE
8
BLACK
6
CONTINUOUS
10
1.18
20
0.648666
11
1.18
21
0.648666
0
LINE
8
BLACK
6
CONTINUOUS
10
1.18
20
0.648666
11
1.18005
21
0.648951
0
LINE
8
BLACK
6
CONTINUOUS
10
1.18005
20
0.648951
11
1.17988
21
0.651024
0
LINE
8
BLACK
6
CONTINUOUS
10
1.17988
20
0.651024
11
1.17986
21
0.651426
0
LINE
8
BLACK
6
CONTINUOUS
10
1.17986
20
0.651426
11
1.17986
21
0.651744
0
LINE
8
BLACK
6
CONTINUOUS
10
1.17986
20
0.651744
11
1.17973
21
0.652855
0
LINE
8
BLACK
6
CONTINUOUS
10
1.17973
20
0.652855
11
1.17972
21
0.653027
0
LINE
8
BLACK
6
CONTINUOUS
10
1.17972
20
0.653027
11
1.17951
21
0.655604
0
LINE
8
BLACK
6
CONTINUOUS
10
1.17951
20
0.655604
11
1.17951
21
0.655604
0
LINE
8
BLACK
6
CONTINUOUS
10
1.17951
20
0.655604
11
1.17948
21
0.655891
0
LINE
8
BLACK
6
CONTINUOUS
10
1.17948
20
0.655891
11
1.17939
21
0.656165
0
LINE
8
BLACK
6
CONTINUOUS
10
1.17939
20
0.656165
11
1.17935
21
0.6564
0
LINE
8
BLACK
6
CONTINUOUS
10
1.17935
20
0.6564
11
1.17929
21
0.656631
0
LINE
8
BLACK
6
CONTINUOUS
10
1.17929
20
0.656631
11
1.17926
21
0.656917
0
LINE
8
BLACK
6
CONTINUOUS
10
1.17926
20
0.656917
11
1.17828
21
0.659619
0
LINE
8
BLACK
6
CONTINUOUS
10
1.17828
20
0.659619
11
1.17822
21
0.659782
0
LINE
8
BLACK
6
CONTINUOUS
10
1.17822
20
0.659782
11
1.17743
21
0.662242
0
LINE
8
BLACK
6
CONTINUOUS
10
1.17743
20
0.662242
11
1.17743
21
0.662242
0
LINE
8
BLACK
6
CONTINUOUS
10
1.17743
20
0.662242
11
1.17734
21
0.662516
0
LINE
8
BLACK
6
CONTINUOUS
10
1.17734
20
0.662516
11
1.17719
21
0.662762
0
LINE
8
BLACK
6
CONTINUOUS
10
1.17719
20
0.662762
11
1.17709
21
0.662977
0
LINE
8
BLACK
6
CONTINUOUS
10
1.17709
20
0.662977
11
1.17698
21
0.663191
0
LINE
8
BLACK
6
CONTINUOUS
10
1.17698
20
0.663191
11
1.17688
21
0.663462
0
LINE
8
BLACK
6
CONTINUOUS
10
1.17688
20
0.663462
11
1.17673
21
0.663703
0
LINE
8
BLACK
6
CONTINUOUS
10
1.17673
20
0.663703
11
1.17531
21
0.665865
0
LINE
8
BLACK
6
CONTINUOUS
10
1.17531
20
0.665865
11
1.17522
21
0.666012
0
LINE
8
BLACK
6
CONTINUOUS
10
1.17522
20
0.666012
11
1.17471
21
0.666845
0
LINE
8
BLACK
6
CONTINUOUS
10
1.17471
20
0.666845
11
1.17372
21
0.668469
0
LINE
8
BLACK
6
CONTINUOUS
10
1.17372
20
0.668469
11
1.17343
21
0.668799
0
LINE
8
BLACK
6
CONTINUOUS
10
1.17343
20
0.668799
11
1.17343
21
0.6688
0
LINE
8
BLACK
6
CONTINUOUS
10
1.17343
20
0.6688
11
1.17333
21
0.668917
0
LINE
8
BLACK
6
CONTINUOUS
10
1.17333
20
0.668917
11
1.17322
21
0.669045
0
LINE
8
BLACK
6
CONTINUOUS
10
1.17322
20
0.669045
11
1.17307
21
0.669286
0
LINE
8
BLACK
6
CONTINUOUS
10
1.17307
20
0.669286
11
1.17085
21
0.671383
0
LINE
8
BLACK
6
CONTINUOUS
10
1.17085
20
0.671383
11
1.17075
21
0.671477
0
LINE
8
BLACK
6
CONTINUOUS
10
1.17075
20
0.671477
11
1.14849
21
0.693745
0
LINE
8
BLACK
6
CONTINUOUS
10
1.14849
20
0.693745
11
1.14715
21
0.696198
0
LINE
8
BLACK
6
CONTINUOUS
10
1.14715
20
0.696198
11
1.14706
21
0.696769
0
LINE
8
BLACK
6
CONTINUOUS
10
1.14706
20
0.696769
11
1.14703
21
0.697085
0
LINE
8
BLACK
6
CONTINUOUS
10
1.14703
20
0.697085
11
1.14703
21
0.697085
0
LINE
8
BLACK
6
CONTINUOUS
10
1.14703
20
0.697085
11
1.147
21
0.697327
0
LINE
8
BLACK
6
CONTINUOUS
10
1.147
20
0.697327
11
1.14506
21
0.703748
0
LINE
8
BLACK
6
CONTINUOUS
10
1.14506
20
0.703748
11
1.14494
21
0.704142
0
LINE
8
BLACK
6
CONTINUOUS
10
1.14494
20
0.704142
11
1.14494
21
0.704142
0
LINE
8
BLACK
6
CONTINUOUS
10
1.14494
20
0.704142
11
1.14487
21
0.704374
0
LINE
8
BLACK
6
CONTINUOUS
10
1.14487
20
0.704374
11
1.14142
21
0.710874
0
LINE
8
BLACK
6
CONTINUOUS
10
1.14142
20
0.710874
11
1.13677
21
0.71658
0
LINE
8
BLACK
6
CONTINUOUS
10
1.13677
20
0.71658
11
1.13444
21
0.718503
0
LINE
8
BLACK
6
CONTINUOUS
10
1.13444
20
0.718503
11
1.13128
21
0.721118
0
LINE
8
BLACK
6
CONTINUOUS
10
1.13128
20
0.721118
11
1.13128
21
0.721118
0
LINE
8
BLACK
6
CONTINUOUS
10
1.13128
20
0.721118
11
1.13109
21
0.721272
0
LINE
8
BLACK
6
CONTINUOUS
10
1.13109
20
0.721272
11
1.13088
21
0.721387
0
LINE
8
BLACK
6
CONTINUOUS
10
1.13088
20
0.721387
11
1.13088
21
0.721388
0
LINE
8
BLACK
6
CONTINUOUS
10
1.13088
20
0.721388
11
1.12786
21
0.723023
0
LINE
8
BLACK
6
CONTINUOUS
10
1.12786
20
0.723023
11
1.12462
21
0.724774
0
LINE
8
BLACK
6
CONTINUOUS
10
1.12462
20
0.724774
11
1.11758
21
0.726951
0
LINE
8
BLACK
6
CONTINUOUS
10
1.11758
20
0.726951
11
1.11734
21
0.726976
0
LINE
8
BLACK
6
CONTINUOUS
10
1.11734
20
0.726976
11
1.11734
21
0.726976
0
LINE
8
BLACK
6
CONTINUOUS
10
1.11734
20
0.726976
11
1.1105
21
0.727695
0
LINE
8
BLACK
6
CONTINUOUS
10
1.1105
20
0.727695
11
1.1105
21
0.727695
0
LINE
8
BLACK
6
CONTINUOUS
10
1.1105
20
0.727695
11
1.11026
21
0.72772
0
LINE
8
BLACK
6
CONTINUOUS
10
1.11026
20
0.72772
11
1.10723
21
0.727444
0
LINE
8
BLACK
6
CONTINUOUS
10
1.10723
20
0.727444
11
1.10317
21
0.727075
0
LINE
8
BLACK
6
CONTINUOUS
10
1.10317
20
0.727075
11
1.10317
21
0.727075
0
LINE
8
BLACK
6
CONTINUOUS
10
1.10317
20
0.727075
11
1.10293
21
0.727053
0
LINE
8
BLACK
6
CONTINUOUS
10
1.10293
20
0.727053
11
1.1027
21
0.726984
0
LINE
8
BLACK
6
CONTINUOUS
10
1.1027
20
0.726984
11
1.1027
21
0.726984
0
LINE
8
BLACK
6
CONTINUOUS
10
1.1027
20
0.726984
11
1.09747
21
0.725444
0
LINE
8
BLACK
6
CONTINUOUS
10
1.09747
20
0.725444
11
1.09587
21
0.724974
0
LINE
8
BLACK
6
CONTINUOUS
10
1.09587
20
0.724974
11
1.08935
21
0.721564
0
LINE
8
BLACK
6
CONTINUOUS
10
1.08935
20
0.721564
11
1.08361
21
0.716951
0
LINE
8
BLACK
6
CONTINUOUS
10
1.08361
20
0.716951
11
1.07888
21
0.711311
0
LINE
8
BLACK
6
CONTINUOUS
10
1.07888
20
0.711311
11
1.07533
21
0.70486
0
LINE
8
BLACK
6
CONTINUOUS
10
1.07533
20
0.70486
11
1.07526
21
0.704629
0
LINE
8
BLACK
6
CONTINUOUS
10
1.07526
20
0.704629
11
1.07526
21
0.704628
0
LINE
8
BLACK
6
CONTINUOUS
10
1.07526
20
0.704628
11
1.07498
21
0.703748
0
LINE
8
BLACK
6
CONTINUOUS
10
1.07498
20
0.703748
11
1.0731
21
0.697843
0
LINE
8
BLACK
6
CONTINUOUS
10
1.0731
20
0.697843
11
1.07228
21
0.690527
0
LINE
8
BLACK
6
CONTINUOUS
10
1.07228
20
0.690527
11
1.0729
21
0.683191
0
LINE
8
BLACK
6
CONTINUOUS
10
1.0729
20
0.683191
11
1.07493
21
0.676114
0
LINE
8
BLACK
6
CONTINUOUS
10
1.07493
20
0.676114
11
1.07829
21
0.669566
0
LINE
8
BLACK
6
CONTINUOUS
10
1.07829
20
0.669566
11
1.08287
21
0.663797
0
LINE
8
BLACK
6
CONTINUOUS
10
1.08287
20
0.663797
11
1.08305
21
0.66364
0
LINE
8
BLACK
6
CONTINUOUS
10
1.08305
20
0.66364
11
1.08305
21
0.66364
0
LINE
8
BLACK
6
CONTINUOUS
10
1.08305
20
0.66364
11
1.08829
21
0.659183
0
LINE
8
BLACK
6
CONTINUOUS
10
1.08829
20
0.659183
11
1.08847
21
0.659025
0
LINE
8
BLACK
6
CONTINUOUS
10
1.08847
20
0.659025
11
1.0949
21
0.655434
0
LINE
8
BLACK
6
CONTINUOUS
10
1.0949
20
0.655434
11
1.1019
21
0.653159
0
LINE
8
BLACK
6
CONTINUOUS
10
1.1019
20
0.653159
11
1.10301
21
0.653027
0
LINE
8
BLACK
6
CONTINUOUS
10
1.10301
20
0.653027
11
1.10327
21
0.652995
0
LINE
8
BLACK
6
CONTINUOUS
10
1.10327
20
0.652995
11
1.10584
21
0.651896
0
LINE
8
BLACK
6
CONTINUOUS
10
1.10584
20
0.651896
11
1.10619
21
0.651577
0
LINE
8
BLACK
6
CONTINUOUS
10
1.10619
20
0.651577
11
1.11868
21
0.639084
0
LINE
8
BLACK
6
CONTINUOUS
10
1.11868
20
0.639084
11
1.12002
21
0.63663
0
LINE
8
BLACK
6
CONTINUOUS
10
1.12002
20
0.63663
11
1.12014
21
0.635576
0
LINE
8
BLACK
6
CONTINUOUS
10
1.12014
20
0.635576
11
1.12014
21
0.231857
0
LINE
8
BLACK
6
CONTINUOUS
10
1.12014
20
0.231857
11
1.11935
21
0.229175
0
LINE
8
BLACK
6
CONTINUOUS
10
1.11935
20
0.229175
11
1.11724
21
0.227344
0
LINE
8
BLACK
6
CONTINUOUS
10
1.11724
20
0.227344
11
1.11626
21
0.227075
0
LINE
8
BLACK
6
CONTINUOUS
10
1.11626
20
0.227075
11
1.11627
21
0.227025
0
LINE
8
BLACK
6
CONTINUOUS
10
1.11627
20
0.227025
11
1.11597
21
0.226953
0
LINE
8
BLACK
6
CONTINUOUS
10
1.11597
20
0.226953
11
1.11566
21
0.226919
0
LINE
8
BLACK
6
CONTINUOUS
10
1.11566
20
0.226919
11
1.11029
21
0.224906
0
LINE
8
BLACK
6
CONTINUOUS
10
1.11029
20
0.224906
11
1.1057
21
0.221467
0
LINE
8
BLACK
6
CONTINUOUS
10
1.1057
20
0.221467
11
1.10549
21
0.221184
0
LINE
8
BLACK
6
CONTINUOUS
10
1.10549
20
0.221184
11
1.10397
21
0.21916
0
LINE
8
BLACK
6
CONTINUOUS
10
1.10397
20
0.21916
11
1.10173
21
0.217486
0
LINE
8
BLACK
6
CONTINUOUS
10
1.10173
20
0.217486
11
1.09894
21
0.217288
0
LINE
8
BLACK
6
CONTINUOUS
10
1.09894
20
0.217288
11
1.09649
21
0.218629
0
LINE
8
BLACK
6
CONTINUOUS
10
1.09649
20
0.218629
11
1.09603
21
0.21916
0
LINE
8
BLACK
6
CONTINUOUS
10
1.09603
20
0.21916
11
1.09451
21
0.221184
0
LINE
8
BLACK
6
CONTINUOUS
10
1.09451
20
0.221184
11
1.0943
21
0.221467
0
LINE
8
BLACK
6
CONTINUOUS
10
1.0943
20
0.221467
11
1.08971
21
0.224906
0
LINE
8
BLACK
6
CONTINUOUS
10
1.08971
20
0.224906
11
1.08434
21
0.226919
0
LINE
8
BLACK
6
CONTINUOUS
10
1.08434
20
0.226919
11
1.08403
21
0.226953
0
LINE
8
BLACK
6
CONTINUOUS
10
1.08403
20
0.226953
11
1.08373
21
0.227025
0
LINE
8
BLACK
6
CONTINUOUS
10
1.08373
20
0.227025
11
1.08376
21
0.227144
0
LINE
8
BLACK
6
CONTINUOUS
10
1.08376
20
0.227144
11
1.08171
21
0.227998
0
LINE
8
BLACK
6
CONTINUOUS
10
1.08171
20
0.227998
11
1.08011
21
0.230296
0
LINE
8
BLACK
6
CONTINUOUS
10
1.08011
20
0.230296
11
1.07986
21
0.231857
0
LINE
8
BLACK
6
CONTINUOUS
10
1.07986
20
0.231857
11
1.07986
21
0.351739
0
LINE
8
BLACK
6
CONTINUOUS
10
1.07986
20
0.351739
11
1.08076
21
0.354556
0
LINE
8
BLACK
6
CONTINUOUS
10
1.08076
20
0.354556
11
1.08082
21
0.354634
0
LINE
8
BLACK
6
CONTINUOUS
10
1.08082
20
0.354634
11
1.08446
21
0.361035
0
LINE
8
BLACK
6
CONTINUOUS
10
1.08446
20
0.361035
11
1.08678
21
0.368021
0
LINE
8
BLACK
6
CONTINUOUS
10
1.08678
20
0.368021
11
1.08771
21
0.375325
0
LINE
8
BLACK
6
CONTINUOUS
10
1.08771
20
0.375325
11
1.08771
21
0.375883
0
LINE
8
BLACK
6
CONTINUOUS
10
1.08771
20
0.375883
11
1.08772
21
0.376239
0
LINE
8
BLACK
6
CONTINUOUS
10
1.08772
20
0.376239
11
1.08772
21
0.376239
0
LINE
8
BLACK
6
CONTINUOUS
10
1.08772
20
0.376239
11
1.08772
21
0.376378
0
LINE
8
BLACK
6
CONTINUOUS
10
1.08772
20
0.376378
11
1.087
21
0.383705
0
LINE
8
BLACK
6
CONTINUOUS
10
1.087
20
0.383705
11
1.08487
21
0.390752
0
LINE
8
BLACK
6
CONTINUOUS
10
1.08487
20
0.390752
11
1.08142
21
0.397252
0
LINE
8
BLACK
6
CONTINUOUS
10
1.08142
20
0.397252
11
1.07677
21
0.402957
0
LINE
8
BLACK
6
CONTINUOUS
10
1.07677
20
0.402957
11
1.07444
21
0.404881
0
LINE
8
BLACK
6
CONTINUOUS
10
1.07444
20
0.404881
11
1.07128
21
0.407496
0
LINE
8
BLACK
6
CONTINUOUS
10
1.07128
20
0.407496
11
1.07128
21
0.407496
0
LINE
8
BLACK
6
CONTINUOUS
10
1.07128
20
0.407496
11
1.07109
21
0.40765
0
LINE
8
BLACK
6
CONTINUOUS
10
1.07109
20
0.40765
11
1.07088
21
0.407765
0
LINE
8
BLACK
6
CONTINUOUS
10
1.07088
20
0.407765
11
1.07088
21
0.407766
0
LINE
8
BLACK
6
CONTINUOUS
10
1.07088
20
0.407766
11
1.06786
21
0.409401
0
LINE
8
BLACK
6
CONTINUOUS
10
1.06786
20
0.409401
11
1.06462
21
0.411152
0
LINE
8
BLACK
6
CONTINUOUS
10
1.06462
20
0.411152
11
1.05758
21
0.413329
0
LINE
8
BLACK
6
CONTINUOUS
10
1.05758
20
0.413329
11
1.05734
21
0.413354
0
LINE
8
BLACK
6
CONTINUOUS
10
1.05734
20
0.413354
11
1.05734
21
0.413354
0
LINE
8
BLACK
6
CONTINUOUS
10
1.05734
20
0.413354
11
1.05692
21
0.413398
0
LINE
8
BLACK
6
CONTINUOUS
10
1.05692
20
0.413398
11
1.05676
21
0.413416
0
LINE
8
BLACK
6
CONTINUOUS
10
1.05676
20
0.413416
11
1.05417
21
0.414479
0
LINE
8
BLACK
6
CONTINUOUS
10
1.05417
20
0.414479
11
1.05377
21
0.414841
0
LINE
8
BLACK
6
CONTINUOUS
10
1.05377
20
0.414841
11
0.960744
21
0.507865
0
LINE
8
BLACK
6
CONTINUOUS
10
0.960744
20
0.507865
11
0.959404
21
0.510319
0
LINE
8
BLACK
6
CONTINUOUS
10
0.959404
20
0.510319
11
0.959477
21
0.51272
0
LINE
8
BLACK
6
CONTINUOUS
10
0.959477
20
0.51272
11
0.96098
21
0.518048
0
LINE
8
BLACK
6
CONTINUOUS
10
0.96098
20
0.518048
11
0.962242
21
0.527966
0
LINE
8
BLACK
6
CONTINUOUS
10
0.962242
20
0.527966
11
0.962334
21
0.531496
0
LINE
8
BLACK
6
CONTINUOUS
10
0.962334
20
0.531496
11
0.961593
21
0.541466
0
LINE
8
BLACK
6
CONTINUOUS
10
0.961593
20
0.541466
11
0.959387
21
0.551217
0
LINE
8
BLACK
6
CONTINUOUS
10
0.959387
20
0.551217
11
0.958168
21
0.554352
0
LINE
8
BLACK
6
CONTINUOUS
10
0.958168
20
0.554352
11
0.95583
21
0.560364
0
LINE
8
BLACK
6
CONTINUOUS
10
0.95583
20
0.560364
11
0.95583
21
0.560364
0
LINE
8
BLACK
6
CONTINUOUS
10
0.95583
20
0.560364
11
0.955763
21
0.560535
0
LINE
8
BLACK
6
CONTINUOUS
10
0.955763
20
0.560535
11
0.955672
21
0.560695
0
LINE
8
BLACK
6
CONTINUOUS
10
0.955672
20
0.560695
11
0.950894
21
0.569055
0
LINE
8
BLACK
6
CONTINUOUS
10
0.950894
20
0.569055
11
0.950894
21
0.569055
0
LINE
8
BLACK
6
CONTINUOUS
10
0.950894
20
0.569055
11
0.950802
21
0.569215
0
LINE
8
BLACK
6
CONTINUOUS
10
0.950802
20
0.569215
11
0.944613
21
0.577066
0
LINE
8
BLACK
6
CONTINUOUS
10
0.944613
20
0.577066
11
0.937331
21
0.583916
0
LINE
8
BLACK
6
CONTINUOUS
10
0.937331
20
0.583916
11
0.93561
21
0.585111
0
LINE
8
BLACK
6
CONTINUOUS
10
0.93561
20
0.585111
11
0.929267
21
0.58951
0
LINE
8
BLACK
6
CONTINUOUS
10
0.929267
20
0.58951
11
0.929267
21
0.58951
0
LINE
8
BLACK
6
CONTINUOUS
10
0.929267
20
0.58951
11
0.929117
21
0.589615
0
LINE
8
BLACK
6
CONTINUOUS
10
0.929117
20
0.589615
11
0.928952
21
0.589696
0
LINE
8
BLACK
6
CONTINUOUS
10
0.928952
20
0.589696
11
0.928952
21
0.589696
0
LINE
8
BLACK
6
CONTINUOUS
10
0.928952
20
0.589696
11
0.927511
21
0.590407
0
LINE
8
BLACK
6
CONTINUOUS
10
0.927511
20
0.590407
11
0.925454
21
0.592299
0
LINE
8
BLACK
6
CONTINUOUS
10
0.925454
20
0.592299
11
0.924744
21
0.594856
0
LINE
8
BLACK
6
CONTINUOUS
10
0.924744
20
0.594856
11
0.924744
21
1.37362
0
LINE
8
BLACK
6
CONTINUOUS
10
0.924744
20
1.37362
11
0.925532
21
1.3763
0
LINE
8
BLACK
6
CONTINUOUS
10
0.925532
20
1.3763
11
0.927094
21
1.37784
0
LINE
8
BLACK
6
CONTINUOUS
10
0.927094
20
1.37784
11
0.927528
21
1.3781
0
LINE
8
BLACK
6
CONTINUOUS
10
0.927528
20
1.3781
11
0.930451
21
1.37991
0
LINE
8
BLACK
6
CONTINUOUS
10
0.930451
20
1.37991
11
0.934373
21
1.38234
0
LINE
8
BLACK
6
CONTINUOUS
10
0.934373
20
1.38234
11
0.934373
21
1.38234
0
LINE
8
BLACK
6
CONTINUOUS
10
0.934373
20
1.38234
11
0.934529
21
1.38244
0
LINE
8
BLACK
6
CONTINUOUS
10
0.934529
20
1.38244
11
0.938418
21
1.38573
0
LINE
8
BLACK
6
CONTINUOUS
10
0.938418
20
1.38573
11
0.942019
21
1.38878
0
LINE
8
BLACK
6
CONTINUOUS
10
0.942019
20
1.38878
11
0.942019
21
1.38878
0
LINE
8
BLACK
6
CONTINUOUS
10
0.942019
20
1.38878
11
0.94216
21
1.3889
0
LINE
8
BLACK
6
CONTINUOUS
10
0.94216
20
1.3889
11
0.948752
21
1.39641
0
LINE
8
BLACK
6
CONTINUOUS
10
0.948752
20
1.39641
11
0.95416
21
1.40482
0
LINE
8
BLACK
6
CONTINUOUS
10
0.95416
20
1.40482
11
0.958266
21
1.41394
0
LINE
8
BLACK
6
CONTINUOUS
10
0.958266
20
1.41394
11
0.96098
21
1.42356
0
LINE
8
BLACK
6
CONTINUOUS
10
0.96098
20
1.42356
11
0.962242
21
1.43348
0
LINE
8
BLACK
6
CONTINUOUS
10
0.962242
20
1.43348
11
0.962334
21
1.43701
0
LINE
8
BLACK
6
CONTINUOUS
10
0.962334
20
1.43701
11
0.961593
21
1.44698
0
LINE
8
BLACK
6
CONTINUOUS
10
0.961593
20
1.44698
11
0.959387
21
1.45673
0
LINE
8
BLACK
6
CONTINUOUS
10
0.959387
20
1.45673
11
0.955763
21
1.46605
0
LINE
8
BLACK
6
CONTINUOUS
10
0.955763
20
1.46605
11
0.954955
21
1.46746
0
LINE
8
BLACK
6
CONTINUOUS
10
0.954955
20
1.46746
11
0.950894
21
1.47457
0
LINE
8
BLACK
6
CONTINUOUS
10
0.950894
20
1.47457
11
0.950894
21
1.47457
0
LINE
8
BLACK
6
CONTINUOUS
10
0.950894
20
1.47457
11
0.950802
21
1.47473
0
LINE
8
BLACK
6
CONTINUOUS
10
0.950802
20
1.47473
11
0.944613
21
1.48258
0
LINE
8
BLACK
6
CONTINUOUS
10
0.944613
20
1.48258
11
0.937331
21
1.48943
0
LINE
8
BLACK
6
CONTINUOUS
10
0.937331
20
1.48943
11
0.93561
21
1.49062
0
LINE
8
BLACK
6
CONTINUOUS
10
0.93561
20
1.49062
11
0.929267
21
1.49502
0
LINE
8
BLACK
6
CONTINUOUS
10
0.929267
20
1.49502
11
0.929267
21
1.49502
0
LINE
8
BLACK
6
CONTINUOUS
10
0.929267
20
1.49502
11
0.929117
21
1.49513
0
LINE
8
BLACK
6
CONTINUOUS
10
0.929117
20
1.49513
11
0.928952
21
1.49521
0
LINE
8
BLACK
6
CONTINUOUS
10
0.928952
20
1.49521
11
0.928952
21
1.49521
0
LINE
8
BLACK
6
CONTINUOUS
10
0.928952
20
1.49521
11
0.920315
21
1.49947
0
LINE
8
BLACK
6
CONTINUOUS
10
0.920315
20
1.49947
11
0.920315
21
1.49947
0
LINE
8
BLACK
6
CONTINUOUS
10
0.920315
20
1.49947
11
0.92015
21
1.49955
0
LINE
8
BLACK
6
CONTINUOUS
10
0.92015
20
1.49955
11
0.910628
21
1.5026
0
LINE
8
BLACK
6
CONTINUOUS
10
0.910628
20
1.5026
11
0.910447
21
1.50263
0
LINE
8
BLACK
6
CONTINUOUS
10
0.910447
20
1.50263
11
0.900942
21
1.50417
0
LINE
8
BLACK
6
CONTINUOUS
10
0.900942
20
1.50417
11
0.900942
21
1.50417
0
LINE
8
BLACK
6
CONTINUOUS
10
0.900942
20
1.50417
11
0.900761
21
1.5042
0
LINE
8
BLACK
6
CONTINUOUS
10
0.900761
20
1.5042
11
0.895762
21
1.50427
0
LINE
8
BLACK
6
CONTINUOUS
10
0.895762
20
1.50427
11
0.890948
21
1.50433
0
LINE
8
BLACK
6
CONTINUOUS
10
0.890948
20
1.50433
11
0.890948
21
1.50433
0
LINE
8
BLACK
6
CONTINUOUS
10
0.890948
20
1.50433
11
0.890764
21
1.50433
0
LINE
8
BLACK
6
CONTINUOUS
10
0.890764
20
1.50433
11
0.880858
21
1.50299
0
LINE
8
BLACK
6
CONTINUOUS
10
0.880858
20
1.50299
11
0.87126
21
1.50019
0
LINE
8
BLACK
6
CONTINUOUS
10
0.87126
20
1.50019
11
0.86218
21
1.496
0
LINE
8
BLACK
6
CONTINUOUS
10
0.86218
20
1.496
11
0.862026
21
1.4959
0
LINE
8
BLACK
6
CONTINUOUS
10
0.862026
20
1.4959
11
0.853974
21
1.49062
0
LINE
8
BLACK
6
CONTINUOUS
10
0.853974
20
1.49062
11
0.853973
21
1.49062
0
LINE
8
BLACK
6
CONTINUOUS
10
0.853973
20
1.49062
11
0.853819
21
1.49052
0
LINE
8
BLACK
6
CONTINUOUS
10
0.853819
20
1.49052
11
0.846361
21
1.48386
0
LINE
8
BLACK
6
CONTINUOUS
10
0.846361
20
1.48386
11
0.839968
21
1.47618
0
LINE
8
BLACK
6
CONTINUOUS
10
0.839968
20
1.47618
11
0.834781
21
1.46763
0
LINE
8
BLACK
6
CONTINUOUS
10
0.834781
20
1.46763
11
0.830915
21
1.45841
0
LINE
8
BLACK
6
CONTINUOUS
10
0.830915
20
1.45841
11
0.828454
21
1.44872
0
LINE
8
BLACK
6
CONTINUOUS
10
0.828454
20
1.44872
11
0.827453
21
1.43877
0
LINE
8
BLACK
6
CONTINUOUS
10
0.827453
20
1.43877
11
0.827932
21
1.42879
0
LINE
8
BLACK
6
CONTINUOUS
10
0.827932
20
1.42879
11
0.829883
21
1.41898
0
LINE
8
BLACK
6
CONTINUOUS
10
0.829883
20
1.41898
11
0.829945
21
1.41881
0
LINE
8
BLACK
6
CONTINUOUS
10
0.829945
20
1.41881
11
0.829945
21
1.41881
0
LINE
8
BLACK
6
CONTINUOUS
10
0.829945
20
1.41881
11
0.831694
21
1.41394
0
LINE
8
BLACK
6
CONTINUOUS
10
0.831694
20
1.41394
11
0.833261
21
1.40957
0
LINE
8
BLACK
6
CONTINUOUS
10
0.833261
20
1.40957
11
0.837993
21
1.40077
0
LINE
8
BLACK
6
CONTINUOUS
10
0.837993
20
1.40077
11
0.838103
21
1.40062
0
LINE
8
BLACK
6
CONTINUOUS
10
0.838103
20
1.40062
11
0.838103
21
1.40062
0
LINE
8
BLACK
6
CONTINUOUS
10
0.838103
20
1.40062
11
0.843865
21
1.3929
0
LINE
8
BLACK
6
CONTINUOUS
10
0.843865
20
1.3929
11
0.843865
21
1.3929
0
LINE
8
BLACK
6
CONTINUOUS
10
0.843865
20
1.3929
11
0.843975
21
1.39276
0
LINE
8
BLACK
6
CONTINUOUS
10
0.843975
20
1.39276
11
0.844105
21
1.39263
0
LINE
8
BLACK
6
CONTINUOUS
10
0.844105
20
1.39263
11
0.844105
21
1.39263
0
LINE
8
BLACK
6
CONTINUOUS
10
0.844105
20
1.39263
11
0.850944
21
1.38585
0
LINE
8
BLACK
6
CONTINUOUS
10
0.850944
20
1.38585
11
0.851075
21
1.38572
0
LINE
8
BLACK
6
CONTINUOUS
10
0.851075
20
1.38572
11
0.851223
21
1.38561
0
LINE
8
BLACK
6
CONTINUOUS
10
0.851223
20
1.38561
11
0.851223
21
1.38561
0
LINE
8
BLACK
6
CONTINUOUS
10
0.851223
20
1.38561
11
0.855547
21
1.38244
0
LINE
8
BLACK
6
CONTINUOUS
10
0.855547
20
1.38244
11
0.859138
21
1.3798
0
LINE
8
BLACK
6
CONTINUOUS
10
0.859138
20
1.3798
11
0.8593
21
1.37972
0
LINE
8
BLACK
6
CONTINUOUS
10
0.8593
20
1.37972
11
0.8593
21
1.37972
0
LINE
8
BLACK
6
CONTINUOUS
10
0.8593
20
1.37972
11
0.862369
21
1.3781
0
LINE
8
BLACK
6
CONTINUOUS
10
0.862369
20
1.3781
11
0.864376
21
1.37616
0
LINE
8
BLACK
6
CONTINUOUS
10
0.864376
20
1.37616
11
0.86502
21
1.37371
0
LINE
8
BLACK
6
CONTINUOUS
10
0.86502
20
1.37371
11
0.86502
21
0.594972
0
LINE
8
BLACK
6
CONTINUOUS
10
0.86502
20
0.594972
11
0.864232
21
0.59229
0
LINE
8
BLACK
6
CONTINUOUS
10
0.864232
20
0.59229
11
0.862464
21
0.590633
0
LINE
8
BLACK
6
CONTINUOUS
10
0.862464
20
0.590633
11
0.862348
21
0.590568
0
LINE
8
BLACK
6
CONTINUOUS
10
0.862348
20
0.590568
11
0.86218
21
0.590491
0
LINE
8
BLACK
6
CONTINUOUS
10
0.86218
20
0.590491
11
0.862026
21
0.59039
0
LINE
8
BLACK
6
CONTINUOUS
10
0.862026
20
0.59039
11
0.862026
21
0.59039
0
LINE
8
BLACK
6
CONTINUOUS
10
0.862026
20
0.59039
11
0.853974
21
0.585111
0
LINE
8
BLACK
6
CONTINUOUS
10
0.853974
20
0.585111
11
0.853973
21
0.585111
0
LINE
8
BLACK
6
CONTINUOUS
10
0.853973
20
0.585111
11
0.853819
21
0.58501
0
LINE
8
BLACK
6
CONTINUOUS
10
0.853819
20
0.58501
11
0.846361
21
0.578352
0
LINE
8
BLACK
6
CONTINUOUS
10
0.846361
20
0.578352
11
0.839968
21
0.570666
0
LINE
8
BLACK
6
CONTINUOUS
10
0.839968
20
0.570666
11
0.834781
21
0.562119
0
LINE
8
BLACK
6
CONTINUOUS
10
0.834781
20
0.562119
11
0.83471
21
0.561949
0
LINE
8
BLACK
6
CONTINUOUS
10
0.83471
20
0.561949
11
0.83471
21
0.561949
0
LINE
8
BLACK
6
CONTINUOUS
10
0.83471
20
0.561949
11
0.831612
21
0.554561
0
LINE
8
BLACK
6
CONTINUOUS
10
0.831612
20
0.554561
11
0.830915
21
0.552899
0
LINE
8
BLACK
6
CONTINUOUS
10
0.830915
20
0.552899
11
0.83087
21
0.552721
0
LINE
8
BLACK
6
CONTINUOUS
10
0.83087
20
0.552721
11
0.83087
21
0.55272
0
LINE
8
BLACK
6
CONTINUOUS
10
0.83087
20
0.55272
11
0.830532
21
0.551389
0
LINE
8
BLACK
6
CONTINUOUS
10
0.830532
20
0.551389
11
0.828454
21
0.543209
0
LINE
8
BLACK
6
CONTINUOUS
10
0.828454
20
0.543209
11
0.827453
21
0.533262
0
LINE
8
BLACK
6
CONTINUOUS
10
0.827453
20
0.533262
11
0.827932
21
0.523276
0
LINE
8
BLACK
6
CONTINUOUS
10
0.827932
20
0.523276
11
0.829883
21
0.51347
0
LINE
8
BLACK
6
CONTINUOUS
10
0.534621
20
0.474539
11
0.538061
21
0.46995
0
LINE
8
BLACK
6
CONTINUOUS
10
0.538061
20
0.46995
11
0.542649
21
0.466511
0
LINE
8
BLACK
6
CONTINUOUS
10
0.542649
20
0.466511
11
0.548019
21
0.464498
0
LINE
8
BLACK
6
CONTINUOUS
10
0.548019
20
0.464498
11
0.550467
21
0.464232
0
LINE
8
BLACK
6
CONTINUOUS
10
0.550467
20
0.464232
11
0.648745
21
0.464232
0
LINE
8
BLACK
6
CONTINUOUS
10
0.648745
20
0.464232
11
0.651194
21
0.464498
0
LINE
8
BLACK
6
CONTINUOUS
10
0.651194
20
0.464498
11
0.656563
21
0.466511
0
LINE
8
BLACK
6
CONTINUOUS
10
0.656563
20
0.466511
11
0.661152
21
0.46995
0
LINE
8
BLACK
6
CONTINUOUS
10
0.661152
20
0.46995
11
0.664591
21
0.474539
0
LINE
8
BLACK
6
CONTINUOUS
10
0.664591
20
0.474539
11
0.666604
21
0.479909
0
LINE
8
BLACK
6
CONTINUOUS
10
0.666604
20
0.479909
11
0.66687
21
0.482357
0
LINE
8
BLACK
6
CONTINUOUS
10
0.66687
20
0.482357
11
0.66687
21
0.580635
0
LINE
8
BLACK
6
CONTINUOUS
10
0.66687
20
0.580635
11
0.666604
21
0.583083
0
LINE
8
BLACK
6
CONTINUOUS
10
0.666604
20
0.583083
11
0.664591
21
0.588453
0
LINE
8
BLACK
6
CONTINUOUS
10
0.664591
20
0.588453
11
0.661152
21
0.593042
0
LINE
8
BLACK
6
CONTINUOUS
10
0.661152
20
0.593042
11
0.656563
21
0.596481
0
LINE
8
BLACK
6
CONTINUOUS
10
0.656563
20
0.596481
11
0.651194
21
0.598494
0
LINE
8
BLACK
6
CONTINUOUS
10
0.651194
20
0.598494
11
0.648745
21
0.59876
0
LINE
8
BLACK
6
CONTINUOUS
10
0.648745
20
0.59876
11
0.634429
21
0.59876
0
LINE
8
BLACK
6
CONTINUOUS
10
0.634429
20
0.59876
11
0.631747
21
0.599547
0
LINE
8
BLACK
6
CONTINUOUS
10
0.631747
20
0.599547
11
0.629917
21
0.60166
0
LINE
8
BLACK
6
CONTINUOUS
10
0.629917
20
0.60166
11
0.629469
21
0.60372
0
LINE
8
BLACK
6
CONTINUOUS
10
0.629469
20
0.60372
11
0.629469
21
0.664967
0
LINE
8
BLACK
6
CONTINUOUS
10
0.629469
20
0.664967
11
0.630362
21
0.667784
0
LINE
8
BLACK
6
CONTINUOUS
10
0.630362
20
0.667784
11
0.63043
21
0.667863
0
LINE
8
BLACK
6
CONTINUOUS
10
0.63043
20
0.667863
11
0.634066
21
0.674264
0
LINE
8
BLACK
6
CONTINUOUS
10
0.634066
20
0.674264
11
0.63639
21
0.681249
0
LINE
8
BLACK
6
CONTINUOUS
10
0.63639
20
0.681249
11
0.637313
21
0.688553
0
LINE
8
BLACK
6
CONTINUOUS
10
0.637313
20
0.688553
11
0.637327
21
0.689606
0
LINE
8
BLACK
6
CONTINUOUS
10
0.637327
20
0.689606
11
0.636609
21
0.696933
0
LINE
8
BLACK
6
CONTINUOUS
10
0.636609
20
0.696933
11
0.634481
21
0.703981
0
LINE
8
BLACK
6
CONTINUOUS
10
0.634481
20
0.703981
11
0.631025
21
0.710481
0
LINE
8
BLACK
6
CONTINUOUS
10
0.631025
20
0.710481
11
0.630585
21
0.71102
0
LINE
8
BLACK
6
CONTINUOUS
10
0.630585
20
0.71102
11
0.6295
21
0.713596
0
LINE
8
BLACK
6
CONTINUOUS
10
0.6295
20
0.713596
11
0.629469
21
0.714156
0
LINE
8
BLACK
6
CONTINUOUS
10
0.629469
20
0.714156
11
0.629469
21
1.36478
0
LINE
8
BLACK
6
CONTINUOUS
10
0.629469
20
1.36478
11
0.630256
21
1.36747
0
LINE
8
BLACK
6
CONTINUOUS
10
0.630256
20
1.36747
11
0.632368
21
1.3693
0
LINE
8
BLACK
6
CONTINUOUS
10
0.632368
20
1.3693
11
0.634429
21
1.36974
0
LINE
8
BLACK
6
CONTINUOUS
10
0.634429
20
1.36974
11
0.648745
21
1.36974
0
LINE
8
BLACK
6
CONTINUOUS
10
0.648745
20
1.36974
11
0.651194
21
1.37001
0
LINE
8
BLACK
6
CONTINUOUS
10
0.651194
20
1.37001
11
0.656563
21
1.37202
0
LINE
8
BLACK
6
CONTINUOUS
10
0.656563
20
1.37202
11
0.661152
21
1.37546
0
LINE
8
BLACK
6
CONTINUOUS
10
0.661152
20
1.37546
11
0.664591
21
1.38005
0
LINE
8
BLACK
6
CONTINUOUS
10
0.664591
20
1.38005
11
0.666604
21
1.38542
0
LINE
8
BLACK
6
CONTINUOUS
10
0.666604
20
1.38542
11
0.66687
21
1.38787
0
LINE
8
BLACK
6
CONTINUOUS
10
0.66687
20
1.38787
11
0.66687
21
1.48615
0
LINE
8
BLACK
6
CONTINUOUS
10
0.66687
20
1.48615
11
0.666604
21
1.4886
0
LINE
8
BLACK
6
CONTINUOUS
10
0.666604
20
1.4886
11
0.664591
21
1.49396
0
LINE
8
BLACK
6
CONTINUOUS
10
0.664591
20
1.49396
11
0.661152
21
1.49855
0
LINE
8
BLACK
6
CONTINUOUS
10
0.661152
20
1.49855
11
0.656563
21
1.50199
0
LINE
8
BLACK
6
CONTINUOUS
10
0.656563
20
1.50199
11
0.651194
21
1.50401
0
LINE
8
BLACK
6
CONTINUOUS
10
0.651194
20
1.50401
11
0.648745
21
1.50427
0
LINE
8
BLACK
6
CONTINUOUS
10
0.648745
20
1.50427
11
0.550467
21
1.50427
0
LINE
8
BLACK
6
CONTINUOUS
10
0.550467
20
1.50427
11
0.548019
21
1.50401
0
LINE
8
BLACK
6
CONTINUOUS
10
0.548019
20
1.50401
11
0.542649
21
1.50199
0
LINE
8
BLACK
6
CONTINUOUS
10
0.542649
20
1.50199
11
0.538061
21
1.49855
0
LINE
8
BLACK
6
CONTINUOUS
10
0.538061
20
1.49855
11
0.534621
21
1.49396
0
LINE
8
BLACK
6
CONTINUOUS
10
0.534621
20
1.49396
11
0.532608
21
1.4886
0
LINE
8
BLACK
6
CONTINUOUS
10
0.532608
20
1.4886
11
0.532343
21
1.48615
0
LINE
8
BLACK
6
CONTINUOUS
10
0.532343
20
1.48615
11
0.532343
21
1.38787
0
LINE
8
BLACK
6
CONTINUOUS
10
0.532343
20
1.38787
11
0.532608
21
1.38542
0
LINE
8
BLACK
6
CONTINUOUS
10
0.532608
20
1.38542
11
0.534621
21
1.38005
0
LINE
8
BLACK
6
CONTINUOUS
10
0.534621
20
1.38005
11
0.538061
21
1.37546
0
LINE
8
BLACK
6
CONTINUOUS
10
0.538061
20
1.37546
11
0.542649
21
1.37202
0
LINE
8
BLACK
6
CONTINUOUS
10
0.542649
20
1.37202
11
0.548019
21
1.37001
0
LINE
8
BLACK
6
CONTINUOUS
10
0.548019
20
1.37001
11
0.550467
21
1.36974
0
LINE
8
BLACK
6
CONTINUOUS
10
0.550467
20
1.36974
11
0.564783
21
1.36974
0
LINE
8
BLACK
6
CONTINUOUS
10
0.564783
20
1.36974
11
0.567465
21
1.36896
0
LINE
8
BLACK
6
CONTINUOUS
10
0.567465
20
1.36896
11
0.569296
21
1.36684
0
LINE
8
BLACK
6
CONTINUOUS
10
0.569296
20
1.36684
11
0.569744
21
1.36478
0
LINE
8
BLACK
6
CONTINUOUS
10
0.569744
20
1.36478
11
0.569744
21
0.714227
0
LINE
8
BLACK
6
CONTINUOUS
10
0.569744
20
0.714227
11
0.568957
21
0.711545
0
LINE
8
BLACK
6
CONTINUOUS
10
0.568957
20
0.711545
11
0.568727
21
0.711233
0
LINE
8
BLACK
6
CONTINUOUS
10
0.568727
20
0.711233
11
0.568638
21
0.711103
0
LINE
8
BLACK
6
CONTINUOUS
10
0.568638
20
0.711103
11
0.568482
21
0.710917
0
LINE
8
BLACK
6
CONTINUOUS
10
0.568482
20
0.710917
11
0.564936
21
0.704466
0
LINE
8
BLACK
6
CONTINUOUS
10
0.564936
20
0.704466
11
0.56271
21
0.697449
0
LINE
8
BLACK
6
CONTINUOUS
10
0.56271
20
0.697449
11
0.561889
21
0.690133
0
LINE
8
BLACK
6
CONTINUOUS
10
0.561889
20
0.690133
11
0.561909
21
0.689891
0
LINE
8
BLACK
6
CONTINUOUS
10
0.561909
20
0.689891
11
0.562452
21
0.683432
0
LINE
8
BLACK
6
CONTINUOUS
10
0.562452
20
0.683432
11
0.562505
21
0.682797
0
LINE
8
BLACK
6
CONTINUOUS
10
0.562505
20
0.682797
11
0.564534
21
0.67572
0
LINE
8
BLACK
6
CONTINUOUS
10
0.564534
20
0.67572
11
0.567899
21
0.669173
0
LINE
8
BLACK
6
CONTINUOUS
10
0.567899
20
0.669173
11
0.56805
21
0.668982
0
LINE
8
BLACK
6
CONTINUOUS
10
0.56805
20
0.668982
11
0.56805
21
0.668982
0
LINE
8
BLACK
6
CONTINUOUS
10
0.56805
20
0.668982
11
0.568671
21
0.668199
0
LINE
8
BLACK
6
CONTINUOUS
10
0.568671
20
0.668199
11
0.56972
21
0.665608
0
LINE
8
BLACK
6
CONTINUOUS
10
0.56972
20
0.665608
11
0.569744
21
0.665117
0
LINE
8
BLACK
6
CONTINUOUS
10
0.569744
20
0.665117
11
0.569744
21
0.60372
0
LINE
8
BLACK
6
CONTINUOUS
10
0.569744
20
0.60372
11
0.568957
21
0.601039
0
LINE
8
BLACK
6
CONTINUOUS
10
0.568957
20
0.601039
11
0.566844
21
0.599208
0
LINE
8
BLACK
6
CONTINUOUS
10
0.566844
20
0.599208
11
0.564783
21
0.59876
0
LINE
8
BLACK
6
CONTINUOUS
10
0.564783
20
0.59876
11
0.550467
21
0.59876
0
LINE
8
BLACK
6
CONTINUOUS
10
0.550467
20
0.59876
11
0.548019
21
0.598494
0
LINE
8
BLACK
6
CONTINUOUS
10
0.548019
20
0.598494
11
0.542649
21
0.596481
0
LINE
8
BLACK
6
CONTINUOUS
10
0.542649
20
0.596481
11
0.538061
21
0.593042
0
LINE
8
BLACK
6
CONTINUOUS
10
0.538061
20
0.593042
11
0.534621
21
0.588453
0
LINE
8
BLACK
6
CONTINUOUS
10
0.534621
20
0.588453
11
0.532608
21
0.583083
0
LINE
8
BLACK
6
CONTINUOUS
10
0.532608
20
0.583083
11
0.532343
21
0.580635
0
LINE
8
BLACK
6
CONTINUOUS
10
0.532343
20
0.580635
11
0.532343
21
0.482357
0
LINE
8
BLACK
6
CONTINUOUS
10
0.532343
20
0.482357
11
0.532608
21
0.479909
0
LINE
8
BLACK
6
CONTINUOUS
10
0.532608
20
0.479909
11
0.534621
21
0.474539
0
LINE
8
BLACK
6
CONTINUOUS
10
0.89982
20
1.48399
11
0.9083
21
1.48231
0
LINE
8
BLACK
6
CONTINUOUS
10
0.9083
20
1.48231
11
0.91633
21
1.4791
0
LINE
8
BLACK
6
CONTINUOUS
10
0.91633
20
1.4791
11
0.923642
21
1.47449
0
LINE
8
BLACK
6
CONTINUOUS
10
0.923642
20
1.47449
11
0.929991
21
1.46862
0
LINE
8
BLACK
6
CONTINUOUS
10
0.929991
20
1.46862
11
0.935164
21
1.46169
0
LINE
8
BLACK
6
CONTINUOUS
10
0.935164
20
1.46169
11
0.938988
21
1.45394
0
LINE
8
BLACK
6
CONTINUOUS
10
0.938988
20
1.45394
11
0.941335
21
1.44562
0
LINE
8
BLACK
6
CONTINUOUS
10
0.941335
20
1.44562
11
0.942126
21
1.43701
0
LINE
8
BLACK
6
CONTINUOUS
10
0.942126
20
1.43701
11
0.942061
21
1.43454
0
LINE
8
BLACK
6
CONTINUOUS
10
0.942061
20
1.43454
11
0.940821
21
1.42598
0
LINE
8
BLACK
6
CONTINUOUS
10
0.940821
20
1.42598
11
0.938042
21
1.41779
0
LINE
8
BLACK
6
CONTINUOUS
10
0.938042
20
1.41779
11
0.933817
21
1.41025
0
LINE
8
BLACK
6
CONTINUOUS
10
0.933817
20
1.41025
11
0.928289
21
1.4036
0
LINE
8
BLACK
6
CONTINUOUS
10
0.928289
20
1.4036
11
0.921641
21
1.39807
0
LINE
8
BLACK
6
CONTINUOUS
10
0.921641
20
1.39807
11
0.914098
21
1.39385
0
LINE
8
BLACK
6
CONTINUOUS
10
0.914098
20
1.39385
11
0.905911
21
1.39107
0
LINE
8
BLACK
6
CONTINUOUS
10
0.905911
20
1.39107
11
0.904724
21
1.3909
0
LINE
8
BLACK
6
CONTINUOUS
10
0.904724
20
1.3909
11
0.904724
21
0.577506
0
LINE
8
BLACK
6
CONTINUOUS
10
0.904724
20
0.577506
11
0.9083
21
0.576795
0
LINE
8
BLACK
6
CONTINUOUS
10
0.9083
20
0.576795
11
0.91633
21
0.573591
0
LINE
8
BLACK
6
CONTINUOUS
10
0.91633
20
0.573591
11
0.923642
21
0.568977
0
LINE
8
BLACK
6
CONTINUOUS
10
0.923642
20
0.568977
11
0.929991
21
0.563109
0
LINE
8
BLACK
6
CONTINUOUS
10
0.929991
20
0.563109
11
0.935164
21
0.556181
0
LINE
8
BLACK
6
CONTINUOUS
10
0.935164
20
0.556181
11
0.938988
21
0.548427
0
LINE
8
BLACK
6
CONTINUOUS
10
0.938988
20
0.548427
11
0.941335
21
0.540106
0
LINE
8
BLACK
6
CONTINUOUS
10
0.941335
20
0.540106
11
0.942126
21
0.531496
0
LINE
8
BLACK
6
CONTINUOUS
10
0.942126
20
0.531496
11
0.942061
21
0.529024
0
LINE
8
BLACK
6
CONTINUOUS
10
0.942061
20
0.529024
11
0.940821
21
0.520467
0
LINE
8
BLACK
6
CONTINUOUS
10
0.940821
20
0.520467
11
0.938042
21
0.51228
0
LINE
8
BLACK
6
CONTINUOUS
10
0.938042
20
0.51228
11
0.934443
21
0.505854
0
LINE
8
BLACK
6
CONTINUOUS
10
0.934443
20
0.505854
11
1.0468
21
0.3935
0
LINE
8
BLACK
6
CONTINUOUS
10
1.0468
20
0.3935
11
1.04762
21
0.393736
0
LINE
8
BLACK
6
CONTINUOUS
10
1.04762
20
0.393736
11
1.05259
21
0.393705
0
LINE
8
BLACK
6
CONTINUOUS
10
1.05259
20
0.393705
11
1.05735
21
0.392282
0
LINE
8
BLACK
6
CONTINUOUS
10
1.05735
20
0.392282
11
1.06152
21
0.38958
0
LINE
8
BLACK
6
CONTINUOUS
10
1.06152
20
0.38958
11
1.06476
21
0.385817
0
LINE
8
BLACK
6
CONTINUOUS
10
1.06476
20
0.385817
11
1.06682
21
0.381295
0
LINE
8
BLACK
6
CONTINUOUS
10
1.06682
20
0.381295
11
1.06752
21
0.376378
0
LINE
8
BLACK
6
CONTINUOUS
10
1.06752
20
0.376378
11
1.06751
21
0.37595
0
LINE
8
BLACK
6
CONTINUOUS
10
1.06751
20
0.37595
11
1.06669
21
0.371051
0
LINE
8
BLACK
6
CONTINUOUS
10
1.06669
20
0.371051
11
1.06452
21
0.366581
0
LINE
8
BLACK
6
CONTINUOUS
10
1.06452
20
0.366581
11
1.06119
21
0.362898
0
LINE
8
BLACK
6
CONTINUOUS
10
1.06119
20
0.362898
11
1.05984
21
0.36207
0
LINE
8
BLACK
6
CONTINUOUS
10
1.05984
20
0.36207
11
1.05984
21
0.207165
0
LINE
8
BLACK
6
CONTINUOUS
10
1.05984
20
0.207165
11
1.08
21
0.207165
0
LINE
8
BLACK
6
CONTINUOUS
10
1.08
20
0.207165
11
1.08
21
0.147165
0
LINE
8
BLACK
6
CONTINUOUS
10
1.08
20
0.147165
11
1.02
21
0.147165
0
LINE
8
BLACK
6
CONTINUOUS
10
1.02
20
0.147165
11
1.02
21
0.207165
0
LINE
8
BLACK
6
CONTINUOUS
10
1.02
20
0.207165
11
1.04016
21
0.207165
0
LINE
8
BLACK
6
CONTINUOUS
10
1.04016
20
0.207165
11
1.04016
21
0.362096
0
LINE
8
BLACK
6
CONTINUOUS
10
1.04016
20
0.362096
11
1.03832
21
0.363317
0
LINE
8
BLACK
6
CONTINUOUS
10
1.03832
20
0.363317
11
1.03513
21
0.36712
0
LINE
8
BLACK
6
CONTINUOUS
10
1.03513
20
0.36712
11
1.03313
21
0.371667
0
LINE
8
BLACK
6
CONTINUOUS
10
1.03313
20
0.371667
11
1.03248
21
0.376592
0
LINE
8
BLACK
6
CONTINUOUS
10
1.03248
20
0.376592
11
1.03294
21
0.379521
0
LINE
8
BLACK
6
CONTINUOUS
10
1.03294
20
0.379521
11
0.920524
21
0.491935
0
LINE
8
BLACK
6
CONTINUOUS
10
0.920524
20
0.491935
11
0.914098
21
0.488336
0
LINE
8
BLACK
6
CONTINUOUS
10
0.914098
20
0.488336
11
0.905911
21
0.485557
0
LINE
8
BLACK
6
CONTINUOUS
10
0.905911
20
0.485557
11
0.897354
21
0.484317
0
LINE
8
BLACK
6
CONTINUOUS
10
0.897354
20
0.484317
11
0.888715
21
0.484656
0
LINE
8
BLACK
6
CONTINUOUS
10
0.888715
20
0.484656
11
0.880283
21
0.486564
0
LINE
8
BLACK
6
CONTINUOUS
10
0.880283
20
0.486564
11
0.872339
21
0.489977
0
LINE
8
BLACK
6
CONTINUOUS
10
0.872339
20
0.489977
11
0.86515
21
0.494781
0
LINE
8
BLACK
6
CONTINUOUS
10
0.86515
20
0.494781
11
0.858957
21
0.500813
0
LINE
8
BLACK
6
CONTINUOUS
10
0.858957
20
0.500813
11
0.853967
21
0.507874
0
LINE
8
BLACK
6
CONTINUOUS
10
0.853967
20
0.507874
11
0.850348
21
0.515726
0
LINE
8
BLACK
6
CONTINUOUS
10
0.850348
20
0.515726
11
0.848219
21
0.524105
0
LINE
8
BLACK
6
CONTINUOUS
10
0.848219
20
0.524105
11
0.847654
21
0.532733
0
LINE
8
BLACK
6
CONTINUOUS
10
0.847654
20
0.532733
11
0.84867
21
0.541319
0
LINE
8
BLACK
6
CONTINUOUS
10
0.84867
20
0.541319
11
0.851234
21
0.549576
0
LINE
8
BLACK
6
CONTINUOUS
10
0.851234
20
0.549576
11
0.85526
21
0.557227
0
LINE
8
BLACK
6
CONTINUOUS
10
0.85526
20
0.557227
11
0.860612
21
0.564017
0
LINE
8
BLACK
6
CONTINUOUS
10
0.860612
20
0.564017
11
0.867113
21
0.569717
0
LINE
8
BLACK
6
CONTINUOUS
10
0.867113
20
0.569717
11
0.874543
21
0.574138
0
LINE
8
BLACK
6
CONTINUOUS
10
0.874543
20
0.574138
11
0.882654
21
0.57713
0
LINE
8
BLACK
6
CONTINUOUS
10
0.882654
20
0.57713
11
0.885039
21
0.57754
0
LINE
8
BLACK
6
CONTINUOUS
10
0.885039
20
0.57754
11
0.885039
21
1.391
0
LINE
8
BLACK
6
CONTINUOUS
10
0.885039
20
1.391
11
0.880283
21
1.39208
0
LINE
8
BLACK
6
CONTINUOUS
10
0.880283
20
1.39208
11
0.872339
21
1.39549
0
LINE
8
BLACK
6
CONTINUOUS
10
0.872339
20
1.39549
11
0.86515
21
1.40029
0
LINE
8
BLACK
6
CONTINUOUS
10
0.86515
20
1.40029
11
0.858957
21
1.40633
0
LINE
8
BLACK
6
CONTINUOUS
10
0.858957
20
1.40633
11
0.853967
21
1.41339
0
LINE
8
BLACK
6
CONTINUOUS
10
0.853967
20
1.41339
11
0.850348
21
1.42124
0
LINE
8
BLACK
6
CONTINUOUS
10
0.850348
20
1.42124
11
0.848219
21
1.42962
0
LINE
8
BLACK
6
CONTINUOUS
10
0.848219
20
1.42962
11
0.847654
21
1.43824
0
LINE
8
BLACK
6
CONTINUOUS
10
0.847654
20
1.43824
11
0.84867
21
1.44683
0
LINE
8
BLACK
6
CONTINUOUS
10
0.84867
20
1.44683
11
0.851234
21
1.45509
0
LINE
8
BLACK
6
CONTINUOUS
10
0.851234
20
1.45509
11
0.85526
21
1.46274
0
LINE
8
BLACK
6
CONTINUOUS
10
0.85526
20
1.46274
11
0.860612
21
1.46953
0
LINE
8
BLACK
6
CONTINUOUS
10
0.860612
20
1.46953
11
0.867113
21
1.47523
0
LINE
8
BLACK
6
CONTINUOUS
10
0.867113
20
1.47523
11
0.874543
21
1.47965
0
LINE
8
BLACK
6
CONTINUOUS
10
0.874543
20
1.47965
11
0.882654
21
1.48264
0
LINE
8
BLACK
6
CONTINUOUS
10
0.882654
20
1.48264
11
0.891175
21
1.48411
0
LINE
8
BLACK
6
CONTINUOUS
10
0.891175
20
1.48411
11
0.89982
21
1.48399
0
LINE
8
BLACK
6
CONTINUOUS
10
1.55236
20
1.38976
11
1.51496
21
1.38976
0
LINE
8
BLACK
6
CONTINUOUS
10
1.51496
20
1.38976
11
1.51496
21
0.57874
0
LINE
8
BLACK
6
CONTINUOUS
10
1.51496
20
0.57874
11
1.55236
21
0.57874
0
LINE
8
BLACK
6
CONTINUOUS
10
1.55236
20
0.57874
11
1.55236
21
0.484252
0
LINE
8
BLACK
6
CONTINUOUS
10
1.55236
20
0.484252
11
1.47179
21
0.484252
0
LINE
8
BLACK
6
CONTINUOUS
10
1.47179
20
0.484252
11
1.25984
21
0.272301
0
LINE
8
BLACK
6
CONTINUOUS
10
1.25984
20
0.272301
11
1.25984
21
0.207165
0
LINE
8
BLACK
6
CONTINUOUS
10
1.25984
20
0.207165
11
1.28
21
0.207165
0
LINE
8
BLACK
6
CONTINUOUS
10
1.28
20
0.207165
11
1.28
21
0.147165
0
LINE
8
BLACK
6
CONTINUOUS
10
1.28
20
0.147165
11
1.22
21
0.147165
0
LINE
8
BLACK
6
CONTINUOUS
10
1.22
20
0.147165
11
1.22
21
0.167323
0
LINE
8
BLACK
6
CONTINUOUS
10
1.22
20
0.167323
11
1.18
21
0.167323
0
LINE
8
BLACK
6
CONTINUOUS
10
1.18
20
0.167323
11
1.18
21
0.147165
0
LINE
8
BLACK
6
CONTINUOUS
10
1.18
20
0.147165
11
1.12
21
0.147165
0
LINE
8
BLACK
6
CONTINUOUS
10
1.12
20
0.147165
11
1.12
21
0.207165
0
LINE
8
BLACK
6
CONTINUOUS
10
1.12
20
0.207165
11
1.14016
21
0.207165
0
LINE
8
BLACK
6
CONTINUOUS
10
1.14016
20
0.207165
11
1.14016
21
0.645923
0
LINE
8
BLACK
6
CONTINUOUS
10
1.14016
20
0.645923
11
1.11319
21
0.672893
0
LINE
8
BLACK
6
CONTINUOUS
10
1.11319
20
0.672893
11
1.11217
21
0.672615
0
LINE
8
BLACK
6
CONTINUOUS
10
1.11217
20
0.672615
11
1.1072
21
0.672706
0
LINE
8
BLACK
6
CONTINUOUS
10
1.1072
20
0.672706
11
1.10246
21
0.674187
0
LINE
8
BLACK
6
CONTINUOUS
10
1.10246
20
0.674187
11
1.09832
21
0.676939
0
LINE
8
BLACK
6
CONTINUOUS
10
1.09832
20
0.676939
11
1.09513
21
0.680742
0
LINE
8
BLACK
6
CONTINUOUS
10
1.09513
20
0.680742
11
1.09313
21
0.685289
0
LINE
8
BLACK
6
CONTINUOUS
10
1.09313
20
0.685289
11
1.09248
21
0.690214
0
LINE
8
BLACK
6
CONTINUOUS
10
1.09248
20
0.690214
11
1.09325
21
0.695122
0
LINE
8
BLACK
6
CONTINUOUS
10
1.09325
20
0.695122
11
1.09536
21
0.699619
0
LINE
8
BLACK
6
CONTINUOUS
10
1.09536
20
0.699619
11
1.09865
21
0.703342
0
LINE
8
BLACK
6
CONTINUOUS
10
1.09865
20
0.703342
11
1.10285
21
0.705993
0
LINE
8
BLACK
6
CONTINUOUS
10
1.10285
20
0.705993
11
1.10762
21
0.707358
0
LINE
8
BLACK
6
CONTINUOUS
10
1.10762
20
0.707358
11
1.11259
21
0.707327
0
LINE
8
BLACK
6
CONTINUOUS
10
1.11259
20
0.707327
11
1.11735
21
0.705904
0
LINE
8
BLACK
6
CONTINUOUS
10
1.11735
20
0.705904
11
1.12152
21
0.703202
0
LINE
8
BLACK
6
CONTINUOUS
10
1.12152
20
0.703202
11
1.12476
21
0.699439
0
LINE
8
BLACK
6
CONTINUOUS
10
1.12476
20
0.699439
11
1.12682
21
0.694917
0
LINE
8
BLACK
6
CONTINUOUS
10
1.12682
20
0.694917
11
1.12752
21
0.69
0
LINE
8
BLACK
6
CONTINUOUS
10
1.12752
20
0.69
11
1.12751
21
0.689572
0
LINE
8
BLACK
6
CONTINUOUS
10
1.12751
20
0.689572
11
1.12706
21
0.686861
0
LINE
8
BLACK
6
CONTINUOUS
10
1.12706
20
0.686861
11
1.15696
21
0.65696
0
LINE
8
BLACK
6
CONTINUOUS
10
1.15696
20
0.65696
11
1.15909
21
0.653767
0
LINE
8
BLACK
6
CONTINUOUS
10
1.15909
20
0.653767
11
1.15984
21
0.65
0
LINE
8
BLACK
6
CONTINUOUS
10
1.15984
20
0.65
11
1.15984
21
0.207165
0
LINE
8
BLACK
6
CONTINUOUS
10
1.15984
20
0.207165
11
1.18
21
0.207165
0
LINE
8
BLACK
6
CONTINUOUS
10
1.18
20
0.207165
11
1.18
21
0.187008
0
LINE
8
BLACK
6
CONTINUOUS
10
1.18
20
0.187008
11
1.22
21
0.187008
0
LINE
8
BLACK
6
CONTINUOUS
10
1.22
20
0.187008
11
1.22
21
0.207165
0
LINE
8
BLACK
6
CONTINUOUS
10
1.22
20
0.207165
11
1.24016
21
0.207165
0
LINE
8
BLACK
6
CONTINUOUS
10
1.24016
20
0.207165
11
1.24016
21
0.276378
0
LINE
8
BLACK
6
CONTINUOUS
10
1.24016
20
0.276378
11
1.24091
21
0.280145
0
LINE
8
BLACK
6
CONTINUOUS
10
1.24091
20
0.280145
11
1.24304
21
0.283338
0
LINE
8
BLACK
6
CONTINUOUS
10
1.24304
20
0.283338
11
1.45787
21
0.498171
0
LINE
8
BLACK
6
CONTINUOUS
10
1.45787
20
0.498171
11
1.45787
21
0.57874
0
LINE
8
BLACK
6
CONTINUOUS
10
1.45787
20
0.57874
11
1.49528
21
0.57874
0
LINE
8
BLACK
6
CONTINUOUS
10
1.49528
20
0.57874
11
1.49528
21
1.38976
0
LINE
8
BLACK
6
CONTINUOUS
10
1.49528
20
1.38976
11
1.45787
21
1.38976
0
LINE
8
BLACK
6
CONTINUOUS
10
1.45787
20
1.38976
11
1.45787
21
1.48425
0
LINE
8
BLACK
6
CONTINUOUS
10
1.45787
20
1.48425
11
1.55236
21
1.48425
0
LINE
8
BLACK
6
CONTINUOUS
10
1.55236
20
1.48425
11
1.55236
21
1.38976
0
LINE
8
BLACK
6
CONTINUOUS
10
1.80533
20
1.48399
11
1.81381
21
1.48231
0
LINE
8
BLACK
6
CONTINUOUS
10
1.81381
20
1.48231
11
1.82184
21
1.4791
0
LINE
8
BLACK
6
CONTINUOUS
10
1.82184
20
1.4791
11
1.82915
21
1.47449
0
LINE
8
BLACK
6
CONTINUOUS
10
1.82915
20
1.47449
11
1.8355
21
1.46862
0
LINE
8
BLACK
6
CONTINUOUS
10
1.8355
20
1.46862
11
1.84068
21
1.46169
0
LINE
8
BLACK
6
CONTINUOUS
10
1.84068
20
1.46169
11
1.8445
21
1.45394
0
LINE
8
BLACK
6
CONTINUOUS
10
1.8445
20
1.45394
11
1.84685
21
1.44562
0
LINE
8
BLACK
6
CONTINUOUS
10
1.84685
20
1.44562
11
1.84764
21
1.43701
0
LINE
8
BLACK
6
CONTINUOUS
10
1.84764
20
1.43701
11
1.84757
21
1.43454
0
LINE
8
BLACK
6
CONTINUOUS
10
1.84757
20
1.43454
11
1.84633
21
1.42598
0
LINE
8
BLACK
6
CONTINUOUS
10
1.84633
20
1.42598
11
1.84355
21
1.41779
0
LINE
8
BLACK
6
CONTINUOUS
10
1.84355
20
1.41779
11
1.83933
21
1.41025
0
LINE
8
BLACK
6
CONTINUOUS
10
1.83933
20
1.41025
11
1.8338
21
1.4036
0
LINE
8
BLACK
6
CONTINUOUS
10
1.8338
20
1.4036
11
1.82715
21
1.39807
0
LINE
8
BLACK
6
CONTINUOUS
10
1.82715
20
1.39807
11
1.81961
21
1.39385
0
LINE
8
BLACK
6
CONTINUOUS
10
1.81961
20
1.39385
11
1.81142
21
1.39107
0
LINE
8
BLACK
6
CONTINUOUS
10
1.81142
20
1.39107
11
1.81024
21
1.3909
0
LINE
8
BLACK
6
CONTINUOUS
10
1.81024
20
1.3909
11
1.81024
21
0.577506
0
LINE
8
BLACK
6
CONTINUOUS
10
1.81024
20
0.577506
11
1.81381
21
0.576795
0
LINE
8
BLACK
6
CONTINUOUS
10
1.81381
20
0.576795
11
1.82184
21
0.573591
0
LINE
8
BLACK
6
CONTINUOUS
10
1.82184
20
0.573591
11
1.82915
21
0.568977
0
LINE
8
BLACK
6
CONTINUOUS
10
1.82915
20
0.568977
11
1.8355
21
0.563109
0
LINE
8
BLACK
6
CONTINUOUS
10
1.8355
20
0.563109
11
1.84068
21
0.556181
0
LINE
8
BLACK
6
CONTINUOUS
10
1.84068
20
0.556181
11
1.8445
21
0.548427
0
LINE
8
BLACK
6
CONTINUOUS
10
1.8445
20
0.548427
11
1.84685
21
0.540106
0
LINE
8
BLACK
6
CONTINUOUS
10
1.84685
20
0.540106
11
1.84764
21
0.531496
0
LINE
8
BLACK
6
CONTINUOUS
10
1.84764
20
0.531496
11
1.84757
21
0.529024
0
LINE
8
BLACK
6
CONTINUOUS
10
1.84757
20
0.529024
11
1.84633
21
0.520467
0
LINE
8
BLACK
6
CONTINUOUS
10
1.84633
20
0.520467
11
1.84355
21
0.51228
0
LINE
8
BLACK
6
CONTINUOUS
10
1.84355
20
0.51228
11
1.83933
21
0.504737
0
LINE
8
BLACK
6
CONTINUOUS
10
1.83933
20
0.504737
11
1.8338
21
0.498089
0
LINE
8
BLACK
6
CONTINUOUS
10
1.8338
20
0.498089
11
1.82715
21
0.492561
0
LINE
8
BLACK
6
CONTINUOUS
10
1.82715
20
0.492561
11
1.81961
21
0.488336
0
LINE
8
BLACK
6
CONTINUOUS
10
1.81961
20
0.488336
11
1.81142
21
0.485557
0
LINE
8
BLACK
6
CONTINUOUS
10
1.81142
20
0.485557
11
1.80287
21
0.484317
0
LINE
8
BLACK
6
CONTINUOUS
10
1.80287
20
0.484317
11
1.79423
21
0.484656
0
LINE
8
BLACK
6
CONTINUOUS
10
1.79423
20
0.484656
11
1.78579
21
0.486564
0
LINE
8
BLACK
6
CONTINUOUS
10
1.78579
20
0.486564
11
1.77785
21
0.489977
0
LINE
8
BLACK
6
CONTINUOUS
10
1.77785
20
0.489977
11
1.77066
21
0.494781
0
LINE
8
BLACK
6
CONTINUOUS
10
1.77066
20
0.494781
11
1.76447
21
0.500813
0
LINE
8
BLACK
6
CONTINUOUS
10
1.76447
20
0.500813
11
1.75948
21
0.507874
0
LINE
8
BLACK
6
CONTINUOUS
10
1.75948
20
0.507874
11
1.75586
21
0.515726
0
LINE
8
BLACK
6
CONTINUOUS
10
1.75586
20
0.515726
11
1.75435
21
0.521654
0
LINE
8
BLACK
6
CONTINUOUS
10
1.75435
20
0.521654
11
1.65557
21
0.521654
0
LINE
8
BLACK
6
CONTINUOUS
10
1.65557
20
0.521654
11
1.51707
21
0.383149
0
LINE
8
BLACK
6
CONTINUOUS
10
1.51707
20
0.383149
11
1.51752
21
0.38
0
LINE
8
BLACK
6
CONTINUOUS
10
1.51752
20
0.38
11
1.51751
21
0.379572
0
LINE
8
BLACK
6
CONTINUOUS
10
1.51751
20
0.379572
11
1.51669
21
0.374673
0
LINE
8
BLACK
6
CONTINUOUS
10
1.51669
20
0.374673
11
1.51452
21
0.370203
0
LINE
8
BLACK
6
CONTINUOUS
10
1.51452
20
0.370203
11
1.51119
21
0.36652
0
LINE
8
BLACK
6
CONTINUOUS
10
1.51119
20
0.36652
11
1.50696
21
0.363921
0
LINE
8
BLACK
6
CONTINUOUS
10
1.50696
20
0.363921
11
1.50217
21
0.362615
0
LINE
8
BLACK
6
CONTINUOUS
10
1.50217
20
0.362615
11
1.4972
21
0.362706
0
LINE
8
BLACK
6
CONTINUOUS
10
1.4972
20
0.362706
11
1.49676
21
0.362842
0
LINE
8
BLACK
6
CONTINUOUS
10
1.49676
20
0.362842
11
1.35984
21
0.225923
0
LINE
8
BLACK
6
CONTINUOUS
10
1.35984
20
0.225923
11
1.35984
21
0.207165
0
LINE
8
BLACK
6
CONTINUOUS
10
1.35984
20
0.207165
11
1.38
21
0.207165
0
LINE
8
BLACK
6
CONTINUOUS
10
1.38
20
0.207165
11
1.38
21
0.147165
0
LINE
8
BLACK
6
CONTINUOUS
10
1.38
20
0.147165
11
1.32
21
0.147165
0
LINE
8
BLACK
6
CONTINUOUS
10
1.32
20
0.147165
11
1.32
21
0.207165
0
LINE
8
BLACK
6
CONTINUOUS
10
1.32
20
0.207165
11
1.34016
21
0.207165
0
LINE
8
BLACK
6
CONTINUOUS
10
1.34016
20
0.207165
11
1.34016
21
0.23
0
LINE
8
BLACK
6
CONTINUOUS
10
1.34016
20
0.23
11
1.34091
21
0.233767
0
LINE
8
BLACK
6
CONTINUOUS
10
1.34091
20
0.233767
11
1.34304
21
0.23696
0
LINE
8
BLACK
6
CONTINUOUS
10
1.34304
20
0.23696
11
1.48292
21
0.376842
0
LINE
8
BLACK
6
CONTINUOUS
10
1.48292
20
0.376842
11
1.48248
21
0.380214
0
LINE
8
BLACK
6
CONTINUOUS
10
1.48248
20
0.380214
11
1.48325
21
0.385122
0
LINE
8
BLACK
6
CONTINUOUS
10
1.48325
20
0.385122
11
1.48536
21
0.389619
0
LINE
8
BLACK
6
CONTINUOUS
10
1.48536
20
0.389619
11
1.48865
21
0.393342
0
LINE
8
BLACK
6
CONTINUOUS
10
1.48865
20
0.393342
11
1.49285
21
0.395993
0
LINE
8
BLACK
6
CONTINUOUS
10
1.49285
20
0.395993
11
1.49762
21
0.397358
0
LINE
8
BLACK
6
CONTINUOUS
10
1.49762
20
0.397358
11
1.50259
21
0.397327
0
LINE
8
BLACK
6
CONTINUOUS
10
1.50259
20
0.397327
11
1.50322
21
0.397139
0
LINE
8
BLACK
6
CONTINUOUS
10
1.50322
20
0.397139
11
1.64454
21
0.538456
0
LINE
8
BLACK
6
CONTINUOUS
10
1.64454
20
0.538456
11
1.64773
21
0.540589
0
LINE
8
BLACK
6
CONTINUOUS
10
1.64773
20
0.540589
11
1.6515
21
0.541339
0
LINE
8
BLACK
6
CONTINUOUS
10
1.6515
20
0.541339
11
1.6515
21
0.541339
0
LINE
8
BLACK
6
CONTINUOUS
10
1.6515
20
0.541339
11
1.75419
21
0.541339
0
LINE
8
BLACK
6
CONTINUOUS
10
1.75419
20
0.541339
11
1.75675
21
0.549576
0
LINE
8
BLACK
6
CONTINUOUS
10
1.75675
20
0.549576
11
1.76077
21
0.557227
0
LINE
8
BLACK
6
CONTINUOUS
10
1.76077
20
0.557227
11
1.76612
21
0.564017
0
LINE
8
BLACK
6
CONTINUOUS
10
1.76612
20
0.564017
11
1.77262
21
0.569717
0
LINE
8
BLACK
6
CONTINUOUS
10
1.77262
20
0.569717
11
1.78005
21
0.574138
0
LINE
8
BLACK
6
CONTINUOUS
10
1.78005
20
0.574138
11
1.78817
21
0.57713
0
LINE
8
BLACK
6
CONTINUOUS
10
1.78817
20
0.57713
11
1.79055
21
0.57754
0
LINE
8
BLACK
6
CONTINUOUS
10
1.79055
20
0.57754
11
1.79055
21
1.391
0
LINE
8
BLACK
6
CONTINUOUS
10
1.79055
20
1.391
11
1.78579
21
1.39208
0
LINE
8
BLACK
6
CONTINUOUS
10
1.78579
20
1.39208
11
1.77785
21
1.39549
0
LINE
8
BLACK
6
CONTINUOUS
10
1.77785
20
1.39549
11
1.77066
21
1.40029
0
LINE
8
BLACK
6
CONTINUOUS
10
1.77066
20
1.40029
11
1.76447
21
1.40633
0
LINE
8
BLACK
6
CONTINUOUS
10
1.76447
20
1.40633
11
1.75948
21
1.41339
0
LINE
8
BLACK
6
CONTINUOUS
10
1.75948
20
1.41339
11
1.75586
21
1.42124
0
LINE
8
BLACK
6
CONTINUOUS
10
1.75586
20
1.42124
11
1.75373
21
1.42962
0
LINE
8
BLACK
6
CONTINUOUS
10
1.75373
20
1.42962
11
1.75317
21
1.43824
0
LINE
8
BLACK
6
CONTINUOUS
10
1.75317
20
1.43824
11
1.75418
21
1.44683
0
LINE
8
BLACK
6
CONTINUOUS
10
1.75418
20
1.44683
11
1.75675
21
1.45509
0
LINE
8
BLACK
6
CONTINUOUS
10
1.75675
20
1.45509
11
1.76077
21
1.46274
0
LINE
8
BLACK
6
CONTINUOUS
10
1.76077
20
1.46274
11
1.76612
21
1.46953
0
LINE
8
BLACK
6
CONTINUOUS
10
1.76612
20
1.46953
11
1.77262
21
1.47523
0
LINE
8
BLACK
6
CONTINUOUS
10
1.77262
20
1.47523
11
1.78005
21
1.47965
0
LINE
8
BLACK
6
CONTINUOUS
10
1.78005
20
1.47965
11
1.78817
21
1.48264
0
LINE
8
BLACK
6
CONTINUOUS
10
1.78817
20
1.48264
11
1.79669
21
1.48411
0
LINE
8
BLACK
6
CONTINUOUS
10
1.79669
20
1.48411
11
1.80533
21
1.48399
0
LINE
8
BLACK
6
CONTINUOUS
10
0.64685
20
1.38976
11
0.609449
21
1.38976
0
LINE
8
BLACK
6
CONTINUOUS
10
0.609449
20
1.38976
11
0.609449
21
0.703894
0
LINE
8
BLACK
6
CONTINUOUS
10
0.609449
20
0.703894
11
0.611123
21
0.702809
0
LINE
8
BLACK
6
CONTINUOUS
10
0.611123
20
0.702809
11
0.614366
21
0.699045
0
LINE
8
BLACK
6
CONTINUOUS
10
0.614366
20
0.699045
11
0.616422
21
0.694524
0
LINE
8
BLACK
6
CONTINUOUS
10
0.616422
20
0.694524
11
0.617126
21
0.689606
0
LINE
8
BLACK
6
CONTINUOUS
10
0.617126
20
0.689606
11
0.617121
21
0.689178
0
LINE
8
BLACK
6
CONTINUOUS
10
0.617121
20
0.689178
11
0.616297
21
0.68428
0
LINE
8
BLACK
6
CONTINUOUS
10
0.616297
20
0.68428
11
0.614131
21
0.679809
0
LINE
8
BLACK
6
CONTINUOUS
10
0.614131
20
0.679809
11
0.610797
21
0.676127
0
LINE
8
BLACK
6
CONTINUOUS
10
0.610797
20
0.676127
11
0.609449
21
0.675299
0
LINE
8
BLACK
6
CONTINUOUS
10
0.609449
20
0.675299
11
0.609449
21
0.57874
0
LINE
8
BLACK
6
CONTINUOUS
10
0.609449
20
0.57874
11
0.64685
21
0.57874
0
LINE
8
BLACK
6
CONTINUOUS
10
0.64685
20
0.57874
11
0.64685
21
0.484252
0
LINE
8
BLACK
6
CONTINUOUS
10
0.64685
20
0.484252
11
0.552362
21
0.484252
0
LINE
8
BLACK
6
CONTINUOUS
10
0.552362
20
0.484252
11
0.552362
21
0.57874
0
LINE
8
BLACK
6
CONTINUOUS
10
0.552362
20
0.57874
11
0.589764
21
0.57874
0
LINE
8
BLACK
6
CONTINUOUS
10
0.589764
20
0.57874
11
0.589764
21
0.675324
0
LINE
8
BLACK
6
CONTINUOUS
10
0.589764
20
0.675324
11
0.587929
21
0.676546
0
LINE
8
BLACK
6
CONTINUOUS
10
0.587929
20
0.676546
11
0.584733
21
0.680348
0
LINE
8
BLACK
6
CONTINUOUS
10
0.584733
20
0.680348
11
0.582732
21
0.684895
0
LINE
8
BLACK
6
CONTINUOUS
10
0.582732
20
0.684895
11
0.582088
21
0.68982
0
LINE
8
BLACK
6
CONTINUOUS
10
0.582088
20
0.68982
11
0.582852
21
0.694729
0
LINE
8
BLACK
6
CONTINUOUS
10
0.582852
20
0.694729
11
0.584963
21
0.699225
0
LINE
8
BLACK
6
CONTINUOUS
10
0.584963
20
0.699225
11
0.588251
21
0.702948
0
LINE
8
BLACK
6
CONTINUOUS
10
0.588251
20
0.702948
11
0.589764
21
0.703902
0
LINE
8
BLACK
6
CONTINUOUS
10
0.589764
20
0.703902
11
0.589764
21
1.38976
0
LINE
8
BLACK
6
CONTINUOUS
10
0.589764
20
1.38976
11
0.552362
21
1.38976
0
LINE
8
BLACK
6
CONTINUOUS
10
0.552362
20
1.38976
11
0.552362
21
1.48425
0
LINE
8
BLACK
6
CONTINUOUS
10
0.552362
20
1.48425
11
0.64685
21
1.48425
0
LINE
8
BLACK
6
CONTINUOUS
10
0.64685
20
1.48425
11
0.64685
21
1.38976
0
CIRCLE
8
BLACK
10
0.599606
20
0.689606
40
0.00984252
0
CIRCLE
8
BLACK
10
1.11
20
0.69
40
0.00984252
0
CIRCLE
8
BLACK
10
1.5
20
0.38
40
0.00984252
0
CIRCLE
8
BLACK
10
1.05
20
0.376378
40
0.00984252
  0
ENDSEC
  0
EOF
