  0
SECTION
  2
HEADER
  9
$ANGBASE
  50
0.0
  9
$ANGDIR
  70
1
  9
$MEASUREMENT
  70
0
  0
ENDSEC
  0
SECTION
  2
TABLES
  0
TABLE
  2
LTYPE
  70
4
  0
LTYPE
  5
40F
  2
CONTINUOUS
  70
0
  3
Solid line
  72
65
  73
0
  40
0.0
  0
LTYPE
  5
410
  2
DASHDOT
 70
0
  3
Dash Dot ____ _ ____ _
 72
65
 73
4
 40
2.0
 49
1.25
 49
-0.25
 49
0.25
 49
-0.25
  0
LTYPE
  5
411
  2
DASHED
 70
0
  3
Dashed __ __ __ __ __
 72
65
 73
2
 40
0.75
 49
0.5
 49
-0.25
  0
LTYPE
  5
43B
  2
DOTTED
 70
0
  3
Dotted .  .  .  .
 72
65
 73
2
 40
0.2
 49
0.0
 49
-0.2
  0
ENDTAB
  0
TABLE
  2
STYLE
  70
4
  0
STYLE
  2
KICAD
  70
0
  40
0
  41
1
  42
1
  50
0
  71
0
  3
isocp.shx
  0
STYLE
  2
KICADB
  70
0
  40
0
  41
1
  42
1
  50
0
  71
0
  3
isocp.shx
  0
STYLE
  2
KICADI
  70
0
  40
0
  41
1
  42
1
  50
15
  71
0
  3
isocp.shx
  0
STYLE
  2
KICADBI
  70
0
  40
0
  41
1
  42
1
  50
15
  71
0
  3
isocp.shx
  0
ENDTAB
  0
TABLE
  2
LAYER
  70
1
  0
LAYER
  2
BLACK
  70
0
  62
7
  6
CONTINUOUS
  0
ENDTAB
  0
ENDSEC
  0
SECTION
  2
ENTITIES
0
LINE
8
BLACK
6
CONTINUOUS
10
0.0300591
20
1.57362
11
0.0301498
21
1.57421
0
LINE
8
BLACK
6
CONTINUOUS
10
0.0301498
20
1.57421
11
0.0301498
21
1.57421
0
LINE
8
BLACK
6
CONTINUOUS
10
0.0301498
20
1.57421
11
0.0302042
21
1.57456
0
LINE
8
BLACK
6
CONTINUOUS
10
0.0302042
20
1.57456
11
0.0300854
21
1.57546
0
LINE
8
BLACK
6
CONTINUOUS
10
0.0300854
20
1.57546
11
0.0300459
21
1.57626
0
LINE
8
BLACK
6
CONTINUOUS
10
0.0300459
20
1.57626
11
0.0307325
21
1.59811
0
LINE
8
BLACK
6
CONTINUOUS
10
0.0307325
20
1.59811
11
0.0307521
21
1.59842
0
LINE
8
BLACK
6
CONTINUOUS
10
0.0307521
20
1.59842
11
0.032932
21
1.62149
0
LINE
8
BLACK
6
CONTINUOUS
10
0.032932
20
1.62149
11
0.0329711
21
1.62179
0
LINE
8
BLACK
6
CONTINUOUS
10
0.0329711
20
1.62179
11
0.0365948
21
1.64467
0
LINE
8
BLACK
6
CONTINUOUS
10
0.0365948
20
1.64467
11
0.0366533
21
1.64498
0
LINE
8
BLACK
6
CONTINUOUS
10
0.0366533
20
1.64498
11
0.0417066
21
1.66759
0
LINE
8
BLACK
6
CONTINUOUS
10
0.0417066
20
1.66759
11
0.0417841
21
1.66789
0
LINE
8
BLACK
6
CONTINUOUS
10
0.0417841
20
1.66789
11
0.0482467
21
1.69013
0
LINE
8
BLACK
6
CONTINUOUS
10
0.0482467
20
1.69013
11
0.048343
21
1.69043
0
LINE
8
BLACK
6
CONTINUOUS
10
0.048343
20
1.69043
11
0.0510456
21
1.69794
0
LINE
8
BLACK
6
CONTINUOUS
10
0.0510456
20
1.69794
11
0.05619
21
1.71223
0
LINE
8
BLACK
6
CONTINUOUS
10
0.05619
20
1.71223
11
0.0563042
21
1.71251
0
LINE
8
BLACK
6
CONTINUOUS
10
0.0563042
20
1.71251
11
0.0655045
21
1.73377
0
LINE
8
BLACK
6
CONTINUOUS
10
0.0655045
20
1.73377
11
0.0656366
21
1.73406
0
LINE
8
BLACK
6
CONTINUOUS
10
0.0656366
20
1.73406
11
0.0761535
21
1.7547
0
LINE
8
BLACK
6
CONTINUOUS
10
0.0761535
20
1.7547
11
0.0763036
21
1.75497
0
LINE
8
BLACK
6
CONTINUOUS
10
0.0763036
20
1.75497
11
0.0880956
21
1.77491
0
LINE
8
BLACK
6
CONTINUOUS
10
0.0880956
20
1.77491
11
0.0882626
21
1.77517
0
LINE
8
BLACK
6
CONTINUOUS
10
0.0882626
20
1.77517
11
0.101283
21
1.79433
0
LINE
8
BLACK
6
CONTINUOUS
10
0.101283
20
1.79433
11
0.101466
21
1.79458
0
LINE
8
BLACK
6
CONTINUOUS
10
0.101466
20
1.79458
11
0.115664
21
1.81289
0
LINE
8
BLACK
6
CONTINUOUS
10
0.115664
20
1.81289
11
0.115862
21
1.81313
0
LINE
8
BLACK
6
CONTINUOUS
10
0.115862
20
1.81313
11
0.131182
21
1.8305
0
LINE
8
BLACK
6
CONTINUOUS
10
0.131182
20
1.8305
11
0.131395
21
1.83073
0
LINE
8
BLACK
6
CONTINUOUS
10
0.131395
20
1.83073
11
0.147775
21
1.84711
0
LINE
8
BLACK
6
CONTINUOUS
10
0.147775
20
1.84711
11
0.148002
21
1.84732
0
LINE
8
BLACK
6
CONTINUOUS
10
0.148002
20
1.84732
11
0.165378
21
1.86264
0
LINE
8
BLACK
6
CONTINUOUS
10
0.165378
20
1.86264
11
0.165618
21
1.86284
0
LINE
8
BLACK
6
CONTINUOUS
10
0.165618
20
1.86284
11
0.183922
21
1.87704
0
LINE
8
BLACK
6
CONTINUOUS
10
0.183922
20
1.87704
11
0.184174
21
1.87722
0
LINE
8
BLACK
6
CONTINUOUS
10
0.184174
20
1.87722
11
0.203333
21
1.89024
0
LINE
8
BLACK
6
CONTINUOUS
10
0.203333
20
1.89024
11
0.203596
21
1.89041
0
LINE
8
BLACK
6
CONTINUOUS
10
0.203596
20
1.89041
11
0.223535
21
1.9022
0
LINE
8
BLACK
6
CONTINUOUS
10
0.223535
20
1.9022
11
0.223808
21
1.90235
0
LINE
8
BLACK
6
CONTINUOUS
10
0.223808
20
1.90235
11
0.227269
21
1.90411
0
LINE
8
BLACK
6
CONTINUOUS
10
0.227269
20
1.90411
11
0.244449
21
1.91287
0
LINE
8
BLACK
6
CONTINUOUS
10
0.244449
20
1.91287
11
0.244729
21
1.913
0
LINE
8
BLACK
6
CONTINUOUS
10
0.244729
20
1.913
11
0.26599
21
1.9222
0
LINE
8
BLACK
6
CONTINUOUS
10
0.26599
20
1.9222
11
0.266278
21
1.92231
0
LINE
8
BLACK
6
CONTINUOUS
10
0.266278
20
1.92231
11
0.288075
21
1.93016
0
LINE
8
BLACK
6
CONTINUOUS
10
0.288075
20
1.93016
11
0.28837
21
1.93026
0
LINE
8
BLACK
6
CONTINUOUS
10
0.28837
20
1.93026
11
0.299964
21
1.93363
0
LINE
8
BLACK
6
CONTINUOUS
10
0.299964
20
1.93363
11
0.310615
21
1.93672
0
LINE
8
BLACK
6
CONTINUOUS
10
0.310615
20
1.93672
11
0.310917
21
1.9368
0
LINE
8
BLACK
6
CONTINUOUS
10
0.310917
20
1.9368
11
0.333524
21
1.94185
0
LINE
8
BLACK
6
CONTINUOUS
10
0.333524
20
1.94185
11
0.33383
21
1.94191
0
LINE
8
BLACK
6
CONTINUOUS
10
0.33383
20
1.94191
11
0.35671
21
1.94553
0
LINE
8
BLACK
6
CONTINUOUS
10
0.35671
20
1.94553
11
0.357019
21
1.94557
0
LINE
8
BLACK
6
CONTINUOUS
10
0.357019
20
1.94557
11
0.366865
21
1.9465
0
LINE
8
BLACK
6
CONTINUOUS
10
0.366865
20
1.9465
11
0.380081
21
1.94775
0
LINE
8
BLACK
6
CONTINUOUS
10
0.380081
20
1.94775
11
0.380392
21
1.94777
0
LINE
8
BLACK
6
CONTINUOUS
10
0.380392
20
1.94777
11
0.401942
21
1.94845
0
LINE
8
BLACK
6
CONTINUOUS
10
0.401942
20
1.94845
11
0.402861
21
1.94839
0
LINE
8
BLACK
6
CONTINUOUS
10
0.402861
20
1.94839
11
0.403008
21
1.94837
0
LINE
8
BLACK
6
CONTINUOUS
10
0.403008
20
1.94837
11
0.403454
21
1.9483
0
LINE
8
BLACK
6
CONTINUOUS
10
0.403454
20
1.9483
11
0.403804
21
1.94835
0
LINE
8
BLACK
6
CONTINUOUS
10
0.403804
20
1.94835
11
0.403805
21
1.94835
0
LINE
8
BLACK
6
CONTINUOUS
10
0.403805
20
1.94835
11
0.404695
21
1.94846
0
LINE
8
BLACK
6
CONTINUOUS
10
0.404695
20
1.94846
11
0.405338
21
1.9485
0
LINE
8
BLACK
6
CONTINUOUS
10
0.405338
20
1.9485
11
1.99436
21
1.9485
0
LINE
8
BLACK
6
CONTINUOUS
10
1.99436
20
1.9485
11
1.99512
21
1.94844
0
LINE
8
BLACK
6
CONTINUOUS
10
1.99512
20
1.94844
11
1.9957
21
1.94835
0
LINE
8
BLACK
6
CONTINUOUS
10
1.9957
20
1.94835
11
1.9957
21
1.94835
0
LINE
8
BLACK
6
CONTINUOUS
10
1.9957
20
1.94835
11
1.99605
21
1.9483
0
LINE
8
BLACK
6
CONTINUOUS
10
1.99605
20
1.9483
11
1.9964
21
1.94835
0
LINE
8
BLACK
6
CONTINUOUS
10
1.9964
20
1.94835
11
1.9964
21
1.94835
0
LINE
8
BLACK
6
CONTINUOUS
10
1.9964
20
1.94835
11
1.99677
21
1.94839
0
LINE
8
BLACK
6
CONTINUOUS
10
1.99677
20
1.94839
11
1.99696
21
1.94842
0
LINE
8
BLACK
6
CONTINUOUS
10
1.99696
20
1.94842
11
1.99776
21
1.94846
0
LINE
8
BLACK
6
CONTINUOUS
10
1.99776
20
1.94846
11
2.00106
21
1.94835
0
LINE
8
BLACK
6
CONTINUOUS
10
2.00106
20
1.94835
11
2.01961
21
1.94777
0
LINE
8
BLACK
6
CONTINUOUS
10
2.01961
20
1.94777
11
2.01992
21
1.94775
0
LINE
8
BLACK
6
CONTINUOUS
10
2.01992
20
1.94775
11
2.03313
21
1.9465
0
LINE
8
BLACK
6
CONTINUOUS
10
2.03313
20
1.9465
11
2.04298
21
1.94557
0
LINE
8
BLACK
6
CONTINUOUS
10
2.04298
20
1.94557
11
2.04329
21
1.94553
0
LINE
8
BLACK
6
CONTINUOUS
10
2.04329
20
1.94553
11
2.06617
21
1.94191
0
LINE
8
BLACK
6
CONTINUOUS
10
2.06617
20
1.94191
11
2.06648
21
1.94185
0
LINE
8
BLACK
6
CONTINUOUS
10
2.06648
20
1.94185
11
2.08908
21
1.9368
0
LINE
8
BLACK
6
CONTINUOUS
10
2.08908
20
1.9368
11
2.08938
21
1.93672
0
LINE
8
BLACK
6
CONTINUOUS
10
2.08938
20
1.93672
11
2.10004
21
1.93363
0
LINE
8
BLACK
6
CONTINUOUS
10
2.10004
20
1.93363
11
2.11163
21
1.93026
0
LINE
8
BLACK
6
CONTINUOUS
10
2.11163
20
1.93026
11
2.11193
21
1.93016
0
LINE
8
BLACK
6
CONTINUOUS
10
2.11193
20
1.93016
11
2.13372
21
1.92231
0
LINE
8
BLACK
6
CONTINUOUS
10
2.13372
20
1.92231
11
2.13401
21
1.9222
0
LINE
8
BLACK
6
CONTINUOUS
10
2.13401
20
1.9222
11
2.15527
21
1.913
0
LINE
8
BLACK
6
CONTINUOUS
10
2.15527
20
1.913
11
2.15555
21
1.91287
0
LINE
8
BLACK
6
CONTINUOUS
10
2.15555
20
1.91287
11
2.17273
21
1.90411
0
LINE
8
BLACK
6
CONTINUOUS
10
2.17273
20
1.90411
11
2.17619
21
1.90235
0
LINE
8
BLACK
6
CONTINUOUS
10
2.17619
20
1.90235
11
2.17647
21
1.9022
0
LINE
8
BLACK
6
CONTINUOUS
10
2.17647
20
1.9022
11
2.1964
21
1.89041
0
LINE
8
BLACK
6
CONTINUOUS
10
2.1964
20
1.89041
11
2.19667
21
1.89024
0
LINE
8
BLACK
6
CONTINUOUS
10
2.19667
20
1.89024
11
2.21583
21
1.87722
0
LINE
8
BLACK
6
CONTINUOUS
10
2.21583
20
1.87722
11
2.21608
21
1.87704
0
LINE
8
BLACK
6
CONTINUOUS
10
2.21608
20
1.87704
11
2.23438
21
1.86284
0
LINE
8
BLACK
6
CONTINUOUS
10
2.23438
20
1.86284
11
2.23462
21
1.86264
0
LINE
8
BLACK
6
CONTINUOUS
10
2.23462
20
1.86264
11
2.252
21
1.84732
0
LINE
8
BLACK
6
CONTINUOUS
10
2.252
20
1.84732
11
2.25223
21
1.84711
0
LINE
8
BLACK
6
CONTINUOUS
10
2.25223
20
1.84711
11
2.2686
21
1.83073
0
LINE
8
BLACK
6
CONTINUOUS
10
2.2686
20
1.83073
11
2.26882
21
1.8305
0
LINE
8
BLACK
6
CONTINUOUS
10
2.26882
20
1.8305
11
2.28414
21
1.81313
0
LINE
8
BLACK
6
CONTINUOUS
10
2.28414
20
1.81313
11
2.28434
21
1.81289
0
LINE
8
BLACK
6
CONTINUOUS
10
2.28434
20
1.81289
11
2.29853
21
1.79458
0
LINE
8
BLACK
6
CONTINUOUS
10
2.29853
20
1.79458
11
2.29872
21
1.79433
0
LINE
8
BLACK
6
CONTINUOUS
10
2.29872
20
1.79433
11
2.31174
21
1.77517
0
LINE
8
BLACK
6
CONTINUOUS
10
2.31174
20
1.77517
11
2.3119
21
1.77491
0
LINE
8
BLACK
6
CONTINUOUS
10
2.3119
20
1.77491
11
2.3237
21
1.75497
0
LINE
8
BLACK
6
CONTINUOUS
10
2.3237
20
1.75497
11
2.32385
21
1.7547
0
LINE
8
BLACK
6
CONTINUOUS
10
2.32385
20
1.7547
11
2.33436
21
1.73406
0
LINE
8
BLACK
6
CONTINUOUS
10
2.33436
20
1.73406
11
2.3345
21
1.73377
0
LINE
8
BLACK
6
CONTINUOUS
10
2.3345
20
1.73377
11
2.3437
21
1.71251
0
LINE
8
BLACK
6
CONTINUOUS
10
2.3437
20
1.71251
11
2.34381
21
1.71223
0
LINE
8
BLACK
6
CONTINUOUS
10
2.34381
20
1.71223
11
2.34895
21
1.69794
0
LINE
8
BLACK
6
CONTINUOUS
10
2.34895
20
1.69794
11
2.35166
21
1.69043
0
LINE
8
BLACK
6
CONTINUOUS
10
2.35166
20
1.69043
11
2.35175
21
1.69013
0
LINE
8
BLACK
6
CONTINUOUS
10
2.35175
20
1.69013
11
2.35822
21
1.66789
0
LINE
8
BLACK
6
CONTINUOUS
10
2.35822
20
1.66789
11
2.35829
21
1.66759
0
LINE
8
BLACK
6
CONTINUOUS
10
2.35829
20
1.66759
11
2.36335
21
1.64498
0
LINE
8
BLACK
6
CONTINUOUS
10
2.36335
20
1.64498
11
2.36341
21
1.64467
0
LINE
8
BLACK
6
CONTINUOUS
10
2.36341
20
1.64467
11
2.36703
21
1.62179
0
LINE
8
BLACK
6
CONTINUOUS
10
2.36703
20
1.62179
11
2.36707
21
1.62149
0
LINE
8
BLACK
6
CONTINUOUS
10
2.36707
20
1.62149
11
2.36925
21
1.59842
0
LINE
8
BLACK
6
CONTINUOUS
10
2.36925
20
1.59842
11
2.36927
21
1.59811
0
LINE
8
BLACK
6
CONTINUOUS
10
2.36927
20
1.59811
11
2.36994
21
1.57656
0
LINE
8
BLACK
6
CONTINUOUS
10
2.36994
20
1.57656
11
2.36989
21
1.57564
0
LINE
8
BLACK
6
CONTINUOUS
10
2.36989
20
1.57564
11
2.3698
21
1.57505
0
LINE
8
BLACK
6
CONTINUOUS
10
2.3698
20
1.57505
11
2.36984
21
1.5747
0
LINE
8
BLACK
6
CONTINUOUS
10
2.36984
20
1.5747
11
2.36984
21
1.5747
0
LINE
8
BLACK
6
CONTINUOUS
10
2.36984
20
1.5747
11
2.36996
21
1.57381
0
LINE
8
BLACK
6
CONTINUOUS
10
2.36996
20
1.57381
11
2.37
21
1.57317
0
LINE
8
BLACK
6
CONTINUOUS
10
2.37
20
1.57317
11
2.37
21
0.0349606
0
LINE
8
BLACK
6
CONTINUOUS
10
2.37
20
0.0349606
11
2.36921
21
0.0322787
0
LINE
8
BLACK
6
CONTINUOUS
10
2.36921
20
0.0322787
11
2.3671
21
0.0304483
0
LINE
8
BLACK
6
CONTINUOUS
10
2.3671
20
0.0304483
11
2.36504
21
0.03
0
LINE
8
BLACK
6
CONTINUOUS
10
2.36504
20
0.03
11
0.0349606
21
0.03
0
LINE
8
BLACK
6
CONTINUOUS
10
0.0349606
20
0.03
11
0.0322787
21
0.0307875
0
LINE
8
BLACK
6
CONTINUOUS
10
0.0322787
20
0.0307875
11
0.0304483
21
0.0328999
0
LINE
8
BLACK
6
CONTINUOUS
10
0.0304483
20
0.0328999
11
0.03
21
0.0349606
0
LINE
8
BLACK
6
CONTINUOUS
10
0.03
20
0.0349606
11
0.03
21
1.57286
0
LINE
8
BLACK
6
CONTINUOUS
10
0.03
20
1.57286
11
0.0300591
21
1.57362
0
LINE
8
BLACK
6
CONTINUOUS
10
1.00226
20
0.137453
11
1.0057
21
0.132864
0
LINE
8
BLACK
6
CONTINUOUS
10
1.0057
20
0.132864
11
1.01029
21
0.129425
0
LINE
8
BLACK
6
CONTINUOUS
10
1.01029
20
0.129425
11
1.01566
21
0.127412
0
LINE
8
BLACK
6
CONTINUOUS
10
1.01566
20
0.127412
11
1.0181
21
0.127146
0
LINE
8
BLACK
6
CONTINUOUS
10
1.0181
20
0.127146
11
1.0819
21
0.127146
0
LINE
8
BLACK
6
CONTINUOUS
10
1.0819
20
0.127146
11
1.08434
21
0.127412
0
LINE
8
BLACK
6
CONTINUOUS
10
1.08434
20
0.127412
11
1.08971
21
0.129425
0
LINE
8
BLACK
6
CONTINUOUS
10
1.08971
20
0.129425
11
1.0943
21
0.132864
0
LINE
8
BLACK
6
CONTINUOUS
10
1.0943
20
0.132864
11
1.09603
21
0.135171
0
LINE
8
BLACK
6
CONTINUOUS
10
1.09603
20
0.135171
11
1.09827
21
0.136844
0
LINE
8
BLACK
6
CONTINUOUS
10
1.09827
20
0.136844
11
1.10106
21
0.137042
0
LINE
8
BLACK
6
CONTINUOUS
10
1.10106
20
0.137042
11
1.10351
21
0.135701
0
LINE
8
BLACK
6
CONTINUOUS
10
1.10351
20
0.135701
11
1.10397
21
0.135171
0
LINE
8
BLACK
6
CONTINUOUS
10
1.10397
20
0.135171
11
1.1057
21
0.132864
0
LINE
8
BLACK
6
CONTINUOUS
10
1.1057
20
0.132864
11
1.11029
21
0.129425
0
LINE
8
BLACK
6
CONTINUOUS
10
1.11029
20
0.129425
11
1.11566
21
0.127412
0
LINE
8
BLACK
6
CONTINUOUS
10
1.11566
20
0.127412
11
1.1181
21
0.127146
0
LINE
8
BLACK
6
CONTINUOUS
10
1.1181
20
0.127146
11
1.1819
21
0.127146
0
LINE
8
BLACK
6
CONTINUOUS
10
1.1819
20
0.127146
11
1.18434
21
0.127412
0
LINE
8
BLACK
6
CONTINUOUS
10
1.18434
20
0.127412
11
1.18971
21
0.129425
0
LINE
8
BLACK
6
CONTINUOUS
10
1.18971
20
0.129425
11
1.1943
21
0.132864
0
LINE
8
BLACK
6
CONTINUOUS
10
1.1943
20
0.132864
11
1.19603
21
0.135171
0
LINE
8
BLACK
6
CONTINUOUS
10
1.19603
20
0.135171
11
1.19827
21
0.136844
0
LINE
8
BLACK
6
CONTINUOUS
10
1.19827
20
0.136844
11
1.20106
21
0.137042
0
LINE
8
BLACK
6
CONTINUOUS
10
1.20106
20
0.137042
11
1.20351
21
0.135701
0
LINE
8
BLACK
6
CONTINUOUS
10
1.20351
20
0.135701
11
1.20397
21
0.135171
0
LINE
8
BLACK
6
CONTINUOUS
10
1.20397
20
0.135171
11
1.2057
21
0.132864
0
LINE
8
BLACK
6
CONTINUOUS
10
1.2057
20
0.132864
11
1.21029
21
0.129425
0
LINE
8
BLACK
6
CONTINUOUS
10
1.21029
20
0.129425
11
1.21566
21
0.127412
0
LINE
8
BLACK
6
CONTINUOUS
10
1.21566
20
0.127412
11
1.2181
21
0.127146
0
LINE
8
BLACK
6
CONTINUOUS
10
1.2181
20
0.127146
11
1.2819
21
0.127146
0
LINE
8
BLACK
6
CONTINUOUS
10
1.2819
20
0.127146
11
1.28434
21
0.127412
0
LINE
8
BLACK
6
CONTINUOUS
10
1.28434
20
0.127412
11
1.28971
21
0.129425
0
LINE
8
BLACK
6
CONTINUOUS
10
1.28971
20
0.129425
11
1.2943
21
0.132864
0
LINE
8
BLACK
6
CONTINUOUS
10
1.2943
20
0.132864
11
1.29603
21
0.135171
0
LINE
8
BLACK
6
CONTINUOUS
10
1.29603
20
0.135171
11
1.29827
21
0.136844
0
LINE
8
BLACK
6
CONTINUOUS
10
1.29827
20
0.136844
11
1.30106
21
0.137042
0
LINE
8
BLACK
6
CONTINUOUS
10
1.30106
20
0.137042
11
1.30351
21
0.135701
0
LINE
8
BLACK
6
CONTINUOUS
10
1.30351
20
0.135701
11
1.30397
21
0.135171
0
LINE
8
BLACK
6
CONTINUOUS
10
1.30397
20
0.135171
11
1.3057
21
0.132864
0
LINE
8
BLACK
6
CONTINUOUS
10
1.3057
20
0.132864
11
1.31029
21
0.129425
0
LINE
8
BLACK
6
CONTINUOUS
10
1.31029
20
0.129425
11
1.31566
21
0.127412
0
LINE
8
BLACK
6
CONTINUOUS
10
1.31566
20
0.127412
11
1.3181
21
0.127146
0
LINE
8
BLACK
6
CONTINUOUS
10
1.3181
20
0.127146
11
1.3819
21
0.127146
0
LINE
8
BLACK
6
CONTINUOUS
10
1.3819
20
0.127146
11
1.38434
21
0.127412
0
LINE
8
BLACK
6
CONTINUOUS
10
1.38434
20
0.127412
11
1.38971
21
0.129425
0
LINE
8
BLACK
6
CONTINUOUS
10
1.38971
20
0.129425
11
1.3943
21
0.132864
0
LINE
8
BLACK
6
CONTINUOUS
10
1.3943
20
0.132864
11
1.39774
21
0.137453
0
LINE
8
BLACK
6
CONTINUOUS
10
1.39774
20
0.137453
11
1.39975
21
0.142822
0
LINE
8
BLACK
6
CONTINUOUS
10
1.39975
20
0.142822
11
1.40002
21
0.14527
0
LINE
8
BLACK
6
CONTINUOUS
10
1.40002
20
0.14527
11
1.40002
21
0.20906
0
LINE
8
BLACK
6
CONTINUOUS
10
1.40002
20
0.20906
11
1.39975
21
0.211509
0
LINE
8
BLACK
6
CONTINUOUS
10
1.39975
20
0.211509
11
1.39774
21
0.216878
0
LINE
8
BLACK
6
CONTINUOUS
10
1.39774
20
0.216878
11
1.3943
21
0.221467
0
LINE
8
BLACK
6
CONTINUOUS
10
1.3943
20
0.221467
11
1.38971
21
0.224906
0
LINE
8
BLACK
6
CONTINUOUS
10
1.38971
20
0.224906
11
1.38434
21
0.226919
0
LINE
8
BLACK
6
CONTINUOUS
10
1.38434
20
0.226919
11
1.3819
21
0.227185
0
LINE
8
BLACK
6
CONTINUOUS
10
1.3819
20
0.227185
11
1.3181
21
0.227185
0
LINE
8
BLACK
6
CONTINUOUS
10
1.3181
20
0.227185
11
1.31566
21
0.226919
0
LINE
8
BLACK
6
CONTINUOUS
10
1.31566
20
0.226919
11
1.31029
21
0.224906
0
LINE
8
BLACK
6
CONTINUOUS
10
1.31029
20
0.224906
11
1.3057
21
0.221467
0
LINE
8
BLACK
6
CONTINUOUS
10
1.3057
20
0.221467
11
1.30549
21
0.221184
0
LINE
8
BLACK
6
CONTINUOUS
10
1.30549
20
0.221184
11
1.30397
21
0.21916
0
LINE
8
BLACK
6
CONTINUOUS
10
1.30397
20
0.21916
11
1.30173
21
0.217486
0
LINE
8
BLACK
6
CONTINUOUS
10
1.30173
20
0.217486
11
1.29894
21
0.217288
0
LINE
8
BLACK
6
CONTINUOUS
10
1.29894
20
0.217288
11
1.29649
21
0.218629
0
LINE
8
BLACK
6
CONTINUOUS
10
1.29649
20
0.218629
11
1.29603
21
0.21916
0
LINE
8
BLACK
6
CONTINUOUS
10
1.29603
20
0.21916
11
1.29451
21
0.221184
0
LINE
8
BLACK
6
CONTINUOUS
10
1.29451
20
0.221184
11
1.2943
21
0.221467
0
LINE
8
BLACK
6
CONTINUOUS
10
1.2943
20
0.221467
11
1.28971
21
0.224906
0
LINE
8
BLACK
6
CONTINUOUS
10
1.28971
20
0.224906
11
1.28434
21
0.226919
0
LINE
8
BLACK
6
CONTINUOUS
10
1.28434
20
0.226919
11
1.2819
21
0.227185
0
LINE
8
BLACK
6
CONTINUOUS
10
1.2819
20
0.227185
11
1.2181
21
0.227185
0
LINE
8
BLACK
6
CONTINUOUS
10
1.2181
20
0.227185
11
1.21566
21
0.226919
0
LINE
8
BLACK
6
CONTINUOUS
10
1.21566
20
0.226919
11
1.21029
21
0.224906
0
LINE
8
BLACK
6
CONTINUOUS
10
1.21029
20
0.224906
11
1.2057
21
0.221467
0
LINE
8
BLACK
6
CONTINUOUS
10
1.2057
20
0.221467
11
1.20549
21
0.221184
0
LINE
8
BLACK
6
CONTINUOUS
10
1.20549
20
0.221184
11
1.20397
21
0.21916
0
LINE
8
BLACK
6
CONTINUOUS
10
1.20397
20
0.21916
11
1.20173
21
0.217486
0
LINE
8
BLACK
6
CONTINUOUS
10
1.20173
20
0.217486
11
1.19894
21
0.217288
0
LINE
8
BLACK
6
CONTINUOUS
10
1.19894
20
0.217288
11
1.19649
21
0.218629
0
LINE
8
BLACK
6
CONTINUOUS
10
1.19649
20
0.218629
11
1.19603
21
0.21916
0
LINE
8
BLACK
6
CONTINUOUS
10
1.19603
20
0.21916
11
1.19451
21
0.221184
0
LINE
8
BLACK
6
CONTINUOUS
10
1.19451
20
0.221184
11
1.1943
21
0.221467
0
LINE
8
BLACK
6
CONTINUOUS
10
1.1943
20
0.221467
11
1.18971
21
0.224906
0
LINE
8
BLACK
6
CONTINUOUS
10
1.18971
20
0.224906
11
1.18434
21
0.226919
0
LINE
8
BLACK
6
CONTINUOUS
10
1.18434
20
0.226919
11
1.1819
21
0.227185
0
LINE
8
BLACK
6
CONTINUOUS
10
1.1819
20
0.227185
11
1.1181
21
0.227185
0
LINE
8
BLACK
6
CONTINUOUS
10
1.1181
20
0.227185
11
1.11566
21
0.226919
0
LINE
8
BLACK
6
CONTINUOUS
10
1.11566
20
0.226919
11
1.11029
21
0.224906
0
LINE
8
BLACK
6
CONTINUOUS
10
1.11029
20
0.224906
11
1.1057
21
0.221467
0
LINE
8
BLACK
6
CONTINUOUS
10
1.1057
20
0.221467
11
1.10549
21
0.221184
0
LINE
8
BLACK
6
CONTINUOUS
10
1.10549
20
0.221184
11
1.10397
21
0.21916
0
LINE
8
BLACK
6
CONTINUOUS
10
1.10397
20
0.21916
11
1.10173
21
0.217486
0
LINE
8
BLACK
6
CONTINUOUS
10
1.10173
20
0.217486
11
1.09894
21
0.217288
0
LINE
8
BLACK
6
CONTINUOUS
10
1.09894
20
0.217288
11
1.09649
21
0.218629
0
LINE
8
BLACK
6
CONTINUOUS
10
1.09649
20
0.218629
11
1.09603
21
0.21916
0
LINE
8
BLACK
6
CONTINUOUS
10
1.09603
20
0.21916
11
1.09451
21
0.221184
0
LINE
8
BLACK
6
CONTINUOUS
10
1.09451
20
0.221184
11
1.0943
21
0.221467
0
LINE
8
BLACK
6
CONTINUOUS
10
1.0943
20
0.221467
11
1.08971
21
0.224906
0
LINE
8
BLACK
6
CONTINUOUS
10
1.08971
20
0.224906
11
1.08434
21
0.226919
0
LINE
8
BLACK
6
CONTINUOUS
10
1.08434
20
0.226919
11
1.0819
21
0.227185
0
LINE
8
BLACK
6
CONTINUOUS
10
1.0819
20
0.227185
11
1.0181
21
0.227185
0
LINE
8
BLACK
6
CONTINUOUS
10
1.0181
20
0.227185
11
1.01566
21
0.226919
0
LINE
8
BLACK
6
CONTINUOUS
10
1.01566
20
0.226919
11
1.01029
21
0.224906
0
LINE
8
BLACK
6
CONTINUOUS
10
1.01029
20
0.224906
11
1.0057
21
0.221467
0
LINE
8
BLACK
6
CONTINUOUS
10
1.0057
20
0.221467
11
1.00226
21
0.216878
0
LINE
8
BLACK
6
CONTINUOUS
10
1.00226
20
0.216878
11
1.00025
21
0.211509
0
LINE
8
BLACK
6
CONTINUOUS
10
1.00025
20
0.211509
11
0.99998
21
0.20906
0
LINE
8
BLACK
6
CONTINUOUS
10
0.99998
20
0.20906
11
0.99998
21
0.14527
0
LINE
8
BLACK
6
CONTINUOUS
10
0.99998
20
0.14527
11
1.00025
21
0.142822
0
LINE
8
BLACK
6
CONTINUOUS
10
1.00025
20
0.142822
11
1.00226
21
0.137453
0
LINE
8
BLACK
6
CONTINUOUS
10
1.01272
20
0.371643
11
1.0129
21
0.369569
0
LINE
8
BLACK
6
CONTINUOUS
10
1.0129
20
0.369569
11
1.01493
21
0.362492
0
LINE
8
BLACK
6
CONTINUOUS
10
1.01493
20
0.362492
11
1.01829
21
0.355944
0
LINE
8
BLACK
6
CONTINUOUS
10
1.01829
20
0.355944
11
1.02287
21
0.350175
0
LINE
8
BLACK
6
CONTINUOUS
10
1.02287
20
0.350175
11
1.02305
21
0.350018
0
LINE
8
BLACK
6
CONTINUOUS
10
1.02305
20
0.350018
11
1.02305
21
0.350018
0
LINE
8
BLACK
6
CONTINUOUS
10
1.02305
20
0.350018
11
1.02719
21
0.346495
0
LINE
8
BLACK
6
CONTINUOUS
10
1.02719
20
0.346495
11
1.02847
21
0.345403
0
LINE
8
BLACK
6
CONTINUOUS
10
1.02847
20
0.345403
11
1.02868
21
0.345285
0
LINE
8
BLACK
6
CONTINUOUS
10
1.02868
20
0.345285
11
1.02868
21
0.345285
0
LINE
8
BLACK
6
CONTINUOUS
10
1.02868
20
0.345285
11
1.03004
21
0.344529
0
LINE
8
BLACK
6
CONTINUOUS
10
1.03004
20
0.344529
11
1.0349
21
0.341812
0
LINE
8
BLACK
6
CONTINUOUS
10
1.0349
20
0.341812
11
1.0419
21
0.339537
0
LINE
8
BLACK
6
CONTINUOUS
10
1.0419
20
0.339537
11
1.04921
21
0.338665
0
LINE
8
BLACK
6
CONTINUOUS
10
1.04921
20
0.338665
11
1.04945
21
0.338684
0
LINE
8
BLACK
6
CONTINUOUS
10
1.04945
20
0.338684
11
1.04945
21
0.338684
0
LINE
8
BLACK
6
CONTINUOUS
10
1.04945
20
0.338684
11
1.05631
21
0.339211
0
LINE
8
BLACK
6
CONTINUOUS
10
1.05631
20
0.339211
11
1.05631
21
0.339211
0
LINE
8
BLACK
6
CONTINUOUS
10
1.05631
20
0.339211
11
1.05655
21
0.33923
0
LINE
8
BLACK
6
CONTINUOUS
10
1.05655
20
0.33923
11
1.06364
21
0.34121
0
LINE
8
BLACK
6
CONTINUOUS
10
1.06364
20
0.34121
11
1.07021
21
0.344529
0
LINE
8
BLACK
6
CONTINUOUS
10
1.07021
20
0.344529
11
1.0704
21
0.344678
0
LINE
8
BLACK
6
CONTINUOUS
10
1.0704
20
0.344678
11
1.0704
21
0.344678
0
LINE
8
BLACK
6
CONTINUOUS
10
1.0704
20
0.344678
11
1.07141
21
0.345464
0
LINE
8
BLACK
6
CONTINUOUS
10
1.07141
20
0.345464
11
1.07401
21
0.346495
0
LINE
8
BLACK
6
CONTINUOUS
10
1.07401
20
0.346495
11
1.07446
21
0.346516
0
LINE
8
BLACK
6
CONTINUOUS
10
1.07446
20
0.346516
11
1.48167
21
0.346516
0
LINE
8
BLACK
6
CONTINUOUS
10
1.48167
20
0.346516
11
1.48409
21
0.345885
0
LINE
8
BLACK
6
CONTINUOUS
10
1.48409
20
0.345885
11
1.4849
21
0.345434
0
LINE
8
BLACK
6
CONTINUOUS
10
1.4849
20
0.345434
11
1.4919
21
0.343159
0
LINE
8
BLACK
6
CONTINUOUS
10
1.4919
20
0.343159
11
1.49921
21
0.342287
0
LINE
8
BLACK
6
CONTINUOUS
10
1.49921
20
0.342287
11
1.49945
21
0.342306
0
LINE
8
BLACK
6
CONTINUOUS
10
1.49945
20
0.342306
11
1.49945
21
0.342306
0
LINE
8
BLACK
6
CONTINUOUS
10
1.49945
20
0.342306
11
1.50631
21
0.342833
0
LINE
8
BLACK
6
CONTINUOUS
10
1.50631
20
0.342833
11
1.50631
21
0.342833
0
LINE
8
BLACK
6
CONTINUOUS
10
1.50631
20
0.342833
11
1.50655
21
0.342852
0
LINE
8
BLACK
6
CONTINUOUS
10
1.50655
20
0.342852
11
1.51364
21
0.344832
0
LINE
8
BLACK
6
CONTINUOUS
10
1.51364
20
0.344832
11
1.52021
21
0.348151
0
LINE
8
BLACK
6
CONTINUOUS
10
1.52021
20
0.348151
11
1.52601
21
0.352684
0
LINE
8
BLACK
6
CONTINUOUS
10
1.52601
20
0.352684
11
1.52866
21
0.355754
0
LINE
8
BLACK
6
CONTINUOUS
10
1.52866
20
0.355754
11
1.53066
21
0.358073
0
LINE
8
BLACK
6
CONTINUOUS
10
1.53066
20
0.358073
11
1.53066
21
0.358073
0
LINE
8
BLACK
6
CONTINUOUS
10
1.53066
20
0.358073
11
1.53082
21
0.358256
0
LINE
8
BLACK
6
CONTINUOUS
10
1.53082
20
0.358256
11
1.53446
21
0.364657
0
LINE
8
BLACK
6
CONTINUOUS
10
1.53446
20
0.364657
11
1.53678
21
0.371643
0
LINE
8
BLACK
6
CONTINUOUS
10
1.53678
20
0.371643
11
1.53771
21
0.378947
0
LINE
8
BLACK
6
CONTINUOUS
10
1.53771
20
0.378947
11
1.53772
21
0.38
0
LINE
8
BLACK
6
CONTINUOUS
10
1.53772
20
0.38
11
1.537
21
0.387327
0
LINE
8
BLACK
6
CONTINUOUS
10
1.537
20
0.387327
11
1.53589
21
0.391006
0
LINE
8
BLACK
6
CONTINUOUS
10
1.53589
20
0.391006
11
1.53494
21
0.394142
0
LINE
8
BLACK
6
CONTINUOUS
10
1.53494
20
0.394142
11
1.53494
21
0.394142
0
LINE
8
BLACK
6
CONTINUOUS
10
1.53494
20
0.394142
11
1.53487
21
0.394374
0
LINE
8
BLACK
6
CONTINUOUS
10
1.53487
20
0.394374
11
1.53142
21
0.400874
0
LINE
8
BLACK
6
CONTINUOUS
10
1.53142
20
0.400874
11
1.52816
21
0.404869
0
LINE
8
BLACK
6
CONTINUOUS
10
1.52816
20
0.404869
11
1.52692
21
0.406392
0
LINE
8
BLACK
6
CONTINUOUS
10
1.52692
20
0.406392
11
1.52692
21
0.406392
0
LINE
8
BLACK
6
CONTINUOUS
10
1.52692
20
0.406392
11
1.52677
21
0.40658
0
LINE
8
BLACK
6
CONTINUOUS
10
1.52677
20
0.40658
11
1.52444
21
0.408503
0
LINE
8
BLACK
6
CONTINUOUS
10
1.52444
20
0.408503
11
1.52128
21
0.411118
0
LINE
8
BLACK
6
CONTINUOUS
10
1.52128
20
0.411118
11
1.52128
21
0.411118
0
LINE
8
BLACK
6
CONTINUOUS
10
1.52128
20
0.411118
11
1.52109
21
0.411272
0
LINE
8
BLACK
6
CONTINUOUS
10
1.52109
20
0.411272
11
1.52088
21
0.411387
0
LINE
8
BLACK
6
CONTINUOUS
10
1.52088
20
0.411387
11
1.52088
21
0.411388
0
LINE
8
BLACK
6
CONTINUOUS
10
1.52088
20
0.411388
11
1.51587
21
0.414098
0
LINE
8
BLACK
6
CONTINUOUS
10
1.51587
20
0.414098
11
1.51462
21
0.414774
0
LINE
8
BLACK
6
CONTINUOUS
10
1.51462
20
0.414774
11
1.50758
21
0.416951
0
LINE
8
BLACK
6
CONTINUOUS
10
1.50758
20
0.416951
11
1.50734
21
0.416976
0
LINE
8
BLACK
6
CONTINUOUS
10
1.50734
20
0.416976
11
1.50734
21
0.416976
0
LINE
8
BLACK
6
CONTINUOUS
10
1.50734
20
0.416976
11
1.5005
21
0.417695
0
LINE
8
BLACK
6
CONTINUOUS
10
1.5005
20
0.417695
11
1.5005
21
0.417695
0
LINE
8
BLACK
6
CONTINUOUS
10
1.5005
20
0.417695
11
1.50026
21
0.41772
0
LINE
8
BLACK
6
CONTINUOUS
10
1.50026
20
0.41772
11
1.49723
21
0.417444
0
LINE
8
BLACK
6
CONTINUOUS
10
1.49723
20
0.417444
11
1.49317
21
0.417075
0
LINE
8
BLACK
6
CONTINUOUS
10
1.49317
20
0.417075
11
1.49317
21
0.417075
0
LINE
8
BLACK
6
CONTINUOUS
10
1.49317
20
0.417075
11
1.49293
21
0.417053
0
LINE
8
BLACK
6
CONTINUOUS
10
1.49293
20
0.417053
11
1.4927
21
0.416984
0
LINE
8
BLACK
6
CONTINUOUS
10
1.4927
20
0.416984
11
1.4927
21
0.416984
0
LINE
8
BLACK
6
CONTINUOUS
10
1.4927
20
0.416984
11
1.48747
21
0.415444
0
LINE
8
BLACK
6
CONTINUOUS
10
1.48747
20
0.415444
11
1.48587
21
0.414974
0
LINE
8
BLACK
6
CONTINUOUS
10
1.48587
20
0.414974
11
1.47935
21
0.411564
0
LINE
8
BLACK
6
CONTINUOUS
10
1.47935
20
0.411564
11
1.47916
21
0.411412
0
LINE
8
BLACK
6
CONTINUOUS
10
1.47916
20
0.411412
11
1.47409
21
0.407335
0
LINE
8
BLACK
6
CONTINUOUS
10
1.47409
20
0.407335
11
1.4715
21
0.406268
0
LINE
8
BLACK
6
CONTINUOUS
10
1.4715
20
0.406268
11
1.47098
21
0.40624
0
LINE
8
BLACK
6
CONTINUOUS
10
1.47098
20
0.40624
11
1.07458
21
0.40624
0
LINE
8
BLACK
6
CONTINUOUS
10
1.07458
20
0.40624
11
1.0719
21
0.407028
0
LINE
8
BLACK
6
CONTINUOUS
10
1.0719
20
0.407028
11
1.07142
21
0.407379
0
LINE
8
BLACK
6
CONTINUOUS
10
1.07142
20
0.407379
11
1.07128
21
0.407495
0
LINE
8
BLACK
6
CONTINUOUS
10
1.07128
20
0.407495
11
1.07109
21
0.40765
0
LINE
8
BLACK
6
CONTINUOUS
10
1.07109
20
0.40765
11
1.07088
21
0.407765
0
LINE
8
BLACK
6
CONTINUOUS
10
1.07088
20
0.407765
11
1.07088
21
0.407766
0
LINE
8
BLACK
6
CONTINUOUS
10
1.07088
20
0.407766
11
1.06786
21
0.409401
0
LINE
8
BLACK
6
CONTINUOUS
10
1.06786
20
0.409401
11
1.06462
21
0.411152
0
LINE
8
BLACK
6
CONTINUOUS
10
1.06462
20
0.411152
11
1.05758
21
0.413329
0
LINE
8
BLACK
6
CONTINUOUS
10
1.05758
20
0.413329
11
1.05734
21
0.413354
0
LINE
8
BLACK
6
CONTINUOUS
10
1.05734
20
0.413354
11
1.05734
21
0.413354
0
LINE
8
BLACK
6
CONTINUOUS
10
1.05734
20
0.413354
11
1.0505
21
0.414073
0
LINE
8
BLACK
6
CONTINUOUS
10
1.0505
20
0.414073
11
1.0505
21
0.414073
0
LINE
8
BLACK
6
CONTINUOUS
10
1.0505
20
0.414073
11
1.05026
21
0.414098
0
LINE
8
BLACK
6
CONTINUOUS
10
1.05026
20
0.414098
11
1.04723
21
0.413822
0
LINE
8
BLACK
6
CONTINUOUS
10
1.04723
20
0.413822
11
1.04317
21
0.413453
0
LINE
8
BLACK
6
CONTINUOUS
10
1.04317
20
0.413453
11
1.04317
21
0.413453
0
LINE
8
BLACK
6
CONTINUOUS
10
1.04317
20
0.413453
11
1.04293
21
0.413431
0
LINE
8
BLACK
6
CONTINUOUS
10
1.04293
20
0.413431
11
1.0427
21
0.413362
0
LINE
8
BLACK
6
CONTINUOUS
10
1.0427
20
0.413362
11
1.0427
21
0.413362
0
LINE
8
BLACK
6
CONTINUOUS
10
1.0427
20
0.413362
11
1.03747
21
0.411822
0
LINE
8
BLACK
6
CONTINUOUS
10
1.03747
20
0.411822
11
1.03587
21
0.411352
0
LINE
8
BLACK
6
CONTINUOUS
10
1.03587
20
0.411352
11
1.02935
21
0.407942
0
LINE
8
BLACK
6
CONTINUOUS
10
1.02935
20
0.407942
11
1.02361
21
0.403329
0
LINE
8
BLACK
6
CONTINUOUS
10
1.02361
20
0.403329
11
1.01888
21
0.397689
0
LINE
8
BLACK
6
CONTINUOUS
10
1.01888
20
0.397689
11
1.01876
21
0.397476
0
LINE
8
BLACK
6
CONTINUOUS
10
1.01876
20
0.397476
11
1.01717
21
0.394589
0
LINE
8
BLACK
6
CONTINUOUS
10
1.01717
20
0.394589
11
1.01533
21
0.391238
0
LINE
8
BLACK
6
CONTINUOUS
10
1.01533
20
0.391238
11
1.0131
21
0.384221
0
LINE
8
BLACK
6
CONTINUOUS
10
1.0131
20
0.384221
11
1.01228
21
0.376905
0
LINE
8
BLACK
6
CONTINUOUS
10
1.01228
20
0.376905
11
1.0123
21
0.376663
0
LINE
8
BLACK
6
CONTINUOUS
10
1.0123
20
0.376663
11
1.01272
21
0.371643
0
LINE
8
BLACK
6
CONTINUOUS
10
1.73539
20
0.51347
11
1.73546
21
0.513297
0
LINE
8
BLACK
6
CONTINUOUS
10
1.73546
20
0.513297
11
1.73546
21
0.513297
0
LINE
8
BLACK
6
CONTINUOUS
10
1.73546
20
0.513297
11
1.73721
21
0.508426
0
LINE
8
BLACK
6
CONTINUOUS
10
1.73721
20
0.508426
11
1.73877
21
0.504061
0
LINE
8
BLACK
6
CONTINUOUS
10
1.73877
20
0.504061
11
1.7435
21
0.495254
0
LINE
8
BLACK
6
CONTINUOUS
10
1.7435
20
0.495254
11
1.74361
21
0.495107
0
LINE
8
BLACK
6
CONTINUOUS
10
1.74361
20
0.495107
11
1.74362
21
0.495106
0
LINE
8
BLACK
6
CONTINUOUS
10
1.74362
20
0.495106
11
1.74938
21
0.48739
0
LINE
8
BLACK
6
CONTINUOUS
10
1.74938
20
0.48739
11
1.74938
21
0.48739
0
LINE
8
BLACK
6
CONTINUOUS
10
1.74938
20
0.48739
11
1.74949
21
0.487243
0
LINE
8
BLACK
6
CONTINUOUS
10
1.74949
20
0.487243
11
1.74962
21
0.487114
0
LINE
8
BLACK
6
CONTINUOUS
10
1.74962
20
0.487114
11
1.74962
21
0.487114
0
LINE
8
BLACK
6
CONTINUOUS
10
1.74962
20
0.487114
11
1.75646
21
0.480334
0
LINE
8
BLACK
6
CONTINUOUS
10
1.75646
20
0.480334
11
1.75659
21
0.480205
0
LINE
8
BLACK
6
CONTINUOUS
10
1.75659
20
0.480205
11
1.75673
21
0.480096
0
LINE
8
BLACK
6
CONTINUOUS
10
1.75673
20
0.480096
11
1.75674
21
0.480096
0
LINE
8
BLACK
6
CONTINUOUS
10
1.75674
20
0.480096
11
1.7609
21
0.477045
0
LINE
8
BLACK
6
CONTINUOUS
10
1.7609
20
0.477045
11
1.76465
21
0.474293
0
LINE
8
BLACK
6
CONTINUOUS
10
1.76465
20
0.474293
11
1.76481
21
0.474208
0
LINE
8
BLACK
6
CONTINUOUS
10
1.76481
20
0.474208
11
1.76481
21
0.474207
0
LINE
8
BLACK
6
CONTINUOUS
10
1.76481
20
0.474207
11
1.76946
21
0.471762
0
LINE
8
BLACK
6
CONTINUOUS
10
1.76946
20
0.471762
11
1.7735
21
0.469638
0
LINE
8
BLACK
6
CONTINUOUS
10
1.7735
20
0.469638
11
1.78294
21
0.466342
0
LINE
8
BLACK
6
CONTINUOUS
10
1.78294
20
0.466342
11
1.79276
21
0.464477
0
LINE
8
BLACK
6
CONTINUOUS
10
1.79276
20
0.464477
11
1.7975
21
0.464291
0
LINE
8
BLACK
6
CONTINUOUS
10
1.7975
20
0.464291
11
1.80256
21
0.464092
0
LINE
8
BLACK
6
CONTINUOUS
10
1.80256
20
0.464092
11
1.80256
21
0.464092
0
LINE
8
BLACK
6
CONTINUOUS
10
1.80256
20
0.464092
11
1.80275
21
0.464085
0
LINE
8
BLACK
6
CONTINUOUS
10
1.80275
20
0.464085
11
1.80664
21
0.464512
0
LINE
8
BLACK
6
CONTINUOUS
10
1.80664
20
0.464512
11
1.8125
21
0.465153
0
LINE
8
BLACK
6
CONTINUOUS
10
1.8125
20
0.465153
11
1.8125
21
0.465153
0
LINE
8
BLACK
6
CONTINUOUS
10
1.8125
20
0.465153
11
1.81269
21
0.465173
0
LINE
8
BLACK
6
CONTINUOUS
10
1.81269
20
0.465173
11
1.817
21
0.466308
0
LINE
8
BLACK
6
CONTINUOUS
10
1.817
20
0.466308
11
1.82218
21
0.467672
0
LINE
8
BLACK
6
CONTINUOUS
10
1.82218
20
0.467672
11
1.82235
21
0.467719
0
LINE
8
BLACK
6
CONTINUOUS
10
1.82235
20
0.467719
11
1.82821
21
0.470233
0
LINE
8
BLACK
6
CONTINUOUS
10
1.82821
20
0.470233
11
1.83137
21
0.471592
0
LINE
8
BLACK
6
CONTINUOUS
10
1.83137
20
0.471592
11
1.83137
21
0.471592
0
LINE
8
BLACK
6
CONTINUOUS
10
1.83137
20
0.471592
11
1.83154
21
0.471665
0
LINE
8
BLACK
6
CONTINUOUS
10
1.83154
20
0.471665
11
1.8317
21
0.471762
0
LINE
8
BLACK
6
CONTINUOUS
10
1.8317
20
0.471762
11
1.8317
21
0.471762
0
LINE
8
BLACK
6
CONTINUOUS
10
1.8317
20
0.471762
11
1.83988
21
0.476829
0
LINE
8
BLACK
6
CONTINUOUS
10
1.83988
20
0.476829
11
1.83988
21
0.476829
0
LINE
8
BLACK
6
CONTINUOUS
10
1.83988
20
0.476829
11
1.84004
21
0.476926
0
LINE
8
BLACK
6
CONTINUOUS
10
1.84004
20
0.476926
11
1.84393
21
0.480218
0
LINE
8
BLACK
6
CONTINUOUS
10
1.84393
20
0.480218
11
1.84753
21
0.483266
0
LINE
8
BLACK
6
CONTINUOUS
10
1.84753
20
0.483266
11
1.84753
21
0.483267
0
LINE
8
BLACK
6
CONTINUOUS
10
1.84753
20
0.483267
11
1.84767
21
0.483386
0
LINE
8
BLACK
6
CONTINUOUS
10
1.84767
20
0.483386
11
1.85426
21
0.490902
0
LINE
8
BLACK
6
CONTINUOUS
10
1.85426
20
0.490902
11
1.85967
21
0.499311
0
LINE
8
BLACK
6
CONTINUOUS
10
1.85967
20
0.499311
11
1.86378
21
0.508426
0
LINE
8
BLACK
6
CONTINUOUS
10
1.86378
20
0.508426
11
1.86649
21
0.518048
0
LINE
8
BLACK
6
CONTINUOUS
10
1.86649
20
0.518048
11
1.86775
21
0.527966
0
LINE
8
BLACK
6
CONTINUOUS
10
1.86775
20
0.527966
11
1.86785
21
0.531496
0
LINE
8
BLACK
6
CONTINUOUS
10
1.86785
20
0.531496
11
1.86711
21
0.541466
0
LINE
8
BLACK
6
CONTINUOUS
10
1.86711
20
0.541466
11
1.8649
21
0.551217
0
LINE
8
BLACK
6
CONTINUOUS
10
1.8649
20
0.551217
11
1.86128
21
0.560535
0
LINE
8
BLACK
6
CONTINUOUS
10
1.86128
20
0.560535
11
1.86047
21
0.561949
0
LINE
8
BLACK
6
CONTINUOUS
10
1.86047
20
0.561949
11
1.85641
21
0.569055
0
LINE
8
BLACK
6
CONTINUOUS
10
1.85641
20
0.569055
11
1.85641
21
0.569055
0
LINE
8
BLACK
6
CONTINUOUS
10
1.85641
20
0.569055
11
1.85631
21
0.569215
0
LINE
8
BLACK
6
CONTINUOUS
10
1.85631
20
0.569215
11
1.85012
21
0.577066
0
LINE
8
BLACK
6
CONTINUOUS
10
1.85012
20
0.577066
11
1.84284
21
0.583916
0
LINE
8
BLACK
6
CONTINUOUS
10
1.84284
20
0.583916
11
1.84112
21
0.585111
0
LINE
8
BLACK
6
CONTINUOUS
10
1.84112
20
0.585111
11
1.83478
21
0.58951
0
LINE
8
BLACK
6
CONTINUOUS
10
1.83478
20
0.58951
11
1.83478
21
0.58951
0
LINE
8
BLACK
6
CONTINUOUS
10
1.83478
20
0.58951
11
1.83463
21
0.589615
0
LINE
8
BLACK
6
CONTINUOUS
10
1.83463
20
0.589615
11
1.83446
21
0.589696
0
LINE
8
BLACK
6
CONTINUOUS
10
1.83446
20
0.589696
11
1.83446
21
0.589696
0
LINE
8
BLACK
6
CONTINUOUS
10
1.83446
20
0.589696
11
1.82583
21
0.593956
0
LINE
8
BLACK
6
CONTINUOUS
10
1.82583
20
0.593956
11
1.82583
21
0.593956
0
LINE
8
BLACK
6
CONTINUOUS
10
1.82583
20
0.593956
11
1.82566
21
0.594037
0
LINE
8
BLACK
6
CONTINUOUS
10
1.82566
20
0.594037
11
1.81614
21
0.597085
0
LINE
8
BLACK
6
CONTINUOUS
10
1.81614
20
0.597085
11
1.81596
21
0.597114
0
LINE
8
BLACK
6
CONTINUOUS
10
1.81596
20
0.597114
11
1.80645
21
0.598662
0
LINE
8
BLACK
6
CONTINUOUS
10
1.80645
20
0.598662
11
1.80645
21
0.598662
0
LINE
8
BLACK
6
CONTINUOUS
10
1.80645
20
0.598662
11
1.80627
21
0.598692
0
LINE
8
BLACK
6
CONTINUOUS
10
1.80627
20
0.598692
11
1.80127
21
0.598757
0
LINE
8
BLACK
6
CONTINUOUS
10
1.80127
20
0.598757
11
1.79646
21
0.59882
0
LINE
8
BLACK
6
CONTINUOUS
10
1.79646
20
0.59882
11
1.79646
21
0.59882
0
LINE
8
BLACK
6
CONTINUOUS
10
1.79646
20
0.59882
11
1.79628
21
0.598823
0
LINE
8
BLACK
6
CONTINUOUS
10
1.79628
20
0.598823
11
1.78637
21
0.597474
0
LINE
8
BLACK
6
CONTINUOUS
10
1.78637
20
0.597474
11
1.77677
21
0.594677
0
LINE
8
BLACK
6
CONTINUOUS
10
1.77677
20
0.594677
11
1.76769
21
0.590491
0
LINE
8
BLACK
6
CONTINUOUS
10
1.76769
20
0.590491
11
1.76754
21
0.59039
0
LINE
8
BLACK
6
CONTINUOUS
10
1.76754
20
0.59039
11
1.75949
21
0.585111
0
LINE
8
BLACK
6
CONTINUOUS
10
1.75949
20
0.585111
11
1.75949
21
0.585111
0
LINE
8
BLACK
6
CONTINUOUS
10
1.75949
20
0.585111
11
1.75933
21
0.58501
0
LINE
8
BLACK
6
CONTINUOUS
10
1.75933
20
0.58501
11
1.75187
21
0.578352
0
LINE
8
BLACK
6
CONTINUOUS
10
1.75187
20
0.578352
11
1.74548
21
0.570666
0
LINE
8
BLACK
6
CONTINUOUS
10
1.74548
20
0.570666
11
1.74029
21
0.562119
0
LINE
8
BLACK
6
CONTINUOUS
10
1.74029
20
0.562119
11
1.73643
21
0.552899
0
LINE
8
BLACK
6
CONTINUOUS
10
1.73643
20
0.552899
11
1.73397
21
0.543209
0
LINE
8
BLACK
6
CONTINUOUS
10
1.73397
20
0.543209
11
1.73296
21
0.533262
0
LINE
8
BLACK
6
CONTINUOUS
10
1.73296
20
0.533262
11
1.73344
21
0.523276
0
LINE
8
BLACK
6
CONTINUOUS
10
1.73344
20
0.523276
11
1.73539
21
0.51347
0
LINE
8
BLACK
6
CONTINUOUS
10
0.942019
20
0.483267
11
0.94216
21
0.483386
0
LINE
8
BLACK
6
CONTINUOUS
10
0.94216
20
0.483386
11
0.948752
21
0.490902
0
LINE
8
BLACK
6
CONTINUOUS
10
0.948752
20
0.490902
11
0.95416
21
0.499311
0
LINE
8
BLACK
6
CONTINUOUS
10
0.95416
20
0.499311
11
0.958266
21
0.508426
0
LINE
8
BLACK
6
CONTINUOUS
10
0.958266
20
0.508426
11
0.96098
21
0.518048
0
LINE
8
BLACK
6
CONTINUOUS
10
0.96098
20
0.518048
11
0.962242
21
0.527966
0
LINE
8
BLACK
6
CONTINUOUS
10
0.962242
20
0.527966
11
0.962334
21
0.531496
0
LINE
8
BLACK
6
CONTINUOUS
10
0.962334
20
0.531496
11
0.961593
21
0.541466
0
LINE
8
BLACK
6
CONTINUOUS
10
0.961593
20
0.541466
11
0.959387
21
0.551217
0
LINE
8
BLACK
6
CONTINUOUS
10
0.959387
20
0.551217
11
0.955763
21
0.560535
0
LINE
8
BLACK
6
CONTINUOUS
10
0.955763
20
0.560535
11
0.954955
21
0.561949
0
LINE
8
BLACK
6
CONTINUOUS
10
0.954955
20
0.561949
11
0.950894
21
0.569055
0
LINE
8
BLACK
6
CONTINUOUS
10
0.950894
20
0.569055
11
0.950894
21
0.569055
0
LINE
8
BLACK
6
CONTINUOUS
10
0.950894
20
0.569055
11
0.950802
21
0.569215
0
LINE
8
BLACK
6
CONTINUOUS
10
0.950802
20
0.569215
11
0.944613
21
0.577066
0
LINE
8
BLACK
6
CONTINUOUS
10
0.944613
20
0.577066
11
0.937331
21
0.583916
0
LINE
8
BLACK
6
CONTINUOUS
10
0.937331
20
0.583916
11
0.93561
21
0.585111
0
LINE
8
BLACK
6
CONTINUOUS
10
0.93561
20
0.585111
11
0.929267
21
0.58951
0
LINE
8
BLACK
6
CONTINUOUS
10
0.929267
20
0.58951
11
0.929267
21
0.58951
0
LINE
8
BLACK
6
CONTINUOUS
10
0.929267
20
0.58951
11
0.929117
21
0.589615
0
LINE
8
BLACK
6
CONTINUOUS
10
0.929117
20
0.589615
11
0.928952
21
0.589696
0
LINE
8
BLACK
6
CONTINUOUS
10
0.928952
20
0.589696
11
0.928952
21
0.589696
0
LINE
8
BLACK
6
CONTINUOUS
10
0.928952
20
0.589696
11
0.920315
21
0.593956
0
LINE
8
BLACK
6
CONTINUOUS
10
0.920315
20
0.593956
11
0.920315
21
0.593956
0
LINE
8
BLACK
6
CONTINUOUS
10
0.920315
20
0.593956
11
0.92015
21
0.594037
0
LINE
8
BLACK
6
CONTINUOUS
10
0.92015
20
0.594037
11
0.910628
21
0.597085
0
LINE
8
BLACK
6
CONTINUOUS
10
0.910628
20
0.597085
11
0.910447
21
0.597114
0
LINE
8
BLACK
6
CONTINUOUS
10
0.910447
20
0.597114
11
0.900942
21
0.598662
0
LINE
8
BLACK
6
CONTINUOUS
10
0.900942
20
0.598662
11
0.900942
21
0.598662
0
LINE
8
BLACK
6
CONTINUOUS
10
0.900942
20
0.598662
11
0.900761
21
0.598692
0
LINE
8
BLACK
6
CONTINUOUS
10
0.900761
20
0.598692
11
0.895762
21
0.598757
0
LINE
8
BLACK
6
CONTINUOUS
10
0.895762
20
0.598757
11
0.890948
21
0.59882
0
LINE
8
BLACK
6
CONTINUOUS
10
0.890948
20
0.59882
11
0.890948
21
0.59882
0
LINE
8
BLACK
6
CONTINUOUS
10
0.890948
20
0.59882
11
0.890764
21
0.598823
0
LINE
8
BLACK
6
CONTINUOUS
10
0.890764
20
0.598823
11
0.880858
21
0.597474
0
LINE
8
BLACK
6
CONTINUOUS
10
0.880858
20
0.597474
11
0.87126
21
0.594677
0
LINE
8
BLACK
6
CONTINUOUS
10
0.87126
20
0.594677
11
0.86218
21
0.590491
0
LINE
8
BLACK
6
CONTINUOUS
10
0.86218
20
0.590491
11
0.862026
21
0.59039
0
LINE
8
BLACK
6
CONTINUOUS
10
0.862026
20
0.59039
11
0.853974
21
0.585111
0
LINE
8
BLACK
6
CONTINUOUS
10
0.853974
20
0.585111
11
0.853973
21
0.585111
0
LINE
8
BLACK
6
CONTINUOUS
10
0.853973
20
0.585111
11
0.853819
21
0.58501
0
LINE
8
BLACK
6
CONTINUOUS
10
0.853819
20
0.58501
11
0.846361
21
0.578352
0
LINE
8
BLACK
6
CONTINUOUS
10
0.846361
20
0.578352
11
0.839968
21
0.570666
0
LINE
8
BLACK
6
CONTINUOUS
10
0.839968
20
0.570666
11
0.834781
21
0.562119
0
LINE
8
BLACK
6
CONTINUOUS
10
0.834781
20
0.562119
11
0.830915
21
0.552899
0
LINE
8
BLACK
6
CONTINUOUS
10
0.830915
20
0.552899
11
0.828454
21
0.543209
0
LINE
8
BLACK
6
CONTINUOUS
10
0.828454
20
0.543209
11
0.827453
21
0.533262
0
LINE
8
BLACK
6
CONTINUOUS
10
0.827453
20
0.533262
11
0.827932
21
0.523276
0
LINE
8
BLACK
6
CONTINUOUS
10
0.827932
20
0.523276
11
0.829883
21
0.51347
0
LINE
8
BLACK
6
CONTINUOUS
10
0.829883
20
0.51347
11
0.829945
21
0.513297
0
LINE
8
BLACK
6
CONTINUOUS
10
0.829945
20
0.513297
11
0.829945
21
0.513297
0
LINE
8
BLACK
6
CONTINUOUS
10
0.829945
20
0.513297
11
0.831694
21
0.508426
0
LINE
8
BLACK
6
CONTINUOUS
10
0.831694
20
0.508426
11
0.833261
21
0.504061
0
LINE
8
BLACK
6
CONTINUOUS
10
0.833261
20
0.504061
11
0.837993
21
0.495254
0
LINE
8
BLACK
6
CONTINUOUS
10
0.837993
20
0.495254
11
0.838103
21
0.495107
0
LINE
8
BLACK
6
CONTINUOUS
10
0.838103
20
0.495107
11
0.838103
21
0.495106
0
LINE
8
BLACK
6
CONTINUOUS
10
0.838103
20
0.495106
11
0.843865
21
0.48739
0
LINE
8
BLACK
6
CONTINUOUS
10
0.843865
20
0.48739
11
0.843865
21
0.48739
0
LINE
8
BLACK
6
CONTINUOUS
10
0.843865
20
0.48739
11
0.843975
21
0.487243
0
LINE
8
BLACK
6
CONTINUOUS
10
0.843975
20
0.487243
11
0.844105
21
0.487114
0
LINE
8
BLACK
6
CONTINUOUS
10
0.844105
20
0.487114
11
0.844105
21
0.487114
0
LINE
8
BLACK
6
CONTINUOUS
10
0.844105
20
0.487114
11
0.850944
21
0.480334
0
LINE
8
BLACK
6
CONTINUOUS
10
0.850944
20
0.480334
11
0.851075
21
0.480205
0
LINE
8
BLACK
6
CONTINUOUS
10
0.851075
20
0.480205
11
0.851223
21
0.480096
0
LINE
8
BLACK
6
CONTINUOUS
10
0.851223
20
0.480096
11
0.851223
21
0.480096
0
LINE
8
BLACK
6
CONTINUOUS
10
0.851223
20
0.480096
11
0.855384
21
0.477045
0
LINE
8
BLACK
6
CONTINUOUS
10
0.855384
20
0.477045
11
0.859138
21
0.474293
0
LINE
8
BLACK
6
CONTINUOUS
10
0.859138
20
0.474293
11
0.8593
21
0.474208
0
LINE
8
BLACK
6
CONTINUOUS
10
0.8593
20
0.474208
11
0.859301
21
0.474207
0
LINE
8
BLACK
6
CONTINUOUS
10
0.859301
20
0.474207
11
0.863948
21
0.471762
0
LINE
8
BLACK
6
CONTINUOUS
10
0.863948
20
0.471762
11
0.867985
21
0.469638
0
LINE
8
BLACK
6
CONTINUOUS
10
0.867985
20
0.469638
11
0.877424
21
0.466342
0
LINE
8
BLACK
6
CONTINUOUS
10
0.877424
20
0.466342
11
0.887246
21
0.464477
0
LINE
8
BLACK
6
CONTINUOUS
10
0.887246
20
0.464477
11
0.891989
21
0.464291
0
LINE
8
BLACK
6
CONTINUOUS
10
0.891989
20
0.464291
11
0.897052
21
0.464092
0
LINE
8
BLACK
6
CONTINUOUS
10
0.897052
20
0.464092
11
0.897052
21
0.464092
0
LINE
8
BLACK
6
CONTINUOUS
10
0.897052
20
0.464092
11
0.897236
21
0.464085
0
LINE
8
BLACK
6
CONTINUOUS
10
0.897236
20
0.464085
11
0.901133
21
0.464512
0
LINE
8
BLACK
6
CONTINUOUS
10
0.901133
20
0.464512
11
0.906991
21
0.465153
0
LINE
8
BLACK
6
CONTINUOUS
10
0.906991
20
0.465153
11
0.906991
21
0.465153
0
LINE
8
BLACK
6
CONTINUOUS
10
0.906991
20
0.465153
11
0.907174
21
0.465173
0
LINE
8
BLACK
6
CONTINUOUS
10
0.907174
20
0.465173
11
0.911483
21
0.466308
0
LINE
8
BLACK
6
CONTINUOUS
10
0.911483
20
0.466308
11
0.916664
21
0.467672
0
LINE
8
BLACK
6
CONTINUOUS
10
0.916664
20
0.467672
11
0.916842
21
0.467719
0
LINE
8
BLACK
6
CONTINUOUS
10
0.916842
20
0.467719
11
0.922695
21
0.470233
0
LINE
8
BLACK
6
CONTINUOUS
10
0.922695
20
0.470233
11
0.925859
21
0.471592
0
LINE
8
BLACK
6
CONTINUOUS
10
0.925859
20
0.471592
11
0.925859
21
0.471592
0
LINE
8
BLACK
6
CONTINUOUS
10
0.925859
20
0.471592
11
0.926028
21
0.471665
0
LINE
8
BLACK
6
CONTINUOUS
10
0.926028
20
0.471665
11
0.926185
21
0.471762
0
LINE
8
BLACK
6
CONTINUOUS
10
0.926185
20
0.471762
11
0.926185
21
0.471762
0
LINE
8
BLACK
6
CONTINUOUS
10
0.926185
20
0.471762
11
0.934373
21
0.476829
0
LINE
8
BLACK
6
CONTINUOUS
10
0.934373
20
0.476829
11
0.934373
21
0.476829
0
LINE
8
BLACK
6
CONTINUOUS
10
0.934373
20
0.476829
11
0.934529
21
0.476926
0
LINE
8
BLACK
6
CONTINUOUS
10
0.934529
20
0.476926
11
0.938418
21
0.480218
0
LINE
8
BLACK
6
CONTINUOUS
10
0.938418
20
0.480218
11
0.940945
21
0.482357
0
LINE
8
BLACK
6
CONTINUOUS
10
0.940945
20
0.482357
11
0.942019
21
0.483266
0
LINE
8
BLACK
6
CONTINUOUS
10
0.942019
20
0.483266
11
0.942019
21
0.483267
0
LINE
8
BLACK
6
CONTINUOUS
10
0.564534
20
0.67572
11
0.567899
21
0.669173
0
LINE
8
BLACK
6
CONTINUOUS
10
0.567899
20
0.669173
11
0.572472
21
0.663403
0
LINE
8
BLACK
6
CONTINUOUS
10
0.572472
20
0.663403
11
0.572657
21
0.663246
0
LINE
8
BLACK
6
CONTINUOUS
10
0.572657
20
0.663246
11
0.572657
21
0.663246
0
LINE
8
BLACK
6
CONTINUOUS
10
0.572657
20
0.663246
11
0.576333
21
0.660117
0
LINE
8
BLACK
6
CONTINUOUS
10
0.576333
20
0.660117
11
0.578078
21
0.658632
0
LINE
8
BLACK
6
CONTINUOUS
10
0.578078
20
0.658632
11
0.57829
21
0.658513
0
LINE
8
BLACK
6
CONTINUOUS
10
0.57829
20
0.658513
11
0.57829
21
0.658513
0
LINE
8
BLACK
6
CONTINUOUS
10
0.57829
20
0.658513
11
0.581292
21
0.656836
0
LINE
8
BLACK
6
CONTINUOUS
10
0.581292
20
0.656836
11
0.584505
21
0.65504
0
LINE
8
BLACK
6
CONTINUOUS
10
0.584505
20
0.65504
11
0.591506
21
0.652765
0
LINE
8
BLACK
6
CONTINUOUS
10
0.591506
20
0.652765
11
0.598816
21
0.651894
0
LINE
8
BLACK
6
CONTINUOUS
10
0.598816
20
0.651894
11
0.599058
21
0.651912
0
LINE
8
BLACK
6
CONTINUOUS
10
0.599058
20
0.651912
11
0.599058
21
0.651912
0
LINE
8
BLACK
6
CONTINUOUS
10
0.599058
20
0.651912
11
0.605915
21
0.65244
0
LINE
8
BLACK
6
CONTINUOUS
10
0.605915
20
0.65244
11
0.605915
21
0.65244
0
LINE
8
BLACK
6
CONTINUOUS
10
0.605915
20
0.65244
11
0.606156
21
0.652458
0
LINE
8
BLACK
6
CONTINUOUS
10
0.606156
20
0.652458
11
0.613247
21
0.654438
0
LINE
8
BLACK
6
CONTINUOUS
10
0.613247
20
0.654438
11
0.619818
21
0.657757
0
LINE
8
BLACK
6
CONTINUOUS
10
0.619818
20
0.657757
11
0.621519
21
0.659086
0
LINE
8
BLACK
6
CONTINUOUS
10
0.621519
20
0.659086
11
0.624117
21
0.660117
0
LINE
8
BLACK
6
CONTINUOUS
10
0.624117
20
0.660117
11
0.624573
21
0.660138
0
LINE
8
BLACK
6
CONTINUOUS
10
0.624573
20
0.660138
11
1.08536
21
0.660138
0
LINE
8
BLACK
6
CONTINUOUS
10
1.08536
20
0.660138
11
1.08819
21
0.659251
0
LINE
8
BLACK
6
CONTINUOUS
10
1.08819
20
0.659251
11
1.08829
21
0.659183
0
LINE
8
BLACK
6
CONTINUOUS
10
1.08829
20
0.659183
11
1.08847
21
0.659025
0
LINE
8
BLACK
6
CONTINUOUS
10
1.08847
20
0.659025
11
1.08868
21
0.658907
0
LINE
8
BLACK
6
CONTINUOUS
10
1.08868
20
0.658907
11
1.08868
21
0.658907
0
LINE
8
BLACK
6
CONTINUOUS
10
1.08868
20
0.658907
11
1.09047
21
0.657907
0
LINE
8
BLACK
6
CONTINUOUS
10
1.09047
20
0.657907
11
1.0949
21
0.655434
0
LINE
8
BLACK
6
CONTINUOUS
10
1.0949
20
0.655434
11
1.1019
21
0.653159
0
LINE
8
BLACK
6
CONTINUOUS
10
1.1019
20
0.653159
11
1.10921
21
0.652287
0
LINE
8
BLACK
6
CONTINUOUS
10
1.10921
20
0.652287
11
1.10945
21
0.652306
0
LINE
8
BLACK
6
CONTINUOUS
10
1.10945
20
0.652306
11
1.10945
21
0.652306
0
LINE
8
BLACK
6
CONTINUOUS
10
1.10945
20
0.652306
11
1.11631
21
0.652833
0
LINE
8
BLACK
6
CONTINUOUS
10
1.11631
20
0.652833
11
1.11631
21
0.652833
0
LINE
8
BLACK
6
CONTINUOUS
10
1.11631
20
0.652833
11
1.11655
21
0.652852
0
LINE
8
BLACK
6
CONTINUOUS
10
1.11655
20
0.652852
11
1.12364
21
0.654832
0
LINE
8
BLACK
6
CONTINUOUS
10
1.12364
20
0.654832
11
1.13021
21
0.658151
0
LINE
8
BLACK
6
CONTINUOUS
10
1.13021
20
0.658151
11
1.13068
21
0.658513
0
LINE
8
BLACK
6
CONTINUOUS
10
1.13068
20
0.658513
11
1.13582
21
0.662534
0
LINE
8
BLACK
6
CONTINUOUS
10
1.13582
20
0.662534
11
1.13601
21
0.662684
0
LINE
8
BLACK
6
CONTINUOUS
10
1.13601
20
0.662684
11
1.14082
21
0.668256
0
LINE
8
BLACK
6
CONTINUOUS
10
1.14082
20
0.668256
11
1.14446
21
0.674657
0
LINE
8
BLACK
6
CONTINUOUS
10
1.14446
20
0.674657
11
1.14678
21
0.681643
0
LINE
8
BLACK
6
CONTINUOUS
10
1.14678
20
0.681643
11
1.14771
21
0.688947
0
LINE
8
BLACK
6
CONTINUOUS
10
1.14771
20
0.688947
11
1.14772
21
0.69
0
LINE
8
BLACK
6
CONTINUOUS
10
1.14772
20
0.69
11
1.147
21
0.697327
0
LINE
8
BLACK
6
CONTINUOUS
10
1.147
20
0.697327
11
1.14487
21
0.704374
0
LINE
8
BLACK
6
CONTINUOUS
10
1.14487
20
0.704374
11
1.14142
21
0.710874
0
LINE
8
BLACK
6
CONTINUOUS
10
1.14142
20
0.710874
11
1.13816
21
0.714869
0
LINE
8
BLACK
6
CONTINUOUS
10
1.13816
20
0.714869
11
1.13692
21
0.716392
0
LINE
8
BLACK
6
CONTINUOUS
10
1.13692
20
0.716392
11
1.13692
21
0.716392
0
LINE
8
BLACK
6
CONTINUOUS
10
1.13692
20
0.716392
11
1.13677
21
0.71658
0
LINE
8
BLACK
6
CONTINUOUS
10
1.13677
20
0.71658
11
1.13444
21
0.718503
0
LINE
8
BLACK
6
CONTINUOUS
10
1.13444
20
0.718503
11
1.13128
21
0.721118
0
LINE
8
BLACK
6
CONTINUOUS
10
1.13128
20
0.721118
11
1.13128
21
0.721118
0
LINE
8
BLACK
6
CONTINUOUS
10
1.13128
20
0.721118
11
1.13109
21
0.721272
0
LINE
8
BLACK
6
CONTINUOUS
10
1.13109
20
0.721272
11
1.13088
21
0.721387
0
LINE
8
BLACK
6
CONTINUOUS
10
1.13088
20
0.721387
11
1.13088
21
0.721388
0
LINE
8
BLACK
6
CONTINUOUS
10
1.13088
20
0.721388
11
1.12786
21
0.723023
0
LINE
8
BLACK
6
CONTINUOUS
10
1.12786
20
0.723023
11
1.12462
21
0.724774
0
LINE
8
BLACK
6
CONTINUOUS
10
1.12462
20
0.724774
11
1.11758
21
0.726951
0
LINE
8
BLACK
6
CONTINUOUS
10
1.11758
20
0.726951
11
1.11734
21
0.726976
0
LINE
8
BLACK
6
CONTINUOUS
10
1.11734
20
0.726976
11
1.11734
21
0.726976
0
LINE
8
BLACK
6
CONTINUOUS
10
1.11734
20
0.726976
11
1.1105
21
0.727695
0
LINE
8
BLACK
6
CONTINUOUS
10
1.1105
20
0.727695
11
1.1105
21
0.727695
0
LINE
8
BLACK
6
CONTINUOUS
10
1.1105
20
0.727695
11
1.11026
21
0.72772
0
LINE
8
BLACK
6
CONTINUOUS
10
1.11026
20
0.72772
11
1.10723
21
0.727444
0
LINE
8
BLACK
6
CONTINUOUS
10
1.10723
20
0.727444
11
1.10317
21
0.727075
0
LINE
8
BLACK
6
CONTINUOUS
10
1.10317
20
0.727075
11
1.10317
21
0.727075
0
LINE
8
BLACK
6
CONTINUOUS
10
1.10317
20
0.727075
11
1.10293
21
0.727053
0
LINE
8
BLACK
6
CONTINUOUS
10
1.10293
20
0.727053
11
1.1027
21
0.726984
0
LINE
8
BLACK
6
CONTINUOUS
10
1.1027
20
0.726984
11
1.1027
21
0.726984
0
LINE
8
BLACK
6
CONTINUOUS
10
1.1027
20
0.726984
11
1.09747
21
0.725444
0
LINE
8
BLACK
6
CONTINUOUS
10
1.09747
20
0.725444
11
1.09587
21
0.724974
0
LINE
8
BLACK
6
CONTINUOUS
10
1.09587
20
0.724974
11
1.08935
21
0.721564
0
LINE
8
BLACK
6
CONTINUOUS
10
1.08935
20
0.721564
11
1.08916
21
0.721412
0
LINE
8
BLACK
6
CONTINUOUS
10
1.08916
20
0.721412
11
1.08916
21
0.721412
0
LINE
8
BLACK
6
CONTINUOUS
10
1.08916
20
0.721412
11
1.08859
21
0.720957
0
LINE
8
BLACK
6
CONTINUOUS
10
1.08859
20
0.720957
11
1.08601
21
0.71989
0
LINE
8
BLACK
6
CONTINUOUS
10
1.08601
20
0.71989
11
1.08548
21
0.719862
0
LINE
8
BLACK
6
CONTINUOUS
10
1.08548
20
0.719862
11
0.623681
21
0.719862
0
LINE
8
BLACK
6
CONTINUOUS
10
0.623681
20
0.719862
11
0.620907
21
0.72071
0
LINE
8
BLACK
6
CONTINUOUS
10
0.620907
20
0.72071
11
0.620887
21
0.720724
0
LINE
8
BLACK
6
CONTINUOUS
10
0.620887
20
0.720724
11
0.6207
21
0.720878
0
LINE
8
BLACK
6
CONTINUOUS
10
0.6207
20
0.720878
11
0.620486
21
0.720994
0
LINE
8
BLACK
6
CONTINUOUS
10
0.620486
20
0.720994
11
0.620486
21
0.720994
0
LINE
8
BLACK
6
CONTINUOUS
10
0.620486
20
0.720994
11
0.617768
21
0.722464
0
LINE
8
BLACK
6
CONTINUOUS
10
0.617768
20
0.722464
11
0.614224
21
0.72438
0
LINE
8
BLACK
6
CONTINUOUS
10
0.614224
20
0.72438
11
0.607191
21
0.726557
0
LINE
8
BLACK
6
CONTINUOUS
10
0.607191
20
0.726557
11
0.60695
21
0.726582
0
LINE
8
BLACK
6
CONTINUOUS
10
0.60695
20
0.726582
11
0.60695
21
0.726582
0
LINE
8
BLACK
6
CONTINUOUS
10
0.60695
20
0.726582
11
0.600111
21
0.727301
0
LINE
8
BLACK
6
CONTINUOUS
10
0.600111
20
0.727301
11
0.600111
21
0.727301
0
LINE
8
BLACK
6
CONTINUOUS
10
0.600111
20
0.727301
11
0.59987
21
0.727326
0
LINE
8
BLACK
6
CONTINUOUS
10
0.59987
20
0.727326
11
0.597106
21
0.727075
0
LINE
8
BLACK
6
CONTINUOUS
10
0.597106
20
0.727075
11
0.59278
21
0.726681
0
LINE
8
BLACK
6
CONTINUOUS
10
0.59278
20
0.726681
11
0.59278
21
0.726681
0
LINE
8
BLACK
6
CONTINUOUS
10
0.59278
20
0.726681
11
0.592538
21
0.726659
0
LINE
8
BLACK
6
CONTINUOUS
10
0.592538
20
0.726659
11
0.592306
21
0.726591
0
LINE
8
BLACK
6
CONTINUOUS
10
0.592306
20
0.726591
11
0.592305
21
0.726591
0
LINE
8
BLACK
6
CONTINUOUS
10
0.592305
20
0.726591
11
0.587073
21
0.725051
0
LINE
8
BLACK
6
CONTINUOUS
10
0.587073
20
0.725051
11
0.585476
21
0.724581
0
LINE
8
BLACK
6
CONTINUOUS
10
0.585476
20
0.724581
11
0.584871
21
0.724265
0
LINE
8
BLACK
6
CONTINUOUS
10
0.584871
20
0.724265
11
0.57992
21
0.721676
0
LINE
8
BLACK
6
CONTINUOUS
10
0.57992
20
0.721676
11
0.578952
21
0.72117
0
LINE
8
BLACK
6
CONTINUOUS
10
0.578952
20
0.72117
11
0.573214
21
0.716557
0
LINE
8
BLACK
6
CONTINUOUS
10
0.573214
20
0.716557
11
0.568482
21
0.710917
0
LINE
8
BLACK
6
CONTINUOUS
10
0.568482
20
0.710917
11
0.564936
21
0.704466
0
LINE
8
BLACK
6
CONTINUOUS
10
0.564936
20
0.704466
11
0.56271
21
0.697449
0
LINE
8
BLACK
6
CONTINUOUS
10
0.56271
20
0.697449
11
0.561889
21
0.690133
0
LINE
8
BLACK
6
CONTINUOUS
10
0.561889
20
0.690133
11
0.562505
21
0.682797
0
LINE
8
BLACK
6
CONTINUOUS
10
0.562505
20
0.682797
11
0.564534
21
0.67572
0
LINE
8
BLACK
6
CONTINUOUS
10
1.44013
20
0.474539
11
1.44357
21
0.46995
0
LINE
8
BLACK
6
CONTINUOUS
10
1.44357
20
0.46995
11
1.44816
21
0.466511
0
LINE
8
BLACK
6
CONTINUOUS
10
1.44816
20
0.466511
11
1.45353
21
0.464498
0
LINE
8
BLACK
6
CONTINUOUS
10
1.45353
20
0.464498
11
1.45598
21
0.464232
0
LINE
8
BLACK
6
CONTINUOUS
10
1.45598
20
0.464232
11
1.55426
21
0.464232
0
LINE
8
BLACK
6
CONTINUOUS
10
1.55426
20
0.464232
11
1.55671
21
0.464498
0
LINE
8
BLACK
6
CONTINUOUS
10
1.55671
20
0.464498
11
1.56207
21
0.466511
0
LINE
8
BLACK
6
CONTINUOUS
10
1.56207
20
0.466511
11
1.56666
21
0.46995
0
LINE
8
BLACK
6
CONTINUOUS
10
1.56666
20
0.46995
11
1.5701
21
0.474539
0
LINE
8
BLACK
6
CONTINUOUS
10
1.5701
20
0.474539
11
1.57212
21
0.479909
0
LINE
8
BLACK
6
CONTINUOUS
10
1.57212
20
0.479909
11
1.57238
21
0.482357
0
LINE
8
BLACK
6
CONTINUOUS
10
1.57238
20
0.482357
11
1.57238
21
0.580635
0
LINE
8
BLACK
6
CONTINUOUS
10
1.57238
20
0.580635
11
1.57212
21
0.583083
0
LINE
8
BLACK
6
CONTINUOUS
10
1.57212
20
0.583083
11
1.5701
21
0.588453
0
LINE
8
BLACK
6
CONTINUOUS
10
1.5701
20
0.588453
11
1.56666
21
0.593042
0
LINE
8
BLACK
6
CONTINUOUS
10
1.56666
20
0.593042
11
1.56207
21
0.596481
0
LINE
8
BLACK
6
CONTINUOUS
10
1.56207
20
0.596481
11
1.55671
21
0.598494
0
LINE
8
BLACK
6
CONTINUOUS
10
1.55671
20
0.598494
11
1.55426
21
0.59876
0
LINE
8
BLACK
6
CONTINUOUS
10
1.55426
20
0.59876
11
1.45598
21
0.59876
0
LINE
8
BLACK
6
CONTINUOUS
10
1.45598
20
0.59876
11
1.45353
21
0.598494
0
LINE
8
BLACK
6
CONTINUOUS
10
1.45353
20
0.598494
11
1.44816
21
0.596481
0
LINE
8
BLACK
6
CONTINUOUS
10
1.44816
20
0.596481
11
1.44357
21
0.593042
0
LINE
8
BLACK
6
CONTINUOUS
10
1.44357
20
0.593042
11
1.44013
21
0.588453
0
LINE
8
BLACK
6
CONTINUOUS
10
1.44013
20
0.588453
11
1.43812
21
0.583083
0
LINE
8
BLACK
6
CONTINUOUS
10
1.43812
20
0.583083
11
1.43785
21
0.580635
0
LINE
8
BLACK
6
CONTINUOUS
10
1.43785
20
0.580635
11
1.43785
21
0.482357
0
LINE
8
BLACK
6
CONTINUOUS
10
1.43785
20
0.482357
11
1.43812
21
0.479909
0
LINE
8
BLACK
6
CONTINUOUS
10
1.43812
20
0.479909
11
1.44013
21
0.474539
0
LINE
8
BLACK
6
CONTINUOUS
10
0.534621
20
0.474539
11
0.538061
21
0.46995
0
LINE
8
BLACK
6
CONTINUOUS
10
0.538061
20
0.46995
11
0.542649
21
0.466511
0
LINE
8
BLACK
6
CONTINUOUS
10
0.542649
20
0.466511
11
0.548019
21
0.464498
0
LINE
8
BLACK
6
CONTINUOUS
10
0.548019
20
0.464498
11
0.550467
21
0.464232
0
LINE
8
BLACK
6
CONTINUOUS
10
0.550467
20
0.464232
11
0.648745
21
0.464232
0
LINE
8
BLACK
6
CONTINUOUS
10
0.648745
20
0.464232
11
0.651194
21
0.464498
0
LINE
8
BLACK
6
CONTINUOUS
10
0.651194
20
0.464498
11
0.656563
21
0.466511
0
LINE
8
BLACK
6
CONTINUOUS
10
0.656563
20
0.466511
11
0.661152
21
0.46995
0
LINE
8
BLACK
6
CONTINUOUS
10
0.661152
20
0.46995
11
0.664591
21
0.474539
0
LINE
8
BLACK
6
CONTINUOUS
10
0.664591
20
0.474539
11
0.666604
21
0.479909
0
LINE
8
BLACK
6
CONTINUOUS
10
0.666604
20
0.479909
11
0.66687
21
0.482357
0
LINE
8
BLACK
6
CONTINUOUS
10
0.66687
20
0.482357
11
0.66687
21
0.580635
0
LINE
8
BLACK
6
CONTINUOUS
10
0.66687
20
0.580635
11
0.666604
21
0.583083
0
LINE
8
BLACK
6
CONTINUOUS
10
0.666604
20
0.583083
11
0.664591
21
0.588453
0
LINE
8
BLACK
6
CONTINUOUS
10
0.664591
20
0.588453
11
0.661152
21
0.593042
0
LINE
8
BLACK
6
CONTINUOUS
10
0.661152
20
0.593042
11
0.656563
21
0.596481
0
LINE
8
BLACK
6
CONTINUOUS
10
0.656563
20
0.596481
11
0.651194
21
0.598494
0
LINE
8
BLACK
6
CONTINUOUS
10
0.651194
20
0.598494
11
0.648745
21
0.59876
0
LINE
8
BLACK
6
CONTINUOUS
10
0.648745
20
0.59876
11
0.550467
21
0.59876
0
LINE
8
BLACK
6
CONTINUOUS
10
0.550467
20
0.59876
11
0.548019
21
0.598494
0
LINE
8
BLACK
6
CONTINUOUS
10
0.548019
20
0.598494
11
0.542649
21
0.596481
0
LINE
8
BLACK
6
CONTINUOUS
10
0.542649
20
0.596481
11
0.538061
21
0.593042
0
LINE
8
BLACK
6
CONTINUOUS
10
0.538061
20
0.593042
11
0.534621
21
0.588453
0
LINE
8
BLACK
6
CONTINUOUS
10
0.534621
20
0.588453
11
0.532608
21
0.583083
0
LINE
8
BLACK
6
CONTINUOUS
10
0.532608
20
0.583083
11
0.532343
21
0.580635
0
LINE
8
BLACK
6
CONTINUOUS
10
0.532343
20
0.580635
11
0.532343
21
0.482357
0
LINE
8
BLACK
6
CONTINUOUS
10
0.532343
20
0.482357
11
0.532608
21
0.479909
0
LINE
8
BLACK
6
CONTINUOUS
10
0.532608
20
0.479909
11
0.534621
21
0.474539
0
LINE
8
BLACK
6
CONTINUOUS
10
1.73539
20
1.41898
11
1.73546
21
1.41881
0
LINE
8
BLACK
6
CONTINUOUS
10
1.73546
20
1.41881
11
1.73546
21
1.41881
0
LINE
8
BLACK
6
CONTINUOUS
10
1.73546
20
1.41881
11
1.73721
21
1.41394
0
LINE
8
BLACK
6
CONTINUOUS
10
1.73721
20
1.41394
11
1.73877
21
1.40957
0
LINE
8
BLACK
6
CONTINUOUS
10
1.73877
20
1.40957
11
1.7435
21
1.40077
0
LINE
8
BLACK
6
CONTINUOUS
10
1.7435
20
1.40077
11
1.74361
21
1.40062
0
LINE
8
BLACK
6
CONTINUOUS
10
1.74361
20
1.40062
11
1.74362
21
1.40062
0
LINE
8
BLACK
6
CONTINUOUS
10
1.74362
20
1.40062
11
1.74938
21
1.3929
0
LINE
8
BLACK
6
CONTINUOUS
10
1.74938
20
1.3929
11
1.74938
21
1.3929
0
LINE
8
BLACK
6
CONTINUOUS
10
1.74938
20
1.3929
11
1.74949
21
1.39276
0
LINE
8
BLACK
6
CONTINUOUS
10
1.74949
20
1.39276
11
1.74962
21
1.39263
0
LINE
8
BLACK
6
CONTINUOUS
10
1.74962
20
1.39263
11
1.74962
21
1.39263
0
LINE
8
BLACK
6
CONTINUOUS
10
1.74962
20
1.39263
11
1.75646
21
1.38585
0
LINE
8
BLACK
6
CONTINUOUS
10
1.75646
20
1.38585
11
1.75659
21
1.38572
0
LINE
8
BLACK
6
CONTINUOUS
10
1.75659
20
1.38572
11
1.75673
21
1.38561
0
LINE
8
BLACK
6
CONTINUOUS
10
1.75673
20
1.38561
11
1.75674
21
1.38561
0
LINE
8
BLACK
6
CONTINUOUS
10
1.75674
20
1.38561
11
1.7609
21
1.38256
0
LINE
8
BLACK
6
CONTINUOUS
10
1.7609
20
1.38256
11
1.76465
21
1.3798
0
LINE
8
BLACK
6
CONTINUOUS
10
1.76465
20
1.3798
11
1.76481
21
1.37972
0
LINE
8
BLACK
6
CONTINUOUS
10
1.76481
20
1.37972
11
1.76481
21
1.37972
0
LINE
8
BLACK
6
CONTINUOUS
10
1.76481
20
1.37972
11
1.76946
21
1.37727
0
LINE
8
BLACK
6
CONTINUOUS
10
1.76946
20
1.37727
11
1.7735
21
1.37515
0
LINE
8
BLACK
6
CONTINUOUS
10
1.7735
20
1.37515
11
1.78294
21
1.37185
0
LINE
8
BLACK
6
CONTINUOUS
10
1.78294
20
1.37185
11
1.79276
21
1.36999
0
LINE
8
BLACK
6
CONTINUOUS
10
1.79276
20
1.36999
11
1.7975
21
1.3698
0
LINE
8
BLACK
6
CONTINUOUS
10
1.7975
20
1.3698
11
1.80256
21
1.3696
0
LINE
8
BLACK
6
CONTINUOUS
10
1.80256
20
1.3696
11
1.80256
21
1.3696
0
LINE
8
BLACK
6
CONTINUOUS
10
1.80256
20
1.3696
11
1.80275
21
1.3696
0
LINE
8
BLACK
6
CONTINUOUS
10
1.80275
20
1.3696
11
1.80664
21
1.37002
0
LINE
8
BLACK
6
CONTINUOUS
10
1.80664
20
1.37002
11
1.8125
21
1.37066
0
LINE
8
BLACK
6
CONTINUOUS
10
1.8125
20
1.37066
11
1.8125
21
1.37066
0
LINE
8
BLACK
6
CONTINUOUS
10
1.8125
20
1.37066
11
1.81269
21
1.37068
0
LINE
8
BLACK
6
CONTINUOUS
10
1.81269
20
1.37068
11
1.817
21
1.37182
0
LINE
8
BLACK
6
CONTINUOUS
10
1.817
20
1.37182
11
1.82218
21
1.37318
0
LINE
8
BLACK
6
CONTINUOUS
10
1.82218
20
1.37318
11
1.82235
21
1.37323
0
LINE
8
BLACK
6
CONTINUOUS
10
1.82235
20
1.37323
11
1.82821
21
1.37574
0
LINE
8
BLACK
6
CONTINUOUS
10
1.82821
20
1.37574
11
1.83137
21
1.3771
0
LINE
8
BLACK
6
CONTINUOUS
10
1.83137
20
1.3771
11
1.83137
21
1.3771
0
LINE
8
BLACK
6
CONTINUOUS
10
1.83137
20
1.3771
11
1.83154
21
1.37718
0
LINE
8
BLACK
6
CONTINUOUS
10
1.83154
20
1.37718
11
1.8317
21
1.37727
0
LINE
8
BLACK
6
CONTINUOUS
10
1.8317
20
1.37727
11
1.8317
21
1.37727
0
LINE
8
BLACK
6
CONTINUOUS
10
1.8317
20
1.37727
11
1.83988
21
1.38234
0
LINE
8
BLACK
6
CONTINUOUS
10
1.83988
20
1.38234
11
1.83988
21
1.38234
0
LINE
8
BLACK
6
CONTINUOUS
10
1.83988
20
1.38234
11
1.84004
21
1.38244
0
LINE
8
BLACK
6
CONTINUOUS
10
1.84004
20
1.38244
11
1.84393
21
1.38573
0
LINE
8
BLACK
6
CONTINUOUS
10
1.84393
20
1.38573
11
1.84753
21
1.38878
0
LINE
8
BLACK
6
CONTINUOUS
10
1.84753
20
1.38878
11
1.84753
21
1.38878
0
LINE
8
BLACK
6
CONTINUOUS
10
1.84753
20
1.38878
11
1.84767
21
1.3889
0
LINE
8
BLACK
6
CONTINUOUS
10
1.84767
20
1.3889
11
1.85426
21
1.39641
0
LINE
8
BLACK
6
CONTINUOUS
10
1.85426
20
1.39641
11
1.85967
21
1.40482
0
LINE
8
BLACK
6
CONTINUOUS
10
1.85967
20
1.40482
11
1.86378
21
1.41394
0
LINE
8
BLACK
6
CONTINUOUS
10
1.86378
20
1.41394
11
1.86649
21
1.42356
0
LINE
8
BLACK
6
CONTINUOUS
10
1.86649
20
1.42356
11
1.86775
21
1.43348
0
LINE
8
BLACK
6
CONTINUOUS
10
1.86775
20
1.43348
11
1.86785
21
1.43701
0
LINE
8
BLACK
6
CONTINUOUS
10
1.86785
20
1.43701
11
1.86711
21
1.44698
0
LINE
8
BLACK
6
CONTINUOUS
10
1.86711
20
1.44698
11
1.8649
21
1.45673
0
LINE
8
BLACK
6
CONTINUOUS
10
1.8649
20
1.45673
11
1.86128
21
1.46605
0
LINE
8
BLACK
6
CONTINUOUS
10
1.86128
20
1.46605
11
1.86047
21
1.46746
0
LINE
8
BLACK
6
CONTINUOUS
10
1.86047
20
1.46746
11
1.85641
21
1.47457
0
LINE
8
BLACK
6
CONTINUOUS
10
1.85641
20
1.47457
11
1.85641
21
1.47457
0
LINE
8
BLACK
6
CONTINUOUS
10
1.85641
20
1.47457
11
1.85631
21
1.47473
0
LINE
8
BLACK
6
CONTINUOUS
10
1.85631
20
1.47473
11
1.85012
21
1.48258
0
LINE
8
BLACK
6
CONTINUOUS
10
1.85012
20
1.48258
11
1.84284
21
1.48943
0
LINE
8
BLACK
6
CONTINUOUS
10
1.84284
20
1.48943
11
1.84112
21
1.49062
0
LINE
8
BLACK
6
CONTINUOUS
10
1.84112
20
1.49062
11
1.83478
21
1.49502
0
LINE
8
BLACK
6
CONTINUOUS
10
1.83478
20
1.49502
11
1.83478
21
1.49502
0
LINE
8
BLACK
6
CONTINUOUS
10
1.83478
20
1.49502
11
1.83463
21
1.49513
0
LINE
8
BLACK
6
CONTINUOUS
10
1.83463
20
1.49513
11
1.83446
21
1.49521
0
LINE
8
BLACK
6
CONTINUOUS
10
1.83446
20
1.49521
11
1.83446
21
1.49521
0
LINE
8
BLACK
6
CONTINUOUS
10
1.83446
20
1.49521
11
1.82583
21
1.49947
0
LINE
8
BLACK
6
CONTINUOUS
10
1.82583
20
1.49947
11
1.82583
21
1.49947
0
LINE
8
BLACK
6
CONTINUOUS
10
1.82583
20
1.49947
11
1.82566
21
1.49955
0
LINE
8
BLACK
6
CONTINUOUS
10
1.82566
20
1.49955
11
1.81614
21
1.5026
0
LINE
8
BLACK
6
CONTINUOUS
10
1.81614
20
1.5026
11
1.81596
21
1.50263
0
LINE
8
BLACK
6
CONTINUOUS
10
1.81596
20
1.50263
11
1.80645
21
1.50417
0
LINE
8
BLACK
6
CONTINUOUS
10
1.80645
20
1.50417
11
1.80645
21
1.50417
0
LINE
8
BLACK
6
CONTINUOUS
10
1.80645
20
1.50417
11
1.80627
21
1.5042
0
LINE
8
BLACK
6
CONTINUOUS
10
1.80627
20
1.5042
11
1.80127
21
1.50427
0
LINE
8
BLACK
6
CONTINUOUS
10
1.80127
20
1.50427
11
1.79646
21
1.50433
0
LINE
8
BLACK
6
CONTINUOUS
10
1.79646
20
1.50433
11
1.79646
21
1.50433
0
LINE
8
BLACK
6
CONTINUOUS
10
1.79646
20
1.50433
11
1.79628
21
1.50433
0
LINE
8
BLACK
6
CONTINUOUS
10
1.79628
20
1.50433
11
1.78637
21
1.50299
0
LINE
8
BLACK
6
CONTINUOUS
10
1.78637
20
1.50299
11
1.77677
21
1.50019
0
LINE
8
BLACK
6
CONTINUOUS
10
1.77677
20
1.50019
11
1.76769
21
1.496
0
LINE
8
BLACK
6
CONTINUOUS
10
1.76769
20
1.496
11
1.76754
21
1.4959
0
LINE
8
BLACK
6
CONTINUOUS
10
1.76754
20
1.4959
11
1.75949
21
1.49062
0
LINE
8
BLACK
6
CONTINUOUS
10
1.75949
20
1.49062
11
1.75949
21
1.49062
0
LINE
8
BLACK
6
CONTINUOUS
10
1.75949
20
1.49062
11
1.75933
21
1.49052
0
LINE
8
BLACK
6
CONTINUOUS
10
1.75933
20
1.49052
11
1.75187
21
1.48386
0
LINE
8
BLACK
6
CONTINUOUS
10
1.75187
20
1.48386
11
1.74548
21
1.47618
0
LINE
8
BLACK
6
CONTINUOUS
10
1.74548
20
1.47618
11
1.74029
21
1.46763
0
LINE
8
BLACK
6
CONTINUOUS
10
1.74029
20
1.46763
11
1.73643
21
1.45841
0
LINE
8
BLACK
6
CONTINUOUS
10
1.73643
20
1.45841
11
1.73397
21
1.44872
0
LINE
8
BLACK
6
CONTINUOUS
10
1.73397
20
1.44872
11
1.73296
21
1.43877
0
LINE
8
BLACK
6
CONTINUOUS
10
1.73296
20
1.43877
11
1.73344
21
1.42879
0
LINE
8
BLACK
6
CONTINUOUS
10
1.73344
20
1.42879
11
1.73539
21
1.41898
0
LINE
8
BLACK
6
CONTINUOUS
10
0.942019
20
1.38878
11
0.94216
21
1.3889
0
LINE
8
BLACK
6
CONTINUOUS
10
0.94216
20
1.3889
11
0.948752
21
1.39641
0
LINE
8
BLACK
6
CONTINUOUS
10
0.948752
20
1.39641
11
0.95416
21
1.40482
0
LINE
8
BLACK
6
CONTINUOUS
10
0.95416
20
1.40482
11
0.958266
21
1.41394
0
LINE
8
BLACK
6
CONTINUOUS
10
0.958266
20
1.41394
11
0.96098
21
1.42356
0
LINE
8
BLACK
6
CONTINUOUS
10
0.96098
20
1.42356
11
0.962242
21
1.43348
0
LINE
8
BLACK
6
CONTINUOUS
10
0.962242
20
1.43348
11
0.962334
21
1.43701
0
LINE
8
BLACK
6
CONTINUOUS
10
0.962334
20
1.43701
11
0.961593
21
1.44698
0
LINE
8
BLACK
6
CONTINUOUS
10
0.961593
20
1.44698
11
0.959387
21
1.45673
0
LINE
8
BLACK
6
CONTINUOUS
10
0.959387
20
1.45673
11
0.955763
21
1.46605
0
LINE
8
BLACK
6
CONTINUOUS
10
0.955763
20
1.46605
11
0.954955
21
1.46746
0
LINE
8
BLACK
6
CONTINUOUS
10
0.954955
20
1.46746
11
0.950894
21
1.47457
0
LINE
8
BLACK
6
CONTINUOUS
10
0.950894
20
1.47457
11
0.950894
21
1.47457
0
LINE
8
BLACK
6
CONTINUOUS
10
0.950894
20
1.47457
11
0.950802
21
1.47473
0
LINE
8
BLACK
6
CONTINUOUS
10
0.950802
20
1.47473
11
0.944613
21
1.48258
0
LINE
8
BLACK
6
CONTINUOUS
10
0.944613
20
1.48258
11
0.937331
21
1.48943
0
LINE
8
BLACK
6
CONTINUOUS
10
0.937331
20
1.48943
11
0.93561
21
1.49062
0
LINE
8
BLACK
6
CONTINUOUS
10
0.93561
20
1.49062
11
0.929267
21
1.49502
0
LINE
8
BLACK
6
CONTINUOUS
10
0.929267
20
1.49502
11
0.929267
21
1.49502
0
LINE
8
BLACK
6
CONTINUOUS
10
0.929267
20
1.49502
11
0.929117
21
1.49513
0
LINE
8
BLACK
6
CONTINUOUS
10
0.929117
20
1.49513
11
0.928952
21
1.49521
0
LINE
8
BLACK
6
CONTINUOUS
10
0.928952
20
1.49521
11
0.928952
21
1.49521
0
LINE
8
BLACK
6
CONTINUOUS
10
0.928952
20
1.49521
11
0.920315
21
1.49947
0
LINE
8
BLACK
6
CONTINUOUS
10
0.920315
20
1.49947
11
0.920315
21
1.49947
0
LINE
8
BLACK
6
CONTINUOUS
10
0.920315
20
1.49947
11
0.92015
21
1.49955
0
LINE
8
BLACK
6
CONTINUOUS
10
0.92015
20
1.49955
11
0.910628
21
1.5026
0
LINE
8
BLACK
6
CONTINUOUS
10
0.910628
20
1.5026
11
0.910447
21
1.50263
0
LINE
8
BLACK
6
CONTINUOUS
10
0.910447
20
1.50263
11
0.900942
21
1.50417
0
LINE
8
BLACK
6
CONTINUOUS
10
0.900942
20
1.50417
11
0.900942
21
1.50417
0
LINE
8
BLACK
6
CONTINUOUS
10
0.900942
20
1.50417
11
0.900761
21
1.5042
0
LINE
8
BLACK
6
CONTINUOUS
10
0.900761
20
1.5042
11
0.895762
21
1.50427
0
LINE
8
BLACK
6
CONTINUOUS
10
0.895762
20
1.50427
11
0.890948
21
1.50433
0
LINE
8
BLACK
6
CONTINUOUS
10
0.890948
20
1.50433
11
0.890948
21
1.50433
0
LINE
8
BLACK
6
CONTINUOUS
10
0.890948
20
1.50433
11
0.890764
21
1.50433
0
LINE
8
BLACK
6
CONTINUOUS
10
0.890764
20
1.50433
11
0.880858
21
1.50299
0
LINE
8
BLACK
6
CONTINUOUS
10
0.880858
20
1.50299
11
0.87126
21
1.50019
0
LINE
8
BLACK
6
CONTINUOUS
10
0.87126
20
1.50019
11
0.86218
21
1.496
0
LINE
8
BLACK
6
CONTINUOUS
10
0.86218
20
1.496
11
0.862026
21
1.4959
0
LINE
8
BLACK
6
CONTINUOUS
10
0.862026
20
1.4959
11
0.853974
21
1.49062
0
LINE
8
BLACK
6
CONTINUOUS
10
0.853974
20
1.49062
11
0.853973
21
1.49062
0
LINE
8
BLACK
6
CONTINUOUS
10
0.853973
20
1.49062
11
0.853819
21
1.49052
0
LINE
8
BLACK
6
CONTINUOUS
10
0.853819
20
1.49052
11
0.846361
21
1.48386
0
LINE
8
BLACK
6
CONTINUOUS
10
0.846361
20
1.48386
11
0.839968
21
1.47618
0
LINE
8
BLACK
6
CONTINUOUS
10
0.839968
20
1.47618
11
0.834781
21
1.46763
0
LINE
8
BLACK
6
CONTINUOUS
10
0.834781
20
1.46763
11
0.830915
21
1.45841
0
LINE
8
BLACK
6
CONTINUOUS
10
0.830915
20
1.45841
11
0.828454
21
1.44872
0
LINE
8
BLACK
6
CONTINUOUS
10
0.828454
20
1.44872
11
0.827453
21
1.43877
0
LINE
8
BLACK
6
CONTINUOUS
10
0.827453
20
1.43877
11
0.827932
21
1.42879
0
LINE
8
BLACK
6
CONTINUOUS
10
0.827932
20
1.42879
11
0.829883
21
1.41898
0
LINE
8
BLACK
6
CONTINUOUS
10
0.829883
20
1.41898
11
0.829945
21
1.41881
0
LINE
8
BLACK
6
CONTINUOUS
10
0.829945
20
1.41881
11
0.829945
21
1.41881
0
LINE
8
BLACK
6
CONTINUOUS
10
0.829945
20
1.41881
11
0.831694
21
1.41394
0
LINE
8
BLACK
6
CONTINUOUS
10
0.831694
20
1.41394
11
0.833261
21
1.40957
0
LINE
8
BLACK
6
CONTINUOUS
10
0.833261
20
1.40957
11
0.837993
21
1.40077
0
LINE
8
BLACK
6
CONTINUOUS
10
0.837993
20
1.40077
11
0.838103
21
1.40062
0
LINE
8
BLACK
6
CONTINUOUS
10
0.838103
20
1.40062
11
0.838103
21
1.40062
0
LINE
8
BLACK
6
CONTINUOUS
10
0.838103
20
1.40062
11
0.843865
21
1.3929
0
LINE
8
BLACK
6
CONTINUOUS
10
0.843865
20
1.3929
11
0.843865
21
1.3929
0
LINE
8
BLACK
6
CONTINUOUS
10
0.843865
20
1.3929
11
0.843975
21
1.39276
0
LINE
8
BLACK
6
CONTINUOUS
10
0.843975
20
1.39276
11
0.844105
21
1.39263
0
LINE
8
BLACK
6
CONTINUOUS
10
0.844105
20
1.39263
11
0.844105
21
1.39263
0
LINE
8
BLACK
6
CONTINUOUS
10
0.844105
20
1.39263
11
0.850944
21
1.38585
0
LINE
8
BLACK
6
CONTINUOUS
10
0.850944
20
1.38585
11
0.851075
21
1.38572
0
LINE
8
BLACK
6
CONTINUOUS
10
0.851075
20
1.38572
11
0.851223
21
1.38561
0
LINE
8
BLACK
6
CONTINUOUS
10
0.851223
20
1.38561
11
0.851223
21
1.38561
0
LINE
8
BLACK
6
CONTINUOUS
10
0.851223
20
1.38561
11
0.855384
21
1.38256
0
LINE
8
BLACK
6
CONTINUOUS
10
0.855384
20
1.38256
11
0.859138
21
1.3798
0
LINE
8
BLACK
6
CONTINUOUS
10
0.859138
20
1.3798
11
0.8593
21
1.37972
0
LINE
8
BLACK
6
CONTINUOUS
10
0.8593
20
1.37972
11
0.859301
21
1.37972
0
LINE
8
BLACK
6
CONTINUOUS
10
0.859301
20
1.37972
11
0.863948
21
1.37727
0
LINE
8
BLACK
6
CONTINUOUS
10
0.863948
20
1.37727
11
0.867985
21
1.37515
0
LINE
8
BLACK
6
CONTINUOUS
10
0.867985
20
1.37515
11
0.877424
21
1.37185
0
LINE
8
BLACK
6
CONTINUOUS
10
0.877424
20
1.37185
11
0.887246
21
1.36999
0
LINE
8
BLACK
6
CONTINUOUS
10
0.887246
20
1.36999
11
0.891989
21
1.3698
0
LINE
8
BLACK
6
CONTINUOUS
10
0.891989
20
1.3698
11
0.897052
21
1.3696
0
LINE
8
BLACK
6
CONTINUOUS
10
0.897052
20
1.3696
11
0.897052
21
1.3696
0
LINE
8
BLACK
6
CONTINUOUS
10
0.897052
20
1.3696
11
0.897236
21
1.3696
0
LINE
8
BLACK
6
CONTINUOUS
10
0.897236
20
1.3696
11
0.901133
21
1.37002
0
LINE
8
BLACK
6
CONTINUOUS
10
0.901133
20
1.37002
11
0.906991
21
1.37066
0
LINE
8
BLACK
6
CONTINUOUS
10
0.906991
20
1.37066
11
0.906991
21
1.37066
0
LINE
8
BLACK
6
CONTINUOUS
10
0.906991
20
1.37066
11
0.907174
21
1.37068
0
LINE
8
BLACK
6
CONTINUOUS
10
0.907174
20
1.37068
11
0.911483
21
1.37182
0
LINE
8
BLACK
6
CONTINUOUS
10
0.911483
20
1.37182
11
0.916664
21
1.37318
0
LINE
8
BLACK
6
CONTINUOUS
10
0.916664
20
1.37318
11
0.916842
21
1.37323
0
LINE
8
BLACK
6
CONTINUOUS
10
0.916842
20
1.37323
11
0.922695
21
1.37574
0
LINE
8
BLACK
6
CONTINUOUS
10
0.922695
20
1.37574
11
0.925859
21
1.3771
0
LINE
8
BLACK
6
CONTINUOUS
10
0.925859
20
1.3771
11
0.925859
21
1.3771
0
LINE
8
BLACK
6
CONTINUOUS
10
0.925859
20
1.3771
11
0.926028
21
1.37718
0
LINE
8
BLACK
6
CONTINUOUS
10
0.926028
20
1.37718
11
0.926185
21
1.37727
0
LINE
8
BLACK
6
CONTINUOUS
10
0.926185
20
1.37727
11
0.926185
21
1.37727
0
LINE
8
BLACK
6
CONTINUOUS
10
0.926185
20
1.37727
11
0.934373
21
1.38234
0
LINE
8
BLACK
6
CONTINUOUS
10
0.934373
20
1.38234
11
0.934373
21
1.38234
0
LINE
8
BLACK
6
CONTINUOUS
10
0.934373
20
1.38234
11
0.934529
21
1.38244
0
LINE
8
BLACK
6
CONTINUOUS
10
0.934529
20
1.38244
11
0.938418
21
1.38573
0
LINE
8
BLACK
6
CONTINUOUS
10
0.938418
20
1.38573
11
0.940945
21
1.38787
0
LINE
8
BLACK
6
CONTINUOUS
10
0.940945
20
1.38787
11
0.942019
21
1.38878
0
LINE
8
BLACK
6
CONTINUOUS
10
0.942019
20
1.38878
11
0.942019
21
1.38878
0
LINE
8
BLACK
6
CONTINUOUS
10
1.44013
20
1.38005
11
1.44357
21
1.37546
0
LINE
8
BLACK
6
CONTINUOUS
10
1.44357
20
1.37546
11
1.44816
21
1.37202
0
LINE
8
BLACK
6
CONTINUOUS
10
1.44816
20
1.37202
11
1.45353
21
1.37001
0
LINE
8
BLACK
6
CONTINUOUS
10
1.45353
20
1.37001
11
1.45598
21
1.36974
0
LINE
8
BLACK
6
CONTINUOUS
10
1.45598
20
1.36974
11
1.55426
21
1.36974
0
LINE
8
BLACK
6
CONTINUOUS
10
1.55426
20
1.36974
11
1.55671
21
1.37001
0
LINE
8
BLACK
6
CONTINUOUS
10
1.55671
20
1.37001
11
1.56207
21
1.37202
0
LINE
8
BLACK
6
CONTINUOUS
10
1.56207
20
1.37202
11
1.56666
21
1.37546
0
LINE
8
BLACK
6
CONTINUOUS
10
1.56666
20
1.37546
11
1.5701
21
1.38005
0
LINE
8
BLACK
6
CONTINUOUS
10
1.5701
20
1.38005
11
1.57212
21
1.38542
0
LINE
8
BLACK
6
CONTINUOUS
10
1.57212
20
1.38542
11
1.57238
21
1.38787
0
LINE
8
BLACK
6
CONTINUOUS
10
1.57238
20
1.38787
11
1.57238
21
1.48615
0
LINE
8
BLACK
6
CONTINUOUS
10
1.57238
20
1.48615
11
1.57212
21
1.4886
0
LINE
8
BLACK
6
CONTINUOUS
10
1.57212
20
1.4886
11
1.5701
21
1.49396
0
LINE
8
BLACK
6
CONTINUOUS
10
1.5701
20
1.49396
11
1.56666
21
1.49855
0
LINE
8
BLACK
6
CONTINUOUS
10
1.56666
20
1.49855
11
1.56207
21
1.50199
0
LINE
8
BLACK
6
CONTINUOUS
10
1.56207
20
1.50199
11
1.55671
21
1.50401
0
LINE
8
BLACK
6
CONTINUOUS
10
1.55671
20
1.50401
11
1.55426
21
1.50427
0
LINE
8
BLACK
6
CONTINUOUS
10
1.55426
20
1.50427
11
1.45598
21
1.50427
0
LINE
8
BLACK
6
CONTINUOUS
10
1.45598
20
1.50427
11
1.45353
21
1.50401
0
LINE
8
BLACK
6
CONTINUOUS
10
1.45353
20
1.50401
11
1.44816
21
1.50199
0
LINE
8
BLACK
6
CONTINUOUS
10
1.44816
20
1.50199
11
1.44357
21
1.49855
0
LINE
8
BLACK
6
CONTINUOUS
10
1.44357
20
1.49855
11
1.44013
21
1.49396
0
LINE
8
BLACK
6
CONTINUOUS
10
1.44013
20
1.49396
11
1.43812
21
1.4886
0
LINE
8
BLACK
6
CONTINUOUS
10
1.43812
20
1.4886
11
1.43785
21
1.48615
0
LINE
8
BLACK
6
CONTINUOUS
10
1.43785
20
1.48615
11
1.43785
21
1.38787
0
LINE
8
BLACK
6
CONTINUOUS
10
1.43785
20
1.38787
11
1.43812
21
1.38542
0
LINE
8
BLACK
6
CONTINUOUS
10
1.43812
20
1.38542
11
1.44013
21
1.38005
0
LINE
8
BLACK
6
CONTINUOUS
10
0.534621
20
1.38005
11
0.538061
21
1.37546
0
LINE
8
BLACK
6
CONTINUOUS
10
0.538061
20
1.37546
11
0.542649
21
1.37202
0
LINE
8
BLACK
6
CONTINUOUS
10
0.542649
20
1.37202
11
0.548019
21
1.37001
0
LINE
8
BLACK
6
CONTINUOUS
10
0.548019
20
1.37001
11
0.550467
21
1.36974
0
LINE
8
BLACK
6
CONTINUOUS
10
0.550467
20
1.36974
11
0.648745
21
1.36974
0
LINE
8
BLACK
6
CONTINUOUS
10
0.648745
20
1.36974
11
0.651194
21
1.37001
0
LINE
8
BLACK
6
CONTINUOUS
10
0.651194
20
1.37001
11
0.656563
21
1.37202
0
LINE
8
BLACK
6
CONTINUOUS
10
0.656563
20
1.37202
11
0.661152
21
1.37546
0
LINE
8
BLACK
6
CONTINUOUS
10
0.661152
20
1.37546
11
0.664591
21
1.38005
0
LINE
8
BLACK
6
CONTINUOUS
10
0.664591
20
1.38005
11
0.666604
21
1.38542
0
LINE
8
BLACK
6
CONTINUOUS
10
0.666604
20
1.38542
11
0.66687
21
1.38787
0
LINE
8
BLACK
6
CONTINUOUS
10
0.66687
20
1.38787
11
0.66687
21
1.48615
0
LINE
8
BLACK
6
CONTINUOUS
10
0.66687
20
1.48615
11
0.666604
21
1.4886
0
LINE
8
BLACK
6
CONTINUOUS
10
0.666604
20
1.4886
11
0.664591
21
1.49396
0
LINE
8
BLACK
6
CONTINUOUS
10
0.664591
20
1.49396
11
0.661152
21
1.49855
0
LINE
8
BLACK
6
CONTINUOUS
10
0.661152
20
1.49855
11
0.656563
21
1.50199
0
LINE
8
BLACK
6
CONTINUOUS
10
0.656563
20
1.50199
11
0.651194
21
1.50401
0
LINE
8
BLACK
6
CONTINUOUS
10
0.651194
20
1.50401
11
0.648745
21
1.50427
0
LINE
8
BLACK
6
CONTINUOUS
10
0.648745
20
1.50427
11
0.550467
21
1.50427
0
LINE
8
BLACK
6
CONTINUOUS
10
0.550467
20
1.50427
11
0.548019
21
1.50401
0
LINE
8
BLACK
6
CONTINUOUS
10
0.548019
20
1.50401
11
0.542649
21
1.50199
0
LINE
8
BLACK
6
CONTINUOUS
10
0.542649
20
1.50199
11
0.538061
21
1.49855
0
LINE
8
BLACK
6
CONTINUOUS
10
0.538061
20
1.49855
11
0.534621
21
1.49396
0
LINE
8
BLACK
6
CONTINUOUS
10
0.534621
20
1.49396
11
0.532608
21
1.4886
0
LINE
8
BLACK
6
CONTINUOUS
10
0.532608
20
1.4886
11
0.532343
21
1.48615
0
LINE
8
BLACK
6
CONTINUOUS
10
0.532343
20
1.48615
11
0.532343
21
1.38787
0
LINE
8
BLACK
6
CONTINUOUS
10
0.532343
20
1.38787
11
0.532608
21
1.38542
0
LINE
8
BLACK
6
CONTINUOUS
10
0.532608
20
1.38542
11
0.534621
21
1.38005
0
LINE
8
BLACK
6
CONTINUOUS
10
1.08
20
0.147165
11
1.02
21
0.147165
0
LINE
8
BLACK
6
CONTINUOUS
10
1.02
20
0.147165
11
1.02
21
0.207165
0
LINE
8
BLACK
6
CONTINUOUS
10
1.02
20
0.207165
11
1.08
21
0.207165
0
LINE
8
BLACK
6
CONTINUOUS
10
1.08
20
0.207165
11
1.08
21
0.147165
0
LINE
8
BLACK
6
CONTINUOUS
10
1.18
20
0.147165
11
1.12
21
0.147165
0
LINE
8
BLACK
6
CONTINUOUS
10
1.12
20
0.147165
11
1.12
21
0.207165
0
LINE
8
BLACK
6
CONTINUOUS
10
1.12
20
0.207165
11
1.18
21
0.207165
0
LINE
8
BLACK
6
CONTINUOUS
10
1.18
20
0.207165
11
1.18
21
0.147165
0
LINE
8
BLACK
6
CONTINUOUS
10
1.28
20
0.147165
11
1.22
21
0.147165
0
LINE
8
BLACK
6
CONTINUOUS
10
1.22
20
0.147165
11
1.22
21
0.207165
0
LINE
8
BLACK
6
CONTINUOUS
10
1.22
20
0.207165
11
1.28
21
0.207165
0
LINE
8
BLACK
6
CONTINUOUS
10
1.28
20
0.207165
11
1.28
21
0.147165
0
LINE
8
BLACK
6
CONTINUOUS
10
1.38
20
0.147165
11
1.32
21
0.147165
0
LINE
8
BLACK
6
CONTINUOUS
10
1.32
20
0.147165
11
1.32
21
0.207165
0
LINE
8
BLACK
6
CONTINUOUS
10
1.32
20
0.207165
11
1.38
21
0.207165
0
LINE
8
BLACK
6
CONTINUOUS
10
1.38
20
0.207165
11
1.38
21
0.147165
0
LINE
8
BLACK
6
CONTINUOUS
10
1.50259
20
0.397327
11
1.50735
21
0.395904
0
LINE
8
BLACK
6
CONTINUOUS
10
1.50735
20
0.395904
11
1.51152
21
0.393202
0
LINE
8
BLACK
6
CONTINUOUS
10
1.51152
20
0.393202
11
1.51476
21
0.389439
0
LINE
8
BLACK
6
CONTINUOUS
10
1.51476
20
0.389439
11
1.51682
21
0.384917
0
LINE
8
BLACK
6
CONTINUOUS
10
1.51682
20
0.384917
11
1.51752
21
0.38
0
LINE
8
BLACK
6
CONTINUOUS
10
1.51752
20
0.38
11
1.51751
21
0.379572
0
LINE
8
BLACK
6
CONTINUOUS
10
1.51751
20
0.379572
11
1.51669
21
0.374673
0
LINE
8
BLACK
6
CONTINUOUS
10
1.51669
20
0.374673
11
1.51452
21
0.370203
0
LINE
8
BLACK
6
CONTINUOUS
10
1.51452
20
0.370203
11
1.51119
21
0.36652
0
LINE
8
BLACK
6
CONTINUOUS
10
1.51119
20
0.36652
11
1.50696
21
0.363921
0
LINE
8
BLACK
6
CONTINUOUS
10
1.50696
20
0.363921
11
1.50217
21
0.362615
0
LINE
8
BLACK
6
CONTINUOUS
10
1.50217
20
0.362615
11
1.4972
21
0.362706
0
LINE
8
BLACK
6
CONTINUOUS
10
1.4972
20
0.362706
11
1.49246
21
0.364187
0
LINE
8
BLACK
6
CONTINUOUS
10
1.49246
20
0.364187
11
1.48893
21
0.366535
0
LINE
8
BLACK
6
CONTINUOUS
10
1.48893
20
0.366535
11
1.06448
21
0.366535
0
LINE
8
BLACK
6
CONTINUOUS
10
1.06448
20
0.366535
11
1.06119
21
0.362898
0
LINE
8
BLACK
6
CONTINUOUS
10
1.06119
20
0.362898
11
1.05696
21
0.360299
0
LINE
8
BLACK
6
CONTINUOUS
10
1.05696
20
0.360299
11
1.05217
21
0.358993
0
LINE
8
BLACK
6
CONTINUOUS
10
1.05217
20
0.358993
11
1.0472
21
0.359084
0
LINE
8
BLACK
6
CONTINUOUS
10
1.0472
20
0.359084
11
1.04246
21
0.360565
0
LINE
8
BLACK
6
CONTINUOUS
10
1.04246
20
0.360565
11
1.03832
21
0.363317
0
LINE
8
BLACK
6
CONTINUOUS
10
1.03832
20
0.363317
11
1.03513
21
0.36712
0
LINE
8
BLACK
6
CONTINUOUS
10
1.03513
20
0.36712
11
1.03313
21
0.371667
0
LINE
8
BLACK
6
CONTINUOUS
10
1.03313
20
0.371667
11
1.03248
21
0.376592
0
LINE
8
BLACK
6
CONTINUOUS
10
1.03248
20
0.376592
11
1.03325
21
0.3815
0
LINE
8
BLACK
6
CONTINUOUS
10
1.03325
20
0.3815
11
1.03536
21
0.385997
0
LINE
8
BLACK
6
CONTINUOUS
10
1.03536
20
0.385997
11
1.03865
21
0.38972
0
LINE
8
BLACK
6
CONTINUOUS
10
1.03865
20
0.38972
11
1.04285
21
0.392371
0
LINE
8
BLACK
6
CONTINUOUS
10
1.04285
20
0.392371
11
1.04762
21
0.393736
0
LINE
8
BLACK
6
CONTINUOUS
10
1.04762
20
0.393736
11
1.05259
21
0.393705
0
LINE
8
BLACK
6
CONTINUOUS
10
1.05259
20
0.393705
11
1.05735
21
0.392282
0
LINE
8
BLACK
6
CONTINUOUS
10
1.05735
20
0.392282
11
1.06152
21
0.38958
0
LINE
8
BLACK
6
CONTINUOUS
10
1.06152
20
0.38958
11
1.06441
21
0.38622
0
LINE
8
BLACK
6
CONTINUOUS
10
1.06441
20
0.38622
11
1.48376
21
0.38622
0
LINE
8
BLACK
6
CONTINUOUS
10
1.48376
20
0.38622
11
1.48536
21
0.389619
0
LINE
8
BLACK
6
CONTINUOUS
10
1.48536
20
0.389619
11
1.48865
21
0.393342
0
LINE
8
BLACK
6
CONTINUOUS
10
1.48865
20
0.393342
11
1.49285
21
0.395993
0
LINE
8
BLACK
6
CONTINUOUS
10
1.49285
20
0.395993
11
1.49762
21
0.397358
0
LINE
8
BLACK
6
CONTINUOUS
10
1.49762
20
0.397358
11
1.50259
21
0.397327
0
LINE
8
BLACK
6
CONTINUOUS
10
1.55236
20
0.484252
11
1.45787
21
0.484252
0
LINE
8
BLACK
6
CONTINUOUS
10
1.45787
20
0.484252
11
1.45787
21
0.57874
0
LINE
8
BLACK
6
CONTINUOUS
10
1.45787
20
0.57874
11
1.55236
21
0.57874
0
LINE
8
BLACK
6
CONTINUOUS
10
1.55236
20
0.57874
11
1.55236
21
0.484252
0
LINE
8
BLACK
6
CONTINUOUS
10
1.80533
20
0.578481
11
1.81381
21
0.576795
0
LINE
8
BLACK
6
CONTINUOUS
10
1.81381
20
0.576795
11
1.82184
21
0.573591
0
LINE
8
BLACK
6
CONTINUOUS
10
1.82184
20
0.573591
11
1.82915
21
0.568977
0
LINE
8
BLACK
6
CONTINUOUS
10
1.82915
20
0.568977
11
1.8355
21
0.563109
0
LINE
8
BLACK
6
CONTINUOUS
10
1.8355
20
0.563109
11
1.84068
21
0.556181
0
LINE
8
BLACK
6
CONTINUOUS
10
1.84068
20
0.556181
11
1.8445
21
0.548427
0
LINE
8
BLACK
6
CONTINUOUS
10
1.8445
20
0.548427
11
1.84685
21
0.540106
0
LINE
8
BLACK
6
CONTINUOUS
10
1.84685
20
0.540106
11
1.84764
21
0.531496
0
LINE
8
BLACK
6
CONTINUOUS
10
1.84764
20
0.531496
11
1.84757
21
0.529024
0
LINE
8
BLACK
6
CONTINUOUS
10
1.84757
20
0.529024
11
1.84633
21
0.520467
0
LINE
8
BLACK
6
CONTINUOUS
10
1.84633
20
0.520467
11
1.84355
21
0.51228
0
LINE
8
BLACK
6
CONTINUOUS
10
1.84355
20
0.51228
11
1.83933
21
0.504737
0
LINE
8
BLACK
6
CONTINUOUS
10
1.83933
20
0.504737
11
1.8338
21
0.498089
0
LINE
8
BLACK
6
CONTINUOUS
10
1.8338
20
0.498089
11
1.82715
21
0.492561
0
LINE
8
BLACK
6
CONTINUOUS
10
1.82715
20
0.492561
11
1.81961
21
0.488336
0
LINE
8
BLACK
6
CONTINUOUS
10
1.81961
20
0.488336
11
1.81142
21
0.485557
0
LINE
8
BLACK
6
CONTINUOUS
10
1.81142
20
0.485557
11
1.80287
21
0.484317
0
LINE
8
BLACK
6
CONTINUOUS
10
1.80287
20
0.484317
11
1.79423
21
0.484656
0
LINE
8
BLACK
6
CONTINUOUS
10
1.79423
20
0.484656
11
1.78579
21
0.486564
0
LINE
8
BLACK
6
CONTINUOUS
10
1.78579
20
0.486564
11
1.77785
21
0.489977
0
LINE
8
BLACK
6
CONTINUOUS
10
1.77785
20
0.489977
11
1.77066
21
0.494781
0
LINE
8
BLACK
6
CONTINUOUS
10
1.77066
20
0.494781
11
1.76447
21
0.500813
0
LINE
8
BLACK
6
CONTINUOUS
10
1.76447
20
0.500813
11
1.75948
21
0.507874
0
LINE
8
BLACK
6
CONTINUOUS
10
1.75948
20
0.507874
11
1.75586
21
0.515726
0
LINE
8
BLACK
6
CONTINUOUS
10
1.75586
20
0.515726
11
1.75373
21
0.524105
0
LINE
8
BLACK
6
CONTINUOUS
10
1.75373
20
0.524105
11
1.75317
21
0.532733
0
LINE
8
BLACK
6
CONTINUOUS
10
1.75317
20
0.532733
11
1.75418
21
0.541319
0
LINE
8
BLACK
6
CONTINUOUS
10
1.75418
20
0.541319
11
1.75675
21
0.549576
0
LINE
8
BLACK
6
CONTINUOUS
10
1.75675
20
0.549576
11
1.76077
21
0.557227
0
LINE
8
BLACK
6
CONTINUOUS
10
1.76077
20
0.557227
11
1.76612
21
0.564017
0
LINE
8
BLACK
6
CONTINUOUS
10
1.76612
20
0.564017
11
1.77262
21
0.569717
0
LINE
8
BLACK
6
CONTINUOUS
10
1.77262
20
0.569717
11
1.78005
21
0.574138
0
LINE
8
BLACK
6
CONTINUOUS
10
1.78005
20
0.574138
11
1.78817
21
0.57713
0
LINE
8
BLACK
6
CONTINUOUS
10
1.78817
20
0.57713
11
1.79669
21
0.578595
0
LINE
8
BLACK
6
CONTINUOUS
10
1.79669
20
0.578595
11
1.80533
21
0.578481
0
LINE
8
BLACK
6
CONTINUOUS
10
0.89982
20
0.578481
11
0.9083
21
0.576795
0
LINE
8
BLACK
6
CONTINUOUS
10
0.9083
20
0.576795
11
0.91633
21
0.573591
0
LINE
8
BLACK
6
CONTINUOUS
10
0.91633
20
0.573591
11
0.923642
21
0.568977
0
LINE
8
BLACK
6
CONTINUOUS
10
0.923642
20
0.568977
11
0.929991
21
0.563109
0
LINE
8
BLACK
6
CONTINUOUS
10
0.929991
20
0.563109
11
0.935164
21
0.556181
0
LINE
8
BLACK
6
CONTINUOUS
10
0.935164
20
0.556181
11
0.938988
21
0.548427
0
LINE
8
BLACK
6
CONTINUOUS
10
0.938988
20
0.548427
11
0.941335
21
0.540106
0
LINE
8
BLACK
6
CONTINUOUS
10
0.941335
20
0.540106
11
0.942126
21
0.531496
0
LINE
8
BLACK
6
CONTINUOUS
10
0.942126
20
0.531496
11
0.942061
21
0.529024
0
LINE
8
BLACK
6
CONTINUOUS
10
0.942061
20
0.529024
11
0.940821
21
0.520467
0
LINE
8
BLACK
6
CONTINUOUS
10
0.940821
20
0.520467
11
0.938042
21
0.51228
0
LINE
8
BLACK
6
CONTINUOUS
10
0.938042
20
0.51228
11
0.933817
21
0.504737
0
LINE
8
BLACK
6
CONTINUOUS
10
0.933817
20
0.504737
11
0.928289
21
0.498089
0
LINE
8
BLACK
6
CONTINUOUS
10
0.928289
20
0.498089
11
0.921641
21
0.492561
0
LINE
8
BLACK
6
CONTINUOUS
10
0.921641
20
0.492561
11
0.914098
21
0.488336
0
LINE
8
BLACK
6
CONTINUOUS
10
0.914098
20
0.488336
11
0.905911
21
0.485557
0
LINE
8
BLACK
6
CONTINUOUS
10
0.905911
20
0.485557
11
0.897354
21
0.484317
0
LINE
8
BLACK
6
CONTINUOUS
10
0.897354
20
0.484317
11
0.888715
21
0.484656
0
LINE
8
BLACK
6
CONTINUOUS
10
0.888715
20
0.484656
11
0.880283
21
0.486564
0
LINE
8
BLACK
6
CONTINUOUS
10
0.880283
20
0.486564
11
0.872339
21
0.489977
0
LINE
8
BLACK
6
CONTINUOUS
10
0.872339
20
0.489977
11
0.86515
21
0.494781
0
LINE
8
BLACK
6
CONTINUOUS
10
0.86515
20
0.494781
11
0.858957
21
0.500813
0
LINE
8
BLACK
6
CONTINUOUS
10
0.858957
20
0.500813
11
0.853967
21
0.507874
0
LINE
8
BLACK
6
CONTINUOUS
10
0.853967
20
0.507874
11
0.850348
21
0.515726
0
LINE
8
BLACK
6
CONTINUOUS
10
0.850348
20
0.515726
11
0.848219
21
0.524105
0
LINE
8
BLACK
6
CONTINUOUS
10
0.848219
20
0.524105
11
0.847654
21
0.532733
0
LINE
8
BLACK
6
CONTINUOUS
10
0.847654
20
0.532733
11
0.84867
21
0.541319
0
LINE
8
BLACK
6
CONTINUOUS
10
0.84867
20
0.541319
11
0.851234
21
0.549576
0
LINE
8
BLACK
6
CONTINUOUS
10
0.851234
20
0.549576
11
0.85526
21
0.557227
0
LINE
8
BLACK
6
CONTINUOUS
10
0.85526
20
0.557227
11
0.860612
21
0.564017
0
LINE
8
BLACK
6
CONTINUOUS
10
0.860612
20
0.564017
11
0.867113
21
0.569717
0
LINE
8
BLACK
6
CONTINUOUS
10
0.867113
20
0.569717
11
0.874543
21
0.574138
0
LINE
8
BLACK
6
CONTINUOUS
10
0.874543
20
0.574138
11
0.882654
21
0.57713
0
LINE
8
BLACK
6
CONTINUOUS
10
0.882654
20
0.57713
11
0.891175
21
0.578595
0
LINE
8
BLACK
6
CONTINUOUS
10
0.891175
20
0.578595
11
0.89982
21
0.578481
0
LINE
8
BLACK
6
CONTINUOUS
10
1.11259
20
0.707327
11
1.11735
21
0.705904
0
LINE
8
BLACK
6
CONTINUOUS
10
1.11735
20
0.705904
11
1.12152
21
0.703202
0
LINE
8
BLACK
6
CONTINUOUS
10
1.12152
20
0.703202
11
1.12476
21
0.699439
0
LINE
8
BLACK
6
CONTINUOUS
10
1.12476
20
0.699439
11
1.12682
21
0.694917
0
LINE
8
BLACK
6
CONTINUOUS
10
1.12682
20
0.694917
11
1.12752
21
0.69
0
LINE
8
BLACK
6
CONTINUOUS
10
1.12752
20
0.69
11
1.12751
21
0.689572
0
LINE
8
BLACK
6
CONTINUOUS
10
1.12751
20
0.689572
11
1.12669
21
0.684673
0
LINE
8
BLACK
6
CONTINUOUS
10
1.12669
20
0.684673
11
1.12452
21
0.680203
0
LINE
8
BLACK
6
CONTINUOUS
10
1.12452
20
0.680203
11
1.12119
21
0.67652
0
LINE
8
BLACK
6
CONTINUOUS
10
1.12119
20
0.67652
11
1.11696
21
0.673921
0
LINE
8
BLACK
6
CONTINUOUS
10
1.11696
20
0.673921
11
1.11217
21
0.672615
0
LINE
8
BLACK
6
CONTINUOUS
10
1.11217
20
0.672615
11
1.1072
21
0.672706
0
LINE
8
BLACK
6
CONTINUOUS
10
1.1072
20
0.672706
11
1.10246
21
0.674187
0
LINE
8
BLACK
6
CONTINUOUS
10
1.10246
20
0.674187
11
1.09832
21
0.676939
0
LINE
8
BLACK
6
CONTINUOUS
10
1.09832
20
0.676939
11
1.09562
21
0.680157
0
LINE
8
BLACK
6
CONTINUOUS
10
1.09562
20
0.680157
11
0.614299
21
0.680157
0
LINE
8
BLACK
6
CONTINUOUS
10
0.614299
20
0.680157
11
0.614131
21
0.679809
0
LINE
8
BLACK
6
CONTINUOUS
10
0.614131
20
0.679809
11
0.610797
21
0.676127
0
LINE
8
BLACK
6
CONTINUOUS
10
0.610797
20
0.676127
11
0.606564
21
0.673528
0
LINE
8
BLACK
6
CONTINUOUS
10
0.606564
20
0.673528
11
0.601772
21
0.672221
0
LINE
8
BLACK
6
CONTINUOUS
10
0.601772
20
0.672221
11
0.596805
21
0.672312
0
LINE
8
BLACK
6
CONTINUOUS
10
0.596805
20
0.672312
11
0.592064
21
0.673793
0
LINE
8
BLACK
6
CONTINUOUS
10
0.592064
20
0.673793
11
0.587929
21
0.676546
0
LINE
8
BLACK
6
CONTINUOUS
10
0.587929
20
0.676546
11
0.584733
21
0.680348
0
LINE
8
BLACK
6
CONTINUOUS
10
0.584733
20
0.680348
11
0.582732
21
0.684895
0
LINE
8
BLACK
6
CONTINUOUS
10
0.582732
20
0.684895
11
0.582088
21
0.68982
0
LINE
8
BLACK
6
CONTINUOUS
10
0.582088
20
0.68982
11
0.582852
21
0.694729
0
LINE
8
BLACK
6
CONTINUOUS
10
0.582852
20
0.694729
11
0.584963
21
0.699225
0
LINE
8
BLACK
6
CONTINUOUS
10
0.584963
20
0.699225
11
0.588251
21
0.702948
0
LINE
8
BLACK
6
CONTINUOUS
10
0.588251
20
0.702948
11
0.592452
21
0.705599
0
LINE
8
BLACK
6
CONTINUOUS
10
0.592452
20
0.705599
11
0.597229
21
0.706964
0
LINE
8
BLACK
6
CONTINUOUS
10
0.597229
20
0.706964
11
0.602196
21
0.706934
0
LINE
8
BLACK
6
CONTINUOUS
10
0.602196
20
0.706934
11
0.606955
21
0.70551
0
LINE
8
BLACK
6
CONTINUOUS
10
0.606955
20
0.70551
11
0.611123
21
0.702809
0
LINE
8
BLACK
6
CONTINUOUS
10
0.611123
20
0.702809
11
0.613679
21
0.699843
0
LINE
8
BLACK
6
CONTINUOUS
10
0.613679
20
0.699843
11
1.09555
21
0.699843
0
LINE
8
BLACK
6
CONTINUOUS
10
1.09555
20
0.699843
11
1.09865
21
0.703342
0
LINE
8
BLACK
6
CONTINUOUS
10
1.09865
20
0.703342
11
1.10285
21
0.705993
0
LINE
8
BLACK
6
CONTINUOUS
10
1.10285
20
0.705993
11
1.10762
21
0.707358
0
LINE
8
BLACK
6
CONTINUOUS
10
1.10762
20
0.707358
11
1.11259
21
0.707327
0
LINE
8
BLACK
6
CONTINUOUS
10
1.55236
20
1.38976
11
1.45787
21
1.38976
0
LINE
8
BLACK
6
CONTINUOUS
10
1.45787
20
1.38976
11
1.45787
21
1.48425
0
LINE
8
BLACK
6
CONTINUOUS
10
1.45787
20
1.48425
11
1.55236
21
1.48425
0
LINE
8
BLACK
6
CONTINUOUS
10
1.55236
20
1.48425
11
1.55236
21
1.38976
0
LINE
8
BLACK
6
CONTINUOUS
10
1.80533
20
1.48399
11
1.81381
21
1.48231
0
LINE
8
BLACK
6
CONTINUOUS
10
1.81381
20
1.48231
11
1.82184
21
1.4791
0
LINE
8
BLACK
6
CONTINUOUS
10
1.82184
20
1.4791
11
1.82915
21
1.47449
0
LINE
8
BLACK
6
CONTINUOUS
10
1.82915
20
1.47449
11
1.8355
21
1.46862
0
LINE
8
BLACK
6
CONTINUOUS
10
1.8355
20
1.46862
11
1.84068
21
1.46169
0
LINE
8
BLACK
6
CONTINUOUS
10
1.84068
20
1.46169
11
1.8445
21
1.45394
0
LINE
8
BLACK
6
CONTINUOUS
10
1.8445
20
1.45394
11
1.84685
21
1.44562
0
LINE
8
BLACK
6
CONTINUOUS
10
1.84685
20
1.44562
11
1.84764
21
1.43701
0
LINE
8
BLACK
6
CONTINUOUS
10
1.84764
20
1.43701
11
1.84757
21
1.43454
0
LINE
8
BLACK
6
CONTINUOUS
10
1.84757
20
1.43454
11
1.84633
21
1.42598
0
LINE
8
BLACK
6
CONTINUOUS
10
1.84633
20
1.42598
11
1.84355
21
1.41779
0
LINE
8
BLACK
6
CONTINUOUS
10
1.84355
20
1.41779
11
1.83933
21
1.41025
0
LINE
8
BLACK
6
CONTINUOUS
10
1.83933
20
1.41025
11
1.8338
21
1.4036
0
LINE
8
BLACK
6
CONTINUOUS
10
1.8338
20
1.4036
11
1.82715
21
1.39807
0
LINE
8
BLACK
6
CONTINUOUS
10
1.82715
20
1.39807
11
1.81961
21
1.39385
0
LINE
8
BLACK
6
CONTINUOUS
10
1.81961
20
1.39385
11
1.81142
21
1.39107
0
LINE
8
BLACK
6
CONTINUOUS
10
1.81142
20
1.39107
11
1.80287
21
1.38983
0
LINE
8
BLACK
6
CONTINUOUS
10
1.80287
20
1.38983
11
1.79423
21
1.39017
0
LINE
8
BLACK
6
CONTINUOUS
10
1.79423
20
1.39017
11
1.78579
21
1.39208
0
LINE
8
BLACK
6
CONTINUOUS
10
1.78579
20
1.39208
11
1.77785
21
1.39549
0
LINE
8
BLACK
6
CONTINUOUS
10
1.77785
20
1.39549
11
1.77066
21
1.40029
0
LINE
8
BLACK
6
CONTINUOUS
10
1.77066
20
1.40029
11
1.76447
21
1.40633
0
LINE
8
BLACK
6
CONTINUOUS
10
1.76447
20
1.40633
11
1.75948
21
1.41339
0
LINE
8
BLACK
6
CONTINUOUS
10
1.75948
20
1.41339
11
1.75586
21
1.42124
0
LINE
8
BLACK
6
CONTINUOUS
10
1.75586
20
1.42124
11
1.75373
21
1.42962
0
LINE
8
BLACK
6
CONTINUOUS
10
1.75373
20
1.42962
11
1.75317
21
1.43824
0
LINE
8
BLACK
6
CONTINUOUS
10
1.75317
20
1.43824
11
1.75418
21
1.44683
0
LINE
8
BLACK
6
CONTINUOUS
10
1.75418
20
1.44683
11
1.75675
21
1.45509
0
LINE
8
BLACK
6
CONTINUOUS
10
1.75675
20
1.45509
11
1.76077
21
1.46274
0
LINE
8
BLACK
6
CONTINUOUS
10
1.76077
20
1.46274
11
1.76612
21
1.46953
0
LINE
8
BLACK
6
CONTINUOUS
10
1.76612
20
1.46953
11
1.77262
21
1.47523
0
LINE
8
BLACK
6
CONTINUOUS
10
1.77262
20
1.47523
11
1.78005
21
1.47965
0
LINE
8
BLACK
6
CONTINUOUS
10
1.78005
20
1.47965
11
1.78817
21
1.48264
0
LINE
8
BLACK
6
CONTINUOUS
10
1.78817
20
1.48264
11
1.79669
21
1.48411
0
LINE
8
BLACK
6
CONTINUOUS
10
1.79669
20
1.48411
11
1.80533
21
1.48399
0
LINE
8
BLACK
6
CONTINUOUS
10
0.89982
20
1.48399
11
0.9083
21
1.48231
0
LINE
8
BLACK
6
CONTINUOUS
10
0.9083
20
1.48231
11
0.91633
21
1.4791
0
LINE
8
BLACK
6
CONTINUOUS
10
0.91633
20
1.4791
11
0.923642
21
1.47449
0
LINE
8
BLACK
6
CONTINUOUS
10
0.923642
20
1.47449
11
0.929991
21
1.46862
0
LINE
8
BLACK
6
CONTINUOUS
10
0.929991
20
1.46862
11
0.935164
21
1.46169
0
LINE
8
BLACK
6
CONTINUOUS
10
0.935164
20
1.46169
11
0.938988
21
1.45394
0
LINE
8
BLACK
6
CONTINUOUS
10
0.938988
20
1.45394
11
0.941335
21
1.44562
0
LINE
8
BLACK
6
CONTINUOUS
10
0.941335
20
1.44562
11
0.942126
21
1.43701
0
LINE
8
BLACK
6
CONTINUOUS
10
0.942126
20
1.43701
11
0.942061
21
1.43454
0
LINE
8
BLACK
6
CONTINUOUS
10
0.942061
20
1.43454
11
0.940821
21
1.42598
0
LINE
8
BLACK
6
CONTINUOUS
10
0.940821
20
1.42598
11
0.938042
21
1.41779
0
LINE
8
BLACK
6
CONTINUOUS
10
0.938042
20
1.41779
11
0.933817
21
1.41025
0
LINE
8
BLACK
6
CONTINUOUS
10
0.933817
20
1.41025
11
0.928289
21
1.4036
0
LINE
8
BLACK
6
CONTINUOUS
10
0.928289
20
1.4036
11
0.921641
21
1.39807
0
LINE
8
BLACK
6
CONTINUOUS
10
0.921641
20
1.39807
11
0.914098
21
1.39385
0
LINE
8
BLACK
6
CONTINUOUS
10
0.914098
20
1.39385
11
0.905911
21
1.39107
0
LINE
8
BLACK
6
CONTINUOUS
10
0.905911
20
1.39107
11
0.897354
21
1.38983
0
LINE
8
BLACK
6
CONTINUOUS
10
0.897354
20
1.38983
11
0.888715
21
1.39017
0
LINE
8
BLACK
6
CONTINUOUS
10
0.888715
20
1.39017
11
0.880283
21
1.39208
0
LINE
8
BLACK
6
CONTINUOUS
10
0.880283
20
1.39208
11
0.872339
21
1.39549
0
LINE
8
BLACK
6
CONTINUOUS
10
0.872339
20
1.39549
11
0.86515
21
1.40029
0
LINE
8
BLACK
6
CONTINUOUS
10
0.86515
20
1.40029
11
0.858957
21
1.40633
0
LINE
8
BLACK
6
CONTINUOUS
10
0.858957
20
1.40633
11
0.853967
21
1.41339
0
LINE
8
BLACK
6
CONTINUOUS
10
0.853967
20
1.41339
11
0.850348
21
1.42124
0
LINE
8
BLACK
6
CONTINUOUS
10
0.850348
20
1.42124
11
0.848219
21
1.42962
0
LINE
8
BLACK
6
CONTINUOUS
10
0.848219
20
1.42962
11
0.847654
21
1.43824
0
LINE
8
BLACK
6
CONTINUOUS
10
0.847654
20
1.43824
11
0.84867
21
1.44683
0
LINE
8
BLACK
6
CONTINUOUS
10
0.84867
20
1.44683
11
0.851234
21
1.45509
0
LINE
8
BLACK
6
CONTINUOUS
10
0.851234
20
1.45509
11
0.85526
21
1.46274
0
LINE
8
BLACK
6
CONTINUOUS
10
0.85526
20
1.46274
11
0.860612
21
1.46953
0
LINE
8
BLACK
6
CONTINUOUS
10
0.860612
20
1.46953
11
0.867113
21
1.47523
0
LINE
8
BLACK
6
CONTINUOUS
10
0.867113
20
1.47523
11
0.874543
21
1.47965
0
LINE
8
BLACK
6
CONTINUOUS
10
0.874543
20
1.47965
11
0.882654
21
1.48264
0
LINE
8
BLACK
6
CONTINUOUS
10
0.882654
20
1.48264
11
0.891175
21
1.48411
0
LINE
8
BLACK
6
CONTINUOUS
10
0.891175
20
1.48411
11
0.89982
21
1.48399
0
LINE
8
BLACK
6
CONTINUOUS
10
0.64685
20
0.484252
11
0.552362
21
0.484252
0
LINE
8
BLACK
6
CONTINUOUS
10
0.552362
20
0.484252
11
0.552362
21
0.57874
0
LINE
8
BLACK
6
CONTINUOUS
10
0.552362
20
0.57874
11
0.64685
21
0.57874
0
LINE
8
BLACK
6
CONTINUOUS
10
0.64685
20
0.57874
11
0.64685
21
0.484252
0
LINE
8
BLACK
6
CONTINUOUS
10
0.64685
20
1.38976
11
0.552362
21
1.38976
0
LINE
8
BLACK
6
CONTINUOUS
10
0.552362
20
1.38976
11
0.552362
21
1.48425
0
LINE
8
BLACK
6
CONTINUOUS
10
0.552362
20
1.48425
11
0.64685
21
1.48425
0
LINE
8
BLACK
6
CONTINUOUS
10
0.64685
20
1.48425
11
0.64685
21
1.38976
0
CIRCLE
8
BLACK
10
0.599606
20
0.689606
40
0.00984252
0
CIRCLE
8
BLACK
10
1.11
20
0.69
40
0.00984252
0
CIRCLE
8
BLACK
10
1.5
20
0.38
40
0.00984252
0
CIRCLE
8
BLACK
10
1.05
20
0.376378
40
0.00984252
  0
ENDSEC
  0
EOF
