  0
SECTION
  2
HEADER
  9
$ANGBASE
  50
0.0
  9
$ANGDIR
  70
1
  9
$MEASUREMENT
  70
0
  0
ENDSEC
  0
SECTION
  2
TABLES
  0
TABLE
  2
LTYPE
  70
4
  0
LTYPE
  5
40F
  2
CONTINUOUS
  70
0
  3
Solid line
  72
65
  73
0
  40
0.0
  0
LTYPE
  5
410
  2
DASHDOT
 70
0
  3
Dash Dot ____ _ ____ _
 72
65
 73
4
 40
2.0
 49
1.25
 49
-0.25
 49
0.25
 49
-0.25
  0
LTYPE
  5
411
  2
DASHED
 70
0
  3
Dashed __ __ __ __ __
 72
65
 73
2
 40
0.75
 49
0.5
 49
-0.25
  0
LTYPE
  5
43B
  2
DOTTED
 70
0
  3
Dotted .  .  .  .
 72
65
 73
2
 40
0.2
 49
0.0
 49
-0.2
  0
ENDTAB
  0
TABLE
  2
STYLE
  70
4
  0
STYLE
  2
KICAD
  70
0
  40
0
  41
1
  42
1
  50
0
  71
0
  3
isocp.shx
  0
STYLE
  2
KICADB
  70
0
  40
0
  41
1
  42
1
  50
0
  71
0
  3
isocp.shx
  0
STYLE
  2
KICADI
  70
0
  40
0
  41
1
  42
1
  50
15
  71
0
  3
isocp.shx
  0
STYLE
  2
KICADBI
  70
0
  40
0
  41
1
  42
1
  50
15
  71
0
  3
isocp.shx
  0
ENDTAB
  0
TABLE
  2
LAYER
  70
1
  0
LAYER
  2
BLACK
  70
0
  62
7
  6
CONTINUOUS
  0
ENDTAB
  0
ENDSEC
  0
SECTION
  2
ENTITIES
0
LINE
8
BLACK
6
CONTINUOUS
10
0.0179509
20
1.57402
11
0.0179513
21
1.57424
0
LINE
8
BLACK
6
CONTINUOUS
10
0.0179513
20
1.57424
11
0.0180765
21
1.57479
0
LINE
8
BLACK
6
CONTINUOUS
10
0.0180765
20
1.57479
11
0.0179532
21
1.57533
0
LINE
8
BLACK
6
CONTINUOUS
10
0.0179532
20
1.57533
11
0.0179541
21
1.57582
0
LINE
8
BLACK
6
CONTINUOUS
10
0.0179541
20
1.57582
11
0.0179165
21
1.57621
0
LINE
8
BLACK
6
CONTINUOUS
10
0.0179165
20
1.57621
11
0.0185734
21
1.59795
0
LINE
8
BLACK
6
CONTINUOUS
10
0.0185734
20
1.59795
11
0.0185915
21
1.59825
0
LINE
8
BLACK
6
CONTINUOUS
10
0.0185915
20
1.59825
11
0.0206735
21
1.62116
0
LINE
8
BLACK
6
CONTINUOUS
10
0.0206735
20
1.62116
11
0.0207096
21
1.62146
0
LINE
8
BLACK
6
CONTINUOUS
10
0.0207096
20
1.62146
11
0.0241714
21
1.6442
0
LINE
8
BLACK
6
CONTINUOUS
10
0.0241714
20
1.6442
11
0.0242254
21
1.6445
0
LINE
8
BLACK
6
CONTINUOUS
10
0.0242254
20
1.6445
11
0.0290541
21
1.66699
0
LINE
8
BLACK
6
CONTINUOUS
10
0.0290541
20
1.66699
11
0.0291258
21
1.66728
0
LINE
8
BLACK
6
CONTINUOUS
10
0.0291258
20
1.66728
11
0.0310783
21
1.67429
0
LINE
8
BLACK
6
CONTINUOUS
10
0.0310783
20
1.67429
11
0.0353037
21
1.68944
0
LINE
8
BLACK
6
CONTINUOUS
10
0.0353037
20
1.68944
11
0.0353925
21
1.68973
0
LINE
8
BLACK
6
CONTINUOUS
10
0.0353925
20
1.68973
11
0.0428978
21
1.71148
0
LINE
8
BLACK
6
CONTINUOUS
10
0.0428978
20
1.71148
11
0.0430039
21
1.71176
0
LINE
8
BLACK
6
CONTINUOUS
10
0.0430039
20
1.71176
11
0.0452865
21
1.71727
0
LINE
8
BLACK
6
CONTINUOUS
10
0.0452865
20
1.71727
11
0.0518081
21
1.73301
0
LINE
8
BLACK
6
CONTINUOUS
10
0.0518081
20
1.73301
11
0.0519311
21
1.73329
0
LINE
8
BLACK
6
CONTINUOUS
10
0.0519311
20
1.73329
11
0.0620026
21
1.75397
0
LINE
8
BLACK
6
CONTINUOUS
10
0.0620026
20
1.75397
11
0.0621418
21
1.75424
0
LINE
8
BLACK
6
CONTINUOUS
10
0.0621418
20
1.75424
11
0.0734439
21
1.77428
0
LINE
8
BLACK
6
CONTINUOUS
10
0.0734439
20
1.77428
11
0.0735989
21
1.77453
0
LINE
8
BLACK
6
CONTINUOUS
10
0.0735989
20
1.77453
11
0.0788462
21
1.78265
0
LINE
8
BLACK
6
CONTINUOUS
10
0.0788462
20
1.78265
11
0.0860902
21
1.79385
0
LINE
8
BLACK
6
CONTINUOUS
10
0.0860902
20
1.79385
11
0.0862602
21
1.7941
0
LINE
8
BLACK
6
CONTINUOUS
10
0.0862602
20
1.7941
11
0.0998957
21
1.81263
0
LINE
8
BLACK
6
CONTINUOUS
10
0.0998957
20
1.81263
11
0.10008
21
1.81287
0
LINE
8
BLACK
6
CONTINUOUS
10
0.10008
20
1.81287
11
0.114809
21
1.83054
0
LINE
8
BLACK
6
CONTINUOUS
10
0.114809
20
1.83054
11
0.115008
21
1.83076
0
LINE
8
BLACK
6
CONTINUOUS
10
0.115008
20
1.83076
11
0.12485
21
1.84122
0
LINE
8
BLACK
6
CONTINUOUS
10
0.12485
20
1.84122
11
0.130778
21
1.84752
0
LINE
8
BLACK
6
CONTINUOUS
10
0.130778
20
1.84752
11
0.130989
21
1.84773
0
LINE
8
BLACK
6
CONTINUOUS
10
0.130989
20
1.84773
11
0.139787
21
1.85601
0
LINE
8
BLACK
6
CONTINUOUS
10
0.139787
20
1.85601
11
0.147741
21
1.8635
0
LINE
8
BLACK
6
CONTINUOUS
10
0.147741
20
1.8635
11
0.147966
21
1.86369
0
LINE
8
BLACK
6
CONTINUOUS
10
0.147966
20
1.86369
11
0.165639
21
1.87842
0
LINE
8
BLACK
6
CONTINUOUS
10
0.165639
20
1.87842
11
0.165875
21
1.87861
0
LINE
8
BLACK
6
CONTINUOUS
10
0.165875
20
1.87861
11
0.184406
21
1.89224
0
LINE
8
BLACK
6
CONTINUOUS
10
0.184406
20
1.89224
11
0.184652
21
1.89241
0
LINE
8
BLACK
6
CONTINUOUS
10
0.184652
20
1.89241
11
0.19636
21
1.89998
0
LINE
8
BLACK
6
CONTINUOUS
10
0.19636
20
1.89998
11
0.203972
21
1.90491
0
LINE
8
BLACK
6
CONTINUOUS
10
0.203972
20
1.90491
11
0.204229
21
1.90506
0
LINE
8
BLACK
6
CONTINUOUS
10
0.204229
20
1.90506
11
0.224268
21
1.91636
0
LINE
8
BLACK
6
CONTINUOUS
10
0.224268
20
1.91636
11
0.224533
21
1.9165
0
LINE
8
BLACK
6
CONTINUOUS
10
0.224533
20
1.9165
11
0.245218
21
1.92657
0
LINE
8
BLACK
6
CONTINUOUS
10
0.245218
20
1.92657
11
0.245491
21
1.9267
0
LINE
8
BLACK
6
CONTINUOUS
10
0.245491
20
1.9267
11
0.255186
21
1.93071
0
LINE
8
BLACK
6
CONTINUOUS
10
0.255186
20
1.93071
11
0.266747
21
1.9355
0
LINE
8
BLACK
6
CONTINUOUS
10
0.266747
20
1.9355
11
0.267026
21
1.93561
0
LINE
8
BLACK
6
CONTINUOUS
10
0.267026
20
1.93561
11
0.288775
21
1.94311
0
LINE
8
BLACK
6
CONTINUOUS
10
0.288775
20
1.94311
11
0.28906
21
1.9432
0
LINE
8
BLACK
6
CONTINUOUS
10
0.28906
20
1.9432
11
0.304218
21
1.94743
0
LINE
8
BLACK
6
CONTINUOUS
10
0.304218
20
1.94743
11
0.311222
21
1.94938
0
LINE
8
BLACK
6
CONTINUOUS
10
0.311222
20
1.94938
11
0.311513
21
1.94945
0
LINE
8
BLACK
6
CONTINUOUS
10
0.311513
20
1.94945
11
0.334007
21
1.95428
0
LINE
8
BLACK
6
CONTINUOUS
10
0.334007
20
1.95428
11
0.334302
21
1.95433
0
LINE
8
BLACK
6
CONTINUOUS
10
0.334302
20
1.95433
11
0.357047
21
1.95779
0
LINE
8
BLACK
6
CONTINUOUS
10
0.357047
20
1.95779
11
0.357344
21
1.95783
0
LINE
8
BLACK
6
CONTINUOUS
10
0.357344
20
1.95783
11
0.3688
21
1.95887
0
LINE
8
BLACK
6
CONTINUOUS
10
0.3688
20
1.95887
11
0.380256
21
1.95991
0
LINE
8
BLACK
6
CONTINUOUS
10
0.380256
20
1.95991
11
0.380554
21
1.95993
0
LINE
8
BLACK
6
CONTINUOUS
10
0.380554
20
1.95993
11
0.402271
21
1.96059
0
LINE
8
BLACK
6
CONTINUOUS
10
0.402271
20
1.96059
11
0.402609
21
1.96055
0
LINE
8
BLACK
6
CONTINUOUS
10
0.402609
20
1.96055
11
0.403142
21
1.96055
0
LINE
8
BLACK
6
CONTINUOUS
10
0.403142
20
1.96055
11
0.403687
21
1.96043
0
LINE
8
BLACK
6
CONTINUOUS
10
0.403687
20
1.96043
11
0.404232
21
1.96055
0
LINE
8
BLACK
6
CONTINUOUS
10
0.404232
20
1.96055
11
0.404424
21
1.96055
0
LINE
8
BLACK
6
CONTINUOUS
10
0.404424
20
1.96055
11
0.405136
21
1.96063
0
LINE
8
BLACK
6
CONTINUOUS
10
0.405136
20
1.96063
11
1.99484
21
1.96063
0
LINE
8
BLACK
6
CONTINUOUS
10
1.99484
20
1.96063
11
1.99552
21
1.96055
0
LINE
8
BLACK
6
CONTINUOUS
10
1.99552
20
1.96055
11
1.99574
21
1.96055
0
LINE
8
BLACK
6
CONTINUOUS
10
1.99574
20
1.96055
11
1.99629
21
1.96043
0
LINE
8
BLACK
6
CONTINUOUS
10
1.99629
20
1.96043
11
1.99683
21
1.96055
0
LINE
8
BLACK
6
CONTINUOUS
10
1.99683
20
1.96055
11
1.99732
21
1.96055
0
LINE
8
BLACK
6
CONTINUOUS
10
1.99732
20
1.96055
11
1.99771
21
1.96059
0
LINE
8
BLACK
6
CONTINUOUS
10
1.99771
20
1.96059
11
2.01237
21
1.96014
0
LINE
8
BLACK
6
CONTINUOUS
10
2.01237
20
1.96014
11
2.01945
21
1.95993
0
LINE
8
BLACK
6
CONTINUOUS
10
2.01945
20
1.95993
11
2.01974
21
1.95991
0
LINE
8
BLACK
6
CONTINUOUS
10
2.01974
20
1.95991
11
2.0312
21
1.95887
0
LINE
8
BLACK
6
CONTINUOUS
10
2.0312
20
1.95887
11
2.04266
21
1.95783
0
LINE
8
BLACK
6
CONTINUOUS
10
2.04266
20
1.95783
11
2.04295
21
1.95779
0
LINE
8
BLACK
6
CONTINUOUS
10
2.04295
20
1.95779
11
2.0657
21
1.95433
0
LINE
8
BLACK
6
CONTINUOUS
10
2.0657
20
1.95433
11
2.06599
21
1.95428
0
LINE
8
BLACK
6
CONTINUOUS
10
2.06599
20
1.95428
11
2.08849
21
1.94945
0
LINE
8
BLACK
6
CONTINUOUS
10
2.08849
20
1.94945
11
2.08878
21
1.94938
0
LINE
8
BLACK
6
CONTINUOUS
10
2.08878
20
1.94938
11
2.09578
21
1.94743
0
LINE
8
BLACK
6
CONTINUOUS
10
2.09578
20
1.94743
11
2.11094
21
1.9432
0
LINE
8
BLACK
6
CONTINUOUS
10
2.11094
20
1.9432
11
2.11122
21
1.94311
0
LINE
8
BLACK
6
CONTINUOUS
10
2.11122
20
1.94311
11
2.13297
21
1.93561
0
LINE
8
BLACK
6
CONTINUOUS
10
2.13297
20
1.93561
11
2.13325
21
1.9355
0
LINE
8
BLACK
6
CONTINUOUS
10
2.13325
20
1.9355
11
2.14481
21
1.93071
0
LINE
8
BLACK
6
CONTINUOUS
10
2.14481
20
1.93071
11
2.15451
21
1.9267
0
LINE
8
BLACK
6
CONTINUOUS
10
2.15451
20
1.9267
11
2.15478
21
1.92657
0
LINE
8
BLACK
6
CONTINUOUS
10
2.15478
20
1.92657
11
2.17547
21
1.9165
0
LINE
8
BLACK
6
CONTINUOUS
10
2.17547
20
1.9165
11
2.17573
21
1.91636
0
LINE
8
BLACK
6
CONTINUOUS
10
2.17573
20
1.91636
11
2.19577
21
1.90506
0
LINE
8
BLACK
6
CONTINUOUS
10
2.19577
20
1.90506
11
2.19603
21
1.90491
0
LINE
8
BLACK
6
CONTINUOUS
10
2.19603
20
1.90491
11
2.20364
21
1.89998
0
LINE
8
BLACK
6
CONTINUOUS
10
2.20364
20
1.89998
11
2.21535
21
1.89241
0
LINE
8
BLACK
6
CONTINUOUS
10
2.21535
20
1.89241
11
2.21559
21
1.89224
0
LINE
8
BLACK
6
CONTINUOUS
10
2.21559
20
1.89224
11
2.23413
21
1.87861
0
LINE
8
BLACK
6
CONTINUOUS
10
2.23413
20
1.87861
11
2.23436
21
1.87842
0
LINE
8
BLACK
6
CONTINUOUS
10
2.23436
20
1.87842
11
2.25203
21
1.86369
0
LINE
8
BLACK
6
CONTINUOUS
10
2.25203
20
1.86369
11
2.25226
21
1.8635
0
LINE
8
BLACK
6
CONTINUOUS
10
2.25226
20
1.8635
11
2.26021
21
1.85601
0
LINE
8
BLACK
6
CONTINUOUS
10
2.26021
20
1.85601
11
2.26901
21
1.84773
0
LINE
8
BLACK
6
CONTINUOUS
10
2.26901
20
1.84773
11
2.26922
21
1.84752
0
LINE
8
BLACK
6
CONTINUOUS
10
2.26922
20
1.84752
11
2.27515
21
1.84122
0
LINE
8
BLACK
6
CONTINUOUS
10
2.27515
20
1.84122
11
2.28499
21
1.83076
0
LINE
8
BLACK
6
CONTINUOUS
10
2.28499
20
1.83076
11
2.28519
21
1.83054
0
LINE
8
BLACK
6
CONTINUOUS
10
2.28519
20
1.83054
11
2.29992
21
1.81287
0
LINE
8
BLACK
6
CONTINUOUS
10
2.29992
20
1.81287
11
2.3001
21
1.81263
0
LINE
8
BLACK
6
CONTINUOUS
10
2.3001
20
1.81263
11
2.31374
21
1.7941
0
LINE
8
BLACK
6
CONTINUOUS
10
2.31374
20
1.7941
11
2.31391
21
1.79385
0
LINE
8
BLACK
6
CONTINUOUS
10
2.31391
20
1.79385
11
2.32115
21
1.78265
0
LINE
8
BLACK
6
CONTINUOUS
10
2.32115
20
1.78265
11
2.3264
21
1.77453
0
LINE
8
BLACK
6
CONTINUOUS
10
2.3264
20
1.77453
11
2.32656
21
1.77428
0
LINE
8
BLACK
6
CONTINUOUS
10
2.32656
20
1.77428
11
2.33786
21
1.75424
0
LINE
8
BLACK
6
CONTINUOUS
10
2.33786
20
1.75424
11
2.338
21
1.75397
0
LINE
8
BLACK
6
CONTINUOUS
10
2.338
20
1.75397
11
2.34807
21
1.73329
0
LINE
8
BLACK
6
CONTINUOUS
10
2.34807
20
1.73329
11
2.34819
21
1.73301
0
LINE
8
BLACK
6
CONTINUOUS
10
2.34819
20
1.73301
11
2.35471
21
1.71727
0
LINE
8
BLACK
6
CONTINUOUS
10
2.35471
20
1.71727
11
2.357
21
1.71176
0
LINE
8
BLACK
6
CONTINUOUS
10
2.357
20
1.71176
11
2.3571
21
1.71148
0
LINE
8
BLACK
6
CONTINUOUS
10
2.3571
20
1.71148
11
2.36461
21
1.68973
0
LINE
8
BLACK
6
CONTINUOUS
10
2.36461
20
1.68973
11
2.3647
21
1.68944
0
LINE
8
BLACK
6
CONTINUOUS
10
2.3647
20
1.68944
11
2.36892
21
1.67429
0
LINE
8
BLACK
6
CONTINUOUS
10
2.36892
20
1.67429
11
2.37087
21
1.66728
0
LINE
8
BLACK
6
CONTINUOUS
10
2.37087
20
1.66728
11
2.37095
21
1.66699
0
LINE
8
BLACK
6
CONTINUOUS
10
2.37095
20
1.66699
11
2.37577
21
1.6445
0
LINE
8
BLACK
6
CONTINUOUS
10
2.37577
20
1.6445
11
2.37583
21
1.6442
0
LINE
8
BLACK
6
CONTINUOUS
10
2.37583
20
1.6442
11
2.37929
21
1.62146
0
LINE
8
BLACK
6
CONTINUOUS
10
2.37929
20
1.62146
11
2.37933
21
1.62116
0
LINE
8
BLACK
6
CONTINUOUS
10
2.37933
20
1.62116
11
2.38141
21
1.59825
0
LINE
8
BLACK
6
CONTINUOUS
10
2.38141
20
1.59825
11
2.38143
21
1.59795
0
LINE
8
BLACK
6
CONTINUOUS
10
2.38143
20
1.59795
11
2.38208
21
1.57623
0
LINE
8
BLACK
6
CONTINUOUS
10
2.38208
20
1.57623
11
2.38205
21
1.5759
0
LINE
8
BLACK
6
CONTINUOUS
10
2.38205
20
1.5759
11
2.38205
21
1.57536
0
LINE
8
BLACK
6
CONTINUOUS
10
2.38205
20
1.57536
11
2.38192
21
1.57482
0
LINE
8
BLACK
6
CONTINUOUS
10
2.38192
20
1.57482
11
2.38205
21
1.57427
0
LINE
8
BLACK
6
CONTINUOUS
10
2.38205
20
1.57427
11
2.38205
21
1.57408
0
LINE
8
BLACK
6
CONTINUOUS
10
2.38205
20
1.57408
11
2.38213
21
1.57337
0
LINE
8
BLACK
6
CONTINUOUS
10
2.38213
20
1.57337
11
2.38213
21
0.0228346
0
LINE
8
BLACK
6
CONTINUOUS
10
2.38213
20
0.0228346
11
2.38134
21
0.0201527
0
LINE
8
BLACK
6
CONTINUOUS
10
2.38134
20
0.0201527
11
2.37923
21
0.0183223
0
LINE
8
BLACK
6
CONTINUOUS
10
2.37923
20
0.0183223
11
2.37717
21
0.017874
0
LINE
8
BLACK
6
CONTINUOUS
10
2.37717
20
0.017874
11
0.0228346
21
0.017874
0
LINE
8
BLACK
6
CONTINUOUS
10
0.0228346
20
0.017874
11
0.0201527
21
0.0186615
0
LINE
8
BLACK
6
CONTINUOUS
10
0.0201527
20
0.0186615
11
0.0183223
21
0.0207739
0
LINE
8
BLACK
6
CONTINUOUS
10
0.0183223
20
0.0207739
11
0.017874
21
0.0228346
0
LINE
8
BLACK
6
CONTINUOUS
10
0.017874
20
0.0228346
11
0.017874
21
1.57335
0
LINE
8
BLACK
6
CONTINUOUS
10
0.017874
20
1.57335
11
0.0179509
21
1.57402
0
LINE
8
BLACK
6
CONTINUOUS
10
1.31431
20
0.141474
11
1.31692
21
0.13973
0
LINE
8
BLACK
6
CONTINUOUS
10
1.31692
20
0.13973
11
1.3174
21
0.139634
0
LINE
8
BLACK
6
CONTINUOUS
10
1.3174
20
0.139634
11
1.3174
21
0.139634
0
LINE
8
BLACK
6
CONTINUOUS
10
1.3174
20
0.139634
11
1.31898
21
0.139319
0
LINE
8
BLACK
6
CONTINUOUS
10
1.31898
20
0.139319
11
1.31922
21
0.139272
0
LINE
8
BLACK
6
CONTINUOUS
10
1.31922
20
0.139272
11
1.38078
21
0.139272
0
LINE
8
BLACK
6
CONTINUOUS
10
1.38078
20
0.139272
11
1.38102
21
0.139319
0
LINE
8
BLACK
6
CONTINUOUS
10
1.38102
20
0.139319
11
1.3826
21
0.139634
0
LINE
8
BLACK
6
CONTINUOUS
10
1.3826
20
0.139634
11
1.3826
21
0.139634
0
LINE
8
BLACK
6
CONTINUOUS
10
1.3826
20
0.139634
11
1.38308
21
0.13973
0
LINE
8
BLACK
6
CONTINUOUS
10
1.38308
20
0.13973
11
1.38569
21
0.141474
0
LINE
8
BLACK
6
CONTINUOUS
10
1.38569
20
0.141474
11
1.38744
21
0.144085
0
LINE
8
BLACK
6
CONTINUOUS
10
1.38744
20
0.144085
11
1.38789
21
0.146388
0
LINE
8
BLACK
6
CONTINUOUS
10
1.38789
20
0.146388
11
1.38789
21
0.207943
0
LINE
8
BLACK
6
CONTINUOUS
10
1.38789
20
0.207943
11
1.38744
21
0.210245
0
LINE
8
BLACK
6
CONTINUOUS
10
1.38744
20
0.210245
11
1.38569
21
0.212856
0
LINE
8
BLACK
6
CONTINUOUS
10
1.38569
20
0.212856
11
1.38308
21
0.214601
0
LINE
8
BLACK
6
CONTINUOUS
10
1.38308
20
0.214601
11
1.3826
21
0.214696
0
LINE
8
BLACK
6
CONTINUOUS
10
1.3826
20
0.214696
11
1.3826
21
0.214696
0
LINE
8
BLACK
6
CONTINUOUS
10
1.3826
20
0.214696
11
1.38102
21
0.215012
0
LINE
8
BLACK
6
CONTINUOUS
10
1.38102
20
0.215012
11
1.38078
21
0.215059
0
LINE
8
BLACK
6
CONTINUOUS
10
1.38078
20
0.215059
11
1.3727
21
0.215059
0
LINE
8
BLACK
6
CONTINUOUS
10
1.3727
20
0.215059
11
1.37001
21
0.215847
0
LINE
8
BLACK
6
CONTINUOUS
10
1.37001
20
0.215847
11
1.36818
21
0.217959
0
LINE
8
BLACK
6
CONTINUOUS
10
1.36818
20
0.217959
11
1.36774
21
0.22002
0
LINE
8
BLACK
6
CONTINUOUS
10
1.36774
20
0.22002
11
1.36774
21
0.220599
0
LINE
8
BLACK
6
CONTINUOUS
10
1.36774
20
0.220599
11
1.36852
21
0.223281
0
LINE
8
BLACK
6
CONTINUOUS
10
1.36852
20
0.223281
11
1.36919
21
0.224106
0
LINE
8
BLACK
6
CONTINUOUS
10
1.36919
20
0.224106
11
1.49818
21
0.353102
0
LINE
8
BLACK
6
CONTINUOUS
10
1.49818
20
0.353102
11
1.50064
21
0.354442
0
LINE
8
BLACK
6
CONTINUOUS
10
1.50064
20
0.354442
11
1.50177
21
0.354554
0
LINE
8
BLACK
6
CONTINUOUS
10
1.50177
20
0.354554
11
1.50238
21
0.354545
0
LINE
8
BLACK
6
CONTINUOUS
10
1.50238
20
0.354545
11
1.50238
21
0.354545
0
LINE
8
BLACK
6
CONTINUOUS
10
1.50238
20
0.354545
11
1.50268
21
0.35454
0
LINE
8
BLACK
6
CONTINUOUS
10
1.50268
20
0.35454
11
1.50479
21
0.355023
0
LINE
8
BLACK
6
CONTINUOUS
10
1.50479
20
0.355023
11
1.50838
21
0.355847
0
LINE
8
BLACK
6
CONTINUOUS
10
1.50838
20
0.355847
11
1.50838
21
0.355847
0
LINE
8
BLACK
6
CONTINUOUS
10
1.50838
20
0.355847
11
1.50867
21
0.355913
0
LINE
8
BLACK
6
CONTINUOUS
10
1.50867
20
0.355913
11
1.51417
21
0.358677
0
LINE
8
BLACK
6
CONTINUOUS
10
1.51417
20
0.358677
11
1.5156
21
0.359898
0
LINE
8
BLACK
6
CONTINUOUS
10
1.5156
20
0.359898
11
1.51862
21
0.362478
0
LINE
8
BLACK
6
CONTINUOUS
10
1.51862
20
0.362478
11
1.51862
21
0.362478
0
LINE
8
BLACK
6
CONTINUOUS
10
1.51862
20
0.362478
11
1.51884
21
0.362672
0
LINE
8
BLACK
6
CONTINUOUS
10
1.51884
20
0.362672
11
1.52243
21
0.367667
0
LINE
8
BLACK
6
CONTINUOUS
10
1.52243
20
0.367667
11
1.52473
21
0.373374
0
LINE
8
BLACK
6
CONTINUOUS
10
1.52473
20
0.373374
11
1.52554
21
0.379047
0
LINE
8
BLACK
6
CONTINUOUS
10
1.52554
20
0.379047
11
1.52669
21
0.381591
0
LINE
8
BLACK
6
CONTINUOUS
10
1.52669
20
0.381591
11
1.52694
21
0.381856
0
LINE
8
BLACK
6
CONTINUOUS
10
1.52694
20
0.381856
11
1.65739
21
0.512307
0
LINE
8
BLACK
6
CONTINUOUS
10
1.65739
20
0.512307
11
1.65984
21
0.513646
0
LINE
8
BLACK
6
CONTINUOUS
10
1.65984
20
0.513646
11
1.6609
21
0.51376
0
LINE
8
BLACK
6
CONTINUOUS
10
1.6609
20
0.51376
11
1.74474
21
0.51376
0
LINE
8
BLACK
6
CONTINUOUS
10
1.74474
20
0.51376
11
1.74742
21
0.512972
0
LINE
8
BLACK
6
CONTINUOUS
10
1.74742
20
0.512972
11
1.74934
21
0.510666
0
LINE
8
BLACK
6
CONTINUOUS
10
1.74934
20
0.510666
11
1.75005
21
0.508903
0
LINE
8
BLACK
6
CONTINUOUS
10
1.75005
20
0.508903
11
1.75101
21
0.50655
0
LINE
8
BLACK
6
CONTINUOUS
10
1.75101
20
0.50655
11
1.75112
21
0.506377
0
LINE
8
BLACK
6
CONTINUOUS
10
1.75112
20
0.506377
11
1.75453
21
0.500814
0
LINE
8
BLACK
6
CONTINUOUS
10
1.75453
20
0.500814
11
1.75575
21
0.49882
0
LINE
8
BLACK
6
CONTINUOUS
10
1.75575
20
0.49882
11
1.76168
21
0.491967
0
LINE
8
BLACK
6
CONTINUOUS
10
1.76168
20
0.491967
11
1.76866
21
0.486175
0
LINE
8
BLACK
6
CONTINUOUS
10
1.76866
20
0.486175
11
1.77649
21
0.481601
0
LINE
8
BLACK
6
CONTINUOUS
10
1.77649
20
0.481601
11
1.78496
21
0.478366
0
LINE
8
BLACK
6
CONTINUOUS
10
1.78496
20
0.478366
11
1.78516
21
0.478326
0
LINE
8
BLACK
6
CONTINUOUS
10
1.78516
20
0.478326
11
1.78516
21
0.478326
0
LINE
8
BLACK
6
CONTINUOUS
10
1.78516
20
0.478326
11
1.78533
21
0.47829
0
LINE
8
BLACK
6
CONTINUOUS
10
1.78533
20
0.47829
11
1.79384
21
0.476559
0
LINE
8
BLACK
6
CONTINUOUS
10
1.79384
20
0.476559
11
1.79895
21
0.476371
0
LINE
8
BLACK
6
CONTINUOUS
10
1.79895
20
0.476371
11
1.8027
21
0.476234
0
LINE
8
BLACK
6
CONTINUOUS
10
1.8027
20
0.476234
11
1.8027
21
0.476234
0
LINE
8
BLACK
6
CONTINUOUS
10
1.8027
20
0.476234
11
1.8029
21
0.476226
0
LINE
8
BLACK
6
CONTINUOUS
10
1.8029
20
0.476226
11
1.80311
21
0.476252
0
LINE
8
BLACK
6
CONTINUOUS
10
1.80311
20
0.476252
11
1.80311
21
0.476252
0
LINE
8
BLACK
6
CONTINUOUS
10
1.80311
20
0.476252
11
1.80584
21
0.476602
0
LINE
8
BLACK
6
CONTINUOUS
10
1.80584
20
0.476602
11
1.8119
21
0.477378
0
LINE
8
BLACK
6
CONTINUOUS
10
1.8119
20
0.477378
11
1.81209
21
0.477437
0
LINE
8
BLACK
6
CONTINUOUS
10
1.81209
20
0.477437
11
1.81209
21
0.477437
0
LINE
8
BLACK
6
CONTINUOUS
10
1.81209
20
0.477437
11
1.81948
21
0.479654
0
LINE
8
BLACK
6
CONTINUOUS
10
1.81948
20
0.479654
11
1.82058
21
0.479984
0
LINE
8
BLACK
6
CONTINUOUS
10
1.82058
20
0.479984
11
1.82872
21
0.483973
0
LINE
8
BLACK
6
CONTINUOUS
10
1.82872
20
0.483973
11
1.8361
21
0.489238
0
LINE
8
BLACK
6
CONTINUOUS
10
1.8361
20
0.489238
11
1.84253
21
0.495638
0
LINE
8
BLACK
6
CONTINUOUS
10
1.84253
20
0.495638
11
1.84481
21
0.49882
0
LINE
8
BLACK
6
CONTINUOUS
10
1.84481
20
0.49882
11
1.8477
21
0.502835
0
LINE
8
BLACK
6
CONTINUOUS
10
1.8477
20
0.502835
11
1.84782
21
0.503001
0
LINE
8
BLACK
6
CONTINUOUS
10
1.84782
20
0.503001
11
1.84806
21
0.503496
0
LINE
8
BLACK
6
CONTINUOUS
10
1.84806
20
0.503496
11
1.85174
21
0.510946
0
LINE
8
BLACK
6
CONTINUOUS
10
1.85174
20
0.510946
11
1.85184
21
0.511129
0
LINE
8
BLACK
6
CONTINUOUS
10
1.85184
20
0.511129
11
1.85306
21
0.51515
0
LINE
8
BLACK
6
CONTINUOUS
10
1.85306
20
0.51515
11
1.85441
21
0.519609
0
LINE
8
BLACK
6
CONTINUOUS
10
1.85441
20
0.519609
11
1.85441
21
0.519609
0
LINE
8
BLACK
6
CONTINUOUS
10
1.85441
20
0.519609
11
1.85447
21
0.519804
0
LINE
8
BLACK
6
CONTINUOUS
10
1.85447
20
0.519804
11
1.85565
21
0.528793
0
LINE
8
BLACK
6
CONTINUOUS
10
1.85565
20
0.528793
11
1.85572
21
0.531496
0
LINE
8
BLACK
6
CONTINUOUS
10
1.85572
20
0.531496
11
1.85498
21
0.540532
0
LINE
8
BLACK
6
CONTINUOUS
10
1.85498
20
0.540532
11
1.85277
21
0.549326
0
LINE
8
BLACK
6
CONTINUOUS
10
1.85277
20
0.549326
11
1.84915
21
0.557641
0
LINE
8
BLACK
6
CONTINUOUS
10
1.84915
20
0.557641
11
1.84423
21
0.565253
0
LINE
8
BLACK
6
CONTINUOUS
10
1.84423
20
0.565253
11
1.84342
21
0.566146
0
LINE
8
BLACK
6
CONTINUOUS
10
1.84342
20
0.566146
11
1.83826
21
0.571809
0
LINE
8
BLACK
6
CONTINUOUS
10
1.83826
20
0.571809
11
1.83826
21
0.571809
0
LINE
8
BLACK
6
CONTINUOUS
10
1.83826
20
0.571809
11
1.83813
21
0.571959
0
LINE
8
BLACK
6
CONTINUOUS
10
1.83813
20
0.571959
11
1.83797
21
0.572085
0
LINE
8
BLACK
6
CONTINUOUS
10
1.83797
20
0.572085
11
1.83797
21
0.572086
0
LINE
8
BLACK
6
CONTINUOUS
10
1.83797
20
0.572086
11
1.83117
21
0.577453
0
LINE
8
BLACK
6
CONTINUOUS
10
1.83117
20
0.577453
11
1.83117
21
0.577453
0
LINE
8
BLACK
6
CONTINUOUS
10
1.83117
20
0.577453
11
1.83101
21
0.577579
0
LINE
8
BLACK
6
CONTINUOUS
10
1.83101
20
0.577579
11
1.83083
21
0.577677
0
LINE
8
BLACK
6
CONTINUOUS
10
1.83083
20
0.577677
11
1.83083
21
0.577677
0
LINE
8
BLACK
6
CONTINUOUS
10
1.83083
20
0.577677
11
1.82325
21
0.581862
0
LINE
8
BLACK
6
CONTINUOUS
10
1.82325
20
0.581862
11
1.82325
21
0.581862
0
LINE
8
BLACK
6
CONTINUOUS
10
1.82325
20
0.581862
11
1.82307
21
0.581961
0
LINE
8
BLACK
6
CONTINUOUS
10
1.82307
20
0.581961
11
1.82288
21
0.582029
0
LINE
8
BLACK
6
CONTINUOUS
10
1.82288
20
0.582029
11
1.82288
21
0.582029
0
LINE
8
BLACK
6
CONTINUOUS
10
1.82288
20
0.582029
11
1.82143
21
0.582541
0
LINE
8
BLACK
6
CONTINUOUS
10
1.82143
20
0.582541
11
1.81917
21
0.584179
0
LINE
8
BLACK
6
CONTINUOUS
10
1.81917
20
0.584179
11
1.81815
21
0.586781
0
LINE
8
BLACK
6
CONTINUOUS
10
1.81815
20
0.586781
11
1.81813
21
0.587217
0
LINE
8
BLACK
6
CONTINUOUS
10
1.81813
20
0.587217
11
1.81813
21
1.3812
0
LINE
8
BLACK
6
CONTINUOUS
10
1.81813
20
1.3812
11
1.81892
21
1.38388
0
LINE
8
BLACK
6
CONTINUOUS
10
1.81892
20
1.38388
11
1.82091
21
1.38566
0
LINE
8
BLACK
6
CONTINUOUS
10
1.82091
20
1.38566
11
1.82872
21
1.38948
0
LINE
8
BLACK
6
CONTINUOUS
10
1.82872
20
1.38948
11
1.8361
21
1.39475
0
LINE
8
BLACK
6
CONTINUOUS
10
1.8361
20
1.39475
11
1.84253
21
1.40115
0
LINE
8
BLACK
6
CONTINUOUS
10
1.84253
20
1.40115
11
1.84481
21
1.40433
0
LINE
8
BLACK
6
CONTINUOUS
10
1.84481
20
1.40433
11
1.8477
21
1.40835
0
LINE
8
BLACK
6
CONTINUOUS
10
1.8477
20
1.40835
11
1.84782
21
1.40851
0
LINE
8
BLACK
6
CONTINUOUS
10
1.84782
20
1.40851
11
1.85184
21
1.41664
0
LINE
8
BLACK
6
CONTINUOUS
10
1.85184
20
1.41664
11
1.85306
21
1.42066
0
LINE
8
BLACK
6
CONTINUOUS
10
1.85306
20
1.42066
11
1.85441
21
1.42512
0
LINE
8
BLACK
6
CONTINUOUS
10
1.85441
20
1.42512
11
1.85441
21
1.42512
0
LINE
8
BLACK
6
CONTINUOUS
10
1.85441
20
1.42512
11
1.85447
21
1.42532
0
LINE
8
BLACK
6
CONTINUOUS
10
1.85447
20
1.42532
11
1.85565
21
1.43431
0
LINE
8
BLACK
6
CONTINUOUS
10
1.85565
20
1.43431
11
1.85572
21
1.43701
0
LINE
8
BLACK
6
CONTINUOUS
10
1.85572
20
1.43701
11
1.85498
21
1.44604
0
LINE
8
BLACK
6
CONTINUOUS
10
1.85498
20
1.44604
11
1.85277
21
1.45484
0
LINE
8
BLACK
6
CONTINUOUS
10
1.85277
20
1.45484
11
1.84915
21
1.46315
0
LINE
8
BLACK
6
CONTINUOUS
10
1.84915
20
1.46315
11
1.84423
21
1.47077
0
LINE
8
BLACK
6
CONTINUOUS
10
1.84423
20
1.47077
11
1.84342
21
1.47166
0
LINE
8
BLACK
6
CONTINUOUS
10
1.84342
20
1.47166
11
1.83826
21
1.47732
0
LINE
8
BLACK
6
CONTINUOUS
10
1.83826
20
1.47732
11
1.83826
21
1.47732
0
LINE
8
BLACK
6
CONTINUOUS
10
1.83826
20
1.47732
11
1.83813
21
1.47747
0
LINE
8
BLACK
6
CONTINUOUS
10
1.83813
20
1.47747
11
1.83797
21
1.4776
0
LINE
8
BLACK
6
CONTINUOUS
10
1.83797
20
1.4776
11
1.83797
21
1.4776
0
LINE
8
BLACK
6
CONTINUOUS
10
1.83797
20
1.4776
11
1.83117
21
1.48296
0
LINE
8
BLACK
6
CONTINUOUS
10
1.83117
20
1.48296
11
1.83117
21
1.48296
0
LINE
8
BLACK
6
CONTINUOUS
10
1.83117
20
1.48296
11
1.83101
21
1.48309
0
LINE
8
BLACK
6
CONTINUOUS
10
1.83101
20
1.48309
11
1.83083
21
1.48319
0
LINE
8
BLACK
6
CONTINUOUS
10
1.83083
20
1.48319
11
1.83083
21
1.48319
0
LINE
8
BLACK
6
CONTINUOUS
10
1.83083
20
1.48319
11
1.82325
21
1.48737
0
LINE
8
BLACK
6
CONTINUOUS
10
1.82325
20
1.48737
11
1.82325
21
1.48737
0
LINE
8
BLACK
6
CONTINUOUS
10
1.82325
20
1.48737
11
1.82307
21
1.48747
0
LINE
8
BLACK
6
CONTINUOUS
10
1.82307
20
1.48747
11
1.82288
21
1.48754
0
LINE
8
BLACK
6
CONTINUOUS
10
1.82288
20
1.48754
11
1.82288
21
1.48754
0
LINE
8
BLACK
6
CONTINUOUS
10
1.82288
20
1.48754
11
1.81472
21
1.49043
0
LINE
8
BLACK
6
CONTINUOUS
10
1.81472
20
1.49043
11
1.81472
21
1.49043
0
LINE
8
BLACK
6
CONTINUOUS
10
1.81472
20
1.49043
11
1.81453
21
1.4905
0
LINE
8
BLACK
6
CONTINUOUS
10
1.81453
20
1.4905
11
1.81433
21
1.49053
0
LINE
8
BLACK
6
CONTINUOUS
10
1.81433
20
1.49053
11
1.81433
21
1.49053
0
LINE
8
BLACK
6
CONTINUOUS
10
1.81433
20
1.49053
11
1.80938
21
1.49142
0
LINE
8
BLACK
6
CONTINUOUS
10
1.80938
20
1.49142
11
1.8056
21
1.49209
0
LINE
8
BLACK
6
CONTINUOUS
10
1.8056
20
1.49209
11
1.8022
21
1.49213
0
LINE
8
BLACK
6
CONTINUOUS
10
1.8022
20
1.49213
11
1.79674
21
1.4922
0
LINE
8
BLACK
6
CONTINUOUS
10
1.79674
20
1.4922
11
1.79674
21
1.4922
0
LINE
8
BLACK
6
CONTINUOUS
10
1.79674
20
1.4922
11
1.79653
21
1.4922
0
LINE
8
BLACK
6
CONTINUOUS
10
1.79653
20
1.4922
11
1.78757
21
1.49083
0
LINE
8
BLACK
6
CONTINUOUS
10
1.78757
20
1.49083
11
1.77895
21
1.48801
0
LINE
8
BLACK
6
CONTINUOUS
10
1.77895
20
1.48801
11
1.77877
21
1.48792
0
LINE
8
BLACK
6
CONTINUOUS
10
1.77877
20
1.48792
11
1.77877
21
1.48792
0
LINE
8
BLACK
6
CONTINUOUS
10
1.77877
20
1.48792
11
1.77323
21
1.48503
0
LINE
8
BLACK
6
CONTINUOUS
10
1.77323
20
1.48503
11
1.77091
21
1.48382
0
LINE
8
BLACK
6
CONTINUOUS
10
1.77091
20
1.48382
11
1.76366
21
1.47838
0
LINE
8
BLACK
6
CONTINUOUS
10
1.76366
20
1.47838
11
1.7574
21
1.47183
0
LINE
8
BLACK
6
CONTINUOUS
10
1.7574
20
1.47183
11
1.75229
21
1.46434
0
LINE
8
BLACK
6
CONTINUOUS
10
1.75229
20
1.46434
11
1.7522
21
1.46415
0
LINE
8
BLACK
6
CONTINUOUS
10
1.7522
20
1.46415
11
1.7522
21
1.46415
0
LINE
8
BLACK
6
CONTINUOUS
10
1.7522
20
1.46415
11
1.75174
21
1.46315
0
LINE
8
BLACK
6
CONTINUOUS
10
1.75174
20
1.46315
11
1.74847
21
1.45611
0
LINE
8
BLACK
6
CONTINUOUS
10
1.74847
20
1.45611
11
1.74605
21
1.44738
0
LINE
8
BLACK
6
CONTINUOUS
10
1.74605
20
1.44738
11
1.74508
21
1.43836
0
LINE
8
BLACK
6
CONTINUOUS
10
1.74508
20
1.43836
11
1.7451
21
1.43816
0
LINE
8
BLACK
6
CONTINUOUS
10
1.7451
20
1.43816
11
1.7451
21
1.43816
0
LINE
8
BLACK
6
CONTINUOUS
10
1.7451
20
1.43816
11
1.74531
21
1.43444
0
LINE
8
BLACK
6
CONTINUOUS
10
1.74531
20
1.43444
11
1.74561
21
1.42931
0
LINE
8
BLACK
6
CONTINUOUS
10
1.74561
20
1.42931
11
1.74565
21
1.42911
0
LINE
8
BLACK
6
CONTINUOUS
10
1.74565
20
1.42911
11
1.74565
21
1.42911
0
LINE
8
BLACK
6
CONTINUOUS
10
1.74565
20
1.42911
11
1.7465
21
1.42532
0
LINE
8
BLACK
6
CONTINUOUS
10
1.7465
20
1.42532
11
1.7476
21
1.42046
0
LINE
8
BLACK
6
CONTINUOUS
10
1.7476
20
1.42046
11
1.74768
21
1.42027
0
LINE
8
BLACK
6
CONTINUOUS
10
1.74768
20
1.42027
11
1.74768
21
1.42027
0
LINE
8
BLACK
6
CONTINUOUS
10
1.74768
20
1.42027
11
1.74915
21
1.41664
0
LINE
8
BLACK
6
CONTINUOUS
10
1.74915
20
1.41664
11
1.75101
21
1.41206
0
LINE
8
BLACK
6
CONTINUOUS
10
1.75101
20
1.41206
11
1.75575
21
1.40433
0
LINE
8
BLACK
6
CONTINUOUS
10
1.75575
20
1.40433
11
1.76168
21
1.39748
0
LINE
8
BLACK
6
CONTINUOUS
10
1.76168
20
1.39748
11
1.76866
21
1.39169
0
LINE
8
BLACK
6
CONTINUOUS
10
1.76866
20
1.39169
11
1.77649
21
1.38711
0
LINE
8
BLACK
6
CONTINUOUS
10
1.77649
20
1.38711
11
1.77867
21
1.38628
0
LINE
8
BLACK
6
CONTINUOUS
10
1.77867
20
1.38628
11
1.77947
21
1.38597
0
LINE
8
BLACK
6
CONTINUOUS
10
1.77947
20
1.38597
11
1.78169
21
1.38428
0
LINE
8
BLACK
6
CONTINUOUS
10
1.78169
20
1.38428
11
1.78265
21
1.38166
0
LINE
8
BLACK
6
CONTINUOUS
10
1.78265
20
1.38166
11
1.78266
21
1.38134
0
LINE
8
BLACK
6
CONTINUOUS
10
1.78266
20
1.38134
11
1.78266
21
0.587308
0
LINE
8
BLACK
6
CONTINUOUS
10
1.78266
20
0.587308
11
1.78187
21
0.584626
0
LINE
8
BLACK
6
CONTINUOUS
10
1.78187
20
0.584626
11
1.77976
21
0.582795
0
LINE
8
BLACK
6
CONTINUOUS
10
1.77976
20
0.582795
11
1.77924
21
0.582593
0
LINE
8
BLACK
6
CONTINUOUS
10
1.77924
20
0.582593
11
1.77919
21
0.582577
0
LINE
8
BLACK
6
CONTINUOUS
10
1.77919
20
0.582577
11
1.77915
21
0.582563
0
LINE
8
BLACK
6
CONTINUOUS
10
1.77915
20
0.582563
11
1.77915
21
0.582563
0
LINE
8
BLACK
6
CONTINUOUS
10
1.77915
20
0.582563
11
1.77895
21
0.5825
0
LINE
8
BLACK
6
CONTINUOUS
10
1.77895
20
0.5825
11
1.77792
21
0.581961
0
LINE
8
BLACK
6
CONTINUOUS
10
1.77792
20
0.581961
11
1.77323
21
0.579518
0
LINE
8
BLACK
6
CONTINUOUS
10
1.77323
20
0.579518
11
1.77091
21
0.578313
0
LINE
8
BLACK
6
CONTINUOUS
10
1.77091
20
0.578313
11
1.76366
21
0.572869
0
LINE
8
BLACK
6
CONTINUOUS
10
1.76366
20
0.572869
11
1.7574
21
0.566314
0
LINE
8
BLACK
6
CONTINUOUS
10
1.7574
20
0.566314
11
1.75229
21
0.558824
0
LINE
8
BLACK
6
CONTINUOUS
10
1.75229
20
0.558824
11
1.74917
21
0.552104
0
LINE
8
BLACK
6
CONTINUOUS
10
1.74917
20
0.552104
11
1.74732
21
0.550003
0
LINE
8
BLACK
6
CONTINUOUS
10
1.74732
20
0.550003
11
1.74467
21
0.549232
0
LINE
8
BLACK
6
CONTINUOUS
10
1.74467
20
0.549232
11
1.65284
21
0.549232
0
LINE
8
BLACK
6
CONTINUOUS
10
1.65284
20
0.549232
11
1.65226
21
0.549267
0
LINE
8
BLACK
6
CONTINUOUS
10
1.65226
20
0.549267
11
1.6513
21
0.54938
0
LINE
8
BLACK
6
CONTINUOUS
10
1.6513
20
0.54938
11
1.65093
21
0.549424
0
LINE
8
BLACK
6
CONTINUOUS
10
1.65093
20
0.549424
11
1.65057
21
0.549357
0
LINE
8
BLACK
6
CONTINUOUS
10
1.65057
20
0.549357
11
1.65057
21
0.549357
0
LINE
8
BLACK
6
CONTINUOUS
10
1.65057
20
0.549357
11
1.64866
21
0.549009
0
LINE
8
BLACK
6
CONTINUOUS
10
1.64866
20
0.549009
11
1.64851
21
0.548983
0
LINE
8
BLACK
6
CONTINUOUS
10
1.64851
20
0.548983
11
1.64659
21
0.548695
0
LINE
8
BLACK
6
CONTINUOUS
10
1.64659
20
0.548695
11
1.64659
21
0.548695
0
LINE
8
BLACK
6
CONTINUOUS
10
1.64659
20
0.548695
11
1.64622
21
0.54864
0
LINE
8
BLACK
6
CONTINUOUS
10
1.64622
20
0.54864
11
1.64597
21
0.548517
0
LINE
8
BLACK
6
CONTINUOUS
10
1.64597
20
0.548517
11
1.64569
21
0.548466
0
LINE
8
BLACK
6
CONTINUOUS
10
1.64569
20
0.548466
11
1.64536
21
0.548295
0
LINE
8
BLACK
6
CONTINUOUS
10
1.64536
20
0.548295
11
1.64364
21
0.547401
0
LINE
8
BLACK
6
CONTINUOUS
10
1.64364
20
0.547401
11
1.6435
21
0.547331
0
LINE
8
BLACK
6
CONTINUOUS
10
1.6435
20
0.547331
11
1.64175
21
0.546492
0
LINE
8
BLACK
6
CONTINUOUS
10
1.64175
20
0.546492
11
1.64141
21
0.546331
0
LINE
8
BLACK
6
CONTINUOUS
10
1.64141
20
0.546331
11
1.64121
21
0.546139
0
LINE
8
BLACK
6
CONTINUOUS
10
1.64121
20
0.546139
11
1.6412
21
0.546138
0
LINE
8
BLACK
6
CONTINUOUS
10
1.6412
20
0.546138
11
1.64095
21
0.546007
0
LINE
8
BLACK
6
CONTINUOUS
10
1.64095
20
0.546007
11
1.64075
21
0.545838
0
LINE
8
BLACK
6
CONTINUOUS
10
1.64075
20
0.545838
11
1.63929
21
0.544372
0
LINE
8
BLACK
6
CONTINUOUS
10
1.63929
20
0.544372
11
1.63915
21
0.544237
0
LINE
8
BLACK
6
CONTINUOUS
10
1.63915
20
0.544237
11
1.6375
21
0.542711
0
LINE
8
BLACK
6
CONTINUOUS
10
1.6375
20
0.542711
11
1.63735
21
0.54246
0
LINE
8
BLACK
6
CONTINUOUS
10
1.63735
20
0.54246
11
1.63714
21
0.542218
0
LINE
8
BLACK
6
CONTINUOUS
10
1.63714
20
0.542218
11
1.50179
21
0.406877
0
LINE
8
BLACK
6
CONTINUOUS
10
1.50179
20
0.406877
11
1.49934
21
0.405537
0
LINE
8
BLACK
6
CONTINUOUS
10
1.49934
20
0.405537
11
1.49826
21
0.405424
0
LINE
8
BLACK
6
CONTINUOUS
10
1.49826
20
0.405424
11
1.49706
21
0.40543
0
LINE
8
BLACK
6
CONTINUOUS
10
1.49706
20
0.40543
11
1.49677
21
0.405361
0
LINE
8
BLACK
6
CONTINUOUS
10
1.49677
20
0.405361
11
1.49677
21
0.405361
0
LINE
8
BLACK
6
CONTINUOUS
10
1.49677
20
0.405361
11
1.49386
21
0.404664
0
LINE
8
BLACK
6
CONTINUOUS
10
1.49386
20
0.404664
11
1.49108
21
0.403994
0
LINE
8
BLACK
6
CONTINUOUS
10
1.49108
20
0.403994
11
1.48561
21
0.401173
0
LINE
8
BLACK
6
CONTINUOUS
10
1.48561
20
0.401173
11
1.48098
21
0.39713
0
LINE
8
BLACK
6
CONTINUOUS
10
1.48098
20
0.39713
11
1.4808
21
0.396885
0
LINE
8
BLACK
6
CONTINUOUS
10
1.4808
20
0.396885
11
1.47812
21
0.393061
0
LINE
8
BLACK
6
CONTINUOUS
10
1.47812
20
0.393061
11
1.47744
21
0.392097
0
LINE
8
BLACK
6
CONTINUOUS
10
1.47744
20
0.392097
11
1.4752
21
0.386366
0
LINE
8
BLACK
6
CONTINUOUS
10
1.4752
20
0.386366
11
1.47465
21
0.382187
0
LINE
8
BLACK
6
CONTINUOUS
10
1.47465
20
0.382187
11
1.4745
21
0.381035
0
LINE
8
BLACK
6
CONTINUOUS
10
1.4745
20
0.381035
11
1.47337
21
0.378479
0
LINE
8
BLACK
6
CONTINUOUS
10
1.47337
20
0.378479
11
1.47309
21
0.378175
0
LINE
8
BLACK
6
CONTINUOUS
10
1.47309
20
0.378175
11
1.33841
21
0.243494
0
LINE
8
BLACK
6
CONTINUOUS
10
1.33841
20
0.243494
11
1.33797
21
0.243106
0
LINE
8
BLACK
6
CONTINUOUS
10
1.33797
20
0.243106
11
1.33722
21
0.242508
0
LINE
8
BLACK
6
CONTINUOUS
10
1.33722
20
0.242508
11
1.33722
21
0.242508
0
LINE
8
BLACK
6
CONTINUOUS
10
1.33722
20
0.242508
11
1.33692
21
0.242278
0
LINE
8
BLACK
6
CONTINUOUS
10
1.33692
20
0.242278
11
1.33671
21
0.241973
0
LINE
8
BLACK
6
CONTINUOUS
10
1.33671
20
0.241973
11
1.33671
21
0.241973
0
LINE
8
BLACK
6
CONTINUOUS
10
1.33671
20
0.241973
11
1.33561
21
0.240379
0
LINE
8
BLACK
6
CONTINUOUS
10
1.33561
20
0.240379
11
1.33552
21
0.240252
0
LINE
8
BLACK
6
CONTINUOUS
10
1.33552
20
0.240252
11
1.33415
21
0.238393
0
LINE
8
BLACK
6
CONTINUOUS
10
1.33415
20
0.238393
11
1.33405
21
0.238125
0
LINE
8
BLACK
6
CONTINUOUS
10
1.33405
20
0.238125
11
1.33389
21
0.237891
0
LINE
8
BLACK
6
CONTINUOUS
10
1.33389
20
0.237891
11
1.33378
21
0.237537
0
LINE
8
BLACK
6
CONTINUOUS
10
1.33378
20
0.237537
11
1.33378
21
0.237537
0
LINE
8
BLACK
6
CONTINUOUS
10
1.33378
20
0.237537
11
1.3332
21
0.235689
0
LINE
8
BLACK
6
CONTINUOUS
10
1.3332
20
0.235689
11
1.33315
21
0.235541
0
LINE
8
BLACK
6
CONTINUOUS
10
1.33315
20
0.235541
11
1.33238
21
0.233361
0
LINE
8
BLACK
6
CONTINUOUS
10
1.33238
20
0.233361
11
1.33237
21
0.233078
0
LINE
8
BLACK
6
CONTINUOUS
10
1.33237
20
0.233078
11
1.33237
21
0.233076
0
LINE
8
BLACK
6
CONTINUOUS
10
1.33237
20
0.233076
11
1.33228
21
0.232806
0
LINE
8
BLACK
6
CONTINUOUS
10
1.33228
20
0.232806
11
1.33226
21
0.232546
0
LINE
8
BLACK
6
CONTINUOUS
10
1.33226
20
0.232546
11
1.33226
21
0.230472
0
LINE
8
BLACK
6
CONTINUOUS
10
1.33226
20
0.230472
11
1.33226
21
0.230277
0
LINE
8
BLACK
6
CONTINUOUS
10
1.33226
20
0.230277
11
1.33217
21
0.228032
0
LINE
8
BLACK
6
CONTINUOUS
10
1.33217
20
0.228032
11
1.33225
21
0.227752
0
LINE
8
BLACK
6
CONTINUOUS
10
1.33225
20
0.227752
11
1.33226
21
0.227427
0
LINE
8
BLACK
6
CONTINUOUS
10
1.33226
20
0.227427
11
1.33226
21
0.22002
0
LINE
8
BLACK
6
CONTINUOUS
10
1.33226
20
0.22002
11
1.33148
21
0.217338
0
LINE
8
BLACK
6
CONTINUOUS
10
1.33148
20
0.217338
11
1.32936
21
0.215507
0
LINE
8
BLACK
6
CONTINUOUS
10
1.32936
20
0.215507
11
1.3273
21
0.215059
0
LINE
8
BLACK
6
CONTINUOUS
10
1.3273
20
0.215059
11
1.31922
21
0.215059
0
LINE
8
BLACK
6
CONTINUOUS
10
1.31922
20
0.215059
11
1.31898
21
0.215012
0
LINE
8
BLACK
6
CONTINUOUS
10
1.31898
20
0.215012
11
1.3174
21
0.214696
0
LINE
8
BLACK
6
CONTINUOUS
10
1.3174
20
0.214696
11
1.3174
21
0.214696
0
LINE
8
BLACK
6
CONTINUOUS
10
1.3174
20
0.214696
11
1.31692
21
0.214601
0
LINE
8
BLACK
6
CONTINUOUS
10
1.31692
20
0.214601
11
1.31431
21
0.212856
0
LINE
8
BLACK
6
CONTINUOUS
10
1.31431
20
0.212856
11
1.31256
21
0.210245
0
LINE
8
BLACK
6
CONTINUOUS
10
1.31256
20
0.210245
11
1.31211
21
0.207943
0
LINE
8
BLACK
6
CONTINUOUS
10
1.31211
20
0.207943
11
1.31211
21
0.146388
0
LINE
8
BLACK
6
CONTINUOUS
10
1.31211
20
0.146388
11
1.31256
21
0.144085
0
LINE
8
BLACK
6
CONTINUOUS
10
1.31256
20
0.144085
11
1.31431
21
0.141474
0
LINE
8
BLACK
6
CONTINUOUS
10
1.28744
20
0.210245
11
1.28569
21
0.212856
0
LINE
8
BLACK
6
CONTINUOUS
10
1.28569
20
0.212856
11
1.28308
21
0.214601
0
LINE
8
BLACK
6
CONTINUOUS
10
1.28308
20
0.214601
11
1.2826
21
0.214696
0
LINE
8
BLACK
6
CONTINUOUS
10
1.2826
20
0.214696
11
1.2826
21
0.214696
0
LINE
8
BLACK
6
CONTINUOUS
10
1.2826
20
0.214696
11
1.28102
21
0.215012
0
LINE
8
BLACK
6
CONTINUOUS
10
1.28102
20
0.215012
11
1.28078
21
0.215059
0
LINE
8
BLACK
6
CONTINUOUS
10
1.28078
20
0.215059
11
1.2727
21
0.215059
0
LINE
8
BLACK
6
CONTINUOUS
10
1.2727
20
0.215059
11
1.27001
21
0.215847
0
LINE
8
BLACK
6
CONTINUOUS
10
1.27001
20
0.215847
11
1.26818
21
0.217959
0
LINE
8
BLACK
6
CONTINUOUS
10
1.26818
20
0.217959
11
1.26774
21
0.22002
0
LINE
8
BLACK
6
CONTINUOUS
10
1.26774
20
0.22002
11
1.26774
21
0.266977
0
LINE
8
BLACK
6
CONTINUOUS
10
1.26774
20
0.266977
11
1.26852
21
0.269659
0
LINE
8
BLACK
6
CONTINUOUS
10
1.26852
20
0.269659
11
1.26919
21
0.270484
0
LINE
8
BLACK
6
CONTINUOUS
10
1.26919
20
0.270484
11
1.47361
21
0.474905
0
LINE
8
BLACK
6
CONTINUOUS
10
1.47361
20
0.474905
11
1.47606
21
0.476245
0
LINE
8
BLACK
6
CONTINUOUS
10
1.47606
20
0.476245
11
1.47712
21
0.476358
0
LINE
8
BLACK
6
CONTINUOUS
10
1.47712
20
0.476358
11
1.55314
21
0.476358
0
LINE
8
BLACK
6
CONTINUOUS
10
1.55314
20
0.476358
11
1.55411
21
0.476551
0
LINE
8
BLACK
6
CONTINUOUS
10
1.55411
20
0.476551
11
1.55496
21
0.476721
0
LINE
8
BLACK
6
CONTINUOUS
10
1.55496
20
0.476721
11
1.55496
21
0.476721
0
LINE
8
BLACK
6
CONTINUOUS
10
1.55496
20
0.476721
11
1.55544
21
0.476816
0
LINE
8
BLACK
6
CONTINUOUS
10
1.55544
20
0.476816
11
1.55805
21
0.478561
0
LINE
8
BLACK
6
CONTINUOUS
10
1.55805
20
0.478561
11
1.5598
21
0.481172
0
LINE
8
BLACK
6
CONTINUOUS
10
1.5598
20
0.481172
11
1.55997
21
0.482036
0
LINE
8
BLACK
6
CONTINUOUS
10
1.55997
20
0.482036
11
1.56021
21
0.483236
0
LINE
8
BLACK
6
CONTINUOUS
10
1.56021
20
0.483236
11
1.56026
21
0.483474
0
LINE
8
BLACK
6
CONTINUOUS
10
1.56026
20
0.483474
11
1.56026
21
0.579518
0
LINE
8
BLACK
6
CONTINUOUS
10
1.56026
20
0.579518
11
1.5598
21
0.58182
0
LINE
8
BLACK
6
CONTINUOUS
10
1.5598
20
0.58182
11
1.55805
21
0.584431
0
LINE
8
BLACK
6
CONTINUOUS
10
1.55805
20
0.584431
11
1.55544
21
0.586176
0
LINE
8
BLACK
6
CONTINUOUS
10
1.55544
20
0.586176
11
1.55496
21
0.586271
0
LINE
8
BLACK
6
CONTINUOUS
10
1.55496
20
0.586271
11
1.55496
21
0.586271
0
LINE
8
BLACK
6
CONTINUOUS
10
1.55496
20
0.586271
11
1.55338
21
0.586586
0
LINE
8
BLACK
6
CONTINUOUS
10
1.55338
20
0.586586
11
1.55314
21
0.586634
0
LINE
8
BLACK
6
CONTINUOUS
10
1.55314
20
0.586634
11
1.52781
21
0.586634
0
LINE
8
BLACK
6
CONTINUOUS
10
1.52781
20
0.586634
11
1.52513
21
0.587421
0
LINE
8
BLACK
6
CONTINUOUS
10
1.52513
20
0.587421
11
1.5233
21
0.589534
0
LINE
8
BLACK
6
CONTINUOUS
10
1.5233
20
0.589534
11
1.52285
21
0.591594
0
LINE
8
BLACK
6
CONTINUOUS
10
1.52285
20
0.591594
11
1.52285
21
1.37691
0
LINE
8
BLACK
6
CONTINUOUS
10
1.52285
20
1.37691
11
1.52364
21
1.37959
0
LINE
8
BLACK
6
CONTINUOUS
10
1.52364
20
1.37959
11
1.52575
21
1.38142
0
LINE
8
BLACK
6
CONTINUOUS
10
1.52575
20
1.38142
11
1.52781
21
1.38187
0
LINE
8
BLACK
6
CONTINUOUS
10
1.52781
20
1.38187
11
1.55314
21
1.38187
0
LINE
8
BLACK
6
CONTINUOUS
10
1.55314
20
1.38187
11
1.55338
21
1.38192
0
LINE
8
BLACK
6
CONTINUOUS
10
1.55338
20
1.38192
11
1.55496
21
1.38223
0
LINE
8
BLACK
6
CONTINUOUS
10
1.55496
20
1.38223
11
1.55496
21
1.38223
0
LINE
8
BLACK
6
CONTINUOUS
10
1.55496
20
1.38223
11
1.55544
21
1.38233
0
LINE
8
BLACK
6
CONTINUOUS
10
1.55544
20
1.38233
11
1.55805
21
1.38407
0
LINE
8
BLACK
6
CONTINUOUS
10
1.55805
20
1.38407
11
1.5598
21
1.38668
0
LINE
8
BLACK
6
CONTINUOUS
10
1.5598
20
1.38668
11
1.56026
21
1.38899
0
LINE
8
BLACK
6
CONTINUOUS
10
1.56026
20
1.38899
11
1.56026
21
1.48503
0
LINE
8
BLACK
6
CONTINUOUS
10
1.56026
20
1.48503
11
1.5598
21
1.48733
0
LINE
8
BLACK
6
CONTINUOUS
10
1.5598
20
1.48733
11
1.55805
21
1.48994
0
LINE
8
BLACK
6
CONTINUOUS
10
1.55805
20
1.48994
11
1.55544
21
1.49169
0
LINE
8
BLACK
6
CONTINUOUS
10
1.55544
20
1.49169
11
1.55496
21
1.49178
0
LINE
8
BLACK
6
CONTINUOUS
10
1.55496
20
1.49178
11
1.55496
21
1.49178
0
LINE
8
BLACK
6
CONTINUOUS
10
1.55496
20
1.49178
11
1.55338
21
1.4921
0
LINE
8
BLACK
6
CONTINUOUS
10
1.55338
20
1.4921
11
1.55314
21
1.49215
0
LINE
8
BLACK
6
CONTINUOUS
10
1.55314
20
1.49215
11
1.4571
21
1.49215
0
LINE
8
BLACK
6
CONTINUOUS
10
1.4571
20
1.49215
11
1.45686
21
1.4921
0
LINE
8
BLACK
6
CONTINUOUS
10
1.45686
20
1.4921
11
1.45527
21
1.49178
0
LINE
8
BLACK
6
CONTINUOUS
10
1.45527
20
1.49178
11
1.45527
21
1.49178
0
LINE
8
BLACK
6
CONTINUOUS
10
1.45527
20
1.49178
11
1.45479
21
1.49169
0
LINE
8
BLACK
6
CONTINUOUS
10
1.45479
20
1.49169
11
1.45218
21
1.48994
0
LINE
8
BLACK
6
CONTINUOUS
10
1.45218
20
1.48994
11
1.45044
21
1.48733
0
LINE
8
BLACK
6
CONTINUOUS
10
1.45044
20
1.48733
11
1.44998
21
1.48503
0
LINE
8
BLACK
6
CONTINUOUS
10
1.44998
20
1.48503
11
1.44998
21
1.38899
0
LINE
8
BLACK
6
CONTINUOUS
10
1.44998
20
1.38899
11
1.45044
21
1.38668
0
LINE
8
BLACK
6
CONTINUOUS
10
1.45044
20
1.38668
11
1.45218
21
1.38407
0
LINE
8
BLACK
6
CONTINUOUS
10
1.45218
20
1.38407
11
1.45479
21
1.38233
0
LINE
8
BLACK
6
CONTINUOUS
10
1.45479
20
1.38233
11
1.45527
21
1.38223
0
LINE
8
BLACK
6
CONTINUOUS
10
1.45527
20
1.38223
11
1.45527
21
1.38223
0
LINE
8
BLACK
6
CONTINUOUS
10
1.45527
20
1.38223
11
1.45686
21
1.38192
0
LINE
8
BLACK
6
CONTINUOUS
10
1.45686
20
1.38192
11
1.4571
21
1.38187
0
LINE
8
BLACK
6
CONTINUOUS
10
1.4571
20
1.38187
11
1.48242
21
1.38187
0
LINE
8
BLACK
6
CONTINUOUS
10
1.48242
20
1.38187
11
1.4851
21
1.38108
0
LINE
8
BLACK
6
CONTINUOUS
10
1.4851
20
1.38108
11
1.48693
21
1.37897
0
LINE
8
BLACK
6
CONTINUOUS
10
1.48693
20
1.37897
11
1.48738
21
1.37691
0
LINE
8
BLACK
6
CONTINUOUS
10
1.48738
20
1.37691
11
1.48738
21
0.591594
0
LINE
8
BLACK
6
CONTINUOUS
10
1.48738
20
0.591594
11
1.48659
21
0.588913
0
LINE
8
BLACK
6
CONTINUOUS
10
1.48659
20
0.588913
11
1.48448
21
0.587082
0
LINE
8
BLACK
6
CONTINUOUS
10
1.48448
20
0.587082
11
1.48242
21
0.586634
0
LINE
8
BLACK
6
CONTINUOUS
10
1.48242
20
0.586634
11
1.4571
21
0.586634
0
LINE
8
BLACK
6
CONTINUOUS
10
1.4571
20
0.586634
11
1.45686
21
0.586586
0
LINE
8
BLACK
6
CONTINUOUS
10
1.45686
20
0.586586
11
1.45527
21
0.586271
0
LINE
8
BLACK
6
CONTINUOUS
10
1.45527
20
0.586271
11
1.45527
21
0.586271
0
LINE
8
BLACK
6
CONTINUOUS
10
1.45527
20
0.586271
11
1.45479
21
0.586176
0
LINE
8
BLACK
6
CONTINUOUS
10
1.45479
20
0.586176
11
1.45218
21
0.584431
0
LINE
8
BLACK
6
CONTINUOUS
10
1.45218
20
0.584431
11
1.45044
21
0.58182
0
LINE
8
BLACK
6
CONTINUOUS
10
1.45044
20
0.58182
11
1.44998
21
0.579518
0
LINE
8
BLACK
6
CONTINUOUS
10
1.44998
20
0.579518
11
1.44998
21
0.503496
0
LINE
8
BLACK
6
CONTINUOUS
10
1.44998
20
0.503496
11
1.44919
21
0.500814
0
LINE
8
BLACK
6
CONTINUOUS
10
1.44919
20
0.500814
11
1.44853
21
0.499988
0
LINE
8
BLACK
6
CONTINUOUS
10
1.44853
20
0.499988
11
1.23841
21
0.289872
0
LINE
8
BLACK
6
CONTINUOUS
10
1.23841
20
0.289872
11
1.23797
21
0.289484
0
LINE
8
BLACK
6
CONTINUOUS
10
1.23797
20
0.289484
11
1.23722
21
0.288886
0
LINE
8
BLACK
6
CONTINUOUS
10
1.23722
20
0.288886
11
1.23722
21
0.288886
0
LINE
8
BLACK
6
CONTINUOUS
10
1.23722
20
0.288886
11
1.23692
21
0.288656
0
LINE
8
BLACK
6
CONTINUOUS
10
1.23692
20
0.288656
11
1.23671
21
0.288351
0
LINE
8
BLACK
6
CONTINUOUS
10
1.23671
20
0.288351
11
1.23671
21
0.288351
0
LINE
8
BLACK
6
CONTINUOUS
10
1.23671
20
0.288351
11
1.23561
21
0.286757
0
LINE
8
BLACK
6
CONTINUOUS
10
1.23561
20
0.286757
11
1.23552
21
0.28663
0
LINE
8
BLACK
6
CONTINUOUS
10
1.23552
20
0.28663
11
1.23415
21
0.284771
0
LINE
8
BLACK
6
CONTINUOUS
10
1.23415
20
0.284771
11
1.23405
21
0.284503
0
LINE
8
BLACK
6
CONTINUOUS
10
1.23405
20
0.284503
11
1.23389
21
0.284269
0
LINE
8
BLACK
6
CONTINUOUS
10
1.23389
20
0.284269
11
1.23378
21
0.283915
0
LINE
8
BLACK
6
CONTINUOUS
10
1.23378
20
0.283915
11
1.23378
21
0.283915
0
LINE
8
BLACK
6
CONTINUOUS
10
1.23378
20
0.283915
11
1.2332
21
0.282067
0
LINE
8
BLACK
6
CONTINUOUS
10
1.2332
20
0.282067
11
1.23315
21
0.281919
0
LINE
8
BLACK
6
CONTINUOUS
10
1.23315
20
0.281919
11
1.23238
21
0.279739
0
LINE
8
BLACK
6
CONTINUOUS
10
1.23238
20
0.279739
11
1.23237
21
0.279456
0
LINE
8
BLACK
6
CONTINUOUS
10
1.23237
20
0.279456
11
1.23237
21
0.279454
0
LINE
8
BLACK
6
CONTINUOUS
10
1.23237
20
0.279454
11
1.23228
21
0.279184
0
LINE
8
BLACK
6
CONTINUOUS
10
1.23228
20
0.279184
11
1.23226
21
0.278924
0
LINE
8
BLACK
6
CONTINUOUS
10
1.23226
20
0.278924
11
1.23226
21
0.27685
0
LINE
8
BLACK
6
CONTINUOUS
10
1.23226
20
0.27685
11
1.23226
21
0.276655
0
LINE
8
BLACK
6
CONTINUOUS
10
1.23226
20
0.276655
11
1.23217
21
0.27441
0
LINE
8
BLACK
6
CONTINUOUS
10
1.23217
20
0.27441
11
1.23225
21
0.27413
0
LINE
8
BLACK
6
CONTINUOUS
10
1.23225
20
0.27413
11
1.23226
21
0.273805
0
LINE
8
BLACK
6
CONTINUOUS
10
1.23226
20
0.273805
11
1.23226
21
0.22002
0
LINE
8
BLACK
6
CONTINUOUS
10
1.23226
20
0.22002
11
1.23148
21
0.217338
0
LINE
8
BLACK
6
CONTINUOUS
10
1.23148
20
0.217338
11
1.22936
21
0.215507
0
LINE
8
BLACK
6
CONTINUOUS
10
1.22936
20
0.215507
11
1.2273
21
0.215059
0
LINE
8
BLACK
6
CONTINUOUS
10
1.2273
20
0.215059
11
1.21922
21
0.215059
0
LINE
8
BLACK
6
CONTINUOUS
10
1.21922
20
0.215059
11
1.21898
21
0.215012
0
LINE
8
BLACK
6
CONTINUOUS
10
1.21898
20
0.215012
11
1.2174
21
0.214696
0
LINE
8
BLACK
6
CONTINUOUS
10
1.2174
20
0.214696
11
1.2174
21
0.214696
0
LINE
8
BLACK
6
CONTINUOUS
10
1.2174
20
0.214696
11
1.21692
21
0.214601
0
LINE
8
BLACK
6
CONTINUOUS
10
1.21692
20
0.214601
11
1.21431
21
0.212856
0
LINE
8
BLACK
6
CONTINUOUS
10
1.21431
20
0.212856
11
1.21256
21
0.210245
0
LINE
8
BLACK
6
CONTINUOUS
10
1.21256
20
0.210245
11
1.21211
21
0.207943
0
LINE
8
BLACK
6
CONTINUOUS
10
1.21211
20
0.207943
11
1.21211
21
0.199862
0
LINE
8
BLACK
6
CONTINUOUS
10
1.21211
20
0.199862
11
1.21132
21
0.19718
0
LINE
8
BLACK
6
CONTINUOUS
10
1.21132
20
0.19718
11
1.20921
21
0.19535
0
LINE
8
BLACK
6
CONTINUOUS
10
1.20921
20
0.19535
11
1.20715
21
0.194902
0
LINE
8
BLACK
6
CONTINUOUS
10
1.20715
20
0.194902
11
1.19285
21
0.194902
0
LINE
8
BLACK
6
CONTINUOUS
10
1.19285
20
0.194902
11
1.19017
21
0.195689
0
LINE
8
BLACK
6
CONTINUOUS
10
1.19017
20
0.195689
11
1.18834
21
0.197801
0
LINE
8
BLACK
6
CONTINUOUS
10
1.18834
20
0.197801
11
1.18789
21
0.199862
0
LINE
8
BLACK
6
CONTINUOUS
10
1.18789
20
0.199862
11
1.18789
21
0.207943
0
LINE
8
BLACK
6
CONTINUOUS
10
1.18789
20
0.207943
11
1.18744
21
0.210245
0
LINE
8
BLACK
6
CONTINUOUS
10
1.18744
20
0.210245
11
1.18569
21
0.212856
0
LINE
8
BLACK
6
CONTINUOUS
10
1.18569
20
0.212856
11
1.18308
21
0.214601
0
LINE
8
BLACK
6
CONTINUOUS
10
1.18308
20
0.214601
11
1.1826
21
0.214696
0
LINE
8
BLACK
6
CONTINUOUS
10
1.1826
20
0.214696
11
1.1826
21
0.214696
0
LINE
8
BLACK
6
CONTINUOUS
10
1.1826
20
0.214696
11
1.18102
21
0.215012
0
LINE
8
BLACK
6
CONTINUOUS
10
1.18102
20
0.215012
11
1.18078
21
0.215059
0
LINE
8
BLACK
6
CONTINUOUS
10
1.18078
20
0.215059
11
1.1727
21
0.215059
0
LINE
8
BLACK
6
CONTINUOUS
10
1.1727
20
0.215059
11
1.17001
21
0.215847
0
LINE
8
BLACK
6
CONTINUOUS
10
1.17001
20
0.215847
11
1.16818
21
0.217959
0
LINE
8
BLACK
6
CONTINUOUS
10
1.16818
20
0.217959
11
1.16774
21
0.22002
0
LINE
8
BLACK
6
CONTINUOUS
10
1.16774
20
0.22002
11
1.16774
21
0.648653
0
LINE
8
BLACK
6
CONTINUOUS
10
1.16774
20
0.648653
11
1.16777
21
0.649236
0
LINE
8
BLACK
6
CONTINUOUS
10
1.16777
20
0.649236
11
1.16788
21
0.650195
0
LINE
8
BLACK
6
CONTINUOUS
10
1.16788
20
0.650195
11
1.16793
21
0.650563
0
LINE
8
BLACK
6
CONTINUOUS
10
1.16793
20
0.650563
11
1.16751
21
0.652835
0
LINE
8
BLACK
6
CONTINUOUS
10
1.16751
20
0.652835
11
1.16749
21
0.652988
0
LINE
8
BLACK
6
CONTINUOUS
10
1.16749
20
0.652988
11
1.1672
21
0.654907
0
LINE
8
BLACK
6
CONTINUOUS
10
1.1672
20
0.654907
11
1.1672
21
0.654907
0
LINE
8
BLACK
6
CONTINUOUS
10
1.1672
20
0.654907
11
1.16714
21
0.655274
0
LINE
8
BLACK
6
CONTINUOUS
10
1.16714
20
0.655274
11
1.16702
21
0.655531
0
LINE
8
BLACK
6
CONTINUOUS
10
1.16702
20
0.655531
11
1.16697
21
0.65581
0
LINE
8
BLACK
6
CONTINUOUS
10
1.16697
20
0.65581
11
1.1659
21
0.65786
0
LINE
8
BLACK
6
CONTINUOUS
10
1.1659
20
0.65786
11
1.16584
21
0.657998
0
LINE
8
BLACK
6
CONTINUOUS
10
1.16584
20
0.657998
11
1.165
21
0.659748
0
LINE
8
BLACK
6
CONTINUOUS
10
1.165
20
0.659748
11
1.16484
21
0.660082
0
LINE
8
BLACK
6
CONTINUOUS
10
1.16484
20
0.660082
11
1.16464
21
0.66029
0
LINE
8
BLACK
6
CONTINUOUS
10
1.16464
20
0.66029
11
1.16464
21
0.660292
0
LINE
8
BLACK
6
CONTINUOUS
10
1.16464
20
0.660292
11
1.16451
21
0.660543
0
LINE
8
BLACK
6
CONTINUOUS
10
1.16451
20
0.660543
11
1.16434
21
0.660741
0
LINE
8
BLACK
6
CONTINUOUS
10
1.16434
20
0.660741
11
1.16288
21
0.662207
0
LINE
8
BLACK
6
CONTINUOUS
10
1.16288
20
0.662207
11
1.16274
21
0.662347
0
LINE
8
BLACK
6
CONTINUOUS
10
1.16274
20
0.662347
11
1.16121
21
0.663998
0
LINE
8
BLACK
6
CONTINUOUS
10
1.16121
20
0.663998
11
1.16096
21
0.664144
0
LINE
8
BLACK
6
CONTINUOUS
10
1.16096
20
0.664144
11
1.16072
21
0.664361
0
LINE
8
BLACK
6
CONTINUOUS
10
1.16072
20
0.664361
11
1.13688
21
0.6882
0
LINE
8
BLACK
6
CONTINUOUS
10
1.13688
20
0.6882
11
1.13554
21
0.690654
0
LINE
8
BLACK
6
CONTINUOUS
10
1.13554
20
0.690654
11
1.13547
21
0.691112
0
LINE
8
BLACK
6
CONTINUOUS
10
1.13547
20
0.691112
11
1.1349
21
0.695809
0
LINE
8
BLACK
6
CONTINUOUS
10
1.1349
20
0.695809
11
1.1349
21
0.69581
0
LINE
8
BLACK
6
CONTINUOUS
10
1.1349
20
0.69581
11
1.13486
21
0.696106
0
LINE
8
BLACK
6
CONTINUOUS
10
1.13486
20
0.696106
11
1.13347
21
0.699797
0
LINE
8
BLACK
6
CONTINUOUS
10
1.13347
20
0.699797
11
1.13279
21
0.701581
0
LINE
8
BLACK
6
CONTINUOUS
10
1.13279
20
0.701581
11
1.13279
21
0.701581
0
LINE
8
BLACK
6
CONTINUOUS
10
1.13279
20
0.701581
11
1.13269
21
0.70186
0
LINE
8
BLACK
6
CONTINUOUS
10
1.13269
20
0.70186
11
1.13252
21
0.702107
0
LINE
8
BLACK
6
CONTINUOUS
10
1.13252
20
0.702107
11
1.13252
21
0.702107
0
LINE
8
BLACK
6
CONTINUOUS
10
1.13252
20
0.702107
11
1.12937
21
0.706683
0
LINE
8
BLACK
6
CONTINUOUS
10
1.12937
20
0.706683
11
1.12937
21
0.706683
0
LINE
8
BLACK
6
CONTINUOUS
10
1.12937
20
0.706683
11
1.1292
21
0.70693
0
LINE
8
BLACK
6
CONTINUOUS
10
1.1292
20
0.70693
11
1.12876
21
0.707326
0
LINE
8
BLACK
6
CONTINUOUS
10
1.12876
20
0.707326
11
1.12483
21
0.710823
0
LINE
8
BLACK
6
CONTINUOUS
10
1.12483
20
0.710823
11
1.12483
21
0.710823
0
LINE
8
BLACK
6
CONTINUOUS
10
1.12483
20
0.710823
11
1.12461
21
0.711021
0
LINE
8
BLACK
6
CONTINUOUS
10
1.12461
20
0.711021
11
1.12435
21
0.711161
0
LINE
8
BLACK
6
CONTINUOUS
10
1.12435
20
0.711161
11
1.11944
21
0.71376
0
LINE
8
BLACK
6
CONTINUOUS
10
1.11944
20
0.71376
11
1.11944
21
0.71376
0
LINE
8
BLACK
6
CONTINUOUS
10
1.11944
20
0.71376
11
1.11917
21
0.7139
0
LINE
8
BLACK
6
CONTINUOUS
10
1.11917
20
0.7139
11
1.11321
21
0.715398
0
LINE
8
BLACK
6
CONTINUOUS
10
1.11321
20
0.715398
11
1.11291
21
0.7154
0
LINE
8
BLACK
6
CONTINUOUS
10
1.11291
20
0.7154
11
1.11291
21
0.7154
0
LINE
8
BLACK
6
CONTINUOUS
10
1.11291
20
0.7154
11
1.11033
21
0.715413
0
LINE
8
BLACK
6
CONTINUOUS
10
1.11033
20
0.715413
11
1.10706
21
0.71543
0
LINE
8
BLACK
6
CONTINUOUS
10
1.10706
20
0.71543
11
1.10677
21
0.715361
0
LINE
8
BLACK
6
CONTINUOUS
10
1.10677
20
0.715361
11
1.10677
21
0.715361
0
LINE
8
BLACK
6
CONTINUOUS
10
1.10677
20
0.715361
11
1.10386
21
0.714664
0
LINE
8
BLACK
6
CONTINUOUS
10
1.10386
20
0.714664
11
1.10108
21
0.713994
0
LINE
8
BLACK
6
CONTINUOUS
10
1.10108
20
0.713994
11
1.09561
21
0.711173
0
LINE
8
BLACK
6
CONTINUOUS
10
1.09561
20
0.711173
11
1.09098
21
0.70713
0
LINE
8
BLACK
6
CONTINUOUS
10
1.09098
20
0.70713
11
1.08744
21
0.702097
0
LINE
8
BLACK
6
CONTINUOUS
10
1.08744
20
0.702097
11
1.0852
21
0.696366
0
LINE
8
BLACK
6
CONTINUOUS
10
1.0852
20
0.696366
11
1.0844
21
0.690268
0
LINE
8
BLACK
6
CONTINUOUS
10
1.0844
20
0.690268
11
1.08508
21
0.684154
0
LINE
8
BLACK
6
CONTINUOUS
10
1.08508
20
0.684154
11
1.08719
21
0.678378
0
LINE
8
BLACK
6
CONTINUOUS
10
1.08719
20
0.678378
11
1.09062
21
0.673272
0
LINE
8
BLACK
6
CONTINUOUS
10
1.09062
20
0.673272
11
1.09084
21
0.673071
0
LINE
8
BLACK
6
CONTINUOUS
10
1.09084
20
0.673071
11
1.09084
21
0.673071
0
LINE
8
BLACK
6
CONTINUOUS
10
1.09084
20
0.673071
11
1.09495
21
0.669334
0
LINE
8
BLACK
6
CONTINUOUS
10
1.09495
20
0.669334
11
1.09495
21
0.669334
0
LINE
8
BLACK
6
CONTINUOUS
10
1.09495
20
0.669334
11
1.09517
21
0.669133
0
LINE
8
BLACK
6
CONTINUOUS
10
1.09517
20
0.669133
11
1.09543
21
0.66899
0
LINE
8
BLACK
6
CONTINUOUS
10
1.09543
20
0.66899
11
1.09543
21
0.66899
0
LINE
8
BLACK
6
CONTINUOUS
10
1.09543
20
0.66899
11
1.10031
21
0.66634
0
LINE
8
BLACK
6
CONTINUOUS
10
1.10031
20
0.66634
11
1.10031
21
0.66634
0
LINE
8
BLACK
6
CONTINUOUS
10
1.10031
20
0.66634
11
1.10058
21
0.666198
0
LINE
8
BLACK
6
CONTINUOUS
10
1.10058
20
0.666198
11
1.10087
21
0.666122
0
LINE
8
BLACK
6
CONTINUOUS
10
1.10087
20
0.666122
11
1.10624
21
0.664713
0
LINE
8
BLACK
6
CONTINUOUS
10
1.10624
20
0.664713
11
1.10624
21
0.664713
0
LINE
8
BLACK
6
CONTINUOUS
10
1.10624
20
0.664713
11
1.10653
21
0.664637
0
LINE
8
BLACK
6
CONTINUOUS
10
1.10653
20
0.664637
11
1.10833
21
0.664608
0
LINE
8
BLACK
6
CONTINUOUS
10
1.10833
20
0.664608
11
1.111
21
0.663779
0
LINE
8
BLACK
6
CONTINUOUS
10
1.111
20
0.663779
11
1.11176
21
0.663156
0
LINE
8
BLACK
6
CONTINUOUS
10
1.11176
20
0.663156
11
1.13081
21
0.644106
0
LINE
8
BLACK
6
CONTINUOUS
10
1.13081
20
0.644106
11
1.13215
21
0.641653
0
LINE
8
BLACK
6
CONTINUOUS
10
1.13215
20
0.641653
11
1.13226
21
0.640599
0
LINE
8
BLACK
6
CONTINUOUS
10
1.13226
20
0.640599
11
1.13226
21
0.22002
0
LINE
8
BLACK
6
CONTINUOUS
10
1.13226
20
0.22002
11
1.13148
21
0.217338
0
LINE
8
BLACK
6
CONTINUOUS
10
1.13148
20
0.217338
11
1.12936
21
0.215507
0
LINE
8
BLACK
6
CONTINUOUS
10
1.12936
20
0.215507
11
1.1273
21
0.215059
0
LINE
8
BLACK
6
CONTINUOUS
10
1.1273
20
0.215059
11
1.11922
21
0.215059
0
LINE
8
BLACK
6
CONTINUOUS
10
1.11922
20
0.215059
11
1.11898
21
0.215012
0
LINE
8
BLACK
6
CONTINUOUS
10
1.11898
20
0.215012
11
1.1174
21
0.214696
0
LINE
8
BLACK
6
CONTINUOUS
10
1.1174
20
0.214696
11
1.1174
21
0.214696
0
LINE
8
BLACK
6
CONTINUOUS
10
1.1174
20
0.214696
11
1.11692
21
0.214601
0
LINE
8
BLACK
6
CONTINUOUS
10
1.11692
20
0.214601
11
1.11431
21
0.212856
0
LINE
8
BLACK
6
CONTINUOUS
10
1.11431
20
0.212856
11
1.11256
21
0.210245
0
LINE
8
BLACK
6
CONTINUOUS
10
1.11256
20
0.210245
11
1.11211
21
0.207943
0
LINE
8
BLACK
6
CONTINUOUS
10
1.11211
20
0.207943
11
1.11211
21
0.146388
0
LINE
8
BLACK
6
CONTINUOUS
10
1.11211
20
0.146388
11
1.11256
21
0.144085
0
LINE
8
BLACK
6
CONTINUOUS
10
1.11256
20
0.144085
11
1.11431
21
0.141474
0
LINE
8
BLACK
6
CONTINUOUS
10
1.11431
20
0.141474
11
1.11692
21
0.13973
0
LINE
8
BLACK
6
CONTINUOUS
10
1.11692
20
0.13973
11
1.1174
21
0.139634
0
LINE
8
BLACK
6
CONTINUOUS
10
1.1174
20
0.139634
11
1.1174
21
0.139634
0
LINE
8
BLACK
6
CONTINUOUS
10
1.1174
20
0.139634
11
1.11898
21
0.139319
0
LINE
8
BLACK
6
CONTINUOUS
10
1.11898
20
0.139319
11
1.11922
21
0.139272
0
LINE
8
BLACK
6
CONTINUOUS
10
1.11922
20
0.139272
11
1.18078
21
0.139272
0
LINE
8
BLACK
6
CONTINUOUS
10
1.18078
20
0.139272
11
1.18102
21
0.139319
0
LINE
8
BLACK
6
CONTINUOUS
10
1.18102
20
0.139319
11
1.1826
21
0.139634
0
LINE
8
BLACK
6
CONTINUOUS
10
1.1826
20
0.139634
11
1.1826
21
0.139634
0
LINE
8
BLACK
6
CONTINUOUS
10
1.1826
20
0.139634
11
1.18308
21
0.13973
0
LINE
8
BLACK
6
CONTINUOUS
10
1.18308
20
0.13973
11
1.18569
21
0.141474
0
LINE
8
BLACK
6
CONTINUOUS
10
1.18569
20
0.141474
11
1.18744
21
0.144085
0
LINE
8
BLACK
6
CONTINUOUS
10
1.18744
20
0.144085
11
1.18789
21
0.146388
0
LINE
8
BLACK
6
CONTINUOUS
10
1.18789
20
0.146388
11
1.18789
21
0.154469
0
LINE
8
BLACK
6
CONTINUOUS
10
1.18789
20
0.154469
11
1.18868
21
0.15715
0
LINE
8
BLACK
6
CONTINUOUS
10
1.18868
20
0.15715
11
1.19079
21
0.158981
0
LINE
8
BLACK
6
CONTINUOUS
10
1.19079
20
0.158981
11
1.19285
21
0.159429
0
LINE
8
BLACK
6
CONTINUOUS
10
1.19285
20
0.159429
11
1.20715
21
0.159429
0
LINE
8
BLACK
6
CONTINUOUS
10
1.20715
20
0.159429
11
1.20983
21
0.158642
0
LINE
8
BLACK
6
CONTINUOUS
10
1.20983
20
0.158642
11
1.21166
21
0.156529
0
LINE
8
BLACK
6
CONTINUOUS
10
1.21166
20
0.156529
11
1.21211
21
0.154469
0
LINE
8
BLACK
6
CONTINUOUS
10
1.21211
20
0.154469
11
1.21211
21
0.146388
0
LINE
8
BLACK
6
CONTINUOUS
10
1.21211
20
0.146388
11
1.21256
21
0.144085
0
LINE
8
BLACK
6
CONTINUOUS
10
1.21256
20
0.144085
11
1.21431
21
0.141474
0
LINE
8
BLACK
6
CONTINUOUS
10
1.21431
20
0.141474
11
1.21692
21
0.13973
0
LINE
8
BLACK
6
CONTINUOUS
10
1.21692
20
0.13973
11
1.2174
21
0.139634
0
LINE
8
BLACK
6
CONTINUOUS
10
1.2174
20
0.139634
11
1.2174
21
0.139634
0
LINE
8
BLACK
6
CONTINUOUS
10
1.2174
20
0.139634
11
1.21898
21
0.139319
0
LINE
8
BLACK
6
CONTINUOUS
10
1.21898
20
0.139319
11
1.21922
21
0.139272
0
LINE
8
BLACK
6
CONTINUOUS
10
1.21922
20
0.139272
11
1.28078
21
0.139272
0
LINE
8
BLACK
6
CONTINUOUS
10
1.28078
20
0.139272
11
1.28102
21
0.139319
0
LINE
8
BLACK
6
CONTINUOUS
10
1.28102
20
0.139319
11
1.2826
21
0.139634
0
LINE
8
BLACK
6
CONTINUOUS
10
1.2826
20
0.139634
11
1.2826
21
0.139634
0
LINE
8
BLACK
6
CONTINUOUS
10
1.2826
20
0.139634
11
1.28308
21
0.13973
0
LINE
8
BLACK
6
CONTINUOUS
10
1.28308
20
0.13973
11
1.28569
21
0.141474
0
LINE
8
BLACK
6
CONTINUOUS
10
1.28569
20
0.141474
11
1.28744
21
0.144085
0
LINE
8
BLACK
6
CONTINUOUS
10
1.28744
20
0.144085
11
1.28789
21
0.146388
0
LINE
8
BLACK
6
CONTINUOUS
10
1.28789
20
0.146388
11
1.28789
21
0.207943
0
LINE
8
BLACK
6
CONTINUOUS
10
1.28789
20
0.207943
11
1.28744
21
0.210245
0
LINE
8
BLACK
6
CONTINUOUS
10
0.544755
20
0.482036
11
0.544926
21
0.481172
0
LINE
8
BLACK
6
CONTINUOUS
10
0.544926
20
0.481172
11
0.546671
21
0.478561
0
LINE
8
BLACK
6
CONTINUOUS
10
0.546671
20
0.478561
11
0.549282
21
0.476816
0
LINE
8
BLACK
6
CONTINUOUS
10
0.549282
20
0.476816
11
0.549761
21
0.476721
0
LINE
8
BLACK
6
CONTINUOUS
10
0.549761
20
0.476721
11
0.549761
21
0.476721
0
LINE
8
BLACK
6
CONTINUOUS
10
0.549761
20
0.476721
11
0.550615
21
0.476551
0
LINE
8
BLACK
6
CONTINUOUS
10
0.550615
20
0.476551
11
0.551585
21
0.476358
0
LINE
8
BLACK
6
CONTINUOUS
10
0.551585
20
0.476358
11
0.647628
21
0.476358
0
LINE
8
BLACK
6
CONTINUOUS
10
0.647628
20
0.476358
11
0.648597
21
0.476551
0
LINE
8
BLACK
6
CONTINUOUS
10
0.648597
20
0.476551
11
0.649451
21
0.476721
0
LINE
8
BLACK
6
CONTINUOUS
10
0.649451
20
0.476721
11
0.649451
21
0.476721
0
LINE
8
BLACK
6
CONTINUOUS
10
0.649451
20
0.476721
11
0.64993
21
0.476816
0
LINE
8
BLACK
6
CONTINUOUS
10
0.64993
20
0.476816
11
0.652541
21
0.478561
0
LINE
8
BLACK
6
CONTINUOUS
10
0.652541
20
0.478561
11
0.654286
21
0.481172
0
LINE
8
BLACK
6
CONTINUOUS
10
0.654286
20
0.481172
11
0.654458
21
0.482036
0
LINE
8
BLACK
6
CONTINUOUS
10
0.654458
20
0.482036
11
0.654697
21
0.483236
0
LINE
8
BLACK
6
CONTINUOUS
10
0.654697
20
0.483236
11
0.654744
21
0.483474
0
LINE
8
BLACK
6
CONTINUOUS
10
0.654744
20
0.483474
11
0.654744
21
0.579518
0
LINE
8
BLACK
6
CONTINUOUS
10
0.654744
20
0.579518
11
0.654286
21
0.58182
0
LINE
8
BLACK
6
CONTINUOUS
10
0.654286
20
0.58182
11
0.652541
21
0.584431
0
LINE
8
BLACK
6
CONTINUOUS
10
0.652541
20
0.584431
11
0.64993
21
0.586176
0
LINE
8
BLACK
6
CONTINUOUS
10
0.64993
20
0.586176
11
0.649451
21
0.586271
0
LINE
8
BLACK
6
CONTINUOUS
10
0.649451
20
0.586271
11
0.649451
21
0.586271
0
LINE
8
BLACK
6
CONTINUOUS
10
0.649451
20
0.586271
11
0.647867
21
0.586586
0
LINE
8
BLACK
6
CONTINUOUS
10
0.647867
20
0.586586
11
0.647628
21
0.586634
0
LINE
8
BLACK
6
CONTINUOUS
10
0.647628
20
0.586634
11
0.622303
21
0.586634
0
LINE
8
BLACK
6
CONTINUOUS
10
0.622303
20
0.586634
11
0.619621
21
0.587421
0
LINE
8
BLACK
6
CONTINUOUS
10
0.619621
20
0.587421
11
0.617791
21
0.589534
0
LINE
8
BLACK
6
CONTINUOUS
10
0.617791
20
0.589534
11
0.617343
21
0.591594
0
LINE
8
BLACK
6
CONTINUOUS
10
0.617343
20
0.591594
11
0.617343
21
0.669192
0
LINE
8
BLACK
6
CONTINUOUS
10
0.617343
20
0.669192
11
0.61813
21
0.671874
0
LINE
8
BLACK
6
CONTINUOUS
10
0.61813
20
0.671874
11
0.618425
21
0.672257
0
LINE
8
BLACK
6
CONTINUOUS
10
0.618425
20
0.672257
11
0.61845
21
0.672278
0
LINE
8
BLACK
6
CONTINUOUS
10
0.61845
20
0.672278
11
0.62204
21
0.677273
0
LINE
8
BLACK
6
CONTINUOUS
10
0.62204
20
0.677273
11
0.622326
21
0.677984
0
LINE
8
BLACK
6
CONTINUOUS
10
0.622326
20
0.677984
11
0.624222
21
0.682703
0
LINE
8
BLACK
6
CONTINUOUS
10
0.624222
20
0.682703
11
0.624222
21
0.682703
0
LINE
8
BLACK
6
CONTINUOUS
10
0.624222
20
0.682703
11
0.624334
21
0.682981
0
LINE
8
BLACK
6
CONTINUOUS
10
0.624334
20
0.682981
11
0.625201
21
0.68907
0
LINE
8
BLACK
6
CONTINUOUS
10
0.625201
20
0.68907
11
0.625206
21
0.689606
0
LINE
8
BLACK
6
CONTINUOUS
10
0.625206
20
0.689606
11
0.624467
21
0.695713
0
LINE
8
BLACK
6
CONTINUOUS
10
0.624467
20
0.695713
11
0.622293
21
0.701467
0
LINE
8
BLACK
6
CONTINUOUS
10
0.622293
20
0.701467
11
0.622124
21
0.701713
0
LINE
8
BLACK
6
CONTINUOUS
10
0.622124
20
0.701713
11
0.622124
21
0.701713
0
LINE
8
BLACK
6
CONTINUOUS
10
0.622124
20
0.701713
11
0.618979
21
0.706289
0
LINE
8
BLACK
6
CONTINUOUS
10
0.618979
20
0.706289
11
0.618979
21
0.70629
0
LINE
8
BLACK
6
CONTINUOUS
10
0.618979
20
0.70629
11
0.618809
21
0.706536
0
LINE
8
BLACK
6
CONTINUOUS
10
0.618809
20
0.706536
11
0.618586
21
0.706735
0
LINE
8
BLACK
6
CONTINUOUS
10
0.618586
20
0.706735
11
0.618582
21
0.706739
0
LINE
8
BLACK
6
CONTINUOUS
10
0.618582
20
0.706739
11
0.617399
21
0.709272
0
LINE
8
BLACK
6
CONTINUOUS
10
0.617399
20
0.709272
11
0.617343
21
0.71002
0
LINE
8
BLACK
6
CONTINUOUS
10
0.617343
20
0.71002
11
0.617343
21
1.37691
0
LINE
8
BLACK
6
CONTINUOUS
10
0.617343
20
1.37691
11
0.61813
21
1.37959
0
LINE
8
BLACK
6
CONTINUOUS
10
0.61813
20
1.37959
11
0.620242
21
1.38142
0
LINE
8
BLACK
6
CONTINUOUS
10
0.620242
20
1.38142
11
0.622303
21
1.38187
0
LINE
8
BLACK
6
CONTINUOUS
10
0.622303
20
1.38187
11
0.647628
21
1.38187
0
LINE
8
BLACK
6
CONTINUOUS
10
0.647628
20
1.38187
11
0.647867
21
1.38192
0
LINE
8
BLACK
6
CONTINUOUS
10
0.647867
20
1.38192
11
0.649451
21
1.38223
0
LINE
8
BLACK
6
CONTINUOUS
10
0.649451
20
1.38223
11
0.649451
21
1.38223
0
LINE
8
BLACK
6
CONTINUOUS
10
0.649451
20
1.38223
11
0.64993
21
1.38233
0
LINE
8
BLACK
6
CONTINUOUS
10
0.64993
20
1.38233
11
0.652541
21
1.38407
0
LINE
8
BLACK
6
CONTINUOUS
10
0.652541
20
1.38407
11
0.654286
21
1.38668
0
LINE
8
BLACK
6
CONTINUOUS
10
0.654286
20
1.38668
11
0.654744
21
1.38899
0
LINE
8
BLACK
6
CONTINUOUS
10
0.654744
20
1.38899
11
0.654744
21
1.48503
0
LINE
8
BLACK
6
CONTINUOUS
10
0.654744
20
1.48503
11
0.654286
21
1.48733
0
LINE
8
BLACK
6
CONTINUOUS
10
0.654286
20
1.48733
11
0.652541
21
1.48994
0
LINE
8
BLACK
6
CONTINUOUS
10
0.652541
20
1.48994
11
0.64993
21
1.49169
0
LINE
8
BLACK
6
CONTINUOUS
10
0.64993
20
1.49169
11
0.649451
21
1.49178
0
LINE
8
BLACK
6
CONTINUOUS
10
0.649451
20
1.49178
11
0.649451
21
1.49178
0
LINE
8
BLACK
6
CONTINUOUS
10
0.649451
20
1.49178
11
0.647867
21
1.4921
0
LINE
8
BLACK
6
CONTINUOUS
10
0.647867
20
1.4921
11
0.647628
21
1.49215
0
LINE
8
BLACK
6
CONTINUOUS
10
0.647628
20
1.49215
11
0.551585
21
1.49215
0
LINE
8
BLACK
6
CONTINUOUS
10
0.551585
20
1.49215
11
0.551346
21
1.4921
0
LINE
8
BLACK
6
CONTINUOUS
10
0.551346
20
1.4921
11
0.549761
21
1.49178
0
LINE
8
BLACK
6
CONTINUOUS
10
0.549761
20
1.49178
11
0.549761
21
1.49178
0
LINE
8
BLACK
6
CONTINUOUS
10
0.549761
20
1.49178
11
0.549282
21
1.49169
0
LINE
8
BLACK
6
CONTINUOUS
10
0.549282
20
1.49169
11
0.546671
21
1.48994
0
LINE
8
BLACK
6
CONTINUOUS
10
0.546671
20
1.48994
11
0.544926
21
1.48733
0
LINE
8
BLACK
6
CONTINUOUS
10
0.544926
20
1.48733
11
0.544469
21
1.48503
0
LINE
8
BLACK
6
CONTINUOUS
10
0.544469
20
1.48503
11
0.544469
21
1.38899
0
LINE
8
BLACK
6
CONTINUOUS
10
0.544469
20
1.38899
11
0.544926
21
1.38668
0
LINE
8
BLACK
6
CONTINUOUS
10
0.544926
20
1.38668
11
0.546671
21
1.38407
0
LINE
8
BLACK
6
CONTINUOUS
10
0.546671
20
1.38407
11
0.549282
21
1.38233
0
LINE
8
BLACK
6
CONTINUOUS
10
0.549282
20
1.38233
11
0.549761
21
1.38223
0
LINE
8
BLACK
6
CONTINUOUS
10
0.549761
20
1.38223
11
0.549761
21
1.38223
0
LINE
8
BLACK
6
CONTINUOUS
10
0.549761
20
1.38223
11
0.551346
21
1.38192
0
LINE
8
BLACK
6
CONTINUOUS
10
0.551346
20
1.38192
11
0.551585
21
1.38187
0
LINE
8
BLACK
6
CONTINUOUS
10
0.551585
20
1.38187
11
0.576909
21
1.38187
0
LINE
8
BLACK
6
CONTINUOUS
10
0.576909
20
1.38187
11
0.579591
21
1.38108
0
LINE
8
BLACK
6
CONTINUOUS
10
0.579591
20
1.38108
11
0.581422
21
1.37897
0
LINE
8
BLACK
6
CONTINUOUS
10
0.581422
20
1.37897
11
0.58187
21
1.37691
0
LINE
8
BLACK
6
CONTINUOUS
10
0.58187
20
1.37691
11
0.58187
21
0.710017
0
LINE
8
BLACK
6
CONTINUOUS
10
0.58187
20
0.710017
11
0.581083
21
0.707335
0
LINE
8
BLACK
6
CONTINUOUS
10
0.581083
20
0.707335
11
0.580711
21
0.706849
0
LINE
8
BLACK
6
CONTINUOUS
10
0.580711
20
0.706849
11
0.580582
21
0.706736
0
LINE
8
BLACK
6
CONTINUOUS
10
0.580582
20
0.706736
11
0.58041
21
0.706491
0
LINE
8
BLACK
6
CONTINUOUS
10
0.58041
20
0.706491
11
0.577328
21
0.702107
0
LINE
8
BLACK
6
CONTINUOUS
10
0.577328
20
0.702107
11
0.577045
21
0.701704
0
LINE
8
BLACK
6
CONTINUOUS
10
0.577045
20
0.701704
11
0.574811
21
0.695973
0
LINE
8
BLACK
6
CONTINUOUS
10
0.574811
20
0.695973
11
0.574545
21
0.693956
0
LINE
8
BLACK
6
CONTINUOUS
10
0.574545
20
0.693956
11
0.57406
21
0.690268
0
LINE
8
BLACK
6
CONTINUOUS
10
0.57406
20
0.690268
11
0.574008
21
0.689874
0
LINE
8
BLACK
6
CONTINUOUS
10
0.574008
20
0.689874
11
0.574683
21
0.683761
0
LINE
8
BLACK
6
CONTINUOUS
10
0.574683
20
0.683761
11
0.574785
21
0.68348
0
LINE
8
BLACK
6
CONTINUOUS
10
0.574785
20
0.68348
11
0.576652
21
0.678378
0
LINE
8
BLACK
6
CONTINUOUS
10
0.576652
20
0.678378
11
0.576796
21
0.677984
0
LINE
8
BLACK
6
CONTINUOUS
10
0.576796
20
0.677984
11
0.580227
21
0.672879
0
LINE
8
BLACK
6
CONTINUOUS
10
0.580227
20
0.672879
11
0.580448
21
0.672677
0
LINE
8
BLACK
6
CONTINUOUS
10
0.580448
20
0.672677
11
0.580644
21
0.672451
0
LINE
8
BLACK
6
CONTINUOUS
10
0.580644
20
0.672451
11
0.580547
21
0.672368
0
LINE
8
BLACK
6
CONTINUOUS
10
0.580547
20
0.672368
11
0.581701
21
0.670474
0
LINE
8
BLACK
6
CONTINUOUS
10
0.581701
20
0.670474
11
0.58187
21
0.669191
0
LINE
8
BLACK
6
CONTINUOUS
10
0.58187
20
0.669191
11
0.58187
21
0.591594
0
LINE
8
BLACK
6
CONTINUOUS
10
0.58187
20
0.591594
11
0.581083
21
0.588913
0
LINE
8
BLACK
6
CONTINUOUS
10
0.581083
20
0.588913
11
0.57897
21
0.587082
0
LINE
8
BLACK
6
CONTINUOUS
10
0.57897
20
0.587082
11
0.576909
21
0.586634
0
LINE
8
BLACK
6
CONTINUOUS
10
0.576909
20
0.586634
11
0.551585
21
0.586634
0
LINE
8
BLACK
6
CONTINUOUS
10
0.551585
20
0.586634
11
0.551346
21
0.586586
0
LINE
8
BLACK
6
CONTINUOUS
10
0.551346
20
0.586586
11
0.549761
21
0.586271
0
LINE
8
BLACK
6
CONTINUOUS
10
0.549761
20
0.586271
11
0.549761
21
0.586271
0
LINE
8
BLACK
6
CONTINUOUS
10
0.549761
20
0.586271
11
0.549282
21
0.586176
0
LINE
8
BLACK
6
CONTINUOUS
10
0.549282
20
0.586176
11
0.546671
21
0.584431
0
LINE
8
BLACK
6
CONTINUOUS
10
0.546671
20
0.584431
11
0.544926
21
0.58182
0
LINE
8
BLACK
6
CONTINUOUS
10
0.544926
20
0.58182
11
0.544469
21
0.579518
0
LINE
8
BLACK
6
CONTINUOUS
10
0.544469
20
0.579518
11
0.544469
21
0.483474
0
LINE
8
BLACK
6
CONTINUOUS
10
0.544469
20
0.483474
11
0.544516
21
0.483236
0
LINE
8
BLACK
6
CONTINUOUS
10
0.544516
20
0.483236
11
0.544755
21
0.482036
0
LINE
8
BLACK
6
CONTINUOUS
10
0.839583
20
0.532645
11
0.839798
21
0.528925
0
LINE
8
BLACK
6
CONTINUOUS
10
0.839798
20
0.528925
11
0.840094
21
0.523796
0
LINE
8
BLACK
6
CONTINUOUS
10
0.840094
20
0.523796
11
0.840138
21
0.523597
0
LINE
8
BLACK
6
CONTINUOUS
10
0.840138
20
0.523597
11
0.840138
21
0.523597
0
LINE
8
BLACK
6
CONTINUOUS
10
0.840138
20
0.523597
11
0.840993
21
0.519804
0
LINE
8
BLACK
6
CONTINUOUS
10
0.840993
20
0.519804
11
0.842087
21
0.514951
0
LINE
8
BLACK
6
CONTINUOUS
10
0.842087
20
0.514951
11
0.842163
21
0.514763
0
LINE
8
BLACK
6
CONTINUOUS
10
0.842163
20
0.514763
11
0.842163
21
0.514763
0
LINE
8
BLACK
6
CONTINUOUS
10
0.842163
20
0.514763
11
0.845267
21
0.507119
0
LINE
8
BLACK
6
CONTINUOUS
10
0.845267
20
0.507119
11
0.845498
21
0.50655
0
LINE
8
BLACK
6
CONTINUOUS
10
0.845498
20
0.50655
11
0.850235
21
0.49882
0
LINE
8
BLACK
6
CONTINUOUS
10
0.850235
20
0.49882
11
0.856172
21
0.491967
0
LINE
8
BLACK
6
CONTINUOUS
10
0.856172
20
0.491967
11
0.863148
21
0.486175
0
LINE
8
BLACK
6
CONTINUOUS
10
0.863148
20
0.486175
11
0.870976
21
0.481601
0
LINE
8
BLACK
6
CONTINUOUS
10
0.870976
20
0.481601
11
0.879446
21
0.478366
0
LINE
8
BLACK
6
CONTINUOUS
10
0.879446
20
0.478366
11
0.879646
21
0.478326
0
LINE
8
BLACK
6
CONTINUOUS
10
0.879646
20
0.478326
11
0.879646
21
0.478326
0
LINE
8
BLACK
6
CONTINUOUS
10
0.879646
20
0.478326
11
0.879822
21
0.47829
0
LINE
8
BLACK
6
CONTINUOUS
10
0.879822
20
0.47829
11
0.888331
21
0.476559
0
LINE
8
BLACK
6
CONTINUOUS
10
0.888331
20
0.476559
11
0.893439
21
0.476371
0
LINE
8
BLACK
6
CONTINUOUS
10
0.893439
20
0.476371
11
0.897188
21
0.476234
0
LINE
8
BLACK
6
CONTINUOUS
10
0.897188
20
0.476234
11
0.897189
21
0.476234
0
LINE
8
BLACK
6
CONTINUOUS
10
0.897189
20
0.476234
11
0.897392
21
0.476226
0
LINE
8
BLACK
6
CONTINUOUS
10
0.897392
20
0.476226
11
0.897593
21
0.476252
0
LINE
8
BLACK
6
CONTINUOUS
10
0.897593
20
0.476252
11
0.897593
21
0.476252
0
LINE
8
BLACK
6
CONTINUOUS
10
0.897593
20
0.476252
11
0.900326
21
0.476602
0
LINE
8
BLACK
6
CONTINUOUS
10
0.900326
20
0.476602
11
0.906385
21
0.477378
0
LINE
8
BLACK
6
CONTINUOUS
10
0.906385
20
0.477378
11
0.90658
21
0.477437
0
LINE
8
BLACK
6
CONTINUOUS
10
0.90658
20
0.477437
11
0.90658
21
0.477437
0
LINE
8
BLACK
6
CONTINUOUS
10
0.90658
20
0.477437
11
0.913555
21
0.47953
0
LINE
8
BLACK
6
CONTINUOUS
10
0.913555
20
0.47953
11
0.915069
21
0.479984
0
LINE
8
BLACK
6
CONTINUOUS
10
0.915069
20
0.479984
11
0.915252
21
0.480073
0
LINE
8
BLACK
6
CONTINUOUS
10
0.915252
20
0.480073
11
0.916076
21
0.480477
0
LINE
8
BLACK
6
CONTINUOUS
10
0.916076
20
0.480477
11
0.91883
21
0.480949
0
LINE
8
BLACK
6
CONTINUOUS
10
0.91883
20
0.480949
11
0.921404
21
0.479858
0
LINE
8
BLACK
6
CONTINUOUS
10
0.921404
20
0.479858
11
0.921766
21
0.47953
0
LINE
8
BLACK
6
CONTINUOUS
10
0.921766
20
0.47953
11
1.02314
21
0.378156
0
LINE
8
BLACK
6
CONTINUOUS
10
1.02314
20
0.378156
11
1.02448
21
0.375703
0
LINE
8
BLACK
6
CONTINUOUS
10
1.02448
20
0.375703
11
1.02456
21
0.375193
0
LINE
8
BLACK
6
CONTINUOUS
10
1.02456
20
0.375193
11
1.02508
21
0.370532
0
LINE
8
BLACK
6
CONTINUOUS
10
1.02508
20
0.370532
11
1.02518
21
0.370251
0
LINE
8
BLACK
6
CONTINUOUS
10
1.02518
20
0.370251
11
1.02621
21
0.367424
0
LINE
8
BLACK
6
CONTINUOUS
10
1.02621
20
0.367424
11
1.02719
21
0.364756
0
LINE
8
BLACK
6
CONTINUOUS
10
1.02719
20
0.364756
11
1.03062
21
0.35965
0
LINE
8
BLACK
6
CONTINUOUS
10
1.03062
20
0.35965
11
1.03084
21
0.359449
0
LINE
8
BLACK
6
CONTINUOUS
10
1.03084
20
0.359449
11
1.03104
21
0.359223
0
LINE
8
BLACK
6
CONTINUOUS
10
1.03104
20
0.359223
11
1.03094
21
0.359139
0
LINE
8
BLACK
6
CONTINUOUS
10
1.03094
20
0.359139
11
1.03209
21
0.357246
0
LINE
8
BLACK
6
CONTINUOUS
10
1.03209
20
0.357246
11
1.03226
21
0.355962
0
LINE
8
BLACK
6
CONTINUOUS
10
1.03226
20
0.355962
11
1.03226
21
0.22002
0
LINE
8
BLACK
6
CONTINUOUS
10
1.03226
20
0.22002
11
1.03148
21
0.217338
0
LINE
8
BLACK
6
CONTINUOUS
10
1.03148
20
0.217338
11
1.02936
21
0.215507
0
LINE
8
BLACK
6
CONTINUOUS
10
1.02936
20
0.215507
11
1.0273
21
0.215059
0
LINE
8
BLACK
6
CONTINUOUS
10
1.0273
20
0.215059
11
1.01922
21
0.215059
0
LINE
8
BLACK
6
CONTINUOUS
10
1.01922
20
0.215059
11
1.01898
21
0.215012
0
LINE
8
BLACK
6
CONTINUOUS
10
1.01898
20
0.215012
11
1.0174
21
0.214696
0
LINE
8
BLACK
6
CONTINUOUS
10
1.0174
20
0.214696
11
1.0174
21
0.214696
0
LINE
8
BLACK
6
CONTINUOUS
10
1.0174
20
0.214696
11
1.01692
21
0.214601
0
LINE
8
BLACK
6
CONTINUOUS
10
1.01692
20
0.214601
11
1.01431
21
0.212856
0
LINE
8
BLACK
6
CONTINUOUS
10
1.01431
20
0.212856
11
1.01256
21
0.210245
0
LINE
8
BLACK
6
CONTINUOUS
10
1.01256
20
0.210245
11
1.01211
21
0.207943
0
LINE
8
BLACK
6
CONTINUOUS
10
1.01211
20
0.207943
11
1.01211
21
0.146388
0
LINE
8
BLACK
6
CONTINUOUS
10
1.01211
20
0.146388
11
1.01256
21
0.144085
0
LINE
8
BLACK
6
CONTINUOUS
10
1.01256
20
0.144085
11
1.01431
21
0.141474
0
LINE
8
BLACK
6
CONTINUOUS
10
1.01431
20
0.141474
11
1.01692
21
0.13973
0
LINE
8
BLACK
6
CONTINUOUS
10
1.01692
20
0.13973
11
1.0174
21
0.139634
0
LINE
8
BLACK
6
CONTINUOUS
10
1.0174
20
0.139634
11
1.0174
21
0.139634
0
LINE
8
BLACK
6
CONTINUOUS
10
1.0174
20
0.139634
11
1.01898
21
0.139319
0
LINE
8
BLACK
6
CONTINUOUS
10
1.01898
20
0.139319
11
1.01922
21
0.139272
0
LINE
8
BLACK
6
CONTINUOUS
10
1.01922
20
0.139272
11
1.08078
21
0.139272
0
LINE
8
BLACK
6
CONTINUOUS
10
1.08078
20
0.139272
11
1.08102
21
0.139319
0
LINE
8
BLACK
6
CONTINUOUS
10
1.08102
20
0.139319
11
1.0826
21
0.139634
0
LINE
8
BLACK
6
CONTINUOUS
10
1.0826
20
0.139634
11
1.0826
21
0.139634
0
LINE
8
BLACK
6
CONTINUOUS
10
1.0826
20
0.139634
11
1.08308
21
0.13973
0
LINE
8
BLACK
6
CONTINUOUS
10
1.08308
20
0.13973
11
1.08569
21
0.141474
0
LINE
8
BLACK
6
CONTINUOUS
10
1.08569
20
0.141474
11
1.08744
21
0.144085
0
LINE
8
BLACK
6
CONTINUOUS
10
1.08744
20
0.144085
11
1.08789
21
0.146388
0
LINE
8
BLACK
6
CONTINUOUS
10
1.08789
20
0.146388
11
1.08789
21
0.207943
0
LINE
8
BLACK
6
CONTINUOUS
10
1.08789
20
0.207943
11
1.08744
21
0.210245
0
LINE
8
BLACK
6
CONTINUOUS
10
1.08744
20
0.210245
11
1.08569
21
0.212856
0
LINE
8
BLACK
6
CONTINUOUS
10
1.08569
20
0.212856
11
1.08308
21
0.214601
0
LINE
8
BLACK
6
CONTINUOUS
10
1.08308
20
0.214601
11
1.0826
21
0.214696
0
LINE
8
BLACK
6
CONTINUOUS
10
1.0826
20
0.214696
11
1.0826
21
0.214696
0
LINE
8
BLACK
6
CONTINUOUS
10
1.0826
20
0.214696
11
1.08102
21
0.215012
0
LINE
8
BLACK
6
CONTINUOUS
10
1.08102
20
0.215012
11
1.08078
21
0.215059
0
LINE
8
BLACK
6
CONTINUOUS
10
1.08078
20
0.215059
11
1.0727
21
0.215059
0
LINE
8
BLACK
6
CONTINUOUS
10
1.0727
20
0.215059
11
1.07001
21
0.215847
0
LINE
8
BLACK
6
CONTINUOUS
10
1.07001
20
0.215847
11
1.06818
21
0.217959
0
LINE
8
BLACK
6
CONTINUOUS
10
1.06818
20
0.217959
11
1.06774
21
0.22002
0
LINE
8
BLACK
6
CONTINUOUS
10
1.06774
20
0.22002
11
1.06774
21
0.355964
0
LINE
8
BLACK
6
CONTINUOUS
10
1.06774
20
0.355964
11
1.06852
21
0.358646
0
LINE
8
BLACK
6
CONTINUOUS
10
1.06852
20
0.358646
11
1.06882
21
0.359028
0
LINE
8
BLACK
6
CONTINUOUS
10
1.06882
20
0.359028
11
1.06884
21
0.35905
0
LINE
8
BLACK
6
CONTINUOUS
10
1.06884
20
0.35905
11
1.07243
21
0.364045
0
LINE
8
BLACK
6
CONTINUOUS
10
1.07243
20
0.364045
11
1.07272
21
0.364756
0
LINE
8
BLACK
6
CONTINUOUS
10
1.07272
20
0.364756
11
1.07462
21
0.369475
0
LINE
8
BLACK
6
CONTINUOUS
10
1.07462
20
0.369475
11
1.07462
21
0.369475
0
LINE
8
BLACK
6
CONTINUOUS
10
1.07462
20
0.369475
11
1.07473
21
0.369752
0
LINE
8
BLACK
6
CONTINUOUS
10
1.07473
20
0.369752
11
1.07559
21
0.375842
0
LINE
8
BLACK
6
CONTINUOUS
10
1.07559
20
0.375842
11
1.0756
21
0.376378
0
LINE
8
BLACK
6
CONTINUOUS
10
1.0756
20
0.376378
11
1.07504
21
0.381035
0
LINE
8
BLACK
6
CONTINUOUS
10
1.07504
20
0.381035
11
1.0749
21
0.382187
0
LINE
8
BLACK
6
CONTINUOUS
10
1.0749
20
0.382187
11
1.0749
21
0.382187
0
LINE
8
BLACK
6
CONTINUOUS
10
1.0749
20
0.382187
11
1.07486
21
0.382484
0
LINE
8
BLACK
6
CONTINUOUS
10
1.07486
20
0.382484
11
1.07269
21
0.388238
0
LINE
8
BLACK
6
CONTINUOUS
10
1.07269
20
0.388238
11
1.07252
21
0.388485
0
LINE
8
BLACK
6
CONTINUOUS
10
1.07252
20
0.388485
11
1.07252
21
0.388485
0
LINE
8
BLACK
6
CONTINUOUS
10
1.07252
20
0.388485
11
1.06937
21
0.393061
0
LINE
8
BLACK
6
CONTINUOUS
10
1.06937
20
0.393061
11
1.06937
21
0.393061
0
LINE
8
BLACK
6
CONTINUOUS
10
1.06937
20
0.393061
11
1.0692
21
0.393308
0
LINE
8
BLACK
6
CONTINUOUS
10
1.0692
20
0.393308
11
1.06519
21
0.396885
0
LINE
8
BLACK
6
CONTINUOUS
10
1.06519
20
0.396885
11
1.06483
21
0.3972
0
LINE
8
BLACK
6
CONTINUOUS
10
1.06483
20
0.3972
11
1.06483
21
0.397201
0
LINE
8
BLACK
6
CONTINUOUS
10
1.06483
20
0.397201
11
1.06461
21
0.397399
0
LINE
8
BLACK
6
CONTINUOUS
10
1.06461
20
0.397399
11
1.06435
21
0.397539
0
LINE
8
BLACK
6
CONTINUOUS
10
1.06435
20
0.397539
11
1.05944
21
0.400138
0
LINE
8
BLACK
6
CONTINUOUS
10
1.05944
20
0.400138
11
1.05944
21
0.400138
0
LINE
8
BLACK
6
CONTINUOUS
10
1.05944
20
0.400138
11
1.05917
21
0.400278
0
LINE
8
BLACK
6
CONTINUOUS
10
1.05917
20
0.400278
11
1.05321
21
0.401776
0
LINE
8
BLACK
6
CONTINUOUS
10
1.05321
20
0.401776
11
1.05291
21
0.401778
0
LINE
8
BLACK
6
CONTINUOUS
10
1.05291
20
0.401778
11
1.05291
21
0.401778
0
LINE
8
BLACK
6
CONTINUOUS
10
1.05291
20
0.401778
11
1.05171
21
0.401784
0
LINE
8
BLACK
6
CONTINUOUS
10
1.05171
20
0.401784
11
1.04903
21
0.402586
0
LINE
8
BLACK
6
CONTINUOUS
10
1.04903
20
0.402586
11
1.04822
21
0.403237
0
LINE
8
BLACK
6
CONTINUOUS
10
1.04822
20
0.403237
11
0.946858
21
0.504603
0
LINE
8
BLACK
6
CONTINUOUS
10
0.946858
20
0.504603
11
0.945518
21
0.507056
0
LINE
8
BLACK
6
CONTINUOUS
10
0.945518
20
0.507056
11
0.945717
21
0.509844
0
LINE
8
BLACK
6
CONTINUOUS
10
0.945717
20
0.509844
11
0.945918
21
0.510309
0
LINE
8
BLACK
6
CONTINUOUS
10
0.945918
20
0.510309
11
0.946233
21
0.510946
0
LINE
8
BLACK
6
CONTINUOUS
10
0.946233
20
0.510946
11
0.946233
21
0.510946
0
LINE
8
BLACK
6
CONTINUOUS
10
0.946233
20
0.510946
11
0.946323
21
0.511129
0
LINE
8
BLACK
6
CONTINUOUS
10
0.946323
20
0.511129
11
0.947545
21
0.51515
0
LINE
8
BLACK
6
CONTINUOUS
10
0.947545
20
0.51515
11
0.9489
21
0.519609
0
LINE
8
BLACK
6
CONTINUOUS
10
0.9489
20
0.519609
11
0.9489
21
0.519609
0
LINE
8
BLACK
6
CONTINUOUS
10
0.9489
20
0.519609
11
0.948959
21
0.519804
0
LINE
8
BLACK
6
CONTINUOUS
10
0.948959
20
0.519804
11
0.950143
21
0.528793
0
LINE
8
BLACK
6
CONTINUOUS
10
0.950143
20
0.528793
11
0.950209
21
0.531496
0
LINE
8
BLACK
6
CONTINUOUS
10
0.950209
20
0.531496
11
0.949466
21
0.540532
0
LINE
8
BLACK
6
CONTINUOUS
10
0.949466
20
0.540532
11
0.947257
21
0.549326
0
LINE
8
BLACK
6
CONTINUOUS
10
0.947257
20
0.549326
11
0.943642
21
0.557641
0
LINE
8
BLACK
6
CONTINUOUS
10
0.943642
20
0.557641
11
0.938717
21
0.565253
0
LINE
8
BLACK
6
CONTINUOUS
10
0.938717
20
0.565253
11
0.937904
21
0.566146
0
LINE
8
BLACK
6
CONTINUOUS
10
0.937904
20
0.566146
11
0.932752
21
0.571809
0
LINE
8
BLACK
6
CONTINUOUS
10
0.932752
20
0.571809
11
0.932752
21
0.571809
0
LINE
8
BLACK
6
CONTINUOUS
10
0.932752
20
0.571809
11
0.932615
21
0.571959
0
LINE
8
BLACK
6
CONTINUOUS
10
0.932615
20
0.571959
11
0.932455
21
0.572085
0
LINE
8
BLACK
6
CONTINUOUS
10
0.932455
20
0.572085
11
0.932455
21
0.572086
0
LINE
8
BLACK
6
CONTINUOUS
10
0.932455
20
0.572086
11
0.925659
21
0.577453
0
LINE
8
BLACK
6
CONTINUOUS
10
0.925659
20
0.577453
11
0.925659
21
0.577453
0
LINE
8
BLACK
6
CONTINUOUS
10
0.925659
20
0.577453
11
0.925499
21
0.577579
0
LINE
8
BLACK
6
CONTINUOUS
10
0.925499
20
0.577579
11
0.925321
21
0.577677
0
LINE
8
BLACK
6
CONTINUOUS
10
0.925321
20
0.577677
11
0.925321
21
0.577677
0
LINE
8
BLACK
6
CONTINUOUS
10
0.925321
20
0.577677
11
0.91774
21
0.581862
0
LINE
8
BLACK
6
CONTINUOUS
10
0.91774
20
0.581862
11
0.91774
21
0.581862
0
LINE
8
BLACK
6
CONTINUOUS
10
0.91774
20
0.581862
11
0.917562
21
0.581961
0
LINE
8
BLACK
6
CONTINUOUS
10
0.917562
20
0.581961
11
0.91737
21
0.582029
0
LINE
8
BLACK
6
CONTINUOUS
10
0.91737
20
0.582029
11
0.91737
21
0.582029
0
LINE
8
BLACK
6
CONTINUOUS
10
0.91737
20
0.582029
11
0.915923
21
0.582541
0
LINE
8
BLACK
6
CONTINUOUS
10
0.915923
20
0.582541
11
0.913658
21
0.584179
0
LINE
8
BLACK
6
CONTINUOUS
10
0.913658
20
0.584179
11
0.912637
21
0.586781
0
LINE
8
BLACK
6
CONTINUOUS
10
0.912637
20
0.586781
11
0.912618
21
0.587217
0
LINE
8
BLACK
6
CONTINUOUS
10
0.912618
20
0.587217
11
0.912618
21
1.3812
0
LINE
8
BLACK
6
CONTINUOUS
10
0.912618
20
1.3812
11
0.913406
21
1.38388
0
LINE
8
BLACK
6
CONTINUOUS
10
0.913406
20
1.38388
11
0.915396
21
1.38566
0
LINE
8
BLACK
6
CONTINUOUS
10
0.915396
20
1.38566
11
0.923212
21
1.38948
0
LINE
8
BLACK
6
CONTINUOUS
10
0.923212
20
1.38948
11
0.930593
21
1.39475
0
LINE
8
BLACK
6
CONTINUOUS
10
0.930593
20
1.39475
11
0.937015
21
1.40115
0
LINE
8
BLACK
6
CONTINUOUS
10
0.937015
20
1.40115
11
0.939302
21
1.40433
0
LINE
8
BLACK
6
CONTINUOUS
10
0.939302
20
1.40433
11
0.942187
21
1.40835
0
LINE
8
BLACK
6
CONTINUOUS
10
0.942187
20
1.40835
11
0.942306
21
1.40851
0
LINE
8
BLACK
6
CONTINUOUS
10
0.942306
20
1.40851
11
0.946323
21
1.41664
0
LINE
8
BLACK
6
CONTINUOUS
10
0.946323
20
1.41664
11
0.947545
21
1.42066
0
LINE
8
BLACK
6
CONTINUOUS
10
0.947545
20
1.42066
11
0.9489
21
1.42512
0
LINE
8
BLACK
6
CONTINUOUS
10
0.9489
20
1.42512
11
0.9489
21
1.42512
0
LINE
8
BLACK
6
CONTINUOUS
10
0.9489
20
1.42512
11
0.948959
21
1.42532
0
LINE
8
BLACK
6
CONTINUOUS
10
0.948959
20
1.42532
11
0.950143
21
1.43431
0
LINE
8
BLACK
6
CONTINUOUS
10
0.950143
20
1.43431
11
0.950209
21
1.43701
0
LINE
8
BLACK
6
CONTINUOUS
10
0.950209
20
1.43701
11
0.949466
21
1.44604
0
LINE
8
BLACK
6
CONTINUOUS
10
0.949466
20
1.44604
11
0.947257
21
1.45484
0
LINE
8
BLACK
6
CONTINUOUS
10
0.947257
20
1.45484
11
0.943642
21
1.46315
0
LINE
8
BLACK
6
CONTINUOUS
10
0.943642
20
1.46315
11
0.938717
21
1.47077
0
LINE
8
BLACK
6
CONTINUOUS
10
0.938717
20
1.47077
11
0.937904
21
1.47166
0
LINE
8
BLACK
6
CONTINUOUS
10
0.937904
20
1.47166
11
0.932752
21
1.47732
0
LINE
8
BLACK
6
CONTINUOUS
10
0.932752
20
1.47732
11
0.932752
21
1.47732
0
LINE
8
BLACK
6
CONTINUOUS
10
0.932752
20
1.47732
11
0.932615
21
1.47747
0
LINE
8
BLACK
6
CONTINUOUS
10
0.932615
20
1.47747
11
0.932455
21
1.4776
0
LINE
8
BLACK
6
CONTINUOUS
10
0.932455
20
1.4776
11
0.932455
21
1.4776
0
LINE
8
BLACK
6
CONTINUOUS
10
0.932455
20
1.4776
11
0.925659
21
1.48296
0
LINE
8
BLACK
6
CONTINUOUS
10
0.925659
20
1.48296
11
0.925659
21
1.48296
0
LINE
8
BLACK
6
CONTINUOUS
10
0.925659
20
1.48296
11
0.925499
21
1.48309
0
LINE
8
BLACK
6
CONTINUOUS
10
0.925499
20
1.48309
11
0.925321
21
1.48319
0
LINE
8
BLACK
6
CONTINUOUS
10
0.925321
20
1.48319
11
0.925321
21
1.48319
0
LINE
8
BLACK
6
CONTINUOUS
10
0.925321
20
1.48319
11
0.91774
21
1.48737
0
LINE
8
BLACK
6
CONTINUOUS
10
0.91774
20
1.48737
11
0.91774
21
1.48737
0
LINE
8
BLACK
6
CONTINUOUS
10
0.91774
20
1.48737
11
0.917562
21
1.48747
0
LINE
8
BLACK
6
CONTINUOUS
10
0.917562
20
1.48747
11
0.91737
21
1.48754
0
LINE
8
BLACK
6
CONTINUOUS
10
0.91737
20
1.48754
11
0.91737
21
1.48754
0
LINE
8
BLACK
6
CONTINUOUS
10
0.91737
20
1.48754
11
0.909207
21
1.49043
0
LINE
8
BLACK
6
CONTINUOUS
10
0.909207
20
1.49043
11
0.909207
21
1.49043
0
LINE
8
BLACK
6
CONTINUOUS
10
0.909207
20
1.49043
11
0.909015
21
1.4905
0
LINE
8
BLACK
6
CONTINUOUS
10
0.909015
20
1.4905
11
0.908814
21
1.49053
0
LINE
8
BLACK
6
CONTINUOUS
10
0.908814
20
1.49053
11
0.908814
21
1.49053
0
LINE
8
BLACK
6
CONTINUOUS
10
0.908814
20
1.49053
11
0.903866
21
1.49142
0
LINE
8
BLACK
6
CONTINUOUS
10
0.903866
20
1.49142
11
0.900089
21
1.49209
0
LINE
8
BLACK
6
CONTINUOUS
10
0.900089
20
1.49209
11
0.896685
21
1.49213
0
LINE
8
BLACK
6
CONTINUOUS
10
0.896685
20
1.49213
11
0.891226
21
1.4922
0
LINE
8
BLACK
6
CONTINUOUS
10
0.891226
20
1.4922
11
0.891226
21
1.4922
0
LINE
8
BLACK
6
CONTINUOUS
10
0.891226
20
1.4922
11
0.891022
21
1.4922
0
LINE
8
BLACK
6
CONTINUOUS
10
0.891022
20
1.4922
11
0.88206
21
1.49083
0
LINE
8
BLACK
6
CONTINUOUS
10
0.88206
20
1.49083
11
0.873442
21
1.48801
0
LINE
8
BLACK
6
CONTINUOUS
10
0.873442
20
1.48801
11
0.873261
21
1.48792
0
LINE
8
BLACK
6
CONTINUOUS
10
0.873261
20
1.48792
11
0.873261
21
1.48792
0
LINE
8
BLACK
6
CONTINUOUS
10
0.873261
20
1.48792
11
0.867713
21
1.48503
0
LINE
8
BLACK
6
CONTINUOUS
10
0.867713
20
1.48503
11
0.8654
21
1.48382
0
LINE
8
BLACK
6
CONTINUOUS
10
0.8654
20
1.48382
11
0.858149
21
1.47838
0
LINE
8
BLACK
6
CONTINUOUS
10
0.858149
20
1.47838
11
0.851885
21
1.47183
0
LINE
8
BLACK
6
CONTINUOUS
10
0.851885
20
1.47183
11
0.846776
21
1.46434
0
LINE
8
BLACK
6
CONTINUOUS
10
0.846776
20
1.46434
11
0.84669
21
1.46415
0
LINE
8
BLACK
6
CONTINUOUS
10
0.84669
20
1.46415
11
0.84669
21
1.46415
0
LINE
8
BLACK
6
CONTINUOUS
10
0.84669
20
1.46415
11
0.846226
21
1.46315
0
LINE
8
BLACK
6
CONTINUOUS
10
0.846226
20
1.46315
11
0.842958
21
1.45611
0
LINE
8
BLACK
6
CONTINUOUS
10
0.842958
20
1.45611
11
0.840535
21
1.44738
0
LINE
8
BLACK
6
CONTINUOUS
10
0.840535
20
1.44738
11
0.839572
21
1.43836
0
LINE
8
BLACK
6
CONTINUOUS
10
0.839572
20
1.43836
11
0.839583
21
1.43816
0
LINE
8
BLACK
6
CONTINUOUS
10
0.839583
20
1.43816
11
0.839583
21
1.43816
0
LINE
8
BLACK
6
CONTINUOUS
10
0.839583
20
1.43816
11
0.839798
21
1.43444
0
LINE
8
BLACK
6
CONTINUOUS
10
0.839798
20
1.43444
11
0.840094
21
1.42931
0
LINE
8
BLACK
6
CONTINUOUS
10
0.840094
20
1.42931
11
0.840138
21
1.42911
0
LINE
8
BLACK
6
CONTINUOUS
10
0.840138
20
1.42911
11
0.840138
21
1.42911
0
LINE
8
BLACK
6
CONTINUOUS
10
0.840138
20
1.42911
11
0.840993
21
1.42532
0
LINE
8
BLACK
6
CONTINUOUS
10
0.840993
20
1.42532
11
0.842087
21
1.42046
0
LINE
8
BLACK
6
CONTINUOUS
10
0.842087
20
1.42046
11
0.842163
21
1.42027
0
LINE
8
BLACK
6
CONTINUOUS
10
0.842163
20
1.42027
11
0.842163
21
1.42027
0
LINE
8
BLACK
6
CONTINUOUS
10
0.842163
20
1.42027
11
0.843639
21
1.41664
0
LINE
8
BLACK
6
CONTINUOUS
10
0.843639
20
1.41664
11
0.845498
21
1.41206
0
LINE
8
BLACK
6
CONTINUOUS
10
0.845498
20
1.41206
11
0.850235
21
1.40433
0
LINE
8
BLACK
6
CONTINUOUS
10
0.850235
20
1.40433
11
0.856172
21
1.39748
0
LINE
8
BLACK
6
CONTINUOUS
10
0.856172
20
1.39748
11
0.863148
21
1.39169
0
LINE
8
BLACK
6
CONTINUOUS
10
0.863148
20
1.39169
11
0.870976
21
1.38711
0
LINE
8
BLACK
6
CONTINUOUS
10
0.870976
20
1.38711
11
0.873162
21
1.38628
0
LINE
8
BLACK
6
CONTINUOUS
10
0.873162
20
1.38628
11
0.873955
21
1.38597
0
LINE
8
BLACK
6
CONTINUOUS
10
0.873955
20
1.38597
11
0.876179
21
1.38428
0
LINE
8
BLACK
6
CONTINUOUS
10
0.876179
20
1.38428
11
0.877136
21
1.38166
0
LINE
8
BLACK
6
CONTINUOUS
10
0.877136
20
1.38166
11
0.877146
21
1.38134
0
LINE
8
BLACK
6
CONTINUOUS
10
0.877146
20
1.38134
11
0.877146
21
0.587308
0
LINE
8
BLACK
6
CONTINUOUS
10
0.877146
20
0.587308
11
0.876358
21
0.584626
0
LINE
8
BLACK
6
CONTINUOUS
10
0.876358
20
0.584626
11
0.874246
21
0.582795
0
LINE
8
BLACK
6
CONTINUOUS
10
0.874246
20
0.582795
11
0.873726
21
0.582593
0
LINE
8
BLACK
6
CONTINUOUS
10
0.873726
20
0.582593
11
0.873677
21
0.582577
0
LINE
8
BLACK
6
CONTINUOUS
10
0.873677
20
0.582577
11
0.873635
21
0.582563
0
LINE
8
BLACK
6
CONTINUOUS
10
0.873635
20
0.582563
11
0.873635
21
0.582563
0
LINE
8
BLACK
6
CONTINUOUS
10
0.873635
20
0.582563
11
0.873442
21
0.5825
0
LINE
8
BLACK
6
CONTINUOUS
10
0.873442
20
0.5825
11
0.872406
21
0.581961
0
LINE
8
BLACK
6
CONTINUOUS
10
0.872406
20
0.581961
11
0.867713
21
0.579518
0
LINE
8
BLACK
6
CONTINUOUS
10
0.867713
20
0.579518
11
0.8654
21
0.578313
0
LINE
8
BLACK
6
CONTINUOUS
10
0.8654
20
0.578313
11
0.858149
21
0.572869
0
LINE
8
BLACK
6
CONTINUOUS
10
0.858149
20
0.572869
11
0.851885
21
0.566314
0
LINE
8
BLACK
6
CONTINUOUS
10
0.851885
20
0.566314
11
0.846776
21
0.558824
0
LINE
8
BLACK
6
CONTINUOUS
10
0.846776
20
0.558824
11
0.84669
21
0.55864
0
LINE
8
BLACK
6
CONTINUOUS
10
0.84669
20
0.55864
11
0.84669
21
0.558639
0
LINE
8
BLACK
6
CONTINUOUS
10
0.84669
20
0.558639
11
0.843044
21
0.550785
0
LINE
8
BLACK
6
CONTINUOUS
10
0.843044
20
0.550785
11
0.842958
21
0.5506
0
LINE
8
BLACK
6
CONTINUOUS
10
0.842958
20
0.5506
11
0.841774
21
0.546331
0
LINE
8
BLACK
6
CONTINUOUS
10
0.841774
20
0.546331
11
0.84084
21
0.542962
0
LINE
8
BLACK
6
CONTINUOUS
10
0.84084
20
0.542962
11
0.840535
21
0.541863
0
LINE
8
BLACK
6
CONTINUOUS
10
0.840535
20
0.541863
11
0.839572
21
0.532848
0
LINE
8
BLACK
6
CONTINUOUS
10
0.839572
20
0.532848
11
0.839583
21
0.532645
0
LINE
8
BLACK
6
CONTINUOUS
10
0.839583
20
0.532645
11
0.839583
21
0.532645
0
LINE
8
BLACK
6
CONTINUOUS
10
1.80533
20
1.48399
11
1.81381
21
1.48231
0
LINE
8
BLACK
6
CONTINUOUS
10
1.81381
20
1.48231
11
1.82184
21
1.4791
0
LINE
8
BLACK
6
CONTINUOUS
10
1.82184
20
1.4791
11
1.82915
21
1.47449
0
LINE
8
BLACK
6
CONTINUOUS
10
1.82915
20
1.47449
11
1.8355
21
1.46862
0
LINE
8
BLACK
6
CONTINUOUS
10
1.8355
20
1.46862
11
1.84068
21
1.46169
0
LINE
8
BLACK
6
CONTINUOUS
10
1.84068
20
1.46169
11
1.8445
21
1.45394
0
LINE
8
BLACK
6
CONTINUOUS
10
1.8445
20
1.45394
11
1.84685
21
1.44562
0
LINE
8
BLACK
6
CONTINUOUS
10
1.84685
20
1.44562
11
1.84764
21
1.43701
0
LINE
8
BLACK
6
CONTINUOUS
10
1.84764
20
1.43701
11
1.84757
21
1.43454
0
LINE
8
BLACK
6
CONTINUOUS
10
1.84757
20
1.43454
11
1.84633
21
1.42598
0
LINE
8
BLACK
6
CONTINUOUS
10
1.84633
20
1.42598
11
1.84355
21
1.41779
0
LINE
8
BLACK
6
CONTINUOUS
10
1.84355
20
1.41779
11
1.83933
21
1.41025
0
LINE
8
BLACK
6
CONTINUOUS
10
1.83933
20
1.41025
11
1.8338
21
1.4036
0
LINE
8
BLACK
6
CONTINUOUS
10
1.8338
20
1.4036
11
1.82715
21
1.39807
0
LINE
8
BLACK
6
CONTINUOUS
10
1.82715
20
1.39807
11
1.81961
21
1.39385
0
LINE
8
BLACK
6
CONTINUOUS
10
1.81961
20
1.39385
11
1.81142
21
1.39107
0
LINE
8
BLACK
6
CONTINUOUS
10
1.81142
20
1.39107
11
1.81024
21
1.3909
0
LINE
8
BLACK
6
CONTINUOUS
10
1.81024
20
1.3909
11
1.81024
21
0.577506
0
LINE
8
BLACK
6
CONTINUOUS
10
1.81024
20
0.577506
11
1.81381
21
0.576795
0
LINE
8
BLACK
6
CONTINUOUS
10
1.81381
20
0.576795
11
1.82184
21
0.573591
0
LINE
8
BLACK
6
CONTINUOUS
10
1.82184
20
0.573591
11
1.82915
21
0.568977
0
LINE
8
BLACK
6
CONTINUOUS
10
1.82915
20
0.568977
11
1.8355
21
0.563109
0
LINE
8
BLACK
6
CONTINUOUS
10
1.8355
20
0.563109
11
1.84068
21
0.556181
0
LINE
8
BLACK
6
CONTINUOUS
10
1.84068
20
0.556181
11
1.8445
21
0.548427
0
LINE
8
BLACK
6
CONTINUOUS
10
1.8445
20
0.548427
11
1.84685
21
0.540106
0
LINE
8
BLACK
6
CONTINUOUS
10
1.84685
20
0.540106
11
1.84764
21
0.531496
0
LINE
8
BLACK
6
CONTINUOUS
10
1.84764
20
0.531496
11
1.84757
21
0.529024
0
LINE
8
BLACK
6
CONTINUOUS
10
1.84757
20
0.529024
11
1.84633
21
0.520467
0
LINE
8
BLACK
6
CONTINUOUS
10
1.84633
20
0.520467
11
1.84355
21
0.51228
0
LINE
8
BLACK
6
CONTINUOUS
10
1.84355
20
0.51228
11
1.83933
21
0.504737
0
LINE
8
BLACK
6
CONTINUOUS
10
1.83933
20
0.504737
11
1.8338
21
0.498089
0
LINE
8
BLACK
6
CONTINUOUS
10
1.8338
20
0.498089
11
1.82715
21
0.492561
0
LINE
8
BLACK
6
CONTINUOUS
10
1.82715
20
0.492561
11
1.81961
21
0.488336
0
LINE
8
BLACK
6
CONTINUOUS
10
1.81961
20
0.488336
11
1.81142
21
0.485557
0
LINE
8
BLACK
6
CONTINUOUS
10
1.81142
20
0.485557
11
1.80287
21
0.484317
0
LINE
8
BLACK
6
CONTINUOUS
10
1.80287
20
0.484317
11
1.79423
21
0.484656
0
LINE
8
BLACK
6
CONTINUOUS
10
1.79423
20
0.484656
11
1.78579
21
0.486564
0
LINE
8
BLACK
6
CONTINUOUS
10
1.78579
20
0.486564
11
1.77785
21
0.489977
0
LINE
8
BLACK
6
CONTINUOUS
10
1.77785
20
0.489977
11
1.77066
21
0.494781
0
LINE
8
BLACK
6
CONTINUOUS
10
1.77066
20
0.494781
11
1.76447
21
0.500813
0
LINE
8
BLACK
6
CONTINUOUS
10
1.76447
20
0.500813
11
1.75948
21
0.507874
0
LINE
8
BLACK
6
CONTINUOUS
10
1.75948
20
0.507874
11
1.75586
21
0.515726
0
LINE
8
BLACK
6
CONTINUOUS
10
1.75586
20
0.515726
11
1.75435
21
0.521654
0
LINE
8
BLACK
6
CONTINUOUS
10
1.75435
20
0.521654
11
1.65557
21
0.521654
0
LINE
8
BLACK
6
CONTINUOUS
10
1.65557
20
0.521654
11
1.51707
21
0.383149
0
LINE
8
BLACK
6
CONTINUOUS
10
1.51707
20
0.383149
11
1.51752
21
0.38
0
LINE
8
BLACK
6
CONTINUOUS
10
1.51752
20
0.38
11
1.51751
21
0.379572
0
LINE
8
BLACK
6
CONTINUOUS
10
1.51751
20
0.379572
11
1.51669
21
0.374673
0
LINE
8
BLACK
6
CONTINUOUS
10
1.51669
20
0.374673
11
1.51452
21
0.370203
0
LINE
8
BLACK
6
CONTINUOUS
10
1.51452
20
0.370203
11
1.51119
21
0.36652
0
LINE
8
BLACK
6
CONTINUOUS
10
1.51119
20
0.36652
11
1.50696
21
0.363921
0
LINE
8
BLACK
6
CONTINUOUS
10
1.50696
20
0.363921
11
1.50217
21
0.362615
0
LINE
8
BLACK
6
CONTINUOUS
10
1.50217
20
0.362615
11
1.4972
21
0.362706
0
LINE
8
BLACK
6
CONTINUOUS
10
1.4972
20
0.362706
11
1.49676
21
0.362842
0
LINE
8
BLACK
6
CONTINUOUS
10
1.49676
20
0.362842
11
1.35984
21
0.225923
0
LINE
8
BLACK
6
CONTINUOUS
10
1.35984
20
0.225923
11
1.35984
21
0.207165
0
LINE
8
BLACK
6
CONTINUOUS
10
1.35984
20
0.207165
11
1.38
21
0.207165
0
LINE
8
BLACK
6
CONTINUOUS
10
1.38
20
0.207165
11
1.38
21
0.147165
0
LINE
8
BLACK
6
CONTINUOUS
10
1.38
20
0.147165
11
1.32
21
0.147165
0
LINE
8
BLACK
6
CONTINUOUS
10
1.32
20
0.147165
11
1.32
21
0.207165
0
LINE
8
BLACK
6
CONTINUOUS
10
1.32
20
0.207165
11
1.34016
21
0.207165
0
LINE
8
BLACK
6
CONTINUOUS
10
1.34016
20
0.207165
11
1.34016
21
0.23
0
LINE
8
BLACK
6
CONTINUOUS
10
1.34016
20
0.23
11
1.34091
21
0.233767
0
LINE
8
BLACK
6
CONTINUOUS
10
1.34091
20
0.233767
11
1.34304
21
0.23696
0
LINE
8
BLACK
6
CONTINUOUS
10
1.34304
20
0.23696
11
1.48292
21
0.376842
0
LINE
8
BLACK
6
CONTINUOUS
10
1.48292
20
0.376842
11
1.48248
21
0.380214
0
LINE
8
BLACK
6
CONTINUOUS
10
1.48248
20
0.380214
11
1.48325
21
0.385122
0
LINE
8
BLACK
6
CONTINUOUS
10
1.48325
20
0.385122
11
1.48536
21
0.389619
0
LINE
8
BLACK
6
CONTINUOUS
10
1.48536
20
0.389619
11
1.48865
21
0.393342
0
LINE
8
BLACK
6
CONTINUOUS
10
1.48865
20
0.393342
11
1.49285
21
0.395993
0
LINE
8
BLACK
6
CONTINUOUS
10
1.49285
20
0.395993
11
1.49762
21
0.397358
0
LINE
8
BLACK
6
CONTINUOUS
10
1.49762
20
0.397358
11
1.50259
21
0.397327
0
LINE
8
BLACK
6
CONTINUOUS
10
1.50259
20
0.397327
11
1.50322
21
0.397139
0
LINE
8
BLACK
6
CONTINUOUS
10
1.50322
20
0.397139
11
1.64454
21
0.538456
0
LINE
8
BLACK
6
CONTINUOUS
10
1.64454
20
0.538456
11
1.64773
21
0.540589
0
LINE
8
BLACK
6
CONTINUOUS
10
1.64773
20
0.540589
11
1.6515
21
0.541339
0
LINE
8
BLACK
6
CONTINUOUS
10
1.6515
20
0.541339
11
1.6515
21
0.541339
0
LINE
8
BLACK
6
CONTINUOUS
10
1.6515
20
0.541339
11
1.75419
21
0.541339
0
LINE
8
BLACK
6
CONTINUOUS
10
1.75419
20
0.541339
11
1.75675
21
0.549576
0
LINE
8
BLACK
6
CONTINUOUS
10
1.75675
20
0.549576
11
1.76077
21
0.557227
0
LINE
8
BLACK
6
CONTINUOUS
10
1.76077
20
0.557227
11
1.76612
21
0.564017
0
LINE
8
BLACK
6
CONTINUOUS
10
1.76612
20
0.564017
11
1.77262
21
0.569717
0
LINE
8
BLACK
6
CONTINUOUS
10
1.77262
20
0.569717
11
1.78005
21
0.574138
0
LINE
8
BLACK
6
CONTINUOUS
10
1.78005
20
0.574138
11
1.78817
21
0.57713
0
LINE
8
BLACK
6
CONTINUOUS
10
1.78817
20
0.57713
11
1.79055
21
0.57754
0
LINE
8
BLACK
6
CONTINUOUS
10
1.79055
20
0.57754
11
1.79055
21
1.391
0
LINE
8
BLACK
6
CONTINUOUS
10
1.79055
20
1.391
11
1.78579
21
1.39208
0
LINE
8
BLACK
6
CONTINUOUS
10
1.78579
20
1.39208
11
1.77785
21
1.39549
0
LINE
8
BLACK
6
CONTINUOUS
10
1.77785
20
1.39549
11
1.77066
21
1.40029
0
LINE
8
BLACK
6
CONTINUOUS
10
1.77066
20
1.40029
11
1.76447
21
1.40633
0
LINE
8
BLACK
6
CONTINUOUS
10
1.76447
20
1.40633
11
1.75948
21
1.41339
0
LINE
8
BLACK
6
CONTINUOUS
10
1.75948
20
1.41339
11
1.75586
21
1.42124
0
LINE
8
BLACK
6
CONTINUOUS
10
1.75586
20
1.42124
11
1.75373
21
1.42962
0
LINE
8
BLACK
6
CONTINUOUS
10
1.75373
20
1.42962
11
1.75317
21
1.43824
0
LINE
8
BLACK
6
CONTINUOUS
10
1.75317
20
1.43824
11
1.75418
21
1.44683
0
LINE
8
BLACK
6
CONTINUOUS
10
1.75418
20
1.44683
11
1.75675
21
1.45509
0
LINE
8
BLACK
6
CONTINUOUS
10
1.75675
20
1.45509
11
1.76077
21
1.46274
0
LINE
8
BLACK
6
CONTINUOUS
10
1.76077
20
1.46274
11
1.76612
21
1.46953
0
LINE
8
BLACK
6
CONTINUOUS
10
1.76612
20
1.46953
11
1.77262
21
1.47523
0
LINE
8
BLACK
6
CONTINUOUS
10
1.77262
20
1.47523
11
1.78005
21
1.47965
0
LINE
8
BLACK
6
CONTINUOUS
10
1.78005
20
1.47965
11
1.78817
21
1.48264
0
LINE
8
BLACK
6
CONTINUOUS
10
1.78817
20
1.48264
11
1.79669
21
1.48411
0
LINE
8
BLACK
6
CONTINUOUS
10
1.79669
20
1.48411
11
1.80533
21
1.48399
0
LINE
8
BLACK
6
CONTINUOUS
10
1.55236
20
1.38976
11
1.51496
21
1.38976
0
LINE
8
BLACK
6
CONTINUOUS
10
1.51496
20
1.38976
11
1.51496
21
0.57874
0
LINE
8
BLACK
6
CONTINUOUS
10
1.51496
20
0.57874
11
1.55236
21
0.57874
0
LINE
8
BLACK
6
CONTINUOUS
10
1.55236
20
0.57874
11
1.55236
21
0.484252
0
LINE
8
BLACK
6
CONTINUOUS
10
1.55236
20
0.484252
11
1.47179
21
0.484252
0
LINE
8
BLACK
6
CONTINUOUS
10
1.47179
20
0.484252
11
1.25984
21
0.272301
0
LINE
8
BLACK
6
CONTINUOUS
10
1.25984
20
0.272301
11
1.25984
21
0.207165
0
LINE
8
BLACK
6
CONTINUOUS
10
1.25984
20
0.207165
11
1.28
21
0.207165
0
LINE
8
BLACK
6
CONTINUOUS
10
1.28
20
0.207165
11
1.28
21
0.147165
0
LINE
8
BLACK
6
CONTINUOUS
10
1.28
20
0.147165
11
1.22
21
0.147165
0
LINE
8
BLACK
6
CONTINUOUS
10
1.22
20
0.147165
11
1.22
21
0.167323
0
LINE
8
BLACK
6
CONTINUOUS
10
1.22
20
0.167323
11
1.18
21
0.167323
0
LINE
8
BLACK
6
CONTINUOUS
10
1.18
20
0.167323
11
1.18
21
0.147165
0
LINE
8
BLACK
6
CONTINUOUS
10
1.18
20
0.147165
11
1.12
21
0.147165
0
LINE
8
BLACK
6
CONTINUOUS
10
1.12
20
0.147165
11
1.12
21
0.207165
0
LINE
8
BLACK
6
CONTINUOUS
10
1.12
20
0.207165
11
1.14016
21
0.207165
0
LINE
8
BLACK
6
CONTINUOUS
10
1.14016
20
0.207165
11
1.14016
21
0.645923
0
LINE
8
BLACK
6
CONTINUOUS
10
1.14016
20
0.645923
11
1.11319
21
0.672893
0
LINE
8
BLACK
6
CONTINUOUS
10
1.11319
20
0.672893
11
1.11217
21
0.672615
0
LINE
8
BLACK
6
CONTINUOUS
10
1.11217
20
0.672615
11
1.1072
21
0.672706
0
LINE
8
BLACK
6
CONTINUOUS
10
1.1072
20
0.672706
11
1.10246
21
0.674187
0
LINE
8
BLACK
6
CONTINUOUS
10
1.10246
20
0.674187
11
1.09832
21
0.676939
0
LINE
8
BLACK
6
CONTINUOUS
10
1.09832
20
0.676939
11
1.09513
21
0.680742
0
LINE
8
BLACK
6
CONTINUOUS
10
1.09513
20
0.680742
11
1.09313
21
0.685289
0
LINE
8
BLACK
6
CONTINUOUS
10
1.09313
20
0.685289
11
1.09248
21
0.690214
0
LINE
8
BLACK
6
CONTINUOUS
10
1.09248
20
0.690214
11
1.09325
21
0.695122
0
LINE
8
BLACK
6
CONTINUOUS
10
1.09325
20
0.695122
11
1.09536
21
0.699619
0
LINE
8
BLACK
6
CONTINUOUS
10
1.09536
20
0.699619
11
1.09865
21
0.703342
0
LINE
8
BLACK
6
CONTINUOUS
10
1.09865
20
0.703342
11
1.10285
21
0.705993
0
LINE
8
BLACK
6
CONTINUOUS
10
1.10285
20
0.705993
11
1.10762
21
0.707358
0
LINE
8
BLACK
6
CONTINUOUS
10
1.10762
20
0.707358
11
1.11259
21
0.707327
0
LINE
8
BLACK
6
CONTINUOUS
10
1.11259
20
0.707327
11
1.11735
21
0.705904
0
LINE
8
BLACK
6
CONTINUOUS
10
1.11735
20
0.705904
11
1.12152
21
0.703202
0
LINE
8
BLACK
6
CONTINUOUS
10
1.12152
20
0.703202
11
1.12476
21
0.699439
0
LINE
8
BLACK
6
CONTINUOUS
10
1.12476
20
0.699439
11
1.12682
21
0.694917
0
LINE
8
BLACK
6
CONTINUOUS
10
1.12682
20
0.694917
11
1.12752
21
0.69
0
LINE
8
BLACK
6
CONTINUOUS
10
1.12752
20
0.69
11
1.12751
21
0.689572
0
LINE
8
BLACK
6
CONTINUOUS
10
1.12751
20
0.689572
11
1.12706
21
0.686861
0
LINE
8
BLACK
6
CONTINUOUS
10
1.12706
20
0.686861
11
1.15696
21
0.65696
0
LINE
8
BLACK
6
CONTINUOUS
10
1.15696
20
0.65696
11
1.15909
21
0.653767
0
LINE
8
BLACK
6
CONTINUOUS
10
1.15909
20
0.653767
11
1.15984
21
0.65
0
LINE
8
BLACK
6
CONTINUOUS
10
1.15984
20
0.65
11
1.15984
21
0.207165
0
LINE
8
BLACK
6
CONTINUOUS
10
1.15984
20
0.207165
11
1.18
21
0.207165
0
LINE
8
BLACK
6
CONTINUOUS
10
1.18
20
0.207165
11
1.18
21
0.187008
0
LINE
8
BLACK
6
CONTINUOUS
10
1.18
20
0.187008
11
1.22
21
0.187008
0
LINE
8
BLACK
6
CONTINUOUS
10
1.22
20
0.187008
11
1.22
21
0.207165
0
LINE
8
BLACK
6
CONTINUOUS
10
1.22
20
0.207165
11
1.24016
21
0.207165
0
LINE
8
BLACK
6
CONTINUOUS
10
1.24016
20
0.207165
11
1.24016
21
0.276378
0
LINE
8
BLACK
6
CONTINUOUS
10
1.24016
20
0.276378
11
1.24091
21
0.280145
0
LINE
8
BLACK
6
CONTINUOUS
10
1.24091
20
0.280145
11
1.24304
21
0.283338
0
LINE
8
BLACK
6
CONTINUOUS
10
1.24304
20
0.283338
11
1.45787
21
0.498171
0
LINE
8
BLACK
6
CONTINUOUS
10
1.45787
20
0.498171
11
1.45787
21
0.57874
0
LINE
8
BLACK
6
CONTINUOUS
10
1.45787
20
0.57874
11
1.49528
21
0.57874
0
LINE
8
BLACK
6
CONTINUOUS
10
1.49528
20
0.57874
11
1.49528
21
1.38976
0
LINE
8
BLACK
6
CONTINUOUS
10
1.49528
20
1.38976
11
1.45787
21
1.38976
0
LINE
8
BLACK
6
CONTINUOUS
10
1.45787
20
1.38976
11
1.45787
21
1.48425
0
LINE
8
BLACK
6
CONTINUOUS
10
1.45787
20
1.48425
11
1.55236
21
1.48425
0
LINE
8
BLACK
6
CONTINUOUS
10
1.55236
20
1.48425
11
1.55236
21
1.38976
0
LINE
8
BLACK
6
CONTINUOUS
10
0.89982
20
1.48399
11
0.9083
21
1.48231
0
LINE
8
BLACK
6
CONTINUOUS
10
0.9083
20
1.48231
11
0.91633
21
1.4791
0
LINE
8
BLACK
6
CONTINUOUS
10
0.91633
20
1.4791
11
0.923642
21
1.47449
0
LINE
8
BLACK
6
CONTINUOUS
10
0.923642
20
1.47449
11
0.929991
21
1.46862
0
LINE
8
BLACK
6
CONTINUOUS
10
0.929991
20
1.46862
11
0.935164
21
1.46169
0
LINE
8
BLACK
6
CONTINUOUS
10
0.935164
20
1.46169
11
0.938988
21
1.45394
0
LINE
8
BLACK
6
CONTINUOUS
10
0.938988
20
1.45394
11
0.941335
21
1.44562
0
LINE
8
BLACK
6
CONTINUOUS
10
0.941335
20
1.44562
11
0.942126
21
1.43701
0
LINE
8
BLACK
6
CONTINUOUS
10
0.942126
20
1.43701
11
0.942061
21
1.43454
0
LINE
8
BLACK
6
CONTINUOUS
10
0.942061
20
1.43454
11
0.940821
21
1.42598
0
LINE
8
BLACK
6
CONTINUOUS
10
0.940821
20
1.42598
11
0.938042
21
1.41779
0
LINE
8
BLACK
6
CONTINUOUS
10
0.938042
20
1.41779
11
0.933817
21
1.41025
0
LINE
8
BLACK
6
CONTINUOUS
10
0.933817
20
1.41025
11
0.928289
21
1.4036
0
LINE
8
BLACK
6
CONTINUOUS
10
0.928289
20
1.4036
11
0.921641
21
1.39807
0
LINE
8
BLACK
6
CONTINUOUS
10
0.921641
20
1.39807
11
0.914098
21
1.39385
0
LINE
8
BLACK
6
CONTINUOUS
10
0.914098
20
1.39385
11
0.905911
21
1.39107
0
LINE
8
BLACK
6
CONTINUOUS
10
0.905911
20
1.39107
11
0.904724
21
1.3909
0
LINE
8
BLACK
6
CONTINUOUS
10
0.904724
20
1.3909
11
0.904724
21
0.577506
0
LINE
8
BLACK
6
CONTINUOUS
10
0.904724
20
0.577506
11
0.9083
21
0.576795
0
LINE
8
BLACK
6
CONTINUOUS
10
0.9083
20
0.576795
11
0.91633
21
0.573591
0
LINE
8
BLACK
6
CONTINUOUS
10
0.91633
20
0.573591
11
0.923642
21
0.568977
0
LINE
8
BLACK
6
CONTINUOUS
10
0.923642
20
0.568977
11
0.929991
21
0.563109
0
LINE
8
BLACK
6
CONTINUOUS
10
0.929991
20
0.563109
11
0.935164
21
0.556181
0
LINE
8
BLACK
6
CONTINUOUS
10
0.935164
20
0.556181
11
0.938988
21
0.548427
0
LINE
8
BLACK
6
CONTINUOUS
10
0.938988
20
0.548427
11
0.941335
21
0.540106
0
LINE
8
BLACK
6
CONTINUOUS
10
0.941335
20
0.540106
11
0.942126
21
0.531496
0
LINE
8
BLACK
6
CONTINUOUS
10
0.942126
20
0.531496
11
0.942061
21
0.529024
0
LINE
8
BLACK
6
CONTINUOUS
10
0.942061
20
0.529024
11
0.940821
21
0.520467
0
LINE
8
BLACK
6
CONTINUOUS
10
0.940821
20
0.520467
11
0.938042
21
0.51228
0
LINE
8
BLACK
6
CONTINUOUS
10
0.938042
20
0.51228
11
0.934443
21
0.505854
0
LINE
8
BLACK
6
CONTINUOUS
10
0.934443
20
0.505854
11
1.0468
21
0.3935
0
LINE
8
BLACK
6
CONTINUOUS
10
1.0468
20
0.3935
11
1.04762
21
0.393736
0
LINE
8
BLACK
6
CONTINUOUS
10
1.04762
20
0.393736
11
1.05259
21
0.393705
0
LINE
8
BLACK
6
CONTINUOUS
10
1.05259
20
0.393705
11
1.05735
21
0.392282
0
LINE
8
BLACK
6
CONTINUOUS
10
1.05735
20
0.392282
11
1.06152
21
0.38958
0
LINE
8
BLACK
6
CONTINUOUS
10
1.06152
20
0.38958
11
1.06476
21
0.385817
0
LINE
8
BLACK
6
CONTINUOUS
10
1.06476
20
0.385817
11
1.06682
21
0.381295
0
LINE
8
BLACK
6
CONTINUOUS
10
1.06682
20
0.381295
11
1.06752
21
0.376378
0
LINE
8
BLACK
6
CONTINUOUS
10
1.06752
20
0.376378
11
1.06751
21
0.37595
0
LINE
8
BLACK
6
CONTINUOUS
10
1.06751
20
0.37595
11
1.06669
21
0.371051
0
LINE
8
BLACK
6
CONTINUOUS
10
1.06669
20
0.371051
11
1.06452
21
0.366581
0
LINE
8
BLACK
6
CONTINUOUS
10
1.06452
20
0.366581
11
1.06119
21
0.362898
0
LINE
8
BLACK
6
CONTINUOUS
10
1.06119
20
0.362898
11
1.05984
21
0.36207
0
LINE
8
BLACK
6
CONTINUOUS
10
1.05984
20
0.36207
11
1.05984
21
0.207165
0
LINE
8
BLACK
6
CONTINUOUS
10
1.05984
20
0.207165
11
1.08
21
0.207165
0
LINE
8
BLACK
6
CONTINUOUS
10
1.08
20
0.207165
11
1.08
21
0.147165
0
LINE
8
BLACK
6
CONTINUOUS
10
1.08
20
0.147165
11
1.02
21
0.147165
0
LINE
8
BLACK
6
CONTINUOUS
10
1.02
20
0.147165
11
1.02
21
0.207165
0
LINE
8
BLACK
6
CONTINUOUS
10
1.02
20
0.207165
11
1.04016
21
0.207165
0
LINE
8
BLACK
6
CONTINUOUS
10
1.04016
20
0.207165
11
1.04016
21
0.362096
0
LINE
8
BLACK
6
CONTINUOUS
10
1.04016
20
0.362096
11
1.03832
21
0.363317
0
LINE
8
BLACK
6
CONTINUOUS
10
1.03832
20
0.363317
11
1.03513
21
0.36712
0
LINE
8
BLACK
6
CONTINUOUS
10
1.03513
20
0.36712
11
1.03313
21
0.371667
0
LINE
8
BLACK
6
CONTINUOUS
10
1.03313
20
0.371667
11
1.03248
21
0.376592
0
LINE
8
BLACK
6
CONTINUOUS
10
1.03248
20
0.376592
11
1.03294
21
0.379521
0
LINE
8
BLACK
6
CONTINUOUS
10
1.03294
20
0.379521
11
0.920524
21
0.491935
0
LINE
8
BLACK
6
CONTINUOUS
10
0.920524
20
0.491935
11
0.914098
21
0.488336
0
LINE
8
BLACK
6
CONTINUOUS
10
0.914098
20
0.488336
11
0.905911
21
0.485557
0
LINE
8
BLACK
6
CONTINUOUS
10
0.905911
20
0.485557
11
0.897354
21
0.484317
0
LINE
8
BLACK
6
CONTINUOUS
10
0.897354
20
0.484317
11
0.888715
21
0.484656
0
LINE
8
BLACK
6
CONTINUOUS
10
0.888715
20
0.484656
11
0.880283
21
0.486564
0
LINE
8
BLACK
6
CONTINUOUS
10
0.880283
20
0.486564
11
0.872339
21
0.489977
0
LINE
8
BLACK
6
CONTINUOUS
10
0.872339
20
0.489977
11
0.86515
21
0.494781
0
LINE
8
BLACK
6
CONTINUOUS
10
0.86515
20
0.494781
11
0.858957
21
0.500813
0
LINE
8
BLACK
6
CONTINUOUS
10
0.858957
20
0.500813
11
0.853967
21
0.507874
0
LINE
8
BLACK
6
CONTINUOUS
10
0.853967
20
0.507874
11
0.850348
21
0.515726
0
LINE
8
BLACK
6
CONTINUOUS
10
0.850348
20
0.515726
11
0.848219
21
0.524105
0
LINE
8
BLACK
6
CONTINUOUS
10
0.848219
20
0.524105
11
0.847654
21
0.532733
0
LINE
8
BLACK
6
CONTINUOUS
10
0.847654
20
0.532733
11
0.84867
21
0.541319
0
LINE
8
BLACK
6
CONTINUOUS
10
0.84867
20
0.541319
11
0.851234
21
0.549576
0
LINE
8
BLACK
6
CONTINUOUS
10
0.851234
20
0.549576
11
0.85526
21
0.557227
0
LINE
8
BLACK
6
CONTINUOUS
10
0.85526
20
0.557227
11
0.860612
21
0.564017
0
LINE
8
BLACK
6
CONTINUOUS
10
0.860612
20
0.564017
11
0.867113
21
0.569717
0
LINE
8
BLACK
6
CONTINUOUS
10
0.867113
20
0.569717
11
0.874543
21
0.574138
0
LINE
8
BLACK
6
CONTINUOUS
10
0.874543
20
0.574138
11
0.882654
21
0.57713
0
LINE
8
BLACK
6
CONTINUOUS
10
0.882654
20
0.57713
11
0.885039
21
0.57754
0
LINE
8
BLACK
6
CONTINUOUS
10
0.885039
20
0.57754
11
0.885039
21
1.391
0
LINE
8
BLACK
6
CONTINUOUS
10
0.885039
20
1.391
11
0.880283
21
1.39208
0
LINE
8
BLACK
6
CONTINUOUS
10
0.880283
20
1.39208
11
0.872339
21
1.39549
0
LINE
8
BLACK
6
CONTINUOUS
10
0.872339
20
1.39549
11
0.86515
21
1.40029
0
LINE
8
BLACK
6
CONTINUOUS
10
0.86515
20
1.40029
11
0.858957
21
1.40633
0
LINE
8
BLACK
6
CONTINUOUS
10
0.858957
20
1.40633
11
0.853967
21
1.41339
0
LINE
8
BLACK
6
CONTINUOUS
10
0.853967
20
1.41339
11
0.850348
21
1.42124
0
LINE
8
BLACK
6
CONTINUOUS
10
0.850348
20
1.42124
11
0.848219
21
1.42962
0
LINE
8
BLACK
6
CONTINUOUS
10
0.848219
20
1.42962
11
0.847654
21
1.43824
0
LINE
8
BLACK
6
CONTINUOUS
10
0.847654
20
1.43824
11
0.84867
21
1.44683
0
LINE
8
BLACK
6
CONTINUOUS
10
0.84867
20
1.44683
11
0.851234
21
1.45509
0
LINE
8
BLACK
6
CONTINUOUS
10
0.851234
20
1.45509
11
0.85526
21
1.46274
0
LINE
8
BLACK
6
CONTINUOUS
10
0.85526
20
1.46274
11
0.860612
21
1.46953
0
LINE
8
BLACK
6
CONTINUOUS
10
0.860612
20
1.46953
11
0.867113
21
1.47523
0
LINE
8
BLACK
6
CONTINUOUS
10
0.867113
20
1.47523
11
0.874543
21
1.47965
0
LINE
8
BLACK
6
CONTINUOUS
10
0.874543
20
1.47965
11
0.882654
21
1.48264
0
LINE
8
BLACK
6
CONTINUOUS
10
0.882654
20
1.48264
11
0.891175
21
1.48411
0
LINE
8
BLACK
6
CONTINUOUS
10
0.891175
20
1.48411
11
0.89982
21
1.48399
0
LINE
8
BLACK
6
CONTINUOUS
10
0.64685
20
1.38976
11
0.609449
21
1.38976
0
LINE
8
BLACK
6
CONTINUOUS
10
0.609449
20
1.38976
11
0.609449
21
0.703894
0
LINE
8
BLACK
6
CONTINUOUS
10
0.609449
20
0.703894
11
0.611123
21
0.702809
0
LINE
8
BLACK
6
CONTINUOUS
10
0.611123
20
0.702809
11
0.614366
21
0.699045
0
LINE
8
BLACK
6
CONTINUOUS
10
0.614366
20
0.699045
11
0.616422
21
0.694524
0
LINE
8
BLACK
6
CONTINUOUS
10
0.616422
20
0.694524
11
0.617126
21
0.689606
0
LINE
8
BLACK
6
CONTINUOUS
10
0.617126
20
0.689606
11
0.617121
21
0.689178
0
LINE
8
BLACK
6
CONTINUOUS
10
0.617121
20
0.689178
11
0.616297
21
0.68428
0
LINE
8
BLACK
6
CONTINUOUS
10
0.616297
20
0.68428
11
0.614131
21
0.679809
0
LINE
8
BLACK
6
CONTINUOUS
10
0.614131
20
0.679809
11
0.610797
21
0.676127
0
LINE
8
BLACK
6
CONTINUOUS
10
0.610797
20
0.676127
11
0.609449
21
0.675299
0
LINE
8
BLACK
6
CONTINUOUS
10
0.609449
20
0.675299
11
0.609449
21
0.57874
0
LINE
8
BLACK
6
CONTINUOUS
10
0.609449
20
0.57874
11
0.64685
21
0.57874
0
LINE
8
BLACK
6
CONTINUOUS
10
0.64685
20
0.57874
11
0.64685
21
0.484252
0
LINE
8
BLACK
6
CONTINUOUS
10
0.64685
20
0.484252
11
0.552362
21
0.484252
0
LINE
8
BLACK
6
CONTINUOUS
10
0.552362
20
0.484252
11
0.552362
21
0.57874
0
LINE
8
BLACK
6
CONTINUOUS
10
0.552362
20
0.57874
11
0.589764
21
0.57874
0
LINE
8
BLACK
6
CONTINUOUS
10
0.589764
20
0.57874
11
0.589764
21
0.675324
0
LINE
8
BLACK
6
CONTINUOUS
10
0.589764
20
0.675324
11
0.587929
21
0.676546
0
LINE
8
BLACK
6
CONTINUOUS
10
0.587929
20
0.676546
11
0.584733
21
0.680348
0
LINE
8
BLACK
6
CONTINUOUS
10
0.584733
20
0.680348
11
0.582732
21
0.684895
0
LINE
8
BLACK
6
CONTINUOUS
10
0.582732
20
0.684895
11
0.582088
21
0.68982
0
LINE
8
BLACK
6
CONTINUOUS
10
0.582088
20
0.68982
11
0.582852
21
0.694729
0
LINE
8
BLACK
6
CONTINUOUS
10
0.582852
20
0.694729
11
0.584963
21
0.699225
0
LINE
8
BLACK
6
CONTINUOUS
10
0.584963
20
0.699225
11
0.588251
21
0.702948
0
LINE
8
BLACK
6
CONTINUOUS
10
0.588251
20
0.702948
11
0.589764
21
0.703902
0
LINE
8
BLACK
6
CONTINUOUS
10
0.589764
20
0.703902
11
0.589764
21
1.38976
0
LINE
8
BLACK
6
CONTINUOUS
10
0.589764
20
1.38976
11
0.552362
21
1.38976
0
LINE
8
BLACK
6
CONTINUOUS
10
0.552362
20
1.38976
11
0.552362
21
1.48425
0
LINE
8
BLACK
6
CONTINUOUS
10
0.552362
20
1.48425
11
0.64685
21
1.48425
0
LINE
8
BLACK
6
CONTINUOUS
10
0.64685
20
1.48425
11
0.64685
21
1.38976
0
CIRCLE
8
BLACK
10
0.599606
20
0.689606
40
0.00984252
0
CIRCLE
8
BLACK
10
1.11
20
0.69
40
0.00984252
0
CIRCLE
8
BLACK
10
1.5
20
0.38
40
0.00984252
0
CIRCLE
8
BLACK
10
1.05
20
0.376378
40
0.00984252
0
CIRCLE
8
BLACK
10
0.26
20
0.08
40
0.00984252
0
CIRCLE
8
BLACK
10
0.11
20
0.08
40
0.00984252
0
CIRCLE
8
BLACK
10
0.06
20
0.08
40
0.00984252
0
CIRCLE
8
BLACK
10
2.24
20
0.08
40
0.00984252
0
CIRCLE
8
BLACK
10
0.41
20
0.08
40
0.00984252
0
CIRCLE
8
BLACK
10
2.34
20
0.08
40
0.00984252
0
CIRCLE
8
BLACK
10
2.29
20
0.08
40
0.00984252
0
CIRCLE
8
BLACK
10
0.16
20
0.08
40
0.00984252
0
CIRCLE
8
BLACK
10
0.21
20
0.08
40
0.00984252
0
CIRCLE
8
BLACK
10
2.04
20
0.08
40
0.00984252
0
CIRCLE
8
BLACK
10
2.14
20
0.08
40
0.00984252
0
CIRCLE
8
BLACK
10
1.99
20
0.08
40
0.00984252
0
CIRCLE
8
BLACK
10
2.19
20
0.08
40
0.00984252
0
CIRCLE
8
BLACK
10
0.36
20
0.08
40
0.00984252
0
CIRCLE
8
BLACK
10
2.09
20
0.08
40
0.00984252
0
CIRCLE
8
BLACK
10
0.31
20
0.08
40
0.00984252
  0
ENDSEC
  0
EOF
