  0
SECTION
  2
HEADER
  9
$ANGBASE
  50
0.0
  9
$ANGDIR
  70
1
  9
$MEASUREMENT
  70
0
  0
ENDSEC
  0
SECTION
  2
TABLES
  0
TABLE
  2
LTYPE
  70
4
  0
LTYPE
  5
40F
  2
CONTINUOUS
  70
0
  3
Solid line
  72
65
  73
0
  40
0.0
  0
LTYPE
  5
410
  2
DASHDOT
 70
0
  3
Dash Dot ____ _ ____ _
 72
65
 73
4
 40
2.0
 49
1.25
 49
-0.25
 49
0.25
 49
-0.25
  0
LTYPE
  5
411
  2
DASHED
 70
0
  3
Dashed __ __ __ __ __
 72
65
 73
2
 40
0.75
 49
0.5
 49
-0.25
  0
LTYPE
  5
43B
  2
DOTTED
 70
0
  3
Dotted .  .  .  .
 72
65
 73
2
 40
0.2
 49
0.0
 49
-0.2
  0
ENDTAB
  0
TABLE
  2
STYLE
  70
4
  0
STYLE
  2
KICAD
  70
0
  40
0
  41
1
  42
1
  50
0
  71
0
  3
isocp.shx
  0
STYLE
  2
KICADB
  70
0
  40
0
  41
1
  42
1
  50
0
  71
0
  3
isocp.shx
  0
STYLE
  2
KICADI
  70
0
  40
0
  41
1
  42
1
  50
15
  71
0
  3
isocp.shx
  0
STYLE
  2
KICADBI
  70
0
  40
0
  41
1
  42
1
  50
15
  71
0
  3
isocp.shx
  0
ENDTAB
  0
TABLE
  2
LAYER
  70
1
  0
LAYER
  2
BLACK
  70
0
  62
7
  6
CONTINUOUS
  0
ENDTAB
  0
ENDSEC
  0
SECTION
  2
ENTITIES
0
LINE
8
BLACK
6
CONTINUOUS
10
0.435384
20
0.122885
11
0.435513
21
0.122908
0
LINE
8
BLACK
6
CONTINUOUS
10
0.435513
20
0.122908
11
0.435626
21
0.122842
0
LINE
8
BLACK
6
CONTINUOUS
10
0.435626
20
0.122842
11
0.43601
21
0.122775
0
LINE
8
BLACK
6
CONTINUOUS
10
0.43601
20
0.122775
11
0.436598
21
0.122282
0
LINE
8
BLACK
6
CONTINUOUS
10
0.436598
20
0.122282
11
0.437262
21
0.121898
0
LINE
8
BLACK
6
CONTINUOUS
10
0.437262
20
0.121898
11
0.437353
21
0.121648
0
LINE
8
BLACK
6
CONTINUOUS
10
0.437353
20
0.121648
11
0.437557
21
0.121476
0
LINE
8
BLACK
6
CONTINUOUS
10
0.437557
20
0.121476
11
0.43769
21
0.120721
0
LINE
8
BLACK
6
CONTINUOUS
10
0.43769
20
0.120721
11
0.437953
21
0.12
0
LINE
8
BLACK
6
CONTINUOUS
10
0.437953
20
0.12
11
0.437953
21
0.01
0
LINE
8
BLACK
6
CONTINUOUS
10
0.437953
20
0.01
11
0.437885
21
0.00961646
0
LINE
8
BLACK
6
CONTINUOUS
10
0.437885
20
0.00961646
11
0.437908
21
0.00948724
0
LINE
8
BLACK
6
CONTINUOUS
10
0.437908
20
0.00948724
11
0.437842
21
0.00937362
0
LINE
8
BLACK
6
CONTINUOUS
10
0.437842
20
0.00937362
11
0.437775
21
0.00899008
0
LINE
8
BLACK
6
CONTINUOUS
10
0.437775
20
0.00899008
11
0.437282
21
0.0084024
0
LINE
8
BLACK
6
CONTINUOUS
10
0.437282
20
0.0084024
11
0.436898
21
0.00773807
0
LINE
8
BLACK
6
CONTINUOUS
10
0.436898
20
0.00773807
11
0.436648
21
0.00764697
0
LINE
8
BLACK
6
CONTINUOUS
10
0.436648
20
0.00764697
11
0.436476
21
0.00744283
0
LINE
8
BLACK
6
CONTINUOUS
10
0.436476
20
0.00744283
11
0.435721
21
0.00730961
0
LINE
8
BLACK
6
CONTINUOUS
10
0.435721
20
0.00730961
11
0.435
21
0.00704724
0
LINE
8
BLACK
6
CONTINUOUS
10
0.435
20
0.00704724
11
0.005
21
0.00704724
0
LINE
8
BLACK
6
CONTINUOUS
10
0.005
20
0.00704724
11
0.00461646
21
0.00711488
0
LINE
8
BLACK
6
CONTINUOUS
10
0.00461646
20
0.00711488
11
0.00448724
21
0.00709209
0
LINE
8
BLACK
6
CONTINUOUS
10
0.00448724
20
0.00709209
11
0.00437362
21
0.00715768
0
LINE
8
BLACK
6
CONTINUOUS
10
0.00437362
20
0.00715768
11
0.00399008
21
0.00722531
0
LINE
8
BLACK
6
CONTINUOUS
10
0.00399008
20
0.00722531
11
0.0034024
21
0.00771846
0
LINE
8
BLACK
6
CONTINUOUS
10
0.0034024
20
0.00771846
11
0.00273807
21
0.00810201
0
LINE
8
BLACK
6
CONTINUOUS
10
0.00273807
20
0.00810201
11
0.00264697
21
0.00835236
0
LINE
8
BLACK
6
CONTINUOUS
10
0.00264697
20
0.00835236
11
0.00244283
21
0.00852362
0
LINE
8
BLACK
6
CONTINUOUS
10
0.00244283
20
0.00852362
11
0.00230961
21
0.00927917
0
LINE
8
BLACK
6
CONTINUOUS
10
0.00230961
20
0.00927917
11
0.00204724
21
0.01
0
LINE
8
BLACK
6
CONTINUOUS
10
0.00204724
20
0.01
11
0.00204724
21
0.12
0
LINE
8
BLACK
6
CONTINUOUS
10
0.00204724
20
0.12
11
0.00211488
21
0.120384
0
LINE
8
BLACK
6
CONTINUOUS
10
0.00211488
20
0.120384
11
0.00209209
21
0.120513
0
LINE
8
BLACK
6
CONTINUOUS
10
0.00209209
20
0.120513
11
0.00215768
21
0.120626
0
LINE
8
BLACK
6
CONTINUOUS
10
0.00215768
20
0.120626
11
0.00222531
21
0.12101
0
LINE
8
BLACK
6
CONTINUOUS
10
0.00222531
20
0.12101
11
0.00271846
21
0.121598
0
LINE
8
BLACK
6
CONTINUOUS
10
0.00271846
20
0.121598
11
0.00310201
21
0.122262
0
LINE
8
BLACK
6
CONTINUOUS
10
0.00310201
20
0.122262
11
0.00335236
21
0.122353
0
LINE
8
BLACK
6
CONTINUOUS
10
0.00335236
20
0.122353
11
0.00352362
21
0.122557
0
LINE
8
BLACK
6
CONTINUOUS
10
0.00352362
20
0.122557
11
0.00427917
21
0.12269
0
LINE
8
BLACK
6
CONTINUOUS
10
0.00427917
20
0.12269
11
0.005
21
0.122953
0
LINE
8
BLACK
6
CONTINUOUS
10
0.005
20
0.122953
11
0.435
21
0.122953
0
LINE
8
BLACK
6
CONTINUOUS
10
0.435
20
0.122953
11
0.435384
21
0.122885
0
LINE
8
BLACK
6
CONTINUOUS
10
2.39538
20
0.122885
11
2.39551
21
0.122908
0
LINE
8
BLACK
6
CONTINUOUS
10
2.39551
20
0.122908
11
2.39563
21
0.122842
0
LINE
8
BLACK
6
CONTINUOUS
10
2.39563
20
0.122842
11
2.39601
21
0.122775
0
LINE
8
BLACK
6
CONTINUOUS
10
2.39601
20
0.122775
11
2.3966
21
0.122282
0
LINE
8
BLACK
6
CONTINUOUS
10
2.3966
20
0.122282
11
2.39726
21
0.121898
0
LINE
8
BLACK
6
CONTINUOUS
10
2.39726
20
0.121898
11
2.39735
21
0.121648
0
LINE
8
BLACK
6
CONTINUOUS
10
2.39735
20
0.121648
11
2.39756
21
0.121476
0
LINE
8
BLACK
6
CONTINUOUS
10
2.39756
20
0.121476
11
2.39769
21
0.120721
0
LINE
8
BLACK
6
CONTINUOUS
10
2.39769
20
0.120721
11
2.39795
21
0.12
0
LINE
8
BLACK
6
CONTINUOUS
10
2.39795
20
0.12
11
2.39795
21
0.01
0
LINE
8
BLACK
6
CONTINUOUS
10
2.39795
20
0.01
11
2.39789
21
0.00961646
0
LINE
8
BLACK
6
CONTINUOUS
10
2.39789
20
0.00961646
11
2.39791
21
0.00948724
0
LINE
8
BLACK
6
CONTINUOUS
10
2.39791
20
0.00948724
11
2.39784
21
0.00937362
0
LINE
8
BLACK
6
CONTINUOUS
10
2.39784
20
0.00937362
11
2.39777
21
0.00899008
0
LINE
8
BLACK
6
CONTINUOUS
10
2.39777
20
0.00899008
11
2.39728
21
0.0084024
0
LINE
8
BLACK
6
CONTINUOUS
10
2.39728
20
0.0084024
11
2.3969
21
0.00773807
0
LINE
8
BLACK
6
CONTINUOUS
10
2.3969
20
0.00773807
11
2.39665
21
0.00764697
0
LINE
8
BLACK
6
CONTINUOUS
10
2.39665
20
0.00764697
11
2.39648
21
0.00744283
0
LINE
8
BLACK
6
CONTINUOUS
10
2.39648
20
0.00744283
11
2.39572
21
0.00730961
0
LINE
8
BLACK
6
CONTINUOUS
10
2.39572
20
0.00730961
11
2.395
21
0.00704724
0
LINE
8
BLACK
6
CONTINUOUS
10
2.395
20
0.00704724
11
1.965
21
0.00704724
0
LINE
8
BLACK
6
CONTINUOUS
10
1.965
20
0.00704724
11
1.96462
21
0.00711488
0
LINE
8
BLACK
6
CONTINUOUS
10
1.96462
20
0.00711488
11
1.96449
21
0.00709209
0
LINE
8
BLACK
6
CONTINUOUS
10
1.96449
20
0.00709209
11
1.96437
21
0.00715768
0
LINE
8
BLACK
6
CONTINUOUS
10
1.96437
20
0.00715768
11
1.96399
21
0.00722531
0
LINE
8
BLACK
6
CONTINUOUS
10
1.96399
20
0.00722531
11
1.9634
21
0.00771846
0
LINE
8
BLACK
6
CONTINUOUS
10
1.9634
20
0.00771846
11
1.96274
21
0.00810201
0
LINE
8
BLACK
6
CONTINUOUS
10
1.96274
20
0.00810201
11
1.96265
21
0.00835236
0
LINE
8
BLACK
6
CONTINUOUS
10
1.96265
20
0.00835236
11
1.96244
21
0.00852362
0
LINE
8
BLACK
6
CONTINUOUS
10
1.96244
20
0.00852362
11
1.96231
21
0.00927917
0
LINE
8
BLACK
6
CONTINUOUS
10
1.96231
20
0.00927917
11
1.96205
21
0.01
0
LINE
8
BLACK
6
CONTINUOUS
10
1.96205
20
0.01
11
1.96205
21
0.12
0
LINE
8
BLACK
6
CONTINUOUS
10
1.96205
20
0.12
11
1.96211
21
0.120384
0
LINE
8
BLACK
6
CONTINUOUS
10
1.96211
20
0.120384
11
1.96209
21
0.120513
0
LINE
8
BLACK
6
CONTINUOUS
10
1.96209
20
0.120513
11
1.96216
21
0.120626
0
LINE
8
BLACK
6
CONTINUOUS
10
1.96216
20
0.120626
11
1.96223
21
0.12101
0
LINE
8
BLACK
6
CONTINUOUS
10
1.96223
20
0.12101
11
1.96272
21
0.121598
0
LINE
8
BLACK
6
CONTINUOUS
10
1.96272
20
0.121598
11
1.9631
21
0.122262
0
LINE
8
BLACK
6
CONTINUOUS
10
1.9631
20
0.122262
11
1.96335
21
0.122353
0
LINE
8
BLACK
6
CONTINUOUS
10
1.96335
20
0.122353
11
1.96352
21
0.122557
0
LINE
8
BLACK
6
CONTINUOUS
10
1.96352
20
0.122557
11
1.96428
21
0.12269
0
LINE
8
BLACK
6
CONTINUOUS
10
1.96428
20
0.12269
11
1.965
21
0.122953
0
LINE
8
BLACK
6
CONTINUOUS
10
1.965
20
0.122953
11
2.395
21
0.122953
0
LINE
8
BLACK
6
CONTINUOUS
10
2.395
20
0.122953
11
2.39538
21
0.122885
0
LINE
8
BLACK
6
CONTINUOUS
10
1.28301
20
0.21444
11
1.28557
21
0.212733
0
LINE
8
BLACK
6
CONTINUOUS
10
1.28557
20
0.212733
11
1.28727
21
0.210179
0
LINE
8
BLACK
6
CONTINUOUS
10
1.28727
20
0.210179
11
1.28787
21
0.207165
0
LINE
8
BLACK
6
CONTINUOUS
10
1.28787
20
0.207165
11
1.28787
21
0.147165
0
LINE
8
BLACK
6
CONTINUOUS
10
1.28787
20
0.147165
11
1.28727
21
0.144152
0
LINE
8
BLACK
6
CONTINUOUS
10
1.28727
20
0.144152
11
1.28557
21
0.141598
0
LINE
8
BLACK
6
CONTINUOUS
10
1.28557
20
0.141598
11
1.28301
21
0.139891
0
LINE
8
BLACK
6
CONTINUOUS
10
1.28301
20
0.139891
11
1.28
21
0.139291
0
LINE
8
BLACK
6
CONTINUOUS
10
1.28
20
0.139291
11
1.22
21
0.139291
0
LINE
8
BLACK
6
CONTINUOUS
10
1.22
20
0.139291
11
1.21699
21
0.139891
0
LINE
8
BLACK
6
CONTINUOUS
10
1.21699
20
0.139891
11
1.21443
21
0.141598
0
LINE
8
BLACK
6
CONTINUOUS
10
1.21443
20
0.141598
11
1.21273
21
0.144152
0
LINE
8
BLACK
6
CONTINUOUS
10
1.21273
20
0.144152
11
1.21213
21
0.147165
0
LINE
8
BLACK
6
CONTINUOUS
10
1.21213
20
0.147165
11
1.21213
21
0.207165
0
LINE
8
BLACK
6
CONTINUOUS
10
1.21213
20
0.207165
11
1.21273
21
0.210179
0
LINE
8
BLACK
6
CONTINUOUS
10
1.21273
20
0.210179
11
1.21443
21
0.212733
0
LINE
8
BLACK
6
CONTINUOUS
10
1.21443
20
0.212733
11
1.21699
21
0.21444
0
LINE
8
BLACK
6
CONTINUOUS
10
1.21699
20
0.21444
11
1.22
21
0.215039
0
LINE
8
BLACK
6
CONTINUOUS
10
1.22
20
0.215039
11
1.28
21
0.215039
0
LINE
8
BLACK
6
CONTINUOUS
10
1.28
20
0.215039
11
1.28301
21
0.21444
0
LINE
8
BLACK
6
CONTINUOUS
10
2.04679
20
0.21444
11
2.04935
21
0.212733
0
LINE
8
BLACK
6
CONTINUOUS
10
2.04935
20
0.212733
11
2.05105
21
0.210179
0
LINE
8
BLACK
6
CONTINUOUS
10
2.05105
20
0.210179
11
2.05165
21
0.207165
0
LINE
8
BLACK
6
CONTINUOUS
10
2.05165
20
0.207165
11
2.05165
21
0.147165
0
LINE
8
BLACK
6
CONTINUOUS
10
2.05165
20
0.147165
11
2.05105
21
0.144152
0
LINE
8
BLACK
6
CONTINUOUS
10
2.05105
20
0.144152
11
2.04935
21
0.141598
0
LINE
8
BLACK
6
CONTINUOUS
10
2.04935
20
0.141598
11
2.04679
21
0.139891
0
LINE
8
BLACK
6
CONTINUOUS
10
2.04679
20
0.139891
11
2.04378
21
0.139291
0
LINE
8
BLACK
6
CONTINUOUS
10
2.04378
20
0.139291
11
1.98378
21
0.139291
0
LINE
8
BLACK
6
CONTINUOUS
10
1.98378
20
0.139291
11
1.98077
21
0.139891
0
LINE
8
BLACK
6
CONTINUOUS
10
1.98077
20
0.139891
11
1.97821
21
0.141598
0
LINE
8
BLACK
6
CONTINUOUS
10
1.97821
20
0.141598
11
1.9765
21
0.144152
0
LINE
8
BLACK
6
CONTINUOUS
10
1.9765
20
0.144152
11
1.97591
21
0.147165
0
LINE
8
BLACK
6
CONTINUOUS
10
1.97591
20
0.147165
11
1.97591
21
0.207165
0
LINE
8
BLACK
6
CONTINUOUS
10
1.97591
20
0.207165
11
1.9765
21
0.210179
0
LINE
8
BLACK
6
CONTINUOUS
10
1.9765
20
0.210179
11
1.97821
21
0.212733
0
LINE
8
BLACK
6
CONTINUOUS
10
1.97821
20
0.212733
11
1.98077
21
0.21444
0
LINE
8
BLACK
6
CONTINUOUS
10
1.98077
20
0.21444
11
1.98378
21
0.215039
0
LINE
8
BLACK
6
CONTINUOUS
10
1.98378
20
0.215039
11
2.04378
21
0.215039
0
LINE
8
BLACK
6
CONTINUOUS
10
2.04378
20
0.215039
11
2.04679
21
0.21444
0
LINE
8
BLACK
6
CONTINUOUS
10
2.14679
20
0.21444
11
2.14935
21
0.212733
0
LINE
8
BLACK
6
CONTINUOUS
10
2.14935
20
0.212733
11
2.15105
21
0.210179
0
LINE
8
BLACK
6
CONTINUOUS
10
2.15105
20
0.210179
11
2.15165
21
0.207165
0
LINE
8
BLACK
6
CONTINUOUS
10
2.15165
20
0.207165
11
2.15165
21
0.147165
0
LINE
8
BLACK
6
CONTINUOUS
10
2.15165
20
0.147165
11
2.15105
21
0.144152
0
LINE
8
BLACK
6
CONTINUOUS
10
2.15105
20
0.144152
11
2.14935
21
0.141598
0
LINE
8
BLACK
6
CONTINUOUS
10
2.14935
20
0.141598
11
2.14679
21
0.139891
0
LINE
8
BLACK
6
CONTINUOUS
10
2.14679
20
0.139891
11
2.14378
21
0.139291
0
LINE
8
BLACK
6
CONTINUOUS
10
2.14378
20
0.139291
11
2.08378
21
0.139291
0
LINE
8
BLACK
6
CONTINUOUS
10
2.08378
20
0.139291
11
2.08077
21
0.139891
0
LINE
8
BLACK
6
CONTINUOUS
10
2.08077
20
0.139891
11
2.07821
21
0.141598
0
LINE
8
BLACK
6
CONTINUOUS
10
2.07821
20
0.141598
11
2.0765
21
0.144152
0
LINE
8
BLACK
6
CONTINUOUS
10
2.0765
20
0.144152
11
2.07591
21
0.147165
0
LINE
8
BLACK
6
CONTINUOUS
10
2.07591
20
0.147165
11
2.07591
21
0.207165
0
LINE
8
BLACK
6
CONTINUOUS
10
2.07591
20
0.207165
11
2.0765
21
0.210179
0
LINE
8
BLACK
6
CONTINUOUS
10
2.0765
20
0.210179
11
2.07821
21
0.212733
0
LINE
8
BLACK
6
CONTINUOUS
10
2.07821
20
0.212733
11
2.08077
21
0.21444
0
LINE
8
BLACK
6
CONTINUOUS
10
2.08077
20
0.21444
11
2.08378
21
0.215039
0
LINE
8
BLACK
6
CONTINUOUS
10
2.08378
20
0.215039
11
2.14378
21
0.215039
0
LINE
8
BLACK
6
CONTINUOUS
10
2.14378
20
0.215039
11
2.14679
21
0.21444
0
LINE
8
BLACK
6
CONTINUOUS
10
2.24679
20
0.21444
11
2.24935
21
0.212733
0
LINE
8
BLACK
6
CONTINUOUS
10
2.24935
20
0.212733
11
2.25105
21
0.210179
0
LINE
8
BLACK
6
CONTINUOUS
10
2.25105
20
0.210179
11
2.25165
21
0.207165
0
LINE
8
BLACK
6
CONTINUOUS
10
2.25165
20
0.207165
11
2.25165
21
0.147165
0
LINE
8
BLACK
6
CONTINUOUS
10
2.25165
20
0.147165
11
2.25105
21
0.144152
0
LINE
8
BLACK
6
CONTINUOUS
10
2.25105
20
0.144152
11
2.24935
21
0.141598
0
LINE
8
BLACK
6
CONTINUOUS
10
2.24935
20
0.141598
11
2.24679
21
0.139891
0
LINE
8
BLACK
6
CONTINUOUS
10
2.24679
20
0.139891
11
2.24378
21
0.139291
0
LINE
8
BLACK
6
CONTINUOUS
10
2.24378
20
0.139291
11
2.18378
21
0.139291
0
LINE
8
BLACK
6
CONTINUOUS
10
2.18378
20
0.139291
11
2.18077
21
0.139891
0
LINE
8
BLACK
6
CONTINUOUS
10
2.18077
20
0.139891
11
2.17821
21
0.141598
0
LINE
8
BLACK
6
CONTINUOUS
10
2.17821
20
0.141598
11
2.1765
21
0.144152
0
LINE
8
BLACK
6
CONTINUOUS
10
2.1765
20
0.144152
11
2.17591
21
0.147165
0
LINE
8
BLACK
6
CONTINUOUS
10
2.17591
20
0.147165
11
2.17591
21
0.207165
0
LINE
8
BLACK
6
CONTINUOUS
10
2.17591
20
0.207165
11
2.1765
21
0.210179
0
LINE
8
BLACK
6
CONTINUOUS
10
2.1765
20
0.210179
11
2.17821
21
0.212733
0
LINE
8
BLACK
6
CONTINUOUS
10
2.17821
20
0.212733
11
2.18077
21
0.21444
0
LINE
8
BLACK
6
CONTINUOUS
10
2.18077
20
0.21444
11
2.18378
21
0.215039
0
LINE
8
BLACK
6
CONTINUOUS
10
2.18378
20
0.215039
11
2.24378
21
0.215039
0
LINE
8
BLACK
6
CONTINUOUS
10
2.24378
20
0.215039
11
2.24679
21
0.21444
0
LINE
8
BLACK
6
CONTINUOUS
10
2.34679
20
0.21444
11
2.34935
21
0.212733
0
LINE
8
BLACK
6
CONTINUOUS
10
2.34935
20
0.212733
11
2.35105
21
0.210179
0
LINE
8
BLACK
6
CONTINUOUS
10
2.35105
20
0.210179
11
2.35165
21
0.207165
0
LINE
8
BLACK
6
CONTINUOUS
10
2.35165
20
0.207165
11
2.35165
21
0.147165
0
LINE
8
BLACK
6
CONTINUOUS
10
2.35165
20
0.147165
11
2.35105
21
0.144152
0
LINE
8
BLACK
6
CONTINUOUS
10
2.35105
20
0.144152
11
2.34935
21
0.141598
0
LINE
8
BLACK
6
CONTINUOUS
10
2.34935
20
0.141598
11
2.34679
21
0.139891
0
LINE
8
BLACK
6
CONTINUOUS
10
2.34679
20
0.139891
11
2.34378
21
0.139291
0
LINE
8
BLACK
6
CONTINUOUS
10
2.34378
20
0.139291
11
2.28378
21
0.139291
0
LINE
8
BLACK
6
CONTINUOUS
10
2.28378
20
0.139291
11
2.28077
21
0.139891
0
LINE
8
BLACK
6
CONTINUOUS
10
2.28077
20
0.139891
11
2.27821
21
0.141598
0
LINE
8
BLACK
6
CONTINUOUS
10
2.27821
20
0.141598
11
2.2765
21
0.144152
0
LINE
8
BLACK
6
CONTINUOUS
10
2.2765
20
0.144152
11
2.27591
21
0.147165
0
LINE
8
BLACK
6
CONTINUOUS
10
2.27591
20
0.147165
11
2.27591
21
0.207165
0
LINE
8
BLACK
6
CONTINUOUS
10
2.27591
20
0.207165
11
2.2765
21
0.210179
0
LINE
8
BLACK
6
CONTINUOUS
10
2.2765
20
0.210179
11
2.27821
21
0.212733
0
LINE
8
BLACK
6
CONTINUOUS
10
2.27821
20
0.212733
11
2.28077
21
0.21444
0
LINE
8
BLACK
6
CONTINUOUS
10
2.28077
20
0.21444
11
2.28378
21
0.215039
0
LINE
8
BLACK
6
CONTINUOUS
10
2.28378
20
0.215039
11
2.34378
21
0.215039
0
LINE
8
BLACK
6
CONTINUOUS
10
2.34378
20
0.215039
11
2.34679
21
0.21444
0
LINE
8
BLACK
6
CONTINUOUS
10
1.38301
20
0.21444
11
1.38557
21
0.212733
0
LINE
8
BLACK
6
CONTINUOUS
10
1.38557
20
0.212733
11
1.38727
21
0.210179
0
LINE
8
BLACK
6
CONTINUOUS
10
1.38727
20
0.210179
11
1.38787
21
0.207165
0
LINE
8
BLACK
6
CONTINUOUS
10
1.38787
20
0.207165
11
1.38787
21
0.147165
0
LINE
8
BLACK
6
CONTINUOUS
10
1.38787
20
0.147165
11
1.38727
21
0.144152
0
LINE
8
BLACK
6
CONTINUOUS
10
1.38727
20
0.144152
11
1.38557
21
0.141598
0
LINE
8
BLACK
6
CONTINUOUS
10
1.38557
20
0.141598
11
1.38301
21
0.139891
0
LINE
8
BLACK
6
CONTINUOUS
10
1.38301
20
0.139891
11
1.38
21
0.139291
0
LINE
8
BLACK
6
CONTINUOUS
10
1.38
20
0.139291
11
1.32
21
0.139291
0
LINE
8
BLACK
6
CONTINUOUS
10
1.32
20
0.139291
11
1.31699
21
0.139891
0
LINE
8
BLACK
6
CONTINUOUS
10
1.31699
20
0.139891
11
1.31443
21
0.141598
0
LINE
8
BLACK
6
CONTINUOUS
10
1.31443
20
0.141598
11
1.31273
21
0.144152
0
LINE
8
BLACK
6
CONTINUOUS
10
1.31273
20
0.144152
11
1.31213
21
0.147165
0
LINE
8
BLACK
6
CONTINUOUS
10
1.31213
20
0.147165
11
1.31213
21
0.207165
0
LINE
8
BLACK
6
CONTINUOUS
10
1.31213
20
0.207165
11
1.31273
21
0.210179
0
LINE
8
BLACK
6
CONTINUOUS
10
1.31273
20
0.210179
11
1.31443
21
0.212733
0
LINE
8
BLACK
6
CONTINUOUS
10
1.31443
20
0.212733
11
1.31699
21
0.21444
0
LINE
8
BLACK
6
CONTINUOUS
10
1.31699
20
0.21444
11
1.32
21
0.215039
0
LINE
8
BLACK
6
CONTINUOUS
10
1.32
20
0.215039
11
1.38
21
0.215039
0
LINE
8
BLACK
6
CONTINUOUS
10
1.38
20
0.215039
11
1.38301
21
0.21444
0
LINE
8
BLACK
6
CONTINUOUS
10
1.18301
20
0.21444
11
1.18557
21
0.212733
0
LINE
8
BLACK
6
CONTINUOUS
10
1.18557
20
0.212733
11
1.18727
21
0.210179
0
LINE
8
BLACK
6
CONTINUOUS
10
1.18727
20
0.210179
11
1.18787
21
0.207165
0
LINE
8
BLACK
6
CONTINUOUS
10
1.18787
20
0.207165
11
1.18787
21
0.147165
0
LINE
8
BLACK
6
CONTINUOUS
10
1.18787
20
0.147165
11
1.18727
21
0.144152
0
LINE
8
BLACK
6
CONTINUOUS
10
1.18727
20
0.144152
11
1.18557
21
0.141598
0
LINE
8
BLACK
6
CONTINUOUS
10
1.18557
20
0.141598
11
1.18301
21
0.139891
0
LINE
8
BLACK
6
CONTINUOUS
10
1.18301
20
0.139891
11
1.18
21
0.139291
0
LINE
8
BLACK
6
CONTINUOUS
10
1.18
20
0.139291
11
1.12
21
0.139291
0
LINE
8
BLACK
6
CONTINUOUS
10
1.12
20
0.139291
11
1.11699
21
0.139891
0
LINE
8
BLACK
6
CONTINUOUS
10
1.11699
20
0.139891
11
1.11443
21
0.141598
0
LINE
8
BLACK
6
CONTINUOUS
10
1.11443
20
0.141598
11
1.11273
21
0.144152
0
LINE
8
BLACK
6
CONTINUOUS
10
1.11273
20
0.144152
11
1.11213
21
0.147165
0
LINE
8
BLACK
6
CONTINUOUS
10
1.11213
20
0.147165
11
1.11213
21
0.207165
0
LINE
8
BLACK
6
CONTINUOUS
10
1.11213
20
0.207165
11
1.11273
21
0.210179
0
LINE
8
BLACK
6
CONTINUOUS
10
1.11273
20
0.210179
11
1.11443
21
0.212733
0
LINE
8
BLACK
6
CONTINUOUS
10
1.11443
20
0.212733
11
1.11699
21
0.21444
0
LINE
8
BLACK
6
CONTINUOUS
10
1.11699
20
0.21444
11
1.12
21
0.215039
0
LINE
8
BLACK
6
CONTINUOUS
10
1.12
20
0.215039
11
1.18
21
0.215039
0
LINE
8
BLACK
6
CONTINUOUS
10
1.18
20
0.215039
11
1.18301
21
0.21444
0
LINE
8
BLACK
6
CONTINUOUS
10
1.08301
20
0.21444
11
1.08557
21
0.212733
0
LINE
8
BLACK
6
CONTINUOUS
10
1.08557
20
0.212733
11
1.08727
21
0.210179
0
LINE
8
BLACK
6
CONTINUOUS
10
1.08727
20
0.210179
11
1.08787
21
0.207165
0
LINE
8
BLACK
6
CONTINUOUS
10
1.08787
20
0.207165
11
1.08787
21
0.147165
0
LINE
8
BLACK
6
CONTINUOUS
10
1.08787
20
0.147165
11
1.08727
21
0.144152
0
LINE
8
BLACK
6
CONTINUOUS
10
1.08727
20
0.144152
11
1.08557
21
0.141598
0
LINE
8
BLACK
6
CONTINUOUS
10
1.08557
20
0.141598
11
1.08301
21
0.139891
0
LINE
8
BLACK
6
CONTINUOUS
10
1.08301
20
0.139891
11
1.08
21
0.139291
0
LINE
8
BLACK
6
CONTINUOUS
10
1.08
20
0.139291
11
1.02
21
0.139291
0
LINE
8
BLACK
6
CONTINUOUS
10
1.02
20
0.139291
11
1.01699
21
0.139891
0
LINE
8
BLACK
6
CONTINUOUS
10
1.01699
20
0.139891
11
1.01443
21
0.141598
0
LINE
8
BLACK
6
CONTINUOUS
10
1.01443
20
0.141598
11
1.01273
21
0.144152
0
LINE
8
BLACK
6
CONTINUOUS
10
1.01273
20
0.144152
11
1.01213
21
0.147165
0
LINE
8
BLACK
6
CONTINUOUS
10
1.01213
20
0.147165
11
1.01213
21
0.207165
0
LINE
8
BLACK
6
CONTINUOUS
10
1.01213
20
0.207165
11
1.01273
21
0.210179
0
LINE
8
BLACK
6
CONTINUOUS
10
1.01273
20
0.210179
11
1.01443
21
0.212733
0
LINE
8
BLACK
6
CONTINUOUS
10
1.01443
20
0.212733
11
1.01699
21
0.21444
0
LINE
8
BLACK
6
CONTINUOUS
10
1.01699
20
0.21444
11
1.02
21
0.215039
0
LINE
8
BLACK
6
CONTINUOUS
10
1.02
20
0.215039
11
1.08
21
0.215039
0
LINE
8
BLACK
6
CONTINUOUS
10
1.08
20
0.215039
11
1.08301
21
0.21444
0
LINE
8
BLACK
6
CONTINUOUS
10
0.419234
20
0.21444
11
0.421788
21
0.212733
0
LINE
8
BLACK
6
CONTINUOUS
10
0.421788
20
0.212733
11
0.423495
21
0.210179
0
LINE
8
BLACK
6
CONTINUOUS
10
0.423495
20
0.210179
11
0.424094
21
0.207165
0
LINE
8
BLACK
6
CONTINUOUS
10
0.424094
20
0.207165
11
0.424094
21
0.147165
0
LINE
8
BLACK
6
CONTINUOUS
10
0.424094
20
0.147165
11
0.423495
21
0.144152
0
LINE
8
BLACK
6
CONTINUOUS
10
0.423495
20
0.144152
11
0.421788
21
0.141598
0
LINE
8
BLACK
6
CONTINUOUS
10
0.421788
20
0.141598
11
0.419234
21
0.139891
0
LINE
8
BLACK
6
CONTINUOUS
10
0.419234
20
0.139891
11
0.41622
21
0.139291
0
LINE
8
BLACK
6
CONTINUOUS
10
0.41622
20
0.139291
11
0.35622
21
0.139291
0
LINE
8
BLACK
6
CONTINUOUS
10
0.35622
20
0.139291
11
0.353207
21
0.139891
0
LINE
8
BLACK
6
CONTINUOUS
10
0.353207
20
0.139891
11
0.350653
21
0.141598
0
LINE
8
BLACK
6
CONTINUOUS
10
0.350653
20
0.141598
11
0.348946
21
0.144152
0
LINE
8
BLACK
6
CONTINUOUS
10
0.348946
20
0.144152
11
0.348346
21
0.147165
0
LINE
8
BLACK
6
CONTINUOUS
10
0.348346
20
0.147165
11
0.348346
21
0.207165
0
LINE
8
BLACK
6
CONTINUOUS
10
0.348346
20
0.207165
11
0.348946
21
0.210179
0
LINE
8
BLACK
6
CONTINUOUS
10
0.348946
20
0.210179
11
0.350653
21
0.212733
0
LINE
8
BLACK
6
CONTINUOUS
10
0.350653
20
0.212733
11
0.353207
21
0.21444
0
LINE
8
BLACK
6
CONTINUOUS
10
0.353207
20
0.21444
11
0.35622
21
0.215039
0
LINE
8
BLACK
6
CONTINUOUS
10
0.35622
20
0.215039
11
0.41622
21
0.215039
0
LINE
8
BLACK
6
CONTINUOUS
10
0.41622
20
0.215039
11
0.419234
21
0.21444
0
LINE
8
BLACK
6
CONTINUOUS
10
0.319234
20
0.21444
11
0.321788
21
0.212733
0
LINE
8
BLACK
6
CONTINUOUS
10
0.321788
20
0.212733
11
0.323495
21
0.210179
0
LINE
8
BLACK
6
CONTINUOUS
10
0.323495
20
0.210179
11
0.324094
21
0.207165
0
LINE
8
BLACK
6
CONTINUOUS
10
0.324094
20
0.207165
11
0.324094
21
0.147165
0
LINE
8
BLACK
6
CONTINUOUS
10
0.324094
20
0.147165
11
0.323495
21
0.144152
0
LINE
8
BLACK
6
CONTINUOUS
10
0.323495
20
0.144152
11
0.321788
21
0.141598
0
LINE
8
BLACK
6
CONTINUOUS
10
0.321788
20
0.141598
11
0.319234
21
0.139891
0
LINE
8
BLACK
6
CONTINUOUS
10
0.319234
20
0.139891
11
0.31622
21
0.139291
0
LINE
8
BLACK
6
CONTINUOUS
10
0.31622
20
0.139291
11
0.25622
21
0.139291
0
LINE
8
BLACK
6
CONTINUOUS
10
0.25622
20
0.139291
11
0.253207
21
0.139891
0
LINE
8
BLACK
6
CONTINUOUS
10
0.253207
20
0.139891
11
0.250653
21
0.141598
0
LINE
8
BLACK
6
CONTINUOUS
10
0.250653
20
0.141598
11
0.248946
21
0.144152
0
LINE
8
BLACK
6
CONTINUOUS
10
0.248946
20
0.144152
11
0.248346
21
0.147165
0
LINE
8
BLACK
6
CONTINUOUS
10
0.248346
20
0.147165
11
0.248346
21
0.207165
0
LINE
8
BLACK
6
CONTINUOUS
10
0.248346
20
0.207165
11
0.248946
21
0.210179
0
LINE
8
BLACK
6
CONTINUOUS
10
0.248946
20
0.210179
11
0.250653
21
0.212733
0
LINE
8
BLACK
6
CONTINUOUS
10
0.250653
20
0.212733
11
0.253207
21
0.21444
0
LINE
8
BLACK
6
CONTINUOUS
10
0.253207
20
0.21444
11
0.25622
21
0.215039
0
LINE
8
BLACK
6
CONTINUOUS
10
0.25622
20
0.215039
11
0.31622
21
0.215039
0
LINE
8
BLACK
6
CONTINUOUS
10
0.31622
20
0.215039
11
0.319234
21
0.21444
0
LINE
8
BLACK
6
CONTINUOUS
10
0.219234
20
0.21444
11
0.221788
21
0.212733
0
LINE
8
BLACK
6
CONTINUOUS
10
0.221788
20
0.212733
11
0.223495
21
0.210179
0
LINE
8
BLACK
6
CONTINUOUS
10
0.223495
20
0.210179
11
0.224094
21
0.207165
0
LINE
8
BLACK
6
CONTINUOUS
10
0.224094
20
0.207165
11
0.224094
21
0.147165
0
LINE
8
BLACK
6
CONTINUOUS
10
0.224094
20
0.147165
11
0.223495
21
0.144152
0
LINE
8
BLACK
6
CONTINUOUS
10
0.223495
20
0.144152
11
0.221788
21
0.141598
0
LINE
8
BLACK
6
CONTINUOUS
10
0.221788
20
0.141598
11
0.219234
21
0.139891
0
LINE
8
BLACK
6
CONTINUOUS
10
0.219234
20
0.139891
11
0.21622
21
0.139291
0
LINE
8
BLACK
6
CONTINUOUS
10
0.21622
20
0.139291
11
0.15622
21
0.139291
0
LINE
8
BLACK
6
CONTINUOUS
10
0.15622
20
0.139291
11
0.153207
21
0.139891
0
LINE
8
BLACK
6
CONTINUOUS
10
0.153207
20
0.139891
11
0.150653
21
0.141598
0
LINE
8
BLACK
6
CONTINUOUS
10
0.150653
20
0.141598
11
0.148946
21
0.144152
0
LINE
8
BLACK
6
CONTINUOUS
10
0.148946
20
0.144152
11
0.148346
21
0.147165
0
LINE
8
BLACK
6
CONTINUOUS
10
0.148346
20
0.147165
11
0.148346
21
0.207165
0
LINE
8
BLACK
6
CONTINUOUS
10
0.148346
20
0.207165
11
0.148946
21
0.210179
0
LINE
8
BLACK
6
CONTINUOUS
10
0.148946
20
0.210179
11
0.150653
21
0.212733
0
LINE
8
BLACK
6
CONTINUOUS
10
0.150653
20
0.212733
11
0.153207
21
0.21444
0
LINE
8
BLACK
6
CONTINUOUS
10
0.153207
20
0.21444
11
0.15622
21
0.215039
0
LINE
8
BLACK
6
CONTINUOUS
10
0.15622
20
0.215039
11
0.21622
21
0.215039
0
LINE
8
BLACK
6
CONTINUOUS
10
0.21622
20
0.215039
11
0.219234
21
0.21444
0
LINE
8
BLACK
6
CONTINUOUS
10
0.119234
20
0.21444
11
0.121788
21
0.212733
0
LINE
8
BLACK
6
CONTINUOUS
10
0.121788
20
0.212733
11
0.123495
21
0.210179
0
LINE
8
BLACK
6
CONTINUOUS
10
0.123495
20
0.210179
11
0.124094
21
0.207165
0
LINE
8
BLACK
6
CONTINUOUS
10
0.124094
20
0.207165
11
0.124094
21
0.147165
0
LINE
8
BLACK
6
CONTINUOUS
10
0.124094
20
0.147165
11
0.123495
21
0.144152
0
LINE
8
BLACK
6
CONTINUOUS
10
0.123495
20
0.144152
11
0.121788
21
0.141598
0
LINE
8
BLACK
6
CONTINUOUS
10
0.121788
20
0.141598
11
0.119234
21
0.139891
0
LINE
8
BLACK
6
CONTINUOUS
10
0.119234
20
0.139891
11
0.11622
21
0.139291
0
LINE
8
BLACK
6
CONTINUOUS
10
0.11622
20
0.139291
11
0.0562205
21
0.139291
0
LINE
8
BLACK
6
CONTINUOUS
10
0.0562205
20
0.139291
11
0.0532072
21
0.139891
0
LINE
8
BLACK
6
CONTINUOUS
10
0.0532072
20
0.139891
11
0.0506527
21
0.141598
0
LINE
8
BLACK
6
CONTINUOUS
10
0.0506527
20
0.141598
11
0.0489458
21
0.144152
0
LINE
8
BLACK
6
CONTINUOUS
10
0.0489458
20
0.144152
11
0.0483465
21
0.147165
0
LINE
8
BLACK
6
CONTINUOUS
10
0.0483465
20
0.147165
11
0.0483465
21
0.207165
0
LINE
8
BLACK
6
CONTINUOUS
10
0.0483465
20
0.207165
11
0.0489458
21
0.210179
0
LINE
8
BLACK
6
CONTINUOUS
10
0.0489458
20
0.210179
11
0.0506527
21
0.212733
0
LINE
8
BLACK
6
CONTINUOUS
10
0.0506527
20
0.212733
11
0.0532072
21
0.21444
0
LINE
8
BLACK
6
CONTINUOUS
10
0.0532072
20
0.21444
11
0.0562205
21
0.215039
0
LINE
8
BLACK
6
CONTINUOUS
10
0.0562205
20
0.215039
11
0.11622
21
0.215039
0
LINE
8
BLACK
6
CONTINUOUS
10
0.11622
20
0.215039
11
0.119234
21
0.21444
0
LINE
8
BLACK
6
CONTINUOUS
10
1.55538
20
0.586015
11
1.55793
21
0.584308
0
LINE
8
BLACK
6
CONTINUOUS
10
1.55793
20
0.584308
11
1.55964
21
0.581753
0
LINE
8
BLACK
6
CONTINUOUS
10
1.55964
20
0.581753
11
1.56024
21
0.57874
0
LINE
8
BLACK
6
CONTINUOUS
10
1.56024
20
0.57874
11
1.56024
21
0.484252
0
LINE
8
BLACK
6
CONTINUOUS
10
1.56024
20
0.484252
11
1.55964
21
0.481239
0
LINE
8
BLACK
6
CONTINUOUS
10
1.55964
20
0.481239
11
1.55793
21
0.478684
0
LINE
8
BLACK
6
CONTINUOUS
10
1.55793
20
0.478684
11
1.55538
21
0.476977
0
LINE
8
BLACK
6
CONTINUOUS
10
1.55538
20
0.476977
11
1.55236
21
0.476378
0
LINE
8
BLACK
6
CONTINUOUS
10
1.55236
20
0.476378
11
1.45787
21
0.476378
0
LINE
8
BLACK
6
CONTINUOUS
10
1.45787
20
0.476378
11
1.45486
21
0.476977
0
LINE
8
BLACK
6
CONTINUOUS
10
1.45486
20
0.476977
11
1.45231
21
0.478684
0
LINE
8
BLACK
6
CONTINUOUS
10
1.45231
20
0.478684
11
1.4506
21
0.481239
0
LINE
8
BLACK
6
CONTINUOUS
10
1.4506
20
0.481239
11
1.45
21
0.484252
0
LINE
8
BLACK
6
CONTINUOUS
10
1.45
20
0.484252
11
1.45
21
0.57874
0
LINE
8
BLACK
6
CONTINUOUS
10
1.45
20
0.57874
11
1.4506
21
0.581753
0
LINE
8
BLACK
6
CONTINUOUS
10
1.4506
20
0.581753
11
1.45231
21
0.584308
0
LINE
8
BLACK
6
CONTINUOUS
10
1.45231
20
0.584308
11
1.45486
21
0.586015
0
LINE
8
BLACK
6
CONTINUOUS
10
1.45486
20
0.586015
11
1.45787
21
0.586614
0
LINE
8
BLACK
6
CONTINUOUS
10
1.45787
20
0.586614
11
1.55236
21
0.586614
0
LINE
8
BLACK
6
CONTINUOUS
10
1.55236
20
0.586614
11
1.55538
21
0.586015
0
LINE
8
BLACK
6
CONTINUOUS
10
0.649864
20
0.586015
11
0.652418
21
0.584308
0
LINE
8
BLACK
6
CONTINUOUS
10
0.652418
20
0.584308
11
0.654125
21
0.581753
0
LINE
8
BLACK
6
CONTINUOUS
10
0.654125
20
0.581753
11
0.654724
21
0.57874
0
LINE
8
BLACK
6
CONTINUOUS
10
0.654724
20
0.57874
11
0.654724
21
0.484252
0
LINE
8
BLACK
6
CONTINUOUS
10
0.654724
20
0.484252
11
0.654125
21
0.481239
0
LINE
8
BLACK
6
CONTINUOUS
10
0.654125
20
0.481239
11
0.652418
21
0.478684
0
LINE
8
BLACK
6
CONTINUOUS
10
0.652418
20
0.478684
11
0.649864
21
0.476977
0
LINE
8
BLACK
6
CONTINUOUS
10
0.649864
20
0.476977
11
0.64685
21
0.476378
0
LINE
8
BLACK
6
CONTINUOUS
10
0.64685
20
0.476378
11
0.552362
21
0.476378
0
LINE
8
BLACK
6
CONTINUOUS
10
0.552362
20
0.476378
11
0.549349
21
0.476977
0
LINE
8
BLACK
6
CONTINUOUS
10
0.549349
20
0.476977
11
0.546794
21
0.478684
0
LINE
8
BLACK
6
CONTINUOUS
10
0.546794
20
0.478684
11
0.545088
21
0.481239
0
LINE
8
BLACK
6
CONTINUOUS
10
0.545088
20
0.481239
11
0.544488
21
0.484252
0
LINE
8
BLACK
6
CONTINUOUS
10
0.544488
20
0.484252
11
0.544488
21
0.57874
0
LINE
8
BLACK
6
CONTINUOUS
10
0.544488
20
0.57874
11
0.545088
21
0.581753
0
LINE
8
BLACK
6
CONTINUOUS
10
0.545088
20
0.581753
11
0.546794
21
0.584308
0
LINE
8
BLACK
6
CONTINUOUS
10
0.546794
20
0.584308
11
0.549349
21
0.586015
0
LINE
8
BLACK
6
CONTINUOUS
10
0.549349
20
0.586015
11
0.552362
21
0.586614
0
LINE
8
BLACK
6
CONTINUOUS
10
0.552362
20
0.586614
11
0.64685
21
0.586614
0
LINE
8
BLACK
6
CONTINUOUS
10
0.64685
20
0.586614
11
0.649864
21
0.586015
0
LINE
8
BLACK
6
CONTINUOUS
10
0.900069
20
0.58637
11
0.908962
21
0.584786
0
LINE
8
BLACK
6
CONTINUOUS
10
0.908962
20
0.584786
11
0.917476
21
0.58177
0
LINE
8
BLACK
6
CONTINUOUS
10
0.917476
20
0.58177
11
0.925384
21
0.577405
0
LINE
8
BLACK
6
CONTINUOUS
10
0.925384
20
0.577405
11
0.932472
21
0.571807
0
LINE
8
BLACK
6
CONTINUOUS
10
0.932472
20
0.571807
11
0.938551
21
0.565126
0
LINE
8
BLACK
6
CONTINUOUS
10
0.938551
20
0.565126
11
0.943458
21
0.557542
0
LINE
8
BLACK
6
CONTINUOUS
10
0.943458
20
0.557542
11
0.947059
21
0.549259
0
LINE
8
BLACK
6
CONTINUOUS
10
0.947059
20
0.549259
11
0.94926
21
0.540498
0
LINE
8
BLACK
6
CONTINUOUS
10
0.94926
20
0.540498
11
0.95
21
0.531496
0
LINE
8
BLACK
6
CONTINUOUS
10
0.95
20
0.531496
11
0.949934
21
0.528804
0
LINE
8
BLACK
6
CONTINUOUS
10
0.949934
20
0.528804
11
0.948755
21
0.519848
0
LINE
8
BLACK
6
CONTINUOUS
10
0.948755
20
0.519848
11
0.946129
21
0.511206
0
LINE
8
BLACK
6
CONTINUOUS
10
0.946129
20
0.511206
11
0.942127
21
0.503108
0
LINE
8
BLACK
6
CONTINUOUS
10
0.942127
20
0.503108
11
0.936856
21
0.495773
0
LINE
8
BLACK
6
CONTINUOUS
10
0.936856
20
0.495773
11
0.930458
21
0.489397
0
LINE
8
BLACK
6
CONTINUOUS
10
0.930458
20
0.489397
11
0.923105
21
0.484152
0
LINE
8
BLACK
6
CONTINUOUS
10
0.923105
20
0.484152
11
0.914993
21
0.480178
0
LINE
8
BLACK
6
CONTINUOUS
10
0.914993
20
0.480178
11
0.906342
21
0.477582
0
LINE
8
BLACK
6
CONTINUOUS
10
0.906342
20
0.477582
11
0.897382
21
0.476435
0
LINE
8
BLACK
6
CONTINUOUS
10
0.897382
20
0.476435
11
0.888356
21
0.476766
0
LINE
8
BLACK
6
CONTINUOUS
10
0.888356
20
0.476766
11
0.879504
21
0.478566
0
LINE
8
BLACK
6
CONTINUOUS
10
0.879504
20
0.478566
11
0.871066
21
0.481789
0
LINE
8
BLACK
6
CONTINUOUS
10
0.871066
20
0.481789
11
0.863267
21
0.486346
0
LINE
8
BLACK
6
CONTINUOUS
10
0.863267
20
0.486346
11
0.856318
21
0.492116
0
LINE
8
BLACK
6
CONTINUOUS
10
0.856318
20
0.492116
11
0.850404
21
0.498943
0
LINE
8
BLACK
6
CONTINUOUS
10
0.850404
20
0.498943
11
0.845684
21
0.506645
0
LINE
8
BLACK
6
CONTINUOUS
10
0.845684
20
0.506645
11
0.842286
21
0.515014
0
LINE
8
BLACK
6
CONTINUOUS
10
0.842286
20
0.515014
11
0.8403
21
0.523825
0
LINE
8
BLACK
6
CONTINUOUS
10
0.8403
20
0.523825
11
0.83978
21
0.532843
0
LINE
8
BLACK
6
CONTINUOUS
10
0.83978
20
0.532843
11
0.84074
21
0.541824
0
LINE
8
BLACK
6
CONTINUOUS
10
0.84074
20
0.541824
11
0.843154
21
0.550528
0
LINE
8
BLACK
6
CONTINUOUS
10
0.843154
20
0.550528
11
0.846957
21
0.558721
0
LINE
8
BLACK
6
CONTINUOUS
10
0.846957
20
0.558721
11
0.852047
21
0.566183
0
LINE
8
BLACK
6
CONTINUOUS
10
0.852047
20
0.566183
11
0.858288
21
0.572713
0
LINE
8
BLACK
6
CONTINUOUS
10
0.858288
20
0.572713
11
0.865511
21
0.578137
0
LINE
8
BLACK
6
CONTINUOUS
10
0.865511
20
0.578137
11
0.873523
21
0.582307
0
LINE
8
BLACK
6
CONTINUOUS
10
0.873523
20
0.582307
11
0.882108
21
0.585114
0
LINE
8
BLACK
6
CONTINUOUS
10
0.882108
20
0.585114
11
0.891037
21
0.58648
0
LINE
8
BLACK
6
CONTINUOUS
10
0.891037
20
0.58648
11
0.900069
21
0.58637
0
LINE
8
BLACK
6
CONTINUOUS
10
1.80558
20
0.58637
11
1.81447
21
0.584786
0
LINE
8
BLACK
6
CONTINUOUS
10
1.81447
20
0.584786
11
1.82299
21
0.58177
0
LINE
8
BLACK
6
CONTINUOUS
10
1.82299
20
0.58177
11
1.8309
21
0.577405
0
LINE
8
BLACK
6
CONTINUOUS
10
1.8309
20
0.577405
11
1.83798
21
0.571807
0
LINE
8
BLACK
6
CONTINUOUS
10
1.83798
20
0.571807
11
1.84406
21
0.565126
0
LINE
8
BLACK
6
CONTINUOUS
10
1.84406
20
0.565126
11
1.84897
21
0.557542
0
LINE
8
BLACK
6
CONTINUOUS
10
1.84897
20
0.557542
11
1.85257
21
0.549259
0
LINE
8
BLACK
6
CONTINUOUS
10
1.85257
20
0.549259
11
1.85477
21
0.540498
0
LINE
8
BLACK
6
CONTINUOUS
10
1.85477
20
0.540498
11
1.85551
21
0.531496
0
LINE
8
BLACK
6
CONTINUOUS
10
1.85551
20
0.531496
11
1.85545
21
0.528804
0
LINE
8
BLACK
6
CONTINUOUS
10
1.85545
20
0.528804
11
1.85427
21
0.519848
0
LINE
8
BLACK
6
CONTINUOUS
10
1.85427
20
0.519848
11
1.85164
21
0.511206
0
LINE
8
BLACK
6
CONTINUOUS
10
1.85164
20
0.511206
11
1.84764
21
0.503108
0
LINE
8
BLACK
6
CONTINUOUS
10
1.84764
20
0.503108
11
1.84237
21
0.495773
0
LINE
8
BLACK
6
CONTINUOUS
10
1.84237
20
0.495773
11
1.83597
21
0.489397
0
LINE
8
BLACK
6
CONTINUOUS
10
1.83597
20
0.489397
11
1.82862
21
0.484152
0
LINE
8
BLACK
6
CONTINUOUS
10
1.82862
20
0.484152
11
1.82051
21
0.480178
0
LINE
8
BLACK
6
CONTINUOUS
10
1.82051
20
0.480178
11
1.81185
21
0.477582
0
LINE
8
BLACK
6
CONTINUOUS
10
1.81185
20
0.477582
11
1.80289
21
0.476435
0
LINE
8
BLACK
6
CONTINUOUS
10
1.80289
20
0.476435
11
1.79387
21
0.476766
0
LINE
8
BLACK
6
CONTINUOUS
10
1.79387
20
0.476766
11
1.78502
21
0.478566
0
LINE
8
BLACK
6
CONTINUOUS
10
1.78502
20
0.478566
11
1.77658
21
0.481789
0
LINE
8
BLACK
6
CONTINUOUS
10
1.77658
20
0.481789
11
1.76878
21
0.486346
0
LINE
8
BLACK
6
CONTINUOUS
10
1.76878
20
0.486346
11
1.76183
21
0.492116
0
LINE
8
BLACK
6
CONTINUOUS
10
1.76183
20
0.492116
11
1.75592
21
0.498943
0
LINE
8
BLACK
6
CONTINUOUS
10
1.75592
20
0.498943
11
1.7512
21
0.506645
0
LINE
8
BLACK
6
CONTINUOUS
10
1.7512
20
0.506645
11
1.7478
21
0.515014
0
LINE
8
BLACK
6
CONTINUOUS
10
1.7478
20
0.515014
11
1.74581
21
0.523825
0
LINE
8
BLACK
6
CONTINUOUS
10
1.74581
20
0.523825
11
1.74529
21
0.532843
0
LINE
8
BLACK
6
CONTINUOUS
10
1.74529
20
0.532843
11
1.74625
21
0.541824
0
LINE
8
BLACK
6
CONTINUOUS
10
1.74625
20
0.541824
11
1.74867
21
0.550528
0
LINE
8
BLACK
6
CONTINUOUS
10
1.74867
20
0.550528
11
1.75247
21
0.558721
0
LINE
8
BLACK
6
CONTINUOUS
10
1.75247
20
0.558721
11
1.75756
21
0.566183
0
LINE
8
BLACK
6
CONTINUOUS
10
1.75756
20
0.566183
11
1.7638
21
0.572713
0
LINE
8
BLACK
6
CONTINUOUS
10
1.7638
20
0.572713
11
1.77102
21
0.578137
0
LINE
8
BLACK
6
CONTINUOUS
10
1.77102
20
0.578137
11
1.77903
21
0.582307
0
LINE
8
BLACK
6
CONTINUOUS
10
1.77903
20
0.582307
11
1.78762
21
0.585114
0
LINE
8
BLACK
6
CONTINUOUS
10
1.78762
20
0.585114
11
1.79655
21
0.58648
0
LINE
8
BLACK
6
CONTINUOUS
10
1.79655
20
0.58648
11
1.80558
21
0.58637
0
LINE
8
BLACK
6
CONTINUOUS
10
0.214917
20
1.11435
11
0.228769
21
1.11191
0
LINE
8
BLACK
6
CONTINUOUS
10
0.228769
20
1.11191
11
0.242262
21
1.10794
0
LINE
8
BLACK
6
CONTINUOUS
10
0.242262
20
1.10794
11
0.255228
21
1.10249
0
LINE
8
BLACK
6
CONTINUOUS
10
0.255228
20
1.10249
11
0.267506
21
1.09562
0
LINE
8
BLACK
6
CONTINUOUS
10
0.267506
20
1.09562
11
0.278942
21
1.08744
0
LINE
8
BLACK
6
CONTINUOUS
10
0.278942
20
1.08744
11
0.289395
21
1.07802
0
LINE
8
BLACK
6
CONTINUOUS
10
0.289395
20
1.07802
11
0.298733
21
1.06751
0
LINE
8
BLACK
6
CONTINUOUS
10
0.298733
20
1.06751
11
0.306841
21
1.05601
0
LINE
8
BLACK
6
CONTINUOUS
10
0.306841
20
1.05601
11
0.313617
21
1.04369
0
LINE
8
BLACK
6
CONTINUOUS
10
0.313617
20
1.04369
11
0.318977
21
1.03068
0
LINE
8
BLACK
6
CONTINUOUS
10
0.318977
20
1.03068
11
0.322853
21
1.01716
0
LINE
8
BLACK
6
CONTINUOUS
10
0.322853
20
1.01716
11
0.325199
21
1.0033
0
LINE
8
BLACK
6
CONTINUOUS
10
0.325199
20
1.0033
11
0.325984
21
0.989252
0
LINE
8
BLACK
6
CONTINUOUS
10
0.325984
20
0.989252
11
0.325935
21
0.985734
0
LINE
8
BLACK
6
CONTINUOUS
10
0.325935
20
0.985734
11
0.324758
21
0.971718
0
LINE
8
BLACK
6
CONTINUOUS
10
0.324758
20
0.971718
11
0.322026
21
0.957921
0
LINE
8
BLACK
6
CONTINUOUS
10
0.322026
20
0.957921
11
0.317773
21
0.944514
0
LINE
8
BLACK
6
CONTINUOUS
10
0.317773
20
0.944514
11
0.312052
21
0.931665
0
LINE
8
BLACK
6
CONTINUOUS
10
0.312052
20
0.931665
11
0.304935
21
0.919533
0
LINE
8
BLACK
6
CONTINUOUS
10
0.304935
20
0.919533
11
0.29651
21
0.908271
0
LINE
8
BLACK
6
CONTINUOUS
10
0.29651
20
0.908271
11
0.286881
21
0.898018
0
LINE
8
BLACK
6
CONTINUOUS
10
0.286881
20
0.898018
11
0.27617
21
0.888902
0
LINE
8
BLACK
6
CONTINUOUS
10
0.27617
20
0.888902
11
0.264509
21
0.881037
0
LINE
8
BLACK
6
CONTINUOUS
10
0.264509
20
0.881037
11
0.252045
21
0.87452
0
LINE
8
BLACK
6
CONTINUOUS
10
0.252045
20
0.87452
11
0.238931
21
0.869434
0
LINE
8
BLACK
6
CONTINUOUS
10
0.238931
20
0.869434
11
0.225333
21
0.865841
0
LINE
8
BLACK
6
CONTINUOUS
10
0.225333
20
0.865841
11
0.211418
21
0.863786
0
LINE
8
BLACK
6
CONTINUOUS
10
0.211418
20
0.863786
11
0.197362
21
0.863295
0
LINE
8
BLACK
6
CONTINUOUS
10
0.197362
20
0.863295
11
0.183338
21
0.864374
0
LINE
8
BLACK
6
CONTINUOUS
10
0.183338
20
0.864374
11
0.169522
21
0.86701
0
LINE
8
BLACK
6
CONTINUOUS
10
0.169522
20
0.86701
11
0.156085
21
0.871169
0
LINE
8
BLACK
6
CONTINUOUS
10
0.156085
20
0.871169
11
0.143197
21
0.8768
0
LINE
8
BLACK
6
CONTINUOUS
10
0.143197
20
0.8768
11
0.131016
21
0.883833
0
LINE
8
BLACK
6
CONTINUOUS
10
0.131016
20
0.883833
11
0.119695
21
0.892179
0
LINE
8
BLACK
6
CONTINUOUS
10
0.119695
20
0.892179
11
0.109375
21
0.901736
0
LINE
8
BLACK
6
CONTINUOUS
10
0.109375
20
0.901736
11
0.100184
21
0.912383
0
LINE
8
BLACK
6
CONTINUOUS
10
0.100184
20
0.912383
11
0.0922376
21
0.923989
0
LINE
8
BLACK
6
CONTINUOUS
10
0.0922376
20
0.923989
11
0.0856343
21
0.936408
0
LINE
8
BLACK
6
CONTINUOUS
10
0.0856343
20
0.936408
11
0.0804566
21
0.949485
0
LINE
8
BLACK
6
CONTINUOUS
10
0.0804566
20
0.949485
11
0.0767688
21
0.963058
0
LINE
8
BLACK
6
CONTINUOUS
10
0.0767688
20
0.963058
11
0.074617
21
0.976958
0
LINE
8
BLACK
6
CONTINUOUS
10
0.074617
20
0.976958
11
0.074028
21
0.991011
0
LINE
8
BLACK
6
CONTINUOUS
10
0.074028
20
0.991011
11
0.0750092
21
1.00504
0
LINE
8
BLACK
6
CONTINUOUS
10
0.0750092
20
1.00504
11
0.0775482
21
1.01888
0
LINE
8
BLACK
6
CONTINUOUS
10
0.0775482
20
1.01888
11
0.0816135
21
1.03234
0
LINE
8
BLACK
6
CONTINUOUS
10
0.0816135
20
1.03234
11
0.0871544
21
1.04527
0
LINE
8
BLACK
6
CONTINUOUS
10
0.0871544
20
1.04527
11
0.0941019
21
1.0575
0
LINE
8
BLACK
6
CONTINUOUS
10
0.0941019
20
1.0575
11
0.102369
21
1.06888
0
LINE
8
BLACK
6
CONTINUOUS
10
0.102369
20
1.06888
11
0.111853
21
1.07926
0
LINE
8
BLACK
6
CONTINUOUS
10
0.111853
20
1.07926
11
0.122436
21
1.08853
0
LINE
8
BLACK
6
CONTINUOUS
10
0.122436
20
1.08853
11
0.133986
21
1.09656
0
LINE
8
BLACK
6
CONTINUOUS
10
0.133986
20
1.09656
11
0.146359
21
1.10325
0
LINE
8
BLACK
6
CONTINUOUS
10
0.146359
20
1.10325
11
0.1594
21
1.10851
0
LINE
8
BLACK
6
CONTINUOUS
10
0.1594
20
1.10851
11
0.172947
21
1.1123
0
LINE
8
BLACK
6
CONTINUOUS
10
0.172947
20
1.1123
11
0.186831
21
1.11455
0
LINE
8
BLACK
6
CONTINUOUS
10
0.186831
20
1.11455
11
0.20088
21
1.11523
0
LINE
8
BLACK
6
CONTINUOUS
10
0.20088
20
1.11523
11
0.214917
21
1.11435
0
LINE
8
BLACK
6
CONTINUOUS
10
2.21492
20
1.11435
11
2.22877
21
1.11191
0
LINE
8
BLACK
6
CONTINUOUS
10
2.22877
20
1.11191
11
2.24226
21
1.10794
0
LINE
8
BLACK
6
CONTINUOUS
10
2.24226
20
1.10794
11
2.25523
21
1.10249
0
LINE
8
BLACK
6
CONTINUOUS
10
2.25523
20
1.10249
11
2.26751
21
1.09562
0
LINE
8
BLACK
6
CONTINUOUS
10
2.26751
20
1.09562
11
2.27894
21
1.08744
0
LINE
8
BLACK
6
CONTINUOUS
10
2.27894
20
1.08744
11
2.28939
21
1.07802
0
LINE
8
BLACK
6
CONTINUOUS
10
2.28939
20
1.07802
11
2.29873
21
1.06751
0
LINE
8
BLACK
6
CONTINUOUS
10
2.29873
20
1.06751
11
2.30684
21
1.05601
0
LINE
8
BLACK
6
CONTINUOUS
10
2.30684
20
1.05601
11
2.31362
21
1.04369
0
LINE
8
BLACK
6
CONTINUOUS
10
2.31362
20
1.04369
11
2.31898
21
1.03068
0
LINE
8
BLACK
6
CONTINUOUS
10
2.31898
20
1.03068
11
2.32285
21
1.01716
0
LINE
8
BLACK
6
CONTINUOUS
10
2.32285
20
1.01716
11
2.3252
21
1.0033
0
LINE
8
BLACK
6
CONTINUOUS
10
2.3252
20
1.0033
11
2.32598
21
0.989252
0
LINE
8
BLACK
6
CONTINUOUS
10
2.32598
20
0.989252
11
2.32594
21
0.985734
0
LINE
8
BLACK
6
CONTINUOUS
10
2.32594
20
0.985734
11
2.32476
21
0.971718
0
LINE
8
BLACK
6
CONTINUOUS
10
2.32476
20
0.971718
11
2.32203
21
0.957921
0
LINE
8
BLACK
6
CONTINUOUS
10
2.32203
20
0.957921
11
2.31777
21
0.944514
0
LINE
8
BLACK
6
CONTINUOUS
10
2.31777
20
0.944514
11
2.31205
21
0.931665
0
LINE
8
BLACK
6
CONTINUOUS
10
2.31205
20
0.931665
11
2.30493
21
0.919533
0
LINE
8
BLACK
6
CONTINUOUS
10
2.30493
20
0.919533
11
2.29651
21
0.908271
0
LINE
8
BLACK
6
CONTINUOUS
10
2.29651
20
0.908271
11
2.28688
21
0.898018
0
LINE
8
BLACK
6
CONTINUOUS
10
2.28688
20
0.898018
11
2.27617
21
0.888902
0
LINE
8
BLACK
6
CONTINUOUS
10
2.27617
20
0.888902
11
2.26451
21
0.881037
0
LINE
8
BLACK
6
CONTINUOUS
10
2.26451
20
0.881037
11
2.25204
21
0.87452
0
LINE
8
BLACK
6
CONTINUOUS
10
2.25204
20
0.87452
11
2.23893
21
0.869434
0
LINE
8
BLACK
6
CONTINUOUS
10
2.23893
20
0.869434
11
2.22533
21
0.865841
0
LINE
8
BLACK
6
CONTINUOUS
10
2.22533
20
0.865841
11
2.21142
21
0.863786
0
LINE
8
BLACK
6
CONTINUOUS
10
2.21142
20
0.863786
11
2.19736
21
0.863295
0
LINE
8
BLACK
6
CONTINUOUS
10
2.19736
20
0.863295
11
2.18334
21
0.864374
0
LINE
8
BLACK
6
CONTINUOUS
10
2.18334
20
0.864374
11
2.16952
21
0.86701
0
LINE
8
BLACK
6
CONTINUOUS
10
2.16952
20
0.86701
11
2.15609
21
0.871169
0
LINE
8
BLACK
6
CONTINUOUS
10
2.15609
20
0.871169
11
2.1432
21
0.8768
0
LINE
8
BLACK
6
CONTINUOUS
10
2.1432
20
0.8768
11
2.13102
21
0.883833
0
LINE
8
BLACK
6
CONTINUOUS
10
2.13102
20
0.883833
11
2.11969
21
0.892179
0
LINE
8
BLACK
6
CONTINUOUS
10
2.11969
20
0.892179
11
2.10937
21
0.901736
0
LINE
8
BLACK
6
CONTINUOUS
10
2.10937
20
0.901736
11
2.10018
21
0.912383
0
LINE
8
BLACK
6
CONTINUOUS
10
2.10018
20
0.912383
11
2.09224
21
0.923989
0
LINE
8
BLACK
6
CONTINUOUS
10
2.09224
20
0.923989
11
2.08563
21
0.936408
0
LINE
8
BLACK
6
CONTINUOUS
10
2.08563
20
0.936408
11
2.08046
21
0.949485
0
LINE
8
BLACK
6
CONTINUOUS
10
2.08046
20
0.949485
11
2.07677
21
0.963058
0
LINE
8
BLACK
6
CONTINUOUS
10
2.07677
20
0.963058
11
2.07462
21
0.976958
0
LINE
8
BLACK
6
CONTINUOUS
10
2.07462
20
0.976958
11
2.07403
21
0.991011
0
LINE
8
BLACK
6
CONTINUOUS
10
2.07403
20
0.991011
11
2.07501
21
1.00504
0
LINE
8
BLACK
6
CONTINUOUS
10
2.07501
20
1.00504
11
2.07755
21
1.01888
0
LINE
8
BLACK
6
CONTINUOUS
10
2.07755
20
1.01888
11
2.08161
21
1.03234
0
LINE
8
BLACK
6
CONTINUOUS
10
2.08161
20
1.03234
11
2.08715
21
1.04527
0
LINE
8
BLACK
6
CONTINUOUS
10
2.08715
20
1.04527
11
2.0941
21
1.0575
0
LINE
8
BLACK
6
CONTINUOUS
10
2.0941
20
1.0575
11
2.10237
21
1.06888
0
LINE
8
BLACK
6
CONTINUOUS
10
2.10237
20
1.06888
11
2.11185
21
1.07926
0
LINE
8
BLACK
6
CONTINUOUS
10
2.11185
20
1.07926
11
2.12244
21
1.08853
0
LINE
8
BLACK
6
CONTINUOUS
10
2.12244
20
1.08853
11
2.13399
21
1.09656
0
LINE
8
BLACK
6
CONTINUOUS
10
2.13399
20
1.09656
11
2.14636
21
1.10325
0
LINE
8
BLACK
6
CONTINUOUS
10
2.14636
20
1.10325
11
2.1594
21
1.10851
0
LINE
8
BLACK
6
CONTINUOUS
10
2.1594
20
1.10851
11
2.17295
21
1.1123
0
LINE
8
BLACK
6
CONTINUOUS
10
2.17295
20
1.1123
11
2.18683
21
1.11455
0
LINE
8
BLACK
6
CONTINUOUS
10
2.18683
20
1.11455
11
2.20088
21
1.11523
0
LINE
8
BLACK
6
CONTINUOUS
10
2.20088
20
1.11523
11
2.21492
21
1.11435
0
LINE
8
BLACK
6
CONTINUOUS
10
0.649864
20
1.49153
11
0.652418
21
1.48982
0
LINE
8
BLACK
6
CONTINUOUS
10
0.652418
20
1.48982
11
0.654125
21
1.48727
0
LINE
8
BLACK
6
CONTINUOUS
10
0.654125
20
1.48727
11
0.654724
21
1.48425
0
LINE
8
BLACK
6
CONTINUOUS
10
0.654724
20
1.48425
11
0.654724
21
1.38976
0
LINE
8
BLACK
6
CONTINUOUS
10
0.654724
20
1.38976
11
0.654125
21
1.38675
0
LINE
8
BLACK
6
CONTINUOUS
10
0.654125
20
1.38675
11
0.652418
21
1.3842
0
LINE
8
BLACK
6
CONTINUOUS
10
0.652418
20
1.3842
11
0.649864
21
1.38249
0
LINE
8
BLACK
6
CONTINUOUS
10
0.649864
20
1.38249
11
0.64685
21
1.38189
0
LINE
8
BLACK
6
CONTINUOUS
10
0.64685
20
1.38189
11
0.552362
21
1.38189
0
LINE
8
BLACK
6
CONTINUOUS
10
0.552362
20
1.38189
11
0.549349
21
1.38249
0
LINE
8
BLACK
6
CONTINUOUS
10
0.549349
20
1.38249
11
0.546794
21
1.3842
0
LINE
8
BLACK
6
CONTINUOUS
10
0.546794
20
1.3842
11
0.545088
21
1.38675
0
LINE
8
BLACK
6
CONTINUOUS
10
0.545088
20
1.38675
11
0.544488
21
1.38976
0
LINE
8
BLACK
6
CONTINUOUS
10
0.544488
20
1.38976
11
0.544488
21
1.48425
0
LINE
8
BLACK
6
CONTINUOUS
10
0.544488
20
1.48425
11
0.545088
21
1.48727
0
LINE
8
BLACK
6
CONTINUOUS
10
0.545088
20
1.48727
11
0.546794
21
1.48982
0
LINE
8
BLACK
6
CONTINUOUS
10
0.546794
20
1.48982
11
0.549349
21
1.49153
0
LINE
8
BLACK
6
CONTINUOUS
10
0.549349
20
1.49153
11
0.552362
21
1.49213
0
LINE
8
BLACK
6
CONTINUOUS
10
0.552362
20
1.49213
11
0.64685
21
1.49213
0
LINE
8
BLACK
6
CONTINUOUS
10
0.64685
20
1.49213
11
0.649864
21
1.49153
0
LINE
8
BLACK
6
CONTINUOUS
10
1.55538
20
1.49153
11
1.55793
21
1.48982
0
LINE
8
BLACK
6
CONTINUOUS
10
1.55793
20
1.48982
11
1.55964
21
1.48727
0
LINE
8
BLACK
6
CONTINUOUS
10
1.55964
20
1.48727
11
1.56024
21
1.48425
0
LINE
8
BLACK
6
CONTINUOUS
10
1.56024
20
1.48425
11
1.56024
21
1.38976
0
LINE
8
BLACK
6
CONTINUOUS
10
1.56024
20
1.38976
11
1.55964
21
1.38675
0
LINE
8
BLACK
6
CONTINUOUS
10
1.55964
20
1.38675
11
1.55793
21
1.3842
0
LINE
8
BLACK
6
CONTINUOUS
10
1.55793
20
1.3842
11
1.55538
21
1.38249
0
LINE
8
BLACK
6
CONTINUOUS
10
1.55538
20
1.38249
11
1.55236
21
1.38189
0
LINE
8
BLACK
6
CONTINUOUS
10
1.55236
20
1.38189
11
1.45787
21
1.38189
0
LINE
8
BLACK
6
CONTINUOUS
10
1.45787
20
1.38189
11
1.45486
21
1.38249
0
LINE
8
BLACK
6
CONTINUOUS
10
1.45486
20
1.38249
11
1.45231
21
1.3842
0
LINE
8
BLACK
6
CONTINUOUS
10
1.45231
20
1.3842
11
1.4506
21
1.38675
0
LINE
8
BLACK
6
CONTINUOUS
10
1.4506
20
1.38675
11
1.45
21
1.38976
0
LINE
8
BLACK
6
CONTINUOUS
10
1.45
20
1.38976
11
1.45
21
1.48425
0
LINE
8
BLACK
6
CONTINUOUS
10
1.45
20
1.48425
11
1.4506
21
1.48727
0
LINE
8
BLACK
6
CONTINUOUS
10
1.4506
20
1.48727
11
1.45231
21
1.48982
0
LINE
8
BLACK
6
CONTINUOUS
10
1.45231
20
1.48982
11
1.45486
21
1.49153
0
LINE
8
BLACK
6
CONTINUOUS
10
1.45486
20
1.49153
11
1.45787
21
1.49213
0
LINE
8
BLACK
6
CONTINUOUS
10
1.45787
20
1.49213
11
1.55236
21
1.49213
0
LINE
8
BLACK
6
CONTINUOUS
10
1.55236
20
1.49213
11
1.55538
21
1.49153
0
LINE
8
BLACK
6
CONTINUOUS
10
0.900069
20
1.49188
11
0.908962
21
1.4903
0
LINE
8
BLACK
6
CONTINUOUS
10
0.908962
20
1.4903
11
0.917476
21
1.48728
0
LINE
8
BLACK
6
CONTINUOUS
10
0.917476
20
1.48728
11
0.925384
21
1.48292
0
LINE
8
BLACK
6
CONTINUOUS
10
0.925384
20
1.48292
11
0.932472
21
1.47732
0
LINE
8
BLACK
6
CONTINUOUS
10
0.932472
20
1.47732
11
0.938551
21
1.47064
0
LINE
8
BLACK
6
CONTINUOUS
10
0.938551
20
1.47064
11
0.943458
21
1.46305
0
LINE
8
BLACK
6
CONTINUOUS
10
0.943458
20
1.46305
11
0.947059
21
1.45477
0
LINE
8
BLACK
6
CONTINUOUS
10
0.947059
20
1.45477
11
0.94926
21
1.44601
0
LINE
8
BLACK
6
CONTINUOUS
10
0.94926
20
1.44601
11
0.95
21
1.43701
0
LINE
8
BLACK
6
CONTINUOUS
10
0.95
20
1.43701
11
0.949934
21
1.43432
0
LINE
8
BLACK
6
CONTINUOUS
10
0.949934
20
1.43432
11
0.948755
21
1.42536
0
LINE
8
BLACK
6
CONTINUOUS
10
0.948755
20
1.42536
11
0.946129
21
1.41672
0
LINE
8
BLACK
6
CONTINUOUS
10
0.946129
20
1.41672
11
0.942127
21
1.40862
0
LINE
8
BLACK
6
CONTINUOUS
10
0.942127
20
1.40862
11
0.936856
21
1.40128
0
LINE
8
BLACK
6
CONTINUOUS
10
0.936856
20
1.40128
11
0.930458
21
1.39491
0
LINE
8
BLACK
6
CONTINUOUS
10
0.930458
20
1.39491
11
0.923105
21
1.38966
0
LINE
8
BLACK
6
CONTINUOUS
10
0.923105
20
1.38966
11
0.914993
21
1.38569
0
LINE
8
BLACK
6
CONTINUOUS
10
0.914993
20
1.38569
11
0.906342
21
1.38309
0
LINE
8
BLACK
6
CONTINUOUS
10
0.906342
20
1.38309
11
0.897382
21
1.38195
0
LINE
8
BLACK
6
CONTINUOUS
10
0.897382
20
1.38195
11
0.888356
21
1.38228
0
LINE
8
BLACK
6
CONTINUOUS
10
0.888356
20
1.38228
11
0.879504
21
1.38408
0
LINE
8
BLACK
6
CONTINUOUS
10
0.879504
20
1.38408
11
0.871066
21
1.3873
0
LINE
8
BLACK
6
CONTINUOUS
10
0.871066
20
1.3873
11
0.863267
21
1.39186
0
LINE
8
BLACK
6
CONTINUOUS
10
0.863267
20
1.39186
11
0.856318
21
1.39763
0
LINE
8
BLACK
6
CONTINUOUS
10
0.856318
20
1.39763
11
0.850404
21
1.40445
0
LINE
8
BLACK
6
CONTINUOUS
10
0.850404
20
1.40445
11
0.845684
21
1.41216
0
LINE
8
BLACK
6
CONTINUOUS
10
0.845684
20
1.41216
11
0.842286
21
1.42053
0
LINE
8
BLACK
6
CONTINUOUS
10
0.842286
20
1.42053
11
0.8403
21
1.42934
0
LINE
8
BLACK
6
CONTINUOUS
10
0.8403
20
1.42934
11
0.83978
21
1.43835
0
LINE
8
BLACK
6
CONTINUOUS
10
0.83978
20
1.43835
11
0.84074
21
1.44734
0
LINE
8
BLACK
6
CONTINUOUS
10
0.84074
20
1.44734
11
0.843154
21
1.45604
0
LINE
8
BLACK
6
CONTINUOUS
10
0.843154
20
1.45604
11
0.846957
21
1.46423
0
LINE
8
BLACK
6
CONTINUOUS
10
0.846957
20
1.46423
11
0.852047
21
1.47169
0
LINE
8
BLACK
6
CONTINUOUS
10
0.852047
20
1.47169
11
0.858288
21
1.47823
0
LINE
8
BLACK
6
CONTINUOUS
10
0.858288
20
1.47823
11
0.865511
21
1.48365
0
LINE
8
BLACK
6
CONTINUOUS
10
0.865511
20
1.48365
11
0.873523
21
1.48782
0
LINE
8
BLACK
6
CONTINUOUS
10
0.873523
20
1.48782
11
0.882108
21
1.49063
0
LINE
8
BLACK
6
CONTINUOUS
10
0.882108
20
1.49063
11
0.891037
21
1.49199
0
LINE
8
BLACK
6
CONTINUOUS
10
0.891037
20
1.49199
11
0.900069
21
1.49188
0
LINE
8
BLACK
6
CONTINUOUS
10
1.80558
20
1.49188
11
1.81447
21
1.4903
0
LINE
8
BLACK
6
CONTINUOUS
10
1.81447
20
1.4903
11
1.82299
21
1.48728
0
LINE
8
BLACK
6
CONTINUOUS
10
1.82299
20
1.48728
11
1.8309
21
1.48292
0
LINE
8
BLACK
6
CONTINUOUS
10
1.8309
20
1.48292
11
1.83798
21
1.47732
0
LINE
8
BLACK
6
CONTINUOUS
10
1.83798
20
1.47732
11
1.84406
21
1.47064
0
LINE
8
BLACK
6
CONTINUOUS
10
1.84406
20
1.47064
11
1.84897
21
1.46305
0
LINE
8
BLACK
6
CONTINUOUS
10
1.84897
20
1.46305
11
1.85257
21
1.45477
0
LINE
8
BLACK
6
CONTINUOUS
10
1.85257
20
1.45477
11
1.85477
21
1.44601
0
LINE
8
BLACK
6
CONTINUOUS
10
1.85477
20
1.44601
11
1.85551
21
1.43701
0
LINE
8
BLACK
6
CONTINUOUS
10
1.85551
20
1.43701
11
1.85545
21
1.43432
0
LINE
8
BLACK
6
CONTINUOUS
10
1.85545
20
1.43432
11
1.85427
21
1.42536
0
LINE
8
BLACK
6
CONTINUOUS
10
1.85427
20
1.42536
11
1.85164
21
1.41672
0
LINE
8
BLACK
6
CONTINUOUS
10
1.85164
20
1.41672
11
1.84764
21
1.40862
0
LINE
8
BLACK
6
CONTINUOUS
10
1.84764
20
1.40862
11
1.84237
21
1.40128
0
LINE
8
BLACK
6
CONTINUOUS
10
1.84237
20
1.40128
11
1.83597
21
1.39491
0
LINE
8
BLACK
6
CONTINUOUS
10
1.83597
20
1.39491
11
1.82862
21
1.38966
0
LINE
8
BLACK
6
CONTINUOUS
10
1.82862
20
1.38966
11
1.82051
21
1.38569
0
LINE
8
BLACK
6
CONTINUOUS
10
1.82051
20
1.38569
11
1.81185
21
1.38309
0
LINE
8
BLACK
6
CONTINUOUS
10
1.81185
20
1.38309
11
1.80289
21
1.38195
0
LINE
8
BLACK
6
CONTINUOUS
10
1.80289
20
1.38195
11
1.79387
21
1.38228
0
LINE
8
BLACK
6
CONTINUOUS
10
1.79387
20
1.38228
11
1.78502
21
1.38408
0
LINE
8
BLACK
6
CONTINUOUS
10
1.78502
20
1.38408
11
1.77658
21
1.3873
0
LINE
8
BLACK
6
CONTINUOUS
10
1.77658
20
1.3873
11
1.76878
21
1.39186
0
LINE
8
BLACK
6
CONTINUOUS
10
1.76878
20
1.39186
11
1.76183
21
1.39763
0
LINE
8
BLACK
6
CONTINUOUS
10
1.76183
20
1.39763
11
1.75592
21
1.40445
0
LINE
8
BLACK
6
CONTINUOUS
10
1.75592
20
1.40445
11
1.7512
21
1.41216
0
LINE
8
BLACK
6
CONTINUOUS
10
1.7512
20
1.41216
11
1.7478
21
1.42053
0
LINE
8
BLACK
6
CONTINUOUS
10
1.7478
20
1.42053
11
1.74581
21
1.42934
0
LINE
8
BLACK
6
CONTINUOUS
10
1.74581
20
1.42934
11
1.74529
21
1.43835
0
LINE
8
BLACK
6
CONTINUOUS
10
1.74529
20
1.43835
11
1.74625
21
1.44734
0
LINE
8
BLACK
6
CONTINUOUS
10
1.74625
20
1.44734
11
1.74867
21
1.45604
0
LINE
8
BLACK
6
CONTINUOUS
10
1.74867
20
1.45604
11
1.75247
21
1.46423
0
LINE
8
BLACK
6
CONTINUOUS
10
1.75247
20
1.46423
11
1.75756
21
1.47169
0
LINE
8
BLACK
6
CONTINUOUS
10
1.75756
20
1.47169
11
1.7638
21
1.47823
0
LINE
8
BLACK
6
CONTINUOUS
10
1.7638
20
1.47823
11
1.77102
21
1.48365
0
LINE
8
BLACK
6
CONTINUOUS
10
1.77102
20
1.48365
11
1.77903
21
1.48782
0
LINE
8
BLACK
6
CONTINUOUS
10
1.77903
20
1.48782
11
1.78762
21
1.49063
0
LINE
8
BLACK
6
CONTINUOUS
10
1.78762
20
1.49063
11
1.79655
21
1.49199
0
LINE
8
BLACK
6
CONTINUOUS
10
1.79655
20
1.49199
11
1.80558
21
1.49188
  0
ENDSEC
  0
EOF
