  0
SECTION
  2
HEADER
  9
$ANGBASE
  50
0.0
  9
$ANGDIR
  70
1
  9
$MEASUREMENT
  70
0
  0
ENDSEC
  0
SECTION
  2
TABLES
  0
TABLE
  2
LTYPE
  70
4
  0
LTYPE
  5
40F
  2
CONTINUOUS
  70
0
  3
Solid line
  72
65
  73
0
  40
0.0
  0
LTYPE
  5
410
  2
DASHDOT
 70
0
  3
Dash Dot ____ _ ____ _
 72
65
 73
4
 40
2.0
 49
1.25
 49
-0.25
 49
0.25
 49
-0.25
  0
LTYPE
  5
411
  2
DASHED
 70
0
  3
Dashed __ __ __ __ __
 72
65
 73
2
 40
0.75
 49
0.5
 49
-0.25
  0
LTYPE
  5
43B
  2
DOTTED
 70
0
  3
Dotted .  .  .  .
 72
65
 73
2
 40
0.2
 49
0.0
 49
-0.2
  0
ENDTAB
  0
TABLE
  2
STYLE
  70
4
  0
STYLE
  2
KICAD
  70
0
  40
0
  41
1
  42
1
  50
0
  71
0
  3
isocp.shx
  0
STYLE
  2
KICADB
  70
0
  40
0
  41
1
  42
1
  50
0
  71
0
  3
isocp.shx
  0
STYLE
  2
KICADI
  70
0
  40
0
  41
1
  42
1
  50
15
  71
0
  3
isocp.shx
  0
STYLE
  2
KICADBI
  70
0
  40
0
  41
1
  42
1
  50
15
  71
0
  3
isocp.shx
  0
ENDTAB
  0
TABLE
  2
LAYER
  70
1
  0
LAYER
  2
BLACK
  70
0
  62
7
  6
CONTINUOUS
  0
ENDTAB
  0
ENDSEC
  0
SECTION
  2
ENTITIES
0
LINE
8
BLACK
6
CONTINUOUS
10
2.09038
20
0.325355
11
2.09171
21
0.325082
0
LINE
8
BLACK
6
CONTINUOUS
10
2.09171
20
0.325082
11
2.09734
21
0.32227
0
LINE
8
BLACK
6
CONTINUOUS
10
2.09734
20
0.32227
11
2.09805
21
0.321639
0
LINE
8
BLACK
6
CONTINUOUS
10
2.09805
20
0.321639
11
2.09887
21
0.321164
0
LINE
8
BLACK
6
CONTINUOUS
10
2.09887
20
0.321164
11
2.10168
21
0.318352
0
LINE
8
BLACK
6
CONTINUOUS
10
2.10168
20
0.318352
11
2.10321
21
0.315705
0
LINE
8
BLACK
6
CONTINUOUS
10
2.10321
20
0.315705
11
2.10321
21
0.312648
0
LINE
8
BLACK
6
CONTINUOUS
10
2.10321
20
0.312648
11
2.10168
21
0.31
0
LINE
8
BLACK
6
CONTINUOUS
10
2.10168
20
0.31
11
2.09904
21
0.308472
0
LINE
8
BLACK
6
CONTINUOUS
10
2.09904
20
0.308472
11
2.09598
21
0.308472
0
LINE
8
BLACK
6
CONTINUOUS
10
2.09598
20
0.308472
11
2.09333
21
0.31
0
LINE
8
BLACK
6
CONTINUOUS
10
2.09333
20
0.31
11
2.0912
21
0.312135
0
LINE
8
BLACK
6
CONTINUOUS
10
2.0912
20
0.312135
11
2.08768
21
0.313895
0
LINE
8
BLACK
6
CONTINUOUS
10
2.08768
20
0.313895
11
2.07641
21
0.313895
0
LINE
8
BLACK
6
CONTINUOUS
10
2.07641
20
0.313895
11
2.07289
21
0.312135
0
LINE
8
BLACK
6
CONTINUOUS
10
2.07289
20
0.312135
11
2.07143
21
0.310678
0
LINE
8
BLACK
6
CONTINUOUS
10
2.07143
20
0.310678
11
2.06967
21
0.307158
0
LINE
8
BLACK
6
CONTINUOUS
10
2.06967
20
0.307158
11
2.06967
21
0.303886
0
LINE
8
BLACK
6
CONTINUOUS
10
2.06967
20
0.303886
11
2.07174
21
0.297681
0
LINE
8
BLACK
6
CONTINUOUS
10
2.07174
20
0.297681
11
2.1045
21
0.264921
0
LINE
8
BLACK
6
CONTINUOUS
10
2.1045
20
0.264921
11
2.10489
21
0.264248
0
LINE
8
BLACK
6
CONTINUOUS
10
2.10489
20
0.264248
11
2.10543
21
0.263698
0
LINE
8
BLACK
6
CONTINUOUS
10
2.10543
20
0.263698
11
2.10564
21
0.262947
0
LINE
8
BLACK
6
CONTINUOUS
10
2.10564
20
0.262947
11
2.10602
21
0.262274
0
LINE
8
BLACK
6
CONTINUOUS
10
2.10602
20
0.262274
11
2.10602
21
0.261496
0
LINE
8
BLACK
6
CONTINUOUS
10
2.10602
20
0.261496
11
2.10623
21
0.260745
0
LINE
8
BLACK
6
CONTINUOUS
10
2.10623
20
0.260745
11
2.10602
21
0.259994
0
LINE
8
BLACK
6
CONTINUOUS
10
2.10602
20
0.259994
11
2.10602
21
0.259217
0
LINE
8
BLACK
6
CONTINUOUS
10
2.10602
20
0.259217
11
2.10564
21
0.258543
0
LINE
8
BLACK
6
CONTINUOUS
10
2.10564
20
0.258543
11
2.10543
21
0.257792
0
LINE
8
BLACK
6
CONTINUOUS
10
2.10543
20
0.257792
11
2.10489
21
0.257243
0
LINE
8
BLACK
6
CONTINUOUS
10
2.10489
20
0.257243
11
2.1045
21
0.256569
0
LINE
8
BLACK
6
CONTINUOUS
10
2.1045
20
0.256569
11
2.10382
21
0.256181
0
LINE
8
BLACK
6
CONTINUOUS
10
2.10382
20
0.256181
11
2.10327
21
0.255631
0
LINE
8
BLACK
6
CONTINUOUS
10
2.10327
20
0.255631
11
2.10252
21
0.25543
0
LINE
8
BLACK
6
CONTINUOUS
10
2.10252
20
0.25543
11
2.10185
21
0.255041
0
LINE
8
BLACK
6
CONTINUOUS
10
2.10185
20
0.255041
11
2.10107
21
0.255041
0
LINE
8
BLACK
6
CONTINUOUS
10
2.10107
20
0.255041
11
2.10032
21
0.25484
0
LINE
8
BLACK
6
CONTINUOUS
10
2.10032
20
0.25484
11
2.06376
21
0.25484
0
LINE
8
BLACK
6
CONTINUOUS
10
2.06376
20
0.25484
11
2.06081
21
0.255631
0
LINE
8
BLACK
6
CONTINUOUS
10
2.06081
20
0.255631
11
2.05865
21
0.257792
0
LINE
8
BLACK
6
CONTINUOUS
10
2.05865
20
0.257792
11
2.05786
21
0.260745
0
LINE
8
BLACK
6
CONTINUOUS
10
2.05786
20
0.260745
11
2.05865
21
0.263698
0
LINE
8
BLACK
6
CONTINUOUS
10
2.05865
20
0.263698
11
2.06081
21
0.26586
0
LINE
8
BLACK
6
CONTINUOUS
10
2.06081
20
0.26586
11
2.06376
21
0.266651
0
LINE
8
BLACK
6
CONTINUOUS
10
2.06376
20
0.266651
11
2.08606
21
0.266651
0
LINE
8
BLACK
6
CONTINUOUS
10
2.08606
20
0.266651
11
2.0624
21
0.290315
0
LINE
8
BLACK
6
CONTINUOUS
10
2.0624
20
0.290315
11
2.06172
21
0.291491
0
LINE
8
BLACK
6
CONTINUOUS
10
2.06172
20
0.291491
11
2.06097
21
0.292624
0
LINE
8
BLACK
6
CONTINUOUS
10
2.06097
20
0.292624
11
2.05816
21
0.30106
0
LINE
8
BLACK
6
CONTINUOUS
10
2.05816
20
0.30106
11
2.0581
21
0.302009
0
LINE
8
BLACK
6
CONTINUOUS
10
2.0581
20
0.302009
11
2.05786
21
0.302927
0
LINE
8
BLACK
6
CONTINUOUS
10
2.05786
20
0.302927
11
2.05786
21
0.308552
0
LINE
8
BLACK
6
CONTINUOUS
10
2.05786
20
0.308552
11
2.05821
21
0.309863
0
LINE
8
BLACK
6
CONTINUOUS
10
2.05821
20
0.309863
11
2.05848
21
0.311193
0
LINE
8
BLACK
6
CONTINUOUS
10
2.05848
20
0.311193
11
2.06129
21
0.316817
0
LINE
8
BLACK
6
CONTINUOUS
10
2.06129
20
0.316817
11
2.06192
21
0.317528
0
LINE
8
BLACK
6
CONTINUOUS
10
2.06192
20
0.317528
11
2.0624
21
0.318352
0
LINE
8
BLACK
6
CONTINUOUS
10
2.0624
20
0.318352
11
2.06521
21
0.321164
0
LINE
8
BLACK
6
CONTINUOUS
10
2.06521
20
0.321164
11
2.06603
21
0.321639
0
LINE
8
BLACK
6
CONTINUOUS
10
2.06603
20
0.321639
11
2.06675
21
0.32227
0
LINE
8
BLACK
6
CONTINUOUS
10
2.06675
20
0.32227
11
2.07237
21
0.325082
0
LINE
8
BLACK
6
CONTINUOUS
10
2.07237
20
0.325082
11
2.0737
21
0.325355
0
LINE
8
BLACK
6
CONTINUOUS
10
2.0737
20
0.325355
11
2.07501
21
0.325706
0
LINE
8
BLACK
6
CONTINUOUS
10
2.07501
20
0.325706
11
2.08907
21
0.325706
0
LINE
8
BLACK
6
CONTINUOUS
10
2.08907
20
0.325706
11
2.09038
21
0.325355
0
LINE
8
BLACK
6
CONTINUOUS
10
2.25911
20
0.325355
11
2.26044
21
0.325082
0
LINE
8
BLACK
6
CONTINUOUS
10
2.26044
20
0.325082
11
2.26607
21
0.32227
0
LINE
8
BLACK
6
CONTINUOUS
10
2.26607
20
0.32227
11
2.26678
21
0.321639
0
LINE
8
BLACK
6
CONTINUOUS
10
2.26678
20
0.321639
11
2.2676
21
0.321164
0
LINE
8
BLACK
6
CONTINUOUS
10
2.2676
20
0.321164
11
2.27041
21
0.318352
0
LINE
8
BLACK
6
CONTINUOUS
10
2.27041
20
0.318352
11
2.27194
21
0.315705
0
LINE
8
BLACK
6
CONTINUOUS
10
2.27194
20
0.315705
11
2.27194
21
0.312648
0
LINE
8
BLACK
6
CONTINUOUS
10
2.27194
20
0.312648
11
2.27041
21
0.31
0
LINE
8
BLACK
6
CONTINUOUS
10
2.27041
20
0.31
11
2.26777
21
0.308472
0
LINE
8
BLACK
6
CONTINUOUS
10
2.26777
20
0.308472
11
2.26471
21
0.308472
0
LINE
8
BLACK
6
CONTINUOUS
10
2.26471
20
0.308472
11
2.26206
21
0.31
0
LINE
8
BLACK
6
CONTINUOUS
10
2.26206
20
0.31
11
2.25993
21
0.312135
0
LINE
8
BLACK
6
CONTINUOUS
10
2.25993
20
0.312135
11
2.25641
21
0.313895
0
LINE
8
BLACK
6
CONTINUOUS
10
2.25641
20
0.313895
11
2.24513
21
0.313895
0
LINE
8
BLACK
6
CONTINUOUS
10
2.24513
20
0.313895
11
2.24161
21
0.312135
0
LINE
8
BLACK
6
CONTINUOUS
10
2.24161
20
0.312135
11
2.24016
21
0.310678
0
LINE
8
BLACK
6
CONTINUOUS
10
2.24016
20
0.310678
11
2.2384
21
0.307158
0
LINE
8
BLACK
6
CONTINUOUS
10
2.2384
20
0.307158
11
2.2384
21
0.303886
0
LINE
8
BLACK
6
CONTINUOUS
10
2.2384
20
0.303886
11
2.24047
21
0.297681
0
LINE
8
BLACK
6
CONTINUOUS
10
2.24047
20
0.297681
11
2.27323
21
0.264921
0
LINE
8
BLACK
6
CONTINUOUS
10
2.27323
20
0.264921
11
2.27361
21
0.264248
0
LINE
8
BLACK
6
CONTINUOUS
10
2.27361
20
0.264248
11
2.27416
21
0.263698
0
LINE
8
BLACK
6
CONTINUOUS
10
2.27416
20
0.263698
11
2.27437
21
0.262947
0
LINE
8
BLACK
6
CONTINUOUS
10
2.27437
20
0.262947
11
2.27475
21
0.262274
0
LINE
8
BLACK
6
CONTINUOUS
10
2.27475
20
0.262274
11
2.27475
21
0.261496
0
LINE
8
BLACK
6
CONTINUOUS
10
2.27475
20
0.261496
11
2.27495
21
0.260745
0
LINE
8
BLACK
6
CONTINUOUS
10
2.27495
20
0.260745
11
2.27475
21
0.259994
0
LINE
8
BLACK
6
CONTINUOUS
10
2.27475
20
0.259994
11
2.27475
21
0.259217
0
LINE
8
BLACK
6
CONTINUOUS
10
2.27475
20
0.259217
11
2.27437
21
0.258543
0
LINE
8
BLACK
6
CONTINUOUS
10
2.27437
20
0.258543
11
2.27416
21
0.257792
0
LINE
8
BLACK
6
CONTINUOUS
10
2.27416
20
0.257792
11
2.27361
21
0.257243
0
LINE
8
BLACK
6
CONTINUOUS
10
2.27361
20
0.257243
11
2.27323
21
0.256569
0
LINE
8
BLACK
6
CONTINUOUS
10
2.27323
20
0.256569
11
2.27255
21
0.256181
0
LINE
8
BLACK
6
CONTINUOUS
10
2.27255
20
0.256181
11
2.272
21
0.255631
0
LINE
8
BLACK
6
CONTINUOUS
10
2.272
20
0.255631
11
2.27125
21
0.25543
0
LINE
8
BLACK
6
CONTINUOUS
10
2.27125
20
0.25543
11
2.27058
21
0.255041
0
LINE
8
BLACK
6
CONTINUOUS
10
2.27058
20
0.255041
11
2.2698
21
0.255041
0
LINE
8
BLACK
6
CONTINUOUS
10
2.2698
20
0.255041
11
2.26905
21
0.25484
0
LINE
8
BLACK
6
CONTINUOUS
10
2.26905
20
0.25484
11
2.23249
21
0.25484
0
LINE
8
BLACK
6
CONTINUOUS
10
2.23249
20
0.25484
11
2.22954
21
0.255631
0
LINE
8
BLACK
6
CONTINUOUS
10
2.22954
20
0.255631
11
2.22738
21
0.257792
0
LINE
8
BLACK
6
CONTINUOUS
10
2.22738
20
0.257792
11
2.22659
21
0.260745
0
LINE
8
BLACK
6
CONTINUOUS
10
2.22659
20
0.260745
11
2.22738
21
0.263698
0
LINE
8
BLACK
6
CONTINUOUS
10
2.22738
20
0.263698
11
2.22954
21
0.26586
0
LINE
8
BLACK
6
CONTINUOUS
10
2.22954
20
0.26586
11
2.23249
21
0.266651
0
LINE
8
BLACK
6
CONTINUOUS
10
2.23249
20
0.266651
11
2.25479
21
0.266651
0
LINE
8
BLACK
6
CONTINUOUS
10
2.25479
20
0.266651
11
2.23113
21
0.290315
0
LINE
8
BLACK
6
CONTINUOUS
10
2.23113
20
0.290315
11
2.23045
21
0.291491
0
LINE
8
BLACK
6
CONTINUOUS
10
2.23045
20
0.291491
11
2.2297
21
0.292624
0
LINE
8
BLACK
6
CONTINUOUS
10
2.2297
20
0.292624
11
2.22689
21
0.30106
0
LINE
8
BLACK
6
CONTINUOUS
10
2.22689
20
0.30106
11
2.22683
21
0.302009
0
LINE
8
BLACK
6
CONTINUOUS
10
2.22683
20
0.302009
11
2.22659
21
0.302927
0
LINE
8
BLACK
6
CONTINUOUS
10
2.22659
20
0.302927
11
2.22659
21
0.308552
0
LINE
8
BLACK
6
CONTINUOUS
10
2.22659
20
0.308552
11
2.22694
21
0.309863
0
LINE
8
BLACK
6
CONTINUOUS
10
2.22694
20
0.309863
11
2.22721
21
0.311193
0
LINE
8
BLACK
6
CONTINUOUS
10
2.22721
20
0.311193
11
2.23002
21
0.316817
0
LINE
8
BLACK
6
CONTINUOUS
10
2.23002
20
0.316817
11
2.23065
21
0.317528
0
LINE
8
BLACK
6
CONTINUOUS
10
2.23065
20
0.317528
11
2.23113
21
0.318352
0
LINE
8
BLACK
6
CONTINUOUS
10
2.23113
20
0.318352
11
2.23394
21
0.321164
0
LINE
8
BLACK
6
CONTINUOUS
10
2.23394
20
0.321164
11
2.23476
21
0.321639
0
LINE
8
BLACK
6
CONTINUOUS
10
2.23476
20
0.321639
11
2.23547
21
0.32227
0
LINE
8
BLACK
6
CONTINUOUS
10
2.23547
20
0.32227
11
2.2411
21
0.325082
0
LINE
8
BLACK
6
CONTINUOUS
10
2.2411
20
0.325082
11
2.24243
21
0.325355
0
LINE
8
BLACK
6
CONTINUOUS
10
2.24243
20
0.325355
11
2.24374
21
0.325706
0
LINE
8
BLACK
6
CONTINUOUS
10
2.24374
20
0.325706
11
2.2578
21
0.325706
0
LINE
8
BLACK
6
CONTINUOUS
10
2.2578
20
0.325706
11
2.25911
21
0.325355
0
LINE
8
BLACK
6
CONTINUOUS
10
2.19724
20
0.325355
11
2.19857
21
0.325082
0
LINE
8
BLACK
6
CONTINUOUS
10
2.19857
20
0.325082
11
2.2042
21
0.32227
0
LINE
8
BLACK
6
CONTINUOUS
10
2.2042
20
0.32227
11
2.20491
21
0.321639
0
LINE
8
BLACK
6
CONTINUOUS
10
2.20491
20
0.321639
11
2.20573
21
0.321164
0
LINE
8
BLACK
6
CONTINUOUS
10
2.20573
20
0.321164
11
2.20855
21
0.318352
0
LINE
8
BLACK
6
CONTINUOUS
10
2.20855
20
0.318352
11
2.20902
21
0.317529
0
LINE
8
BLACK
6
CONTINUOUS
10
2.20902
20
0.317529
11
2.20965
21
0.316817
0
LINE
8
BLACK
6
CONTINUOUS
10
2.20965
20
0.316817
11
2.21246
21
0.311193
0
LINE
8
BLACK
6
CONTINUOUS
10
2.21246
20
0.311193
11
2.21259
21
0.310554
0
LINE
8
BLACK
6
CONTINUOUS
10
2.21259
20
0.310554
11
2.21291
21
0.309984
0
LINE
8
BLACK
6
CONTINUOUS
10
2.21291
20
0.309984
11
2.21572
21
0.298735
0
LINE
8
BLACK
6
CONTINUOUS
10
2.21572
20
0.298735
11
2.21571
21
0.298007
0
LINE
8
BLACK
6
CONTINUOUS
10
2.21571
20
0.298007
11
2.2159
21
0.297303
0
LINE
8
BLACK
6
CONTINUOUS
10
2.2159
20
0.297303
11
2.2159
21
0.283242
0
LINE
8
BLACK
6
CONTINUOUS
10
2.2159
20
0.283242
11
2.21571
21
0.282539
0
LINE
8
BLACK
6
CONTINUOUS
10
2.21571
20
0.282539
11
2.21572
21
0.28181
0
LINE
8
BLACK
6
CONTINUOUS
10
2.21572
20
0.28181
11
2.21291
21
0.270562
0
LINE
8
BLACK
6
CONTINUOUS
10
2.21291
20
0.270562
11
2.21259
21
0.269992
0
LINE
8
BLACK
6
CONTINUOUS
10
2.21259
20
0.269992
11
2.21246
21
0.269353
0
LINE
8
BLACK
6
CONTINUOUS
10
2.21246
20
0.269353
11
2.20965
21
0.263729
0
LINE
8
BLACK
6
CONTINUOUS
10
2.20965
20
0.263729
11
2.20902
21
0.263017
0
LINE
8
BLACK
6
CONTINUOUS
10
2.20902
20
0.263017
11
2.20855
21
0.262194
0
LINE
8
BLACK
6
CONTINUOUS
10
2.20855
20
0.262194
11
2.20573
21
0.259382
0
LINE
8
BLACK
6
CONTINUOUS
10
2.20573
20
0.259382
11
2.20491
21
0.258906
0
LINE
8
BLACK
6
CONTINUOUS
10
2.20491
20
0.258906
11
2.2042
21
0.258275
0
LINE
8
BLACK
6
CONTINUOUS
10
2.2042
20
0.258275
11
2.19857
21
0.255463
0
LINE
8
BLACK
6
CONTINUOUS
10
2.19857
20
0.255463
11
2.19724
21
0.255191
0
LINE
8
BLACK
6
CONTINUOUS
10
2.19724
20
0.255191
11
2.19593
21
0.25484
0
LINE
8
BLACK
6
CONTINUOUS
10
2.19593
20
0.25484
11
2.19031
21
0.25484
0
LINE
8
BLACK
6
CONTINUOUS
10
2.19031
20
0.25484
11
2.189
21
0.255191
0
LINE
8
BLACK
6
CONTINUOUS
10
2.189
20
0.255191
11
2.18767
21
0.255463
0
LINE
8
BLACK
6
CONTINUOUS
10
2.18767
20
0.255463
11
2.18204
21
0.258275
0
LINE
8
BLACK
6
CONTINUOUS
10
2.18204
20
0.258275
11
2.18133
21
0.258906
0
LINE
8
BLACK
6
CONTINUOUS
10
2.18133
20
0.258906
11
2.18051
21
0.259382
0
LINE
8
BLACK
6
CONTINUOUS
10
2.18051
20
0.259382
11
2.1777
21
0.262194
0
LINE
8
BLACK
6
CONTINUOUS
10
2.1777
20
0.262194
11
2.17722
21
0.263017
0
LINE
8
BLACK
6
CONTINUOUS
10
2.17722
20
0.263017
11
2.17659
21
0.263729
0
LINE
8
BLACK
6
CONTINUOUS
10
2.17659
20
0.263729
11
2.17378
21
0.269353
0
LINE
8
BLACK
6
CONTINUOUS
10
2.17378
20
0.269353
11
2.17365
21
0.269992
0
LINE
8
BLACK
6
CONTINUOUS
10
2.17365
20
0.269992
11
2.17333
21
0.270562
0
LINE
8
BLACK
6
CONTINUOUS
10
2.17333
20
0.270562
11
2.17052
21
0.28181
0
LINE
8
BLACK
6
CONTINUOUS
10
2.17052
20
0.28181
11
2.17053
21
0.282539
0
LINE
8
BLACK
6
CONTINUOUS
10
2.17053
20
0.282539
11
2.17034
21
0.283242
0
LINE
8
BLACK
6
CONTINUOUS
10
2.17034
20
0.283242
11
2.17034
21
0.297303
0
LINE
8
BLACK
6
CONTINUOUS
10
2.17034
20
0.297303
11
2.17053
21
0.298007
0
LINE
8
BLACK
6
CONTINUOUS
10
2.17053
20
0.298007
11
2.17052
21
0.298735
0
LINE
8
BLACK
6
CONTINUOUS
10
2.17052
20
0.298735
11
2.17333
21
0.309984
0
LINE
8
BLACK
6
CONTINUOUS
10
2.17333
20
0.309984
11
2.17365
21
0.310554
0
LINE
8
BLACK
6
CONTINUOUS
10
2.17365
20
0.310554
11
2.17378
21
0.311193
0
LINE
8
BLACK
6
CONTINUOUS
10
2.17378
20
0.311193
11
2.17659
21
0.316817
0
LINE
8
BLACK
6
CONTINUOUS
10
2.17659
20
0.316817
11
2.17722
21
0.317528
0
LINE
8
BLACK
6
CONTINUOUS
10
2.17722
20
0.317528
11
2.1777
21
0.318352
0
LINE
8
BLACK
6
CONTINUOUS
10
2.1777
20
0.318352
11
2.18051
21
0.321164
0
LINE
8
BLACK
6
CONTINUOUS
10
2.18051
20
0.321164
11
2.18133
21
0.321639
0
LINE
8
BLACK
6
CONTINUOUS
10
2.18133
20
0.321639
11
2.18204
21
0.32227
0
LINE
8
BLACK
6
CONTINUOUS
10
2.18204
20
0.32227
11
2.18767
21
0.325082
0
LINE
8
BLACK
6
CONTINUOUS
10
2.18767
20
0.325082
11
2.189
21
0.325355
0
LINE
8
BLACK
6
CONTINUOUS
10
2.189
20
0.325355
11
2.19031
21
0.325706
0
LINE
8
BLACK
6
CONTINUOUS
10
2.19031
20
0.325706
11
2.19593
21
0.325706
0
LINE
8
BLACK
6
CONTINUOUS
10
2.19593
20
0.325706
11
2.19724
21
0.325355
0
LINE
8
BLACK
6
CONTINUOUS
10
2.1917
20
0.313895
11
2.18818
21
0.312135
0
LINE
8
BLACK
6
CONTINUOUS
10
2.18818
20
0.312135
11
2.18673
21
0.310678
0
LINE
8
BLACK
6
CONTINUOUS
10
2.18673
20
0.310678
11
2.18463
21
0.306491
0
LINE
8
BLACK
6
CONTINUOUS
10
2.18463
20
0.306491
11
2.18215
21
0.296576
0
LINE
8
BLACK
6
CONTINUOUS
10
2.18215
20
0.296576
11
2.18215
21
0.283969
0
LINE
8
BLACK
6
CONTINUOUS
10
2.18215
20
0.283969
11
2.18463
21
0.274055
0
LINE
8
BLACK
6
CONTINUOUS
10
2.18463
20
0.274055
11
2.18673
21
0.269868
0
LINE
8
BLACK
6
CONTINUOUS
10
2.18673
20
0.269868
11
2.18818
21
0.268411
0
LINE
8
BLACK
6
CONTINUOUS
10
2.18818
20
0.268411
11
2.1917
21
0.266651
0
LINE
8
BLACK
6
CONTINUOUS
10
2.1917
20
0.266651
11
2.19454
21
0.266651
0
LINE
8
BLACK
6
CONTINUOUS
10
2.19454
20
0.266651
11
2.19806
21
0.268411
0
LINE
8
BLACK
6
CONTINUOUS
10
2.19806
20
0.268411
11
2.19952
21
0.269868
0
LINE
8
BLACK
6
CONTINUOUS
10
2.19952
20
0.269868
11
2.20161
21
0.274055
0
LINE
8
BLACK
6
CONTINUOUS
10
2.20161
20
0.274055
11
2.20409
21
0.283969
0
LINE
8
BLACK
6
CONTINUOUS
10
2.20409
20
0.283969
11
2.20409
21
0.296576
0
LINE
8
BLACK
6
CONTINUOUS
10
2.20409
20
0.296576
11
2.20161
21
0.306491
0
LINE
8
BLACK
6
CONTINUOUS
10
2.20161
20
0.306491
11
2.19952
21
0.310678
0
LINE
8
BLACK
6
CONTINUOUS
10
2.19952
20
0.310678
11
2.19806
21
0.312135
0
LINE
8
BLACK
6
CONTINUOUS
10
2.19806
20
0.312135
11
2.19454
21
0.313895
0
LINE
8
BLACK
6
CONTINUOUS
10
2.19454
20
0.313895
11
2.1917
21
0.313895
0
LINE
8
BLACK
6
CONTINUOUS
10
2.14663
20
0.325355
11
2.14796
21
0.325082
0
LINE
8
BLACK
6
CONTINUOUS
10
2.14796
20
0.325082
11
2.15358
21
0.32227
0
LINE
8
BLACK
6
CONTINUOUS
10
2.15358
20
0.32227
11
2.15429
21
0.321639
0
LINE
8
BLACK
6
CONTINUOUS
10
2.15429
20
0.321639
11
2.15512
21
0.321164
0
LINE
8
BLACK
6
CONTINUOUS
10
2.15512
20
0.321164
11
2.15793
21
0.318352
0
LINE
8
BLACK
6
CONTINUOUS
10
2.15793
20
0.318352
11
2.15946
21
0.315705
0
LINE
8
BLACK
6
CONTINUOUS
10
2.15946
20
0.315705
11
2.15946
21
0.312648
0
LINE
8
BLACK
6
CONTINUOUS
10
2.15946
20
0.312648
11
2.15793
21
0.31
0
LINE
8
BLACK
6
CONTINUOUS
10
2.15793
20
0.31
11
2.15528
21
0.308472
0
LINE
8
BLACK
6
CONTINUOUS
10
2.15528
20
0.308472
11
2.15222
21
0.308472
0
LINE
8
BLACK
6
CONTINUOUS
10
2.15222
20
0.308472
11
2.14958
21
0.31
0
LINE
8
BLACK
6
CONTINUOUS
10
2.14958
20
0.31
11
2.14744
21
0.312135
0
LINE
8
BLACK
6
CONTINUOUS
10
2.14744
20
0.312135
11
2.14392
21
0.313895
0
LINE
8
BLACK
6
CONTINUOUS
10
2.14392
20
0.313895
11
2.13265
21
0.313895
0
LINE
8
BLACK
6
CONTINUOUS
10
2.13265
20
0.313895
11
2.12913
21
0.312135
0
LINE
8
BLACK
6
CONTINUOUS
10
2.12913
20
0.312135
11
2.12767
21
0.310678
0
LINE
8
BLACK
6
CONTINUOUS
10
2.12767
20
0.310678
11
2.12591
21
0.307158
0
LINE
8
BLACK
6
CONTINUOUS
10
2.12591
20
0.307158
11
2.12591
21
0.303886
0
LINE
8
BLACK
6
CONTINUOUS
10
2.12591
20
0.303886
11
2.12798
21
0.297681
0
LINE
8
BLACK
6
CONTINUOUS
10
2.12798
20
0.297681
11
2.16074
21
0.264921
0
LINE
8
BLACK
6
CONTINUOUS
10
2.16074
20
0.264921
11
2.16113
21
0.264248
0
LINE
8
BLACK
6
CONTINUOUS
10
2.16113
20
0.264248
11
2.16168
21
0.263698
0
LINE
8
BLACK
6
CONTINUOUS
10
2.16168
20
0.263698
11
2.16188
21
0.262947
0
LINE
8
BLACK
6
CONTINUOUS
10
2.16188
20
0.262947
11
2.16227
21
0.262274
0
LINE
8
BLACK
6
CONTINUOUS
10
2.16227
20
0.262274
11
2.16227
21
0.261496
0
LINE
8
BLACK
6
CONTINUOUS
10
2.16227
20
0.261496
11
2.16247
21
0.260745
0
LINE
8
BLACK
6
CONTINUOUS
10
2.16247
20
0.260745
11
2.16227
21
0.259994
0
LINE
8
BLACK
6
CONTINUOUS
10
2.16227
20
0.259994
11
2.16227
21
0.259217
0
LINE
8
BLACK
6
CONTINUOUS
10
2.16227
20
0.259217
11
2.16188
21
0.258543
0
LINE
8
BLACK
6
CONTINUOUS
10
2.16188
20
0.258543
11
2.16168
21
0.257792
0
LINE
8
BLACK
6
CONTINUOUS
10
2.16168
20
0.257792
11
2.16113
21
0.257243
0
LINE
8
BLACK
6
CONTINUOUS
10
2.16113
20
0.257243
11
2.16074
21
0.256569
0
LINE
8
BLACK
6
CONTINUOUS
10
2.16074
20
0.256569
11
2.16007
21
0.256181
0
LINE
8
BLACK
6
CONTINUOUS
10
2.16007
20
0.256181
11
2.15952
21
0.255631
0
LINE
8
BLACK
6
CONTINUOUS
10
2.15952
20
0.255631
11
2.15877
21
0.25543
0
LINE
8
BLACK
6
CONTINUOUS
10
2.15877
20
0.25543
11
2.15809
21
0.255041
0
LINE
8
BLACK
6
CONTINUOUS
10
2.15809
20
0.255041
11
2.15731
21
0.255041
0
LINE
8
BLACK
6
CONTINUOUS
10
2.15731
20
0.255041
11
2.15656
21
0.25484
0
LINE
8
BLACK
6
CONTINUOUS
10
2.15656
20
0.25484
11
2.12001
21
0.25484
0
LINE
8
BLACK
6
CONTINUOUS
10
2.12001
20
0.25484
11
2.11705
21
0.255631
0
LINE
8
BLACK
6
CONTINUOUS
10
2.11705
20
0.255631
11
2.11489
21
0.257792
0
LINE
8
BLACK
6
CONTINUOUS
10
2.11489
20
0.257792
11
2.1141
21
0.260745
0
LINE
8
BLACK
6
CONTINUOUS
10
2.1141
20
0.260745
11
2.11489
21
0.263698
0
LINE
8
BLACK
6
CONTINUOUS
10
2.11489
20
0.263698
11
2.11705
21
0.26586
0
LINE
8
BLACK
6
CONTINUOUS
10
2.11705
20
0.26586
11
2.12001
21
0.266651
0
LINE
8
BLACK
6
CONTINUOUS
10
2.12001
20
0.266651
11
2.14231
21
0.266651
0
LINE
8
BLACK
6
CONTINUOUS
10
2.14231
20
0.266651
11
2.11864
21
0.290315
0
LINE
8
BLACK
6
CONTINUOUS
10
2.11864
20
0.290315
11
2.11796
21
0.291491
0
LINE
8
BLACK
6
CONTINUOUS
10
2.11796
20
0.291491
11
2.11722
21
0.292624
0
LINE
8
BLACK
6
CONTINUOUS
10
2.11722
20
0.292624
11
2.1144
21
0.30106
0
LINE
8
BLACK
6
CONTINUOUS
10
2.1144
20
0.30106
11
2.11435
21
0.302009
0
LINE
8
BLACK
6
CONTINUOUS
10
2.11435
20
0.302009
11
2.1141
21
0.302927
0
LINE
8
BLACK
6
CONTINUOUS
10
2.1141
20
0.302927
11
2.1141
21
0.308552
0
LINE
8
BLACK
6
CONTINUOUS
10
2.1141
20
0.308552
11
2.11445
21
0.309863
0
LINE
8
BLACK
6
CONTINUOUS
10
2.11445
20
0.309863
11
2.11472
21
0.311193
0
LINE
8
BLACK
6
CONTINUOUS
10
2.11472
20
0.311193
11
2.11754
21
0.316817
0
LINE
8
BLACK
6
CONTINUOUS
10
2.11754
20
0.316817
11
2.11817
21
0.317528
0
LINE
8
BLACK
6
CONTINUOUS
10
2.11817
20
0.317528
11
2.11864
21
0.318352
0
LINE
8
BLACK
6
CONTINUOUS
10
2.11864
20
0.318352
11
2.12145
21
0.321164
0
LINE
8
BLACK
6
CONTINUOUS
10
2.12145
20
0.321164
11
2.12228
21
0.321639
0
LINE
8
BLACK
6
CONTINUOUS
10
2.12228
20
0.321639
11
2.12299
21
0.32227
0
LINE
8
BLACK
6
CONTINUOUS
10
2.12299
20
0.32227
11
2.12861
21
0.325082
0
LINE
8
BLACK
6
CONTINUOUS
10
2.12861
20
0.325082
11
2.12994
21
0.325355
0
LINE
8
BLACK
6
CONTINUOUS
10
2.12994
20
0.325355
11
2.13125
21
0.325706
0
LINE
8
BLACK
6
CONTINUOUS
10
2.13125
20
0.325706
11
2.14531
21
0.325706
0
LINE
8
BLACK
6
CONTINUOUS
10
2.14531
20
0.325706
11
2.14663
21
0.325355
0
LINE
8
BLACK
6
CONTINUOUS
10
2.33637
20
0.420453
11
2.33763
21
0.420231
0
LINE
8
BLACK
6
CONTINUOUS
10
2.33763
20
0.420231
11
2.33783
21
0.420061
0
LINE
8
BLACK
6
CONTINUOUS
10
2.33783
20
0.420061
11
2.33809
21
0.419993
0
LINE
8
BLACK
6
CONTINUOUS
10
2.33809
20
0.419993
11
2.33899
21
0.419088
0
LINE
8
BLACK
6
CONTINUOUS
10
2.33899
20
0.419088
11
2.33997
21
0.418265
0
LINE
8
BLACK
6
CONTINUOUS
10
2.33997
20
0.418265
11
2.34006
21
0.418018
0
LINE
8
BLACK
6
CONTINUOUS
10
2.34006
20
0.418018
11
2.34025
21
0.417832
0
LINE
8
BLACK
6
CONTINUOUS
10
2.34025
20
0.417832
11
2.34058
21
0.416595
0
LINE
8
BLACK
6
CONTINUOUS
10
2.34058
20
0.416595
11
2.34102
21
0.415392
0
LINE
8
BLACK
6
CONTINUOUS
10
2.34102
20
0.415392
11
2.34097
21
0.415133
0
LINE
8
BLACK
6
CONTINUOUS
10
2.34097
20
0.415133
11
2.34104
21
0.414879
0
LINE
8
BLACK
6
CONTINUOUS
10
2.34104
20
0.414879
11
2.34104
21
0.355824
0
LINE
8
BLACK
6
CONTINUOUS
10
2.34104
20
0.355824
11
2.34025
21
0.352871
0
LINE
8
BLACK
6
CONTINUOUS
10
2.34025
20
0.352871
11
2.33809
21
0.35071
0
LINE
8
BLACK
6
CONTINUOUS
10
2.33809
20
0.35071
11
2.33513
21
0.349918
0
LINE
8
BLACK
6
CONTINUOUS
10
2.33513
20
0.349918
11
2.33218
21
0.35071
0
LINE
8
BLACK
6
CONTINUOUS
10
2.33218
20
0.35071
11
2.33002
21
0.352871
0
LINE
8
BLACK
6
CONTINUOUS
10
2.33002
20
0.352871
11
2.32923
21
0.355824
0
LINE
8
BLACK
6
CONTINUOUS
10
2.32923
20
0.355824
11
2.32923
21
0.38826
0
LINE
8
BLACK
6
CONTINUOUS
10
2.32923
20
0.38826
11
2.3208
21
0.370199
0
LINE
8
BLACK
6
CONTINUOUS
10
2.3208
20
0.370199
11
2.32047
21
0.369801
0
LINE
8
BLACK
6
CONTINUOUS
10
2.32047
20
0.369801
11
2.32029
21
0.369311
0
LINE
8
BLACK
6
CONTINUOUS
10
2.32029
20
0.369311
11
2.3195
21
0.368648
0
LINE
8
BLACK
6
CONTINUOUS
10
2.3195
20
0.368648
11
2.31884
21
0.367858
0
LINE
8
BLACK
6
CONTINUOUS
10
2.31884
20
0.367858
11
2.31835
21
0.36768
0
LINE
8
BLACK
6
CONTINUOUS
10
2.31835
20
0.36768
11
2.31795
21
0.367345
0
LINE
8
BLACK
6
CONTINUOUS
10
2.31795
20
0.367345
11
2.31693
21
0.367166
0
LINE
8
BLACK
6
CONTINUOUS
10
2.31693
20
0.367166
11
2.31596
21
0.366814
0
LINE
8
BLACK
6
CONTINUOUS
10
2.31596
20
0.366814
11
2.31545
21
0.366904
0
LINE
8
BLACK
6
CONTINUOUS
10
2.31545
20
0.366904
11
2.31494
21
0.366814
0
LINE
8
BLACK
6
CONTINUOUS
10
2.31494
20
0.366814
11
2.31397
21
0.367166
0
LINE
8
BLACK
6
CONTINUOUS
10
2.31397
20
0.367166
11
2.31295
21
0.367345
0
LINE
8
BLACK
6
CONTINUOUS
10
2.31295
20
0.367345
11
2.31255
21
0.36768
0
LINE
8
BLACK
6
CONTINUOUS
10
2.31255
20
0.36768
11
2.31206
21
0.367858
0
LINE
8
BLACK
6
CONTINUOUS
10
2.31206
20
0.367858
11
2.3114
21
0.368648
0
LINE
8
BLACK
6
CONTINUOUS
10
2.3114
20
0.368648
11
2.31061
21
0.369311
0
LINE
8
BLACK
6
CONTINUOUS
10
2.31061
20
0.369311
11
2.31043
21
0.369801
0
LINE
8
BLACK
6
CONTINUOUS
10
2.31043
20
0.369801
11
2.3101
21
0.370199
0
LINE
8
BLACK
6
CONTINUOUS
10
2.3101
20
0.370199
11
2.30167
21
0.38826
0
LINE
8
BLACK
6
CONTINUOUS
10
2.30167
20
0.38826
11
2.30167
21
0.355824
0
LINE
8
BLACK
6
CONTINUOUS
10
2.30167
20
0.355824
11
2.30088
21
0.352871
0
LINE
8
BLACK
6
CONTINUOUS
10
2.30088
20
0.352871
11
2.29872
21
0.35071
0
LINE
8
BLACK
6
CONTINUOUS
10
2.29872
20
0.35071
11
2.29576
21
0.349918
0
LINE
8
BLACK
6
CONTINUOUS
10
2.29576
20
0.349918
11
2.29281
21
0.35071
0
LINE
8
BLACK
6
CONTINUOUS
10
2.29281
20
0.35071
11
2.29065
21
0.352871
0
LINE
8
BLACK
6
CONTINUOUS
10
2.29065
20
0.352871
11
2.28986
21
0.355824
0
LINE
8
BLACK
6
CONTINUOUS
10
2.28986
20
0.355824
11
2.28986
21
0.414879
0
LINE
8
BLACK
6
CONTINUOUS
10
2.28986
20
0.414879
11
2.28993
21
0.415133
0
LINE
8
BLACK
6
CONTINUOUS
10
2.28993
20
0.415133
11
2.28988
21
0.415392
0
LINE
8
BLACK
6
CONTINUOUS
10
2.28988
20
0.415392
11
2.29032
21
0.416595
0
LINE
8
BLACK
6
CONTINUOUS
10
2.29032
20
0.416595
11
2.29065
21
0.417832
0
LINE
8
BLACK
6
CONTINUOUS
10
2.29065
20
0.417832
11
2.29084
21
0.418018
0
LINE
8
BLACK
6
CONTINUOUS
10
2.29084
20
0.418018
11
2.29093
21
0.418265
0
LINE
8
BLACK
6
CONTINUOUS
10
2.29093
20
0.418265
11
2.29191
21
0.419088
0
LINE
8
BLACK
6
CONTINUOUS
10
2.29191
20
0.419088
11
2.29281
21
0.419993
0
LINE
8
BLACK
6
CONTINUOUS
10
2.29281
20
0.419993
11
2.29307
21
0.420061
0
LINE
8
BLACK
6
CONTINUOUS
10
2.29307
20
0.420061
11
2.29327
21
0.420231
0
LINE
8
BLACK
6
CONTINUOUS
10
2.29327
20
0.420231
11
2.29453
21
0.420453
0
LINE
8
BLACK
6
CONTINUOUS
10
2.29453
20
0.420453
11
2.29576
21
0.420785
0
LINE
8
BLACK
6
CONTINUOUS
10
2.29576
20
0.420785
11
2.29602
21
0.420717
0
LINE
8
BLACK
6
CONTINUOUS
10
2.29602
20
0.420717
11
2.29628
21
0.420762
0
LINE
8
BLACK
6
CONTINUOUS
10
2.29628
20
0.420762
11
2.29748
21
0.420325
0
LINE
8
BLACK
6
CONTINUOUS
10
2.29748
20
0.420325
11
2.29872
21
0.419993
0
LINE
8
BLACK
6
CONTINUOUS
10
2.29872
20
0.419993
11
2.2989
21
0.419807
0
LINE
8
BLACK
6
CONTINUOUS
10
2.2989
20
0.419807
11
2.29915
21
0.419718
0
LINE
8
BLACK
6
CONTINUOUS
10
2.29915
20
0.419718
11
2.29997
21
0.418737
0
LINE
8
BLACK
6
CONTINUOUS
10
2.29997
20
0.418737
11
2.30088
21
0.417832
0
LINE
8
BLACK
6
CONTINUOUS
10
2.30088
20
0.417832
11
2.30095
21
0.417578
0
LINE
8
BLACK
6
CONTINUOUS
10
2.30095
20
0.417578
11
2.30112
21
0.417376
0
LINE
8
BLACK
6
CONTINUOUS
10
2.30112
20
0.417376
11
2.31545
21
0.386662
0
LINE
8
BLACK
6
CONTINUOUS
10
2.31545
20
0.386662
11
2.32978
21
0.417376
0
LINE
8
BLACK
6
CONTINUOUS
10
2.32978
20
0.417376
11
2.32995
21
0.417578
0
LINE
8
BLACK
6
CONTINUOUS
10
2.32995
20
0.417578
11
2.33002
21
0.417832
0
LINE
8
BLACK
6
CONTINUOUS
10
2.33002
20
0.417832
11
2.33093
21
0.418737
0
LINE
8
BLACK
6
CONTINUOUS
10
2.33093
20
0.418737
11
2.33175
21
0.419718
0
LINE
8
BLACK
6
CONTINUOUS
10
2.33175
20
0.419718
11
2.332
21
0.419808
0
LINE
8
BLACK
6
CONTINUOUS
10
2.332
20
0.419808
11
2.33218
21
0.419993
0
LINE
8
BLACK
6
CONTINUOUS
10
2.33218
20
0.419993
11
2.33342
21
0.420325
0
LINE
8
BLACK
6
CONTINUOUS
10
2.33342
20
0.420325
11
2.33462
21
0.420762
0
LINE
8
BLACK
6
CONTINUOUS
10
2.33462
20
0.420762
11
2.33488
21
0.420717
0
LINE
8
BLACK
6
CONTINUOUS
10
2.33488
20
0.420717
11
2.33513
21
0.420785
0
LINE
8
BLACK
6
CONTINUOUS
10
2.33513
20
0.420785
11
2.33637
21
0.420453
0
LINE
8
BLACK
6
CONTINUOUS
10
2.23657
20
0.35071
11
2.23441
21
0.352871
0
LINE
8
BLACK
6
CONTINUOUS
10
2.23441
20
0.352871
11
2.23398
21
0.354477
0
LINE
8
BLACK
6
CONTINUOUS
10
2.23398
20
0.354477
11
2.23269
21
0.351906
0
LINE
8
BLACK
6
CONTINUOUS
10
2.23269
20
0.351906
11
2.23014
21
0.350221
0
LINE
8
BLACK
6
CONTINUOUS
10
2.23014
20
0.350221
11
2.22709
21
0.350038
0
LINE
8
BLACK
6
CONTINUOUS
10
2.22709
20
0.350038
11
2.22436
21
0.351405
0
LINE
8
BLACK
6
CONTINUOUS
10
2.22436
20
0.351405
11
2.22267
21
0.353956
0
LINE
8
BLACK
6
CONTINUOUS
10
2.22267
20
0.353956
11
2.21839
21
0.366791
0
LINE
8
BLACK
6
CONTINUOUS
10
2.21839
20
0.366791
11
2.19878
21
0.366791
0
LINE
8
BLACK
6
CONTINUOUS
10
2.19878
20
0.366791
11
2.19451
21
0.353956
0
LINE
8
BLACK
6
CONTINUOUS
10
2.19451
20
0.353956
11
2.19282
21
0.351405
0
LINE
8
BLACK
6
CONTINUOUS
10
2.19282
20
0.351405
11
2.19009
21
0.350038
0
LINE
8
BLACK
6
CONTINUOUS
10
2.19009
20
0.350038
11
2.18704
21
0.350222
0
LINE
8
BLACK
6
CONTINUOUS
10
2.18704
20
0.350222
11
2.18448
21
0.351906
0
LINE
8
BLACK
6
CONTINUOUS
10
2.18448
20
0.351906
11
2.18312
21
0.35464
0
LINE
8
BLACK
6
CONTINUOUS
10
2.18312
20
0.35464
11
2.1833
21
0.357691
0
LINE
8
BLACK
6
CONTINUOUS
10
2.1833
20
0.357691
11
2.20299
21
0.416747
0
LINE
8
BLACK
6
CONTINUOUS
10
2.20299
20
0.416747
11
2.20364
21
0.417736
0
LINE
8
BLACK
6
CONTINUOUS
10
2.20364
20
0.417736
11
2.20417
21
0.418797
0
LINE
8
BLACK
6
CONTINUOUS
10
2.20417
20
0.418797
11
2.20447
21
0.418996
0
LINE
8
BLACK
6
CONTINUOUS
10
2.20447
20
0.418996
11
2.20467
21
0.419298
0
LINE
8
BLACK
6
CONTINUOUS
10
2.20467
20
0.419298
11
2.20573
21
0.419828
0
LINE
8
BLACK
6
CONTINUOUS
10
2.20573
20
0.419828
11
2.20672
21
0.420482
0
LINE
8
BLACK
6
CONTINUOUS
10
2.20672
20
0.420482
11
2.20708
21
0.420503
0
LINE
8
BLACK
6
CONTINUOUS
10
2.20708
20
0.420503
11
2.2074
21
0.420665
0
LINE
8
BLACK
6
CONTINUOUS
10
2.2074
20
0.420665
11
2.20859
21
0.420594
0
LINE
8
BLACK
6
CONTINUOUS
10
2.20859
20
0.420594
11
2.20977
21
0.420665
0
LINE
8
BLACK
6
CONTINUOUS
10
2.20977
20
0.420665
11
2.2101
21
0.420503
0
LINE
8
BLACK
6
CONTINUOUS
10
2.2101
20
0.420503
11
2.21046
21
0.420482
0
LINE
8
BLACK
6
CONTINUOUS
10
2.21046
20
0.420482
11
2.21145
21
0.419828
0
LINE
8
BLACK
6
CONTINUOUS
10
2.21145
20
0.419828
11
2.21251
21
0.419298
0
LINE
8
BLACK
6
CONTINUOUS
10
2.21251
20
0.419298
11
2.21271
21
0.418996
0
LINE
8
BLACK
6
CONTINUOUS
10
2.21271
20
0.418996
11
2.21301
21
0.418797
0
LINE
8
BLACK
6
CONTINUOUS
10
2.21301
20
0.418797
11
2.21354
21
0.417736
0
LINE
8
BLACK
6
CONTINUOUS
10
2.21354
20
0.417736
11
2.21419
21
0.416747
0
LINE
8
BLACK
6
CONTINUOUS
10
2.21419
20
0.416747
11
2.23388
21
0.357691
0
LINE
8
BLACK
6
CONTINUOUS
10
2.23388
20
0.357691
11
2.23392
21
0.356957
0
LINE
8
BLACK
6
CONTINUOUS
10
2.23392
20
0.356957
11
2.23441
21
0.358777
0
LINE
8
BLACK
6
CONTINUOUS
10
2.23441
20
0.358777
11
2.23657
21
0.360938
0
LINE
8
BLACK
6
CONTINUOUS
10
2.23657
20
0.360938
11
2.23952
21
0.361729
0
LINE
8
BLACK
6
CONTINUOUS
10
2.23952
20
0.361729
11
2.26174
21
0.361729
0
LINE
8
BLACK
6
CONTINUOUS
10
2.26174
20
0.361729
11
2.26174
21
0.414879
0
LINE
8
BLACK
6
CONTINUOUS
10
2.26174
20
0.414879
11
2.26253
21
0.417832
0
LINE
8
BLACK
6
CONTINUOUS
10
2.26253
20
0.417832
11
2.26469
21
0.419993
0
LINE
8
BLACK
6
CONTINUOUS
10
2.26469
20
0.419993
11
2.26764
21
0.420785
0
LINE
8
BLACK
6
CONTINUOUS
10
2.26764
20
0.420785
11
2.2706
21
0.419993
0
LINE
8
BLACK
6
CONTINUOUS
10
2.2706
20
0.419993
11
2.27276
21
0.417832
0
LINE
8
BLACK
6
CONTINUOUS
10
2.27276
20
0.417832
11
2.27355
21
0.414879
0
LINE
8
BLACK
6
CONTINUOUS
10
2.27355
20
0.414879
11
2.27355
21
0.355824
0
LINE
8
BLACK
6
CONTINUOUS
10
2.27355
20
0.355824
11
2.27276
21
0.352871
0
LINE
8
BLACK
6
CONTINUOUS
10
2.27276
20
0.352871
11
2.2706
21
0.35071
0
LINE
8
BLACK
6
CONTINUOUS
10
2.2706
20
0.35071
11
2.26764
21
0.349918
0
LINE
8
BLACK
6
CONTINUOUS
10
2.26764
20
0.349918
11
2.23952
21
0.349918
0
LINE
8
BLACK
6
CONTINUOUS
10
2.23952
20
0.349918
11
2.23657
21
0.35071
0
LINE
8
BLACK
6
CONTINUOUS
10
2.20272
20
0.378602
11
2.21446
21
0.378602
0
LINE
8
BLACK
6
CONTINUOUS
10
2.21446
20
0.378602
11
2.20859
21
0.396204
0
LINE
8
BLACK
6
CONTINUOUS
10
2.20859
20
0.396204
11
2.20272
21
0.378602
0
LINE
8
BLACK
6
CONTINUOUS
10
2.14541
20
0.35027
11
2.14408
21
0.350542
0
LINE
8
BLACK
6
CONTINUOUS
10
2.14408
20
0.350542
11
2.13846
21
0.353354
0
LINE
8
BLACK
6
CONTINUOUS
10
2.13846
20
0.353354
11
2.13774
21
0.353985
0
LINE
8
BLACK
6
CONTINUOUS
10
2.13774
20
0.353985
11
2.13692
21
0.35446
0
LINE
8
BLACK
6
CONTINUOUS
10
2.13692
20
0.35446
11
2.13411
21
0.357272
0
LINE
8
BLACK
6
CONTINUOUS
10
2.13411
20
0.357272
11
2.13363
21
0.358096
0
LINE
8
BLACK
6
CONTINUOUS
10
2.13363
20
0.358096
11
2.133
21
0.358807
0
LINE
8
BLACK
6
CONTINUOUS
10
2.133
20
0.358807
11
2.13019
21
0.364432
0
LINE
8
BLACK
6
CONTINUOUS
10
2.13019
20
0.364432
11
2.12992
21
0.365761
0
LINE
8
BLACK
6
CONTINUOUS
10
2.12992
20
0.365761
11
2.12957
21
0.367073
0
LINE
8
BLACK
6
CONTINUOUS
10
2.12957
20
0.367073
11
2.12957
21
0.375509
0
LINE
8
BLACK
6
CONTINUOUS
10
2.12957
20
0.375509
11
2.12992
21
0.37682
0
LINE
8
BLACK
6
CONTINUOUS
10
2.12992
20
0.37682
11
2.13019
21
0.37815
0
LINE
8
BLACK
6
CONTINUOUS
10
2.13019
20
0.37815
11
2.133
21
0.383774
0
LINE
8
BLACK
6
CONTINUOUS
10
2.133
20
0.383774
11
2.13363
21
0.384486
0
LINE
8
BLACK
6
CONTINUOUS
10
2.13363
20
0.384486
11
2.13411
21
0.385309
0
LINE
8
BLACK
6
CONTINUOUS
10
2.13411
20
0.385309
11
2.13692
21
0.388121
0
LINE
8
BLACK
6
CONTINUOUS
10
2.13692
20
0.388121
11
2.13697
21
0.388152
0
LINE
8
BLACK
6
CONTINUOUS
10
2.13697
20
0.388152
11
2.13692
21
0.388206
0
LINE
8
BLACK
6
CONTINUOUS
10
2.13692
20
0.388206
11
2.13645
21
0.389029
0
LINE
8
BLACK
6
CONTINUOUS
10
2.13645
20
0.389029
11
2.13581
21
0.389741
0
LINE
8
BLACK
6
CONTINUOUS
10
2.13581
20
0.389741
11
2.133
21
0.395365
0
LINE
8
BLACK
6
CONTINUOUS
10
2.133
20
0.395365
11
2.13273
21
0.396695
0
LINE
8
BLACK
6
CONTINUOUS
10
2.13273
20
0.396695
11
2.13238
21
0.398006
0
LINE
8
BLACK
6
CONTINUOUS
10
2.13238
20
0.398006
11
2.13238
21
0.403631
0
LINE
8
BLACK
6
CONTINUOUS
10
2.13238
20
0.403631
11
2.13273
21
0.404942
0
LINE
8
BLACK
6
CONTINUOUS
10
2.13273
20
0.404942
11
2.133
21
0.406272
0
LINE
8
BLACK
6
CONTINUOUS
10
2.133
20
0.406272
11
2.13581
21
0.411896
0
LINE
8
BLACK
6
CONTINUOUS
10
2.13581
20
0.411896
11
2.13645
21
0.412607
0
LINE
8
BLACK
6
CONTINUOUS
10
2.13645
20
0.412607
11
2.13692
21
0.413431
0
LINE
8
BLACK
6
CONTINUOUS
10
2.13692
20
0.413431
11
2.13973
21
0.416243
0
LINE
8
BLACK
6
CONTINUOUS
10
2.13973
20
0.416243
11
2.14056
21
0.416718
0
LINE
8
BLACK
6
CONTINUOUS
10
2.14056
20
0.416718
11
2.14127
21
0.417349
0
LINE
8
BLACK
6
CONTINUOUS
10
2.14127
20
0.417349
11
2.14689
21
0.420161
0
LINE
8
BLACK
6
CONTINUOUS
10
2.14689
20
0.420161
11
2.14822
21
0.420433
0
LINE
8
BLACK
6
CONTINUOUS
10
2.14822
20
0.420433
11
2.14953
21
0.420785
0
LINE
8
BLACK
6
CONTINUOUS
10
2.14953
20
0.420785
11
2.16922
21
0.420785
0
LINE
8
BLACK
6
CONTINUOUS
10
2.16922
20
0.420785
11
2.17217
21
0.419993
0
LINE
8
BLACK
6
CONTINUOUS
10
2.17217
20
0.419993
11
2.17433
21
0.417832
0
LINE
8
BLACK
6
CONTINUOUS
10
2.17433
20
0.417832
11
2.17512
21
0.414879
0
LINE
8
BLACK
6
CONTINUOUS
10
2.17512
20
0.414879
11
2.17512
21
0.355824
0
LINE
8
BLACK
6
CONTINUOUS
10
2.17512
20
0.355824
11
2.17433
21
0.352871
0
LINE
8
BLACK
6
CONTINUOUS
10
2.17433
20
0.352871
11
2.17217
21
0.35071
0
LINE
8
BLACK
6
CONTINUOUS
10
2.17217
20
0.35071
11
2.16922
21
0.349918
0
LINE
8
BLACK
6
CONTINUOUS
10
2.16922
20
0.349918
11
2.14672
21
0.349918
0
LINE
8
BLACK
6
CONTINUOUS
10
2.14672
20
0.349918
11
2.14541
21
0.35027
0
LINE
8
BLACK
6
CONTINUOUS
10
2.15049
20
0.380852
11
2.14429
21
0.378784
0
LINE
8
BLACK
6
CONTINUOUS
10
2.14429
20
0.378784
11
2.14314
21
0.377635
0
LINE
8
BLACK
6
CONTINUOUS
10
2.14314
20
0.377635
11
2.14138
21
0.374115
0
LINE
8
BLACK
6
CONTINUOUS
10
2.14138
20
0.374115
11
2.14138
21
0.368467
0
LINE
8
BLACK
6
CONTINUOUS
10
2.14138
20
0.368467
11
2.14314
21
0.364946
0
LINE
8
BLACK
6
CONTINUOUS
10
2.14314
20
0.364946
11
2.14459
21
0.36349
0
LINE
8
BLACK
6
CONTINUOUS
10
2.14459
20
0.36349
11
2.14812
21
0.361729
0
LINE
8
BLACK
6
CONTINUOUS
10
2.14812
20
0.361729
11
2.16331
21
0.361729
0
LINE
8
BLACK
6
CONTINUOUS
10
2.16331
20
0.361729
11
2.16331
21
0.380852
0
LINE
8
BLACK
6
CONTINUOUS
10
2.16331
20
0.380852
11
2.15049
21
0.380852
0
LINE
8
BLACK
6
CONTINUOUS
10
2.15093
20
0.408974
11
2.14741
21
0.407213
0
LINE
8
BLACK
6
CONTINUOUS
10
2.14741
20
0.407213
11
2.14595
21
0.405757
0
LINE
8
BLACK
6
CONTINUOUS
10
2.14595
20
0.405757
11
2.14419
21
0.402236
0
LINE
8
BLACK
6
CONTINUOUS
10
2.14419
20
0.402236
11
2.14419
21
0.3994
0
LINE
8
BLACK
6
CONTINUOUS
10
2.14419
20
0.3994
11
2.14595
21
0.39588
0
LINE
8
BLACK
6
CONTINUOUS
10
2.14595
20
0.39588
11
2.14741
21
0.394423
0
LINE
8
BLACK
6
CONTINUOUS
10
2.14741
20
0.394423
11
2.15093
21
0.392663
0
LINE
8
BLACK
6
CONTINUOUS
10
2.15093
20
0.392663
11
2.16331
21
0.392663
0
LINE
8
BLACK
6
CONTINUOUS
10
2.16331
20
0.392663
11
2.16331
21
0.408974
0
LINE
8
BLACK
6
CONTINUOUS
10
2.16331
20
0.408974
11
2.15093
21
0.408974
0
LINE
8
BLACK
6
CONTINUOUS
10
2.11236
20
0.366764
11
2.11312
21
0.366563
0
LINE
8
BLACK
6
CONTINUOUS
10
2.11312
20
0.366563
11
2.11367
21
0.366013
0
LINE
8
BLACK
6
CONTINUOUS
10
2.11367
20
0.366013
11
2.11434
21
0.365624
0
LINE
8
BLACK
6
CONTINUOUS
10
2.11434
20
0.365624
11
2.11715
21
0.362812
0
LINE
8
BLACK
6
CONTINUOUS
10
2.11715
20
0.362812
11
2.11715
21
0.362812
0
LINE
8
BLACK
6
CONTINUOUS
10
2.11715
20
0.362812
11
2.11715
21
0.362812
0
LINE
8
BLACK
6
CONTINUOUS
10
2.11715
20
0.362812
11
2.1172
21
0.362732
0
LINE
8
BLACK
6
CONTINUOUS
10
2.1172
20
0.362732
11
2.11868
21
0.360165
0
LINE
8
BLACK
6
CONTINUOUS
10
2.11868
20
0.360165
11
2.11868
21
0.357108
0
LINE
8
BLACK
6
CONTINUOUS
10
2.11868
20
0.357108
11
2.11814
21
0.356178
0
LINE
8
BLACK
6
CONTINUOUS
10
2.11814
20
0.356178
11
2.11768
21
0.355382
0
LINE
8
BLACK
6
CONTINUOUS
10
2.11768
20
0.355382
11
2.11715
21
0.35446
0
LINE
8
BLACK
6
CONTINUOUS
10
2.11715
20
0.35446
11
2.11434
21
0.351648
0
LINE
8
BLACK
6
CONTINUOUS
10
2.11434
20
0.351648
11
2.11392
21
0.351405
0
LINE
8
BLACK
6
CONTINUOUS
10
2.11392
20
0.351405
11
2.11367
21
0.351259
0
LINE
8
BLACK
6
CONTINUOUS
10
2.11367
20
0.351259
11
2.11312
21
0.35071
0
LINE
8
BLACK
6
CONTINUOUS
10
2.11312
20
0.35071
11
2.11236
21
0.350508
0
LINE
8
BLACK
6
CONTINUOUS
10
2.11236
20
0.350508
11
2.11169
21
0.35012
0
LINE
8
BLACK
6
CONTINUOUS
10
2.11169
20
0.35012
11
2.11091
21
0.35012
0
LINE
8
BLACK
6
CONTINUOUS
10
2.11091
20
0.35012
11
2.11016
21
0.349918
0
LINE
8
BLACK
6
CONTINUOUS
10
2.11016
20
0.349918
11
2.10941
21
0.35012
0
LINE
8
BLACK
6
CONTINUOUS
10
2.10941
20
0.35012
11
2.10863
21
0.35012
0
LINE
8
BLACK
6
CONTINUOUS
10
2.10863
20
0.35012
11
2.10796
21
0.350508
0
LINE
8
BLACK
6
CONTINUOUS
10
2.10796
20
0.350508
11
2.10721
21
0.35071
0
LINE
8
BLACK
6
CONTINUOUS
10
2.10721
20
0.35071
11
2.10666
21
0.351259
0
LINE
8
BLACK
6
CONTINUOUS
10
2.10666
20
0.351259
11
2.10641
21
0.351405
0
LINE
8
BLACK
6
CONTINUOUS
10
2.10641
20
0.351405
11
2.10599
21
0.351648
0
LINE
8
BLACK
6
CONTINUOUS
10
2.10599
20
0.351648
11
2.10599
21
0.351648
0
LINE
8
BLACK
6
CONTINUOUS
10
2.10599
20
0.351648
11
2.10318
21
0.35446
0
LINE
8
BLACK
6
CONTINUOUS
10
2.10318
20
0.35446
11
2.10218
21
0.356178
0
LINE
8
BLACK
6
CONTINUOUS
10
2.10218
20
0.356178
11
2.10165
21
0.357108
0
LINE
8
BLACK
6
CONTINUOUS
10
2.10165
20
0.357108
11
2.10165
21
0.360165
0
LINE
8
BLACK
6
CONTINUOUS
10
2.10165
20
0.360165
11
2.10313
21
0.362732
0
LINE
8
BLACK
6
CONTINUOUS
10
2.10313
20
0.362732
11
2.10318
21
0.362812
0
LINE
8
BLACK
6
CONTINUOUS
10
2.10318
20
0.362812
11
2.10599
21
0.365624
0
LINE
8
BLACK
6
CONTINUOUS
10
2.10599
20
0.365624
11
2.10666
21
0.366013
0
LINE
8
BLACK
6
CONTINUOUS
10
2.10666
20
0.366013
11
2.10721
21
0.366563
0
LINE
8
BLACK
6
CONTINUOUS
10
2.10721
20
0.366563
11
2.10796
21
0.366764
0
LINE
8
BLACK
6
CONTINUOUS
10
2.10796
20
0.366764
11
2.10863
21
0.367153
0
LINE
8
BLACK
6
CONTINUOUS
10
2.10863
20
0.367153
11
2.10941
21
0.367153
0
LINE
8
BLACK
6
CONTINUOUS
10
2.10941
20
0.367153
11
2.11016
21
0.367354
0
LINE
8
BLACK
6
CONTINUOUS
10
2.11016
20
0.367354
11
2.11091
21
0.367153
0
LINE
8
BLACK
6
CONTINUOUS
10
2.11091
20
0.367153
11
2.11169
21
0.367153
0
LINE
8
BLACK
6
CONTINUOUS
10
2.11169
20
0.367153
11
2.11236
21
0.366764
0
LINE
8
BLACK
6
CONTINUOUS
10
2.06609
20
0.420539
11
2.06704
21
0.420482
0
LINE
8
BLACK
6
CONTINUOUS
10
2.06704
20
0.420482
11
2.07547
21
0.417669
0
LINE
8
BLACK
6
CONTINUOUS
10
2.07547
20
0.417669
11
2.07661
21
0.416921
0
LINE
8
BLACK
6
CONTINUOUS
10
2.07661
20
0.416921
11
2.07778
21
0.416243
0
LINE
8
BLACK
6
CONTINUOUS
10
2.07778
20
0.416243
11
2.08341
21
0.410618
0
LINE
8
BLACK
6
CONTINUOUS
10
2.08341
20
0.410618
11
2.08388
21
0.409795
0
LINE
8
BLACK
6
CONTINUOUS
10
2.08388
20
0.409795
11
2.08451
21
0.409084
0
LINE
8
BLACK
6
CONTINUOUS
10
2.08451
20
0.409084
11
2.08732
21
0.403459
0
LINE
8
BLACK
6
CONTINUOUS
10
2.08732
20
0.403459
11
2.08745
21
0.402821
0
LINE
8
BLACK
6
CONTINUOUS
10
2.08745
20
0.402821
11
2.08777
21
0.402251
0
LINE
8
BLACK
6
CONTINUOUS
10
2.08777
20
0.402251
11
2.09058
21
0.391002
0
LINE
8
BLACK
6
CONTINUOUS
10
2.09058
20
0.391002
11
2.09057
21
0.390274
0
LINE
8
BLACK
6
CONTINUOUS
10
2.09057
20
0.390274
11
2.09076
21
0.38957
0
LINE
8
BLACK
6
CONTINUOUS
10
2.09076
20
0.38957
11
2.09076
21
0.381133
0
LINE
8
BLACK
6
CONTINUOUS
10
2.09076
20
0.381133
11
2.09057
21
0.380429
0
LINE
8
BLACK
6
CONTINUOUS
10
2.09057
20
0.380429
11
2.09058
21
0.379701
0
LINE
8
BLACK
6
CONTINUOUS
10
2.09058
20
0.379701
11
2.08777
21
0.368452
0
LINE
8
BLACK
6
CONTINUOUS
10
2.08777
20
0.368452
11
2.08745
21
0.367882
0
LINE
8
BLACK
6
CONTINUOUS
10
2.08745
20
0.367882
11
2.08732
21
0.367244
0
LINE
8
BLACK
6
CONTINUOUS
10
2.08732
20
0.367244
11
2.08451
21
0.361619
0
LINE
8
BLACK
6
CONTINUOUS
10
2.08451
20
0.361619
11
2.08388
21
0.360908
0
LINE
8
BLACK
6
CONTINUOUS
10
2.08388
20
0.360908
11
2.08341
21
0.360085
0
LINE
8
BLACK
6
CONTINUOUS
10
2.08341
20
0.360085
11
2.07778
21
0.35446
0
LINE
8
BLACK
6
CONTINUOUS
10
2.07778
20
0.35446
11
2.07661
21
0.353782
0
LINE
8
BLACK
6
CONTINUOUS
10
2.07661
20
0.353782
11
2.07547
21
0.353034
0
LINE
8
BLACK
6
CONTINUOUS
10
2.07547
20
0.353034
11
2.06704
21
0.350222
0
LINE
8
BLACK
6
CONTINUOUS
10
2.06704
20
0.350222
11
2.06609
21
0.350165
0
LINE
8
BLACK
6
CONTINUOUS
10
2.06609
20
0.350165
11
2.06517
21
0.349918
0
LINE
8
BLACK
6
CONTINUOUS
10
2.06517
20
0.349918
11
2.05954
21
0.349918
0
LINE
8
BLACK
6
CONTINUOUS
10
2.05954
20
0.349918
11
2.05863
21
0.350165
0
LINE
8
BLACK
6
CONTINUOUS
10
2.05863
20
0.350165
11
2.05768
21
0.350222
0
LINE
8
BLACK
6
CONTINUOUS
10
2.05768
20
0.350222
11
2.04924
21
0.353034
0
LINE
8
BLACK
6
CONTINUOUS
10
2.04924
20
0.353034
11
2.04811
21
0.353782
0
LINE
8
BLACK
6
CONTINUOUS
10
2.04811
20
0.353782
11
2.04693
21
0.35446
0
LINE
8
BLACK
6
CONTINUOUS
10
2.04693
20
0.35446
11
2.04412
21
0.357272
0
LINE
8
BLACK
6
CONTINUOUS
10
2.04412
20
0.357272
11
2.04259
21
0.35992
0
LINE
8
BLACK
6
CONTINUOUS
10
2.04259
20
0.35992
11
2.04259
21
0.362977
0
LINE
8
BLACK
6
CONTINUOUS
10
2.04259
20
0.362977
11
2.04412
21
0.365624
0
LINE
8
BLACK
6
CONTINUOUS
10
2.04412
20
0.365624
11
2.04677
21
0.367153
0
LINE
8
BLACK
6
CONTINUOUS
10
2.04677
20
0.367153
11
2.04982
21
0.367153
0
LINE
8
BLACK
6
CONTINUOUS
10
2.04982
20
0.367153
11
2.05247
21
0.365624
0
LINE
8
BLACK
6
CONTINUOUS
10
2.05247
20
0.365624
11
2.0543
21
0.363798
0
LINE
8
BLACK
6
CONTINUOUS
10
2.0543
20
0.363798
11
2.0605
21
0.361729
0
LINE
8
BLACK
6
CONTINUOUS
10
2.0605
20
0.361729
11
2.06421
21
0.361729
0
LINE
8
BLACK
6
CONTINUOUS
10
2.06421
20
0.361729
11
2.07042
21
0.363798
0
LINE
8
BLACK
6
CONTINUOUS
10
2.07042
20
0.363798
11
2.07438
21
0.367759
0
LINE
8
BLACK
6
CONTINUOUS
10
2.07438
20
0.367759
11
2.07647
21
0.371946
0
LINE
8
BLACK
6
CONTINUOUS
10
2.07647
20
0.371946
11
2.07895
21
0.38186
0
LINE
8
BLACK
6
CONTINUOUS
10
2.07895
20
0.38186
11
2.07895
21
0.388843
0
LINE
8
BLACK
6
CONTINUOUS
10
2.07895
20
0.388843
11
2.07647
21
0.398757
0
LINE
8
BLACK
6
CONTINUOUS
10
2.07647
20
0.398757
11
2.07438
21
0.402944
0
LINE
8
BLACK
6
CONTINUOUS
10
2.07438
20
0.402944
11
2.07042
21
0.406905
0
LINE
8
BLACK
6
CONTINUOUS
10
2.07042
20
0.406905
11
2.06421
21
0.408974
0
LINE
8
BLACK
6
CONTINUOUS
10
2.06421
20
0.408974
11
2.0605
21
0.408974
0
LINE
8
BLACK
6
CONTINUOUS
10
2.0605
20
0.408974
11
2.0543
21
0.406905
0
LINE
8
BLACK
6
CONTINUOUS
10
2.0543
20
0.406905
11
2.05247
21
0.405079
0
LINE
8
BLACK
6
CONTINUOUS
10
2.05247
20
0.405079
11
2.04982
21
0.403551
0
LINE
8
BLACK
6
CONTINUOUS
10
2.04982
20
0.403551
11
2.04677
21
0.403551
0
LINE
8
BLACK
6
CONTINUOUS
10
2.04677
20
0.403551
11
2.04412
21
0.405079
0
LINE
8
BLACK
6
CONTINUOUS
10
2.04412
20
0.405079
11
2.04259
21
0.407726
0
LINE
8
BLACK
6
CONTINUOUS
10
2.04259
20
0.407726
11
2.04259
21
0.410783
0
LINE
8
BLACK
6
CONTINUOUS
10
2.04259
20
0.410783
11
2.04412
21
0.413431
0
LINE
8
BLACK
6
CONTINUOUS
10
2.04412
20
0.413431
11
2.04693
21
0.416243
0
LINE
8
BLACK
6
CONTINUOUS
10
2.04693
20
0.416243
11
2.04811
21
0.416921
0
LINE
8
BLACK
6
CONTINUOUS
10
2.04811
20
0.416921
11
2.04924
21
0.417669
0
LINE
8
BLACK
6
CONTINUOUS
10
2.04924
20
0.417669
11
2.05768
21
0.420482
0
LINE
8
BLACK
6
CONTINUOUS
10
2.05768
20
0.420482
11
2.05863
21
0.420539
0
LINE
8
BLACK
6
CONTINUOUS
10
2.05863
20
0.420539
11
2.05954
21
0.420785
0
LINE
8
BLACK
6
CONTINUOUS
10
2.05954
20
0.420785
11
2.06517
21
0.420785
0
LINE
8
BLACK
6
CONTINUOUS
10
2.06517
20
0.420785
11
2.06609
21
0.420539
0
LINE
8
BLACK
6
CONTINUOUS
10
2.03156
20
0.419993
11
2.03373
21
0.417832
0
LINE
8
BLACK
6
CONTINUOUS
10
2.03373
20
0.417832
11
2.03452
21
0.414879
0
LINE
8
BLACK
6
CONTINUOUS
10
2.03452
20
0.414879
11
2.03373
21
0.411926
0
LINE
8
BLACK
6
CONTINUOUS
10
2.03373
20
0.411926
11
2.03156
21
0.409765
0
LINE
8
BLACK
6
CONTINUOUS
10
2.03156
20
0.409765
11
2.02861
21
0.408974
0
LINE
8
BLACK
6
CONTINUOUS
10
2.02861
20
0.408974
11
2.00028
21
0.408974
0
LINE
8
BLACK
6
CONTINUOUS
10
2.00028
20
0.408974
11
2.03352
21
0.3591
0
LINE
8
BLACK
6
CONTINUOUS
10
2.03352
20
0.3591
11
2.03359
21
0.358915
0
LINE
8
BLACK
6
CONTINUOUS
10
2.03359
20
0.358915
11
2.03373
21
0.358777
0
LINE
8
BLACK
6
CONTINUOUS
10
2.03373
20
0.358777
11
2.03407
21
0.357478
0
LINE
8
BLACK
6
CONTINUOUS
10
2.03407
20
0.357478
11
2.0345
21
0.356204
0
LINE
8
BLACK
6
CONTINUOUS
10
2.0345
20
0.356204
11
2.03447
21
0.356013
0
LINE
8
BLACK
6
CONTINUOUS
10
2.03447
20
0.356013
11
2.03452
21
0.355824
0
LINE
8
BLACK
6
CONTINUOUS
10
2.03452
20
0.355824
11
2.03417
21
0.354525
0
LINE
8
BLACK
6
CONTINUOUS
10
2.03417
20
0.354525
11
2.0339
21
0.353206
0
LINE
8
BLACK
6
CONTINUOUS
10
2.0339
20
0.353206
11
2.03378
21
0.35306
0
LINE
8
BLACK
6
CONTINUOUS
10
2.03378
20
0.35306
11
2.03373
21
0.352871
0
LINE
8
BLACK
6
CONTINUOUS
10
2.03373
20
0.352871
11
2.03277
21
0.35192
0
LINE
8
BLACK
6
CONTINUOUS
10
2.03277
20
0.35192
11
2.03189
21
0.35091
0
LINE
8
BLACK
6
CONTINUOUS
10
2.03189
20
0.35091
11
2.0317
21
0.350848
0
LINE
8
BLACK
6
CONTINUOUS
10
2.0317
20
0.350848
11
2.03156
21
0.35071
0
LINE
8
BLACK
6
CONTINUOUS
10
2.03156
20
0.35071
11
2.03026
21
0.350362
0
LINE
8
BLACK
6
CONTINUOUS
10
2.03026
20
0.350362
11
2.02899
21
0.349931
0
LINE
8
BLACK
6
CONTINUOUS
10
2.02899
20
0.349931
11
2.0288
21
0.349969
0
LINE
8
BLACK
6
CONTINUOUS
10
2.0288
20
0.349969
11
2.02861
21
0.349918
0
LINE
8
BLACK
6
CONTINUOUS
10
2.02861
20
0.349918
11
1.98924
21
0.349918
0
LINE
8
BLACK
6
CONTINUOUS
10
1.98924
20
0.349918
11
1.98629
21
0.35071
0
LINE
8
BLACK
6
CONTINUOUS
10
1.98629
20
0.35071
11
1.98413
21
0.352871
0
LINE
8
BLACK
6
CONTINUOUS
10
1.98413
20
0.352871
11
1.98334
21
0.355824
0
LINE
8
BLACK
6
CONTINUOUS
10
1.98334
20
0.355824
11
1.98413
21
0.358777
0
LINE
8
BLACK
6
CONTINUOUS
10
1.98413
20
0.358777
11
1.98629
21
0.360938
0
LINE
8
BLACK
6
CONTINUOUS
10
1.98629
20
0.360938
11
1.98924
21
0.361729
0
LINE
8
BLACK
6
CONTINUOUS
10
1.98924
20
0.361729
11
2.01758
21
0.361729
0
LINE
8
BLACK
6
CONTINUOUS
10
2.01758
20
0.361729
11
1.98433
21
0.411603
0
LINE
8
BLACK
6
CONTINUOUS
10
1.98433
20
0.411603
11
1.98426
21
0.411788
0
LINE
8
BLACK
6
CONTINUOUS
10
1.98426
20
0.411788
11
1.98413
21
0.411926
0
LINE
8
BLACK
6
CONTINUOUS
10
1.98413
20
0.411926
11
1.98378
21
0.413225
0
LINE
8
BLACK
6
CONTINUOUS
10
1.98378
20
0.413225
11
1.98335
21
0.414499
0
LINE
8
BLACK
6
CONTINUOUS
10
1.98335
20
0.414499
11
1.98339
21
0.41469
0
LINE
8
BLACK
6
CONTINUOUS
10
1.98339
20
0.41469
11
1.98334
21
0.414879
0
LINE
8
BLACK
6
CONTINUOUS
10
1.98334
20
0.414879
11
1.98368
21
0.416178
0
LINE
8
BLACK
6
CONTINUOUS
10
1.98368
20
0.416178
11
1.98395
21
0.417497
0
LINE
8
BLACK
6
CONTINUOUS
10
1.98395
20
0.417497
11
1.98408
21
0.417643
0
LINE
8
BLACK
6
CONTINUOUS
10
1.98408
20
0.417643
11
1.98413
21
0.417832
0
LINE
8
BLACK
6
CONTINUOUS
10
1.98413
20
0.417832
11
1.98508
21
0.418783
0
LINE
8
BLACK
6
CONTINUOUS
10
1.98508
20
0.418783
11
1.98596
21
0.419793
0
LINE
8
BLACK
6
CONTINUOUS
10
1.98596
20
0.419793
11
1.98615
21
0.419855
0
LINE
8
BLACK
6
CONTINUOUS
10
1.98615
20
0.419855
11
1.98629
21
0.419993
0
LINE
8
BLACK
6
CONTINUOUS
10
1.98629
20
0.419993
11
1.98759
21
0.420341
0
LINE
8
BLACK
6
CONTINUOUS
10
1.98759
20
0.420341
11
1.98886
21
0.420772
0
LINE
8
BLACK
6
CONTINUOUS
10
1.98886
20
0.420772
11
1.98905
21
0.420734
0
LINE
8
BLACK
6
CONTINUOUS
10
1.98905
20
0.420734
11
1.98924
21
0.420785
0
LINE
8
BLACK
6
CONTINUOUS
10
1.98924
20
0.420785
11
2.02861
21
0.420785
0
LINE
8
BLACK
6
CONTINUOUS
10
2.02861
20
0.420785
11
2.03156
21
0.419993
0
LINE
8
BLACK
6
CONTINUOUS
10
0.648668
20
1.78035
11
0.649998
21
1.78008
0
LINE
8
BLACK
6
CONTINUOUS
10
0.649998
20
1.78008
11
0.655622
21
1.77727
0
LINE
8
BLACK
6
CONTINUOUS
10
0.655622
20
1.77727
11
0.656333
21
1.77664
0
LINE
8
BLACK
6
CONTINUOUS
10
0.656333
20
1.77664
11
0.657157
21
1.77616
0
LINE
8
BLACK
6
CONTINUOUS
10
0.657157
20
1.77616
11
0.662781
21
1.77054
0
LINE
8
BLACK
6
CONTINUOUS
10
0.662781
20
1.77054
11
0.662807
21
1.7705
0
LINE
8
BLACK
6
CONTINUOUS
10
0.662807
20
1.7705
11
0.662851
21
1.77047
0
LINE
8
BLACK
6
CONTINUOUS
10
0.662851
20
1.77047
11
0.663569
21
1.76917
0
LINE
8
BLACK
6
CONTINUOUS
10
0.663569
20
1.76917
11
0.664309
21
1.76789
0
LINE
8
BLACK
6
CONTINUOUS
10
0.664309
20
1.76789
11
0.664309
21
1.76784
0
LINE
8
BLACK
6
CONTINUOUS
10
0.664309
20
1.76784
11
0.664334
21
1.7678
0
LINE
8
BLACK
6
CONTINUOUS
10
0.664334
20
1.7678
11
0.667146
21
1.75655
0
LINE
8
BLACK
6
CONTINUOUS
10
0.667146
20
1.75655
11
0.667134
21
1.75582
0
LINE
8
BLACK
6
CONTINUOUS
10
0.667134
20
1.75582
11
0.667323
21
1.75512
0
LINE
8
BLACK
6
CONTINUOUS
10
0.667323
20
1.75512
11
0.667323
21
1.73543
0
LINE
8
BLACK
6
CONTINUOUS
10
0.667323
20
1.73543
11
0.667134
21
1.73473
0
LINE
8
BLACK
6
CONTINUOUS
10
0.667134
20
1.73473
11
0.667146
21
1.734
0
LINE
8
BLACK
6
CONTINUOUS
10
0.667146
20
1.734
11
0.664334
21
1.72275
0
LINE
8
BLACK
6
CONTINUOUS
10
0.664334
20
1.72275
11
0.664309
21
1.7227
0
LINE
8
BLACK
6
CONTINUOUS
10
0.664309
20
1.7227
11
0.664309
21
1.72265
0
LINE
8
BLACK
6
CONTINUOUS
10
0.664309
20
1.72265
11
0.663569
21
1.72137
0
LINE
8
BLACK
6
CONTINUOUS
10
0.663569
20
1.72137
11
0.662851
21
1.72008
0
LINE
8
BLACK
6
CONTINUOUS
10
0.662851
20
1.72008
11
0.662807
21
1.72005
0
LINE
8
BLACK
6
CONTINUOUS
10
0.662807
20
1.72005
11
0.662781
21
1.72001
0
LINE
8
BLACK
6
CONTINUOUS
10
0.662781
20
1.72001
11
0.657157
21
1.71438
0
LINE
8
BLACK
6
CONTINUOUS
10
0.657157
20
1.71438
11
0.656333
21
1.71391
0
LINE
8
BLACK
6
CONTINUOUS
10
0.656333
20
1.71391
11
0.655622
21
1.71328
0
LINE
8
BLACK
6
CONTINUOUS
10
0.655622
20
1.71328
11
0.649998
21
1.71046
0
LINE
8
BLACK
6
CONTINUOUS
10
0.649998
20
1.71046
11
0.648668
21
1.71019
0
LINE
8
BLACK
6
CONTINUOUS
10
0.648668
20
1.71019
11
0.647357
21
1.70984
0
LINE
8
BLACK
6
CONTINUOUS
10
0.647357
20
1.70984
11
0.636108
21
1.70984
0
LINE
8
BLACK
6
CONTINUOUS
10
0.636108
20
1.70984
11
0.634797
21
1.71019
0
LINE
8
BLACK
6
CONTINUOUS
10
0.634797
20
1.71019
11
0.633467
21
1.71046
0
LINE
8
BLACK
6
CONTINUOUS
10
0.633467
20
1.71046
11
0.627843
21
1.71328
0
LINE
8
BLACK
6
CONTINUOUS
10
0.627843
20
1.71328
11
0.627131
21
1.71391
0
LINE
8
BLACK
6
CONTINUOUS
10
0.627131
20
1.71391
11
0.626308
21
1.71438
0
LINE
8
BLACK
6
CONTINUOUS
10
0.626308
20
1.71438
11
0.620684
21
1.72001
0
LINE
8
BLACK
6
CONTINUOUS
10
0.620684
20
1.72001
11
0.620658
21
1.72005
0
LINE
8
BLACK
6
CONTINUOUS
10
0.620658
20
1.72005
11
0.620614
21
1.72008
0
LINE
8
BLACK
6
CONTINUOUS
10
0.620614
20
1.72008
11
0.619896
21
1.72137
0
LINE
8
BLACK
6
CONTINUOUS
10
0.619896
20
1.72137
11
0.619155
21
1.72265
0
LINE
8
BLACK
6
CONTINUOUS
10
0.619155
20
1.72265
11
0.619155
21
1.7227
0
LINE
8
BLACK
6
CONTINUOUS
10
0.619155
20
1.7227
11
0.61913
21
1.72275
0
LINE
8
BLACK
6
CONTINUOUS
10
0.61913
20
1.72275
11
0.616318
21
1.734
0
LINE
8
BLACK
6
CONTINUOUS
10
0.616318
20
1.734
11
0.61633
21
1.73473
0
LINE
8
BLACK
6
CONTINUOUS
10
0.61633
20
1.73473
11
0.616142
21
1.73543
0
LINE
8
BLACK
6
CONTINUOUS
10
0.616142
20
1.73543
11
0.616142
21
1.75512
0
LINE
8
BLACK
6
CONTINUOUS
10
0.616142
20
1.75512
11
0.61633
21
1.75582
0
LINE
8
BLACK
6
CONTINUOUS
10
0.61633
20
1.75582
11
0.616318
21
1.75655
0
LINE
8
BLACK
6
CONTINUOUS
10
0.616318
20
1.75655
11
0.61913
21
1.7678
0
LINE
8
BLACK
6
CONTINUOUS
10
0.61913
20
1.7678
11
0.619155
21
1.76784
0
LINE
8
BLACK
6
CONTINUOUS
10
0.619155
20
1.76784
11
0.619155
21
1.76789
0
LINE
8
BLACK
6
CONTINUOUS
10
0.619155
20
1.76789
11
0.619896
21
1.76918
0
LINE
8
BLACK
6
CONTINUOUS
10
0.619896
20
1.76918
11
0.620614
21
1.77047
0
LINE
8
BLACK
6
CONTINUOUS
10
0.620614
20
1.77047
11
0.620658
21
1.7705
0
LINE
8
BLACK
6
CONTINUOUS
10
0.620658
20
1.7705
11
0.620684
21
1.77054
0
LINE
8
BLACK
6
CONTINUOUS
10
0.620684
20
1.77054
11
0.626308
21
1.77616
0
LINE
8
BLACK
6
CONTINUOUS
10
0.626308
20
1.77616
11
0.627131
21
1.77664
0
LINE
8
BLACK
6
CONTINUOUS
10
0.627131
20
1.77664
11
0.627843
21
1.77727
0
LINE
8
BLACK
6
CONTINUOUS
10
0.627843
20
1.77727
11
0.633467
21
1.78008
0
LINE
8
BLACK
6
CONTINUOUS
10
0.633467
20
1.78008
11
0.634797
21
1.78035
0
LINE
8
BLACK
6
CONTINUOUS
10
0.634797
20
1.78035
11
0.636108
21
1.78071
0
LINE
8
BLACK
6
CONTINUOUS
10
0.636108
20
1.78071
11
0.647357
21
1.78071
0
LINE
8
BLACK
6
CONTINUOUS
10
0.647357
20
1.78071
11
0.648668
21
1.78035
0
LINE
8
BLACK
6
CONTINUOUS
10
0.637502
20
1.76889
11
0.633982
21
1.76713
0
LINE
8
BLACK
6
CONTINUOUS
10
0.633982
20
1.76713
11
0.630192
21
1.76334
0
LINE
8
BLACK
6
CONTINUOUS
10
0.630192
20
1.76334
11
0.627953
21
1.75439
0
LINE
8
BLACK
6
CONTINUOUS
10
0.627953
20
1.75439
11
0.627953
21
1.73616
0
LINE
8
BLACK
6
CONTINUOUS
10
0.627953
20
1.73616
11
0.630192
21
1.7272
0
LINE
8
BLACK
6
CONTINUOUS
10
0.630192
20
1.7272
11
0.633982
21
1.72341
0
LINE
8
BLACK
6
CONTINUOUS
10
0.633982
20
1.72341
11
0.637502
21
1.72165
0
LINE
8
BLACK
6
CONTINUOUS
10
0.637502
20
1.72165
11
0.645962
21
1.72165
0
LINE
8
BLACK
6
CONTINUOUS
10
0.645962
20
1.72165
11
0.649483
21
1.72341
0
LINE
8
BLACK
6
CONTINUOUS
10
0.649483
20
1.72341
11
0.653273
21
1.7272
0
LINE
8
BLACK
6
CONTINUOUS
10
0.653273
20
1.7272
11
0.655512
21
1.73616
0
LINE
8
BLACK
6
CONTINUOUS
10
0.655512
20
1.73616
11
0.655512
21
1.75439
0
LINE
8
BLACK
6
CONTINUOUS
10
0.655512
20
1.75439
11
0.653273
21
1.76334
0
LINE
8
BLACK
6
CONTINUOUS
10
0.653273
20
1.76334
11
0.649483
21
1.76713
0
LINE
8
BLACK
6
CONTINUOUS
10
0.649483
20
1.76713
11
0.645962
21
1.76889
0
LINE
8
BLACK
6
CONTINUOUS
10
0.645962
20
1.76889
11
0.637502
21
1.76889
0
LINE
8
BLACK
6
CONTINUOUS
10
0.723425
20
1.77991
11
0.725587
21
1.77775
0
LINE
8
BLACK
6
CONTINUOUS
10
0.725587
20
1.77775
11
0.726378
21
1.7748
0
LINE
8
BLACK
6
CONTINUOUS
10
0.726378
20
1.7748
11
0.726378
21
1.71575
0
LINE
8
BLACK
6
CONTINUOUS
10
0.726378
20
1.71575
11
0.725587
21
1.71279
0
LINE
8
BLACK
6
CONTINUOUS
10
0.725587
20
1.71279
11
0.723425
21
1.71063
0
LINE
8
BLACK
6
CONTINUOUS
10
0.723425
20
1.71063
11
0.720472
21
1.70984
0
LINE
8
BLACK
6
CONTINUOUS
10
0.720472
20
1.70984
11
0.71752
21
1.71063
0
LINE
8
BLACK
6
CONTINUOUS
10
0.71752
20
1.71063
11
0.715358
21
1.71279
0
LINE
8
BLACK
6
CONTINUOUS
10
0.715358
20
1.71279
11
0.714567
21
1.71575
0
LINE
8
BLACK
6
CONTINUOUS
10
0.714567
20
1.71575
11
0.714567
21
1.74077
0
LINE
8
BLACK
6
CONTINUOUS
10
0.714567
20
1.74077
11
0.692632
21
1.74077
0
LINE
8
BLACK
6
CONTINUOUS
10
0.692632
20
1.74077
11
0.692632
21
1.71575
0
LINE
8
BLACK
6
CONTINUOUS
10
0.692632
20
1.71575
11
0.691841
21
1.71279
0
LINE
8
BLACK
6
CONTINUOUS
10
0.691841
20
1.71279
11
0.689679
21
1.71063
0
LINE
8
BLACK
6
CONTINUOUS
10
0.689679
20
1.71063
11
0.686727
21
1.70984
0
LINE
8
BLACK
6
CONTINUOUS
10
0.686727
20
1.70984
11
0.683774
21
1.71063
0
LINE
8
BLACK
6
CONTINUOUS
10
0.683774
20
1.71063
11
0.681612
21
1.71279
0
LINE
8
BLACK
6
CONTINUOUS
10
0.681612
20
1.71279
11
0.680821
21
1.71575
0
LINE
8
BLACK
6
CONTINUOUS
10
0.680821
20
1.71575
11
0.680821
21
1.7748
0
LINE
8
BLACK
6
CONTINUOUS
10
0.680821
20
1.7748
11
0.681612
21
1.77775
0
LINE
8
BLACK
6
CONTINUOUS
10
0.681612
20
1.77775
11
0.683774
21
1.77991
0
LINE
8
BLACK
6
CONTINUOUS
10
0.683774
20
1.77991
11
0.686727
21
1.78071
0
LINE
8
BLACK
6
CONTINUOUS
10
0.686727
20
1.78071
11
0.689679
21
1.77991
0
LINE
8
BLACK
6
CONTINUOUS
10
0.689679
20
1.77991
11
0.691841
21
1.77775
0
LINE
8
BLACK
6
CONTINUOUS
10
0.691841
20
1.77775
11
0.692632
21
1.7748
0
LINE
8
BLACK
6
CONTINUOUS
10
0.692632
20
1.7748
11
0.692632
21
1.75258
0
LINE
8
BLACK
6
CONTINUOUS
10
0.692632
20
1.75258
11
0.714567
21
1.75258
0
LINE
8
BLACK
6
CONTINUOUS
10
0.714567
20
1.75258
11
0.714567
21
1.7748
0
LINE
8
BLACK
6
CONTINUOUS
10
0.714567
20
1.7748
11
0.715358
21
1.77775
0
LINE
8
BLACK
6
CONTINUOUS
10
0.715358
20
1.77775
11
0.71752
21
1.77991
0
LINE
8
BLACK
6
CONTINUOUS
10
0.71752
20
1.77991
11
0.720472
21
1.78071
0
LINE
8
BLACK
6
CONTINUOUS
10
0.720472
20
1.78071
11
0.723425
21
1.77991
0
LINE
8
BLACK
6
CONTINUOUS
10
0.763573
20
1.78046
11
0.764522
21
1.7804
0
LINE
8
BLACK
6
CONTINUOUS
10
0.764522
20
1.7804
11
0.772959
21
1.77759
0
LINE
8
BLACK
6
CONTINUOUS
10
0.772959
20
1.77759
11
0.774091
21
1.77684
0
LINE
8
BLACK
6
CONTINUOUS
10
0.774091
20
1.77684
11
0.775267
21
1.77616
0
LINE
8
BLACK
6
CONTINUOUS
10
0.775267
20
1.77616
11
0.780891
21
1.77054
0
LINE
8
BLACK
6
CONTINUOUS
10
0.780891
20
1.77054
11
0.781367
21
1.76972
0
LINE
8
BLACK
6
CONTINUOUS
10
0.781367
20
1.76972
11
0.781997
21
1.769
0
LINE
8
BLACK
6
CONTINUOUS
10
0.781997
20
1.769
11
0.78481
21
1.76338
0
LINE
8
BLACK
6
CONTINUOUS
10
0.78481
20
1.76338
11
0.78494
21
1.76274
0
LINE
8
BLACK
6
CONTINUOUS
10
0.78494
20
1.76274
11
0.785257
21
1.76217
0
LINE
8
BLACK
6
CONTINUOUS
10
0.785257
20
1.76217
11
0.788069
21
1.75092
0
LINE
8
BLACK
6
CONTINUOUS
10
0.788069
20
1.75092
11
0.788057
21
1.75019
0
LINE
8
BLACK
6
CONTINUOUS
10
0.788057
20
1.75019
11
0.788245
21
1.74949
0
LINE
8
BLACK
6
CONTINUOUS
10
0.788245
20
1.74949
11
0.788245
21
1.74105
0
LINE
8
BLACK
6
CONTINUOUS
10
0.788245
20
1.74105
11
0.788057
21
1.74035
0
LINE
8
BLACK
6
CONTINUOUS
10
0.788057
20
1.74035
11
0.788069
21
1.73962
0
LINE
8
BLACK
6
CONTINUOUS
10
0.788069
20
1.73962
11
0.785257
21
1.72837
0
LINE
8
BLACK
6
CONTINUOUS
10
0.785257
20
1.72837
11
0.78494
21
1.7278
0
LINE
8
BLACK
6
CONTINUOUS
10
0.78494
20
1.7278
11
0.78481
21
1.72716
0
LINE
8
BLACK
6
CONTINUOUS
10
0.78481
20
1.72716
11
0.781997
21
1.72154
0
LINE
8
BLACK
6
CONTINUOUS
10
0.781997
20
1.72154
11
0.781367
21
1.72083
0
LINE
8
BLACK
6
CONTINUOUS
10
0.781367
20
1.72083
11
0.780891
21
1.72001
0
LINE
8
BLACK
6
CONTINUOUS
10
0.780891
20
1.72001
11
0.775267
21
1.71438
0
LINE
8
BLACK
6
CONTINUOUS
10
0.775267
20
1.71438
11
0.774091
21
1.7137
0
LINE
8
BLACK
6
CONTINUOUS
10
0.774091
20
1.7137
11
0.772959
21
1.71295
0
LINE
8
BLACK
6
CONTINUOUS
10
0.772959
20
1.71295
11
0.764522
21
1.71014
0
LINE
8
BLACK
6
CONTINUOUS
10
0.764522
20
1.71014
11
0.763573
21
1.71009
0
LINE
8
BLACK
6
CONTINUOUS
10
0.763573
20
1.71009
11
0.762655
21
1.70984
0
LINE
8
BLACK
6
CONTINUOUS
10
0.762655
20
1.70984
11
0.75703
21
1.70984
0
LINE
8
BLACK
6
CONTINUOUS
10
0.75703
20
1.70984
11
0.756112
21
1.71009
0
LINE
8
BLACK
6
CONTINUOUS
10
0.756112
20
1.71009
11
0.755163
21
1.71014
0
LINE
8
BLACK
6
CONTINUOUS
10
0.755163
20
1.71014
11
0.746726
21
1.71295
0
LINE
8
BLACK
6
CONTINUOUS
10
0.746726
20
1.71295
11
0.745594
21
1.7137
0
LINE
8
BLACK
6
CONTINUOUS
10
0.745594
20
1.7137
11
0.744418
21
1.71438
0
LINE
8
BLACK
6
CONTINUOUS
10
0.744418
20
1.71438
11
0.741606
21
1.71719
0
LINE
8
BLACK
6
CONTINUOUS
10
0.741606
20
1.71719
11
0.740077
21
1.71984
0
LINE
8
BLACK
6
CONTINUOUS
10
0.740077
20
1.71984
11
0.740077
21
1.7229
0
LINE
8
BLACK
6
CONTINUOUS
10
0.740077
20
1.7229
11
0.741606
21
1.72555
0
LINE
8
BLACK
6
CONTINUOUS
10
0.741606
20
1.72555
11
0.744253
21
1.72707
0
LINE
8
BLACK
6
CONTINUOUS
10
0.744253
20
1.72707
11
0.74731
21
1.72707
0
LINE
8
BLACK
6
CONTINUOUS
10
0.74731
20
1.72707
11
0.749958
21
1.72555
0
LINE
8
BLACK
6
CONTINUOUS
10
0.749958
20
1.72555
11
0.751784
21
1.72372
0
LINE
8
BLACK
6
CONTINUOUS
10
0.751784
20
1.72372
11
0.757989
21
1.72165
0
LINE
8
BLACK
6
CONTINUOUS
10
0.757989
20
1.72165
11
0.761696
21
1.72165
0
LINE
8
BLACK
6
CONTINUOUS
10
0.761696
20
1.72165
11
0.767901
21
1.72372
0
LINE
8
BLACK
6
CONTINUOUS
10
0.767901
20
1.72372
11
0.771862
21
1.72768
0
LINE
8
BLACK
6
CONTINUOUS
10
0.771862
20
1.72768
11
0.773956
21
1.73187
0
LINE
8
BLACK
6
CONTINUOUS
10
0.773956
20
1.73187
11
0.776434
21
1.74178
0
LINE
8
BLACK
6
CONTINUOUS
10
0.776434
20
1.74178
11
0.776434
21
1.74876
0
LINE
8
BLACK
6
CONTINUOUS
10
0.776434
20
1.74876
11
0.773956
21
1.75868
0
LINE
8
BLACK
6
CONTINUOUS
10
0.773956
20
1.75868
11
0.771862
21
1.76287
0
LINE
8
BLACK
6
CONTINUOUS
10
0.771862
20
1.76287
11
0.767901
21
1.76683
0
LINE
8
BLACK
6
CONTINUOUS
10
0.767901
20
1.76683
11
0.761696
21
1.76889
0
LINE
8
BLACK
6
CONTINUOUS
10
0.761696
20
1.76889
11
0.757989
21
1.76889
0
LINE
8
BLACK
6
CONTINUOUS
10
0.757989
20
1.76889
11
0.751784
21
1.76683
0
LINE
8
BLACK
6
CONTINUOUS
10
0.751784
20
1.76683
11
0.749958
21
1.765
0
LINE
8
BLACK
6
CONTINUOUS
10
0.749958
20
1.765
11
0.74731
21
1.76347
0
LINE
8
BLACK
6
CONTINUOUS
10
0.74731
20
1.76347
11
0.744253
21
1.76347
0
LINE
8
BLACK
6
CONTINUOUS
10
0.744253
20
1.76347
11
0.741606
21
1.765
0
LINE
8
BLACK
6
CONTINUOUS
10
0.741606
20
1.765
11
0.740077
21
1.76765
0
LINE
8
BLACK
6
CONTINUOUS
10
0.740077
20
1.76765
11
0.740077
21
1.7707
0
LINE
8
BLACK
6
CONTINUOUS
10
0.740077
20
1.7707
11
0.741606
21
1.77335
0
LINE
8
BLACK
6
CONTINUOUS
10
0.741606
20
1.77335
11
0.744418
21
1.77616
0
LINE
8
BLACK
6
CONTINUOUS
10
0.744418
20
1.77616
11
0.745594
21
1.77684
0
LINE
8
BLACK
6
CONTINUOUS
10
0.745594
20
1.77684
11
0.746726
21
1.77759
0
LINE
8
BLACK
6
CONTINUOUS
10
0.746726
20
1.77759
11
0.755163
21
1.7804
0
LINE
8
BLACK
6
CONTINUOUS
10
0.755163
20
1.7804
11
0.756112
21
1.78046
0
LINE
8
BLACK
6
CONTINUOUS
10
0.756112
20
1.78046
11
0.75703
21
1.78071
0
LINE
8
BLACK
6
CONTINUOUS
10
0.75703
20
1.78071
11
0.762655
21
1.78071
0
LINE
8
BLACK
6
CONTINUOUS
10
0.762655
20
1.78071
11
0.763573
21
1.78046
0
LINE
8
BLACK
6
CONTINUOUS
10
0.86122
20
1.77991
11
0.863382
21
1.77775
0
LINE
8
BLACK
6
CONTINUOUS
10
0.863382
20
1.77775
11
0.864173
21
1.7748
0
LINE
8
BLACK
6
CONTINUOUS
10
0.864173
20
1.7748
11
0.864173
21
1.73358
0
LINE
8
BLACK
6
CONTINUOUS
10
0.864173
20
1.73358
11
0.866241
21
1.72737
0
LINE
8
BLACK
6
CONTINUOUS
10
0.866241
20
1.72737
11
0.869894
21
1.72372
0
LINE
8
BLACK
6
CONTINUOUS
10
0.869894
20
1.72372
11
0.876099
21
1.72165
0
LINE
8
BLACK
6
CONTINUOUS
10
0.876099
20
1.72165
11
0.880765
21
1.72165
0
LINE
8
BLACK
6
CONTINUOUS
10
0.880765
20
1.72165
11
0.883718
21
1.72086
0
LINE
8
BLACK
6
CONTINUOUS
10
0.883718
20
1.72086
11
0.885879
21
1.7187
0
LINE
8
BLACK
6
CONTINUOUS
10
0.885879
20
1.7187
11
0.88667
21
1.71575
0
LINE
8
BLACK
6
CONTINUOUS
10
0.88667
20
1.71575
11
0.885879
21
1.71279
0
LINE
8
BLACK
6
CONTINUOUS
10
0.885879
20
1.71279
11
0.883718
21
1.71063
0
LINE
8
BLACK
6
CONTINUOUS
10
0.883718
20
1.71063
11
0.880765
21
1.70984
0
LINE
8
BLACK
6
CONTINUOUS
10
0.880765
20
1.70984
11
0.875141
21
1.70984
0
LINE
8
BLACK
6
CONTINUOUS
10
0.875141
20
1.70984
11
0.874222
21
1.71009
0
LINE
8
BLACK
6
CONTINUOUS
10
0.874222
20
1.71009
11
0.873273
21
1.71014
0
LINE
8
BLACK
6
CONTINUOUS
10
0.873273
20
1.71014
11
0.864837
21
1.71295
0
LINE
8
BLACK
6
CONTINUOUS
10
0.864837
20
1.71295
11
0.863704
21
1.7137
0
LINE
8
BLACK
6
CONTINUOUS
10
0.863704
20
1.7137
11
0.862528
21
1.71438
0
LINE
8
BLACK
6
CONTINUOUS
10
0.862528
20
1.71438
11
0.856904
21
1.72001
0
LINE
8
BLACK
6
CONTINUOUS
10
0.856904
20
1.72001
11
0.856225
21
1.72118
0
LINE
8
BLACK
6
CONTINUOUS
10
0.856225
20
1.72118
11
0.855477
21
1.72231
0
LINE
8
BLACK
6
CONTINUOUS
10
0.855477
20
1.72231
11
0.852665
21
1.73075
0
LINE
8
BLACK
6
CONTINUOUS
10
0.852665
20
1.73075
11
0.852608
21
1.7317
0
LINE
8
BLACK
6
CONTINUOUS
10
0.852608
20
1.7317
11
0.852362
21
1.73262
0
LINE
8
BLACK
6
CONTINUOUS
10
0.852362
20
1.73262
11
0.852362
21
1.7748
0
LINE
8
BLACK
6
CONTINUOUS
10
0.852362
20
1.7748
11
0.853153
21
1.77775
0
LINE
8
BLACK
6
CONTINUOUS
10
0.853153
20
1.77775
11
0.855315
21
1.77991
0
LINE
8
BLACK
6
CONTINUOUS
10
0.855315
20
1.77991
11
0.858268
21
1.78071
0
LINE
8
BLACK
6
CONTINUOUS
10
0.858268
20
1.78071
11
0.86122
21
1.77991
0
LINE
8
BLACK
6
CONTINUOUS
10
0.820405
20
1.78042
11
0.820765
21
1.7804
0
LINE
8
BLACK
6
CONTINUOUS
10
0.820765
20
1.7804
11
0.821755
21
1.77975
0
LINE
8
BLACK
6
CONTINUOUS
10
0.821755
20
1.77975
11
0.822816
21
1.77922
0
LINE
8
BLACK
6
CONTINUOUS
10
0.822816
20
1.77922
11
0.823015
21
1.77892
0
LINE
8
BLACK
6
CONTINUOUS
10
0.823015
20
1.77892
11
0.823316
21
1.77872
0
LINE
8
BLACK
6
CONTINUOUS
10
0.823316
20
1.77872
11
0.823847
21
1.77766
0
LINE
8
BLACK
6
CONTINUOUS
10
0.823847
20
1.77766
11
0.8245
21
1.77667
0
LINE
8
BLACK
6
CONTINUOUS
10
0.8245
20
1.77667
11
0.844185
21
1.71761
0
LINE
8
BLACK
6
CONTINUOUS
10
0.844185
20
1.71761
11
0.844368
21
1.71456
0
LINE
8
BLACK
6
CONTINUOUS
10
0.844368
20
1.71456
11
0.843001
21
1.71183
0
LINE
8
BLACK
6
CONTINUOUS
10
0.843001
20
1.71183
11
0.84045
21
1.71014
0
LINE
8
BLACK
6
CONTINUOUS
10
0.84045
20
1.71014
11
0.837399
21
1.70996
0
LINE
8
BLACK
6
CONTINUOUS
10
0.837399
20
1.70996
11
0.834665
21
1.71133
0
LINE
8
BLACK
6
CONTINUOUS
10
0.834665
20
1.71133
11
0.83298
21
1.71388
0
LINE
8
BLACK
6
CONTINUOUS
10
0.83298
20
1.71388
11
0.828702
21
1.72671
0
LINE
8
BLACK
6
CONTINUOUS
10
0.828702
20
1.72671
11
0.809093
21
1.72671
0
LINE
8
BLACK
6
CONTINUOUS
10
0.809093
20
1.72671
11
0.804815
21
1.71388
0
LINE
8
BLACK
6
CONTINUOUS
10
0.804815
20
1.71388
11
0.803131
21
1.71133
0
LINE
8
BLACK
6
CONTINUOUS
10
0.803131
20
1.71133
11
0.800397
21
1.70996
0
LINE
8
BLACK
6
CONTINUOUS
10
0.800397
20
1.70996
11
0.797345
21
1.71014
0
LINE
8
BLACK
6
CONTINUOUS
10
0.797345
20
1.71014
11
0.794794
21
1.71183
0
LINE
8
BLACK
6
CONTINUOUS
10
0.794794
20
1.71183
11
0.793427
21
1.71456
0
LINE
8
BLACK
6
CONTINUOUS
10
0.793427
20
1.71456
11
0.79361
21
1.71761
0
LINE
8
BLACK
6
CONTINUOUS
10
0.79361
20
1.71761
11
0.813295
21
1.77667
0
LINE
8
BLACK
6
CONTINUOUS
10
0.813295
20
1.77667
11
0.813949
21
1.77766
0
LINE
8
BLACK
6
CONTINUOUS
10
0.813949
20
1.77766
11
0.814479
21
1.77872
0
LINE
8
BLACK
6
CONTINUOUS
10
0.814479
20
1.77872
11
0.81478
21
1.77892
0
LINE
8
BLACK
6
CONTINUOUS
10
0.81478
20
1.77892
11
0.814979
21
1.77922
0
LINE
8
BLACK
6
CONTINUOUS
10
0.814979
20
1.77922
11
0.816041
21
1.77975
0
LINE
8
BLACK
6
CONTINUOUS
10
0.816041
20
1.77975
11
0.81703
21
1.7804
0
LINE
8
BLACK
6
CONTINUOUS
10
0.81703
20
1.7804
11
0.817391
21
1.78042
0
LINE
8
BLACK
6
CONTINUOUS
10
0.817391
20
1.78042
11
0.817714
21
1.78059
0
LINE
8
BLACK
6
CONTINUOUS
10
0.817714
20
1.78059
11
0.818898
21
1.78051
0
LINE
8
BLACK
6
CONTINUOUS
10
0.818898
20
1.78051
11
0.820082
21
1.78059
0
LINE
8
BLACK
6
CONTINUOUS
10
0.820082
20
1.78059
11
0.820405
21
1.78042
0
LINE
8
BLACK
6
CONTINUOUS
10
0.81303
20
1.73852
11
0.824765
21
1.73852
0
LINE
8
BLACK
6
CONTINUOUS
10
0.824765
20
1.73852
11
0.818898
21
1.75613
0
LINE
8
BLACK
6
CONTINUOUS
10
0.818898
20
1.75613
11
0.81303
21
1.73852
0
LINE
8
BLACK
6
CONTINUOUS
10
0.787823
20
1.80571
11
0.785662
21
1.80787
0
LINE
8
BLACK
6
CONTINUOUS
10
0.785662
20
1.80787
11
0.784871
21
1.81082
0
LINE
8
BLACK
6
CONTINUOUS
10
0.784871
20
1.81082
11
0.785662
21
1.81378
0
LINE
8
BLACK
6
CONTINUOUS
10
0.785662
20
1.81378
11
0.787823
21
1.81594
0
LINE
8
BLACK
6
CONTINUOUS
10
0.787823
20
1.81594
11
0.790776
21
1.81673
0
LINE
8
BLACK
6
CONTINUOUS
10
0.790776
20
1.81673
11
0.801744
21
1.81673
0
LINE
8
BLACK
6
CONTINUOUS
10
0.801744
20
1.81673
11
0.801744
21
1.86988
0
LINE
8
BLACK
6
CONTINUOUS
10
0.801744
20
1.86988
11
0.802092
21
1.87118
0
LINE
8
BLACK
6
CONTINUOUS
10
0.802092
20
1.87118
11
0.802355
21
1.8725
0
LINE
8
BLACK
6
CONTINUOUS
10
0.802355
20
1.8725
11
0.802484
21
1.87264
0
LINE
8
BLACK
6
CONTINUOUS
10
0.802484
20
1.87264
11
0.802535
21
1.87283
0
LINE
8
BLACK
6
CONTINUOUS
10
0.802535
20
1.87283
11
0.803486
21
1.87378
0
LINE
8
BLACK
6
CONTINUOUS
10
0.803486
20
1.87378
11
0.804373
21
1.87479
0
LINE
8
BLACK
6
CONTINUOUS
10
0.804373
20
1.87479
11
0.804558
21
1.87486
0
LINE
8
BLACK
6
CONTINUOUS
10
0.804558
20
1.87486
11
0.804696
21
1.87499
0
LINE
8
BLACK
6
CONTINUOUS
10
0.804696
20
1.87499
11
0.805995
21
1.87534
0
LINE
8
BLACK
6
CONTINUOUS
10
0.805995
20
1.87534
11
0.807269
21
1.87577
0
LINE
8
BLACK
6
CONTINUOUS
10
0.807269
20
1.87577
11
0.80746
21
1.87573
0
LINE
8
BLACK
6
CONTINUOUS
10
0.80746
20
1.87573
11
0.807649
21
1.87578
0
LINE
8
BLACK
6
CONTINUOUS
10
0.807649
20
1.87578
11
0.808948
21
1.87544
0
LINE
8
BLACK
6
CONTINUOUS
10
0.808948
20
1.87544
11
0.810266
21
1.87517
0
LINE
8
BLACK
6
CONTINUOUS
10
0.810266
20
1.87517
11
0.810413
21
1.87504
0
LINE
8
BLACK
6
CONTINUOUS
10
0.810413
20
1.87504
11
0.810602
21
1.87499
0
LINE
8
BLACK
6
CONTINUOUS
10
0.810602
20
1.87499
11
0.811553
21
1.87404
0
LINE
8
BLACK
6
CONTINUOUS
10
0.811553
20
1.87404
11
0.812563
21
1.87315
0
LINE
8
BLACK
6
CONTINUOUS
10
0.812563
20
1.87315
11
0.817863
21
1.8652
0
LINE
8
BLACK
6
CONTINUOUS
10
0.817863
20
1.8652
11
0.822396
21
1.86067
0
LINE
8
BLACK
6
CONTINUOUS
10
0.822396
20
1.86067
11
0.827163
21
1.85829
0
LINE
8
BLACK
6
CONTINUOUS
10
0.827163
20
1.85829
11
0.82945
21
1.85626
0
LINE
8
BLACK
6
CONTINUOUS
10
0.82945
20
1.85626
11
0.830417
21
1.85336
0
LINE
8
BLACK
6
CONTINUOUS
10
0.830417
20
1.85336
11
0.829804
21
1.85037
0
LINE
8
BLACK
6
CONTINUOUS
10
0.829804
20
1.85037
11
0.827776
21
1.84808
0
LINE
8
BLACK
6
CONTINUOUS
10
0.827776
20
1.84808
11
0.824876
21
1.84711
0
LINE
8
BLACK
6
CONTINUOUS
10
0.824876
20
1.84711
11
0.821881
21
1.84772
0
LINE
8
BLACK
6
CONTINUOUS
10
0.821881
20
1.84772
11
0.816257
21
1.85054
0
LINE
8
BLACK
6
CONTINUOUS
10
0.816257
20
1.85054
11
0.815545
21
1.85117
0
LINE
8
BLACK
6
CONTINUOUS
10
0.815545
20
1.85117
11
0.814722
21
1.85164
0
LINE
8
BLACK
6
CONTINUOUS
10
0.814722
20
1.85164
11
0.813555
21
1.85281
0
LINE
8
BLACK
6
CONTINUOUS
10
0.813555
20
1.85281
11
0.813555
21
1.81673
0
LINE
8
BLACK
6
CONTINUOUS
10
0.813555
20
1.81673
11
0.824522
21
1.81673
0
LINE
8
BLACK
6
CONTINUOUS
10
0.824522
20
1.81673
11
0.827475
21
1.81594
0
LINE
8
BLACK
6
CONTINUOUS
10
0.827475
20
1.81594
11
0.829636
21
1.81378
0
LINE
8
BLACK
6
CONTINUOUS
10
0.829636
20
1.81378
11
0.830427
21
1.81082
0
LINE
8
BLACK
6
CONTINUOUS
10
0.830427
20
1.81082
11
0.829636
21
1.80787
0
LINE
8
BLACK
6
CONTINUOUS
10
0.829636
20
1.80787
11
0.827475
21
1.80571
0
LINE
8
BLACK
6
CONTINUOUS
10
0.827475
20
1.80571
11
0.824522
21
1.80492
0
LINE
8
BLACK
6
CONTINUOUS
10
0.824522
20
1.80492
11
0.790776
21
1.80492
0
LINE
8
BLACK
6
CONTINUOUS
10
0.790776
20
1.80492
11
0.787823
21
1.80571
0
LINE
8
BLACK
6
CONTINUOUS
10
0.87364
20
1.87543
11
0.874969
21
1.87516
0
LINE
8
BLACK
6
CONTINUOUS
10
0.874969
20
1.87516
11
0.880594
21
1.87235
0
LINE
8
BLACK
6
CONTINUOUS
10
0.880594
20
1.87235
11
0.881305
21
1.87172
0
LINE
8
BLACK
6
CONTINUOUS
10
0.881305
20
1.87172
11
0.882129
21
1.87124
0
LINE
8
BLACK
6
CONTINUOUS
10
0.882129
20
1.87124
11
0.887753
21
1.86562
0
LINE
8
BLACK
6
CONTINUOUS
10
0.887753
20
1.86562
11
0.887779
21
1.86557
0
LINE
8
BLACK
6
CONTINUOUS
10
0.887779
20
1.86557
11
0.887823
21
1.86555
0
LINE
8
BLACK
6
CONTINUOUS
10
0.887823
20
1.86555
11
0.888541
21
1.86425
0
LINE
8
BLACK
6
CONTINUOUS
10
0.888541
20
1.86425
11
0.889281
21
1.86297
0
LINE
8
BLACK
6
CONTINUOUS
10
0.889281
20
1.86297
11
0.889281
21
1.86292
0
LINE
8
BLACK
6
CONTINUOUS
10
0.889281
20
1.86292
11
0.889306
21
1.86287
0
LINE
8
BLACK
6
CONTINUOUS
10
0.889306
20
1.86287
11
0.892118
21
1.85163
0
LINE
8
BLACK
6
CONTINUOUS
10
0.892118
20
1.85163
11
0.892106
21
1.8509
0
LINE
8
BLACK
6
CONTINUOUS
10
0.892106
20
1.8509
11
0.892295
21
1.85019
0
LINE
8
BLACK
6
CONTINUOUS
10
0.892295
20
1.85019
11
0.892295
21
1.83051
0
LINE
8
BLACK
6
CONTINUOUS
10
0.892295
20
1.83051
11
0.892106
21
1.82981
0
LINE
8
BLACK
6
CONTINUOUS
10
0.892106
20
1.82981
11
0.892118
21
1.82908
0
LINE
8
BLACK
6
CONTINUOUS
10
0.892118
20
1.82908
11
0.889306
21
1.81783
0
LINE
8
BLACK
6
CONTINUOUS
10
0.889306
20
1.81783
11
0.889281
21
1.81778
0
LINE
8
BLACK
6
CONTINUOUS
10
0.889281
20
1.81778
11
0.889281
21
1.81773
0
LINE
8
BLACK
6
CONTINUOUS
10
0.889281
20
1.81773
11
0.888541
21
1.81645
0
LINE
8
BLACK
6
CONTINUOUS
10
0.888541
20
1.81645
11
0.887823
21
1.81516
0
LINE
8
BLACK
6
CONTINUOUS
10
0.887823
20
1.81516
11
0.887779
21
1.81513
0
LINE
8
BLACK
6
CONTINUOUS
10
0.887779
20
1.81513
11
0.887753
21
1.81508
0
LINE
8
BLACK
6
CONTINUOUS
10
0.887753
20
1.81508
11
0.882129
21
1.80946
0
LINE
8
BLACK
6
CONTINUOUS
10
0.882129
20
1.80946
11
0.881305
21
1.80898
0
LINE
8
BLACK
6
CONTINUOUS
10
0.881305
20
1.80898
11
0.880594
21
1.80835
0
LINE
8
BLACK
6
CONTINUOUS
10
0.880594
20
1.80835
11
0.874969
21
1.80554
0
LINE
8
BLACK
6
CONTINUOUS
10
0.874969
20
1.80554
11
0.87364
21
1.80527
0
LINE
8
BLACK
6
CONTINUOUS
10
0.87364
20
1.80527
11
0.872328
21
1.80492
0
LINE
8
BLACK
6
CONTINUOUS
10
0.872328
20
1.80492
11
0.86108
21
1.80492
0
LINE
8
BLACK
6
CONTINUOUS
10
0.86108
20
1.80492
11
0.859769
21
1.80527
0
LINE
8
BLACK
6
CONTINUOUS
10
0.859769
20
1.80527
11
0.858439
21
1.80554
0
LINE
8
BLACK
6
CONTINUOUS
10
0.858439
20
1.80554
11
0.852815
21
1.80835
0
LINE
8
BLACK
6
CONTINUOUS
10
0.852815
20
1.80835
11
0.852103
21
1.80898
0
LINE
8
BLACK
6
CONTINUOUS
10
0.852103
20
1.80898
11
0.85128
21
1.80946
0
LINE
8
BLACK
6
CONTINUOUS
10
0.85128
20
1.80946
11
0.845655
21
1.81508
0
LINE
8
BLACK
6
CONTINUOUS
10
0.845655
20
1.81508
11
0.84563
21
1.81513
0
LINE
8
BLACK
6
CONTINUOUS
10
0.84563
20
1.81513
11
0.845586
21
1.81516
0
LINE
8
BLACK
6
CONTINUOUS
10
0.845586
20
1.81516
11
0.844868
21
1.81645
0
LINE
8
BLACK
6
CONTINUOUS
10
0.844868
20
1.81645
11
0.844127
21
1.81773
0
LINE
8
BLACK
6
CONTINUOUS
10
0.844127
20
1.81773
11
0.844127
21
1.81778
0
LINE
8
BLACK
6
CONTINUOUS
10
0.844127
20
1.81778
11
0.844102
21
1.81783
0
LINE
8
BLACK
6
CONTINUOUS
10
0.844102
20
1.81783
11
0.84129
21
1.82908
0
LINE
8
BLACK
6
CONTINUOUS
10
0.84129
20
1.82908
11
0.841302
21
1.82981
0
LINE
8
BLACK
6
CONTINUOUS
10
0.841302
20
1.82981
11
0.841114
21
1.83051
0
LINE
8
BLACK
6
CONTINUOUS
10
0.841114
20
1.83051
11
0.841114
21
1.85019
0
LINE
8
BLACK
6
CONTINUOUS
10
0.841114
20
1.85019
11
0.841302
21
1.8509
0
LINE
8
BLACK
6
CONTINUOUS
10
0.841302
20
1.8509
11
0.84129
21
1.85163
0
LINE
8
BLACK
6
CONTINUOUS
10
0.84129
20
1.85163
11
0.844102
21
1.86287
0
LINE
8
BLACK
6
CONTINUOUS
10
0.844102
20
1.86287
11
0.844127
21
1.86292
0
LINE
8
BLACK
6
CONTINUOUS
10
0.844127
20
1.86292
11
0.844127
21
1.86297
0
LINE
8
BLACK
6
CONTINUOUS
10
0.844127
20
1.86297
11
0.844868
21
1.86425
0
LINE
8
BLACK
6
CONTINUOUS
10
0.844868
20
1.86425
11
0.845586
21
1.86555
0
LINE
8
BLACK
6
CONTINUOUS
10
0.845586
20
1.86555
11
0.84563
21
1.86557
0
LINE
8
BLACK
6
CONTINUOUS
10
0.84563
20
1.86557
11
0.845655
21
1.86562
0
LINE
8
BLACK
6
CONTINUOUS
10
0.845655
20
1.86562
11
0.85128
21
1.87124
0
LINE
8
BLACK
6
CONTINUOUS
10
0.85128
20
1.87124
11
0.852103
21
1.87172
0
LINE
8
BLACK
6
CONTINUOUS
10
0.852103
20
1.87172
11
0.852815
21
1.87235
0
LINE
8
BLACK
6
CONTINUOUS
10
0.852815
20
1.87235
11
0.858439
21
1.87516
0
LINE
8
BLACK
6
CONTINUOUS
10
0.858439
20
1.87516
11
0.859769
21
1.87543
0
LINE
8
BLACK
6
CONTINUOUS
10
0.859769
20
1.87543
11
0.86108
21
1.87578
0
LINE
8
BLACK
6
CONTINUOUS
10
0.86108
20
1.87578
11
0.872328
21
1.87578
0
LINE
8
BLACK
6
CONTINUOUS
10
0.872328
20
1.87578
11
0.87364
21
1.87543
0
LINE
8
BLACK
6
CONTINUOUS
10
0.862474
20
1.86397
11
0.858954
21
1.86221
0
LINE
8
BLACK
6
CONTINUOUS
10
0.858954
20
1.86221
11
0.855164
21
1.85842
0
LINE
8
BLACK
6
CONTINUOUS
10
0.855164
20
1.85842
11
0.852925
21
1.84947
0
LINE
8
BLACK
6
CONTINUOUS
10
0.852925
20
1.84947
11
0.852925
21
1.83124
0
LINE
8
BLACK
6
CONTINUOUS
10
0.852925
20
1.83124
11
0.855164
21
1.82228
0
LINE
8
BLACK
6
CONTINUOUS
10
0.855164
20
1.82228
11
0.858954
21
1.81849
0
LINE
8
BLACK
6
CONTINUOUS
10
0.858954
20
1.81849
11
0.862474
21
1.81673
0
LINE
8
BLACK
6
CONTINUOUS
10
0.862474
20
1.81673
11
0.870934
21
1.81673
0
LINE
8
BLACK
6
CONTINUOUS
10
0.870934
20
1.81673
11
0.874455
21
1.81849
0
LINE
8
BLACK
6
CONTINUOUS
10
0.874455
20
1.81849
11
0.878245
21
1.82228
0
LINE
8
BLACK
6
CONTINUOUS
10
0.878245
20
1.82228
11
0.880484
21
1.83124
0
LINE
8
BLACK
6
CONTINUOUS
10
0.880484
20
1.83124
11
0.880484
21
1.84947
0
LINE
8
BLACK
6
CONTINUOUS
10
0.880484
20
1.84947
11
0.878245
21
1.85842
0
LINE
8
BLACK
6
CONTINUOUS
10
0.878245
20
1.85842
11
0.874455
21
1.86221
0
LINE
8
BLACK
6
CONTINUOUS
10
0.874455
20
1.86221
11
0.870934
21
1.86397
0
LINE
8
BLACK
6
CONTINUOUS
10
0.870934
20
1.86397
11
0.862474
21
1.86397
0
LINE
8
BLACK
6
CONTINUOUS
10
0.654182
20
1.87546
11
0.65541
21
1.87526
0
LINE
8
BLACK
6
CONTINUOUS
10
0.65541
20
1.87526
11
0.655643
21
1.87507
0
LINE
8
BLACK
6
CONTINUOUS
10
0.655643
20
1.87507
11
0.655934
21
1.87499
0
LINE
8
BLACK
6
CONTINUOUS
10
0.655934
20
1.87499
11
0.656813
21
1.87411
0
LINE
8
BLACK
6
CONTINUOUS
10
0.656813
20
1.87411
11
0.657776
21
1.87333
0
LINE
8
BLACK
6
CONTINUOUS
10
0.657776
20
1.87333
11
0.657882
21
1.87304
0
LINE
8
BLACK
6
CONTINUOUS
10
0.657882
20
1.87304
11
0.658095
21
1.87283
0
LINE
8
BLACK
6
CONTINUOUS
10
0.658095
20
1.87283
11
0.658417
21
1.87163
0
LINE
8
BLACK
6
CONTINUOUS
10
0.658417
20
1.87163
11
0.658857
21
1.87047
0
LINE
8
BLACK
6
CONTINUOUS
10
0.658857
20
1.87047
11
0.661669
21
1.84235
0
LINE
8
BLACK
6
CONTINUOUS
10
0.661669
20
1.84235
11
0.661497
21
1.84129
0
LINE
8
BLACK
6
CONTINUOUS
10
0.661497
20
1.84129
11
0.661497
21
1.84023
0
LINE
8
BLACK
6
CONTINUOUS
10
0.661497
20
1.84023
11
0.661254
21
1.83981
0
LINE
8
BLACK
6
CONTINUOUS
10
0.661254
20
1.83981
11
0.661176
21
1.83933
0
LINE
8
BLACK
6
CONTINUOUS
10
0.661176
20
1.83933
11
0.660501
21
1.8385
0
LINE
8
BLACK
6
CONTINUOUS
10
0.660501
20
1.8385
11
0.659969
21
1.83758
0
LINE
8
BLACK
6
CONTINUOUS
10
0.659969
20
1.83758
11
0.659548
21
1.83734
0
LINE
8
BLACK
6
CONTINUOUS
10
0.659548
20
1.83734
11
0.65924
21
1.83696
0
LINE
8
BLACK
6
CONTINUOUS
10
0.65924
20
1.83696
11
0.658244
21
1.83659
0
LINE
8
BLACK
6
CONTINUOUS
10
0.658244
20
1.83659
11
0.657321
21
1.83605
0
LINE
8
BLACK
6
CONTINUOUS
10
0.657321
20
1.83605
11
0.656835
21
1.83605
0
LINE
8
BLACK
6
CONTINUOUS
10
0.656835
20
1.83605
11
0.656381
21
1.83588
0
LINE
8
BLACK
6
CONTINUOUS
10
0.656381
20
1.83588
11
0.65533
21
1.83605
0
LINE
8
BLACK
6
CONTINUOUS
10
0.65533
20
1.83605
11
0.654264
21
1.83605
0
LINE
8
BLACK
6
CONTINUOUS
10
0.654264
20
1.83605
11
0.653843
21
1.8363
0
LINE
8
BLACK
6
CONTINUOUS
10
0.653843
20
1.8363
11
0.653364
21
1.83637
0
LINE
8
BLACK
6
CONTINUOUS
10
0.653364
20
1.83637
11
0.652539
21
1.83705
0
LINE
8
BLACK
6
CONTINUOUS
10
0.652539
20
1.83705
11
0.651617
21
1.83758
0
LINE
8
BLACK
6
CONTINUOUS
10
0.651617
20
1.83758
11
0.649483
21
1.83972
0
LINE
8
BLACK
6
CONTINUOUS
10
0.649483
20
1.83972
11
0.645962
21
1.84148
0
LINE
8
BLACK
6
CONTINUOUS
10
0.645962
20
1.84148
11
0.63469
21
1.84148
0
LINE
8
BLACK
6
CONTINUOUS
10
0.63469
20
1.84148
11
0.63117
21
1.83972
0
LINE
8
BLACK
6
CONTINUOUS
10
0.63117
20
1.83972
11
0.629713
21
1.83826
0
LINE
8
BLACK
6
CONTINUOUS
10
0.629713
20
1.83826
11
0.627953
21
1.83474
0
LINE
8
BLACK
6
CONTINUOUS
10
0.627953
20
1.83474
11
0.627953
21
1.82347
0
LINE
8
BLACK
6
CONTINUOUS
10
0.627953
20
1.82347
11
0.629713
21
1.81995
0
LINE
8
BLACK
6
CONTINUOUS
10
0.629713
20
1.81995
11
0.63117
21
1.81849
0
LINE
8
BLACK
6
CONTINUOUS
10
0.63117
20
1.81849
11
0.63469
21
1.81673
0
LINE
8
BLACK
6
CONTINUOUS
10
0.63469
20
1.81673
11
0.645962
21
1.81673
0
LINE
8
BLACK
6
CONTINUOUS
10
0.645962
20
1.81673
11
0.649483
21
1.81849
0
LINE
8
BLACK
6
CONTINUOUS
10
0.649483
20
1.81849
11
0.651617
21
1.82062
0
LINE
8
BLACK
6
CONTINUOUS
10
0.651617
20
1.82062
11
0.654265
21
1.82215
0
LINE
8
BLACK
6
CONTINUOUS
10
0.654265
20
1.82215
11
0.657321
21
1.82215
0
LINE
8
BLACK
6
CONTINUOUS
10
0.657321
20
1.82215
11
0.659969
21
1.82062
0
LINE
8
BLACK
6
CONTINUOUS
10
0.659969
20
1.82062
11
0.661497
21
1.81798
0
LINE
8
BLACK
6
CONTINUOUS
10
0.661497
20
1.81798
11
0.661497
21
1.81492
0
LINE
8
BLACK
6
CONTINUOUS
10
0.661497
20
1.81492
11
0.659969
21
1.81227
0
LINE
8
BLACK
6
CONTINUOUS
10
0.659969
20
1.81227
11
0.657157
21
1.80946
0
LINE
8
BLACK
6
CONTINUOUS
10
0.657157
20
1.80946
11
0.656333
21
1.80898
0
LINE
8
BLACK
6
CONTINUOUS
10
0.656333
20
1.80898
11
0.655622
21
1.80835
0
LINE
8
BLACK
6
CONTINUOUS
10
0.655622
20
1.80835
11
0.649998
21
1.80554
0
LINE
8
BLACK
6
CONTINUOUS
10
0.649998
20
1.80554
11
0.648668
21
1.80527
0
LINE
8
BLACK
6
CONTINUOUS
10
0.648668
20
1.80527
11
0.647357
21
1.80492
0
LINE
8
BLACK
6
CONTINUOUS
10
0.647357
20
1.80492
11
0.633296
21
1.80492
0
LINE
8
BLACK
6
CONTINUOUS
10
0.633296
20
1.80492
11
0.631985
21
1.80527
0
LINE
8
BLACK
6
CONTINUOUS
10
0.631985
20
1.80527
11
0.630655
21
1.80554
0
LINE
8
BLACK
6
CONTINUOUS
10
0.630655
20
1.80554
11
0.625031
21
1.80835
0
LINE
8
BLACK
6
CONTINUOUS
10
0.625031
20
1.80835
11
0.624319
21
1.80898
0
LINE
8
BLACK
6
CONTINUOUS
10
0.624319
20
1.80898
11
0.623496
21
1.80946
0
LINE
8
BLACK
6
CONTINUOUS
10
0.623496
20
1.80946
11
0.620684
21
1.81227
0
LINE
8
BLACK
6
CONTINUOUS
10
0.620684
20
1.81227
11
0.620208
21
1.8131
0
LINE
8
BLACK
6
CONTINUOUS
10
0.620208
20
1.8131
11
0.619577
21
1.81381
0
LINE
8
BLACK
6
CONTINUOUS
10
0.619577
20
1.81381
11
0.616765
21
1.81943
0
LINE
8
BLACK
6
CONTINUOUS
10
0.616765
20
1.81943
11
0.616493
21
1.82076
0
LINE
8
BLACK
6
CONTINUOUS
10
0.616493
20
1.82076
11
0.616142
21
1.82207
0
LINE
8
BLACK
6
CONTINUOUS
10
0.616142
20
1.82207
11
0.616142
21
1.83613
0
LINE
8
BLACK
6
CONTINUOUS
10
0.616142
20
1.83613
11
0.616493
21
1.83744
0
LINE
8
BLACK
6
CONTINUOUS
10
0.616493
20
1.83744
11
0.616765
21
1.83877
0
LINE
8
BLACK
6
CONTINUOUS
10
0.616765
20
1.83877
11
0.619577
21
1.8444
0
LINE
8
BLACK
6
CONTINUOUS
10
0.619577
20
1.8444
11
0.620208
21
1.84511
0
LINE
8
BLACK
6
CONTINUOUS
10
0.620208
20
1.84511
11
0.620684
21
1.84593
0
LINE
8
BLACK
6
CONTINUOUS
10
0.620684
20
1.84593
11
0.623496
21
1.84875
0
LINE
8
BLACK
6
CONTINUOUS
10
0.623496
20
1.84875
11
0.624319
21
1.84922
0
LINE
8
BLACK
6
CONTINUOUS
10
0.624319
20
1.84922
11
0.625031
21
1.84985
0
LINE
8
BLACK
6
CONTINUOUS
10
0.625031
20
1.84985
11
0.630655
21
1.85266
0
LINE
8
BLACK
6
CONTINUOUS
10
0.630655
20
1.85266
11
0.631985
21
1.85294
0
LINE
8
BLACK
6
CONTINUOUS
10
0.631985
20
1.85294
11
0.633296
21
1.85329
0
LINE
8
BLACK
6
CONTINUOUS
10
0.633296
20
1.85329
11
0.647357
21
1.85329
0
LINE
8
BLACK
6
CONTINUOUS
10
0.647357
20
1.85329
11
0.648668
21
1.85294
0
LINE
8
BLACK
6
CONTINUOUS
10
0.648668
20
1.85294
11
0.648742
21
1.85292
0
LINE
8
BLACK
6
CONTINUOUS
10
0.648742
20
1.85292
11
0.647636
21
1.86397
0
LINE
8
BLACK
6
CONTINUOUS
10
0.647636
20
1.86397
11
0.624859
21
1.86397
0
LINE
8
BLACK
6
CONTINUOUS
10
0.624859
20
1.86397
11
0.621907
21
1.86476
0
LINE
8
BLACK
6
CONTINUOUS
10
0.621907
20
1.86476
11
0.619745
21
1.86693
0
LINE
8
BLACK
6
CONTINUOUS
10
0.619745
20
1.86693
11
0.618954
21
1.86988
0
LINE
8
BLACK
6
CONTINUOUS
10
0.618954
20
1.86988
11
0.619745
21
1.87283
0
LINE
8
BLACK
6
CONTINUOUS
10
0.619745
20
1.87283
11
0.621907
21
1.87499
0
LINE
8
BLACK
6
CONTINUOUS
10
0.621907
20
1.87499
11
0.624859
21
1.87578
0
LINE
8
BLACK
6
CONTINUOUS
10
0.624859
20
1.87578
11
0.652981
21
1.87578
0
LINE
8
BLACK
6
CONTINUOUS
10
0.652981
20
1.87578
11
0.654182
21
1.87546
0
LINE
8
BLACK
6
CONTINUOUS
10
0.758341
20
1.87543
11
0.759671
21
1.87516
0
LINE
8
BLACK
6
CONTINUOUS
10
0.759671
20
1.87516
11
0.765296
21
1.87235
0
LINE
8
BLACK
6
CONTINUOUS
10
0.765296
20
1.87235
11
0.766007
21
1.87172
0
LINE
8
BLACK
6
CONTINUOUS
10
0.766007
20
1.87172
11
0.76683
21
1.87124
0
LINE
8
BLACK
6
CONTINUOUS
10
0.76683
20
1.87124
11
0.769643
21
1.86843
0
LINE
8
BLACK
6
CONTINUOUS
10
0.769643
20
1.86843
11
0.770118
21
1.86761
0
LINE
8
BLACK
6
CONTINUOUS
10
0.770118
20
1.86761
11
0.770749
21
1.8669
0
LINE
8
BLACK
6
CONTINUOUS
10
0.770749
20
1.8669
11
0.773561
21
1.86127
0
LINE
8
BLACK
6
CONTINUOUS
10
0.773561
20
1.86127
11
0.773833
21
1.85994
0
LINE
8
BLACK
6
CONTINUOUS
10
0.773833
20
1.85994
11
0.774184
21
1.85863
0
LINE
8
BLACK
6
CONTINUOUS
10
0.774184
20
1.85863
11
0.774184
21
1.85582
0
LINE
8
BLACK
6
CONTINUOUS
10
0.774184
20
1.85582
11
0.773833
21
1.85451
0
LINE
8
BLACK
6
CONTINUOUS
10
0.773833
20
1.85451
11
0.773561
21
1.85318
0
LINE
8
BLACK
6
CONTINUOUS
10
0.773561
20
1.85318
11
0.770749
21
1.84755
0
LINE
8
BLACK
6
CONTINUOUS
10
0.770749
20
1.84755
11
0.770118
21
1.84684
0
LINE
8
BLACK
6
CONTINUOUS
10
0.770118
20
1.84684
11
0.769643
21
1.84602
0
LINE
8
BLACK
6
CONTINUOUS
10
0.769643
20
1.84602
11
0.768194
21
1.84457
0
LINE
8
BLACK
6
CONTINUOUS
10
0.768194
20
1.84457
11
0.769643
21
1.84312
0
LINE
8
BLACK
6
CONTINUOUS
10
0.769643
20
1.84312
11
0.770118
21
1.8423
0
LINE
8
BLACK
6
CONTINUOUS
10
0.770118
20
1.8423
11
0.770749
21
1.84159
0
LINE
8
BLACK
6
CONTINUOUS
10
0.770749
20
1.84159
11
0.773561
21
1.83596
0
LINE
8
BLACK
6
CONTINUOUS
10
0.773561
20
1.83596
11
0.773833
21
1.83463
0
LINE
8
BLACK
6
CONTINUOUS
10
0.773833
20
1.83463
11
0.774184
21
1.83332
0
LINE
8
BLACK
6
CONTINUOUS
10
0.774184
20
1.83332
11
0.774184
21
1.82207
0
LINE
8
BLACK
6
CONTINUOUS
10
0.774184
20
1.82207
11
0.773833
21
1.82076
0
LINE
8
BLACK
6
CONTINUOUS
10
0.773833
20
1.82076
11
0.773561
21
1.81943
0
LINE
8
BLACK
6
CONTINUOUS
10
0.773561
20
1.81943
11
0.770749
21
1.81381
0
LINE
8
BLACK
6
CONTINUOUS
10
0.770749
20
1.81381
11
0.770118
21
1.8131
0
LINE
8
BLACK
6
CONTINUOUS
10
0.770118
20
1.8131
11
0.769643
21
1.81227
0
LINE
8
BLACK
6
CONTINUOUS
10
0.769643
20
1.81227
11
0.76683
21
1.80946
0
LINE
8
BLACK
6
CONTINUOUS
10
0.76683
20
1.80946
11
0.766007
21
1.80898
0
LINE
8
BLACK
6
CONTINUOUS
10
0.766007
20
1.80898
11
0.765296
21
1.80835
0
LINE
8
BLACK
6
CONTINUOUS
10
0.765296
20
1.80835
11
0.759671
21
1.80554
0
LINE
8
BLACK
6
CONTINUOUS
10
0.759671
20
1.80554
11
0.758341
21
1.80527
0
LINE
8
BLACK
6
CONTINUOUS
10
0.758341
20
1.80527
11
0.75703
21
1.80492
0
LINE
8
BLACK
6
CONTINUOUS
10
0.75703
20
1.80492
11
0.745782
21
1.80492
0
LINE
8
BLACK
6
CONTINUOUS
10
0.745782
20
1.80492
11
0.744471
21
1.80527
0
LINE
8
BLACK
6
CONTINUOUS
10
0.744471
20
1.80527
11
0.743141
21
1.80554
0
LINE
8
BLACK
6
CONTINUOUS
10
0.743141
20
1.80554
11
0.737516
21
1.80835
0
LINE
8
BLACK
6
CONTINUOUS
10
0.737516
20
1.80835
11
0.736805
21
1.80898
0
LINE
8
BLACK
6
CONTINUOUS
10
0.736805
20
1.80898
11
0.735982
21
1.80946
0
LINE
8
BLACK
6
CONTINUOUS
10
0.735982
20
1.80946
11
0.73317
21
1.81227
0
LINE
8
BLACK
6
CONTINUOUS
10
0.73317
20
1.81227
11
0.732694
21
1.8131
0
LINE
8
BLACK
6
CONTINUOUS
10
0.732694
20
1.8131
11
0.732063
21
1.81381
0
LINE
8
BLACK
6
CONTINUOUS
10
0.732063
20
1.81381
11
0.729251
21
1.81943
0
LINE
8
BLACK
6
CONTINUOUS
10
0.729251
20
1.81943
11
0.728979
21
1.82076
0
LINE
8
BLACK
6
CONTINUOUS
10
0.728979
20
1.82076
11
0.728628
21
1.82207
0
LINE
8
BLACK
6
CONTINUOUS
10
0.728628
20
1.82207
11
0.728628
21
1.83332
0
LINE
8
BLACK
6
CONTINUOUS
10
0.728628
20
1.83332
11
0.728979
21
1.83463
0
LINE
8
BLACK
6
CONTINUOUS
10
0.728979
20
1.83463
11
0.729251
21
1.83596
0
LINE
8
BLACK
6
CONTINUOUS
10
0.729251
20
1.83596
11
0.732063
21
1.84159
0
LINE
8
BLACK
6
CONTINUOUS
10
0.732063
20
1.84159
11
0.732694
21
1.8423
0
LINE
8
BLACK
6
CONTINUOUS
10
0.732694
20
1.8423
11
0.73317
21
1.84312
0
LINE
8
BLACK
6
CONTINUOUS
10
0.73317
20
1.84312
11
0.734618
21
1.84457
0
LINE
8
BLACK
6
CONTINUOUS
10
0.734618
20
1.84457
11
0.733169
21
1.84602
0
LINE
8
BLACK
6
CONTINUOUS
10
0.733169
20
1.84602
11
0.732694
21
1.84684
0
LINE
8
BLACK
6
CONTINUOUS
10
0.732694
20
1.84684
11
0.732063
21
1.84755
0
LINE
8
BLACK
6
CONTINUOUS
10
0.732063
20
1.84755
11
0.729251
21
1.85318
0
LINE
8
BLACK
6
CONTINUOUS
10
0.729251
20
1.85318
11
0.728979
21
1.85451
0
LINE
8
BLACK
6
CONTINUOUS
10
0.728979
20
1.85451
11
0.728628
21
1.85582
0
LINE
8
BLACK
6
CONTINUOUS
10
0.728628
20
1.85582
11
0.728628
21
1.85863
0
LINE
8
BLACK
6
CONTINUOUS
10
0.728628
20
1.85863
11
0.728979
21
1.85994
0
LINE
8
BLACK
6
CONTINUOUS
10
0.728979
20
1.85994
11
0.729251
21
1.86127
0
LINE
8
BLACK
6
CONTINUOUS
10
0.729251
20
1.86127
11
0.732063
21
1.8669
0
LINE
8
BLACK
6
CONTINUOUS
10
0.732063
20
1.8669
11
0.732694
21
1.86761
0
LINE
8
BLACK
6
CONTINUOUS
10
0.732694
20
1.86761
11
0.73317
21
1.86843
0
LINE
8
BLACK
6
CONTINUOUS
10
0.73317
20
1.86843
11
0.735982
21
1.87124
0
LINE
8
BLACK
6
CONTINUOUS
10
0.735982
20
1.87124
11
0.736805
21
1.87172
0
LINE
8
BLACK
6
CONTINUOUS
10
0.736805
20
1.87172
11
0.737516
21
1.87235
0
LINE
8
BLACK
6
CONTINUOUS
10
0.737516
20
1.87235
11
0.743141
21
1.87516
0
LINE
8
BLACK
6
CONTINUOUS
10
0.743141
20
1.87516
11
0.744471
21
1.87543
0
LINE
8
BLACK
6
CONTINUOUS
10
0.744471
20
1.87543
11
0.745782
21
1.87578
0
LINE
8
BLACK
6
CONTINUOUS
10
0.745782
20
1.87578
11
0.75703
21
1.87578
0
LINE
8
BLACK
6
CONTINUOUS
10
0.75703
20
1.87578
11
0.758341
21
1.87543
0
LINE
8
BLACK
6
CONTINUOUS
10
0.747176
20
1.83866
11
0.743656
21
1.8369
0
LINE
8
BLACK
6
CONTINUOUS
10
0.743656
20
1.8369
11
0.742199
21
1.83545
0
LINE
8
BLACK
6
CONTINUOUS
10
0.742199
20
1.83545
11
0.740439
21
1.83193
0
LINE
8
BLACK
6
CONTINUOUS
10
0.740439
20
1.83193
11
0.740439
21
1.82347
0
LINE
8
BLACK
6
CONTINUOUS
10
0.740439
20
1.82347
11
0.742199
21
1.81995
0
LINE
8
BLACK
6
CONTINUOUS
10
0.742199
20
1.81995
11
0.743656
21
1.81849
0
LINE
8
BLACK
6
CONTINUOUS
10
0.743656
20
1.81849
11
0.747176
21
1.81673
0
LINE
8
BLACK
6
CONTINUOUS
10
0.747176
20
1.81673
11
0.755636
21
1.81673
0
LINE
8
BLACK
6
CONTINUOUS
10
0.755636
20
1.81673
11
0.759156
21
1.81849
0
LINE
8
BLACK
6
CONTINUOUS
10
0.759156
20
1.81849
11
0.760613
21
1.81995
0
LINE
8
BLACK
6
CONTINUOUS
10
0.760613
20
1.81995
11
0.762373
21
1.82347
0
LINE
8
BLACK
6
CONTINUOUS
10
0.762373
20
1.82347
11
0.762373
21
1.83193
0
LINE
8
BLACK
6
CONTINUOUS
10
0.762373
20
1.83193
11
0.760613
21
1.83545
0
LINE
8
BLACK
6
CONTINUOUS
10
0.760613
20
1.83545
11
0.759156
21
1.8369
0
LINE
8
BLACK
6
CONTINUOUS
10
0.759156
20
1.8369
11
0.755636
21
1.83866
0
LINE
8
BLACK
6
CONTINUOUS
10
0.755636
20
1.83866
11
0.747176
21
1.83866
0
LINE
8
BLACK
6
CONTINUOUS
10
0.747176
20
1.86397
11
0.743656
21
1.86221
0
LINE
8
BLACK
6
CONTINUOUS
10
0.743656
20
1.86221
11
0.742199
21
1.86076
0
LINE
8
BLACK
6
CONTINUOUS
10
0.742199
20
1.86076
11
0.740439
21
1.85724
0
LINE
8
BLACK
6
CONTINUOUS
10
0.740439
20
1.85724
11
0.740439
21
1.85721
0
LINE
8
BLACK
6
CONTINUOUS
10
0.740439
20
1.85721
11
0.742199
21
1.85369
0
LINE
8
BLACK
6
CONTINUOUS
10
0.742199
20
1.85369
11
0.743656
21
1.85224
0
LINE
8
BLACK
6
CONTINUOUS
10
0.743656
20
1.85224
11
0.747176
21
1.85048
0
LINE
8
BLACK
6
CONTINUOUS
10
0.747176
20
1.85048
11
0.755636
21
1.85048
0
LINE
8
BLACK
6
CONTINUOUS
10
0.755636
20
1.85048
11
0.759156
21
1.85224
0
LINE
8
BLACK
6
CONTINUOUS
10
0.759156
20
1.85224
11
0.760613
21
1.85369
0
LINE
8
BLACK
6
CONTINUOUS
10
0.760613
20
1.85369
11
0.762373
21
1.85721
0
LINE
8
BLACK
6
CONTINUOUS
10
0.762373
20
1.85721
11
0.762373
21
1.85724
0
LINE
8
BLACK
6
CONTINUOUS
10
0.762373
20
1.85724
11
0.760613
21
1.86076
0
LINE
8
BLACK
6
CONTINUOUS
10
0.760613
20
1.86076
11
0.759156
21
1.86221
0
LINE
8
BLACK
6
CONTINUOUS
10
0.759156
20
1.86221
11
0.755636
21
1.86397
0
LINE
8
BLACK
6
CONTINUOUS
10
0.755636
20
1.86397
11
0.747176
21
1.86397
0
LINE
8
BLACK
6
CONTINUOUS
10
1.08153
20
1.87711
11
1.08322
21
1.87456
0
LINE
8
BLACK
6
CONTINUOUS
10
1.08322
20
1.87456
11
1.09728
21
1.83238
0
LINE
8
BLACK
6
CONTINUOUS
10
1.09728
20
1.83238
11
1.09734
21
1.83143
0
LINE
8
BLACK
6
CONTINUOUS
10
1.09734
20
1.83143
11
1.09758
21
1.83051
0
LINE
8
BLACK
6
CONTINUOUS
10
1.09758
20
1.83051
11
1.09743
21
1.82993
0
LINE
8
BLACK
6
CONTINUOUS
10
1.09743
20
1.82993
11
1.09746
21
1.82933
0
LINE
8
BLACK
6
CONTINUOUS
10
1.09746
20
1.82933
11
1.09704
21
1.82847
0
LINE
8
BLACK
6
CONTINUOUS
10
1.09704
20
1.82847
11
1.09679
21
1.82756
0
LINE
8
BLACK
6
CONTINUOUS
10
1.09679
20
1.82756
11
1.09636
21
1.82713
0
LINE
8
BLACK
6
CONTINUOUS
10
1.09636
20
1.82713
11
1.09609
21
1.82659
0
LINE
8
BLACK
6
CONTINUOUS
10
1.09609
20
1.82659
11
1.0953
21
1.82607
0
LINE
8
BLACK
6
CONTINUOUS
10
1.0953
20
1.82607
11
1.09463
21
1.82539
0
LINE
8
BLACK
6
CONTINUOUS
10
1.09463
20
1.82539
11
1.09405
21
1.82524
0
LINE
8
BLACK
6
CONTINUOUS
10
1.09405
20
1.82524
11
1.09354
21
1.82491
0
LINE
8
BLACK
6
CONTINUOUS
10
1.09354
20
1.82491
11
1.09259
21
1.82485
0
LINE
8
BLACK
6
CONTINUOUS
10
1.09259
20
1.82485
11
1.09168
21
1.8246
0
LINE
8
BLACK
6
CONTINUOUS
10
1.09168
20
1.8246
11
1.06946
21
1.8246
0
LINE
8
BLACK
6
CONTINUOUS
10
1.06946
20
1.8246
11
1.06946
21
1.81082
0
LINE
8
BLACK
6
CONTINUOUS
10
1.06946
20
1.81082
11
1.06867
21
1.80787
0
LINE
8
BLACK
6
CONTINUOUS
10
1.06867
20
1.80787
11
1.06651
21
1.80571
0
LINE
8
BLACK
6
CONTINUOUS
10
1.06651
20
1.80571
11
1.06355
21
1.80492
0
LINE
8
BLACK
6
CONTINUOUS
10
1.06355
20
1.80492
11
1.0606
21
1.80571
0
LINE
8
BLACK
6
CONTINUOUS
10
1.0606
20
1.80571
11
1.05844
21
1.80787
0
LINE
8
BLACK
6
CONTINUOUS
10
1.05844
20
1.80787
11
1.05765
21
1.81082
0
LINE
8
BLACK
6
CONTINUOUS
10
1.05765
20
1.81082
11
1.05765
21
1.8246
0
LINE
8
BLACK
6
CONTINUOUS
10
1.05765
20
1.8246
11
1.05512
21
1.8246
0
LINE
8
BLACK
6
CONTINUOUS
10
1.05512
20
1.8246
11
1.05217
21
1.82539
0
LINE
8
BLACK
6
CONTINUOUS
10
1.05217
20
1.82539
11
1.05
21
1.82756
0
LINE
8
BLACK
6
CONTINUOUS
10
1.05
20
1.82756
11
1.04921
21
1.83051
0
LINE
8
BLACK
6
CONTINUOUS
10
1.04921
20
1.83051
11
1.05
21
1.83346
0
LINE
8
BLACK
6
CONTINUOUS
10
1.05
20
1.83346
11
1.05217
21
1.83562
0
LINE
8
BLACK
6
CONTINUOUS
10
1.05217
20
1.83562
11
1.05512
21
1.83641
0
LINE
8
BLACK
6
CONTINUOUS
10
1.05512
20
1.83641
11
1.05765
21
1.83641
0
LINE
8
BLACK
6
CONTINUOUS
10
1.05765
20
1.83641
11
1.05765
21
1.85019
0
LINE
8
BLACK
6
CONTINUOUS
10
1.05765
20
1.85019
11
1.05844
21
1.85315
0
LINE
8
BLACK
6
CONTINUOUS
10
1.05844
20
1.85315
11
1.0606
21
1.85531
0
LINE
8
BLACK
6
CONTINUOUS
10
1.0606
20
1.85531
11
1.06355
21
1.8561
0
LINE
8
BLACK
6
CONTINUOUS
10
1.06355
20
1.8561
11
1.06651
21
1.85531
0
LINE
8
BLACK
6
CONTINUOUS
10
1.06651
20
1.85531
11
1.06867
21
1.85315
0
LINE
8
BLACK
6
CONTINUOUS
10
1.06867
20
1.85315
11
1.06946
21
1.85019
0
LINE
8
BLACK
6
CONTINUOUS
10
1.06946
20
1.85019
11
1.06946
21
1.83641
0
LINE
8
BLACK
6
CONTINUOUS
10
1.06946
20
1.83641
11
1.08348
21
1.83641
0
LINE
8
BLACK
6
CONTINUOUS
10
1.08348
20
1.83641
11
1.07201
21
1.87082
0
LINE
8
BLACK
6
CONTINUOUS
10
1.07201
20
1.87082
11
1.07183
21
1.87388
0
LINE
8
BLACK
6
CONTINUOUS
10
1.07183
20
1.87388
11
1.0732
21
1.87661
0
LINE
8
BLACK
6
CONTINUOUS
10
1.0732
20
1.87661
11
1.07575
21
1.87829
0
LINE
8
BLACK
6
CONTINUOUS
10
1.07575
20
1.87829
11
1.0788
21
1.87848
0
LINE
8
BLACK
6
CONTINUOUS
10
1.0788
20
1.87848
11
1.08153
21
1.87711
0
LINE
8
BLACK
6
CONTINUOUS
10
0.536182
20
1.87543
11
0.537512
21
1.87516
0
LINE
8
BLACK
6
CONTINUOUS
10
0.537512
20
1.87516
11
0.543136
21
1.87235
0
LINE
8
BLACK
6
CONTINUOUS
10
0.543136
20
1.87235
11
0.543847
21
1.87172
0
LINE
8
BLACK
6
CONTINUOUS
10
0.543847
20
1.87172
11
0.544671
21
1.87124
0
LINE
8
BLACK
6
CONTINUOUS
10
0.544671
20
1.87124
11
0.547483
21
1.86843
0
LINE
8
BLACK
6
CONTINUOUS
10
0.547483
20
1.86843
11
0.547958
21
1.86761
0
LINE
8
BLACK
6
CONTINUOUS
10
0.547958
20
1.86761
11
0.548589
21
1.8669
0
LINE
8
BLACK
6
CONTINUOUS
10
0.548589
20
1.8669
11
0.551401
21
1.86127
0
LINE
8
BLACK
6
CONTINUOUS
10
0.551401
20
1.86127
11
0.551532
21
1.86063
0
LINE
8
BLACK
6
CONTINUOUS
10
0.551532
20
1.86063
11
0.551848
21
1.86006
0
LINE
8
BLACK
6
CONTINUOUS
10
0.551848
20
1.86006
11
0.554661
21
1.84881
0
LINE
8
BLACK
6
CONTINUOUS
10
0.554661
20
1.84881
11
0.554648
21
1.84809
0
LINE
8
BLACK
6
CONTINUOUS
10
0.554648
20
1.84809
11
0.554837
21
1.84738
0
LINE
8
BLACK
6
CONTINUOUS
10
0.554837
20
1.84738
11
0.554837
21
1.83332
0
LINE
8
BLACK
6
CONTINUOUS
10
0.554837
20
1.83332
11
0.554648
21
1.83262
0
LINE
8
BLACK
6
CONTINUOUS
10
0.554648
20
1.83262
11
0.554661
21
1.83189
0
LINE
8
BLACK
6
CONTINUOUS
10
0.554661
20
1.83189
11
0.551848
21
1.82064
0
LINE
8
BLACK
6
CONTINUOUS
10
0.551848
20
1.82064
11
0.551532
21
1.82007
0
LINE
8
BLACK
6
CONTINUOUS
10
0.551532
20
1.82007
11
0.551401
21
1.81943
0
LINE
8
BLACK
6
CONTINUOUS
10
0.551401
20
1.81943
11
0.548589
21
1.81381
0
LINE
8
BLACK
6
CONTINUOUS
10
0.548589
20
1.81381
11
0.547958
21
1.8131
0
LINE
8
BLACK
6
CONTINUOUS
10
0.547958
20
1.8131
11
0.547483
21
1.81227
0
LINE
8
BLACK
6
CONTINUOUS
10
0.547483
20
1.81227
11
0.544671
21
1.80946
0
LINE
8
BLACK
6
CONTINUOUS
10
0.544671
20
1.80946
11
0.543847
21
1.80898
0
LINE
8
BLACK
6
CONTINUOUS
10
0.543847
20
1.80898
11
0.543136
21
1.80835
0
LINE
8
BLACK
6
CONTINUOUS
10
0.543136
20
1.80835
11
0.537512
21
1.80554
0
LINE
8
BLACK
6
CONTINUOUS
10
0.537512
20
1.80554
11
0.536182
21
1.80527
0
LINE
8
BLACK
6
CONTINUOUS
10
0.536182
20
1.80527
11
0.534871
21
1.80492
0
LINE
8
BLACK
6
CONTINUOUS
10
0.534871
20
1.80492
11
0.529246
21
1.80492
0
LINE
8
BLACK
6
CONTINUOUS
10
0.529246
20
1.80492
11
0.527935
21
1.80527
0
LINE
8
BLACK
6
CONTINUOUS
10
0.527935
20
1.80527
11
0.526605
21
1.80554
0
LINE
8
BLACK
6
CONTINUOUS
10
0.526605
20
1.80554
11
0.520981
21
1.80835
0
LINE
8
BLACK
6
CONTINUOUS
10
0.520981
20
1.80835
11
0.52027
21
1.80898
0
LINE
8
BLACK
6
CONTINUOUS
10
0.52027
20
1.80898
11
0.519446
21
1.80946
0
LINE
8
BLACK
6
CONTINUOUS
10
0.519446
20
1.80946
11
0.516634
21
1.81227
0
LINE
8
BLACK
6
CONTINUOUS
10
0.516634
20
1.81227
11
0.516159
21
1.8131
0
LINE
8
BLACK
6
CONTINUOUS
10
0.516159
20
1.8131
11
0.515528
21
1.81381
0
LINE
8
BLACK
6
CONTINUOUS
10
0.515528
20
1.81381
11
0.512716
21
1.81943
0
LINE
8
BLACK
6
CONTINUOUS
10
0.512716
20
1.81943
11
0.512585
21
1.82007
0
LINE
8
BLACK
6
CONTINUOUS
10
0.512585
20
1.82007
11
0.512269
21
1.82064
0
LINE
8
BLACK
6
CONTINUOUS
10
0.512269
20
1.82064
11
0.509456
21
1.83189
0
LINE
8
BLACK
6
CONTINUOUS
10
0.509456
20
1.83189
11
0.509469
21
1.83262
0
LINE
8
BLACK
6
CONTINUOUS
10
0.509469
20
1.83262
11
0.50928
21
1.83332
0
LINE
8
BLACK
6
CONTINUOUS
10
0.50928
20
1.83332
11
0.50928
21
1.84738
0
LINE
8
BLACK
6
CONTINUOUS
10
0.50928
20
1.84738
11
0.509469
21
1.84809
0
LINE
8
BLACK
6
CONTINUOUS
10
0.509469
20
1.84809
11
0.509456
21
1.84881
0
LINE
8
BLACK
6
CONTINUOUS
10
0.509456
20
1.84881
11
0.512269
21
1.86006
0
LINE
8
BLACK
6
CONTINUOUS
10
0.512269
20
1.86006
11
0.512585
21
1.86063
0
LINE
8
BLACK
6
CONTINUOUS
10
0.512585
20
1.86063
11
0.512716
21
1.86127
0
LINE
8
BLACK
6
CONTINUOUS
10
0.512716
20
1.86127
11
0.515528
21
1.8669
0
LINE
8
BLACK
6
CONTINUOUS
10
0.515528
20
1.8669
11
0.516159
21
1.86761
0
LINE
8
BLACK
6
CONTINUOUS
10
0.516159
20
1.86761
11
0.516634
21
1.86843
0
LINE
8
BLACK
6
CONTINUOUS
10
0.516634
20
1.86843
11
0.519446
21
1.87124
0
LINE
8
BLACK
6
CONTINUOUS
10
0.519446
20
1.87124
11
0.52027
21
1.87172
0
LINE
8
BLACK
6
CONTINUOUS
10
0.52027
20
1.87172
11
0.520981
21
1.87235
0
LINE
8
BLACK
6
CONTINUOUS
10
0.520981
20
1.87235
11
0.526605
21
1.87516
0
LINE
8
BLACK
6
CONTINUOUS
10
0.526605
20
1.87516
11
0.527935
21
1.87543
0
LINE
8
BLACK
6
CONTINUOUS
10
0.527935
20
1.87543
11
0.529246
21
1.87578
0
LINE
8
BLACK
6
CONTINUOUS
10
0.529246
20
1.87578
11
0.534871
21
1.87578
0
LINE
8
BLACK
6
CONTINUOUS
10
0.534871
20
1.87578
11
0.536182
21
1.87543
0
LINE
8
BLACK
6
CONTINUOUS
10
0.53064
20
1.86397
11
0.52712
21
1.86221
0
LINE
8
BLACK
6
CONTINUOUS
10
0.52712
20
1.86221
11
0.525663
21
1.86076
0
LINE
8
BLACK
6
CONTINUOUS
10
0.525663
20
1.86076
11
0.52357
21
1.85657
0
LINE
8
BLACK
6
CONTINUOUS
10
0.52357
20
1.85657
11
0.521091
21
1.84665
0
LINE
8
BLACK
6
CONTINUOUS
10
0.521091
20
1.84665
11
0.521091
21
1.83405
0
LINE
8
BLACK
6
CONTINUOUS
10
0.521091
20
1.83405
11
0.52357
21
1.82413
0
LINE
8
BLACK
6
CONTINUOUS
10
0.52357
20
1.82413
11
0.525663
21
1.81995
0
LINE
8
BLACK
6
CONTINUOUS
10
0.525663
20
1.81995
11
0.52712
21
1.81849
0
LINE
8
BLACK
6
CONTINUOUS
10
0.52712
20
1.81849
11
0.53064
21
1.81673
0
LINE
8
BLACK
6
CONTINUOUS
10
0.53064
20
1.81673
11
0.533477
21
1.81673
0
LINE
8
BLACK
6
CONTINUOUS
10
0.533477
20
1.81673
11
0.536997
21
1.81849
0
LINE
8
BLACK
6
CONTINUOUS
10
0.536997
20
1.81849
11
0.538454
21
1.81995
0
LINE
8
BLACK
6
CONTINUOUS
10
0.538454
20
1.81995
11
0.540547
21
1.82413
0
LINE
8
BLACK
6
CONTINUOUS
10
0.540547
20
1.82413
11
0.543026
21
1.83405
0
LINE
8
BLACK
6
CONTINUOUS
10
0.543026
20
1.83405
11
0.543026
21
1.84665
0
LINE
8
BLACK
6
CONTINUOUS
10
0.543026
20
1.84665
11
0.540547
21
1.85657
0
LINE
8
BLACK
6
CONTINUOUS
10
0.540547
20
1.85657
11
0.538454
21
1.86076
0
LINE
8
BLACK
6
CONTINUOUS
10
0.538454
20
1.86076
11
0.536997
21
1.86221
0
LINE
8
BLACK
6
CONTINUOUS
10
0.536997
20
1.86221
11
0.533477
21
1.86397
0
LINE
8
BLACK
6
CONTINUOUS
10
0.533477
20
1.86397
11
0.53064
21
1.86397
0
LINE
8
BLACK
6
CONTINUOUS
10
0.696474
20
1.87543
11
0.697804
21
1.87516
0
LINE
8
BLACK
6
CONTINUOUS
10
0.697804
20
1.87516
11
0.703428
21
1.87235
0
LINE
8
BLACK
6
CONTINUOUS
10
0.703428
20
1.87235
11
0.70414
21
1.87172
0
LINE
8
BLACK
6
CONTINUOUS
10
0.70414
20
1.87172
11
0.704963
21
1.87124
0
LINE
8
BLACK
6
CONTINUOUS
10
0.704963
20
1.87124
11
0.707775
21
1.86843
0
LINE
8
BLACK
6
CONTINUOUS
10
0.707775
20
1.86843
11
0.70807
21
1.86792
0
LINE
8
BLACK
6
CONTINUOUS
10
0.70807
20
1.86792
11
0.708513
21
1.86753
0
LINE
8
BLACK
6
CONTINUOUS
10
0.708513
20
1.86753
11
0.714138
21
1.85909
0
LINE
8
BLACK
6
CONTINUOUS
10
0.714138
20
1.85909
11
0.714462
21
1.85814
0
LINE
8
BLACK
6
CONTINUOUS
10
0.714462
20
1.85814
11
0.714953
21
1.85725
0
LINE
8
BLACK
6
CONTINUOUS
10
0.714953
20
1.85725
11
0.717765
21
1.846
0
LINE
8
BLACK
6
CONTINUOUS
10
0.717765
20
1.846
11
0.717753
21
1.84527
0
LINE
8
BLACK
6
CONTINUOUS
10
0.717753
20
1.84527
11
0.717941
21
1.84457
0
LINE
8
BLACK
6
CONTINUOUS
10
0.717941
20
1.84457
11
0.717941
21
1.82207
0
LINE
8
BLACK
6
CONTINUOUS
10
0.717941
20
1.82207
11
0.71759
21
1.82076
0
LINE
8
BLACK
6
CONTINUOUS
10
0.71759
20
1.82076
11
0.717318
21
1.81943
0
LINE
8
BLACK
6
CONTINUOUS
10
0.717318
20
1.81943
11
0.714506
21
1.81381
0
LINE
8
BLACK
6
CONTINUOUS
10
0.714506
20
1.81381
11
0.713875
21
1.8131
0
LINE
8
BLACK
6
CONTINUOUS
10
0.713875
20
1.8131
11
0.7134
21
1.81227
0
LINE
8
BLACK
6
CONTINUOUS
10
0.7134
20
1.81227
11
0.710588
21
1.80946
0
LINE
8
BLACK
6
CONTINUOUS
10
0.710588
20
1.80946
11
0.709764
21
1.80898
0
LINE
8
BLACK
6
CONTINUOUS
10
0.709764
20
1.80898
11
0.709053
21
1.80835
0
LINE
8
BLACK
6
CONTINUOUS
10
0.709053
20
1.80835
11
0.703428
21
1.80554
0
LINE
8
BLACK
6
CONTINUOUS
10
0.703428
20
1.80554
11
0.702099
21
1.80527
0
LINE
8
BLACK
6
CONTINUOUS
10
0.702099
20
1.80527
11
0.700787
21
1.80492
0
LINE
8
BLACK
6
CONTINUOUS
10
0.700787
20
1.80492
11
0.689539
21
1.80492
0
LINE
8
BLACK
6
CONTINUOUS
10
0.689539
20
1.80492
11
0.688228
21
1.80527
0
LINE
8
BLACK
6
CONTINUOUS
10
0.688228
20
1.80527
11
0.686898
21
1.80554
0
LINE
8
BLACK
6
CONTINUOUS
10
0.686898
20
1.80554
11
0.681273
21
1.80835
0
LINE
8
BLACK
6
CONTINUOUS
10
0.681273
20
1.80835
11
0.680562
21
1.80898
0
LINE
8
BLACK
6
CONTINUOUS
10
0.680562
20
1.80898
11
0.679739
21
1.80946
0
LINE
8
BLACK
6
CONTINUOUS
10
0.679739
20
1.80946
11
0.676927
21
1.81227
0
LINE
8
BLACK
6
CONTINUOUS
10
0.676927
20
1.81227
11
0.676451
21
1.8131
0
LINE
8
BLACK
6
CONTINUOUS
10
0.676451
20
1.8131
11
0.67582
21
1.81381
0
LINE
8
BLACK
6
CONTINUOUS
10
0.67582
20
1.81381
11
0.673008
21
1.81943
0
LINE
8
BLACK
6
CONTINUOUS
10
0.673008
20
1.81943
11
0.672736
21
1.82076
0
LINE
8
BLACK
6
CONTINUOUS
10
0.672736
20
1.82076
11
0.672385
21
1.82207
0
LINE
8
BLACK
6
CONTINUOUS
10
0.672385
20
1.82207
11
0.672385
21
1.83613
0
LINE
8
BLACK
6
CONTINUOUS
10
0.672385
20
1.83613
11
0.672736
21
1.83744
0
LINE
8
BLACK
6
CONTINUOUS
10
0.672736
20
1.83744
11
0.673008
21
1.83877
0
LINE
8
BLACK
6
CONTINUOUS
10
0.673008
20
1.83877
11
0.67582
21
1.8444
0
LINE
8
BLACK
6
CONTINUOUS
10
0.67582
20
1.8444
11
0.676451
21
1.84511
0
LINE
8
BLACK
6
CONTINUOUS
10
0.676451
20
1.84511
11
0.676926
21
1.84593
0
LINE
8
BLACK
6
CONTINUOUS
10
0.676926
20
1.84593
11
0.679739
21
1.84875
0
LINE
8
BLACK
6
CONTINUOUS
10
0.679739
20
1.84875
11
0.680562
21
1.84922
0
LINE
8
BLACK
6
CONTINUOUS
10
0.680562
20
1.84922
11
0.681273
21
1.84985
0
LINE
8
BLACK
6
CONTINUOUS
10
0.681273
20
1.84985
11
0.686898
21
1.85266
0
LINE
8
BLACK
6
CONTINUOUS
10
0.686898
20
1.85266
11
0.688228
21
1.85294
0
LINE
8
BLACK
6
CONTINUOUS
10
0.688228
20
1.85294
11
0.689539
21
1.85329
0
LINE
8
BLACK
6
CONTINUOUS
10
0.689539
20
1.85329
11
0.700787
21
1.85329
0
LINE
8
BLACK
6
CONTINUOUS
10
0.700787
20
1.85329
11
0.702099
21
1.85294
0
LINE
8
BLACK
6
CONTINUOUS
10
0.702099
20
1.85294
11
0.703428
21
1.85266
0
LINE
8
BLACK
6
CONTINUOUS
10
0.703428
20
1.85266
11
0.703996
21
1.85238
0
LINE
8
BLACK
6
CONTINUOUS
10
0.703996
20
1.85238
11
0.703743
21
1.85339
0
LINE
8
BLACK
6
CONTINUOUS
10
0.703743
20
1.85339
11
0.69901
21
1.86049
0
LINE
8
BLACK
6
CONTINUOUS
10
0.69901
20
1.86049
11
0.697289
21
1.86221
0
LINE
8
BLACK
6
CONTINUOUS
10
0.697289
20
1.86221
11
0.693769
21
1.86397
0
LINE
8
BLACK
6
CONTINUOUS
10
0.693769
20
1.86397
11
0.683914
21
1.86397
0
LINE
8
BLACK
6
CONTINUOUS
10
0.683914
20
1.86397
11
0.680962
21
1.86476
0
LINE
8
BLACK
6
CONTINUOUS
10
0.680962
20
1.86476
11
0.6788
21
1.86693
0
LINE
8
BLACK
6
CONTINUOUS
10
0.6788
20
1.86693
11
0.678009
21
1.86988
0
LINE
8
BLACK
6
CONTINUOUS
10
0.678009
20
1.86988
11
0.6788
21
1.87283
0
LINE
8
BLACK
6
CONTINUOUS
10
0.6788
20
1.87283
11
0.680962
21
1.87499
0
LINE
8
BLACK
6
CONTINUOUS
10
0.680962
20
1.87499
11
0.683914
21
1.87578
0
LINE
8
BLACK
6
CONTINUOUS
10
0.683914
20
1.87578
11
0.695163
21
1.87578
0
LINE
8
BLACK
6
CONTINUOUS
10
0.695163
20
1.87578
11
0.696474
21
1.87543
0
LINE
8
BLACK
6
CONTINUOUS
10
0.690933
20
1.84148
11
0.687413
21
1.83972
0
LINE
8
BLACK
6
CONTINUOUS
10
0.687413
20
1.83972
11
0.685956
21
1.83826
0
LINE
8
BLACK
6
CONTINUOUS
10
0.685956
20
1.83826
11
0.684196
21
1.83474
0
LINE
8
BLACK
6
CONTINUOUS
10
0.684196
20
1.83474
11
0.684196
21
1.82347
0
LINE
8
BLACK
6
CONTINUOUS
10
0.684196
20
1.82347
11
0.685956
21
1.81995
0
LINE
8
BLACK
6
CONTINUOUS
10
0.685956
20
1.81995
11
0.687413
21
1.81849
0
LINE
8
BLACK
6
CONTINUOUS
10
0.687413
20
1.81849
11
0.690933
21
1.81673
0
LINE
8
BLACK
6
CONTINUOUS
10
0.690933
20
1.81673
11
0.699393
21
1.81673
0
LINE
8
BLACK
6
CONTINUOUS
10
0.699393
20
1.81673
11
0.702914
21
1.81849
0
LINE
8
BLACK
6
CONTINUOUS
10
0.702914
20
1.81849
11
0.70437
21
1.81995
0
LINE
8
BLACK
6
CONTINUOUS
10
0.70437
20
1.81995
11
0.70613
21
1.82347
0
LINE
8
BLACK
6
CONTINUOUS
10
0.70613
20
1.82347
11
0.70613
21
1.83474
0
LINE
8
BLACK
6
CONTINUOUS
10
0.70613
20
1.83474
11
0.70437
21
1.83826
0
LINE
8
BLACK
6
CONTINUOUS
10
0.70437
20
1.83826
11
0.702913
21
1.83972
0
LINE
8
BLACK
6
CONTINUOUS
10
0.702913
20
1.83972
11
0.699393
21
1.84148
0
LINE
8
BLACK
6
CONTINUOUS
10
0.699393
20
1.84148
11
0.690933
21
1.84148
0
LINE
8
BLACK
6
CONTINUOUS
10
0.945304
20
1.80571
11
0.943142
21
1.80787
0
LINE
8
BLACK
6
CONTINUOUS
10
0.943142
20
1.80787
11
0.942351
21
1.81082
0
LINE
8
BLACK
6
CONTINUOUS
10
0.942351
20
1.81082
11
0.943142
21
1.81378
0
LINE
8
BLACK
6
CONTINUOUS
10
0.943142
20
1.81378
11
0.945304
21
1.81594
0
LINE
8
BLACK
6
CONTINUOUS
10
0.945304
20
1.81594
11
0.948256
21
1.81673
0
LINE
8
BLACK
6
CONTINUOUS
10
0.948256
20
1.81673
11
0.970472
21
1.81673
0
LINE
8
BLACK
6
CONTINUOUS
10
0.970472
20
1.81673
11
0.970472
21
1.86988
0
LINE
8
BLACK
6
CONTINUOUS
10
0.970472
20
1.86988
11
0.971264
21
1.87283
0
LINE
8
BLACK
6
CONTINUOUS
10
0.971264
20
1.87283
11
0.973425
21
1.87499
0
LINE
8
BLACK
6
CONTINUOUS
10
0.973425
20
1.87499
11
0.976378
21
1.87578
0
LINE
8
BLACK
6
CONTINUOUS
10
0.976378
20
1.87578
11
0.979331
21
1.87499
0
LINE
8
BLACK
6
CONTINUOUS
10
0.979331
20
1.87499
11
0.981492
21
1.87283
0
LINE
8
BLACK
6
CONTINUOUS
10
0.981492
20
1.87283
11
0.982283
21
1.86988
0
LINE
8
BLACK
6
CONTINUOUS
10
0.982283
20
1.86988
11
0.982283
21
1.81082
0
LINE
8
BLACK
6
CONTINUOUS
10
0.982283
20
1.81082
11
0.981492
21
1.80787
0
LINE
8
BLACK
6
CONTINUOUS
10
0.981492
20
1.80787
11
0.979331
21
1.80571
0
LINE
8
BLACK
6
CONTINUOUS
10
0.979331
20
1.80571
11
0.976378
21
1.80492
0
LINE
8
BLACK
6
CONTINUOUS
10
0.976378
20
1.80492
11
0.948256
21
1.80492
0
LINE
8
BLACK
6
CONTINUOUS
10
0.948256
20
1.80492
11
0.945304
21
1.80571
0
LINE
8
BLACK
6
CONTINUOUS
10
0.45599
20
1.80571
11
0.453828
21
1.80787
0
LINE
8
BLACK
6
CONTINUOUS
10
0.453828
20
1.80787
11
0.453037
21
1.81082
0
LINE
8
BLACK
6
CONTINUOUS
10
0.453037
20
1.81082
11
0.453828
21
1.81378
0
LINE
8
BLACK
6
CONTINUOUS
10
0.453828
20
1.81378
11
0.45599
21
1.81594
0
LINE
8
BLACK
6
CONTINUOUS
10
0.45599
20
1.81594
11
0.458943
21
1.81673
0
LINE
8
BLACK
6
CONTINUOUS
10
0.458943
20
1.81673
11
0.46991
21
1.81673
0
LINE
8
BLACK
6
CONTINUOUS
10
0.46991
20
1.81673
11
0.46991
21
1.86988
0
LINE
8
BLACK
6
CONTINUOUS
10
0.46991
20
1.86988
11
0.470258
21
1.87118
0
LINE
8
BLACK
6
CONTINUOUS
10
0.470258
20
1.87118
11
0.470522
21
1.8725
0
LINE
8
BLACK
6
CONTINUOUS
10
0.470522
20
1.8725
11
0.470651
21
1.87264
0
LINE
8
BLACK
6
CONTINUOUS
10
0.470651
20
1.87264
11
0.470701
21
1.87283
0
LINE
8
BLACK
6
CONTINUOUS
10
0.470701
20
1.87283
11
0.471652
21
1.87378
0
LINE
8
BLACK
6
CONTINUOUS
10
0.471652
20
1.87378
11
0.47254
21
1.87479
0
LINE
8
BLACK
6
CONTINUOUS
10
0.47254
20
1.87479
11
0.472725
21
1.87486
0
LINE
8
BLACK
6
CONTINUOUS
10
0.472725
20
1.87486
11
0.472863
21
1.87499
0
LINE
8
BLACK
6
CONTINUOUS
10
0.472863
20
1.87499
11
0.474162
21
1.87534
0
LINE
8
BLACK
6
CONTINUOUS
10
0.474162
20
1.87534
11
0.475435
21
1.87577
0
LINE
8
BLACK
6
CONTINUOUS
10
0.475435
20
1.87577
11
0.475627
21
1.87573
0
LINE
8
BLACK
6
CONTINUOUS
10
0.475627
20
1.87573
11
0.475816
21
1.87578
0
LINE
8
BLACK
6
CONTINUOUS
10
0.475816
20
1.87578
11
0.477115
21
1.87544
0
LINE
8
BLACK
6
CONTINUOUS
10
0.477115
20
1.87544
11
0.478433
21
1.87517
0
LINE
8
BLACK
6
CONTINUOUS
10
0.478433
20
1.87517
11
0.47858
21
1.87504
0
LINE
8
BLACK
6
CONTINUOUS
10
0.47858
20
1.87504
11
0.478768
21
1.87499
0
LINE
8
BLACK
6
CONTINUOUS
10
0.478768
20
1.87499
11
0.479719
21
1.87404
0
LINE
8
BLACK
6
CONTINUOUS
10
0.479719
20
1.87404
11
0.480729
21
1.87315
0
LINE
8
BLACK
6
CONTINUOUS
10
0.480729
20
1.87315
11
0.486029
21
1.8652
0
LINE
8
BLACK
6
CONTINUOUS
10
0.486029
20
1.8652
11
0.490562
21
1.86067
0
LINE
8
BLACK
6
CONTINUOUS
10
0.490562
20
1.86067
11
0.495329
21
1.85829
0
LINE
8
BLACK
6
CONTINUOUS
10
0.495329
20
1.85829
11
0.497617
21
1.85626
0
LINE
8
BLACK
6
CONTINUOUS
10
0.497617
20
1.85626
11
0.498583
21
1.85336
0
LINE
8
BLACK
6
CONTINUOUS
10
0.498583
20
1.85336
11
0.49797
21
1.85037
0
LINE
8
BLACK
6
CONTINUOUS
10
0.49797
20
1.85037
11
0.495942
21
1.84808
0
LINE
8
BLACK
6
CONTINUOUS
10
0.495942
20
1.84808
11
0.493042
21
1.84711
0
LINE
8
BLACK
6
CONTINUOUS
10
0.493042
20
1.84711
11
0.490047
21
1.84772
0
LINE
8
BLACK
6
CONTINUOUS
10
0.490047
20
1.84772
11
0.484423
21
1.85054
0
LINE
8
BLACK
6
CONTINUOUS
10
0.484423
20
1.85054
11
0.483712
21
1.85117
0
LINE
8
BLACK
6
CONTINUOUS
10
0.483712
20
1.85117
11
0.482888
21
1.85164
0
LINE
8
BLACK
6
CONTINUOUS
10
0.482888
20
1.85164
11
0.481721
21
1.85281
0
LINE
8
BLACK
6
CONTINUOUS
10
0.481721
20
1.85281
11
0.481721
21
1.81673
0
LINE
8
BLACK
6
CONTINUOUS
10
0.481721
20
1.81673
11
0.492688
21
1.81673
0
LINE
8
BLACK
6
CONTINUOUS
10
0.492688
20
1.81673
11
0.495641
21
1.81594
0
LINE
8
BLACK
6
CONTINUOUS
10
0.495641
20
1.81594
11
0.497803
21
1.81378
0
LINE
8
BLACK
6
CONTINUOUS
10
0.497803
20
1.81378
11
0.498594
21
1.81082
0
LINE
8
BLACK
6
CONTINUOUS
10
0.498594
20
1.81082
11
0.497803
21
1.80787
0
LINE
8
BLACK
6
CONTINUOUS
10
0.497803
20
1.80787
11
0.495641
21
1.80571
0
LINE
8
BLACK
6
CONTINUOUS
10
0.495641
20
1.80571
11
0.492688
21
1.80492
0
LINE
8
BLACK
6
CONTINUOUS
10
0.492688
20
1.80492
11
0.458943
21
1.80492
0
LINE
8
BLACK
6
CONTINUOUS
10
0.458943
20
1.80492
11
0.45599
21
1.80571
0
LINE
8
BLACK
6
CONTINUOUS
10
0.939961
20
1.87499
11
0.942122
21
1.87283
0
LINE
8
BLACK
6
CONTINUOUS
10
0.942122
20
1.87283
11
0.942913
21
1.86988
0
LINE
8
BLACK
6
CONTINUOUS
10
0.942913
20
1.86988
11
0.942122
21
1.86693
0
LINE
8
BLACK
6
CONTINUOUS
10
0.942122
20
1.86693
11
0.939961
21
1.86476
0
LINE
8
BLACK
6
CONTINUOUS
10
0.939961
20
1.86476
11
0.937008
21
1.86397
0
LINE
8
BLACK
6
CONTINUOUS
10
0.937008
20
1.86397
11
0.92604
21
1.86397
0
LINE
8
BLACK
6
CONTINUOUS
10
0.92604
20
1.86397
11
0.92604
21
1.81082
0
LINE
8
BLACK
6
CONTINUOUS
10
0.92604
20
1.81082
11
0.925249
21
1.80787
0
LINE
8
BLACK
6
CONTINUOUS
10
0.925249
20
1.80787
11
0.923088
21
1.80571
0
LINE
8
BLACK
6
CONTINUOUS
10
0.923088
20
1.80571
11
0.920135
21
1.80492
0
LINE
8
BLACK
6
CONTINUOUS
10
0.920135
20
1.80492
11
0.917182
21
1.80571
0
LINE
8
BLACK
6
CONTINUOUS
10
0.917182
20
1.80571
11
0.915021
21
1.80787
0
LINE
8
BLACK
6
CONTINUOUS
10
0.915021
20
1.80787
11
0.914229
21
1.81082
0
LINE
8
BLACK
6
CONTINUOUS
10
0.914229
20
1.81082
11
0.914229
21
1.86397
0
LINE
8
BLACK
6
CONTINUOUS
10
0.914229
20
1.86397
11
0.903262
21
1.86397
0
LINE
8
BLACK
6
CONTINUOUS
10
0.903262
20
1.86397
11
0.900309
21
1.86476
0
LINE
8
BLACK
6
CONTINUOUS
10
0.900309
20
1.86476
11
0.898148
21
1.86693
0
LINE
8
BLACK
6
CONTINUOUS
10
0.898148
20
1.86693
11
0.897357
21
1.86988
0
LINE
8
BLACK
6
CONTINUOUS
10
0.897357
20
1.86988
11
0.898148
21
1.87283
0
LINE
8
BLACK
6
CONTINUOUS
10
0.898148
20
1.87283
11
0.900309
21
1.87499
0
LINE
8
BLACK
6
CONTINUOUS
10
0.900309
20
1.87499
11
0.903262
21
1.87578
0
LINE
8
BLACK
6
CONTINUOUS
10
0.903262
20
1.87578
11
0.937008
21
1.87578
0
LINE
8
BLACK
6
CONTINUOUS
10
0.937008
20
1.87578
11
0.939961
21
1.87499
0
LINE
8
BLACK
6
CONTINUOUS
10
1.04152
20
1.87479
11
1.04354
21
1.8725
0
LINE
8
BLACK
6
CONTINUOUS
10
1.04354
20
1.8725
11
1.04414
21
1.8695
0
LINE
8
BLACK
6
CONTINUOUS
10
1.04414
20
1.8695
11
1.04316
21
1.8666
0
LINE
8
BLACK
6
CONTINUOUS
10
1.04316
20
1.8666
11
1.02566
21
1.84035
0
LINE
8
BLACK
6
CONTINUOUS
10
1.02566
20
1.84035
11
1.04316
21
1.8141
0
LINE
8
BLACK
6
CONTINUOUS
10
1.04316
20
1.8141
11
1.04414
21
1.8112
0
LINE
8
BLACK
6
CONTINUOUS
10
1.04414
20
1.8112
11
1.04354
21
1.80821
0
LINE
8
BLACK
6
CONTINUOUS
10
1.04354
20
1.80821
11
1.04152
21
1.80591
0
LINE
8
BLACK
6
CONTINUOUS
10
1.04152
20
1.80591
11
1.03863
21
1.80493
0
LINE
8
BLACK
6
CONTINUOUS
10
1.03863
20
1.80493
11
1.03563
21
1.80553
0
LINE
8
BLACK
6
CONTINUOUS
10
1.03563
20
1.80553
11
1.03333
21
1.80755
0
LINE
8
BLACK
6
CONTINUOUS
10
1.03333
20
1.80755
11
1.01856
21
1.82971
0
LINE
8
BLACK
6
CONTINUOUS
10
1.01856
20
1.82971
11
1.00379
21
1.80755
0
LINE
8
BLACK
6
CONTINUOUS
10
1.00379
20
1.80755
11
1.00149
21
1.80553
0
LINE
8
BLACK
6
CONTINUOUS
10
1.00149
20
1.80553
11
0.998495
21
1.80493
0
LINE
8
BLACK
6
CONTINUOUS
10
0.998495
20
1.80493
11
0.995599
21
1.80591
0
LINE
8
BLACK
6
CONTINUOUS
10
0.995599
20
1.80591
11
0.993581
21
1.80821
0
LINE
8
BLACK
6
CONTINUOUS
10
0.993581
20
1.80821
11
0.992982
21
1.8112
0
LINE
8
BLACK
6
CONTINUOUS
10
0.992982
20
1.8112
11
0.993961
21
1.8141
0
LINE
8
BLACK
6
CONTINUOUS
10
0.993961
20
1.8141
11
1.01146
21
1.84035
0
LINE
8
BLACK
6
CONTINUOUS
10
1.01146
20
1.84035
11
0.993961
21
1.8666
0
LINE
8
BLACK
6
CONTINUOUS
10
0.993961
20
1.8666
11
0.992982
21
1.8695
0
LINE
8
BLACK
6
CONTINUOUS
10
0.992982
20
1.8695
11
0.993581
21
1.8725
0
LINE
8
BLACK
6
CONTINUOUS
10
0.993581
20
1.8725
11
0.995599
21
1.87479
0
LINE
8
BLACK
6
CONTINUOUS
10
0.995599
20
1.87479
11
0.998495
21
1.87577
0
LINE
8
BLACK
6
CONTINUOUS
10
0.998495
20
1.87577
11
1.00149
21
1.87517
0
LINE
8
BLACK
6
CONTINUOUS
10
1.00149
20
1.87517
11
1.00379
21
1.87315
0
LINE
8
BLACK
6
CONTINUOUS
10
1.00379
20
1.87315
11
1.01856
21
1.851
0
LINE
8
BLACK
6
CONTINUOUS
10
1.01856
20
1.851
11
1.03333
21
1.87315
0
LINE
8
BLACK
6
CONTINUOUS
10
1.03333
20
1.87315
11
1.03563
21
1.87517
0
LINE
8
BLACK
6
CONTINUOUS
10
1.03563
20
1.87517
11
1.03863
21
1.87577
0
LINE
8
BLACK
6
CONTINUOUS
10
1.03863
20
1.87577
11
1.04152
21
1.87479
0
LINE
8
BLACK
6
CONTINUOUS
10
0.423892
20
1.8755
11
0.424252
21
1.87548
0
LINE
8
BLACK
6
CONTINUOUS
10
0.424252
20
1.87548
11
0.425242
21
1.87483
0
LINE
8
BLACK
6
CONTINUOUS
10
0.425242
20
1.87483
11
0.426303
21
1.8743
0
LINE
8
BLACK
6
CONTINUOUS
10
0.426303
20
1.8743
11
0.426502
21
1.874
0
LINE
8
BLACK
6
CONTINUOUS
10
0.426502
20
1.874
11
0.426803
21
1.8738
0
LINE
8
BLACK
6
CONTINUOUS
10
0.426803
20
1.8738
11
0.427334
21
1.87274
0
LINE
8
BLACK
6
CONTINUOUS
10
0.427334
20
1.87274
11
0.427987
21
1.87175
0
LINE
8
BLACK
6
CONTINUOUS
10
0.427987
20
1.87175
11
0.447672
21
1.81269
0
LINE
8
BLACK
6
CONTINUOUS
10
0.447672
20
1.81269
11
0.447855
21
1.80964
0
LINE
8
BLACK
6
CONTINUOUS
10
0.447855
20
1.80964
11
0.446488
21
1.80691
0
LINE
8
BLACK
6
CONTINUOUS
10
0.446488
20
1.80691
11
0.443937
21
1.80522
0
LINE
8
BLACK
6
CONTINUOUS
10
0.443937
20
1.80522
11
0.440886
21
1.80504
0
LINE
8
BLACK
6
CONTINUOUS
10
0.440886
20
1.80504
11
0.438152
21
1.80641
0
LINE
8
BLACK
6
CONTINUOUS
10
0.438152
20
1.80641
11
0.436467
21
1.80896
0
LINE
8
BLACK
6
CONTINUOUS
10
0.436467
20
1.80896
11
0.432189
21
1.82179
0
LINE
8
BLACK
6
CONTINUOUS
10
0.432189
20
1.82179
11
0.41258
21
1.82179
0
LINE
8
BLACK
6
CONTINUOUS
10
0.41258
20
1.82179
11
0.408302
21
1.80896
0
LINE
8
BLACK
6
CONTINUOUS
10
0.408302
20
1.80896
11
0.406618
21
1.80641
0
LINE
8
BLACK
6
CONTINUOUS
10
0.406618
20
1.80641
11
0.403884
21
1.80504
0
LINE
8
BLACK
6
CONTINUOUS
10
0.403884
20
1.80504
11
0.400832
21
1.80522
0
LINE
8
BLACK
6
CONTINUOUS
10
0.400832
20
1.80522
11
0.398281
21
1.80691
0
LINE
8
BLACK
6
CONTINUOUS
10
0.398281
20
1.80691
11
0.396914
21
1.80964
0
LINE
8
BLACK
6
CONTINUOUS
10
0.396914
20
1.80964
11
0.397097
21
1.81269
0
LINE
8
BLACK
6
CONTINUOUS
10
0.397097
20
1.81269
11
0.416782
21
1.87175
0
LINE
8
BLACK
6
CONTINUOUS
10
0.416782
20
1.87175
11
0.417436
21
1.87274
0
LINE
8
BLACK
6
CONTINUOUS
10
0.417436
20
1.87274
11
0.417966
21
1.8738
0
LINE
8
BLACK
6
CONTINUOUS
10
0.417966
20
1.8738
11
0.418268
21
1.874
0
LINE
8
BLACK
6
CONTINUOUS
10
0.418268
20
1.874
11
0.418467
21
1.8743
0
LINE
8
BLACK
6
CONTINUOUS
10
0.418467
20
1.8743
11
0.419528
21
1.87483
0
LINE
8
BLACK
6
CONTINUOUS
10
0.419528
20
1.87483
11
0.420517
21
1.87548
0
LINE
8
BLACK
6
CONTINUOUS
10
0.420517
20
1.87548
11
0.420878
21
1.8755
0
LINE
8
BLACK
6
CONTINUOUS
10
0.420878
20
1.8755
11
0.421201
21
1.87566
0
LINE
8
BLACK
6
CONTINUOUS
10
0.421201
20
1.87566
11
0.422385
21
1.87559
0
LINE
8
BLACK
6
CONTINUOUS
10
0.422385
20
1.87559
11
0.423569
21
1.87566
0
LINE
8
BLACK
6
CONTINUOUS
10
0.423569
20
1.87566
11
0.423892
21
1.8755
0
LINE
8
BLACK
6
CONTINUOUS
10
0.416517
20
1.8336
11
0.428252
21
1.8336
0
LINE
8
BLACK
6
CONTINUOUS
10
0.428252
20
1.8336
11
0.422385
21
1.8512
0
LINE
8
BLACK
6
CONTINUOUS
10
0.422385
20
1.8512
11
0.416517
21
1.8336
0
LINE
8
BLACK
6
CONTINUOUS
10
0.607042
20
1.87548
11
0.609593
21
1.8738
0
LINE
8
BLACK
6
CONTINUOUS
10
0.609593
20
1.8738
11
0.61096
21
1.87106
0
LINE
8
BLACK
6
CONTINUOUS
10
0.61096
20
1.87106
11
0.610777
21
1.86801
0
LINE
8
BLACK
6
CONTINUOUS
10
0.610777
20
1.86801
11
0.591092
21
1.80896
0
LINE
8
BLACK
6
CONTINUOUS
10
0.591092
20
1.80896
11
0.590438
21
1.80797
0
LINE
8
BLACK
6
CONTINUOUS
10
0.590438
20
1.80797
11
0.589908
21
1.80691
0
LINE
8
BLACK
6
CONTINUOUS
10
0.589908
20
1.80691
11
0.589606
21
1.80671
0
LINE
8
BLACK
6
CONTINUOUS
10
0.589606
20
1.80671
11
0.589407
21
1.80641
0
LINE
8
BLACK
6
CONTINUOUS
10
0.589407
20
1.80641
11
0.588347
21
1.80588
0
LINE
8
BLACK
6
CONTINUOUS
10
0.588347
20
1.80588
11
0.587357
21
1.80522
0
LINE
8
BLACK
6
CONTINUOUS
10
0.587357
20
1.80522
11
0.586996
21
1.8052
0
LINE
8
BLACK
6
CONTINUOUS
10
0.586996
20
1.8052
11
0.586673
21
1.80504
0
LINE
8
BLACK
6
CONTINUOUS
10
0.586673
20
1.80504
11
0.585489
21
1.80511
0
LINE
8
BLACK
6
CONTINUOUS
10
0.585489
20
1.80511
11
0.584305
21
1.80504
0
LINE
8
BLACK
6
CONTINUOUS
10
0.584305
20
1.80504
11
0.583982
21
1.8052
0
LINE
8
BLACK
6
CONTINUOUS
10
0.583982
20
1.8052
11
0.583622
21
1.80522
0
LINE
8
BLACK
6
CONTINUOUS
10
0.583622
20
1.80522
11
0.582632
21
1.80587
0
LINE
8
BLACK
6
CONTINUOUS
10
0.582632
20
1.80587
11
0.581571
21
1.80641
0
LINE
8
BLACK
6
CONTINUOUS
10
0.581571
20
1.80641
11
0.581372
21
1.80671
0
LINE
8
BLACK
6
CONTINUOUS
10
0.581372
20
1.80671
11
0.581071
21
1.80691
0
LINE
8
BLACK
6
CONTINUOUS
10
0.581071
20
1.80691
11
0.58054
21
1.80797
0
LINE
8
BLACK
6
CONTINUOUS
10
0.58054
20
1.80797
11
0.579887
21
1.80896
0
LINE
8
BLACK
6
CONTINUOUS
10
0.579887
20
1.80896
11
0.560202
21
1.86801
0
LINE
8
BLACK
6
CONTINUOUS
10
0.560202
20
1.86801
11
0.560019
21
1.87106
0
LINE
8
BLACK
6
CONTINUOUS
10
0.560019
20
1.87106
11
0.561386
21
1.8738
0
LINE
8
BLACK
6
CONTINUOUS
10
0.561386
20
1.8738
11
0.563937
21
1.87548
0
LINE
8
BLACK
6
CONTINUOUS
10
0.563937
20
1.87548
11
0.566988
21
1.87566
0
LINE
8
BLACK
6
CONTINUOUS
10
0.566988
20
1.87566
11
0.569722
21
1.8743
0
LINE
8
BLACK
6
CONTINUOUS
10
0.569722
20
1.8743
11
0.571407
21
1.87175
0
LINE
8
BLACK
6
CONTINUOUS
10
0.571407
20
1.87175
11
0.585489
21
1.8295
0
LINE
8
BLACK
6
CONTINUOUS
10
0.585489
20
1.8295
11
0.599572
21
1.87175
0
LINE
8
BLACK
6
CONTINUOUS
10
0.599572
20
1.87175
11
0.601256
21
1.8743
0
LINE
8
BLACK
6
CONTINUOUS
10
0.601256
20
1.8743
11
0.60399
21
1.87566
0
LINE
8
BLACK
6
CONTINUOUS
10
0.60399
20
1.87566
11
0.607042
21
1.87548
  0
ENDSEC
  0
EOF
