  0
SECTION
  2
HEADER
  9
$ANGBASE
  50
0.0
  9
$ANGDIR
  70
1
  9
$MEASUREMENT
  70
0
  0
ENDSEC
  0
SECTION
  2
TABLES
  0
TABLE
  2
LTYPE
  70
4
  0
LTYPE
  5
40F
  2
CONTINUOUS
  70
0
  3
Solid line
  72
65
  73
0
  40
0.0
  0
LTYPE
  5
410
  2
DASHDOT
 70
0
  3
Dash Dot ____ _ ____ _
 72
65
 73
4
 40
2.0
 49
1.25
 49
-0.25
 49
0.25
 49
-0.25
  0
LTYPE
  5
411
  2
DASHED
 70
0
  3
Dashed __ __ __ __ __
 72
65
 73
2
 40
0.75
 49
0.5
 49
-0.25
  0
LTYPE
  5
43B
  2
DOTTED
 70
0
  3
Dotted .  .  .  .
 72
65
 73
2
 40
0.2
 49
0.0
 49
-0.2
  0
ENDTAB
  0
TABLE
  2
STYLE
  70
4
  0
STYLE
  2
KICAD
  70
0
  40
0
  41
1
  42
1
  50
0
  71
0
  3
isocp.shx
  0
STYLE
  2
KICADB
  70
0
  40
0
  41
1
  42
1
  50
0
  71
0
  3
isocp.shx
  0
STYLE
  2
KICADI
  70
0
  40
0
  41
1
  42
1
  50
15
  71
0
  3
isocp.shx
  0
STYLE
  2
KICADBI
  70
0
  40
0
  41
1
  42
1
  50
15
  71
0
  3
isocp.shx
  0
ENDTAB
  0
TABLE
  2
LAYER
  70
1
  0
LAYER
  2
BLACK
  70
0
  62
7
  6
CONTINUOUS
  0
ENDTAB
  0
ENDSEC
  0
SECTION
  2
ENTITIES
0
LINE
8
BLACK
6
CONTINUOUS
10
1.965
20
0.12
11
2.395
21
0.12
0
LINE
8
BLACK
6
CONTINUOUS
10
2.395
20
0.12
11
2.395
21
0.01
0
LINE
8
BLACK
6
CONTINUOUS
10
2.395
20
0.01
11
1.965
21
0.01
0
LINE
8
BLACK
6
CONTINUOUS
10
1.965
20
0.01
11
1.965
21
0.12
0
LINE
8
BLACK
6
CONTINUOUS
10
1.965
20
0.12
11
2.395
21
0.12
0
LINE
8
BLACK
6
CONTINUOUS
10
2.395
20
0.12
11
2.395
21
0.01
0
LINE
8
BLACK
6
CONTINUOUS
10
2.395
20
0.01
11
1.965
21
0.01
0
LINE
8
BLACK
6
CONTINUOUS
10
1.965
20
0.01
11
1.965
21
0.12
0
LINE
8
BLACK
6
CONTINUOUS
10
0.005
20
0.12
11
0.435
21
0.12
0
LINE
8
BLACK
6
CONTINUOUS
10
0.435
20
0.12
11
0.435
21
0.01
0
LINE
8
BLACK
6
CONTINUOUS
10
0.435
20
0.01
11
0.005
21
0.01
0
LINE
8
BLACK
6
CONTINUOUS
10
0.005
20
0.01
11
0.005
21
0.12
0
LINE
8
BLACK
6
CONTINUOUS
10
0.005
20
0.12
11
0.435
21
0.12
0
LINE
8
BLACK
6
CONTINUOUS
10
0.435
20
0.12
11
0.435
21
0.01
0
LINE
8
BLACK
6
CONTINUOUS
10
0.435
20
0.01
11
0.005
21
0.01
0
LINE
8
BLACK
6
CONTINUOUS
10
0.005
20
0.01
11
0.005
21
0.12
0
LINE
8
BLACK
6
CONTINUOUS
10
1.965
20
0.12
11
2.395
21
0.12
0
LINE
8
BLACK
6
CONTINUOUS
10
2.395
20
0.12
11
2.395
21
0.01
0
LINE
8
BLACK
6
CONTINUOUS
10
2.395
20
0.01
11
1.965
21
0.01
0
LINE
8
BLACK
6
CONTINUOUS
10
1.965
20
0.01
11
1.965
21
0.12
0
LINE
8
BLACK
6
CONTINUOUS
10
1.965
20
0.12
11
2.395
21
0.12
0
LINE
8
BLACK
6
CONTINUOUS
10
2.395
20
0.12
11
2.395
21
0.01
0
LINE
8
BLACK
6
CONTINUOUS
10
2.395
20
0.01
11
1.965
21
0.01
0
LINE
8
BLACK
6
CONTINUOUS
10
1.965
20
0.01
11
1.965
21
0.12
0
LINE
8
BLACK
6
CONTINUOUS
10
0.005
20
0.12
11
0.435
21
0.12
0
LINE
8
BLACK
6
CONTINUOUS
10
0.435
20
0.12
11
0.435
21
0.01
0
LINE
8
BLACK
6
CONTINUOUS
10
0.435
20
0.01
11
0.005
21
0.01
0
LINE
8
BLACK
6
CONTINUOUS
10
0.005
20
0.01
11
0.005
21
0.12
0
LINE
8
BLACK
6
CONTINUOUS
10
0.005
20
0.12
11
0.435
21
0.12
0
LINE
8
BLACK
6
CONTINUOUS
10
0.435
20
0.12
11
0.435
21
0.01
0
LINE
8
BLACK
6
CONTINUOUS
10
0.435
20
0.01
11
0.005
21
0.01
0
LINE
8
BLACK
6
CONTINUOUS
10
0.005
20
0.01
11
0.005
21
0.12
0
LINE
8
BLACK
6
CONTINUOUS
10
1.38
20
0.215039
11
1.38301
21
0.21444
0
LINE
8
BLACK
6
CONTINUOUS
10
1.38301
20
0.21444
11
1.38557
21
0.212733
0
LINE
8
BLACK
6
CONTINUOUS
10
1.38557
20
0.212733
11
1.38727
21
0.210179
0
LINE
8
BLACK
6
CONTINUOUS
10
1.38727
20
0.210179
11
1.38787
21
0.207165
0
LINE
8
BLACK
6
CONTINUOUS
10
1.38787
20
0.207165
11
1.38787
21
0.147165
0
LINE
8
BLACK
6
CONTINUOUS
10
1.38787
20
0.147165
11
1.38727
21
0.144152
0
LINE
8
BLACK
6
CONTINUOUS
10
1.38727
20
0.144152
11
1.38557
21
0.141598
0
LINE
8
BLACK
6
CONTINUOUS
10
1.38557
20
0.141598
11
1.38301
21
0.139891
0
LINE
8
BLACK
6
CONTINUOUS
10
1.38301
20
0.139891
11
1.38
21
0.139291
0
LINE
8
BLACK
6
CONTINUOUS
10
1.38
20
0.139291
11
1.32
21
0.139291
0
LINE
8
BLACK
6
CONTINUOUS
10
1.32
20
0.139291
11
1.31699
21
0.139891
0
LINE
8
BLACK
6
CONTINUOUS
10
1.31699
20
0.139891
11
1.31443
21
0.141598
0
LINE
8
BLACK
6
CONTINUOUS
10
1.31443
20
0.141598
11
1.31273
21
0.144152
0
LINE
8
BLACK
6
CONTINUOUS
10
1.31273
20
0.144152
11
1.31213
21
0.147165
0
LINE
8
BLACK
6
CONTINUOUS
10
1.31213
20
0.147165
11
1.31213
21
0.207165
0
LINE
8
BLACK
6
CONTINUOUS
10
1.31213
20
0.207165
11
1.31273
21
0.210179
0
LINE
8
BLACK
6
CONTINUOUS
10
1.31273
20
0.210179
11
1.31443
21
0.212733
0
LINE
8
BLACK
6
CONTINUOUS
10
1.31443
20
0.212733
11
1.31699
21
0.21444
0
LINE
8
BLACK
6
CONTINUOUS
10
1.31699
20
0.21444
11
1.32
21
0.215039
0
LINE
8
BLACK
6
CONTINUOUS
10
1.32
20
0.215039
11
1.38
21
0.215039
0
LINE
8
BLACK
6
CONTINUOUS
10
1.28
20
0.215039
11
1.28301
21
0.21444
0
LINE
8
BLACK
6
CONTINUOUS
10
1.28301
20
0.21444
11
1.28557
21
0.212733
0
LINE
8
BLACK
6
CONTINUOUS
10
1.28557
20
0.212733
11
1.28727
21
0.210179
0
LINE
8
BLACK
6
CONTINUOUS
10
1.28727
20
0.210179
11
1.28787
21
0.207165
0
LINE
8
BLACK
6
CONTINUOUS
10
1.28787
20
0.207165
11
1.28787
21
0.147165
0
LINE
8
BLACK
6
CONTINUOUS
10
1.28787
20
0.147165
11
1.28727
21
0.144152
0
LINE
8
BLACK
6
CONTINUOUS
10
1.28727
20
0.144152
11
1.28557
21
0.141598
0
LINE
8
BLACK
6
CONTINUOUS
10
1.28557
20
0.141598
11
1.28301
21
0.139891
0
LINE
8
BLACK
6
CONTINUOUS
10
1.28301
20
0.139891
11
1.28
21
0.139291
0
LINE
8
BLACK
6
CONTINUOUS
10
1.28
20
0.139291
11
1.22
21
0.139291
0
LINE
8
BLACK
6
CONTINUOUS
10
1.22
20
0.139291
11
1.21699
21
0.139891
0
LINE
8
BLACK
6
CONTINUOUS
10
1.21699
20
0.139891
11
1.21443
21
0.141598
0
LINE
8
BLACK
6
CONTINUOUS
10
1.21443
20
0.141598
11
1.21273
21
0.144152
0
LINE
8
BLACK
6
CONTINUOUS
10
1.21273
20
0.144152
11
1.21213
21
0.147165
0
LINE
8
BLACK
6
CONTINUOUS
10
1.21213
20
0.147165
11
1.21213
21
0.207165
0
LINE
8
BLACK
6
CONTINUOUS
10
1.21213
20
0.207165
11
1.21273
21
0.210179
0
LINE
8
BLACK
6
CONTINUOUS
10
1.21273
20
0.210179
11
1.21443
21
0.212733
0
LINE
8
BLACK
6
CONTINUOUS
10
1.21443
20
0.212733
11
1.21699
21
0.21444
0
LINE
8
BLACK
6
CONTINUOUS
10
1.21699
20
0.21444
11
1.22
21
0.215039
0
LINE
8
BLACK
6
CONTINUOUS
10
1.22
20
0.215039
11
1.28
21
0.215039
0
LINE
8
BLACK
6
CONTINUOUS
10
1.18
20
0.215039
11
1.18301
21
0.21444
0
LINE
8
BLACK
6
CONTINUOUS
10
1.18301
20
0.21444
11
1.18557
21
0.212733
0
LINE
8
BLACK
6
CONTINUOUS
10
1.18557
20
0.212733
11
1.18727
21
0.210179
0
LINE
8
BLACK
6
CONTINUOUS
10
1.18727
20
0.210179
11
1.18787
21
0.207165
0
LINE
8
BLACK
6
CONTINUOUS
10
1.18787
20
0.207165
11
1.18787
21
0.147165
0
LINE
8
BLACK
6
CONTINUOUS
10
1.18787
20
0.147165
11
1.18727
21
0.144152
0
LINE
8
BLACK
6
CONTINUOUS
10
1.18727
20
0.144152
11
1.18557
21
0.141598
0
LINE
8
BLACK
6
CONTINUOUS
10
1.18557
20
0.141598
11
1.18301
21
0.139891
0
LINE
8
BLACK
6
CONTINUOUS
10
1.18301
20
0.139891
11
1.18
21
0.139291
0
LINE
8
BLACK
6
CONTINUOUS
10
1.18
20
0.139291
11
1.12
21
0.139291
0
LINE
8
BLACK
6
CONTINUOUS
10
1.12
20
0.139291
11
1.11699
21
0.139891
0
LINE
8
BLACK
6
CONTINUOUS
10
1.11699
20
0.139891
11
1.11443
21
0.141598
0
LINE
8
BLACK
6
CONTINUOUS
10
1.11443
20
0.141598
11
1.11273
21
0.144152
0
LINE
8
BLACK
6
CONTINUOUS
10
1.11273
20
0.144152
11
1.11213
21
0.147165
0
LINE
8
BLACK
6
CONTINUOUS
10
1.11213
20
0.147165
11
1.11213
21
0.207165
0
LINE
8
BLACK
6
CONTINUOUS
10
1.11213
20
0.207165
11
1.11273
21
0.210179
0
LINE
8
BLACK
6
CONTINUOUS
10
1.11273
20
0.210179
11
1.11443
21
0.212733
0
LINE
8
BLACK
6
CONTINUOUS
10
1.11443
20
0.212733
11
1.11699
21
0.21444
0
LINE
8
BLACK
6
CONTINUOUS
10
1.11699
20
0.21444
11
1.12
21
0.215039
0
LINE
8
BLACK
6
CONTINUOUS
10
1.12
20
0.215039
11
1.18
21
0.215039
0
LINE
8
BLACK
6
CONTINUOUS
10
1.08
20
0.215039
11
1.08301
21
0.21444
0
LINE
8
BLACK
6
CONTINUOUS
10
1.08301
20
0.21444
11
1.08557
21
0.212733
0
LINE
8
BLACK
6
CONTINUOUS
10
1.08557
20
0.212733
11
1.08727
21
0.210179
0
LINE
8
BLACK
6
CONTINUOUS
10
1.08727
20
0.210179
11
1.08787
21
0.207165
0
LINE
8
BLACK
6
CONTINUOUS
10
1.08787
20
0.207165
11
1.08787
21
0.147165
0
LINE
8
BLACK
6
CONTINUOUS
10
1.08787
20
0.147165
11
1.08727
21
0.144152
0
LINE
8
BLACK
6
CONTINUOUS
10
1.08727
20
0.144152
11
1.08557
21
0.141598
0
LINE
8
BLACK
6
CONTINUOUS
10
1.08557
20
0.141598
11
1.08301
21
0.139891
0
LINE
8
BLACK
6
CONTINUOUS
10
1.08301
20
0.139891
11
1.08
21
0.139291
0
LINE
8
BLACK
6
CONTINUOUS
10
1.08
20
0.139291
11
1.02
21
0.139291
0
LINE
8
BLACK
6
CONTINUOUS
10
1.02
20
0.139291
11
1.01699
21
0.139891
0
LINE
8
BLACK
6
CONTINUOUS
10
1.01699
20
0.139891
11
1.01443
21
0.141598
0
LINE
8
BLACK
6
CONTINUOUS
10
1.01443
20
0.141598
11
1.01273
21
0.144152
0
LINE
8
BLACK
6
CONTINUOUS
10
1.01273
20
0.144152
11
1.01213
21
0.147165
0
LINE
8
BLACK
6
CONTINUOUS
10
1.01213
20
0.147165
11
1.01213
21
0.207165
0
LINE
8
BLACK
6
CONTINUOUS
10
1.01213
20
0.207165
11
1.01273
21
0.210179
0
LINE
8
BLACK
6
CONTINUOUS
10
1.01273
20
0.210179
11
1.01443
21
0.212733
0
LINE
8
BLACK
6
CONTINUOUS
10
1.01443
20
0.212733
11
1.01699
21
0.21444
0
LINE
8
BLACK
6
CONTINUOUS
10
1.01699
20
0.21444
11
1.02
21
0.215039
0
LINE
8
BLACK
6
CONTINUOUS
10
1.02
20
0.215039
11
1.08
21
0.215039
0
LINE
8
BLACK
6
CONTINUOUS
10
0.41622
20
0.215039
11
0.419234
21
0.21444
0
LINE
8
BLACK
6
CONTINUOUS
10
0.419234
20
0.21444
11
0.421788
21
0.212733
0
LINE
8
BLACK
6
CONTINUOUS
10
0.421788
20
0.212733
11
0.423495
21
0.210179
0
LINE
8
BLACK
6
CONTINUOUS
10
0.423495
20
0.210179
11
0.424094
21
0.207165
0
LINE
8
BLACK
6
CONTINUOUS
10
0.424094
20
0.207165
11
0.424094
21
0.147165
0
LINE
8
BLACK
6
CONTINUOUS
10
0.424094
20
0.147165
11
0.423495
21
0.144152
0
LINE
8
BLACK
6
CONTINUOUS
10
0.423495
20
0.144152
11
0.421788
21
0.141598
0
LINE
8
BLACK
6
CONTINUOUS
10
0.421788
20
0.141598
11
0.419234
21
0.139891
0
LINE
8
BLACK
6
CONTINUOUS
10
0.419234
20
0.139891
11
0.41622
21
0.139291
0
LINE
8
BLACK
6
CONTINUOUS
10
0.41622
20
0.139291
11
0.35622
21
0.139291
0
LINE
8
BLACK
6
CONTINUOUS
10
0.35622
20
0.139291
11
0.353207
21
0.139891
0
LINE
8
BLACK
6
CONTINUOUS
10
0.353207
20
0.139891
11
0.350653
21
0.141598
0
LINE
8
BLACK
6
CONTINUOUS
10
0.350653
20
0.141598
11
0.348946
21
0.144152
0
LINE
8
BLACK
6
CONTINUOUS
10
0.348946
20
0.144152
11
0.348346
21
0.147165
0
LINE
8
BLACK
6
CONTINUOUS
10
0.348346
20
0.147165
11
0.348346
21
0.207165
0
LINE
8
BLACK
6
CONTINUOUS
10
0.348346
20
0.207165
11
0.348946
21
0.210179
0
LINE
8
BLACK
6
CONTINUOUS
10
0.348946
20
0.210179
11
0.350653
21
0.212733
0
LINE
8
BLACK
6
CONTINUOUS
10
0.350653
20
0.212733
11
0.353207
21
0.21444
0
LINE
8
BLACK
6
CONTINUOUS
10
0.353207
20
0.21444
11
0.35622
21
0.215039
0
LINE
8
BLACK
6
CONTINUOUS
10
0.35622
20
0.215039
11
0.41622
21
0.215039
0
LINE
8
BLACK
6
CONTINUOUS
10
0.31622
20
0.215039
11
0.319234
21
0.21444
0
LINE
8
BLACK
6
CONTINUOUS
10
0.319234
20
0.21444
11
0.321788
21
0.212733
0
LINE
8
BLACK
6
CONTINUOUS
10
0.321788
20
0.212733
11
0.323495
21
0.210179
0
LINE
8
BLACK
6
CONTINUOUS
10
0.323495
20
0.210179
11
0.324094
21
0.207165
0
LINE
8
BLACK
6
CONTINUOUS
10
0.324094
20
0.207165
11
0.324094
21
0.147165
0
LINE
8
BLACK
6
CONTINUOUS
10
0.324094
20
0.147165
11
0.323495
21
0.144152
0
LINE
8
BLACK
6
CONTINUOUS
10
0.323495
20
0.144152
11
0.321788
21
0.141598
0
LINE
8
BLACK
6
CONTINUOUS
10
0.321788
20
0.141598
11
0.319234
21
0.139891
0
LINE
8
BLACK
6
CONTINUOUS
10
0.319234
20
0.139891
11
0.31622
21
0.139291
0
LINE
8
BLACK
6
CONTINUOUS
10
0.31622
20
0.139291
11
0.25622
21
0.139291
0
LINE
8
BLACK
6
CONTINUOUS
10
0.25622
20
0.139291
11
0.253207
21
0.139891
0
LINE
8
BLACK
6
CONTINUOUS
10
0.253207
20
0.139891
11
0.250653
21
0.141598
0
LINE
8
BLACK
6
CONTINUOUS
10
0.250653
20
0.141598
11
0.248946
21
0.144152
0
LINE
8
BLACK
6
CONTINUOUS
10
0.248946
20
0.144152
11
0.248346
21
0.147165
0
LINE
8
BLACK
6
CONTINUOUS
10
0.248346
20
0.147165
11
0.248346
21
0.207165
0
LINE
8
BLACK
6
CONTINUOUS
10
0.248346
20
0.207165
11
0.248946
21
0.210179
0
LINE
8
BLACK
6
CONTINUOUS
10
0.248946
20
0.210179
11
0.250653
21
0.212733
0
LINE
8
BLACK
6
CONTINUOUS
10
0.250653
20
0.212733
11
0.253207
21
0.21444
0
LINE
8
BLACK
6
CONTINUOUS
10
0.253207
20
0.21444
11
0.25622
21
0.215039
0
LINE
8
BLACK
6
CONTINUOUS
10
0.25622
20
0.215039
11
0.31622
21
0.215039
0
LINE
8
BLACK
6
CONTINUOUS
10
0.21622
20
0.215039
11
0.219234
21
0.21444
0
LINE
8
BLACK
6
CONTINUOUS
10
0.219234
20
0.21444
11
0.221788
21
0.212733
0
LINE
8
BLACK
6
CONTINUOUS
10
0.221788
20
0.212733
11
0.223495
21
0.210179
0
LINE
8
BLACK
6
CONTINUOUS
10
0.223495
20
0.210179
11
0.224094
21
0.207165
0
LINE
8
BLACK
6
CONTINUOUS
10
0.224094
20
0.207165
11
0.224094
21
0.147165
0
LINE
8
BLACK
6
CONTINUOUS
10
0.224094
20
0.147165
11
0.223495
21
0.144152
0
LINE
8
BLACK
6
CONTINUOUS
10
0.223495
20
0.144152
11
0.221788
21
0.141598
0
LINE
8
BLACK
6
CONTINUOUS
10
0.221788
20
0.141598
11
0.219234
21
0.139891
0
LINE
8
BLACK
6
CONTINUOUS
10
0.219234
20
0.139891
11
0.21622
21
0.139291
0
LINE
8
BLACK
6
CONTINUOUS
10
0.21622
20
0.139291
11
0.15622
21
0.139291
0
LINE
8
BLACK
6
CONTINUOUS
10
0.15622
20
0.139291
11
0.153207
21
0.139891
0
LINE
8
BLACK
6
CONTINUOUS
10
0.153207
20
0.139891
11
0.150653
21
0.141598
0
LINE
8
BLACK
6
CONTINUOUS
10
0.150653
20
0.141598
11
0.148946
21
0.144152
0
LINE
8
BLACK
6
CONTINUOUS
10
0.148946
20
0.144152
11
0.148346
21
0.147165
0
LINE
8
BLACK
6
CONTINUOUS
10
0.148346
20
0.147165
11
0.148346
21
0.207165
0
LINE
8
BLACK
6
CONTINUOUS
10
0.148346
20
0.207165
11
0.148946
21
0.210179
0
LINE
8
BLACK
6
CONTINUOUS
10
0.148946
20
0.210179
11
0.150653
21
0.212733
0
LINE
8
BLACK
6
CONTINUOUS
10
0.150653
20
0.212733
11
0.153207
21
0.21444
0
LINE
8
BLACK
6
CONTINUOUS
10
0.153207
20
0.21444
11
0.15622
21
0.215039
0
LINE
8
BLACK
6
CONTINUOUS
10
0.15622
20
0.215039
11
0.21622
21
0.215039
0
LINE
8
BLACK
6
CONTINUOUS
10
0.11622
20
0.215039
11
0.119234
21
0.21444
0
LINE
8
BLACK
6
CONTINUOUS
10
0.119234
20
0.21444
11
0.121788
21
0.212733
0
LINE
8
BLACK
6
CONTINUOUS
10
0.121788
20
0.212733
11
0.123495
21
0.210179
0
LINE
8
BLACK
6
CONTINUOUS
10
0.123495
20
0.210179
11
0.124094
21
0.207165
0
LINE
8
BLACK
6
CONTINUOUS
10
0.124094
20
0.207165
11
0.124094
21
0.147165
0
LINE
8
BLACK
6
CONTINUOUS
10
0.124094
20
0.147165
11
0.123495
21
0.144152
0
LINE
8
BLACK
6
CONTINUOUS
10
0.123495
20
0.144152
11
0.121788
21
0.141598
0
LINE
8
BLACK
6
CONTINUOUS
10
0.121788
20
0.141598
11
0.119234
21
0.139891
0
LINE
8
BLACK
6
CONTINUOUS
10
0.119234
20
0.139891
11
0.11622
21
0.139291
0
LINE
8
BLACK
6
CONTINUOUS
10
0.11622
20
0.139291
11
0.0562205
21
0.139291
0
LINE
8
BLACK
6
CONTINUOUS
10
0.0562205
20
0.139291
11
0.0532072
21
0.139891
0
LINE
8
BLACK
6
CONTINUOUS
10
0.0532072
20
0.139891
11
0.0506527
21
0.141598
0
LINE
8
BLACK
6
CONTINUOUS
10
0.0506527
20
0.141598
11
0.0489458
21
0.144152
0
LINE
8
BLACK
6
CONTINUOUS
10
0.0489458
20
0.144152
11
0.0483465
21
0.147165
0
LINE
8
BLACK
6
CONTINUOUS
10
0.0483465
20
0.147165
11
0.0483465
21
0.207165
0
LINE
8
BLACK
6
CONTINUOUS
10
0.0483465
20
0.207165
11
0.0489458
21
0.210179
0
LINE
8
BLACK
6
CONTINUOUS
10
0.0489458
20
0.210179
11
0.0506527
21
0.212733
0
LINE
8
BLACK
6
CONTINUOUS
10
0.0506527
20
0.212733
11
0.0532072
21
0.21444
0
LINE
8
BLACK
6
CONTINUOUS
10
0.0532072
20
0.21444
11
0.0562205
21
0.215039
0
LINE
8
BLACK
6
CONTINUOUS
10
0.0562205
20
0.215039
11
0.11622
21
0.215039
0
LINE
8
BLACK
6
CONTINUOUS
10
0.544488
20
1.48425
11
0.545088
21
1.48727
0
LINE
8
BLACK
6
CONTINUOUS
10
0.545088
20
1.48727
11
0.546794
21
1.48982
0
LINE
8
BLACK
6
CONTINUOUS
10
0.546794
20
1.48982
11
0.549349
21
1.49153
0
LINE
8
BLACK
6
CONTINUOUS
10
0.549349
20
1.49153
11
0.552362
21
1.49213
0
LINE
8
BLACK
6
CONTINUOUS
10
0.552362
20
1.49213
11
0.64685
21
1.49213
0
LINE
8
BLACK
6
CONTINUOUS
10
0.64685
20
1.49213
11
0.649864
21
1.49153
0
LINE
8
BLACK
6
CONTINUOUS
10
0.649864
20
1.49153
11
0.652418
21
1.48982
0
LINE
8
BLACK
6
CONTINUOUS
10
0.652418
20
1.48982
11
0.654125
21
1.48727
0
LINE
8
BLACK
6
CONTINUOUS
10
0.654125
20
1.48727
11
0.654724
21
1.48425
0
LINE
8
BLACK
6
CONTINUOUS
10
0.654724
20
1.48425
11
0.654724
21
1.38976
0
LINE
8
BLACK
6
CONTINUOUS
10
0.654724
20
1.38976
11
0.654125
21
1.38675
0
LINE
8
BLACK
6
CONTINUOUS
10
0.654125
20
1.38675
11
0.652418
21
1.3842
0
LINE
8
BLACK
6
CONTINUOUS
10
0.652418
20
1.3842
11
0.649864
21
1.38249
0
LINE
8
BLACK
6
CONTINUOUS
10
0.649864
20
1.38249
11
0.64685
21
1.38189
0
LINE
8
BLACK
6
CONTINUOUS
10
0.64685
20
1.38189
11
0.552362
21
1.38189
0
LINE
8
BLACK
6
CONTINUOUS
10
0.552362
20
1.38189
11
0.549349
21
1.38249
0
LINE
8
BLACK
6
CONTINUOUS
10
0.549349
20
1.38249
11
0.546794
21
1.3842
0
LINE
8
BLACK
6
CONTINUOUS
10
0.546794
20
1.3842
11
0.545088
21
1.38675
0
LINE
8
BLACK
6
CONTINUOUS
10
0.545088
20
1.38675
11
0.544488
21
1.38976
0
LINE
8
BLACK
6
CONTINUOUS
10
0.544488
20
1.38976
11
0.544488
21
1.48425
0
CIRCLE
8
BLACK
10
0.894882
20
1.43701
40
0.0551181
0
LINE
8
BLACK
6
CONTINUOUS
10
0.544488
20
0.57874
11
0.545088
21
0.581753
0
LINE
8
BLACK
6
CONTINUOUS
10
0.545088
20
0.581753
11
0.546794
21
0.584308
0
LINE
8
BLACK
6
CONTINUOUS
10
0.546794
20
0.584308
11
0.549349
21
0.586015
0
LINE
8
BLACK
6
CONTINUOUS
10
0.549349
20
0.586015
11
0.552362
21
0.586614
0
LINE
8
BLACK
6
CONTINUOUS
10
0.552362
20
0.586614
11
0.64685
21
0.586614
0
LINE
8
BLACK
6
CONTINUOUS
10
0.64685
20
0.586614
11
0.649864
21
0.586015
0
LINE
8
BLACK
6
CONTINUOUS
10
0.649864
20
0.586015
11
0.652418
21
0.584308
0
LINE
8
BLACK
6
CONTINUOUS
10
0.652418
20
0.584308
11
0.654125
21
0.581753
0
LINE
8
BLACK
6
CONTINUOUS
10
0.654125
20
0.581753
11
0.654724
21
0.57874
0
LINE
8
BLACK
6
CONTINUOUS
10
0.654724
20
0.57874
11
0.654724
21
0.484252
0
LINE
8
BLACK
6
CONTINUOUS
10
0.654724
20
0.484252
11
0.654125
21
0.481239
0
LINE
8
BLACK
6
CONTINUOUS
10
0.654125
20
0.481239
11
0.652418
21
0.478684
0
LINE
8
BLACK
6
CONTINUOUS
10
0.652418
20
0.478684
11
0.649864
21
0.476977
0
LINE
8
BLACK
6
CONTINUOUS
10
0.649864
20
0.476977
11
0.64685
21
0.476378
0
LINE
8
BLACK
6
CONTINUOUS
10
0.64685
20
0.476378
11
0.552362
21
0.476378
0
LINE
8
BLACK
6
CONTINUOUS
10
0.552362
20
0.476378
11
0.549349
21
0.476977
0
LINE
8
BLACK
6
CONTINUOUS
10
0.549349
20
0.476977
11
0.546794
21
0.478684
0
LINE
8
BLACK
6
CONTINUOUS
10
0.546794
20
0.478684
11
0.545088
21
0.481239
0
LINE
8
BLACK
6
CONTINUOUS
10
0.545088
20
0.481239
11
0.544488
21
0.484252
0
LINE
8
BLACK
6
CONTINUOUS
10
0.544488
20
0.484252
11
0.544488
21
0.57874
0
CIRCLE
8
BLACK
10
0.894882
20
0.531496
40
0.0551181
0
LINE
8
BLACK
6
CONTINUOUS
10
1.45
20
1.48425
11
1.4506
21
1.48727
0
LINE
8
BLACK
6
CONTINUOUS
10
1.4506
20
1.48727
11
1.45231
21
1.48982
0
LINE
8
BLACK
6
CONTINUOUS
10
1.45231
20
1.48982
11
1.45486
21
1.49153
0
LINE
8
BLACK
6
CONTINUOUS
10
1.45486
20
1.49153
11
1.45787
21
1.49213
0
LINE
8
BLACK
6
CONTINUOUS
10
1.45787
20
1.49213
11
1.55236
21
1.49213
0
LINE
8
BLACK
6
CONTINUOUS
10
1.55236
20
1.49213
11
1.55538
21
1.49153
0
LINE
8
BLACK
6
CONTINUOUS
10
1.55538
20
1.49153
11
1.55793
21
1.48982
0
LINE
8
BLACK
6
CONTINUOUS
10
1.55793
20
1.48982
11
1.55964
21
1.48727
0
LINE
8
BLACK
6
CONTINUOUS
10
1.55964
20
1.48727
11
1.56024
21
1.48425
0
LINE
8
BLACK
6
CONTINUOUS
10
1.56024
20
1.48425
11
1.56024
21
1.38976
0
LINE
8
BLACK
6
CONTINUOUS
10
1.56024
20
1.38976
11
1.55964
21
1.38675
0
LINE
8
BLACK
6
CONTINUOUS
10
1.55964
20
1.38675
11
1.55793
21
1.3842
0
LINE
8
BLACK
6
CONTINUOUS
10
1.55793
20
1.3842
11
1.55538
21
1.38249
0
LINE
8
BLACK
6
CONTINUOUS
10
1.55538
20
1.38249
11
1.55236
21
1.38189
0
LINE
8
BLACK
6
CONTINUOUS
10
1.55236
20
1.38189
11
1.45787
21
1.38189
0
LINE
8
BLACK
6
CONTINUOUS
10
1.45787
20
1.38189
11
1.45486
21
1.38249
0
LINE
8
BLACK
6
CONTINUOUS
10
1.45486
20
1.38249
11
1.45231
21
1.3842
0
LINE
8
BLACK
6
CONTINUOUS
10
1.45231
20
1.3842
11
1.4506
21
1.38675
0
LINE
8
BLACK
6
CONTINUOUS
10
1.4506
20
1.38675
11
1.45
21
1.38976
0
LINE
8
BLACK
6
CONTINUOUS
10
1.45
20
1.38976
11
1.45
21
1.48425
0
CIRCLE
8
BLACK
10
1.80039
20
1.43701
40
0.0551181
0
LINE
8
BLACK
6
CONTINUOUS
10
1.45
20
0.57874
11
1.4506
21
0.581753
0
LINE
8
BLACK
6
CONTINUOUS
10
1.4506
20
0.581753
11
1.45231
21
0.584308
0
LINE
8
BLACK
6
CONTINUOUS
10
1.45231
20
0.584308
11
1.45486
21
0.586015
0
LINE
8
BLACK
6
CONTINUOUS
10
1.45486
20
0.586015
11
1.45787
21
0.586614
0
LINE
8
BLACK
6
CONTINUOUS
10
1.45787
20
0.586614
11
1.55236
21
0.586614
0
LINE
8
BLACK
6
CONTINUOUS
10
1.55236
20
0.586614
11
1.55538
21
0.586015
0
LINE
8
BLACK
6
CONTINUOUS
10
1.55538
20
0.586015
11
1.55793
21
0.584308
0
LINE
8
BLACK
6
CONTINUOUS
10
1.55793
20
0.584308
11
1.55964
21
0.581753
0
LINE
8
BLACK
6
CONTINUOUS
10
1.55964
20
0.581753
11
1.56024
21
0.57874
0
LINE
8
BLACK
6
CONTINUOUS
10
1.56024
20
0.57874
11
1.56024
21
0.484252
0
LINE
8
BLACK
6
CONTINUOUS
10
1.56024
20
0.484252
11
1.55964
21
0.481239
0
LINE
8
BLACK
6
CONTINUOUS
10
1.55964
20
0.481239
11
1.55793
21
0.478684
0
LINE
8
BLACK
6
CONTINUOUS
10
1.55793
20
0.478684
11
1.55538
21
0.476977
0
LINE
8
BLACK
6
CONTINUOUS
10
1.55538
20
0.476977
11
1.55236
21
0.476378
0
LINE
8
BLACK
6
CONTINUOUS
10
1.55236
20
0.476378
11
1.45787
21
0.476378
0
LINE
8
BLACK
6
CONTINUOUS
10
1.45787
20
0.476378
11
1.45486
21
0.476977
0
LINE
8
BLACK
6
CONTINUOUS
10
1.45486
20
0.476977
11
1.45231
21
0.478684
0
LINE
8
BLACK
6
CONTINUOUS
10
1.45231
20
0.478684
11
1.4506
21
0.481239
0
LINE
8
BLACK
6
CONTINUOUS
10
1.4506
20
0.481239
11
1.45
21
0.484252
0
LINE
8
BLACK
6
CONTINUOUS
10
1.45
20
0.484252
11
1.45
21
0.57874
0
CIRCLE
8
BLACK
10
1.80039
20
0.531496
40
0.0551181
0
LINE
8
BLACK
6
CONTINUOUS
10
2.34378
20
0.215039
11
2.34679
21
0.21444
0
LINE
8
BLACK
6
CONTINUOUS
10
2.34679
20
0.21444
11
2.34935
21
0.212733
0
LINE
8
BLACK
6
CONTINUOUS
10
2.34935
20
0.212733
11
2.35105
21
0.210179
0
LINE
8
BLACK
6
CONTINUOUS
10
2.35105
20
0.210179
11
2.35165
21
0.207165
0
LINE
8
BLACK
6
CONTINUOUS
10
2.35165
20
0.207165
11
2.35165
21
0.147165
0
LINE
8
BLACK
6
CONTINUOUS
10
2.35165
20
0.147165
11
2.35105
21
0.144152
0
LINE
8
BLACK
6
CONTINUOUS
10
2.35105
20
0.144152
11
2.34935
21
0.141598
0
LINE
8
BLACK
6
CONTINUOUS
10
2.34935
20
0.141598
11
2.34679
21
0.139891
0
LINE
8
BLACK
6
CONTINUOUS
10
2.34679
20
0.139891
11
2.34378
21
0.139291
0
LINE
8
BLACK
6
CONTINUOUS
10
2.34378
20
0.139291
11
2.28378
21
0.139291
0
LINE
8
BLACK
6
CONTINUOUS
10
2.28378
20
0.139291
11
2.28077
21
0.139891
0
LINE
8
BLACK
6
CONTINUOUS
10
2.28077
20
0.139891
11
2.27821
21
0.141598
0
LINE
8
BLACK
6
CONTINUOUS
10
2.27821
20
0.141598
11
2.2765
21
0.144152
0
LINE
8
BLACK
6
CONTINUOUS
10
2.2765
20
0.144152
11
2.27591
21
0.147165
0
LINE
8
BLACK
6
CONTINUOUS
10
2.27591
20
0.147165
11
2.27591
21
0.207165
0
LINE
8
BLACK
6
CONTINUOUS
10
2.27591
20
0.207165
11
2.2765
21
0.210179
0
LINE
8
BLACK
6
CONTINUOUS
10
2.2765
20
0.210179
11
2.27821
21
0.212733
0
LINE
8
BLACK
6
CONTINUOUS
10
2.27821
20
0.212733
11
2.28077
21
0.21444
0
LINE
8
BLACK
6
CONTINUOUS
10
2.28077
20
0.21444
11
2.28378
21
0.215039
0
LINE
8
BLACK
6
CONTINUOUS
10
2.28378
20
0.215039
11
2.34378
21
0.215039
0
LINE
8
BLACK
6
CONTINUOUS
10
2.24378
20
0.215039
11
2.24679
21
0.21444
0
LINE
8
BLACK
6
CONTINUOUS
10
2.24679
20
0.21444
11
2.24935
21
0.212733
0
LINE
8
BLACK
6
CONTINUOUS
10
2.24935
20
0.212733
11
2.25105
21
0.210179
0
LINE
8
BLACK
6
CONTINUOUS
10
2.25105
20
0.210179
11
2.25165
21
0.207165
0
LINE
8
BLACK
6
CONTINUOUS
10
2.25165
20
0.207165
11
2.25165
21
0.147165
0
LINE
8
BLACK
6
CONTINUOUS
10
2.25165
20
0.147165
11
2.25105
21
0.144152
0
LINE
8
BLACK
6
CONTINUOUS
10
2.25105
20
0.144152
11
2.24935
21
0.141598
0
LINE
8
BLACK
6
CONTINUOUS
10
2.24935
20
0.141598
11
2.24679
21
0.139891
0
LINE
8
BLACK
6
CONTINUOUS
10
2.24679
20
0.139891
11
2.24378
21
0.139291
0
LINE
8
BLACK
6
CONTINUOUS
10
2.24378
20
0.139291
11
2.18378
21
0.139291
0
LINE
8
BLACK
6
CONTINUOUS
10
2.18378
20
0.139291
11
2.18077
21
0.139891
0
LINE
8
BLACK
6
CONTINUOUS
10
2.18077
20
0.139891
11
2.17821
21
0.141598
0
LINE
8
BLACK
6
CONTINUOUS
10
2.17821
20
0.141598
11
2.1765
21
0.144152
0
LINE
8
BLACK
6
CONTINUOUS
10
2.1765
20
0.144152
11
2.17591
21
0.147165
0
LINE
8
BLACK
6
CONTINUOUS
10
2.17591
20
0.147165
11
2.17591
21
0.207165
0
LINE
8
BLACK
6
CONTINUOUS
10
2.17591
20
0.207165
11
2.1765
21
0.210179
0
LINE
8
BLACK
6
CONTINUOUS
10
2.1765
20
0.210179
11
2.17821
21
0.212733
0
LINE
8
BLACK
6
CONTINUOUS
10
2.17821
20
0.212733
11
2.18077
21
0.21444
0
LINE
8
BLACK
6
CONTINUOUS
10
2.18077
20
0.21444
11
2.18378
21
0.215039
0
LINE
8
BLACK
6
CONTINUOUS
10
2.18378
20
0.215039
11
2.24378
21
0.215039
0
LINE
8
BLACK
6
CONTINUOUS
10
2.14378
20
0.215039
11
2.14679
21
0.21444
0
LINE
8
BLACK
6
CONTINUOUS
10
2.14679
20
0.21444
11
2.14935
21
0.212733
0
LINE
8
BLACK
6
CONTINUOUS
10
2.14935
20
0.212733
11
2.15105
21
0.210179
0
LINE
8
BLACK
6
CONTINUOUS
10
2.15105
20
0.210179
11
2.15165
21
0.207165
0
LINE
8
BLACK
6
CONTINUOUS
10
2.15165
20
0.207165
11
2.15165
21
0.147165
0
LINE
8
BLACK
6
CONTINUOUS
10
2.15165
20
0.147165
11
2.15105
21
0.144152
0
LINE
8
BLACK
6
CONTINUOUS
10
2.15105
20
0.144152
11
2.14935
21
0.141598
0
LINE
8
BLACK
6
CONTINUOUS
10
2.14935
20
0.141598
11
2.14679
21
0.139891
0
LINE
8
BLACK
6
CONTINUOUS
10
2.14679
20
0.139891
11
2.14378
21
0.139291
0
LINE
8
BLACK
6
CONTINUOUS
10
2.14378
20
0.139291
11
2.08378
21
0.139291
0
LINE
8
BLACK
6
CONTINUOUS
10
2.08378
20
0.139291
11
2.08077
21
0.139891
0
LINE
8
BLACK
6
CONTINUOUS
10
2.08077
20
0.139891
11
2.07821
21
0.141598
0
LINE
8
BLACK
6
CONTINUOUS
10
2.07821
20
0.141598
11
2.0765
21
0.144152
0
LINE
8
BLACK
6
CONTINUOUS
10
2.0765
20
0.144152
11
2.07591
21
0.147165
0
LINE
8
BLACK
6
CONTINUOUS
10
2.07591
20
0.147165
11
2.07591
21
0.207165
0
LINE
8
BLACK
6
CONTINUOUS
10
2.07591
20
0.207165
11
2.0765
21
0.210179
0
LINE
8
BLACK
6
CONTINUOUS
10
2.0765
20
0.210179
11
2.07821
21
0.212733
0
LINE
8
BLACK
6
CONTINUOUS
10
2.07821
20
0.212733
11
2.08077
21
0.21444
0
LINE
8
BLACK
6
CONTINUOUS
10
2.08077
20
0.21444
11
2.08378
21
0.215039
0
LINE
8
BLACK
6
CONTINUOUS
10
2.08378
20
0.215039
11
2.14378
21
0.215039
0
LINE
8
BLACK
6
CONTINUOUS
10
2.04378
20
0.215039
11
2.04679
21
0.21444
0
LINE
8
BLACK
6
CONTINUOUS
10
2.04679
20
0.21444
11
2.04935
21
0.212733
0
LINE
8
BLACK
6
CONTINUOUS
10
2.04935
20
0.212733
11
2.05105
21
0.210179
0
LINE
8
BLACK
6
CONTINUOUS
10
2.05105
20
0.210179
11
2.05165
21
0.207165
0
LINE
8
BLACK
6
CONTINUOUS
10
2.05165
20
0.207165
11
2.05165
21
0.147165
0
LINE
8
BLACK
6
CONTINUOUS
10
2.05165
20
0.147165
11
2.05105
21
0.144152
0
LINE
8
BLACK
6
CONTINUOUS
10
2.05105
20
0.144152
11
2.04935
21
0.141598
0
LINE
8
BLACK
6
CONTINUOUS
10
2.04935
20
0.141598
11
2.04679
21
0.139891
0
LINE
8
BLACK
6
CONTINUOUS
10
2.04679
20
0.139891
11
2.04378
21
0.139291
0
LINE
8
BLACK
6
CONTINUOUS
10
2.04378
20
0.139291
11
1.98378
21
0.139291
0
LINE
8
BLACK
6
CONTINUOUS
10
1.98378
20
0.139291
11
1.98077
21
0.139891
0
LINE
8
BLACK
6
CONTINUOUS
10
1.98077
20
0.139891
11
1.97821
21
0.141598
0
LINE
8
BLACK
6
CONTINUOUS
10
1.97821
20
0.141598
11
1.9765
21
0.144152
0
LINE
8
BLACK
6
CONTINUOUS
10
1.9765
20
0.144152
11
1.97591
21
0.147165
0
LINE
8
BLACK
6
CONTINUOUS
10
1.97591
20
0.147165
11
1.97591
21
0.207165
0
LINE
8
BLACK
6
CONTINUOUS
10
1.97591
20
0.207165
11
1.9765
21
0.210179
0
LINE
8
BLACK
6
CONTINUOUS
10
1.9765
20
0.210179
11
1.97821
21
0.212733
0
LINE
8
BLACK
6
CONTINUOUS
10
1.97821
20
0.212733
11
1.98077
21
0.21444
0
LINE
8
BLACK
6
CONTINUOUS
10
1.98077
20
0.21444
11
1.98378
21
0.215039
0
LINE
8
BLACK
6
CONTINUOUS
10
1.98378
20
0.215039
11
2.04378
21
0.215039
  0
ENDSEC
  0
EOF
