  0
SECTION
  2
HEADER
  9
$ANGBASE
  50
0.0
  9
$ANGDIR
  70
1
  9
$MEASUREMENT
  70
0
  0
ENDSEC
  0
SECTION
  2
TABLES
  0
TABLE
  2
LTYPE
  70
4
  0
LTYPE
  5
40F
  2
CONTINUOUS
  70
0
  3
Solid line
  72
65
  73
0
  40
0.0
  0
LTYPE
  5
410
  2
DASHDOT
 70
0
  3
Dash Dot ____ _ ____ _
 72
65
 73
4
 40
2.0
 49
1.25
 49
-0.25
 49
0.25
 49
-0.25
  0
LTYPE
  5
411
  2
DASHED
 70
0
  3
Dashed __ __ __ __ __
 72
65
 73
2
 40
0.75
 49
0.5
 49
-0.25
  0
LTYPE
  5
43B
  2
DOTTED
 70
0
  3
Dotted .  .  .  .
 72
65
 73
2
 40
0.2
 49
0.0
 49
-0.2
  0
ENDTAB
  0
TABLE
  2
STYLE
  70
4
  0
STYLE
  2
KICAD
  70
0
  40
0
  41
1
  42
1
  50
0
  71
0
  3
isocp.shx
  0
STYLE
  2
KICADB
  70
0
  40
0
  41
1
  42
1
  50
0
  71
0
  3
isocp.shx
  0
STYLE
  2
KICADI
  70
0
  40
0
  41
1
  42
1
  50
15
  71
0
  3
isocp.shx
  0
STYLE
  2
KICADBI
  70
0
  40
0
  41
1
  42
1
  50
15
  71
0
  3
isocp.shx
  0
ENDTAB
  0
TABLE
  2
LAYER
  70
1
  0
LAYER
  2
BLACK
  70
0
  62
7
  6
CONTINUOUS
  0
ENDTAB
  0
ENDSEC
  0
SECTION
  2
ENTITIES
0
LINE
8
BLACK
6
CONTINUOUS
10
0.365436
20
0.57973
11
0.369218
21
0.603608
0
LINE
8
BLACK
6
CONTINUOUS
10
0.369218
20
0.603608
11
0.374492
21
0.627203
0
LINE
8
BLACK
6
CONTINUOUS
10
0.374492
20
0.627203
11
0.381237
21
0.650419
0
LINE
8
BLACK
6
CONTINUOUS
10
0.381237
20
0.650419
11
0.389427
21
0.673166
0
LINE
8
BLACK
6
CONTINUOUS
10
0.389427
20
0.673166
11
0.399028
21
0.695354
0
LINE
8
BLACK
6
CONTINUOUS
10
0.399028
20
0.695354
11
0.410004
21
0.716895
0
LINE
8
BLACK
6
CONTINUOUS
10
0.410004
20
0.716895
11
0.422311
21
0.737705
0
LINE
8
BLACK
6
CONTINUOUS
10
0.422311
20
0.737705
11
0.4359
21
0.757701
0
LINE
8
BLACK
6
CONTINUOUS
10
0.4359
20
0.757701
11
0.450718
21
0.776804
0
LINE
8
BLACK
6
CONTINUOUS
10
0.450718
20
0.776804
11
0.466706
21
0.794939
0
LINE
8
BLACK
6
CONTINUOUS
10
0.466706
20
0.794939
11
0.483801
21
0.812034
0
LINE
8
BLACK
6
CONTINUOUS
10
0.483801
20
0.812034
11
0.501936
21
0.828022
0
LINE
8
BLACK
6
CONTINUOUS
10
0.501936
20
0.828022
11
0.521039
21
0.84284
0
LINE
8
BLACK
6
CONTINUOUS
10
0.521039
20
0.84284
11
0.541035
21
0.856429
0
LINE
8
BLACK
6
CONTINUOUS
10
0.541035
20
0.856429
11
0.561845
21
0.868736
0
LINE
8
BLACK
6
CONTINUOUS
10
0.561845
20
0.868736
11
0.583386
21
0.879712
0
LINE
8
BLACK
6
CONTINUOUS
10
0.583386
20
0.879712
11
0.605574
21
0.889314
0
LINE
8
BLACK
6
CONTINUOUS
10
0.605574
20
0.889314
11
0.628321
21
0.897503
0
LINE
8
BLACK
6
CONTINUOUS
10
0.628321
20
0.897503
11
0.651538
21
0.904248
0
LINE
8
BLACK
6
CONTINUOUS
10
0.651538
20
0.904248
11
0.675132
21
0.909522
0
LINE
8
BLACK
6
CONTINUOUS
10
0.675132
20
0.909522
11
0.699011
21
0.913304
0
LINE
8
BLACK
6
CONTINUOUS
10
0.699011
20
0.913304
11
0.72308
21
0.915579
0
LINE
8
BLACK
6
CONTINUOUS
10
0.72308
20
0.915579
11
0.747244
21
0.916339
0
LINE
8
BLACK
6
CONTINUOUS
10
0.747244
20
0.916339
11
0.771409
21
0.915579
0
LINE
8
BLACK
6
CONTINUOUS
10
0.771409
20
0.915579
11
0.795478
21
0.913304
0
LINE
8
BLACK
6
CONTINUOUS
10
0.795478
20
0.913304
11
0.819356
21
0.909522
0
LINE
8
BLACK
6
CONTINUOUS
10
0.819356
20
0.909522
11
0.842951
21
0.904248
0
LINE
8
BLACK
6
CONTINUOUS
10
0.842951
20
0.904248
11
0.866167
21
0.897503
0
LINE
8
BLACK
6
CONTINUOUS
10
0.866167
20
0.897503
11
0.888914
21
0.889314
0
LINE
8
BLACK
6
CONTINUOUS
10
0.888914
20
0.889314
11
0.911102
21
0.879712
0
LINE
8
BLACK
6
CONTINUOUS
10
0.911102
20
0.879712
11
0.932643
21
0.868736
0
LINE
8
BLACK
6
CONTINUOUS
10
0.932643
20
0.868736
11
0.953453
21
0.856429
0
LINE
8
BLACK
6
CONTINUOUS
10
0.953453
20
0.856429
11
0.973449
21
0.84284
0
LINE
8
BLACK
6
CONTINUOUS
10
0.973449
20
0.84284
11
0.992552
21
0.828022
0
LINE
8
BLACK
6
CONTINUOUS
10
0.992552
20
0.828022
11
1.01069
21
0.812034
0
LINE
8
BLACK
6
CONTINUOUS
10
1.01069
20
0.812034
11
1.02778
21
0.794939
0
LINE
8
BLACK
6
CONTINUOUS
10
1.02778
20
0.794939
11
1.04377
21
0.776804
0
LINE
8
BLACK
6
CONTINUOUS
10
1.04377
20
0.776804
11
1.05859
21
0.757701
0
LINE
8
BLACK
6
CONTINUOUS
10
1.05859
20
0.757701
11
1.07218
21
0.737705
0
LINE
8
BLACK
6
CONTINUOUS
10
1.07218
20
0.737705
11
1.08448
21
0.716895
0
LINE
8
BLACK
6
CONTINUOUS
10
1.08448
20
0.716895
11
1.09546
21
0.695354
0
LINE
8
BLACK
6
CONTINUOUS
10
1.09546
20
0.695354
11
1.10506
21
0.673166
0
LINE
8
BLACK
6
CONTINUOUS
10
1.10506
20
0.673166
11
1.11325
21
0.650419
0
LINE
8
BLACK
6
CONTINUOUS
10
1.11325
20
0.650419
11
1.12
21
0.627203
0
LINE
8
BLACK
6
CONTINUOUS
10
1.12
20
0.627203
11
1.12527
21
0.603608
0
LINE
8
BLACK
6
CONTINUOUS
10
1.12527
20
0.603608
11
1.12905
21
0.57973
0
LINE
8
BLACK
6
CONTINUOUS
10
1.12905
20
0.57973
11
1.13133
21
0.555661
0
LINE
8
BLACK
6
CONTINUOUS
10
1.13133
20
0.555661
11
1.13209
21
0.531496
0
LINE
8
BLACK
6
CONTINUOUS
10
1.13209
20
0.531496
11
1.13133
21
0.507332
0
LINE
8
BLACK
6
CONTINUOUS
10
1.13133
20
0.507332
11
1.12905
21
0.483263
0
LINE
8
BLACK
6
CONTINUOUS
10
1.12905
20
0.483263
11
1.12527
21
0.459384
0
LINE
8
BLACK
6
CONTINUOUS
10
1.12527
20
0.459384
11
1.12
21
0.43579
0
LINE
8
BLACK
6
CONTINUOUS
10
1.12
20
0.43579
11
1.11325
21
0.412573
0
LINE
8
BLACK
6
CONTINUOUS
10
1.11325
20
0.412573
11
1.10506
21
0.389826
0
LINE
8
BLACK
6
CONTINUOUS
10
1.10506
20
0.389826
11
1.09546
21
0.367638
0
LINE
8
BLACK
6
CONTINUOUS
10
1.09546
20
0.367638
11
1.08448
21
0.346097
0
LINE
8
BLACK
6
CONTINUOUS
10
1.08448
20
0.346097
11
1.07218
21
0.325287
0
LINE
8
BLACK
6
CONTINUOUS
10
1.07218
20
0.325287
11
1.05859
21
0.305291
0
LINE
8
BLACK
6
CONTINUOUS
10
1.05859
20
0.305291
11
1.04377
21
0.286188
0
LINE
8
BLACK
6
CONTINUOUS
10
1.04377
20
0.286188
11
1.02778
21
0.268053
0
LINE
8
BLACK
6
CONTINUOUS
10
1.02778
20
0.268053
11
1.01069
21
0.250958
0
LINE
8
BLACK
6
CONTINUOUS
10
1.01069
20
0.250958
11
0.992552
21
0.23497
0
LINE
8
BLACK
6
CONTINUOUS
10
0.992552
20
0.23497
11
0.973449
21
0.220152
0
LINE
8
BLACK
6
CONTINUOUS
10
0.973449
20
0.220152
11
0.953453
21
0.206563
0
LINE
8
BLACK
6
CONTINUOUS
10
0.953453
20
0.206563
11
0.932643
21
0.194256
0
LINE
8
BLACK
6
CONTINUOUS
10
0.932643
20
0.194256
11
0.911102
21
0.18328
0
LINE
8
BLACK
6
CONTINUOUS
10
0.911102
20
0.18328
11
0.888914
21
0.173679
0
LINE
8
BLACK
6
CONTINUOUS
10
0.888914
20
0.173679
11
0.866167
21
0.165489
0
LINE
8
BLACK
6
CONTINUOUS
10
0.866167
20
0.165489
11
0.842951
21
0.158744
0
LINE
8
BLACK
6
CONTINUOUS
10
0.842951
20
0.158744
11
0.819356
21
0.15347
0
LINE
8
BLACK
6
CONTINUOUS
10
0.819356
20
0.15347
11
0.795478
21
0.149688
0
LINE
8
BLACK
6
CONTINUOUS
10
0.795478
20
0.149688
11
0.771409
21
0.147413
0
LINE
8
BLACK
6
CONTINUOUS
10
0.771409
20
0.147413
11
0.747244
21
0.146654
0
LINE
8
BLACK
6
CONTINUOUS
10
0.747244
20
0.146654
11
0.72308
21
0.147413
0
LINE
8
BLACK
6
CONTINUOUS
10
0.72308
20
0.147413
11
0.699011
21
0.149688
0
LINE
8
BLACK
6
CONTINUOUS
10
0.699011
20
0.149688
11
0.675132
21
0.15347
0
LINE
8
BLACK
6
CONTINUOUS
10
0.675132
20
0.15347
11
0.651538
21
0.158744
0
LINE
8
BLACK
6
CONTINUOUS
10
0.651538
20
0.158744
11
0.628321
21
0.165489
0
LINE
8
BLACK
6
CONTINUOUS
10
0.628321
20
0.165489
11
0.605574
21
0.173679
0
LINE
8
BLACK
6
CONTINUOUS
10
0.605574
20
0.173679
11
0.583386
21
0.18328
0
LINE
8
BLACK
6
CONTINUOUS
10
0.583386
20
0.18328
11
0.561845
21
0.194256
0
LINE
8
BLACK
6
CONTINUOUS
10
0.561845
20
0.194256
11
0.541035
21
0.206563
0
LINE
8
BLACK
6
CONTINUOUS
10
0.541035
20
0.206563
11
0.521039
21
0.220152
0
LINE
8
BLACK
6
CONTINUOUS
10
0.521039
20
0.220152
11
0.501936
21
0.23497
0
LINE
8
BLACK
6
CONTINUOUS
10
0.501936
20
0.23497
11
0.483801
21
0.250958
0
LINE
8
BLACK
6
CONTINUOUS
10
0.483801
20
0.250958
11
0.466706
21
0.268053
0
LINE
8
BLACK
6
CONTINUOUS
10
0.466706
20
0.268053
11
0.450718
21
0.286188
0
LINE
8
BLACK
6
CONTINUOUS
10
0.450718
20
0.286188
11
0.4359
21
0.305291
0
LINE
8
BLACK
6
CONTINUOUS
10
0.4359
20
0.305291
11
0.422311
21
0.325287
0
LINE
8
BLACK
6
CONTINUOUS
10
0.422311
20
0.325287
11
0.410004
21
0.346097
0
LINE
8
BLACK
6
CONTINUOUS
10
0.410004
20
0.346097
11
0.399028
21
0.367638
0
LINE
8
BLACK
6
CONTINUOUS
10
0.399028
20
0.367638
11
0.389427
21
0.389826
0
LINE
8
BLACK
6
CONTINUOUS
10
0.389427
20
0.389826
11
0.381237
21
0.412573
0
LINE
8
BLACK
6
CONTINUOUS
10
0.381237
20
0.412573
11
0.374492
21
0.43579
0
LINE
8
BLACK
6
CONTINUOUS
10
0.374492
20
0.43579
11
0.369218
21
0.459384
0
LINE
8
BLACK
6
CONTINUOUS
10
0.369218
20
0.459384
11
0.365436
21
0.483263
0
LINE
8
BLACK
6
CONTINUOUS
10
0.365436
20
0.483263
11
0.363161
21
0.507332
0
LINE
8
BLACK
6
CONTINUOUS
10
0.363161
20
0.507332
11
0.362402
21
0.531496
0
LINE
8
BLACK
6
CONTINUOUS
10
0.362402
20
0.531496
11
0.363161
21
0.555661
0
LINE
8
BLACK
6
CONTINUOUS
10
0.363161
20
0.555661
11
0.365436
21
0.57973
0
LINE
8
BLACK
6
CONTINUOUS
10
0.367194
20
0.483485
11
0.370959
21
0.459716
0
LINE
8
BLACK
6
CONTINUOUS
10
0.370959
20
0.459716
11
0.376208
21
0.43623
0
LINE
8
BLACK
6
CONTINUOUS
10
0.376208
20
0.43623
11
0.382922
21
0.413121
0
LINE
8
BLACK
6
CONTINUOUS
10
0.382922
20
0.413121
11
0.391074
21
0.390478
0
LINE
8
BLACK
6
CONTINUOUS
10
0.391074
20
0.390478
11
0.400631
21
0.368392
0
LINE
8
BLACK
6
CONTINUOUS
10
0.400631
20
0.368392
11
0.411557
21
0.34695
0
LINE
8
BLACK
6
CONTINUOUS
10
0.411557
20
0.34695
11
0.423807
21
0.326236
0
LINE
8
BLACK
6
CONTINUOUS
10
0.423807
20
0.326236
11
0.437333
21
0.306333
0
LINE
8
BLACK
6
CONTINUOUS
10
0.437333
20
0.306333
11
0.452083
21
0.287318
0
LINE
8
BLACK
6
CONTINUOUS
10
0.452083
20
0.287318
11
0.467997
21
0.269266
0
LINE
8
BLACK
6
CONTINUOUS
10
0.467997
20
0.269266
11
0.485014
21
0.252249
0
LINE
8
BLACK
6
CONTINUOUS
10
0.485014
20
0.252249
11
0.503066
21
0.236335
0
LINE
8
BLACK
6
CONTINUOUS
10
0.503066
20
0.236335
11
0.522081
21
0.221585
0
LINE
8
BLACK
6
CONTINUOUS
10
0.522081
20
0.221585
11
0.541984
21
0.208059
0
LINE
8
BLACK
6
CONTINUOUS
10
0.541984
20
0.208059
11
0.562698
21
0.195809
0
LINE
8
BLACK
6
CONTINUOUS
10
0.562698
20
0.195809
11
0.58414
21
0.184883
0
LINE
8
BLACK
6
CONTINUOUS
10
0.58414
20
0.184883
11
0.606226
21
0.175326
0
LINE
8
BLACK
6
CONTINUOUS
10
0.606226
20
0.175326
11
0.628869
21
0.167174
0
LINE
8
BLACK
6
CONTINUOUS
10
0.628869
20
0.167174
11
0.651978
21
0.16046
0
LINE
8
BLACK
6
CONTINUOUS
10
0.651978
20
0.16046
11
0.675464
21
0.15521
0
LINE
8
BLACK
6
CONTINUOUS
10
0.675464
20
0.15521
11
0.699233
21
0.151446
0
LINE
8
BLACK
6
CONTINUOUS
10
0.699233
20
0.151446
11
0.723191
21
0.149181
0
LINE
8
BLACK
6
CONTINUOUS
10
0.723191
20
0.149181
11
0.747244
21
0.148425
0
LINE
8
BLACK
6
CONTINUOUS
10
0.747244
20
0.148425
11
0.771297
21
0.149181
0
LINE
8
BLACK
6
CONTINUOUS
10
0.771297
20
0.149181
11
0.795256
21
0.151446
0
LINE
8
BLACK
6
CONTINUOUS
10
0.795256
20
0.151446
11
0.819024
21
0.15521
0
LINE
8
BLACK
6
CONTINUOUS
10
0.819024
20
0.15521
11
0.84251
21
0.16046
0
LINE
8
BLACK
6
CONTINUOUS
10
0.84251
20
0.16046
11
0.865619
21
0.167174
0
LINE
8
BLACK
6
CONTINUOUS
10
0.865619
20
0.167174
11
0.888262
21
0.175326
0
LINE
8
BLACK
6
CONTINUOUS
10
0.888262
20
0.175326
11
0.910348
21
0.184883
0
LINE
8
BLACK
6
CONTINUOUS
10
0.910348
20
0.184883
11
0.93179
21
0.195809
0
LINE
8
BLACK
6
CONTINUOUS
10
0.93179
20
0.195809
11
0.952504
21
0.208059
0
LINE
8
BLACK
6
CONTINUOUS
10
0.952504
20
0.208059
11
0.972407
21
0.221585
0
LINE
8
BLACK
6
CONTINUOUS
10
0.972407
20
0.221585
11
0.991423
21
0.236335
0
LINE
8
BLACK
6
CONTINUOUS
10
0.991423
20
0.236335
11
1.00947
21
0.252249
0
LINE
8
BLACK
6
CONTINUOUS
10
1.00947
20
0.252249
11
1.02649
21
0.269266
0
LINE
8
BLACK
6
CONTINUOUS
10
1.02649
20
0.269266
11
1.04241
21
0.287318
0
LINE
8
BLACK
6
CONTINUOUS
10
1.04241
20
0.287318
11
1.05715
21
0.306333
0
LINE
8
BLACK
6
CONTINUOUS
10
1.05715
20
0.306333
11
1.07068
21
0.326236
0
LINE
8
BLACK
6
CONTINUOUS
10
1.07068
20
0.326236
11
1.08293
21
0.34695
0
LINE
8
BLACK
6
CONTINUOUS
10
1.08293
20
0.34695
11
1.09386
21
0.368392
0
LINE
8
BLACK
6
CONTINUOUS
10
1.09386
20
0.368392
11
1.10341
21
0.390478
0
LINE
8
BLACK
6
CONTINUOUS
10
1.10341
20
0.390478
11
1.11157
21
0.413121
0
LINE
8
BLACK
6
CONTINUOUS
10
1.11157
20
0.413121
11
1.11828
21
0.43623
0
LINE
8
BLACK
6
CONTINUOUS
10
1.11828
20
0.43623
11
1.12353
21
0.459716
0
LINE
8
BLACK
6
CONTINUOUS
10
1.12353
20
0.459716
11
1.12729
21
0.483485
0
LINE
8
BLACK
6
CONTINUOUS
10
1.12729
20
0.483485
11
1.12956
21
0.507443
0
LINE
8
BLACK
6
CONTINUOUS
10
1.12956
20
0.507443
11
1.13031
21
0.531496
0
LINE
8
BLACK
6
CONTINUOUS
10
1.13031
20
0.531496
11
1.12956
21
0.555549
0
LINE
8
BLACK
6
CONTINUOUS
10
1.12956
20
0.555549
11
1.12729
21
0.579508
0
LINE
8
BLACK
6
CONTINUOUS
10
1.12729
20
0.579508
11
1.12353
21
0.603276
0
LINE
8
BLACK
6
CONTINUOUS
10
1.12353
20
0.603276
11
1.11828
21
0.626762
0
LINE
8
BLACK
6
CONTINUOUS
10
1.11828
20
0.626762
11
1.11157
21
0.649871
0
LINE
8
BLACK
6
CONTINUOUS
10
1.11157
20
0.649871
11
1.10341
21
0.672514
0
LINE
8
BLACK
6
CONTINUOUS
10
1.10341
20
0.672514
11
1.09386
21
0.6946
0
LINE
8
BLACK
6
CONTINUOUS
10
1.09386
20
0.6946
11
1.08293
21
0.716042
0
LINE
8
BLACK
6
CONTINUOUS
10
1.08293
20
0.716042
11
1.07068
21
0.736756
0
LINE
8
BLACK
6
CONTINUOUS
10
1.07068
20
0.736756
11
1.05715
21
0.756659
0
LINE
8
BLACK
6
CONTINUOUS
10
1.05715
20
0.756659
11
1.04241
21
0.775675
0
LINE
8
BLACK
6
CONTINUOUS
10
1.04241
20
0.775675
11
1.02649
21
0.793726
0
LINE
8
BLACK
6
CONTINUOUS
10
1.02649
20
0.793726
11
1.00947
21
0.810743
0
LINE
8
BLACK
6
CONTINUOUS
10
1.00947
20
0.810743
11
0.991423
21
0.826657
0
LINE
8
BLACK
6
CONTINUOUS
10
0.991423
20
0.826657
11
0.972407
21
0.841407
0
LINE
8
BLACK
6
CONTINUOUS
10
0.972407
20
0.841407
11
0.952504
21
0.854933
0
LINE
8
BLACK
6
CONTINUOUS
10
0.952504
20
0.854933
11
0.93179
21
0.867184
0
LINE
8
BLACK
6
CONTINUOUS
10
0.93179
20
0.867184
11
0.910348
21
0.878109
0
LINE
8
BLACK
6
CONTINUOUS
10
0.910348
20
0.878109
11
0.888262
21
0.887666
0
LINE
8
BLACK
6
CONTINUOUS
10
0.888262
20
0.887666
11
0.865619
21
0.895818
0
LINE
8
BLACK
6
CONTINUOUS
10
0.865619
20
0.895818
11
0.84251
21
0.902532
0
LINE
8
BLACK
6
CONTINUOUS
10
0.84251
20
0.902532
11
0.819024
21
0.907782
0
LINE
8
BLACK
6
CONTINUOUS
10
0.819024
20
0.907782
11
0.795256
21
0.911546
0
LINE
8
BLACK
6
CONTINUOUS
10
0.795256
20
0.911546
11
0.771297
21
0.913811
0
LINE
8
BLACK
6
CONTINUOUS
10
0.771297
20
0.913811
11
0.747244
21
0.914567
0
LINE
8
BLACK
6
CONTINUOUS
10
0.747244
20
0.914567
11
0.723191
21
0.913811
0
LINE
8
BLACK
6
CONTINUOUS
10
0.723191
20
0.913811
11
0.699233
21
0.911546
0
LINE
8
BLACK
6
CONTINUOUS
10
0.699233
20
0.911546
11
0.675464
21
0.907782
0
LINE
8
BLACK
6
CONTINUOUS
10
0.675464
20
0.907782
11
0.651978
21
0.902532
0
LINE
8
BLACK
6
CONTINUOUS
10
0.651978
20
0.902532
11
0.628869
21
0.895818
0
LINE
8
BLACK
6
CONTINUOUS
10
0.628869
20
0.895818
11
0.606226
21
0.887666
0
LINE
8
BLACK
6
CONTINUOUS
10
0.606226
20
0.887666
11
0.58414
21
0.878109
0
LINE
8
BLACK
6
CONTINUOUS
10
0.58414
20
0.878109
11
0.562698
21
0.867184
0
LINE
8
BLACK
6
CONTINUOUS
10
0.562698
20
0.867184
11
0.541984
21
0.854933
0
LINE
8
BLACK
6
CONTINUOUS
10
0.541984
20
0.854933
11
0.522081
21
0.841407
0
LINE
8
BLACK
6
CONTINUOUS
10
0.522081
20
0.841407
11
0.503066
21
0.826657
0
LINE
8
BLACK
6
CONTINUOUS
10
0.503066
20
0.826657
11
0.485014
21
0.810743
0
LINE
8
BLACK
6
CONTINUOUS
10
0.485014
20
0.810743
11
0.467997
21
0.793726
0
LINE
8
BLACK
6
CONTINUOUS
10
0.467997
20
0.793726
11
0.452083
21
0.775675
0
LINE
8
BLACK
6
CONTINUOUS
10
0.452083
20
0.775675
11
0.437333
21
0.756659
0
LINE
8
BLACK
6
CONTINUOUS
10
0.437333
20
0.756659
11
0.423807
21
0.736756
0
LINE
8
BLACK
6
CONTINUOUS
10
0.423807
20
0.736756
11
0.411557
21
0.716042
0
LINE
8
BLACK
6
CONTINUOUS
10
0.411557
20
0.716042
11
0.400631
21
0.6946
0
LINE
8
BLACK
6
CONTINUOUS
10
0.400631
20
0.6946
11
0.391074
21
0.672514
0
LINE
8
BLACK
6
CONTINUOUS
10
0.391074
20
0.672514
11
0.382922
21
0.649871
0
LINE
8
BLACK
6
CONTINUOUS
10
0.382922
20
0.649871
11
0.376208
21
0.626762
0
LINE
8
BLACK
6
CONTINUOUS
10
0.376208
20
0.626762
11
0.370959
21
0.603276
0
LINE
8
BLACK
6
CONTINUOUS
10
0.370959
20
0.603276
11
0.367194
21
0.579508
0
LINE
8
BLACK
6
CONTINUOUS
10
0.367194
20
0.579508
11
0.364929
21
0.555549
0
LINE
8
BLACK
6
CONTINUOUS
10
0.364929
20
0.555549
11
0.364173
21
0.531496
0
LINE
8
BLACK
6
CONTINUOUS
10
0.364173
20
0.531496
11
0.364929
21
0.507443
0
LINE
8
BLACK
6
CONTINUOUS
10
0.364929
20
0.507443
11
0.367194
21
0.483485
0
LINE
8
BLACK
6
CONTINUOUS
10
1.27095
20
0.57973
11
1.27473
21
0.603608
0
LINE
8
BLACK
6
CONTINUOUS
10
1.27473
20
0.603608
11
1.28
21
0.627203
0
LINE
8
BLACK
6
CONTINUOUS
10
1.28
20
0.627203
11
1.28675
21
0.650419
0
LINE
8
BLACK
6
CONTINUOUS
10
1.28675
20
0.650419
11
1.29494
21
0.673166
0
LINE
8
BLACK
6
CONTINUOUS
10
1.29494
20
0.673166
11
1.30454
21
0.695354
0
LINE
8
BLACK
6
CONTINUOUS
10
1.30454
20
0.695354
11
1.31552
21
0.716895
0
LINE
8
BLACK
6
CONTINUOUS
10
1.31552
20
0.716895
11
1.32782
21
0.737705
0
LINE
8
BLACK
6
CONTINUOUS
10
1.32782
20
0.737705
11
1.34141
21
0.757701
0
LINE
8
BLACK
6
CONTINUOUS
10
1.34141
20
0.757701
11
1.35623
21
0.776804
0
LINE
8
BLACK
6
CONTINUOUS
10
1.35623
20
0.776804
11
1.37222
21
0.794939
0
LINE
8
BLACK
6
CONTINUOUS
10
1.37222
20
0.794939
11
1.38931
21
0.812034
0
LINE
8
BLACK
6
CONTINUOUS
10
1.38931
20
0.812034
11
1.40745
21
0.828022
0
LINE
8
BLACK
6
CONTINUOUS
10
1.40745
20
0.828022
11
1.42655
21
0.84284
0
LINE
8
BLACK
6
CONTINUOUS
10
1.42655
20
0.84284
11
1.44655
21
0.856429
0
LINE
8
BLACK
6
CONTINUOUS
10
1.44655
20
0.856429
11
1.46736
21
0.868736
0
LINE
8
BLACK
6
CONTINUOUS
10
1.46736
20
0.868736
11
1.4889
21
0.879712
0
LINE
8
BLACK
6
CONTINUOUS
10
1.4889
20
0.879712
11
1.51109
21
0.889314
0
LINE
8
BLACK
6
CONTINUOUS
10
1.51109
20
0.889314
11
1.53383
21
0.897503
0
LINE
8
BLACK
6
CONTINUOUS
10
1.53383
20
0.897503
11
1.55705
21
0.904248
0
LINE
8
BLACK
6
CONTINUOUS
10
1.55705
20
0.904248
11
1.58064
21
0.909522
0
LINE
8
BLACK
6
CONTINUOUS
10
1.58064
20
0.909522
11
1.60452
21
0.913304
0
LINE
8
BLACK
6
CONTINUOUS
10
1.60452
20
0.913304
11
1.62859
21
0.915579
0
LINE
8
BLACK
6
CONTINUOUS
10
1.62859
20
0.915579
11
1.65276
21
0.916339
0
LINE
8
BLACK
6
CONTINUOUS
10
1.65276
20
0.916339
11
1.67692
21
0.915579
0
LINE
8
BLACK
6
CONTINUOUS
10
1.67692
20
0.915579
11
1.70099
21
0.913304
0
LINE
8
BLACK
6
CONTINUOUS
10
1.70099
20
0.913304
11
1.72487
21
0.909522
0
LINE
8
BLACK
6
CONTINUOUS
10
1.72487
20
0.909522
11
1.74846
21
0.904248
0
LINE
8
BLACK
6
CONTINUOUS
10
1.74846
20
0.904248
11
1.77168
21
0.897503
0
LINE
8
BLACK
6
CONTINUOUS
10
1.77168
20
0.897503
11
1.79443
21
0.889314
0
LINE
8
BLACK
6
CONTINUOUS
10
1.79443
20
0.889314
11
1.81661
21
0.879712
0
LINE
8
BLACK
6
CONTINUOUS
10
1.81661
20
0.879712
11
1.83816
21
0.868736
0
LINE
8
BLACK
6
CONTINUOUS
10
1.83816
20
0.868736
11
1.85896
21
0.856429
0
LINE
8
BLACK
6
CONTINUOUS
10
1.85896
20
0.856429
11
1.87896
21
0.84284
0
LINE
8
BLACK
6
CONTINUOUS
10
1.87896
20
0.84284
11
1.89806
21
0.828022
0
LINE
8
BLACK
6
CONTINUOUS
10
1.89806
20
0.828022
11
1.9162
21
0.812034
0
LINE
8
BLACK
6
CONTINUOUS
10
1.9162
20
0.812034
11
1.93329
21
0.794939
0
LINE
8
BLACK
6
CONTINUOUS
10
1.93329
20
0.794939
11
1.94928
21
0.776804
0
LINE
8
BLACK
6
CONTINUOUS
10
1.94928
20
0.776804
11
1.9641
21
0.757701
0
LINE
8
BLACK
6
CONTINUOUS
10
1.9641
20
0.757701
11
1.97769
21
0.737705
0
LINE
8
BLACK
6
CONTINUOUS
10
1.97769
20
0.737705
11
1.99
21
0.716895
0
LINE
8
BLACK
6
CONTINUOUS
10
1.99
20
0.716895
11
2.00097
21
0.695354
0
LINE
8
BLACK
6
CONTINUOUS
10
2.00097
20
0.695354
11
2.01057
21
0.673166
0
LINE
8
BLACK
6
CONTINUOUS
10
2.01057
20
0.673166
11
2.01876
21
0.650419
0
LINE
8
BLACK
6
CONTINUOUS
10
2.01876
20
0.650419
11
2.02551
21
0.627203
0
LINE
8
BLACK
6
CONTINUOUS
10
2.02551
20
0.627203
11
2.03078
21
0.603608
0
LINE
8
BLACK
6
CONTINUOUS
10
2.03078
20
0.603608
11
2.03456
21
0.57973
0
LINE
8
BLACK
6
CONTINUOUS
10
2.03456
20
0.57973
11
2.03684
21
0.555661
0
LINE
8
BLACK
6
CONTINUOUS
10
2.03684
20
0.555661
11
2.0376
21
0.531496
0
LINE
8
BLACK
6
CONTINUOUS
10
2.0376
20
0.531496
11
2.03684
21
0.507332
0
LINE
8
BLACK
6
CONTINUOUS
10
2.03684
20
0.507332
11
2.03456
21
0.483263
0
LINE
8
BLACK
6
CONTINUOUS
10
2.03456
20
0.483263
11
2.03078
21
0.459384
0
LINE
8
BLACK
6
CONTINUOUS
10
2.03078
20
0.459384
11
2.02551
21
0.43579
0
LINE
8
BLACK
6
CONTINUOUS
10
2.02551
20
0.43579
11
2.01876
21
0.412573
0
LINE
8
BLACK
6
CONTINUOUS
10
2.01876
20
0.412573
11
2.01057
21
0.389826
0
LINE
8
BLACK
6
CONTINUOUS
10
2.01057
20
0.389826
11
2.00097
21
0.367638
0
LINE
8
BLACK
6
CONTINUOUS
10
2.00097
20
0.367638
11
1.99
21
0.346097
0
LINE
8
BLACK
6
CONTINUOUS
10
1.99
20
0.346097
11
1.97769
21
0.325287
0
LINE
8
BLACK
6
CONTINUOUS
10
1.97769
20
0.325287
11
1.9641
21
0.305291
0
LINE
8
BLACK
6
CONTINUOUS
10
1.9641
20
0.305291
11
1.94928
21
0.286188
0
LINE
8
BLACK
6
CONTINUOUS
10
1.94928
20
0.286188
11
1.93329
21
0.268053
0
LINE
8
BLACK
6
CONTINUOUS
10
1.93329
20
0.268053
11
1.9162
21
0.250958
0
LINE
8
BLACK
6
CONTINUOUS
10
1.9162
20
0.250958
11
1.89806
21
0.23497
0
LINE
8
BLACK
6
CONTINUOUS
10
1.89806
20
0.23497
11
1.87896
21
0.220152
0
LINE
8
BLACK
6
CONTINUOUS
10
1.87896
20
0.220152
11
1.85896
21
0.206563
0
LINE
8
BLACK
6
CONTINUOUS
10
1.85896
20
0.206563
11
1.83816
21
0.194256
0
LINE
8
BLACK
6
CONTINUOUS
10
1.83816
20
0.194256
11
1.81661
21
0.18328
0
LINE
8
BLACK
6
CONTINUOUS
10
1.81661
20
0.18328
11
1.79443
21
0.173679
0
LINE
8
BLACK
6
CONTINUOUS
10
1.79443
20
0.173679
11
1.77168
21
0.165489
0
LINE
8
BLACK
6
CONTINUOUS
10
1.77168
20
0.165489
11
1.74846
21
0.158744
0
LINE
8
BLACK
6
CONTINUOUS
10
1.74846
20
0.158744
11
1.72487
21
0.15347
0
LINE
8
BLACK
6
CONTINUOUS
10
1.72487
20
0.15347
11
1.70099
21
0.149688
0
LINE
8
BLACK
6
CONTINUOUS
10
1.70099
20
0.149688
11
1.67692
21
0.147413
0
LINE
8
BLACK
6
CONTINUOUS
10
1.67692
20
0.147413
11
1.65276
21
0.146654
0
LINE
8
BLACK
6
CONTINUOUS
10
1.65276
20
0.146654
11
1.62859
21
0.147413
0
LINE
8
BLACK
6
CONTINUOUS
10
1.62859
20
0.147413
11
1.60452
21
0.149688
0
LINE
8
BLACK
6
CONTINUOUS
10
1.60452
20
0.149688
11
1.58064
21
0.15347
0
LINE
8
BLACK
6
CONTINUOUS
10
1.58064
20
0.15347
11
1.55705
21
0.158744
0
LINE
8
BLACK
6
CONTINUOUS
10
1.55705
20
0.158744
11
1.53383
21
0.165489
0
LINE
8
BLACK
6
CONTINUOUS
10
1.53383
20
0.165489
11
1.51109
21
0.173679
0
LINE
8
BLACK
6
CONTINUOUS
10
1.51109
20
0.173679
11
1.4889
21
0.18328
0
LINE
8
BLACK
6
CONTINUOUS
10
1.4889
20
0.18328
11
1.46736
21
0.194256
0
LINE
8
BLACK
6
CONTINUOUS
10
1.46736
20
0.194256
11
1.44655
21
0.206563
0
LINE
8
BLACK
6
CONTINUOUS
10
1.44655
20
0.206563
11
1.42655
21
0.220152
0
LINE
8
BLACK
6
CONTINUOUS
10
1.42655
20
0.220152
11
1.40745
21
0.23497
0
LINE
8
BLACK
6
CONTINUOUS
10
1.40745
20
0.23497
11
1.38931
21
0.250958
0
LINE
8
BLACK
6
CONTINUOUS
10
1.38931
20
0.250958
11
1.37222
21
0.268053
0
LINE
8
BLACK
6
CONTINUOUS
10
1.37222
20
0.268053
11
1.35623
21
0.286188
0
LINE
8
BLACK
6
CONTINUOUS
10
1.35623
20
0.286188
11
1.34141
21
0.305291
0
LINE
8
BLACK
6
CONTINUOUS
10
1.34141
20
0.305291
11
1.32782
21
0.325287
0
LINE
8
BLACK
6
CONTINUOUS
10
1.32782
20
0.325287
11
1.31552
21
0.346097
0
LINE
8
BLACK
6
CONTINUOUS
10
1.31552
20
0.346097
11
1.30454
21
0.367638
0
LINE
8
BLACK
6
CONTINUOUS
10
1.30454
20
0.367638
11
1.29494
21
0.389826
0
LINE
8
BLACK
6
CONTINUOUS
10
1.29494
20
0.389826
11
1.28675
21
0.412573
0
LINE
8
BLACK
6
CONTINUOUS
10
1.28675
20
0.412573
11
1.28
21
0.43579
0
LINE
8
BLACK
6
CONTINUOUS
10
1.28
20
0.43579
11
1.27473
21
0.459384
0
LINE
8
BLACK
6
CONTINUOUS
10
1.27473
20
0.459384
11
1.27095
21
0.483263
0
LINE
8
BLACK
6
CONTINUOUS
10
1.27095
20
0.483263
11
1.26867
21
0.507332
0
LINE
8
BLACK
6
CONTINUOUS
10
1.26867
20
0.507332
11
1.26791
21
0.531496
0
LINE
8
BLACK
6
CONTINUOUS
10
1.26791
20
0.531496
11
1.26867
21
0.555661
0
LINE
8
BLACK
6
CONTINUOUS
10
1.26867
20
0.555661
11
1.27095
21
0.57973
0
LINE
8
BLACK
6
CONTINUOUS
10
1.27271
20
0.483485
11
1.27647
21
0.459716
0
LINE
8
BLACK
6
CONTINUOUS
10
1.27647
20
0.459716
11
1.28172
21
0.43623
0
LINE
8
BLACK
6
CONTINUOUS
10
1.28172
20
0.43623
11
1.28843
21
0.413121
0
LINE
8
BLACK
6
CONTINUOUS
10
1.28843
20
0.413121
11
1.29659
21
0.390478
0
LINE
8
BLACK
6
CONTINUOUS
10
1.29659
20
0.390478
11
1.30614
21
0.368392
0
LINE
8
BLACK
6
CONTINUOUS
10
1.30614
20
0.368392
11
1.31707
21
0.34695
0
LINE
8
BLACK
6
CONTINUOUS
10
1.31707
20
0.34695
11
1.32932
21
0.326236
0
LINE
8
BLACK
6
CONTINUOUS
10
1.32932
20
0.326236
11
1.34285
21
0.306333
0
LINE
8
BLACK
6
CONTINUOUS
10
1.34285
20
0.306333
11
1.35759
21
0.287318
0
LINE
8
BLACK
6
CONTINUOUS
10
1.35759
20
0.287318
11
1.37351
21
0.269266
0
LINE
8
BLACK
6
CONTINUOUS
10
1.37351
20
0.269266
11
1.39053
21
0.252249
0
LINE
8
BLACK
6
CONTINUOUS
10
1.39053
20
0.252249
11
1.40858
21
0.236335
0
LINE
8
BLACK
6
CONTINUOUS
10
1.40858
20
0.236335
11
1.42759
21
0.221585
0
LINE
8
BLACK
6
CONTINUOUS
10
1.42759
20
0.221585
11
1.4475
21
0.208059
0
LINE
8
BLACK
6
CONTINUOUS
10
1.4475
20
0.208059
11
1.46821
21
0.195809
0
LINE
8
BLACK
6
CONTINUOUS
10
1.46821
20
0.195809
11
1.48965
21
0.184883
0
LINE
8
BLACK
6
CONTINUOUS
10
1.48965
20
0.184883
11
1.51174
21
0.175326
0
LINE
8
BLACK
6
CONTINUOUS
10
1.51174
20
0.175326
11
1.53438
21
0.167174
0
LINE
8
BLACK
6
CONTINUOUS
10
1.53438
20
0.167174
11
1.55749
21
0.16046
0
LINE
8
BLACK
6
CONTINUOUS
10
1.55749
20
0.16046
11
1.58098
21
0.15521
0
LINE
8
BLACK
6
CONTINUOUS
10
1.58098
20
0.15521
11
1.60474
21
0.151446
0
LINE
8
BLACK
6
CONTINUOUS
10
1.60474
20
0.151446
11
1.6287
21
0.149181
0
LINE
8
BLACK
6
CONTINUOUS
10
1.6287
20
0.149181
11
1.65276
21
0.148425
0
LINE
8
BLACK
6
CONTINUOUS
10
1.65276
20
0.148425
11
1.67681
21
0.149181
0
LINE
8
BLACK
6
CONTINUOUS
10
1.67681
20
0.149181
11
1.70077
21
0.151446
0
LINE
8
BLACK
6
CONTINUOUS
10
1.70077
20
0.151446
11
1.72454
21
0.15521
0
LINE
8
BLACK
6
CONTINUOUS
10
1.72454
20
0.15521
11
1.74802
21
0.16046
0
LINE
8
BLACK
6
CONTINUOUS
10
1.74802
20
0.16046
11
1.77113
21
0.167174
0
LINE
8
BLACK
6
CONTINUOUS
10
1.77113
20
0.167174
11
1.79377
21
0.175326
0
LINE
8
BLACK
6
CONTINUOUS
10
1.79377
20
0.175326
11
1.81586
21
0.184883
0
LINE
8
BLACK
6
CONTINUOUS
10
1.81586
20
0.184883
11
1.8373
21
0.195809
0
LINE
8
BLACK
6
CONTINUOUS
10
1.8373
20
0.195809
11
1.85802
21
0.208059
0
LINE
8
BLACK
6
CONTINUOUS
10
1.85802
20
0.208059
11
1.87792
21
0.221585
0
LINE
8
BLACK
6
CONTINUOUS
10
1.87792
20
0.221585
11
1.89693
21
0.236335
0
LINE
8
BLACK
6
CONTINUOUS
10
1.89693
20
0.236335
11
1.91499
21
0.252249
0
LINE
8
BLACK
6
CONTINUOUS
10
1.91499
20
0.252249
11
1.932
21
0.269266
0
LINE
8
BLACK
6
CONTINUOUS
10
1.932
20
0.269266
11
1.94792
21
0.287318
0
LINE
8
BLACK
6
CONTINUOUS
10
1.94792
20
0.287318
11
1.96267
21
0.306333
0
LINE
8
BLACK
6
CONTINUOUS
10
1.96267
20
0.306333
11
1.97619
21
0.326236
0
LINE
8
BLACK
6
CONTINUOUS
10
1.97619
20
0.326236
11
1.98844
21
0.34695
0
LINE
8
BLACK
6
CONTINUOUS
10
1.98844
20
0.34695
11
1.99937
21
0.368392
0
LINE
8
BLACK
6
CONTINUOUS
10
1.99937
20
0.368392
11
2.00893
21
0.390478
0
LINE
8
BLACK
6
CONTINUOUS
10
2.00893
20
0.390478
11
2.01708
21
0.413121
0
LINE
8
BLACK
6
CONTINUOUS
10
2.01708
20
0.413121
11
2.02379
21
0.43623
0
LINE
8
BLACK
6
CONTINUOUS
10
2.02379
20
0.43623
11
2.02904
21
0.459716
0
LINE
8
BLACK
6
CONTINUOUS
10
2.02904
20
0.459716
11
2.03281
21
0.483485
0
LINE
8
BLACK
6
CONTINUOUS
10
2.03281
20
0.483485
11
2.03507
21
0.507443
0
LINE
8
BLACK
6
CONTINUOUS
10
2.03507
20
0.507443
11
2.03583
21
0.531496
0
LINE
8
BLACK
6
CONTINUOUS
10
2.03583
20
0.531496
11
2.03507
21
0.555549
0
LINE
8
BLACK
6
CONTINUOUS
10
2.03507
20
0.555549
11
2.03281
21
0.579508
0
LINE
8
BLACK
6
CONTINUOUS
10
2.03281
20
0.579508
11
2.02904
21
0.603276
0
LINE
8
BLACK
6
CONTINUOUS
10
2.02904
20
0.603276
11
2.02379
21
0.626762
0
LINE
8
BLACK
6
CONTINUOUS
10
2.02379
20
0.626762
11
2.01708
21
0.649871
0
LINE
8
BLACK
6
CONTINUOUS
10
2.01708
20
0.649871
11
2.00893
21
0.672514
0
LINE
8
BLACK
6
CONTINUOUS
10
2.00893
20
0.672514
11
1.99937
21
0.6946
0
LINE
8
BLACK
6
CONTINUOUS
10
1.99937
20
0.6946
11
1.98844
21
0.716042
0
LINE
8
BLACK
6
CONTINUOUS
10
1.98844
20
0.716042
11
1.97619
21
0.736756
0
LINE
8
BLACK
6
CONTINUOUS
10
1.97619
20
0.736756
11
1.96267
21
0.756659
0
LINE
8
BLACK
6
CONTINUOUS
10
1.96267
20
0.756659
11
1.94792
21
0.775675
0
LINE
8
BLACK
6
CONTINUOUS
10
1.94792
20
0.775675
11
1.932
21
0.793726
0
LINE
8
BLACK
6
CONTINUOUS
10
1.932
20
0.793726
11
1.91499
21
0.810743
0
LINE
8
BLACK
6
CONTINUOUS
10
1.91499
20
0.810743
11
1.89693
21
0.826657
0
LINE
8
BLACK
6
CONTINUOUS
10
1.89693
20
0.826657
11
1.87792
21
0.841407
0
LINE
8
BLACK
6
CONTINUOUS
10
1.87792
20
0.841407
11
1.85802
21
0.854933
0
LINE
8
BLACK
6
CONTINUOUS
10
1.85802
20
0.854933
11
1.8373
21
0.867184
0
LINE
8
BLACK
6
CONTINUOUS
10
1.8373
20
0.867184
11
1.81586
21
0.878109
0
LINE
8
BLACK
6
CONTINUOUS
10
1.81586
20
0.878109
11
1.79377
21
0.887666
0
LINE
8
BLACK
6
CONTINUOUS
10
1.79377
20
0.887666
11
1.77113
21
0.895818
0
LINE
8
BLACK
6
CONTINUOUS
10
1.77113
20
0.895818
11
1.74802
21
0.902532
0
LINE
8
BLACK
6
CONTINUOUS
10
1.74802
20
0.902532
11
1.72454
21
0.907782
0
LINE
8
BLACK
6
CONTINUOUS
10
1.72454
20
0.907782
11
1.70077
21
0.911546
0
LINE
8
BLACK
6
CONTINUOUS
10
1.70077
20
0.911546
11
1.67681
21
0.913811
0
LINE
8
BLACK
6
CONTINUOUS
10
1.67681
20
0.913811
11
1.65276
21
0.914567
0
LINE
8
BLACK
6
CONTINUOUS
10
1.65276
20
0.914567
11
1.6287
21
0.913811
0
LINE
8
BLACK
6
CONTINUOUS
10
1.6287
20
0.913811
11
1.60474
21
0.911546
0
LINE
8
BLACK
6
CONTINUOUS
10
1.60474
20
0.911546
11
1.58098
21
0.907782
0
LINE
8
BLACK
6
CONTINUOUS
10
1.58098
20
0.907782
11
1.55749
21
0.902532
0
LINE
8
BLACK
6
CONTINUOUS
10
1.55749
20
0.902532
11
1.53438
21
0.895818
0
LINE
8
BLACK
6
CONTINUOUS
10
1.53438
20
0.895818
11
1.51174
21
0.887666
0
LINE
8
BLACK
6
CONTINUOUS
10
1.51174
20
0.887666
11
1.48965
21
0.878109
0
LINE
8
BLACK
6
CONTINUOUS
10
1.48965
20
0.878109
11
1.46821
21
0.867184
0
LINE
8
BLACK
6
CONTINUOUS
10
1.46821
20
0.867184
11
1.4475
21
0.854933
0
LINE
8
BLACK
6
CONTINUOUS
10
1.4475
20
0.854933
11
1.42759
21
0.841407
0
LINE
8
BLACK
6
CONTINUOUS
10
1.42759
20
0.841407
11
1.40858
21
0.826657
0
LINE
8
BLACK
6
CONTINUOUS
10
1.40858
20
0.826657
11
1.39053
21
0.810743
0
LINE
8
BLACK
6
CONTINUOUS
10
1.39053
20
0.810743
11
1.37351
21
0.793726
0
LINE
8
BLACK
6
CONTINUOUS
10
1.37351
20
0.793726
11
1.35759
21
0.775675
0
LINE
8
BLACK
6
CONTINUOUS
10
1.35759
20
0.775675
11
1.34285
21
0.756659
0
LINE
8
BLACK
6
CONTINUOUS
10
1.34285
20
0.756659
11
1.32932
21
0.736756
0
LINE
8
BLACK
6
CONTINUOUS
10
1.32932
20
0.736756
11
1.31707
21
0.716042
0
LINE
8
BLACK
6
CONTINUOUS
10
1.31707
20
0.716042
11
1.30614
21
0.6946
0
LINE
8
BLACK
6
CONTINUOUS
10
1.30614
20
0.6946
11
1.29659
21
0.672514
0
LINE
8
BLACK
6
CONTINUOUS
10
1.29659
20
0.672514
11
1.28843
21
0.649871
0
LINE
8
BLACK
6
CONTINUOUS
10
1.28843
20
0.649871
11
1.28172
21
0.626762
0
LINE
8
BLACK
6
CONTINUOUS
10
1.28172
20
0.626762
11
1.27647
21
0.603276
0
LINE
8
BLACK
6
CONTINUOUS
10
1.27647
20
0.603276
11
1.27271
21
0.579508
0
LINE
8
BLACK
6
CONTINUOUS
10
1.27271
20
0.579508
11
1.27044
21
0.555549
0
LINE
8
BLACK
6
CONTINUOUS
10
1.27044
20
0.555549
11
1.26969
21
0.531496
0
LINE
8
BLACK
6
CONTINUOUS
10
1.26969
20
0.531496
11
1.27044
21
0.507443
0
LINE
8
BLACK
6
CONTINUOUS
10
1.27044
20
0.507443
11
1.27271
21
0.483485
0
LINE
8
BLACK
6
CONTINUOUS
10
0.365436
20
1.48524
11
0.369218
21
1.50912
0
LINE
8
BLACK
6
CONTINUOUS
10
0.369218
20
1.50912
11
0.374492
21
1.53271
0
LINE
8
BLACK
6
CONTINUOUS
10
0.374492
20
1.53271
11
0.381237
21
1.55593
0
LINE
8
BLACK
6
CONTINUOUS
10
0.381237
20
1.55593
11
0.389427
21
1.57868
0
LINE
8
BLACK
6
CONTINUOUS
10
0.389427
20
1.57868
11
0.399028
21
1.60087
0
LINE
8
BLACK
6
CONTINUOUS
10
0.399028
20
1.60087
11
0.410004
21
1.62241
0
LINE
8
BLACK
6
CONTINUOUS
10
0.410004
20
1.62241
11
0.422311
21
1.64322
0
LINE
8
BLACK
6
CONTINUOUS
10
0.422311
20
1.64322
11
0.4359
21
1.66321
0
LINE
8
BLACK
6
CONTINUOUS
10
0.4359
20
1.66321
11
0.450718
21
1.68232
0
LINE
8
BLACK
6
CONTINUOUS
10
0.450718
20
1.68232
11
0.466706
21
1.70045
0
LINE
8
BLACK
6
CONTINUOUS
10
0.466706
20
1.70045
11
0.483801
21
1.71755
0
LINE
8
BLACK
6
CONTINUOUS
10
0.483801
20
1.71755
11
0.501936
21
1.73353
0
LINE
8
BLACK
6
CONTINUOUS
10
0.501936
20
1.73353
11
0.521039
21
1.74835
0
LINE
8
BLACK
6
CONTINUOUS
10
0.521039
20
1.74835
11
0.541035
21
1.76194
0
LINE
8
BLACK
6
CONTINUOUS
10
0.541035
20
1.76194
11
0.561845
21
1.77425
0
LINE
8
BLACK
6
CONTINUOUS
10
0.561845
20
1.77425
11
0.583386
21
1.78522
0
LINE
8
BLACK
6
CONTINUOUS
10
0.583386
20
1.78522
11
0.605574
21
1.79483
0
LINE
8
BLACK
6
CONTINUOUS
10
0.605574
20
1.79483
11
0.628321
21
1.80301
0
LINE
8
BLACK
6
CONTINUOUS
10
0.628321
20
1.80301
11
0.651538
21
1.80976
0
LINE
8
BLACK
6
CONTINUOUS
10
0.651538
20
1.80976
11
0.675132
21
1.81503
0
LINE
8
BLACK
6
CONTINUOUS
10
0.675132
20
1.81503
11
0.699011
21
1.81882
0
LINE
8
BLACK
6
CONTINUOUS
10
0.699011
20
1.81882
11
0.72308
21
1.82109
0
LINE
8
BLACK
6
CONTINUOUS
10
0.72308
20
1.82109
11
0.747244
21
1.82185
0
LINE
8
BLACK
6
CONTINUOUS
10
0.747244
20
1.82185
11
0.771409
21
1.82109
0
LINE
8
BLACK
6
CONTINUOUS
10
0.771409
20
1.82109
11
0.795478
21
1.81882
0
LINE
8
BLACK
6
CONTINUOUS
10
0.795478
20
1.81882
11
0.819356
21
1.81503
0
LINE
8
BLACK
6
CONTINUOUS
10
0.819356
20
1.81503
11
0.842951
21
1.80976
0
LINE
8
BLACK
6
CONTINUOUS
10
0.842951
20
1.80976
11
0.866167
21
1.80301
0
LINE
8
BLACK
6
CONTINUOUS
10
0.866167
20
1.80301
11
0.888914
21
1.79483
0
LINE
8
BLACK
6
CONTINUOUS
10
0.888914
20
1.79483
11
0.911102
21
1.78522
0
LINE
8
BLACK
6
CONTINUOUS
10
0.911102
20
1.78522
11
0.932643
21
1.77425
0
LINE
8
BLACK
6
CONTINUOUS
10
0.932643
20
1.77425
11
0.953453
21
1.76194
0
LINE
8
BLACK
6
CONTINUOUS
10
0.953453
20
1.76194
11
0.973449
21
1.74835
0
LINE
8
BLACK
6
CONTINUOUS
10
0.973449
20
1.74835
11
0.992552
21
1.73353
0
LINE
8
BLACK
6
CONTINUOUS
10
0.992552
20
1.73353
11
1.01069
21
1.71755
0
LINE
8
BLACK
6
CONTINUOUS
10
1.01069
20
1.71755
11
1.02778
21
1.70045
0
LINE
8
BLACK
6
CONTINUOUS
10
1.02778
20
1.70045
11
1.04377
21
1.68232
0
LINE
8
BLACK
6
CONTINUOUS
10
1.04377
20
1.68232
11
1.05859
21
1.66321
0
LINE
8
BLACK
6
CONTINUOUS
10
1.05859
20
1.66321
11
1.07218
21
1.64322
0
LINE
8
BLACK
6
CONTINUOUS
10
1.07218
20
1.64322
11
1.08448
21
1.62241
0
LINE
8
BLACK
6
CONTINUOUS
10
1.08448
20
1.62241
11
1.09546
21
1.60087
0
LINE
8
BLACK
6
CONTINUOUS
10
1.09546
20
1.60087
11
1.10506
21
1.57868
0
LINE
8
BLACK
6
CONTINUOUS
10
1.10506
20
1.57868
11
1.11325
21
1.55593
0
LINE
8
BLACK
6
CONTINUOUS
10
1.11325
20
1.55593
11
1.12
21
1.53271
0
LINE
8
BLACK
6
CONTINUOUS
10
1.12
20
1.53271
11
1.12527
21
1.50912
0
LINE
8
BLACK
6
CONTINUOUS
10
1.12527
20
1.50912
11
1.12905
21
1.48524
0
LINE
8
BLACK
6
CONTINUOUS
10
1.12905
20
1.48524
11
1.13133
21
1.46117
0
LINE
8
BLACK
6
CONTINUOUS
10
1.13133
20
1.46117
11
1.13209
21
1.43701
0
LINE
8
BLACK
6
CONTINUOUS
10
1.13209
20
1.43701
11
1.13133
21
1.41284
0
LINE
8
BLACK
6
CONTINUOUS
10
1.13133
20
1.41284
11
1.12905
21
1.38877
0
LINE
8
BLACK
6
CONTINUOUS
10
1.12905
20
1.38877
11
1.12527
21
1.3649
0
LINE
8
BLACK
6
CONTINUOUS
10
1.12527
20
1.3649
11
1.12
21
1.3413
0
LINE
8
BLACK
6
CONTINUOUS
10
1.12
20
1.3413
11
1.11325
21
1.31808
0
LINE
8
BLACK
6
CONTINUOUS
10
1.11325
20
1.31808
11
1.10506
21
1.29534
0
LINE
8
BLACK
6
CONTINUOUS
10
1.10506
20
1.29534
11
1.09546
21
1.27315
0
LINE
8
BLACK
6
CONTINUOUS
10
1.09546
20
1.27315
11
1.08448
21
1.25161
0
LINE
8
BLACK
6
CONTINUOUS
10
1.08448
20
1.25161
11
1.07218
21
1.2308
0
LINE
8
BLACK
6
CONTINUOUS
10
1.07218
20
1.2308
11
1.05859
21
1.2108
0
LINE
8
BLACK
6
CONTINUOUS
10
1.05859
20
1.2108
11
1.04377
21
1.1917
0
LINE
8
BLACK
6
CONTINUOUS
10
1.04377
20
1.1917
11
1.02778
21
1.17357
0
LINE
8
BLACK
6
CONTINUOUS
10
1.02778
20
1.17357
11
1.01069
21
1.15647
0
LINE
8
BLACK
6
CONTINUOUS
10
1.01069
20
1.15647
11
0.992552
21
1.14048
0
LINE
8
BLACK
6
CONTINUOUS
10
0.992552
20
1.14048
11
0.973449
21
1.12566
0
LINE
8
BLACK
6
CONTINUOUS
10
0.973449
20
1.12566
11
0.953453
21
1.11207
0
LINE
8
BLACK
6
CONTINUOUS
10
0.953453
20
1.11207
11
0.932643
21
1.09977
0
LINE
8
BLACK
6
CONTINUOUS
10
0.932643
20
1.09977
11
0.911102
21
1.08879
0
LINE
8
BLACK
6
CONTINUOUS
10
0.911102
20
1.08879
11
0.888914
21
1.07919
0
LINE
8
BLACK
6
CONTINUOUS
10
0.888914
20
1.07919
11
0.866167
21
1.071
0
LINE
8
BLACK
6
CONTINUOUS
10
0.866167
20
1.071
11
0.842951
21
1.06426
0
LINE
8
BLACK
6
CONTINUOUS
10
0.842951
20
1.06426
11
0.819356
21
1.05898
0
LINE
8
BLACK
6
CONTINUOUS
10
0.819356
20
1.05898
11
0.795478
21
1.0552
0
LINE
8
BLACK
6
CONTINUOUS
10
0.795478
20
1.0552
11
0.771409
21
1.05292
0
LINE
8
BLACK
6
CONTINUOUS
10
0.771409
20
1.05292
11
0.747244
21
1.05217
0
LINE
8
BLACK
6
CONTINUOUS
10
0.747244
20
1.05217
11
0.72308
21
1.05292
0
LINE
8
BLACK
6
CONTINUOUS
10
0.72308
20
1.05292
11
0.699011
21
1.0552
0
LINE
8
BLACK
6
CONTINUOUS
10
0.699011
20
1.0552
11
0.675132
21
1.05898
0
LINE
8
BLACK
6
CONTINUOUS
10
0.675132
20
1.05898
11
0.651538
21
1.06426
0
LINE
8
BLACK
6
CONTINUOUS
10
0.651538
20
1.06426
11
0.628321
21
1.071
0
LINE
8
BLACK
6
CONTINUOUS
10
0.628321
20
1.071
11
0.605574
21
1.07919
0
LINE
8
BLACK
6
CONTINUOUS
10
0.605574
20
1.07919
11
0.583386
21
1.08879
0
LINE
8
BLACK
6
CONTINUOUS
10
0.583386
20
1.08879
11
0.561845
21
1.09977
0
LINE
8
BLACK
6
CONTINUOUS
10
0.561845
20
1.09977
11
0.541035
21
1.11207
0
LINE
8
BLACK
6
CONTINUOUS
10
0.541035
20
1.11207
11
0.521039
21
1.12566
0
LINE
8
BLACK
6
CONTINUOUS
10
0.521039
20
1.12566
11
0.501936
21
1.14048
0
LINE
8
BLACK
6
CONTINUOUS
10
0.501936
20
1.14048
11
0.483801
21
1.15647
0
LINE
8
BLACK
6
CONTINUOUS
10
0.483801
20
1.15647
11
0.466706
21
1.17357
0
LINE
8
BLACK
6
CONTINUOUS
10
0.466706
20
1.17357
11
0.450718
21
1.1917
0
LINE
8
BLACK
6
CONTINUOUS
10
0.450718
20
1.1917
11
0.4359
21
1.2108
0
LINE
8
BLACK
6
CONTINUOUS
10
0.4359
20
1.2108
11
0.422311
21
1.2308
0
LINE
8
BLACK
6
CONTINUOUS
10
0.422311
20
1.2308
11
0.410004
21
1.25161
0
LINE
8
BLACK
6
CONTINUOUS
10
0.410004
20
1.25161
11
0.399028
21
1.27315
0
LINE
8
BLACK
6
CONTINUOUS
10
0.399028
20
1.27315
11
0.389427
21
1.29534
0
LINE
8
BLACK
6
CONTINUOUS
10
0.389427
20
1.29534
11
0.381237
21
1.31808
0
LINE
8
BLACK
6
CONTINUOUS
10
0.381237
20
1.31808
11
0.374492
21
1.3413
0
LINE
8
BLACK
6
CONTINUOUS
10
0.374492
20
1.3413
11
0.369218
21
1.3649
0
LINE
8
BLACK
6
CONTINUOUS
10
0.369218
20
1.3649
11
0.365436
21
1.38877
0
LINE
8
BLACK
6
CONTINUOUS
10
0.365436
20
1.38877
11
0.363161
21
1.41284
0
LINE
8
BLACK
6
CONTINUOUS
10
0.363161
20
1.41284
11
0.362402
21
1.43701
0
LINE
8
BLACK
6
CONTINUOUS
10
0.362402
20
1.43701
11
0.363161
21
1.46117
0
LINE
8
BLACK
6
CONTINUOUS
10
0.363161
20
1.46117
11
0.365436
21
1.48524
0
LINE
8
BLACK
6
CONTINUOUS
10
0.367194
20
1.389
11
0.370959
21
1.36523
0
LINE
8
BLACK
6
CONTINUOUS
10
0.370959
20
1.36523
11
0.376208
21
1.34174
0
LINE
8
BLACK
6
CONTINUOUS
10
0.376208
20
1.34174
11
0.382922
21
1.31863
0
LINE
8
BLACK
6
CONTINUOUS
10
0.382922
20
1.31863
11
0.391074
21
1.29599
0
LINE
8
BLACK
6
CONTINUOUS
10
0.391074
20
1.29599
11
0.400631
21
1.2739
0
LINE
8
BLACK
6
CONTINUOUS
10
0.400631
20
1.2739
11
0.411557
21
1.25246
0
LINE
8
BLACK
6
CONTINUOUS
10
0.411557
20
1.25246
11
0.423807
21
1.23175
0
LINE
8
BLACK
6
CONTINUOUS
10
0.423807
20
1.23175
11
0.437333
21
1.21184
0
LINE
8
BLACK
6
CONTINUOUS
10
0.437333
20
1.21184
11
0.452083
21
1.19283
0
LINE
8
BLACK
6
CONTINUOUS
10
0.452083
20
1.19283
11
0.467997
21
1.17478
0
LINE
8
BLACK
6
CONTINUOUS
10
0.467997
20
1.17478
11
0.485014
21
1.15776
0
LINE
8
BLACK
6
CONTINUOUS
10
0.485014
20
1.15776
11
0.503066
21
1.14185
0
LINE
8
BLACK
6
CONTINUOUS
10
0.503066
20
1.14185
11
0.522081
21
1.1271
0
LINE
8
BLACK
6
CONTINUOUS
10
0.522081
20
1.1271
11
0.541984
21
1.11357
0
LINE
8
BLACK
6
CONTINUOUS
10
0.541984
20
1.11357
11
0.562698
21
1.10132
0
LINE
8
BLACK
6
CONTINUOUS
10
0.562698
20
1.10132
11
0.58414
21
1.0904
0
LINE
8
BLACK
6
CONTINUOUS
10
0.58414
20
1.0904
11
0.606226
21
1.08084
0
LINE
8
BLACK
6
CONTINUOUS
10
0.606226
20
1.08084
11
0.628869
21
1.07269
0
LINE
8
BLACK
6
CONTINUOUS
10
0.628869
20
1.07269
11
0.651978
21
1.06597
0
LINE
8
BLACK
6
CONTINUOUS
10
0.651978
20
1.06597
11
0.675464
21
1.06072
0
LINE
8
BLACK
6
CONTINUOUS
10
0.675464
20
1.06072
11
0.699233
21
1.05696
0
LINE
8
BLACK
6
CONTINUOUS
10
0.699233
20
1.05696
11
0.723191
21
1.05469
0
LINE
8
BLACK
6
CONTINUOUS
10
0.723191
20
1.05469
11
0.747244
21
1.05394
0
LINE
8
BLACK
6
CONTINUOUS
10
0.747244
20
1.05394
11
0.771297
21
1.05469
0
LINE
8
BLACK
6
CONTINUOUS
10
0.771297
20
1.05469
11
0.795256
21
1.05696
0
LINE
8
BLACK
6
CONTINUOUS
10
0.795256
20
1.05696
11
0.819024
21
1.06072
0
LINE
8
BLACK
6
CONTINUOUS
10
0.819024
20
1.06072
11
0.84251
21
1.06597
0
LINE
8
BLACK
6
CONTINUOUS
10
0.84251
20
1.06597
11
0.865619
21
1.07269
0
LINE
8
BLACK
6
CONTINUOUS
10
0.865619
20
1.07269
11
0.888262
21
1.08084
0
LINE
8
BLACK
6
CONTINUOUS
10
0.888262
20
1.08084
11
0.910348
21
1.0904
0
LINE
8
BLACK
6
CONTINUOUS
10
0.910348
20
1.0904
11
0.93179
21
1.10132
0
LINE
8
BLACK
6
CONTINUOUS
10
0.93179
20
1.10132
11
0.952504
21
1.11357
0
LINE
8
BLACK
6
CONTINUOUS
10
0.952504
20
1.11357
11
0.972407
21
1.1271
0
LINE
8
BLACK
6
CONTINUOUS
10
0.972407
20
1.1271
11
0.991423
21
1.14185
0
LINE
8
BLACK
6
CONTINUOUS
10
0.991423
20
1.14185
11
1.00947
21
1.15776
0
LINE
8
BLACK
6
CONTINUOUS
10
1.00947
20
1.15776
11
1.02649
21
1.17478
0
LINE
8
BLACK
6
CONTINUOUS
10
1.02649
20
1.17478
11
1.04241
21
1.19283
0
LINE
8
BLACK
6
CONTINUOUS
10
1.04241
20
1.19283
11
1.05715
21
1.21184
0
LINE
8
BLACK
6
CONTINUOUS
10
1.05715
20
1.21184
11
1.07068
21
1.23175
0
LINE
8
BLACK
6
CONTINUOUS
10
1.07068
20
1.23175
11
1.08293
21
1.25246
0
LINE
8
BLACK
6
CONTINUOUS
10
1.08293
20
1.25246
11
1.09386
21
1.2739
0
LINE
8
BLACK
6
CONTINUOUS
10
1.09386
20
1.2739
11
1.10341
21
1.29599
0
LINE
8
BLACK
6
CONTINUOUS
10
1.10341
20
1.29599
11
1.11157
21
1.31863
0
LINE
8
BLACK
6
CONTINUOUS
10
1.11157
20
1.31863
11
1.11828
21
1.34174
0
LINE
8
BLACK
6
CONTINUOUS
10
1.11828
20
1.34174
11
1.12353
21
1.36523
0
LINE
8
BLACK
6
CONTINUOUS
10
1.12353
20
1.36523
11
1.12729
21
1.389
0
LINE
8
BLACK
6
CONTINUOUS
10
1.12729
20
1.389
11
1.12956
21
1.41295
0
LINE
8
BLACK
6
CONTINUOUS
10
1.12956
20
1.41295
11
1.13031
21
1.43701
0
LINE
8
BLACK
6
CONTINUOUS
10
1.13031
20
1.43701
11
1.12956
21
1.46106
0
LINE
8
BLACK
6
CONTINUOUS
10
1.12956
20
1.46106
11
1.12729
21
1.48502
0
LINE
8
BLACK
6
CONTINUOUS
10
1.12729
20
1.48502
11
1.12353
21
1.50879
0
LINE
8
BLACK
6
CONTINUOUS
10
1.12353
20
1.50879
11
1.11828
21
1.53227
0
LINE
8
BLACK
6
CONTINUOUS
10
1.11828
20
1.53227
11
1.11157
21
1.55538
0
LINE
8
BLACK
6
CONTINUOUS
10
1.11157
20
1.55538
11
1.10341
21
1.57803
0
LINE
8
BLACK
6
CONTINUOUS
10
1.10341
20
1.57803
11
1.09386
21
1.60011
0
LINE
8
BLACK
6
CONTINUOUS
10
1.09386
20
1.60011
11
1.08293
21
1.62155
0
LINE
8
BLACK
6
CONTINUOUS
10
1.08293
20
1.62155
11
1.07068
21
1.64227
0
LINE
8
BLACK
6
CONTINUOUS
10
1.07068
20
1.64227
11
1.05715
21
1.66217
0
LINE
8
BLACK
6
CONTINUOUS
10
1.05715
20
1.66217
11
1.04241
21
1.68119
0
LINE
8
BLACK
6
CONTINUOUS
10
1.04241
20
1.68119
11
1.02649
21
1.69924
0
LINE
8
BLACK
6
CONTINUOUS
10
1.02649
20
1.69924
11
1.00947
21
1.71625
0
LINE
8
BLACK
6
CONTINUOUS
10
1.00947
20
1.71625
11
0.991423
21
1.73217
0
LINE
8
BLACK
6
CONTINUOUS
10
0.991423
20
1.73217
11
0.972407
21
1.74692
0
LINE
8
BLACK
6
CONTINUOUS
10
0.972407
20
1.74692
11
0.952504
21
1.76045
0
LINE
8
BLACK
6
CONTINUOUS
10
0.952504
20
1.76045
11
0.93179
21
1.7727
0
LINE
8
BLACK
6
CONTINUOUS
10
0.93179
20
1.7727
11
0.910348
21
1.78362
0
LINE
8
BLACK
6
CONTINUOUS
10
0.910348
20
1.78362
11
0.888262
21
1.79318
0
LINE
8
BLACK
6
CONTINUOUS
10
0.888262
20
1.79318
11
0.865619
21
1.80133
0
LINE
8
BLACK
6
CONTINUOUS
10
0.865619
20
1.80133
11
0.84251
21
1.80804
0
LINE
8
BLACK
6
CONTINUOUS
10
0.84251
20
1.80804
11
0.819024
21
1.81329
0
LINE
8
BLACK
6
CONTINUOUS
10
0.819024
20
1.81329
11
0.795256
21
1.81706
0
LINE
8
BLACK
6
CONTINUOUS
10
0.795256
20
1.81706
11
0.771297
21
1.81932
0
LINE
8
BLACK
6
CONTINUOUS
10
0.771297
20
1.81932
11
0.747244
21
1.82008
0
LINE
8
BLACK
6
CONTINUOUS
10
0.747244
20
1.82008
11
0.723191
21
1.81932
0
LINE
8
BLACK
6
CONTINUOUS
10
0.723191
20
1.81932
11
0.699233
21
1.81706
0
LINE
8
BLACK
6
CONTINUOUS
10
0.699233
20
1.81706
11
0.675464
21
1.81329
0
LINE
8
BLACK
6
CONTINUOUS
10
0.675464
20
1.81329
11
0.651978
21
1.80804
0
LINE
8
BLACK
6
CONTINUOUS
10
0.651978
20
1.80804
11
0.628869
21
1.80133
0
LINE
8
BLACK
6
CONTINUOUS
10
0.628869
20
1.80133
11
0.606226
21
1.79318
0
LINE
8
BLACK
6
CONTINUOUS
10
0.606226
20
1.79318
11
0.58414
21
1.78362
0
LINE
8
BLACK
6
CONTINUOUS
10
0.58414
20
1.78362
11
0.562698
21
1.7727
0
LINE
8
BLACK
6
CONTINUOUS
10
0.562698
20
1.7727
11
0.541984
21
1.76045
0
LINE
8
BLACK
6
CONTINUOUS
10
0.541984
20
1.76045
11
0.522081
21
1.74692
0
LINE
8
BLACK
6
CONTINUOUS
10
0.522081
20
1.74692
11
0.503066
21
1.73217
0
LINE
8
BLACK
6
CONTINUOUS
10
0.503066
20
1.73217
11
0.485014
21
1.71625
0
LINE
8
BLACK
6
CONTINUOUS
10
0.485014
20
1.71625
11
0.467997
21
1.69924
0
LINE
8
BLACK
6
CONTINUOUS
10
0.467997
20
1.69924
11
0.452083
21
1.68119
0
LINE
8
BLACK
6
CONTINUOUS
10
0.452083
20
1.68119
11
0.437333
21
1.66217
0
LINE
8
BLACK
6
CONTINUOUS
10
0.437333
20
1.66217
11
0.423807
21
1.64227
0
LINE
8
BLACK
6
CONTINUOUS
10
0.423807
20
1.64227
11
0.411557
21
1.62155
0
LINE
8
BLACK
6
CONTINUOUS
10
0.411557
20
1.62155
11
0.400631
21
1.60011
0
LINE
8
BLACK
6
CONTINUOUS
10
0.400631
20
1.60011
11
0.391074
21
1.57803
0
LINE
8
BLACK
6
CONTINUOUS
10
0.391074
20
1.57803
11
0.382922
21
1.55538
0
LINE
8
BLACK
6
CONTINUOUS
10
0.382922
20
1.55538
11
0.376208
21
1.53227
0
LINE
8
BLACK
6
CONTINUOUS
10
0.376208
20
1.53227
11
0.370959
21
1.50879
0
LINE
8
BLACK
6
CONTINUOUS
10
0.370959
20
1.50879
11
0.367194
21
1.48502
0
LINE
8
BLACK
6
CONTINUOUS
10
0.367194
20
1.48502
11
0.364929
21
1.46106
0
LINE
8
BLACK
6
CONTINUOUS
10
0.364929
20
1.46106
11
0.364173
21
1.43701
0
LINE
8
BLACK
6
CONTINUOUS
10
0.364173
20
1.43701
11
0.364929
21
1.41295
0
LINE
8
BLACK
6
CONTINUOUS
10
0.364929
20
1.41295
11
0.367194
21
1.389
0
LINE
8
BLACK
6
CONTINUOUS
10
1.27095
20
1.48524
11
1.27473
21
1.50912
0
LINE
8
BLACK
6
CONTINUOUS
10
1.27473
20
1.50912
11
1.28
21
1.53271
0
LINE
8
BLACK
6
CONTINUOUS
10
1.28
20
1.53271
11
1.28675
21
1.55593
0
LINE
8
BLACK
6
CONTINUOUS
10
1.28675
20
1.55593
11
1.29494
21
1.57868
0
LINE
8
BLACK
6
CONTINUOUS
10
1.29494
20
1.57868
11
1.30454
21
1.60087
0
LINE
8
BLACK
6
CONTINUOUS
10
1.30454
20
1.60087
11
1.31552
21
1.62241
0
LINE
8
BLACK
6
CONTINUOUS
10
1.31552
20
1.62241
11
1.32782
21
1.64322
0
LINE
8
BLACK
6
CONTINUOUS
10
1.32782
20
1.64322
11
1.34141
21
1.66321
0
LINE
8
BLACK
6
CONTINUOUS
10
1.34141
20
1.66321
11
1.35623
21
1.68232
0
LINE
8
BLACK
6
CONTINUOUS
10
1.35623
20
1.68232
11
1.37222
21
1.70045
0
LINE
8
BLACK
6
CONTINUOUS
10
1.37222
20
1.70045
11
1.38931
21
1.71755
0
LINE
8
BLACK
6
CONTINUOUS
10
1.38931
20
1.71755
11
1.40745
21
1.73353
0
LINE
8
BLACK
6
CONTINUOUS
10
1.40745
20
1.73353
11
1.42655
21
1.74835
0
LINE
8
BLACK
6
CONTINUOUS
10
1.42655
20
1.74835
11
1.44655
21
1.76194
0
LINE
8
BLACK
6
CONTINUOUS
10
1.44655
20
1.76194
11
1.46736
21
1.77425
0
LINE
8
BLACK
6
CONTINUOUS
10
1.46736
20
1.77425
11
1.4889
21
1.78522
0
LINE
8
BLACK
6
CONTINUOUS
10
1.4889
20
1.78522
11
1.51109
21
1.79483
0
LINE
8
BLACK
6
CONTINUOUS
10
1.51109
20
1.79483
11
1.53383
21
1.80301
0
LINE
8
BLACK
6
CONTINUOUS
10
1.53383
20
1.80301
11
1.55705
21
1.80976
0
LINE
8
BLACK
6
CONTINUOUS
10
1.55705
20
1.80976
11
1.58064
21
1.81503
0
LINE
8
BLACK
6
CONTINUOUS
10
1.58064
20
1.81503
11
1.60452
21
1.81882
0
LINE
8
BLACK
6
CONTINUOUS
10
1.60452
20
1.81882
11
1.62859
21
1.82109
0
LINE
8
BLACK
6
CONTINUOUS
10
1.62859
20
1.82109
11
1.65276
21
1.82185
0
LINE
8
BLACK
6
CONTINUOUS
10
1.65276
20
1.82185
11
1.67692
21
1.82109
0
LINE
8
BLACK
6
CONTINUOUS
10
1.67692
20
1.82109
11
1.70099
21
1.81882
0
LINE
8
BLACK
6
CONTINUOUS
10
1.70099
20
1.81882
11
1.72487
21
1.81503
0
LINE
8
BLACK
6
CONTINUOUS
10
1.72487
20
1.81503
11
1.74846
21
1.80976
0
LINE
8
BLACK
6
CONTINUOUS
10
1.74846
20
1.80976
11
1.77168
21
1.80301
0
LINE
8
BLACK
6
CONTINUOUS
10
1.77168
20
1.80301
11
1.79443
21
1.79483
0
LINE
8
BLACK
6
CONTINUOUS
10
1.79443
20
1.79483
11
1.81661
21
1.78522
0
LINE
8
BLACK
6
CONTINUOUS
10
1.81661
20
1.78522
11
1.83816
21
1.77425
0
LINE
8
BLACK
6
CONTINUOUS
10
1.83816
20
1.77425
11
1.85896
21
1.76194
0
LINE
8
BLACK
6
CONTINUOUS
10
1.85896
20
1.76194
11
1.87896
21
1.74835
0
LINE
8
BLACK
6
CONTINUOUS
10
1.87896
20
1.74835
11
1.89806
21
1.73353
0
LINE
8
BLACK
6
CONTINUOUS
10
1.89806
20
1.73353
11
1.9162
21
1.71755
0
LINE
8
BLACK
6
CONTINUOUS
10
1.9162
20
1.71755
11
1.93329
21
1.70045
0
LINE
8
BLACK
6
CONTINUOUS
10
1.93329
20
1.70045
11
1.94928
21
1.68232
0
LINE
8
BLACK
6
CONTINUOUS
10
1.94928
20
1.68232
11
1.9641
21
1.66321
0
LINE
8
BLACK
6
CONTINUOUS
10
1.9641
20
1.66321
11
1.97769
21
1.64322
0
LINE
8
BLACK
6
CONTINUOUS
10
1.97769
20
1.64322
11
1.99
21
1.62241
0
LINE
8
BLACK
6
CONTINUOUS
10
1.99
20
1.62241
11
2.00097
21
1.60087
0
LINE
8
BLACK
6
CONTINUOUS
10
2.00097
20
1.60087
11
2.01057
21
1.57868
0
LINE
8
BLACK
6
CONTINUOUS
10
2.01057
20
1.57868
11
2.01876
21
1.55593
0
LINE
8
BLACK
6
CONTINUOUS
10
2.01876
20
1.55593
11
2.02551
21
1.53271
0
LINE
8
BLACK
6
CONTINUOUS
10
2.02551
20
1.53271
11
2.03078
21
1.50912
0
LINE
8
BLACK
6
CONTINUOUS
10
2.03078
20
1.50912
11
2.03456
21
1.48524
0
LINE
8
BLACK
6
CONTINUOUS
10
2.03456
20
1.48524
11
2.03684
21
1.46117
0
LINE
8
BLACK
6
CONTINUOUS
10
2.03684
20
1.46117
11
2.0376
21
1.43701
0
LINE
8
BLACK
6
CONTINUOUS
10
2.0376
20
1.43701
11
2.03684
21
1.41284
0
LINE
8
BLACK
6
CONTINUOUS
10
2.03684
20
1.41284
11
2.03456
21
1.38877
0
LINE
8
BLACK
6
CONTINUOUS
10
2.03456
20
1.38877
11
2.03078
21
1.3649
0
LINE
8
BLACK
6
CONTINUOUS
10
2.03078
20
1.3649
11
2.02551
21
1.3413
0
LINE
8
BLACK
6
CONTINUOUS
10
2.02551
20
1.3413
11
2.01876
21
1.31808
0
LINE
8
BLACK
6
CONTINUOUS
10
2.01876
20
1.31808
11
2.01057
21
1.29534
0
LINE
8
BLACK
6
CONTINUOUS
10
2.01057
20
1.29534
11
2.00097
21
1.27315
0
LINE
8
BLACK
6
CONTINUOUS
10
2.00097
20
1.27315
11
1.99
21
1.25161
0
LINE
8
BLACK
6
CONTINUOUS
10
1.99
20
1.25161
11
1.97769
21
1.2308
0
LINE
8
BLACK
6
CONTINUOUS
10
1.97769
20
1.2308
11
1.9641
21
1.2108
0
LINE
8
BLACK
6
CONTINUOUS
10
1.9641
20
1.2108
11
1.94928
21
1.1917
0
LINE
8
BLACK
6
CONTINUOUS
10
1.94928
20
1.1917
11
1.93329
21
1.17357
0
LINE
8
BLACK
6
CONTINUOUS
10
1.93329
20
1.17357
11
1.9162
21
1.15647
0
LINE
8
BLACK
6
CONTINUOUS
10
1.9162
20
1.15647
11
1.89806
21
1.14048
0
LINE
8
BLACK
6
CONTINUOUS
10
1.89806
20
1.14048
11
1.87896
21
1.12566
0
LINE
8
BLACK
6
CONTINUOUS
10
1.87896
20
1.12566
11
1.85896
21
1.11207
0
LINE
8
BLACK
6
CONTINUOUS
10
1.85896
20
1.11207
11
1.83816
21
1.09977
0
LINE
8
BLACK
6
CONTINUOUS
10
1.83816
20
1.09977
11
1.81661
21
1.08879
0
LINE
8
BLACK
6
CONTINUOUS
10
1.81661
20
1.08879
11
1.79443
21
1.07919
0
LINE
8
BLACK
6
CONTINUOUS
10
1.79443
20
1.07919
11
1.77168
21
1.071
0
LINE
8
BLACK
6
CONTINUOUS
10
1.77168
20
1.071
11
1.74846
21
1.06426
0
LINE
8
BLACK
6
CONTINUOUS
10
1.74846
20
1.06426
11
1.72487
21
1.05898
0
LINE
8
BLACK
6
CONTINUOUS
10
1.72487
20
1.05898
11
1.70099
21
1.0552
0
LINE
8
BLACK
6
CONTINUOUS
10
1.70099
20
1.0552
11
1.67692
21
1.05292
0
LINE
8
BLACK
6
CONTINUOUS
10
1.67692
20
1.05292
11
1.65276
21
1.05217
0
LINE
8
BLACK
6
CONTINUOUS
10
1.65276
20
1.05217
11
1.62859
21
1.05292
0
LINE
8
BLACK
6
CONTINUOUS
10
1.62859
20
1.05292
11
1.60452
21
1.0552
0
LINE
8
BLACK
6
CONTINUOUS
10
1.60452
20
1.0552
11
1.58064
21
1.05898
0
LINE
8
BLACK
6
CONTINUOUS
10
1.58064
20
1.05898
11
1.55705
21
1.06426
0
LINE
8
BLACK
6
CONTINUOUS
10
1.55705
20
1.06426
11
1.53383
21
1.071
0
LINE
8
BLACK
6
CONTINUOUS
10
1.53383
20
1.071
11
1.51109
21
1.07919
0
LINE
8
BLACK
6
CONTINUOUS
10
1.51109
20
1.07919
11
1.4889
21
1.08879
0
LINE
8
BLACK
6
CONTINUOUS
10
1.4889
20
1.08879
11
1.46736
21
1.09977
0
LINE
8
BLACK
6
CONTINUOUS
10
1.46736
20
1.09977
11
1.44655
21
1.11207
0
LINE
8
BLACK
6
CONTINUOUS
10
1.44655
20
1.11207
11
1.42655
21
1.12566
0
LINE
8
BLACK
6
CONTINUOUS
10
1.42655
20
1.12566
11
1.40745
21
1.14048
0
LINE
8
BLACK
6
CONTINUOUS
10
1.40745
20
1.14048
11
1.38931
21
1.15647
0
LINE
8
BLACK
6
CONTINUOUS
10
1.38931
20
1.15647
11
1.37222
21
1.17357
0
LINE
8
BLACK
6
CONTINUOUS
10
1.37222
20
1.17357
11
1.35623
21
1.1917
0
LINE
8
BLACK
6
CONTINUOUS
10
1.35623
20
1.1917
11
1.34141
21
1.2108
0
LINE
8
BLACK
6
CONTINUOUS
10
1.34141
20
1.2108
11
1.32782
21
1.2308
0
LINE
8
BLACK
6
CONTINUOUS
10
1.32782
20
1.2308
11
1.31552
21
1.25161
0
LINE
8
BLACK
6
CONTINUOUS
10
1.31552
20
1.25161
11
1.30454
21
1.27315
0
LINE
8
BLACK
6
CONTINUOUS
10
1.30454
20
1.27315
11
1.29494
21
1.29534
0
LINE
8
BLACK
6
CONTINUOUS
10
1.29494
20
1.29534
11
1.28675
21
1.31808
0
LINE
8
BLACK
6
CONTINUOUS
10
1.28675
20
1.31808
11
1.28
21
1.3413
0
LINE
8
BLACK
6
CONTINUOUS
10
1.28
20
1.3413
11
1.27473
21
1.3649
0
LINE
8
BLACK
6
CONTINUOUS
10
1.27473
20
1.3649
11
1.27095
21
1.38877
0
LINE
8
BLACK
6
CONTINUOUS
10
1.27095
20
1.38877
11
1.26867
21
1.41284
0
LINE
8
BLACK
6
CONTINUOUS
10
1.26867
20
1.41284
11
1.26791
21
1.43701
0
LINE
8
BLACK
6
CONTINUOUS
10
1.26791
20
1.43701
11
1.26867
21
1.46117
0
LINE
8
BLACK
6
CONTINUOUS
10
1.26867
20
1.46117
11
1.27095
21
1.48524
0
LINE
8
BLACK
6
CONTINUOUS
10
1.27271
20
1.389
11
1.27647
21
1.36523
0
LINE
8
BLACK
6
CONTINUOUS
10
1.27647
20
1.36523
11
1.28172
21
1.34174
0
LINE
8
BLACK
6
CONTINUOUS
10
1.28172
20
1.34174
11
1.28843
21
1.31863
0
LINE
8
BLACK
6
CONTINUOUS
10
1.28843
20
1.31863
11
1.29659
21
1.29599
0
LINE
8
BLACK
6
CONTINUOUS
10
1.29659
20
1.29599
11
1.30614
21
1.2739
0
LINE
8
BLACK
6
CONTINUOUS
10
1.30614
20
1.2739
11
1.31707
21
1.25246
0
LINE
8
BLACK
6
CONTINUOUS
10
1.31707
20
1.25246
11
1.32932
21
1.23175
0
LINE
8
BLACK
6
CONTINUOUS
10
1.32932
20
1.23175
11
1.34285
21
1.21184
0
LINE
8
BLACK
6
CONTINUOUS
10
1.34285
20
1.21184
11
1.35759
21
1.19283
0
LINE
8
BLACK
6
CONTINUOUS
10
1.35759
20
1.19283
11
1.37351
21
1.17478
0
LINE
8
BLACK
6
CONTINUOUS
10
1.37351
20
1.17478
11
1.39053
21
1.15776
0
LINE
8
BLACK
6
CONTINUOUS
10
1.39053
20
1.15776
11
1.40858
21
1.14185
0
LINE
8
BLACK
6
CONTINUOUS
10
1.40858
20
1.14185
11
1.42759
21
1.1271
0
LINE
8
BLACK
6
CONTINUOUS
10
1.42759
20
1.1271
11
1.4475
21
1.11357
0
LINE
8
BLACK
6
CONTINUOUS
10
1.4475
20
1.11357
11
1.46821
21
1.10132
0
LINE
8
BLACK
6
CONTINUOUS
10
1.46821
20
1.10132
11
1.48965
21
1.0904
0
LINE
8
BLACK
6
CONTINUOUS
10
1.48965
20
1.0904
11
1.51174
21
1.08084
0
LINE
8
BLACK
6
CONTINUOUS
10
1.51174
20
1.08084
11
1.53438
21
1.07269
0
LINE
8
BLACK
6
CONTINUOUS
10
1.53438
20
1.07269
11
1.55749
21
1.06597
0
LINE
8
BLACK
6
CONTINUOUS
10
1.55749
20
1.06597
11
1.58098
21
1.06072
0
LINE
8
BLACK
6
CONTINUOUS
10
1.58098
20
1.06072
11
1.60474
21
1.05696
0
LINE
8
BLACK
6
CONTINUOUS
10
1.60474
20
1.05696
11
1.6287
21
1.05469
0
LINE
8
BLACK
6
CONTINUOUS
10
1.6287
20
1.05469
11
1.65276
21
1.05394
0
LINE
8
BLACK
6
CONTINUOUS
10
1.65276
20
1.05394
11
1.67681
21
1.05469
0
LINE
8
BLACK
6
CONTINUOUS
10
1.67681
20
1.05469
11
1.70077
21
1.05696
0
LINE
8
BLACK
6
CONTINUOUS
10
1.70077
20
1.05696
11
1.72454
21
1.06072
0
LINE
8
BLACK
6
CONTINUOUS
10
1.72454
20
1.06072
11
1.74802
21
1.06597
0
LINE
8
BLACK
6
CONTINUOUS
10
1.74802
20
1.06597
11
1.77113
21
1.07269
0
LINE
8
BLACK
6
CONTINUOUS
10
1.77113
20
1.07269
11
1.79377
21
1.08084
0
LINE
8
BLACK
6
CONTINUOUS
10
1.79377
20
1.08084
11
1.81586
21
1.0904
0
LINE
8
BLACK
6
CONTINUOUS
10
1.81586
20
1.0904
11
1.8373
21
1.10132
0
LINE
8
BLACK
6
CONTINUOUS
10
1.8373
20
1.10132
11
1.85802
21
1.11357
0
LINE
8
BLACK
6
CONTINUOUS
10
1.85802
20
1.11357
11
1.87792
21
1.1271
0
LINE
8
BLACK
6
CONTINUOUS
10
1.87792
20
1.1271
11
1.89693
21
1.14185
0
LINE
8
BLACK
6
CONTINUOUS
10
1.89693
20
1.14185
11
1.91499
21
1.15776
0
LINE
8
BLACK
6
CONTINUOUS
10
1.91499
20
1.15776
11
1.932
21
1.17478
0
LINE
8
BLACK
6
CONTINUOUS
10
1.932
20
1.17478
11
1.94792
21
1.19283
0
LINE
8
BLACK
6
CONTINUOUS
10
1.94792
20
1.19283
11
1.96267
21
1.21184
0
LINE
8
BLACK
6
CONTINUOUS
10
1.96267
20
1.21184
11
1.97619
21
1.23175
0
LINE
8
BLACK
6
CONTINUOUS
10
1.97619
20
1.23175
11
1.98844
21
1.25246
0
LINE
8
BLACK
6
CONTINUOUS
10
1.98844
20
1.25246
11
1.99937
21
1.2739
0
LINE
8
BLACK
6
CONTINUOUS
10
1.99937
20
1.2739
11
2.00893
21
1.29599
0
LINE
8
BLACK
6
CONTINUOUS
10
2.00893
20
1.29599
11
2.01708
21
1.31863
0
LINE
8
BLACK
6
CONTINUOUS
10
2.01708
20
1.31863
11
2.02379
21
1.34174
0
LINE
8
BLACK
6
CONTINUOUS
10
2.02379
20
1.34174
11
2.02904
21
1.36523
0
LINE
8
BLACK
6
CONTINUOUS
10
2.02904
20
1.36523
11
2.03281
21
1.389
0
LINE
8
BLACK
6
CONTINUOUS
10
2.03281
20
1.389
11
2.03507
21
1.41295
0
LINE
8
BLACK
6
CONTINUOUS
10
2.03507
20
1.41295
11
2.03583
21
1.43701
0
LINE
8
BLACK
6
CONTINUOUS
10
2.03583
20
1.43701
11
2.03507
21
1.46106
0
LINE
8
BLACK
6
CONTINUOUS
10
2.03507
20
1.46106
11
2.03281
21
1.48502
0
LINE
8
BLACK
6
CONTINUOUS
10
2.03281
20
1.48502
11
2.02904
21
1.50879
0
LINE
8
BLACK
6
CONTINUOUS
10
2.02904
20
1.50879
11
2.02379
21
1.53227
0
LINE
8
BLACK
6
CONTINUOUS
10
2.02379
20
1.53227
11
2.01708
21
1.55538
0
LINE
8
BLACK
6
CONTINUOUS
10
2.01708
20
1.55538
11
2.00893
21
1.57803
0
LINE
8
BLACK
6
CONTINUOUS
10
2.00893
20
1.57803
11
1.99937
21
1.60011
0
LINE
8
BLACK
6
CONTINUOUS
10
1.99937
20
1.60011
11
1.98844
21
1.62155
0
LINE
8
BLACK
6
CONTINUOUS
10
1.98844
20
1.62155
11
1.97619
21
1.64227
0
LINE
8
BLACK
6
CONTINUOUS
10
1.97619
20
1.64227
11
1.96267
21
1.66217
0
LINE
8
BLACK
6
CONTINUOUS
10
1.96267
20
1.66217
11
1.94792
21
1.68119
0
LINE
8
BLACK
6
CONTINUOUS
10
1.94792
20
1.68119
11
1.932
21
1.69924
0
LINE
8
BLACK
6
CONTINUOUS
10
1.932
20
1.69924
11
1.91499
21
1.71625
0
LINE
8
BLACK
6
CONTINUOUS
10
1.91499
20
1.71625
11
1.89693
21
1.73217
0
LINE
8
BLACK
6
CONTINUOUS
10
1.89693
20
1.73217
11
1.87792
21
1.74692
0
LINE
8
BLACK
6
CONTINUOUS
10
1.87792
20
1.74692
11
1.85802
21
1.76045
0
LINE
8
BLACK
6
CONTINUOUS
10
1.85802
20
1.76045
11
1.8373
21
1.7727
0
LINE
8
BLACK
6
CONTINUOUS
10
1.8373
20
1.7727
11
1.81586
21
1.78362
0
LINE
8
BLACK
6
CONTINUOUS
10
1.81586
20
1.78362
11
1.79377
21
1.79318
0
LINE
8
BLACK
6
CONTINUOUS
10
1.79377
20
1.79318
11
1.77113
21
1.80133
0
LINE
8
BLACK
6
CONTINUOUS
10
1.77113
20
1.80133
11
1.74802
21
1.80804
0
LINE
8
BLACK
6
CONTINUOUS
10
1.74802
20
1.80804
11
1.72454
21
1.81329
0
LINE
8
BLACK
6
CONTINUOUS
10
1.72454
20
1.81329
11
1.70077
21
1.81706
0
LINE
8
BLACK
6
CONTINUOUS
10
1.70077
20
1.81706
11
1.67681
21
1.81932
0
LINE
8
BLACK
6
CONTINUOUS
10
1.67681
20
1.81932
11
1.65276
21
1.82008
0
LINE
8
BLACK
6
CONTINUOUS
10
1.65276
20
1.82008
11
1.6287
21
1.81932
0
LINE
8
BLACK
6
CONTINUOUS
10
1.6287
20
1.81932
11
1.60474
21
1.81706
0
LINE
8
BLACK
6
CONTINUOUS
10
1.60474
20
1.81706
11
1.58098
21
1.81329
0
LINE
8
BLACK
6
CONTINUOUS
10
1.58098
20
1.81329
11
1.55749
21
1.80804
0
LINE
8
BLACK
6
CONTINUOUS
10
1.55749
20
1.80804
11
1.53438
21
1.80133
0
LINE
8
BLACK
6
CONTINUOUS
10
1.53438
20
1.80133
11
1.51174
21
1.79318
0
LINE
8
BLACK
6
CONTINUOUS
10
1.51174
20
1.79318
11
1.48965
21
1.78362
0
LINE
8
BLACK
6
CONTINUOUS
10
1.48965
20
1.78362
11
1.46821
21
1.7727
0
LINE
8
BLACK
6
CONTINUOUS
10
1.46821
20
1.7727
11
1.4475
21
1.76045
0
LINE
8
BLACK
6
CONTINUOUS
10
1.4475
20
1.76045
11
1.42759
21
1.74692
0
LINE
8
BLACK
6
CONTINUOUS
10
1.42759
20
1.74692
11
1.40858
21
1.73217
0
LINE
8
BLACK
6
CONTINUOUS
10
1.40858
20
1.73217
11
1.39053
21
1.71625
0
LINE
8
BLACK
6
CONTINUOUS
10
1.39053
20
1.71625
11
1.37351
21
1.69924
0
LINE
8
BLACK
6
CONTINUOUS
10
1.37351
20
1.69924
11
1.35759
21
1.68119
0
LINE
8
BLACK
6
CONTINUOUS
10
1.35759
20
1.68119
11
1.34285
21
1.66217
0
LINE
8
BLACK
6
CONTINUOUS
10
1.34285
20
1.66217
11
1.32932
21
1.64227
0
LINE
8
BLACK
6
CONTINUOUS
10
1.32932
20
1.64227
11
1.31707
21
1.62155
0
LINE
8
BLACK
6
CONTINUOUS
10
1.31707
20
1.62155
11
1.30614
21
1.60011
0
LINE
8
BLACK
6
CONTINUOUS
10
1.30614
20
1.60011
11
1.29659
21
1.57803
0
LINE
8
BLACK
6
CONTINUOUS
10
1.29659
20
1.57803
11
1.28843
21
1.55538
0
LINE
8
BLACK
6
CONTINUOUS
10
1.28843
20
1.55538
11
1.28172
21
1.53227
0
LINE
8
BLACK
6
CONTINUOUS
10
1.28172
20
1.53227
11
1.27647
21
1.50879
0
LINE
8
BLACK
6
CONTINUOUS
10
1.27647
20
1.50879
11
1.27271
21
1.48502
0
LINE
8
BLACK
6
CONTINUOUS
10
1.27271
20
1.48502
11
1.27044
21
1.46106
0
LINE
8
BLACK
6
CONTINUOUS
10
1.27044
20
1.46106
11
1.26969
21
1.43701
0
LINE
8
BLACK
6
CONTINUOUS
10
1.26969
20
1.43701
11
1.27044
21
1.41295
0
LINE
8
BLACK
6
CONTINUOUS
10
1.27044
20
1.41295
11
1.27271
21
1.389
  0
ENDSEC
  0
EOF
